<?xml version="1.0" encoding="UTF-8" standalone="yes"?>
<!DOCTYPE svg PUBLIC "-//W3C//DTD SVG 1.0//EN" "http://www.w3.org/TR/2001/REC-SVG-20010904/DTD/svg10.dtd">
<svg height="300" width="800" xmlns="http://www.w3.org/2000/svg" xmlns:svg="http://www.w3.org/2000/svg" xmlns:xlink="http://www.w3.org/1999/xlink">
	<line stroke="black" stroke-width="2" x1="40" x2="40" y1="15" y2="285" />
	<line stroke="black" stroke-width="2" x1="40" x2="42.6277372262774" y1="231" y2="231" />
	<text font-size="12" x="43.9416058394161" y="231">200</text>
	<line stroke="black" stroke-width="2" x1="40" x2="42.6277372262774" y1="177" y2="177" />
	<text font-size="12" x="43.9416058394161" y="177">400</text>
	<line stroke="black" stroke-width="2" x1="40" x2="42.6277372262774" y1="123" y2="123" />
	<text font-size="12" x="43.9416058394161" y="123">600</text>
	<line stroke="black" stroke-width="2" x1="40" x2="42.6277372262774" y1="69" y2="69" />
	<text font-size="12" x="43.9416058394161" y="69">800</text>
	<line stroke="black" stroke-width="2" x1="40" x2="42.6277372262774" y1="15" y2="15" />
	<text font-size="12" x="43.9416058394161" y="15">1000</text>
	<line stroke="black" stroke-width="2" x1="40" x2="800" y1="285" y2="285" />
	<path d="M 40,285 L 40,285 L 42.6277372262774,285 L 42.6277372262774,285 Z" style="fill:blue;stroke:black;stroke-width:0.5;" />
	<path d="M 42.6277372262774,285 L 42.6277372262774,285 L 45.2554744525547,285 L 45.2554744525547,285 Z" style="fill:blue;stroke:black;stroke-width:0.5;" />
	<path d="M 45.2554744525547,285 L 45.2554744525547,285 L 47.8832116788321,285 L 47.8832116788321,285 Z" style="fill:blue;stroke:black;stroke-width:0.5;" />
	<path d="M 47.8832116788321,285 L 47.8832116788321,285 L 50.5109489051095,285 L 50.5109489051095,285 Z" style="fill:blue;stroke:black;stroke-width:0.5;" />
	<path d="M 50.5109489051095,285 L 50.5109489051095,285 L 53.1386861313869,285 L 53.1386861313869,285 Z" style="fill:blue;stroke:black;stroke-width:0.5;" />
	<line stroke="black" stroke-width="2" x1="51.8248175182482" x2="51.8248175182482" y1="285" y2="284" />
	<path d="M 53.1386861313869,285 L 53.1386861313869,285 L 55.7664233576642,285 L 55.7664233576642,285 Z" style="fill:blue;stroke:black;stroke-width:0.5;" />
	<path d="M 55.7664233576642,285 L 55.7664233576642,285 L 58.3941605839416,285 L 58.3941605839416,285 Z" style="fill:blue;stroke:black;stroke-width:0.5;" />
	<path d="M 58.3941605839416,285 L 58.3941605839416,285 L 61.021897810219,285 L 61.021897810219,285 Z" style="fill:blue;stroke:black;stroke-width:0.5;" />
	<path d="M 61.021897810219,285 L 61.021897810219,285 L 63.6496350364963,285 L 63.6496350364963,285 Z" style="fill:blue;stroke:black;stroke-width:0.5;" />
	<path d="M 63.6496350364963,285 L 63.6496350364963,285 L 66.2773722627737,285 L 66.2773722627737,285 Z" style="fill:blue;stroke:black;stroke-width:0.5;" />
	<text font-size="10" x="63.6496350364963" y="297">10</text>
	<line stroke="black" stroke-width="2" x1="64.963503649635" x2="64.963503649635" y1="285" y2="283" />
	<line stroke="black" stroke-width="2" x1="64.963503649635" x2="64.963503649635" y1="285" y2="284" />
	<path d="M 66.2773722627737,285 L 66.2773722627737,285 L 68.9051094890511,285 L 68.9051094890511,285 Z" style="fill:blue;stroke:black;stroke-width:0.5;" />
	<path d="M 68.9051094890511,285 L 68.9051094890511,285 L 71.5328467153285,285 L 71.5328467153285,285 Z" style="fill:blue;stroke:black;stroke-width:0.5;" />
	<path d="M 71.5328467153285,285 L 71.5328467153285,285 L 74.1605839416058,285 L 74.1605839416058,285 Z" style="fill:blue;stroke:black;stroke-width:0.5;" />
	<path d="M 74.1605839416058,285 L 74.1605839416058,285 L 76.7883211678832,285 L 76.7883211678832,285 Z" style="fill:blue;stroke:black;stroke-width:0.5;" />
	<path d="M 76.7883211678832,285 L 76.7883211678832,285 L 79.4160583941606,285 L 79.4160583941606,285 Z" style="fill:blue;stroke:black;stroke-width:0.5;" />
	<line stroke="black" stroke-width="2" x1="78.1021897810219" x2="78.1021897810219" y1="285" y2="284" />
	<path d="M 79.4160583941606,285 L 79.4160583941606,285 L 82.0437956204379,285 L 82.0437956204379,285 Z" style="fill:blue;stroke:black;stroke-width:0.5;" />
	<path d="M 82.0437956204379,285 L 82.0437956204379,284.9541 L 84.6715328467153,284.9541 L 84.6715328467153,285 Z" style="fill:blue;stroke:black;stroke-width:0.5;" />
	<path d="M 84.6715328467153,285 L 84.6715328467153,284.9541 L 87.2992700729927,284.9541 L 87.2992700729927,285 Z" style="fill:blue;stroke:black;stroke-width:0.5;" />
	<path d="M 87.2992700729927,285 L 87.2992700729927,284.9541 L 89.9270072992701,284.9541 L 89.9270072992701,285 Z" style="fill:blue;stroke:black;stroke-width:0.5;" />
	<path d="M 89.9270072992701,285 L 89.9270072992701,284.9541 L 92.5547445255474,284.9541 L 92.5547445255474,285 Z" style="fill:blue;stroke:black;stroke-width:0.5;" />
	<text font-size="10" x="89.9270072992701" y="297">20</text>
	<line stroke="black" stroke-width="2" x1="91.2408759124088" x2="91.2408759124088" y1="285" y2="283" />
	<line stroke="black" stroke-width="2" x1="91.2408759124088" x2="91.2408759124088" y1="285" y2="284" />
	<path d="M 92.5547445255474,285 L 92.5547445255474,284.9541 L 95.1824817518248,284.9541 L 95.1824817518248,285 Z" style="fill:blue;stroke:black;stroke-width:0.5;" />
	<path d="M 95.1824817518248,285 L 95.1824817518248,284.9541 L 97.8102189781022,284.9541 L 97.8102189781022,285 Z" style="fill:blue;stroke:black;stroke-width:0.5;" />
	<path d="M 97.8102189781022,285 L 97.8102189781022,284.9109 L 100.43795620438,284.9109 L 100.43795620438,285 Z" style="fill:blue;stroke:black;stroke-width:0.5;" />
	<path d="M 100.43795620438,285 L 100.43795620438,284.865 L 103.065693430657,284.865 L 103.065693430657,285 Z" style="fill:blue;stroke:black;stroke-width:0.5;" />
	<path d="M 103.065693430657,285 L 103.065693430657,284.865 L 105.693430656934,284.865 L 105.693430656934,285 Z" style="fill:blue;stroke:black;stroke-width:0.5;" />
	<line stroke="black" stroke-width="2" x1="104.379562043796" x2="104.379562043796" y1="285" y2="284" />
	<path d="M 105.693430656934,285 L 105.693430656934,284.865 L 108.321167883212,284.865 L 108.321167883212,285 Z" style="fill:blue;stroke:black;stroke-width:0.5;" />
	<path d="M 108.321167883212,285 L 108.321167883212,284.865 L 110.948905109489,284.865 L 110.948905109489,285 Z" style="fill:blue;stroke:black;stroke-width:0.5;" />
	<path d="M 110.948905109489,285 L 110.948905109489,284.865 L 113.576642335766,284.865 L 113.576642335766,285 Z" style="fill:blue;stroke:black;stroke-width:0.5;" />
	<path d="M 113.576642335766,285 L 113.576642335766,284.8218 L 116.204379562044,284.8218 L 116.204379562044,285 Z" style="fill:blue;stroke:black;stroke-width:0.5;" />
	<path d="M 116.204379562044,285 L 116.204379562044,284.8218 L 118.832116788321,284.8218 L 118.832116788321,285 Z" style="fill:blue;stroke:black;stroke-width:0.5;" />
	<text font-size="10" x="116.204379562044" y="297">30</text>
	<line stroke="black" stroke-width="2" x1="117.518248175182" x2="117.518248175182" y1="285" y2="283" />
	<line stroke="black" stroke-width="2" x1="117.518248175182" x2="117.518248175182" y1="285" y2="284" />
	<path d="M 118.832116788321,285 L 118.832116788321,284.8218 L 121.459854014599,284.8218 L 121.459854014599,285 Z" style="fill:blue;stroke:black;stroke-width:0.5;" />
	<path d="M 121.459854014599,285 L 121.459854014599,284.8218 L 124.087591240876,284.8218 L 124.087591240876,285 Z" style="fill:blue;stroke:black;stroke-width:0.5;" />
	<path d="M 124.087591240876,285 L 124.087591240876,284.8218 L 126.715328467153,284.8218 L 126.715328467153,285 Z" style="fill:blue;stroke:black;stroke-width:0.5;" />
	<path d="M 126.715328467153,285 L 126.715328467153,284.8218 L 129.343065693431,284.8218 L 129.343065693431,285 Z" style="fill:blue;stroke:black;stroke-width:0.5;" />
	<path d="M 129.343065693431,285 L 129.343065693431,284.8218 L 131.970802919708,284.8218 L 131.970802919708,285 Z" style="fill:blue;stroke:black;stroke-width:0.5;" />
	<line stroke="black" stroke-width="2" x1="130.656934306569" x2="130.656934306569" y1="285" y2="284" />
	<path d="M 131.970802919708,285 L 131.970802919708,284.8218 L 134.598540145985,284.8218 L 134.598540145985,285 Z" style="fill:blue;stroke:black;stroke-width:0.5;" />
	<path d="M 134.598540145985,285 L 134.598540145985,284.8218 L 137.226277372263,284.8218 L 137.226277372263,285 Z" style="fill:blue;stroke:black;stroke-width:0.5;" />
	<path d="M 137.226277372263,285 L 137.226277372263,284.8218 L 139.85401459854,284.8218 L 139.85401459854,285 Z" style="fill:blue;stroke:black;stroke-width:0.5;" />
	<path d="M 139.85401459854,285 L 139.85401459854,284.8677 L 142.481751824818,284.8677 L 142.481751824818,285 Z" style="fill:blue;stroke:black;stroke-width:0.5;" />
	<path d="M 142.481751824818,285 L 142.481751824818,284.8677 L 145.109489051095,284.8677 L 145.109489051095,285 Z" style="fill:blue;stroke:black;stroke-width:0.5;" />
	<text font-size="10" x="142.481751824818" y="297">40</text>
	<line stroke="black" stroke-width="2" x1="143.795620437956" x2="143.795620437956" y1="285" y2="283" />
	<line stroke="black" stroke-width="2" x1="143.795620437956" x2="143.795620437956" y1="285" y2="284" />
	<path d="M 145.109489051095,285 L 145.109489051095,284.8677 L 147.737226277372,284.8677 L 147.737226277372,285 Z" style="fill:blue;stroke:black;stroke-width:0.5;" />
	<path d="M 147.737226277372,285 L 147.737226277372,284.8677 L 150.36496350365,284.8677 L 150.36496350365,285 Z" style="fill:blue;stroke:black;stroke-width:0.5;" />
	<path d="M 150.36496350365,285 L 150.36496350365,284.8677 L 152.992700729927,284.8677 L 152.992700729927,285 Z" style="fill:blue;stroke:black;stroke-width:0.5;" />
	<path d="M 152.992700729927,285 L 152.992700729927,284.8677 L 155.620437956204,284.8677 L 155.620437956204,285 Z" style="fill:blue;stroke:black;stroke-width:0.5;" />
	<path d="M 155.620437956204,285 L 155.620437956204,284.8677 L 158.248175182482,284.8677 L 158.248175182482,285 Z" style="fill:blue;stroke:black;stroke-width:0.5;" />
	<line stroke="black" stroke-width="2" x1="156.934306569343" x2="156.934306569343" y1="285" y2="284" />
	<path d="M 158.248175182482,285 L 158.248175182482,284.9109 L 160.875912408759,284.9109 L 160.875912408759,285 Z" style="fill:blue;stroke:black;stroke-width:0.5;" />
	<path d="M 160.875912408759,285 L 160.875912408759,284.9109 L 163.503649635036,284.9109 L 163.503649635036,285 Z" style="fill:blue;stroke:black;stroke-width:0.5;" />
	<path d="M 163.503649635036,285 L 163.503649635036,284.9109 L 166.131386861314,284.9109 L 166.131386861314,285 Z" style="fill:blue;stroke:black;stroke-width:0.5;" />
	<path d="M 166.131386861314,285 L 166.131386861314,284.9109 L 168.759124087591,284.9109 L 168.759124087591,285 Z" style="fill:blue;stroke:black;stroke-width:0.5;" />
	<path d="M 168.759124087591,285 L 168.759124087591,284.9568 L 171.386861313869,284.9568 L 171.386861313869,285 Z" style="fill:blue;stroke:black;stroke-width:0.5;" />
	<text font-size="10" x="168.759124087591" y="297">50</text>
	<line stroke="black" stroke-width="2" x1="170.07299270073" x2="170.07299270073" y1="285" y2="283" />
	<line stroke="black" stroke-width="2" x1="170.07299270073" x2="170.07299270073" y1="285" y2="284" />
	<path d="M 171.386861313869,285 L 171.386861313869,284.9136 L 174.014598540146,284.9136 L 174.014598540146,285 Z" style="fill:blue;stroke:black;stroke-width:0.5;" />
	<path d="M 174.014598540146,285 L 174.014598540146,284.8704 L 176.642335766423,284.8704 L 176.642335766423,285 Z" style="fill:blue;stroke:black;stroke-width:0.5;" />
	<path d="M 176.642335766423,285 L 176.642335766423,284.8704 L 179.270072992701,284.8704 L 179.270072992701,285 Z" style="fill:blue;stroke:black;stroke-width:0.5;" />
	<path d="M 179.270072992701,285 L 179.270072992701,284.8704 L 181.897810218978,284.8704 L 181.897810218978,285 Z" style="fill:blue;stroke:black;stroke-width:0.5;" />
	<path d="M 181.897810218978,285 L 181.897810218978,284.8704 L 184.525547445255,284.8704 L 184.525547445255,285 Z" style="fill:blue;stroke:black;stroke-width:0.5;" />
	<line stroke="black" stroke-width="2" x1="183.211678832117" x2="183.211678832117" y1="285" y2="284" />
	<path d="M 184.525547445255,285 L 184.525547445255,284.9136 L 187.153284671533,284.9136 L 187.153284671533,285 Z" style="fill:blue;stroke:black;stroke-width:0.5;" />
	<path d="M 187.153284671533,285 L 187.153284671533,284.9136 L 189.78102189781,284.9136 L 189.78102189781,285 Z" style="fill:blue;stroke:black;stroke-width:0.5;" />
	<path d="M 189.78102189781,285 L 189.78102189781,284.9136 L 192.408759124088,284.9136 L 192.408759124088,285 Z" style="fill:blue;stroke:black;stroke-width:0.5;" />
	<path d="M 192.408759124088,285 L 192.408759124088,284.8704 L 195.036496350365,284.8704 L 195.036496350365,285 Z" style="fill:blue;stroke:black;stroke-width:0.5;" />
	<path d="M 195.036496350365,285 L 195.036496350365,284.8704 L 197.664233576642,284.8704 L 197.664233576642,285 Z" style="fill:blue;stroke:black;stroke-width:0.5;" />
	<text font-size="10" x="195.036496350365" y="297">60</text>
	<line stroke="black" stroke-width="2" x1="196.350364963504" x2="196.350364963504" y1="285" y2="283" />
	<line stroke="black" stroke-width="2" x1="196.350364963504" x2="196.350364963504" y1="285" y2="284" />
	<path d="M 197.664233576642,285 L 197.664233576642,284.8704 L 200.29197080292,284.8704 L 200.29197080292,285 Z" style="fill:blue;stroke:black;stroke-width:0.5;" />
	<path d="M 200.29197080292,285 L 200.29197080292,284.8704 L 202.919708029197,284.8704 L 202.919708029197,285 Z" style="fill:blue;stroke:black;stroke-width:0.5;" />
	<path d="M 202.919708029197,285 L 202.919708029197,284.8704 L 205.547445255474,284.8704 L 205.547445255474,285 Z" style="fill:blue;stroke:black;stroke-width:0.5;" />
	<path d="M 205.547445255474,285 L 205.547445255474,284.8704 L 208.175182481752,284.8704 L 208.175182481752,285 Z" style="fill:blue;stroke:black;stroke-width:0.5;" />
	<path d="M 208.175182481752,285 L 208.175182481752,284.8704 L 210.802919708029,284.8704 L 210.802919708029,285 Z" style="fill:blue;stroke:black;stroke-width:0.5;" />
	<line stroke="black" stroke-width="2" x1="209.48905109489" x2="209.48905109489" y1="285" y2="284" />
	<path d="M 210.802919708029,285 L 210.802919708029,284.8272 L 213.430656934307,284.8272 L 213.430656934307,285 Z" style="fill:blue;stroke:black;stroke-width:0.5;" />
	<path d="M 213.430656934307,285 L 213.430656934307,284.784 L 216.058394160584,284.784 L 216.058394160584,285 Z" style="fill:blue;stroke:black;stroke-width:0.5;" />
	<path d="M 216.058394160584,285 L 216.058394160584,284.784 L 218.686131386861,284.784 L 218.686131386861,285 Z" style="fill:blue;stroke:black;stroke-width:0.5;" />
	<path d="M 218.686131386861,285 L 218.686131386861,284.784 L 221.313868613139,284.784 L 221.313868613139,285 Z" style="fill:blue;stroke:black;stroke-width:0.5;" />
	<path d="M 221.313868613139,285 L 221.313868613139,284.784 L 223.941605839416,284.784 L 223.941605839416,285 Z" style="fill:blue;stroke:black;stroke-width:0.5;" />
	<text font-size="10" x="221.313868613139" y="297">70</text>
	<line stroke="black" stroke-width="2" x1="222.627737226277" x2="222.627737226277" y1="285" y2="283" />
	<line stroke="black" stroke-width="2" x1="222.627737226277" x2="222.627737226277" y1="285" y2="284" />
	<path d="M 223.941605839416,285 L 223.941605839416,284.784 L 226.569343065693,284.784 L 226.569343065693,285 Z" style="fill:blue;stroke:black;stroke-width:0.5;" />
	<path d="M 226.569343065693,285 L 226.569343065693,284.784 L 229.197080291971,284.784 L 229.197080291971,285 Z" style="fill:blue;stroke:black;stroke-width:0.5;" />
	<path d="M 229.197080291971,285 L 229.197080291971,284.784 L 231.824817518248,284.784 L 231.824817518248,285 Z" style="fill:blue;stroke:black;stroke-width:0.5;" />
	<path d="M 231.824817518248,285 L 231.824817518248,284.784 L 234.452554744526,284.784 L 234.452554744526,285 Z" style="fill:blue;stroke:black;stroke-width:0.5;" />
	<path d="M 234.452554744526,285 L 234.452554744526,284.8272 L 237.080291970803,284.8272 L 237.080291970803,285 Z" style="fill:blue;stroke:black;stroke-width:0.5;" />
	<line stroke="black" stroke-width="2" x1="235.766423357664" x2="235.766423357664" y1="285" y2="284" />
	<path d="M 237.080291970803,285 L 237.080291970803,284.8272 L 239.70802919708,284.8272 L 239.70802919708,285 Z" style="fill:blue;stroke:black;stroke-width:0.5;" />
	<path d="M 239.70802919708,285 L 239.70802919708,284.8272 L 242.335766423358,284.8272 L 242.335766423358,285 Z" style="fill:blue;stroke:black;stroke-width:0.5;" />
	<path d="M 242.335766423358,285 L 242.335766423358,284.8272 L 244.963503649635,284.8272 L 244.963503649635,285 Z" style="fill:blue;stroke:black;stroke-width:0.5;" />
	<path d="M 244.963503649635,285 L 244.963503649635,284.8272 L 247.591240875912,284.8272 L 247.591240875912,285 Z" style="fill:blue;stroke:black;stroke-width:0.5;" />
	<path d="M 247.591240875912,285 L 247.591240875912,284.8272 L 250.21897810219,284.8272 L 250.21897810219,285 Z" style="fill:blue;stroke:black;stroke-width:0.5;" />
	<text font-size="10" x="247.591240875912" y="297">80</text>
	<line stroke="black" stroke-width="2" x1="248.905109489051" x2="248.905109489051" y1="285" y2="283" />
	<line stroke="black" stroke-width="2" x1="248.905109489051" x2="248.905109489051" y1="285" y2="284" />
	<path d="M 250.21897810219,285 L 250.21897810219,284.8272 L 252.846715328467,284.8272 L 252.846715328467,285 Z" style="fill:blue;stroke:black;stroke-width:0.5;" />
	<path d="M 252.846715328467,285 L 252.846715328467,284.8704 L 255.474452554745,284.8704 L 255.474452554745,285 Z" style="fill:blue;stroke:black;stroke-width:0.5;" />
	<path d="M 255.474452554745,285 L 255.474452554745,284.8704 L 258.102189781022,284.8704 L 258.102189781022,285 Z" style="fill:blue;stroke:black;stroke-width:0.5;" />
	<path d="M 258.102189781022,285 L 258.102189781022,284.8704 L 260.729927007299,284.8704 L 260.729927007299,285 Z" style="fill:blue;stroke:black;stroke-width:0.5;" />
	<path d="M 260.729927007299,285 L 260.729927007299,284.8704 L 263.357664233577,284.8704 L 263.357664233577,285 Z" style="fill:blue;stroke:black;stroke-width:0.5;" />
	<line stroke="black" stroke-width="2" x1="262.043795620438" x2="262.043795620438" y1="285" y2="284" />
	<path d="M 263.357664233577,285 L 263.357664233577,284.8704 L 265.985401459854,284.8704 L 265.985401459854,285 Z" style="fill:blue;stroke:black;stroke-width:0.5;" />
	<path d="M 265.985401459854,285 L 265.985401459854,284.8704 L 268.613138686131,284.8704 L 268.613138686131,285 Z" style="fill:blue;stroke:black;stroke-width:0.5;" />
	<path d="M 268.613138686131,285 L 268.613138686131,284.8704 L 271.240875912409,284.8704 L 271.240875912409,285 Z" style="fill:blue;stroke:black;stroke-width:0.5;" />
	<path d="M 271.240875912409,285 L 271.240875912409,284.8704 L 273.868613138686,284.8704 L 273.868613138686,285 Z" style="fill:blue;stroke:black;stroke-width:0.5;" />
	<path d="M 273.868613138686,285 L 273.868613138686,284.8704 L 276.496350364964,284.8704 L 276.496350364964,285 Z" style="fill:blue;stroke:black;stroke-width:0.5;" />
	<text font-size="10" x="273.868613138686" y="297">90</text>
	<line stroke="black" stroke-width="2" x1="275.182481751825" x2="275.182481751825" y1="285" y2="283" />
	<line stroke="black" stroke-width="2" x1="275.182481751825" x2="275.182481751825" y1="285" y2="284" />
	<path d="M 276.496350364964,285 L 276.496350364964,284.8704 L 279.124087591241,284.8704 L 279.124087591241,285 Z" style="fill:blue;stroke:black;stroke-width:0.5;" />
	<path d="M 279.124087591241,285 L 279.124087591241,284.8704 L 281.751824817518,284.8704 L 281.751824817518,285 Z" style="fill:blue;stroke:black;stroke-width:0.5;" />
	<path d="M 281.751824817518,285 L 281.751824817518,284.8704 L 284.379562043796,284.8704 L 284.379562043796,285 Z" style="fill:blue;stroke:black;stroke-width:0.5;" />
	<path d="M 284.379562043796,285 L 284.379562043796,284.9136 L 287.007299270073,284.9136 L 287.007299270073,285 Z" style="fill:blue;stroke:black;stroke-width:0.5;" />
	<path d="M 287.007299270073,285 L 287.007299270073,284.9136 L 289.63503649635,284.9136 L 289.63503649635,285 Z" style="fill:blue;stroke:black;stroke-width:0.5;" />
	<line stroke="black" stroke-width="2" x1="288.321167883212" x2="288.321167883212" y1="285" y2="284" />
	<path d="M 289.63503649635,285 L 289.63503649635,284.9136 L 292.262773722628,284.9136 L 292.262773722628,285 Z" style="fill:blue;stroke:black;stroke-width:0.5;" />
	<path d="M 292.262773722628,285 L 292.262773722628,284.9136 L 294.890510948905,284.9136 L 294.890510948905,285 Z" style="fill:blue;stroke:black;stroke-width:0.5;" />
	<path d="M 294.890510948905,285 L 294.890510948905,284.9541 L 297.518248175182,284.9541 L 297.518248175182,285 Z" style="fill:blue;stroke:black;stroke-width:0.5;" />
	<path d="M 297.518248175182,285 L 297.518248175182,284.9541 L 300.14598540146,284.9541 L 300.14598540146,285 Z" style="fill:blue;stroke:black;stroke-width:0.5;" />
	<path d="M 300.14598540146,285 L 300.14598540146,284.9109 L 302.773722627737,284.9109 L 302.773722627737,285 Z" style="fill:blue;stroke:black;stroke-width:0.5;" />
	<text font-size="10" x="300.14598540146" y="297">100</text>
	<line stroke="black" stroke-width="2" x1="301.459854014599" x2="301.459854014599" y1="285" y2="283" />
	<line stroke="black" stroke-width="2" x1="301.459854014599" x2="301.459854014599" y1="285" y2="284" />
	<path d="M 302.773722627737,285 L 302.773722627737,284.9109 L 305.401459854015,284.9109 L 305.401459854015,285 Z" style="fill:blue;stroke:black;stroke-width:0.5;" />
	<path d="M 305.401459854015,285 L 305.401459854015,284.9109 L 308.029197080292,284.9109 L 308.029197080292,285 Z" style="fill:blue;stroke:black;stroke-width:0.5;" />
	<path d="M 308.029197080292,285 L 308.029197080292,284.9109 L 310.656934306569,284.9109 L 310.656934306569,285 Z" style="fill:blue;stroke:black;stroke-width:0.5;" />
	<path d="M 310.656934306569,285 L 310.656934306569,284.9109 L 313.284671532847,284.9109 L 313.284671532847,285 Z" style="fill:blue;stroke:black;stroke-width:0.5;" />
	<path d="M 313.284671532847,285 L 313.284671532847,284.9109 L 315.912408759124,284.9109 L 315.912408759124,285 Z" style="fill:blue;stroke:black;stroke-width:0.5;" />
	<line stroke="black" stroke-width="2" x1="314.598540145985" x2="314.598540145985" y1="285" y2="284" />
	<path d="M 315.912408759124,285 L 315.912408759124,284.9109 L 318.540145985401,284.9109 L 318.540145985401,285 Z" style="fill:blue;stroke:black;stroke-width:0.5;" />
	<path d="M 318.540145985401,285 L 318.540145985401,284.9109 L 321.167883211679,284.9109 L 321.167883211679,285 Z" style="fill:blue;stroke:black;stroke-width:0.5;" />
	<path d="M 321.167883211679,285 L 321.167883211679,284.9109 L 323.795620437956,284.9109 L 323.795620437956,285 Z" style="fill:blue;stroke:black;stroke-width:0.5;" />
	<path d="M 323.795620437956,285 L 323.795620437956,284.9109 L 326.423357664234,284.9109 L 326.423357664234,285 Z" style="fill:blue;stroke:black;stroke-width:0.5;" />
	<path d="M 326.423357664234,285 L 326.423357664234,284.9109 L 329.051094890511,284.9109 L 329.051094890511,285 Z" style="fill:blue;stroke:black;stroke-width:0.5;" />
	<text font-size="10" x="326.423357664234" y="297">110</text>
	<line stroke="black" stroke-width="2" x1="327.737226277372" x2="327.737226277372" y1="285" y2="283" />
	<line stroke="black" stroke-width="2" x1="327.737226277372" x2="327.737226277372" y1="285" y2="284" />
	<path d="M 329.051094890511,285 L 329.051094890511,284.9109 L 331.678832116788,284.9109 L 331.678832116788,285 Z" style="fill:blue;stroke:black;stroke-width:0.5;" />
	<path d="M 331.678832116788,285 L 331.678832116788,284.9109 L 334.306569343066,284.9109 L 334.306569343066,285 Z" style="fill:blue;stroke:black;stroke-width:0.5;" />
	<path d="M 334.306569343066,285 L 334.306569343066,262.9437 L 336.934306569343,262.9437 L 336.934306569343,285 Z" style="fill:blue;stroke:black;stroke-width:0.5;" />
	<path d="M 336.934306569343,285 L 336.934306569343,153.213 L 339.56204379562,153.213 L 339.56204379562,285 Z" style="fill:gold;stroke:black;stroke-width:0.5;" />
	<path d="M 339.56204379562,285 L 339.56204379562,152.538 L 342.189781021898,152.538 L 342.189781021898,285 Z" style="fill:gold;stroke:black;stroke-width:0.5;" />
	<line stroke="black" stroke-width="2" x1="340.875912408759" x2="340.875912408759" y1="285" y2="284" />
	<path d="M 342.189781021898,285 L 342.189781021898,152.0466 L 344.817518248175,152.0466 L 344.817518248175,285 Z" style="fill:gold;stroke:black;stroke-width:0.5;" />
	<path d="M 344.817518248175,285 L 344.817518248175,151.5579 L 347.445255474453,151.5579 L 347.445255474453,285 Z" style="fill:gold;stroke:black;stroke-width:0.5;" />
	<path d="M 347.445255474453,285 L 347.445255474453,151.5147 L 350.07299270073,151.5147 L 350.07299270073,285 Z" style="fill:gold;stroke:black;stroke-width:0.5;" />
	<path d="M 350.07299270073,285 L 350.07299270073,147.3999 L 352.700729927007,147.3999 L 352.700729927007,285 Z" style="fill:gold;stroke:black;stroke-width:0.5;" />
	<path d="M 352.700729927007,285 L 352.700729927007,147.3999 L 355.328467153285,147.3999 L 355.328467153285,285 Z" style="fill:gold;stroke:black;stroke-width:0.5;" />
	<text font-size="10" x="352.700729927007" y="297">120</text>
	<line stroke="black" stroke-width="2" x1="354.014598540146" x2="354.014598540146" y1="285" y2="283" />
	<line stroke="black" stroke-width="2" x1="354.014598540146" x2="354.014598540146" y1="285" y2="284" />
	<path d="M 355.328467153285,285 L 355.328467153285,147.354 L 357.956204379562,147.354 L 357.956204379562,285 Z" style="fill:gold;stroke:black;stroke-width:0.5;" />
	<path d="M 357.956204379562,285 L 357.956204379562,147.354 L 360.583941605839,147.354 L 360.583941605839,285 Z" style="fill:gold;stroke:black;stroke-width:0.5;" />
	<path d="M 360.583941605839,285 L 360.583941605839,147.0327 L 363.211678832117,147.0327 L 363.211678832117,285 Z" style="fill:gold;stroke:black;stroke-width:0.5;" />
	<path d="M 363.211678832117,285 L 363.211678832117,146.9868 L 365.839416058394,146.9868 L 365.839416058394,285 Z" style="fill:gold;stroke:black;stroke-width:0.5;" />
	<path d="M 365.839416058394,285 L 365.839416058394,146.9868 L 368.467153284671,146.9868 L 368.467153284671,285 Z" style="fill:gold;stroke:black;stroke-width:0.5;" />
	<line stroke="black" stroke-width="2" x1="367.153284671533" x2="367.153284671533" y1="285" y2="284" />
	<path d="M 368.467153284671,285 L 368.467153284671,147.0327 L 371.094890510949,147.0327 L 371.094890510949,285 Z" style="fill:gold;stroke:black;stroke-width:0.5;" />
	<path d="M 371.094890510949,285 L 371.094890510949,147.0327 L 373.722627737226,147.0327 L 373.722627737226,285 Z" style="fill:gold;stroke:black;stroke-width:0.5;" />
	<path d="M 373.722627737226,285 L 373.722627737226,147.0327 L 376.350364963504,147.0327 L 376.350364963504,285 Z" style="fill:gold;stroke:black;stroke-width:0.5;" />
	<path d="M 376.350364963504,285 L 376.350364963504,147.0327 L 378.978102189781,147.0327 L 378.978102189781,285 Z" style="fill:gold;stroke:black;stroke-width:0.5;" />
	<path d="M 378.978102189781,285 L 378.978102189781,147.0327 L 381.605839416058,147.0327 L 381.605839416058,285 Z" style="fill:gold;stroke:black;stroke-width:0.5;" />
	<text font-size="10" x="378.978102189781" y="297">130</text>
	<line stroke="black" stroke-width="2" x1="380.29197080292" x2="380.29197080292" y1="285" y2="283" />
	<line stroke="black" stroke-width="2" x1="380.29197080292" x2="380.29197080292" y1="285" y2="284" />
	<path d="M 381.605839416058,285 L 381.605839416058,147.3891 L 384.233576642336,147.3891 L 384.233576642336,285 Z" style="fill:gold;stroke:black;stroke-width:0.5;" />
	<path d="M 384.233576642336,285 L 384.233576642336,147.4323 L 386.861313868613,147.4323 L 386.861313868613,285 Z" style="fill:gold;stroke:black;stroke-width:0.5;" />
	<path d="M 386.861313868613,285 L 386.861313868613,147.5214 L 389.48905109489,147.5214 L 389.48905109489,285 Z" style="fill:gold;stroke:black;stroke-width:0.5;" />
	<path d="M 389.48905109489,285 L 389.48905109489,278.3769 L 392.116788321168,278.3769 L 392.116788321168,285 Z" style="fill:blue;stroke:black;stroke-width:0.5;" />
	<path d="M 392.116788321168,285 L 392.116788321168,279.9807 L 394.744525547445,279.9807 L 394.744525547445,285 Z" style="fill:blue;stroke:black;stroke-width:0.5;" />
	<line stroke="black" stroke-width="2" x1="393.430656934307" x2="393.430656934307" y1="285" y2="284" />
	<path d="M 394.744525547445,285 L 394.744525547445,280.1157 L 397.372262773723,280.1157 L 397.372262773723,285 Z" style="fill:blue;stroke:black;stroke-width:0.5;" />
	<path d="M 397.372262773723,285 L 397.372262773723,280.0698 L 400,280.0698 L 400,285 Z" style="fill:blue;stroke:black;stroke-width:0.5;" />
	<path d="M 400,285 L 400,280.0698 L 402.627737226277,280.0698 L 402.627737226277,285 Z" style="fill:blue;stroke:black;stroke-width:0.5;" />
	<path d="M 402.627737226277,285 L 402.627737226277,279.9321 L 405.255474452555,279.9321 L 405.255474452555,285 Z" style="fill:blue;stroke:black;stroke-width:0.5;" />
	<path d="M 405.255474452555,285 L 405.255474452555,283.866 L 407.883211678832,283.866 L 407.883211678832,285 Z" style="fill:blue;stroke:black;stroke-width:0.5;" />
	<text font-size="10" x="405.255474452555" y="297">140</text>
	<line stroke="black" stroke-width="2" x1="406.569343065693" x2="406.569343065693" y1="285" y2="283" />
	<line stroke="black" stroke-width="2" x1="406.569343065693" x2="406.569343065693" y1="285" y2="284" />
	<path d="M 407.883211678832,285 L 407.883211678832,283.7364 L 410.51094890511,283.7364 L 410.51094890511,285 Z" style="fill:blue;stroke:black;stroke-width:0.5;" />
	<path d="M 410.51094890511,285 L 410.51094890511,283.6959 L 413.138686131387,283.6959 L 413.138686131387,285 Z" style="fill:blue;stroke:black;stroke-width:0.5;" />
	<path d="M 413.138686131387,285 L 413.138686131387,283.8795 L 415.766423357664,283.8795 L 415.766423357664,285 Z" style="fill:blue;stroke:black;stroke-width:0.5;" />
	<path d="M 415.766423357664,285 L 415.766423357664,283.8795 L 418.394160583942,283.8795 L 418.394160583942,285 Z" style="fill:blue;stroke:black;stroke-width:0.5;" />
	<path d="M 418.394160583942,285 L 418.394160583942,283.8795 L 421.021897810219,283.8795 L 421.021897810219,285 Z" style="fill:blue;stroke:black;stroke-width:0.5;" />
	<line stroke="black" stroke-width="2" x1="419.70802919708" x2="419.70802919708" y1="285" y2="284" />
	<path d="M 421.021897810219,285 L 421.021897810219,283.8363 L 423.649635036496,283.8363 L 423.649635036496,285 Z" style="fill:blue;stroke:black;stroke-width:0.5;" />
	<path d="M 423.649635036496,285 L 423.649635036496,283.8363 L 426.277372262774,283.8363 L 426.277372262774,285 Z" style="fill:blue;stroke:black;stroke-width:0.5;" />
	<path d="M 426.277372262774,285 L 426.277372262774,283.8363 L 428.905109489051,283.8363 L 428.905109489051,285 Z" style="fill:blue;stroke:black;stroke-width:0.5;" />
	<path d="M 428.905109489051,285 L 428.905109489051,283.9281 L 431.532846715328,283.9281 L 431.532846715328,285 Z" style="fill:blue;stroke:black;stroke-width:0.5;" />
	<path d="M 431.532846715328,285 L 431.532846715328,283.9281 L 434.160583941606,283.9281 L 434.160583941606,285 Z" style="fill:blue;stroke:black;stroke-width:0.5;" />
	<text font-size="10" x="431.532846715328" y="297">150</text>
	<line stroke="black" stroke-width="2" x1="432.846715328467" x2="432.846715328467" y1="285" y2="283" />
	<line stroke="black" stroke-width="2" x1="432.846715328467" x2="432.846715328467" y1="285" y2="284" />
	<path d="M 434.160583941606,285 L 434.160583941606,283.9254 L 436.788321167883,283.9254 L 436.788321167883,285 Z" style="fill:blue;stroke:black;stroke-width:0.5;" />
	<path d="M 436.788321167883,285 L 436.788321167883,283.9254 L 439.416058394161,283.9254 L 439.416058394161,285 Z" style="fill:blue;stroke:black;stroke-width:0.5;" />
	<path d="M 439.416058394161,285 L 439.416058394161,284.0631 L 442.043795620438,284.0631 L 442.043795620438,285 Z" style="fill:blue;stroke:black;stroke-width:0.5;" />
	<path d="M 442.043795620438,285 L 442.043795620438,284.1981 L 444.671532846715,284.1981 L 444.671532846715,285 Z" style="fill:blue;stroke:black;stroke-width:0.5;" />
	<path d="M 444.671532846715,285 L 444.671532846715,284.1981 L 447.299270072993,284.1981 L 447.299270072993,285 Z" style="fill:blue;stroke:black;stroke-width:0.5;" />
	<line stroke="black" stroke-width="2" x1="445.985401459854" x2="445.985401459854" y1="285" y2="284" />
	<path d="M 447.299270072993,285 L 447.299270072993,284.1981 L 449.92700729927,284.1981 L 449.92700729927,285 Z" style="fill:blue;stroke:black;stroke-width:0.5;" />
	<path d="M 449.92700729927,285 L 449.92700729927,284.2413 L 452.554744525547,284.2413 L 452.554744525547,285 Z" style="fill:blue;stroke:black;stroke-width:0.5;" />
	<path d="M 452.554744525547,285 L 452.554744525547,284.4195 L 455.182481751825,284.4195 L 455.182481751825,285 Z" style="fill:blue;stroke:black;stroke-width:0.5;" />
	<path d="M 455.182481751825,285 L 455.182481751825,284.4654 L 457.810218978102,284.4654 L 457.810218978102,285 Z" style="fill:blue;stroke:black;stroke-width:0.5;" />
	<path d="M 457.810218978102,285 L 457.810218978102,284.5086 L 460.43795620438,284.5086 L 460.43795620438,285 Z" style="fill:blue;stroke:black;stroke-width:0.5;" />
	<text font-size="10" x="457.810218978102" y="297">160</text>
	<line stroke="black" stroke-width="2" x1="459.124087591241" x2="459.124087591241" y1="285" y2="283" />
	<line stroke="black" stroke-width="2" x1="459.124087591241" x2="459.124087591241" y1="285" y2="284" />
	<path d="M 460.43795620438,285 L 460.43795620438,284.6436 L 463.065693430657,284.6436 L 463.065693430657,285 Z" style="fill:blue;stroke:black;stroke-width:0.5;" />
	<path d="M 463.065693430657,285 L 463.065693430657,284.6436 L 465.693430656934,284.6436 L 465.693430656934,285 Z" style="fill:blue;stroke:black;stroke-width:0.5;" />
	<path d="M 465.693430656934,285 L 465.693430656934,284.5977 L 468.321167883212,284.5977 L 468.321167883212,285 Z" style="fill:blue;stroke:black;stroke-width:0.5;" />
	<path d="M 468.321167883212,285 L 468.321167883212,284.6868 L 470.948905109489,284.6868 L 470.948905109489,285 Z" style="fill:blue;stroke:black;stroke-width:0.5;" />
	<path d="M 470.948905109489,285 L 470.948905109489,284.7327 L 473.576642335766,284.7327 L 473.576642335766,285 Z" style="fill:blue;stroke:black;stroke-width:0.5;" />
	<line stroke="black" stroke-width="2" x1="472.262773722628" x2="472.262773722628" y1="285" y2="284" />
	<path d="M 473.576642335766,285 L 473.576642335766,284.7327 L 476.204379562044,284.7327 L 476.204379562044,285 Z" style="fill:blue;stroke:black;stroke-width:0.5;" />
	<path d="M 476.204379562044,285 L 476.204379562044,284.7327 L 478.832116788321,284.7327 L 478.832116788321,285 Z" style="fill:blue;stroke:black;stroke-width:0.5;" />
	<path d="M 478.832116788321,285 L 478.832116788321,284.7327 L 481.459854014599,284.7327 L 481.459854014599,285 Z" style="fill:blue;stroke:black;stroke-width:0.5;" />
	<path d="M 481.459854014599,285 L 481.459854014599,284.8191 L 484.087591240876,284.8191 L 484.087591240876,285 Z" style="fill:blue;stroke:black;stroke-width:0.5;" />
	<path d="M 484.087591240876,285 L 484.087591240876,284.8623 L 486.715328467153,284.8623 L 486.715328467153,285 Z" style="fill:blue;stroke:black;stroke-width:0.5;" />
	<text font-size="10" x="484.087591240876" y="297">170</text>
	<line stroke="black" stroke-width="2" x1="485.401459854015" x2="485.401459854015" y1="285" y2="283" />
	<line stroke="black" stroke-width="2" x1="485.401459854015" x2="485.401459854015" y1="285" y2="284" />
	<path d="M 486.715328467153,285 L 486.715328467153,284.8623 L 489.343065693431,284.8623 L 489.343065693431,285 Z" style="fill:blue;stroke:black;stroke-width:0.5;" />
	<path d="M 489.343065693431,285 L 489.343065693431,284.8623 L 491.970802919708,284.8623 L 491.970802919708,285 Z" style="fill:blue;stroke:black;stroke-width:0.5;" />
	<path d="M 491.970802919708,285 L 491.970802919708,284.9082 L 494.598540145985,284.9082 L 494.598540145985,285 Z" style="fill:blue;stroke:black;stroke-width:0.5;" />
	<path d="M 494.598540145985,285 L 494.598540145985,284.9082 L 497.226277372263,284.9082 L 497.226277372263,285 Z" style="fill:blue;stroke:black;stroke-width:0.5;" />
	<path d="M 497.226277372263,285 L 497.226277372263,284.865 L 499.85401459854,284.865 L 499.85401459854,285 Z" style="fill:blue;stroke:black;stroke-width:0.5;" />
	<line stroke="black" stroke-width="2" x1="498.540145985401" x2="498.540145985401" y1="285" y2="284" />
	<path d="M 499.85401459854,285 L 499.85401459854,284.865 L 502.481751824817,284.865 L 502.481751824817,285 Z" style="fill:blue;stroke:black;stroke-width:0.5;" />
	<path d="M 502.481751824817,285 L 502.481751824817,284.8191 L 505.109489051095,284.8191 L 505.109489051095,285 Z" style="fill:blue;stroke:black;stroke-width:0.5;" />
	<path d="M 505.109489051095,285 L 505.109489051095,284.8191 L 507.737226277372,284.8191 L 507.737226277372,285 Z" style="fill:blue;stroke:black;stroke-width:0.5;" />
	<path d="M 507.737226277372,285 L 507.737226277372,284.8191 L 510.36496350365,284.8191 L 510.36496350365,285 Z" style="fill:blue;stroke:black;stroke-width:0.5;" />
	<path d="M 510.36496350365,285 L 510.36496350365,284.7732 L 512.992700729927,284.7732 L 512.992700729927,285 Z" style="fill:blue;stroke:black;stroke-width:0.5;" />
	<text font-size="10" x="510.36496350365" y="297">180</text>
	<line stroke="black" stroke-width="2" x1="511.678832116788" x2="511.678832116788" y1="285" y2="283" />
	<line stroke="black" stroke-width="2" x1="511.678832116788" x2="511.678832116788" y1="285" y2="284" />
	<path d="M 512.992700729927,285 L 512.992700729927,284.73 L 515.620437956204,284.73 L 515.620437956204,285 Z" style="fill:blue;stroke:black;stroke-width:0.5;" />
	<path d="M 515.620437956204,285 L 515.620437956204,284.73 L 518.248175182482,284.73 L 518.248175182482,285 Z" style="fill:blue;stroke:black;stroke-width:0.5;" />
	<path d="M 518.248175182482,285 L 518.248175182482,284.6868 L 520.875912408759,284.6868 L 520.875912408759,285 Z" style="fill:blue;stroke:black;stroke-width:0.5;" />
	<path d="M 520.875912408759,285 L 520.875912408759,284.6868 L 523.503649635036,284.6868 L 523.503649635036,285 Z" style="fill:blue;stroke:black;stroke-width:0.5;" />
	<path d="M 523.503649635036,285 L 523.503649635036,284.6868 L 526.131386861314,284.6868 L 526.131386861314,285 Z" style="fill:blue;stroke:black;stroke-width:0.5;" />
	<line stroke="black" stroke-width="2" x1="524.817518248175" x2="524.817518248175" y1="285" y2="284" />
	<path d="M 526.131386861314,285 L 526.131386861314,284.6868 L 528.759124087591,284.6868 L 528.759124087591,285 Z" style="fill:blue;stroke:black;stroke-width:0.5;" />
	<path d="M 528.759124087591,285 L 528.759124087591,284.6868 L 531.386861313869,284.6868 L 531.386861313869,285 Z" style="fill:blue;stroke:black;stroke-width:0.5;" />
	<path d="M 531.386861313869,285 L 531.386861313869,284.6868 L 534.014598540146,284.6868 L 534.014598540146,285 Z" style="fill:blue;stroke:black;stroke-width:0.5;" />
	<path d="M 534.014598540146,285 L 534.014598540146,284.6868 L 536.642335766423,284.6868 L 536.642335766423,285 Z" style="fill:blue;stroke:black;stroke-width:0.5;" />
	<path d="M 536.642335766423,285 L 536.642335766423,284.6868 L 539.270072992701,284.6868 L 539.270072992701,285 Z" style="fill:blue;stroke:black;stroke-width:0.5;" />
	<text font-size="10" x="536.642335766423" y="297">190</text>
	<line stroke="black" stroke-width="2" x1="537.956204379562" x2="537.956204379562" y1="285" y2="283" />
	<line stroke="black" stroke-width="2" x1="537.956204379562" x2="537.956204379562" y1="285" y2="284" />
	<path d="M 539.270072992701,285 L 539.270072992701,284.6868 L 541.897810218978,284.6868 L 541.897810218978,285 Z" style="fill:blue;stroke:black;stroke-width:0.5;" />
	<path d="M 541.897810218978,285 L 541.897810218978,284.6868 L 544.525547445255,284.6868 L 544.525547445255,285 Z" style="fill:blue;stroke:black;stroke-width:0.5;" />
	<path d="M 544.525547445255,285 L 544.525547445255,284.5977 L 547.153284671533,284.5977 L 547.153284671533,285 Z" style="fill:blue;stroke:black;stroke-width:0.5;" />
	<path d="M 547.153284671533,285 L 547.153284671533,284.6436 L 549.78102189781,284.6436 L 549.78102189781,285 Z" style="fill:blue;stroke:black;stroke-width:0.5;" />
	<path d="M 549.78102189781,285 L 549.78102189781,284.6436 L 552.408759124088,284.6436 L 552.408759124088,285 Z" style="fill:blue;stroke:black;stroke-width:0.5;" />
	<line stroke="black" stroke-width="2" x1="551.094890510949" x2="551.094890510949" y1="285" y2="284" />
	<path d="M 552.408759124088,285 L 552.408759124088,284.6004 L 555.036496350365,284.6004 L 555.036496350365,285 Z" style="fill:blue;stroke:black;stroke-width:0.5;" />
	<path d="M 555.036496350365,285 L 555.036496350365,284.6004 L 557.664233576642,284.6004 L 557.664233576642,285 Z" style="fill:blue;stroke:black;stroke-width:0.5;" />
	<path d="M 557.664233576642,285 L 557.664233576642,284.6463 L 560.29197080292,284.6463 L 560.29197080292,285 Z" style="fill:blue;stroke:black;stroke-width:0.5;" />
	<path d="M 560.29197080292,285 L 560.29197080292,284.649 L 562.919708029197,284.649 L 562.919708029197,285 Z" style="fill:blue;stroke:black;stroke-width:0.5;" />
	<path d="M 562.919708029197,285 L 562.919708029197,284.649 L 565.547445255474,284.649 L 565.547445255474,285 Z" style="fill:blue;stroke:black;stroke-width:0.5;" />
	<text font-size="10" x="562.919708029197" y="297">200</text>
	<line stroke="black" stroke-width="2" x1="564.233576642336" x2="564.233576642336" y1="285" y2="283" />
	<line stroke="black" stroke-width="2" x1="564.233576642336" x2="564.233576642336" y1="285" y2="284" />
	<path d="M 565.547445255474,285 L 565.547445255474,284.6922 L 568.175182481752,284.6922 L 568.175182481752,285 Z" style="fill:blue;stroke:black;stroke-width:0.5;" />
	<path d="M 568.175182481752,285 L 568.175182481752,284.6922 L 570.802919708029,284.6922 L 570.802919708029,285 Z" style="fill:blue;stroke:black;stroke-width:0.5;" />
	<path d="M 570.802919708029,285 L 570.802919708029,284.6922 L 573.430656934307,284.6922 L 573.430656934307,285 Z" style="fill:blue;stroke:black;stroke-width:0.5;" />
	<path d="M 573.430656934307,285 L 573.430656934307,284.7381 L 576.058394160584,284.7381 L 576.058394160584,285 Z" style="fill:blue;stroke:black;stroke-width:0.5;" />
	<path d="M 576.058394160584,285 L 576.058394160584,284.7381 L 578.686131386861,284.7381 L 578.686131386861,285 Z" style="fill:blue;stroke:black;stroke-width:0.5;" />
	<line stroke="black" stroke-width="2" x1="577.372262773723" x2="577.372262773723" y1="285" y2="284" />
	<path d="M 578.686131386861,285 L 578.686131386861,284.6922 L 581.313868613139,284.6922 L 581.313868613139,285 Z" style="fill:blue;stroke:black;stroke-width:0.5;" />
	<path d="M 581.313868613139,285 L 581.313868613139,284.6922 L 583.941605839416,284.6922 L 583.941605839416,285 Z" style="fill:blue;stroke:black;stroke-width:0.5;" />
	<path d="M 583.941605839416,285 L 583.941605839416,284.6463 L 586.569343065693,284.6463 L 586.569343065693,285 Z" style="fill:blue;stroke:black;stroke-width:0.5;" />
	<path d="M 586.569343065693,285 L 586.569343065693,284.6004 L 589.197080291971,284.6004 L 589.197080291971,285 Z" style="fill:blue;stroke:black;stroke-width:0.5;" />
	<path d="M 589.197080291971,285 L 589.197080291971,284.325 L 591.824817518248,284.325 L 591.824817518248,285 Z" style="fill:blue;stroke:black;stroke-width:0.5;" />
	<text font-size="10" x="589.197080291971" y="297">210</text>
	<line stroke="black" stroke-width="2" x1="590.510948905109" x2="590.510948905109" y1="285" y2="283" />
	<line stroke="black" stroke-width="2" x1="590.510948905109" x2="590.510948905109" y1="285" y2="284" />
	<path d="M 591.824817518248,285 L 591.824817518248,284.2359 L 594.452554744526,284.2359 L 594.452554744526,285 Z" style="fill:blue;stroke:black;stroke-width:0.5;" />
	<path d="M 594.452554744526,285 L 594.452554744526,284.1441 L 597.080291970803,284.1441 L 597.080291970803,285 Z" style="fill:blue;stroke:black;stroke-width:0.5;" />
	<path d="M 597.080291970803,285 L 597.080291970803,283.8687 L 599.70802919708,283.8687 L 599.70802919708,285 Z" style="fill:blue;stroke:black;stroke-width:0.5;" />
	<path d="M 599.70802919708,285 L 599.70802919708,283.9119 L 602.335766423358,283.9119 L 602.335766423358,285 Z" style="fill:blue;stroke:black;stroke-width:0.5;" />
	<path d="M 602.335766423358,285 L 602.335766423358,283.5015 L 604.963503649635,283.5015 L 604.963503649635,285 Z" style="fill:blue;stroke:black;stroke-width:0.5;" />
	<line stroke="black" stroke-width="2" x1="603.649635036496" x2="603.649635036496" y1="285" y2="284" />
	<path d="M 604.963503649635,285 L 604.963503649635,283.4583 L 607.591240875912,283.4583 L 607.591240875912,285 Z" style="fill:blue;stroke:black;stroke-width:0.5;" />
	<path d="M 607.591240875912,285 L 607.591240875912,283.4583 L 610.21897810219,283.4583 L 610.21897810219,285 Z" style="fill:blue;stroke:black;stroke-width:0.5;" />
	<path d="M 610.21897810219,285 L 610.21897810219,283.4583 L 612.846715328467,283.4583 L 612.846715328467,285 Z" style="fill:blue;stroke:black;stroke-width:0.5;" />
	<path d="M 612.846715328467,285 L 612.846715328467,283.4151 L 615.474452554745,283.4151 L 615.474452554745,285 Z" style="fill:blue;stroke:black;stroke-width:0.5;" />
	<path d="M 615.474452554745,285 L 615.474452554745,283.3692 L 618.102189781022,283.3692 L 618.102189781022,285 Z" style="fill:blue;stroke:black;stroke-width:0.5;" />
	<text font-size="10" x="615.474452554745" y="297">220</text>
	<line stroke="black" stroke-width="2" x1="616.788321167883" x2="616.788321167883" y1="285" y2="283" />
	<line stroke="black" stroke-width="2" x1="616.788321167883" x2="616.788321167883" y1="285" y2="284" />
	<path d="M 618.102189781022,285 L 618.102189781022,283.1478 L 620.729927007299,283.1478 L 620.729927007299,285 Z" style="fill:blue;stroke:black;stroke-width:0.5;" />
	<path d="M 620.729927007299,285 L 620.729927007299,283.1478 L 623.357664233577,283.1478 L 623.357664233577,285 Z" style="fill:blue;stroke:black;stroke-width:0.5;" />
	<path d="M 623.357664233577,285 L 623.357664233577,283.1046 L 625.985401459854,283.1046 L 625.985401459854,285 Z" style="fill:blue;stroke:black;stroke-width:0.5;" />
	<path d="M 625.985401459854,285 L 625.985401459854,283.1046 L 628.613138686131,283.1046 L 628.613138686131,285 Z" style="fill:blue;stroke:black;stroke-width:0.5;" />
	<path d="M 628.613138686131,285 L 628.613138686131,283.1046 L 631.240875912409,283.1046 L 631.240875912409,285 Z" style="fill:blue;stroke:black;stroke-width:0.5;" />
	<line stroke="black" stroke-width="2" x1="629.92700729927" x2="629.92700729927" y1="285" y2="284" />
	<path d="M 631.240875912409,285 L 631.240875912409,283.1046 L 633.868613138686,283.1046 L 633.868613138686,285 Z" style="fill:blue;stroke:black;stroke-width:0.5;" />
	<path d="M 633.868613138686,285 L 633.868613138686,283.1046 L 636.496350364964,283.1046 L 636.496350364964,285 Z" style="fill:blue;stroke:black;stroke-width:0.5;" />
	<path d="M 636.496350364964,285 L 636.496350364964,283.0587 L 639.124087591241,283.0587 L 639.124087591241,285 Z" style="fill:blue;stroke:black;stroke-width:0.5;" />
	<path d="M 639.124087591241,285 L 639.124087591241,282.7887 L 641.751824817518,282.7887 L 641.751824817518,285 Z" style="fill:gold;stroke:black;stroke-width:0.5;" />
	<path d="M 641.751824817518,285 L 641.751824817518,282.7887 L 644.379562043796,282.7887 L 644.379562043796,285 Z" style="fill:gold;stroke:black;stroke-width:0.5;" />
	<text font-size="10" x="641.751824817518" y="297">230</text>
	<line stroke="black" stroke-width="2" x1="643.065693430657" x2="643.065693430657" y1="285" y2="283" />
	<line stroke="black" stroke-width="2" x1="643.065693430657" x2="643.065693430657" y1="285" y2="284" />
	<path d="M 644.379562043796,285 L 644.379562043796,282.7887 L 647.007299270073,282.7887 L 647.007299270073,285 Z" style="fill:gold;stroke:black;stroke-width:0.5;" />
	<path d="M 647.007299270073,285 L 647.007299270073,282.6996 L 649.63503649635,282.6996 L 649.63503649635,285 Z" style="fill:gold;stroke:black;stroke-width:0.5;" />
	<path d="M 649.63503649635,285 L 649.63503649635,282.6996 L 652.262773722628,282.6996 L 652.262773722628,285 Z" style="fill:gold;stroke:black;stroke-width:0.5;" />
	<path d="M 652.262773722628,285 L 652.262773722628,282.7428 L 654.890510948905,282.7428 L 654.890510948905,285 Z" style="fill:gold;stroke:black;stroke-width:0.5;" />
	<path d="M 654.890510948905,285 L 654.890510948905,282.7428 L 657.518248175182,282.7428 L 657.518248175182,285 Z" style="fill:gold;stroke:black;stroke-width:0.5;" />
	<line stroke="black" stroke-width="2" x1="656.204379562044" x2="656.204379562044" y1="285" y2="284" />
	<path d="M 657.518248175182,285 L 657.518248175182,282.7428 L 660.14598540146,282.7428 L 660.14598540146,285 Z" style="fill:gold;stroke:black;stroke-width:0.5;" />
	<path d="M 660.14598540146,285 L 660.14598540146,282.8319 L 662.773722627737,282.8319 L 662.773722627737,285 Z" style="fill:gold;stroke:black;stroke-width:0.5;" />
	<path d="M 662.773722627737,285 L 662.773722627737,282.921 L 665.401459854015,282.921 L 665.401459854015,285 Z" style="fill:gold;stroke:black;stroke-width:0.5;" />
	<path d="M 665.401459854015,285 L 665.401459854015,283.2315 L 668.029197080292,283.2315 L 668.029197080292,285 Z" style="fill:gold;stroke:black;stroke-width:0.5;" />
	<path d="M 668.029197080292,285 L 668.029197080292,284.46 L 670.656934306569,284.46 L 670.656934306569,285 Z" style="fill:gold;stroke:black;stroke-width:0.5;" />
	<text font-size="10" x="668.029197080292" y="297">240</text>
	<line stroke="black" stroke-width="2" x1="669.343065693431" x2="669.343065693431" y1="285" y2="283" />
	<line stroke="black" stroke-width="2" x1="669.343065693431" x2="669.343065693431" y1="285" y2="284" />
	<path d="M 670.656934306569,285 L 670.656934306569,284.46 L 673.284671532847,284.46 L 673.284671532847,285 Z" style="fill:gold;stroke:black;stroke-width:0.5;" />
	<path d="M 673.284671532847,285 L 673.284671532847,284.46 L 675.912408759124,284.46 L 675.912408759124,285 Z" style="fill:gold;stroke:black;stroke-width:0.5;" />
	<path d="M 675.912408759124,285 L 675.912408759124,284.46 L 678.540145985401,284.46 L 678.540145985401,285 Z" style="fill:gold;stroke:black;stroke-width:0.5;" />
	<path d="M 678.540145985401,285 L 678.540145985401,284.5032 L 681.167883211679,284.5032 L 681.167883211679,285 Z" style="fill:gold;stroke:black;stroke-width:0.5;" />
	<path d="M 681.167883211679,285 L 681.167883211679,284.5491 L 683.795620437956,284.5491 L 683.795620437956,285 Z" style="fill:gold;stroke:black;stroke-width:0.5;" />
	<line stroke="black" stroke-width="2" x1="682.481751824817" x2="682.481751824817" y1="285" y2="284" />
	<path d="M 683.795620437956,285 L 683.795620437956,284.6409 L 686.423357664234,284.6409 L 686.423357664234,285 Z" style="fill:gold;stroke:black;stroke-width:0.5;" />
	<path d="M 686.423357664234,285 L 686.423357664234,284.6409 L 689.051094890511,284.6409 L 689.051094890511,285 Z" style="fill:gold;stroke:black;stroke-width:0.5;" />
	<path d="M 689.051094890511,285 L 689.051094890511,284.6409 L 691.678832116788,284.6409 L 691.678832116788,285 Z" style="fill:gold;stroke:black;stroke-width:0.5;" />
	<path d="M 691.678832116788,285 L 691.678832116788,284.6868 L 694.306569343066,284.6868 L 694.306569343066,285 Z" style="fill:blue;stroke:black;stroke-width:0.5;" />
	<path d="M 694.306569343066,285 L 694.306569343066,284.9109 L 696.934306569343,284.9109 L 696.934306569343,285 Z" style="fill:blue;stroke:black;stroke-width:0.5;" />
	<text font-size="10" x="694.306569343066" y="297">250</text>
	<line stroke="black" stroke-width="2" x1="695.620437956204" x2="695.620437956204" y1="285" y2="283" />
	<line stroke="black" stroke-width="2" x1="695.620437956204" x2="695.620437956204" y1="285" y2="284" />
	<path d="M 696.934306569343,285 L 696.934306569343,284.9109 L 699.56204379562,284.9109 L 699.56204379562,285 Z" style="fill:blue;stroke:black;stroke-width:0.5;" />
	<path d="M 699.56204379562,285 L 699.56204379562,284.9109 L 702.189781021898,284.9109 L 702.189781021898,285 Z" style="fill:blue;stroke:black;stroke-width:0.5;" />
	<path d="M 702.189781021898,285 L 702.189781021898,285 L 704.817518248175,285 L 704.817518248175,285 Z" style="fill:blue;stroke:black;stroke-width:0.5;" />
	<path d="M 704.817518248175,285 L 704.817518248175,285 L 707.445255474453,285 L 707.445255474453,285 Z" style="fill:blue;stroke:black;stroke-width:0.5;" />
	<path d="M 707.445255474453,285 L 707.445255474453,285 L 710.07299270073,285 L 710.07299270073,285 Z" style="fill:blue;stroke:black;stroke-width:0.5;" />
	<line stroke="black" stroke-width="2" x1="708.759124087591" x2="708.759124087591" y1="285" y2="284" />
	<path d="M 710.07299270073,285 L 710.07299270073,285 L 712.700729927007,285 L 712.700729927007,285 Z" style="fill:blue;stroke:black;stroke-width:0.5;" />
	<path d="M 712.700729927007,285 L 712.700729927007,285 L 715.328467153285,285 L 715.328467153285,285 Z" style="fill:blue;stroke:black;stroke-width:0.5;" />
	<path d="M 715.328467153285,285 L 715.328467153285,285 L 717.956204379562,285 L 717.956204379562,285 Z" style="fill:blue;stroke:black;stroke-width:0.5;" />
	<path d="M 717.956204379562,285 L 717.956204379562,285 L 720.583941605839,285 L 720.583941605839,285 Z" style="fill:blue;stroke:black;stroke-width:0.5;" />
	<path d="M 720.583941605839,285 L 720.583941605839,285 L 723.211678832117,285 L 723.211678832117,285 Z" style="fill:blue;stroke:black;stroke-width:0.5;" />
	<text font-size="10" x="720.583941605839" y="297">260</text>
	<line stroke="black" stroke-width="2" x1="721.897810218978" x2="721.897810218978" y1="285" y2="283" />
	<line stroke="black" stroke-width="2" x1="721.897810218978" x2="721.897810218978" y1="285" y2="284" />
	<path d="M 723.211678832117,285 L 723.211678832117,285 L 725.839416058394,285 L 725.839416058394,285 Z" style="fill:blue;stroke:black;stroke-width:0.5;" />
	<path d="M 725.839416058394,285 L 725.839416058394,285 L 728.467153284672,285 L 728.467153284672,285 Z" style="fill:blue;stroke:black;stroke-width:0.5;" />
	<path d="M 728.467153284672,285 L 728.467153284672,285 L 731.094890510949,285 L 731.094890510949,285 Z" style="fill:blue;stroke:black;stroke-width:0.5;" />
	<path d="M 731.094890510949,285 L 731.094890510949,285 L 733.722627737226,285 L 733.722627737226,285 Z" style="fill:blue;stroke:black;stroke-width:0.5;" />
	<path d="M 733.722627737226,285 L 733.722627737226,285 L 736.350364963504,285 L 736.350364963504,285 Z" style="fill:blue;stroke:black;stroke-width:0.5;" />
	<line stroke="black" stroke-width="2" x1="735.036496350365" x2="735.036496350365" y1="285" y2="284" />
	<path d="M 736.350364963504,285 L 736.350364963504,285 L 738.978102189781,285 L 738.978102189781,285 Z" style="fill:blue;stroke:black;stroke-width:0.5;" />
	<path d="M 738.978102189781,285 L 738.978102189781,285 L 741.605839416058,285 L 741.605839416058,285 Z" style="fill:blue;stroke:black;stroke-width:0.5;" />
	<path d="M 741.605839416058,285 L 741.605839416058,285 L 744.233576642336,285 L 744.233576642336,285 Z" style="fill:blue;stroke:black;stroke-width:0.5;" />
	<path d="M 744.233576642336,285 L 744.233576642336,285 L 746.861313868613,285 L 746.861313868613,285 Z" style="fill:blue;stroke:black;stroke-width:0.5;" />
	<path d="M 746.861313868613,285 L 746.861313868613,285 L 749.48905109489,285 L 749.48905109489,285 Z" style="fill:blue;stroke:black;stroke-width:0.5;" />
	<text font-size="10" x="746.861313868613" y="297">270</text>
	<line stroke="black" stroke-width="2" x1="748.175182481752" x2="748.175182481752" y1="285" y2="283" />
	<line stroke="black" stroke-width="2" x1="748.175182481752" x2="748.175182481752" y1="285" y2="284" />
	<path d="M 749.48905109489,285 L 749.48905109489,285 L 752.116788321168,285 L 752.116788321168,285 Z" style="fill:blue;stroke:black;stroke-width:0.5;" />
	<path d="M 752.116788321168,285 L 752.116788321168,285 L 754.744525547445,285 L 754.744525547445,285 Z" style="fill:blue;stroke:black;stroke-width:0.5;" />
	<path d="M 754.744525547445,285 L 754.744525547445,285 L 757.372262773723,285 L 757.372262773723,285 Z" style="fill:blue;stroke:black;stroke-width:0.5;" />
	<path d="M 757.372262773723,285 L 757.372262773723,285 L 760,285 L 760,285 Z" style="fill:blue;stroke:black;stroke-width:0.5;" />
	<!-- 
	Generated using the Perl SVG Module V2.50
	by Ronan Oger
	Info: http://www.roitsystems.com/
 -->
</svg>