<?xml version="1.0" encoding="UTF-8" standalone="yes"?>
<!DOCTYPE svg PUBLIC "-//W3C//DTD SVG 1.0//EN" "http://www.w3.org/TR/2001/REC-SVG-20010904/DTD/svg10.dtd">
<svg height="300" width="800" xmlns="http://www.w3.org/2000/svg" xmlns:svg="http://www.w3.org/2000/svg" xmlns:xlink="http://www.w3.org/1999/xlink">
	<line stroke="black" stroke-width="2" x1="40" x2="40" y1="15" y2="285" />
	<line stroke="black" stroke-width="2" x1="40" x2="45.9504132231405" y1="231" y2="231" />
	<text font-size="12" x="48.9256198347107" y="231">1000</text>
	<line stroke="black" stroke-width="2" x1="40" x2="45.9504132231405" y1="177" y2="177" />
	<text font-size="12" x="48.9256198347107" y="177">2000</text>
	<line stroke="black" stroke-width="2" x1="40" x2="45.9504132231405" y1="123" y2="123" />
	<text font-size="12" x="48.9256198347107" y="123">3000</text>
	<line stroke="black" stroke-width="2" x1="40" x2="45.9504132231405" y1="69" y2="69" />
	<text font-size="12" x="48.9256198347107" y="69">4000</text>
	<line stroke="black" stroke-width="2" x1="40" x2="45.9504132231405" y1="15" y2="15" />
	<text font-size="12" x="48.9256198347107" y="15">5000</text>
	<line stroke="black" stroke-width="2" x1="40" x2="800" y1="285" y2="285" />
	<path d="M 40,285 L 40,285 L 45.9504132231405,285 L 45.9504132231405,285 Z" style="fill:blue;stroke:black;stroke-width:0.5;" />
	<path d="M 45.9504132231405,285 L 45.9504132231405,285 L 51.900826446281,285 L 51.900826446281,285 Z" style="fill:blue;stroke:black;stroke-width:0.5;" />
	<path d="M 51.900826446281,285 L 51.900826446281,285 L 57.8512396694215,285 L 57.8512396694215,285 Z" style="fill:blue;stroke:black;stroke-width:0.5;" />
	<path d="M 57.8512396694215,285 L 57.8512396694215,285 L 63.801652892562,285 L 63.801652892562,285 Z" style="fill:blue;stroke:black;stroke-width:0.5;" />
	<path d="M 63.801652892562,285 L 63.801652892562,285 L 69.7520661157025,285 L 69.7520661157025,285 Z" style="fill:blue;stroke:black;stroke-width:0.5;" />
	<line stroke="black" stroke-width="2" x1="66.7768595041322" x2="66.7768595041322" y1="285" y2="284" />
	<path d="M 69.7520661157025,285 L 69.7520661157025,285 L 75.702479338843,285 L 75.702479338843,285 Z" style="fill:blue;stroke:black;stroke-width:0.5;" />
	<path d="M 75.702479338843,285 L 75.702479338843,285 L 81.6528925619835,285 L 81.6528925619835,285 Z" style="fill:blue;stroke:black;stroke-width:0.5;" />
	<path d="M 81.6528925619835,285 L 81.6528925619835,285 L 87.603305785124,285 L 87.603305785124,285 Z" style="fill:blue;stroke:black;stroke-width:0.5;" />
	<path d="M 87.603305785124,285 L 87.603305785124,285 L 93.5537190082645,285 L 93.5537190082645,285 Z" style="fill:blue;stroke:black;stroke-width:0.5;" />
	<path d="M 93.5537190082645,285 L 93.5537190082645,285 L 99.504132231405,285 L 99.504132231405,285 Z" style="fill:blue;stroke:black;stroke-width:0.5;" />
	<text font-size="10" x="93.5537190082645" y="297">10</text>
	<line stroke="black" stroke-width="2" x1="96.5289256198347" x2="96.5289256198347" y1="285" y2="283" />
	<line stroke="black" stroke-width="2" x1="96.5289256198347" x2="96.5289256198347" y1="285" y2="284" />
	<path d="M 99.504132231405,285 L 99.504132231405,285 L 105.454545454545,285 L 105.454545454545,285 Z" style="fill:blue;stroke:black;stroke-width:0.5;" />
	<path d="M 105.454545454545,285 L 105.454545454545,284.73756 L 111.404958677686,284.73756 L 111.404958677686,285 Z" style="fill:blue;stroke:black;stroke-width:0.5;" />
	<path d="M 111.404958677686,285 L 111.404958677686,284.72892 L 117.355371900826,284.72892 L 117.355371900826,285 Z" style="fill:blue;stroke:black;stroke-width:0.5;" />
	<path d="M 117.355371900826,285 L 117.355371900826,284.72892 L 123.305785123967,284.72892 L 123.305785123967,285 Z" style="fill:blue;stroke:black;stroke-width:0.5;" />
	<path d="M 123.305785123967,285 L 123.305785123967,284.72892 L 129.256198347107,284.72892 L 129.256198347107,285 Z" style="fill:blue;stroke:black;stroke-width:0.5;" />
	<line stroke="black" stroke-width="2" x1="126.280991735537" x2="126.280991735537" y1="285" y2="284" />
	<path d="M 129.256198347107,285 L 129.256198347107,284.72892 L 135.206611570248,284.72892 L 135.206611570248,285 Z" style="fill:blue;stroke:black;stroke-width:0.5;" />
	<path d="M 135.206611570248,285 L 135.206611570248,284.72892 L 141.157024793388,284.72892 L 141.157024793388,285 Z" style="fill:blue;stroke:black;stroke-width:0.5;" />
	<path d="M 141.157024793388,285 L 141.157024793388,284.72892 L 147.107438016529,284.72892 L 147.107438016529,285 Z" style="fill:blue;stroke:black;stroke-width:0.5;" />
	<path d="M 147.107438016529,285 L 147.107438016529,284.72892 L 153.057851239669,284.72892 L 153.057851239669,285 Z" style="fill:blue;stroke:black;stroke-width:0.5;" />
	<path d="M 153.057851239669,285 L 153.057851239669,284.69382 L 159.00826446281,284.69382 L 159.00826446281,285 Z" style="fill:blue;stroke:black;stroke-width:0.5;" />
	<text font-size="10" x="153.057851239669" y="297">20</text>
	<line stroke="black" stroke-width="2" x1="156.03305785124" x2="156.03305785124" y1="285" y2="283" />
	<line stroke="black" stroke-width="2" x1="156.03305785124" x2="156.03305785124" y1="285" y2="284" />
	<path d="M 159.00826446281,285 L 159.00826446281,284.58906 L 164.95867768595,284.58906 L 164.95867768595,285 Z" style="fill:blue;stroke:black;stroke-width:0.5;" />
	<path d="M 164.95867768595,285 L 164.95867768595,284.58042 L 170.909090909091,284.58042 L 170.909090909091,285 Z" style="fill:blue;stroke:black;stroke-width:0.5;" />
	<path d="M 170.909090909091,285 L 170.909090909091,226.2318 L 176.859504132231,226.2318 L 176.859504132231,285 Z" style="fill:gold;stroke:black;stroke-width:0.5;" />
	<path d="M 176.859504132231,285 L 176.859504132231,225.49794 L 182.809917355372,225.49794 L 182.809917355372,285 Z" style="fill:gold;stroke:black;stroke-width:0.5;" />
	<path d="M 182.809917355372,285 L 182.809917355372,225.44556 L 188.760330578512,225.44556 L 188.760330578512,285 Z" style="fill:gold;stroke:black;stroke-width:0.5;" />
	<line stroke="black" stroke-width="2" x1="185.785123966942" x2="185.785123966942" y1="285" y2="284" />
	<path d="M 188.760330578512,285 L 188.760330578512,225.17502 L 194.710743801653,225.17502 L 194.710743801653,285 Z" style="fill:gold;stroke:black;stroke-width:0.5;" />
	<path d="M 194.710743801653,285 L 194.710743801653,224.72952 L 200.661157024793,224.72952 L 200.661157024793,285 Z" style="fill:gold;stroke:black;stroke-width:0.5;" />
	<path d="M 200.661157024793,285 L 200.661157024793,224.66796 L 206.611570247934,224.66796 L 206.611570247934,285 Z" style="fill:gold;stroke:black;stroke-width:0.5;" />
	<path d="M 206.611570247934,285 L 206.611570247934,224.61558 L 212.561983471074,224.61558 L 212.561983471074,285 Z" style="fill:gold;stroke:black;stroke-width:0.5;" />
	<path d="M 212.561983471074,285 L 212.561983471074,224.56374 L 218.512396694215,224.56374 L 218.512396694215,285 Z" style="fill:gold;stroke:black;stroke-width:0.5;" />
	<text font-size="10" x="212.561983471074" y="297">30</text>
	<line stroke="black" stroke-width="2" x1="215.537190082645" x2="215.537190082645" y1="285" y2="283" />
	<line stroke="black" stroke-width="2" x1="215.537190082645" x2="215.537190082645" y1="285" y2="284" />
	<path d="M 218.512396694215,285 L 218.512396694215,224.52054 L 224.462809917355,224.52054 L 224.462809917355,285 Z" style="fill:gold;stroke:black;stroke-width:0.5;" />
	<path d="M 224.462809917355,285 L 224.462809917355,224.52054 L 230.413223140496,224.52054 L 230.413223140496,285 Z" style="fill:gold;stroke:black;stroke-width:0.5;" />
	<path d="M 230.413223140496,285 L 230.413223140496,224.79162 L 236.363636363636,224.79162 L 236.363636363636,285 Z" style="fill:gold;stroke:black;stroke-width:0.5;" />
	<path d="M 236.363636363636,285 L 236.363636363636,224.79162 L 242.314049586777,224.79162 L 242.314049586777,285 Z" style="fill:gold;stroke:black;stroke-width:0.5;" />
	<path d="M 242.314049586777,285 L 242.314049586777,224.79162 L 248.264462809917,224.79162 L 248.264462809917,285 Z" style="fill:gold;stroke:black;stroke-width:0.5;" />
	<line stroke="black" stroke-width="2" x1="245.289256198347" x2="245.289256198347" y1="285" y2="284" />
	<path d="M 248.264462809917,285 L 248.264462809917,224.79162 L 254.214876033058,224.79162 L 254.214876033058,285 Z" style="fill:gold;stroke:black;stroke-width:0.5;" />
	<path d="M 254.214876033058,285 L 254.214876033058,224.79162 L 260.165289256198,224.79162 L 260.165289256198,285 Z" style="fill:gold;stroke:black;stroke-width:0.5;" />
	<path d="M 260.165289256198,285 L 260.165289256198,224.80026 L 266.115702479339,224.80026 L 266.115702479339,285 Z" style="fill:gold;stroke:black;stroke-width:0.5;" />
	<path d="M 266.115702479339,285 L 266.115702479339,225.0627 L 272.066115702479,225.0627 L 272.066115702479,285 Z" style="fill:gold;stroke:black;stroke-width:0.5;" />
	<path d="M 272.066115702479,285 L 272.066115702479,225.84084 L 278.01652892562,225.84084 L 278.01652892562,285 Z" style="fill:gold;stroke:black;stroke-width:0.5;" />
	<text font-size="10" x="272.066115702479" y="297">40</text>
	<line stroke="black" stroke-width="2" x1="275.04132231405" x2="275.04132231405" y1="285" y2="283" />
	<line stroke="black" stroke-width="2" x1="275.04132231405" x2="275.04132231405" y1="285" y2="284" />
	<path d="M 278.01652892562,285 L 278.01652892562,226.4964 L 283.96694214876,226.4964 L 283.96694214876,285 Z" style="fill:gold;stroke:black;stroke-width:0.5;" />
	<path d="M 283.96694214876,285 L 283.96694214876,227.09094 L 289.917355371901,227.09094 L 289.917355371901,285 Z" style="fill:gold;stroke:black;stroke-width:0.5;" />
	<path d="M 289.917355371901,285 L 289.917355371901,232.3014 L 295.867768595041,232.3014 L 295.867768595041,285 Z" style="fill:gold;stroke:black;stroke-width:0.5;" />
	<path d="M 295.867768595041,285 L 295.867768595041,264.16842 L 301.818181818182,264.16842 L 301.818181818182,285 Z" style="fill:blue;stroke:black;stroke-width:0.5;" />
	<path d="M 301.818181818182,285 L 301.818181818182,284.77428 L 307.768595041322,284.77428 L 307.768595041322,285 Z" style="fill:blue;stroke:black;stroke-width:0.5;" />
	<line stroke="black" stroke-width="2" x1="304.793388429752" x2="304.793388429752" y1="285" y2="284" />
	<path d="M 307.768595041322,285 L 307.768595041322,284.89632 L 313.719008264463,284.89632 L 313.719008264463,285 Z" style="fill:blue;stroke:black;stroke-width:0.5;" />
	<path d="M 313.719008264463,285 L 313.719008264463,284.89632 L 319.669421487603,284.89632 L 319.669421487603,285 Z" style="fill:blue;stroke:black;stroke-width:0.5;" />
	<path d="M 319.669421487603,285 L 319.669421487603,284.9136 L 325.619834710744,284.9136 L 325.619834710744,285 Z" style="fill:blue;stroke:black;stroke-width:0.5;" />
	<path d="M 325.619834710744,285 L 325.619834710744,284.92224 L 331.570247933884,284.92224 L 331.570247933884,285 Z" style="fill:blue;stroke:black;stroke-width:0.5;" />
	<path d="M 331.570247933884,285 L 331.570247933884,284.93952 L 337.520661157025,284.93952 L 337.520661157025,285 Z" style="fill:blue;stroke:black;stroke-width:0.5;" />
	<text font-size="10" x="331.570247933884" y="297">50</text>
	<line stroke="black" stroke-width="2" x1="334.545454545455" x2="334.545454545455" y1="285" y2="283" />
	<line stroke="black" stroke-width="2" x1="334.545454545455" x2="334.545454545455" y1="285" y2="284" />
	<path d="M 337.520661157025,285 L 337.520661157025,284.94816 L 343.471074380165,284.94816 L 343.471074380165,285 Z" style="fill:blue;stroke:black;stroke-width:0.5;" />
	<path d="M 343.471074380165,285 L 343.471074380165,284.9568 L 349.421487603306,284.9568 L 349.421487603306,285 Z" style="fill:blue;stroke:black;stroke-width:0.5;" />
	<path d="M 349.421487603306,285 L 349.421487603306,284.9568 L 355.371900826446,284.9568 L 355.371900826446,285 Z" style="fill:blue;stroke:black;stroke-width:0.5;" />
	<path d="M 355.371900826446,285 L 355.371900826446,284.9568 L 361.322314049587,284.9568 L 361.322314049587,285 Z" style="fill:blue;stroke:black;stroke-width:0.5;" />
	<path d="M 361.322314049587,285 L 361.322314049587,284.9568 L 367.272727272727,284.9568 L 367.272727272727,285 Z" style="fill:blue;stroke:black;stroke-width:0.5;" />
	<line stroke="black" stroke-width="2" x1="364.297520661157" x2="364.297520661157" y1="285" y2="284" />
	<path d="M 367.272727272727,285 L 367.272727272727,284.9568 L 373.223140495868,284.9568 L 373.223140495868,285 Z" style="fill:blue;stroke:black;stroke-width:0.5;" />
	<path d="M 373.223140495868,285 L 373.223140495868,284.97408 L 379.173553719008,284.97408 L 379.173553719008,285 Z" style="fill:blue;stroke:black;stroke-width:0.5;" />
	<path d="M 379.173553719008,285 L 379.173553719008,284.98272 L 385.123966942149,284.98272 L 385.123966942149,285 Z" style="fill:blue;stroke:black;stroke-width:0.5;" />
	<path d="M 385.123966942149,285 L 385.123966942149,284.98272 L 391.074380165289,284.98272 L 391.074380165289,285 Z" style="fill:blue;stroke:black;stroke-width:0.5;" />
	<path d="M 391.074380165289,285 L 391.074380165289,284.98272 L 397.02479338843,284.98272 L 397.02479338843,285 Z" style="fill:blue;stroke:black;stroke-width:0.5;" />
	<text font-size="10" x="391.074380165289" y="297">60</text>
	<line stroke="black" stroke-width="2" x1="394.049586776859" x2="394.049586776859" y1="285" y2="283" />
	<line stroke="black" stroke-width="2" x1="394.049586776859" x2="394.049586776859" y1="285" y2="284" />
	<path d="M 397.02479338843,285 L 397.02479338843,284.97408 L 402.97520661157,284.97408 L 402.97520661157,285 Z" style="fill:blue;stroke:black;stroke-width:0.5;" />
	<path d="M 402.97520661157,285 L 402.97520661157,284.9568 L 408.925619834711,284.9568 L 408.925619834711,285 Z" style="fill:blue;stroke:black;stroke-width:0.5;" />
	<path d="M 408.925619834711,285 L 408.925619834711,284.86068 L 414.876033057851,284.86068 L 414.876033057851,285 Z" style="fill:blue;stroke:black;stroke-width:0.5;" />
	<path d="M 414.876033057851,285 L 414.876033057851,284.83476 L 420.826446280992,284.83476 L 420.826446280992,285 Z" style="fill:blue;stroke:black;stroke-width:0.5;" />
	<path d="M 420.826446280992,285 L 420.826446280992,284.73864 L 426.776859504132,284.73864 L 426.776859504132,285 Z" style="fill:blue;stroke:black;stroke-width:0.5;" />
	<line stroke="black" stroke-width="2" x1="423.801652892562" x2="423.801652892562" y1="285" y2="284" />
	<path d="M 426.776859504132,285 L 426.776859504132,284.73 L 432.727272727273,284.73 L 432.727272727273,285 Z" style="fill:blue;stroke:black;stroke-width:0.5;" />
	<path d="M 432.727272727273,285 L 432.727272727273,284.73 L 438.677685950413,284.73 L 438.677685950413,285 Z" style="fill:blue;stroke:black;stroke-width:0.5;" />
	<path d="M 438.677685950413,285 L 438.677685950413,284.73 L 444.628099173554,284.73 L 444.628099173554,285 Z" style="fill:blue;stroke:black;stroke-width:0.5;" />
	<path d="M 444.628099173554,285 L 444.628099173554,284.73 L 450.578512396694,284.73 L 450.578512396694,285 Z" style="fill:blue;stroke:black;stroke-width:0.5;" />
	<path d="M 450.578512396694,285 L 450.578512396694,284.73 L 456.528925619835,284.73 L 456.528925619835,285 Z" style="fill:blue;stroke:black;stroke-width:0.5;" />
	<text font-size="10" x="450.578512396694" y="297">70</text>
	<line stroke="black" stroke-width="2" x1="453.553719008264" x2="453.553719008264" y1="285" y2="283" />
	<line stroke="black" stroke-width="2" x1="453.553719008264" x2="453.553719008264" y1="285" y2="284" />
	<path d="M 456.528925619835,285 L 456.528925619835,284.73 L 462.479338842975,284.73 L 462.479338842975,285 Z" style="fill:blue;stroke:black;stroke-width:0.5;" />
	<path d="M 462.479338842975,285 L 462.479338842975,284.73 L 468.429752066116,284.73 L 468.429752066116,285 Z" style="fill:blue;stroke:black;stroke-width:0.5;" />
	<path d="M 468.429752066116,285 L 468.429752066116,284.73 L 474.380165289256,284.73 L 474.380165289256,285 Z" style="fill:blue;stroke:black;stroke-width:0.5;" />
	<path d="M 474.380165289256,285 L 474.380165289256,284.73 L 480.330578512397,284.73 L 480.330578512397,285 Z" style="fill:blue;stroke:black;stroke-width:0.5;" />
	<path d="M 480.330578512397,285 L 480.330578512397,284.73 L 486.280991735537,284.73 L 486.280991735537,285 Z" style="fill:blue;stroke:black;stroke-width:0.5;" />
	<line stroke="black" stroke-width="2" x1="483.305785123967" x2="483.305785123967" y1="285" y2="284" />
	<path d="M 486.280991735537,285 L 486.280991735537,284.73 L 492.231404958678,284.73 L 492.231404958678,285 Z" style="fill:blue;stroke:black;stroke-width:0.5;" />
	<path d="M 492.231404958678,285 L 492.231404958678,284.73 L 498.181818181818,284.73 L 498.181818181818,285 Z" style="fill:blue;stroke:black;stroke-width:0.5;" />
	<path d="M 498.181818181818,285 L 498.181818181818,283.65432 L 504.132231404959,283.65432 L 504.132231404959,285 Z" style="fill:blue;stroke:black;stroke-width:0.5;" />
	<path d="M 504.132231404959,285 L 504.132231404959,281.33718 L 510.082644628099,281.33718 L 510.082644628099,285 Z" style="fill:gold;stroke:black;stroke-width:0.5;" />
	<path d="M 510.082644628099,285 L 510.082644628099,281.2497 L 516.03305785124,281.2497 L 516.03305785124,285 Z" style="fill:gold;stroke:black;stroke-width:0.5;" />
	<text font-size="10" x="510.082644628099" y="297">80</text>
	<line stroke="black" stroke-width="2" x1="513.057851239669" x2="513.057851239669" y1="285" y2="283" />
	<line stroke="black" stroke-width="2" x1="513.057851239669" x2="513.057851239669" y1="285" y2="284" />
	<path d="M 516.03305785124,285 L 516.03305785124,280.98726 L 521.98347107438,280.98726 L 521.98347107438,285 Z" style="fill:gold;stroke:black;stroke-width:0.5;" />
	<path d="M 521.98347107438,285 L 521.98347107438,280.98726 L 527.933884297521,280.98726 L 527.933884297521,285 Z" style="fill:gold;stroke:black;stroke-width:0.5;" />
	<path d="M 527.933884297521,285 L 527.933884297521,280.97862 L 533.884297520661,280.97862 L 533.884297520661,285 Z" style="fill:gold;stroke:black;stroke-width:0.5;" />
	<path d="M 533.884297520661,285 L 533.884297520661,280.98726 L 539.834710743802,280.98726 L 539.834710743802,285 Z" style="fill:gold;stroke:black;stroke-width:0.5;" />
	<path d="M 539.834710743802,285 L 539.834710743802,280.98726 L 545.785123966942,280.98726 L 545.785123966942,285 Z" style="fill:gold;stroke:black;stroke-width:0.5;" />
	<line stroke="black" stroke-width="2" x1="542.809917355372" x2="542.809917355372" y1="285" y2="284" />
	<path d="M 545.785123966942,285 L 545.785123966942,280.98726 L 551.735537190083,280.98726 L 551.735537190083,285 Z" style="fill:gold;stroke:black;stroke-width:0.5;" />
	<path d="M 551.735537190083,285 L 551.735537190083,280.98726 L 557.685950413223,280.98726 L 557.685950413223,285 Z" style="fill:gold;stroke:black;stroke-width:0.5;" />
	<path d="M 557.685950413223,285 L 557.685950413223,280.98726 L 563.636363636364,280.98726 L 563.636363636364,285 Z" style="fill:gold;stroke:black;stroke-width:0.5;" />
	<path d="M 563.636363636364,285 L 563.636363636364,280.98726 L 569.586776859504,280.98726 L 569.586776859504,285 Z" style="fill:gold;stroke:black;stroke-width:0.5;" />
	<path d="M 569.586776859504,285 L 569.586776859504,280.98726 L 575.537190082645,280.98726 L 575.537190082645,285 Z" style="fill:gold;stroke:black;stroke-width:0.5;" />
	<text font-size="10" x="569.586776859504" y="297">90</text>
	<line stroke="black" stroke-width="2" x1="572.561983471074" x2="572.561983471074" y1="285" y2="283" />
	<line stroke="black" stroke-width="2" x1="572.561983471074" x2="572.561983471074" y1="285" y2="284" />
	<path d="M 575.537190082645,285 L 575.537190082645,281.09202 L 581.487603305785,281.09202 L 581.487603305785,285 Z" style="fill:gold;stroke:black;stroke-width:0.5;" />
	<path d="M 581.487603305785,285 L 581.487603305785,281.23998 L 587.438016528926,281.23998 L 587.438016528926,285 Z" style="fill:gold;stroke:black;stroke-width:0.5;" />
	<path d="M 587.438016528926,285 L 587.438016528926,281.24862 L 593.388429752066,281.24862 L 593.388429752066,285 Z" style="fill:gold;stroke:black;stroke-width:0.5;" />
	<path d="M 593.388429752066,285 L 593.388429752066,281.24862 L 599.338842975207,281.24862 L 599.338842975207,285 Z" style="fill:gold;stroke:black;stroke-width:0.5;" />
	<path d="M 599.338842975207,285 L 599.338842975207,281.24862 L 605.289256198347,281.24862 L 605.289256198347,285 Z" style="fill:gold;stroke:black;stroke-width:0.5;" />
	<line stroke="black" stroke-width="2" x1="602.314049586777" x2="602.314049586777" y1="285" y2="284" />
	<path d="M 605.289256198347,285 L 605.289256198347,281.24862 L 611.239669421488,281.24862 L 611.239669421488,285 Z" style="fill:gold;stroke:black;stroke-width:0.5;" />
	<path d="M 611.239669421488,285 L 611.239669421488,281.24862 L 617.190082644628,281.24862 L 617.190082644628,285 Z" style="fill:gold;stroke:black;stroke-width:0.5;" />
	<path d="M 617.190082644628,285 L 617.190082644628,281.25726 L 623.140495867769,281.25726 L 623.140495867769,285 Z" style="fill:gold;stroke:black;stroke-width:0.5;" />
	<path d="M 623.140495867769,285 L 623.140495867769,281.38848 L 629.090909090909,281.38848 L 629.090909090909,285 Z" style="fill:gold;stroke:black;stroke-width:0.5;" />
	<path d="M 629.090909090909,285 L 629.090909090909,284.73756 L 635.04132231405,284.73756 L 635.04132231405,285 Z" style="fill:blue;stroke:black;stroke-width:0.5;" />
	<text font-size="10" x="629.090909090909" y="297">100</text>
	<line stroke="black" stroke-width="2" x1="632.066115702479" x2="632.066115702479" y1="285" y2="283" />
	<line stroke="black" stroke-width="2" x1="632.066115702479" x2="632.066115702479" y1="285" y2="284" />
	<path d="M 635.04132231405,285 L 635.04132231405,284.73756 L 640.99173553719,284.73756 L 640.99173553719,285 Z" style="fill:blue;stroke:black;stroke-width:0.5;" />
	<path d="M 640.99173553719,285 L 640.99173553719,285 L 646.94214876033,285 L 646.94214876033,285 Z" style="fill:blue;stroke:black;stroke-width:0.5;" />
	<path d="M 646.94214876033,285 L 646.94214876033,285 L 652.892561983471,285 L 652.892561983471,285 Z" style="fill:blue;stroke:black;stroke-width:0.5;" />
	<path d="M 652.892561983471,285 L 652.892561983471,285 L 658.842975206612,285 L 658.842975206612,285 Z" style="fill:blue;stroke:black;stroke-width:0.5;" />
	<path d="M 658.842975206612,285 L 658.842975206612,285 L 664.793388429752,285 L 664.793388429752,285 Z" style="fill:blue;stroke:black;stroke-width:0.5;" />
	<line stroke="black" stroke-width="2" x1="661.818181818182" x2="661.818181818182" y1="285" y2="284" />
	<path d="M 664.793388429752,285 L 664.793388429752,285 L 670.743801652893,285 L 670.743801652893,285 Z" style="fill:blue;stroke:black;stroke-width:0.5;" />
	<path d="M 670.743801652893,285 L 670.743801652893,285 L 676.694214876033,285 L 676.694214876033,285 Z" style="fill:blue;stroke:black;stroke-width:0.5;" />
	<path d="M 676.694214876033,285 L 676.694214876033,285 L 682.644628099173,285 L 682.644628099173,285 Z" style="fill:blue;stroke:black;stroke-width:0.5;" />
	<path d="M 682.644628099173,285 L 682.644628099173,285 L 688.595041322314,285 L 688.595041322314,285 Z" style="fill:blue;stroke:black;stroke-width:0.5;" />
	<path d="M 688.595041322314,285 L 688.595041322314,285 L 694.545454545455,285 L 694.545454545455,285 Z" style="fill:blue;stroke:black;stroke-width:0.5;" />
	<text font-size="10" x="688.595041322314" y="297">110</text>
	<line stroke="black" stroke-width="2" x1="691.570247933884" x2="691.570247933884" y1="285" y2="283" />
	<line stroke="black" stroke-width="2" x1="691.570247933884" x2="691.570247933884" y1="285" y2="284" />
	<path d="M 694.545454545455,285 L 694.545454545455,285 L 700.495867768595,285 L 700.495867768595,285 Z" style="fill:blue;stroke:black;stroke-width:0.5;" />
	<path d="M 700.495867768595,285 L 700.495867768595,285 L 706.446280991736,285 L 706.446280991736,285 Z" style="fill:blue;stroke:black;stroke-width:0.5;" />
	<path d="M 706.446280991736,285 L 706.446280991736,285 L 712.396694214876,285 L 712.396694214876,285 Z" style="fill:blue;stroke:black;stroke-width:0.5;" />
	<path d="M 712.396694214876,285 L 712.396694214876,285 L 718.347107438016,285 L 718.347107438016,285 Z" style="fill:blue;stroke:black;stroke-width:0.5;" />
	<path d="M 718.347107438016,285 L 718.347107438016,285 L 724.297520661157,285 L 724.297520661157,285 Z" style="fill:blue;stroke:black;stroke-width:0.5;" />
	<line stroke="black" stroke-width="2" x1="721.322314049587" x2="721.322314049587" y1="285" y2="284" />
	<path d="M 724.297520661157,285 L 724.297520661157,285 L 730.247933884297,285 L 730.247933884297,285 Z" style="fill:blue;stroke:black;stroke-width:0.5;" />
	<path d="M 730.247933884297,285 L 730.247933884297,285 L 736.198347107438,285 L 736.198347107438,285 Z" style="fill:blue;stroke:black;stroke-width:0.5;" />
	<path d="M 736.198347107438,285 L 736.198347107438,285 L 742.148760330579,285 L 742.148760330579,285 Z" style="fill:blue;stroke:black;stroke-width:0.5;" />
	<path d="M 742.148760330579,285 L 742.148760330579,285 L 748.099173553719,285 L 748.099173553719,285 Z" style="fill:blue;stroke:black;stroke-width:0.5;" />
	<path d="M 748.099173553719,285 L 748.099173553719,285 L 754.049586776859,285 L 754.049586776859,285 Z" style="fill:blue;stroke:black;stroke-width:0.5;" />
	<text font-size="10" x="748.099173553719" y="297">120</text>
	<line stroke="black" stroke-width="2" x1="751.074380165289" x2="751.074380165289" y1="285" y2="283" />
	<line stroke="black" stroke-width="2" x1="751.074380165289" x2="751.074380165289" y1="285" y2="284" />
	<path d="M 754.049586776859,285 L 754.049586776859,285 L 760,285 L 760,285 Z" style="fill:blue;stroke:black;stroke-width:0.5;" />
	<!-- 
	Generated using the Perl SVG Module V2.50
	by Ronan Oger
	Info: http://www.roitsystems.com/
 -->
</svg>