<?xml version="1.0" encoding="UTF-8" standalone="yes"?>
<!DOCTYPE svg PUBLIC "-//W3C//DTD SVG 1.0//EN" "http://www.w3.org/TR/2001/REC-SVG-20010904/DTD/svg10.dtd">
<svg height="300" width="800" xmlns="http://www.w3.org/2000/svg" xmlns:svg="http://www.w3.org/2000/svg" xmlns:xlink="http://www.w3.org/1999/xlink">
	<line stroke="black" stroke-width="2" x1="40" x2="40" y1="15" y2="285" />
	<line stroke="black" stroke-width="2" x1="40" x2="42.962962962963" y1="231" y2="231" />
	<text font-size="12" x="44.4444444444444" y="231">100</text>
	<line stroke="black" stroke-width="2" x1="40" x2="42.962962962963" y1="177" y2="177" />
	<text font-size="12" x="44.4444444444444" y="177">200</text>
	<line stroke="black" stroke-width="2" x1="40" x2="42.962962962963" y1="123" y2="123" />
	<text font-size="12" x="44.4444444444444" y="123">300</text>
	<line stroke="black" stroke-width="2" x1="40" x2="42.962962962963" y1="69" y2="69" />
	<text font-size="12" x="44.4444444444444" y="69">400</text>
	<line stroke="black" stroke-width="2" x1="40" x2="42.962962962963" y1="15" y2="15" />
	<text font-size="12" x="44.4444444444444" y="15">500</text>
	<line stroke="black" stroke-width="2" x1="40" x2="800" y1="285" y2="285" />
	<path d="M 40,285 L 40,285 L 42.962962962963,285 L 42.962962962963,285 Z" style="fill:blue;stroke:black;stroke-width:0.5;" />
	<path d="M 42.962962962963,285 L 42.962962962963,285 L 45.9259259259259,285 L 45.9259259259259,285 Z" style="fill:blue;stroke:black;stroke-width:0.5;" />
	<path d="M 45.9259259259259,285 L 45.9259259259259,285 L 48.8888888888889,285 L 48.8888888888889,285 Z" style="fill:blue;stroke:black;stroke-width:0.5;" />
	<path d="M 48.8888888888889,285 L 48.8888888888889,285 L 51.8518518518518,285 L 51.8518518518518,285 Z" style="fill:blue;stroke:black;stroke-width:0.5;" />
	<path d="M 51.8518518518518,285 L 51.8518518518518,285 L 54.8148148148148,285 L 54.8148148148148,285 Z" style="fill:blue;stroke:black;stroke-width:0.5;" />
	<line stroke="black" stroke-width="2" x1="53.3333333333333" x2="53.3333333333333" y1="285" y2="284" />
	<path d="M 54.8148148148148,285 L 54.8148148148148,285 L 57.7777777777778,285 L 57.7777777777778,285 Z" style="fill:blue;stroke:black;stroke-width:0.5;" />
	<path d="M 57.7777777777778,285 L 57.7777777777778,285 L 60.7407407407407,285 L 60.7407407407407,285 Z" style="fill:blue;stroke:black;stroke-width:0.5;" />
	<path d="M 60.7407407407407,285 L 60.7407407407407,285 L 63.7037037037037,285 L 63.7037037037037,285 Z" style="fill:blue;stroke:black;stroke-width:0.5;" />
	<path d="M 63.7037037037037,285 L 63.7037037037037,285 L 66.6666666666667,285 L 66.6666666666667,285 Z" style="fill:blue;stroke:black;stroke-width:0.5;" />
	<path d="M 66.6666666666667,285 L 66.6666666666667,285 L 69.6296296296296,285 L 69.6296296296296,285 Z" style="fill:blue;stroke:black;stroke-width:0.5;" />
	<text font-size="10" x="66.6666666666667" y="297">10</text>
	<line stroke="black" stroke-width="2" x1="68.1481481481481" x2="68.1481481481481" y1="285" y2="283" />
	<line stroke="black" stroke-width="2" x1="68.1481481481481" x2="68.1481481481481" y1="285" y2="284" />
	<path d="M 69.6296296296296,285 L 69.6296296296296,285 L 72.5925925925926,285 L 72.5925925925926,285 Z" style="fill:blue;stroke:black;stroke-width:0.5;" />
	<path d="M 72.5925925925926,285 L 72.5925925925926,285 L 75.5555555555556,285 L 75.5555555555556,285 Z" style="fill:blue;stroke:black;stroke-width:0.5;" />
	<path d="M 75.5555555555556,285 L 75.5555555555556,285 L 78.5185185185185,285 L 78.5185185185185,285 Z" style="fill:blue;stroke:black;stroke-width:0.5;" />
	<path d="M 78.5185185185185,285 L 78.5185185185185,285 L 81.4814814814815,285 L 81.4814814814815,285 Z" style="fill:blue;stroke:black;stroke-width:0.5;" />
	<path d="M 81.4814814814815,285 L 81.4814814814815,285 L 84.4444444444444,285 L 84.4444444444444,285 Z" style="fill:blue;stroke:black;stroke-width:0.5;" />
	<line stroke="black" stroke-width="2" x1="82.962962962963" x2="82.962962962963" y1="285" y2="284" />
	<path d="M 84.4444444444444,285 L 84.4444444444444,284.6544 L 87.4074074074074,284.6544 L 87.4074074074074,285 Z" style="fill:blue;stroke:black;stroke-width:0.5;" />
	<path d="M 87.4074074074074,285 L 87.4074074074074,163.8726 L 90.3703703703704,163.8726 L 90.3703703703704,285 Z" style="fill:gold;stroke:black;stroke-width:0.5;" />
	<path d="M 90.3703703703704,285 L 90.3703703703704,163.3434 L 93.3333333333333,163.3434 L 93.3333333333333,285 Z" style="fill:gold;stroke:black;stroke-width:0.5;" />
	<path d="M 93.3333333333333,285 L 93.3333333333333,163.257 L 96.2962962962963,163.257 L 96.2962962962963,285 Z" style="fill:gold;stroke:black;stroke-width:0.5;" />
	<path d="M 96.2962962962963,285 L 96.2962962962963,163.1706 L 99.2592592592593,163.1706 L 99.2592592592593,285 Z" style="fill:gold;stroke:black;stroke-width:0.5;" />
	<text font-size="10" x="96.2962962962963" y="297">20</text>
	<line stroke="black" stroke-width="2" x1="97.7777777777778" x2="97.7777777777778" y1="285" y2="283" />
	<line stroke="black" stroke-width="2" x1="97.7777777777778" x2="97.7777777777778" y1="285" y2="284" />
	<path d="M 99.2592592592593,285 L 99.2592592592593,163.1706 L 102.222222222222,163.1706 L 102.222222222222,285 Z" style="fill:gold;stroke:black;stroke-width:0.5;" />
	<path d="M 102.222222222222,285 L 102.222222222222,163.1706 L 105.185185185185,163.1706 L 105.185185185185,285 Z" style="fill:gold;stroke:black;stroke-width:0.5;" />
	<path d="M 105.185185185185,285 L 105.185185185185,163.1706 L 108.148148148148,163.1706 L 108.148148148148,285 Z" style="fill:gold;stroke:black;stroke-width:0.5;" />
	<path d="M 108.148148148148,285 L 108.148148148148,163.1706 L 111.111111111111,163.1706 L 111.111111111111,285 Z" style="fill:gold;stroke:black;stroke-width:0.5;" />
	<path d="M 111.111111111111,285 L 111.111111111111,163.1706 L 114.074074074074,163.1706 L 114.074074074074,285 Z" style="fill:gold;stroke:black;stroke-width:0.5;" />
	<line stroke="black" stroke-width="2" x1="112.592592592593" x2="112.592592592593" y1="285" y2="284" />
	<path d="M 114.074074074074,285 L 114.074074074074,163.1706 L 117.037037037037,163.1706 L 117.037037037037,285 Z" style="fill:gold;stroke:black;stroke-width:0.5;" />
	<path d="M 117.037037037037,285 L 117.037037037037,163.1706 L 120,163.1706 L 120,285 Z" style="fill:gold;stroke:black;stroke-width:0.5;" />
	<path d="M 120,285 L 120,163.1706 L 122.962962962963,163.1706 L 122.962962962963,285 Z" style="fill:gold;stroke:black;stroke-width:0.5;" />
	<path d="M 122.962962962963,285 L 122.962962962963,163.1706 L 125.925925925926,163.1706 L 125.925925925926,285 Z" style="fill:gold;stroke:black;stroke-width:0.5;" />
	<path d="M 125.925925925926,285 L 125.925925925926,163.1706 L 128.888888888889,163.1706 L 128.888888888889,285 Z" style="fill:gold;stroke:black;stroke-width:0.5;" />
	<text font-size="10" x="125.925925925926" y="297">30</text>
	<line stroke="black" stroke-width="2" x1="127.407407407407" x2="127.407407407407" y1="285" y2="283" />
	<line stroke="black" stroke-width="2" x1="127.407407407407" x2="127.407407407407" y1="285" y2="284" />
	<path d="M 128.888888888889,285 L 128.888888888889,163.1706 L 131.851851851852,163.1706 L 131.851851851852,285 Z" style="fill:gold;stroke:black;stroke-width:0.5;" />
	<path d="M 131.851851851852,285 L 131.851851851852,163.1706 L 134.814814814815,163.1706 L 134.814814814815,285 Z" style="fill:gold;stroke:black;stroke-width:0.5;" />
	<path d="M 134.814814814815,285 L 134.814814814815,164.0454 L 137.777777777778,164.0454 L 137.777777777778,285 Z" style="fill:gold;stroke:black;stroke-width:0.5;" />
	<path d="M 137.777777777778,285 L 137.777777777778,164.1318 L 140.740740740741,164.1318 L 140.740740740741,285 Z" style="fill:gold;stroke:black;stroke-width:0.5;" />
	<path d="M 140.740740740741,285 L 140.740740740741,165.0066 L 143.703703703704,165.0066 L 143.703703703704,285 Z" style="fill:gold;stroke:black;stroke-width:0.5;" />
	<line stroke="black" stroke-width="2" x1="142.222222222222" x2="142.222222222222" y1="285" y2="284" />
	<path d="M 143.703703703704,285 L 143.703703703704,166.4052 L 146.666666666667,166.4052 L 146.666666666667,285 Z" style="fill:gold;stroke:black;stroke-width:0.5;" />
	<path d="M 146.666666666667,285 L 146.666666666667,284.2116 L 149.62962962963,284.2116 L 149.62962962963,285 Z" style="fill:blue;stroke:black;stroke-width:0.5;" />
	<path d="M 149.62962962963,285 L 149.62962962963,285 L 152.592592592593,285 L 152.592592592593,285 Z" style="fill:blue;stroke:black;stroke-width:0.5;" />
	<path d="M 152.592592592593,285 L 152.592592592593,285 L 155.555555555556,285 L 155.555555555556,285 Z" style="fill:blue;stroke:black;stroke-width:0.5;" />
	<path d="M 155.555555555556,285 L 155.555555555556,285 L 158.518518518519,285 L 158.518518518519,285 Z" style="fill:blue;stroke:black;stroke-width:0.5;" />
	<text font-size="10" x="155.555555555556" y="297">40</text>
	<line stroke="black" stroke-width="2" x1="157.037037037037" x2="157.037037037037" y1="285" y2="283" />
	<line stroke="black" stroke-width="2" x1="157.037037037037" x2="157.037037037037" y1="285" y2="284" />
	<path d="M 158.518518518519,285 L 158.518518518519,285 L 161.481481481481,285 L 161.481481481481,285 Z" style="fill:blue;stroke:black;stroke-width:0.5;" />
	<path d="M 161.481481481481,285 L 161.481481481481,285 L 164.444444444444,285 L 164.444444444444,285 Z" style="fill:blue;stroke:black;stroke-width:0.5;" />
	<path d="M 164.444444444444,285 L 164.444444444444,285 L 167.407407407407,285 L 167.407407407407,285 Z" style="fill:blue;stroke:black;stroke-width:0.5;" />
	<path d="M 167.407407407407,285 L 167.407407407407,285 L 170.37037037037,285 L 170.37037037037,285 Z" style="fill:blue;stroke:black;stroke-width:0.5;" />
	<path d="M 170.37037037037,285 L 170.37037037037,285 L 173.333333333333,285 L 173.333333333333,285 Z" style="fill:blue;stroke:black;stroke-width:0.5;" />
	<line stroke="black" stroke-width="2" x1="171.851851851852" x2="171.851851851852" y1="285" y2="284" />
	<path d="M 173.333333333333,285 L 173.333333333333,285 L 176.296296296296,285 L 176.296296296296,285 Z" style="fill:blue;stroke:black;stroke-width:0.5;" />
	<path d="M 176.296296296296,285 L 176.296296296296,285 L 179.259259259259,285 L 179.259259259259,285 Z" style="fill:blue;stroke:black;stroke-width:0.5;" />
	<path d="M 179.259259259259,285 L 179.259259259259,285 L 182.222222222222,285 L 182.222222222222,285 Z" style="fill:blue;stroke:black;stroke-width:0.5;" />
	<path d="M 182.222222222222,285 L 182.222222222222,285 L 185.185185185185,285 L 185.185185185185,285 Z" style="fill:blue;stroke:black;stroke-width:0.5;" />
	<path d="M 185.185185185185,285 L 185.185185185185,285 L 188.148148148148,285 L 188.148148148148,285 Z" style="fill:blue;stroke:black;stroke-width:0.5;" />
	<text font-size="10" x="185.185185185185" y="297">50</text>
	<line stroke="black" stroke-width="2" x1="186.666666666667" x2="186.666666666667" y1="285" y2="283" />
	<line stroke="black" stroke-width="2" x1="186.666666666667" x2="186.666666666667" y1="285" y2="284" />
	<path d="M 188.148148148148,285 L 188.148148148148,285 L 191.111111111111,285 L 191.111111111111,285 Z" style="fill:blue;stroke:black;stroke-width:0.5;" />
	<path d="M 191.111111111111,285 L 191.111111111111,285 L 194.074074074074,285 L 194.074074074074,285 Z" style="fill:blue;stroke:black;stroke-width:0.5;" />
	<path d="M 194.074074074074,285 L 194.074074074074,285 L 197.037037037037,285 L 197.037037037037,285 Z" style="fill:blue;stroke:black;stroke-width:0.5;" />
	<path d="M 197.037037037037,285 L 197.037037037037,285 L 200,285 L 200,285 Z" style="fill:blue;stroke:black;stroke-width:0.5;" />
	<path d="M 200,285 L 200,285 L 202.962962962963,285 L 202.962962962963,285 Z" style="fill:blue;stroke:black;stroke-width:0.5;" />
	<line stroke="black" stroke-width="2" x1="201.481481481481" x2="201.481481481481" y1="285" y2="284" />
	<path d="M 202.962962962963,285 L 202.962962962963,285 L 205.925925925926,285 L 205.925925925926,285 Z" style="fill:blue;stroke:black;stroke-width:0.5;" />
	<path d="M 205.925925925926,285 L 205.925925925926,285 L 208.888888888889,285 L 208.888888888889,285 Z" style="fill:blue;stroke:black;stroke-width:0.5;" />
	<path d="M 208.888888888889,285 L 208.888888888889,285 L 211.851851851852,285 L 211.851851851852,285 Z" style="fill:blue;stroke:black;stroke-width:0.5;" />
	<path d="M 211.851851851852,285 L 211.851851851852,285 L 214.814814814815,285 L 214.814814814815,285 Z" style="fill:blue;stroke:black;stroke-width:0.5;" />
	<path d="M 214.814814814815,285 L 214.814814814815,285 L 217.777777777778,285 L 217.777777777778,285 Z" style="fill:blue;stroke:black;stroke-width:0.5;" />
	<text font-size="10" x="214.814814814815" y="297">60</text>
	<line stroke="black" stroke-width="2" x1="216.296296296296" x2="216.296296296296" y1="285" y2="283" />
	<line stroke="black" stroke-width="2" x1="216.296296296296" x2="216.296296296296" y1="285" y2="284" />
	<path d="M 217.777777777778,285 L 217.777777777778,285 L 220.740740740741,285 L 220.740740740741,285 Z" style="fill:blue;stroke:black;stroke-width:0.5;" />
	<path d="M 220.740740740741,285 L 220.740740740741,285 L 223.703703703704,285 L 223.703703703704,285 Z" style="fill:blue;stroke:black;stroke-width:0.5;" />
	<path d="M 223.703703703704,285 L 223.703703703704,285 L 226.666666666667,285 L 226.666666666667,285 Z" style="fill:blue;stroke:black;stroke-width:0.5;" />
	<path d="M 226.666666666667,285 L 226.666666666667,285 L 229.62962962963,285 L 229.62962962963,285 Z" style="fill:blue;stroke:black;stroke-width:0.5;" />
	<path d="M 229.62962962963,285 L 229.62962962963,285 L 232.592592592593,285 L 232.592592592593,285 Z" style="fill:blue;stroke:black;stroke-width:0.5;" />
	<line stroke="black" stroke-width="2" x1="231.111111111111" x2="231.111111111111" y1="285" y2="284" />
	<path d="M 232.592592592593,285 L 232.592592592593,285 L 235.555555555556,285 L 235.555555555556,285 Z" style="fill:blue;stroke:black;stroke-width:0.5;" />
	<path d="M 235.555555555556,285 L 235.555555555556,285 L 238.518518518519,285 L 238.518518518519,285 Z" style="fill:blue;stroke:black;stroke-width:0.5;" />
	<path d="M 238.518518518519,285 L 238.518518518519,285 L 241.481481481481,285 L 241.481481481481,285 Z" style="fill:blue;stroke:black;stroke-width:0.5;" />
	<path d="M 241.481481481481,285 L 241.481481481481,285 L 244.444444444444,285 L 244.444444444444,285 Z" style="fill:blue;stroke:black;stroke-width:0.5;" />
	<path d="M 244.444444444444,285 L 244.444444444444,285 L 247.407407407407,285 L 247.407407407407,285 Z" style="fill:blue;stroke:black;stroke-width:0.5;" />
	<text font-size="10" x="244.444444444444" y="297">70</text>
	<line stroke="black" stroke-width="2" x1="245.925925925926" x2="245.925925925926" y1="285" y2="283" />
	<line stroke="black" stroke-width="2" x1="245.925925925926" x2="245.925925925926" y1="285" y2="284" />
	<path d="M 247.407407407407,285 L 247.407407407407,285 L 250.37037037037,285 L 250.37037037037,285 Z" style="fill:blue;stroke:black;stroke-width:0.5;" />
	<path d="M 250.37037037037,285 L 250.37037037037,285 L 253.333333333333,285 L 253.333333333333,285 Z" style="fill:blue;stroke:black;stroke-width:0.5;" />
	<path d="M 253.333333333333,285 L 253.333333333333,285 L 256.296296296296,285 L 256.296296296296,285 Z" style="fill:blue;stroke:black;stroke-width:0.5;" />
	<path d="M 256.296296296296,285 L 256.296296296296,285 L 259.259259259259,285 L 259.259259259259,285 Z" style="fill:blue;stroke:black;stroke-width:0.5;" />
	<path d="M 259.259259259259,285 L 259.259259259259,285 L 262.222222222222,285 L 262.222222222222,285 Z" style="fill:blue;stroke:black;stroke-width:0.5;" />
	<line stroke="black" stroke-width="2" x1="260.740740740741" x2="260.740740740741" y1="285" y2="284" />
	<path d="M 262.222222222222,285 L 262.222222222222,285 L 265.185185185185,285 L 265.185185185185,285 Z" style="fill:blue;stroke:black;stroke-width:0.5;" />
	<path d="M 265.185185185185,285 L 265.185185185185,285 L 268.148148148148,285 L 268.148148148148,285 Z" style="fill:blue;stroke:black;stroke-width:0.5;" />
	<path d="M 268.148148148148,285 L 268.148148148148,285 L 271.111111111111,285 L 271.111111111111,285 Z" style="fill:blue;stroke:black;stroke-width:0.5;" />
	<path d="M 271.111111111111,285 L 271.111111111111,285 L 274.074074074074,285 L 274.074074074074,285 Z" style="fill:blue;stroke:black;stroke-width:0.5;" />
	<path d="M 274.074074074074,285 L 274.074074074074,283.6878 L 277.037037037037,283.6878 L 277.037037037037,285 Z" style="fill:gold;stroke:black;stroke-width:0.5;" />
	<text font-size="10" x="274.074074074074" y="297">80</text>
	<line stroke="black" stroke-width="2" x1="275.555555555556" x2="275.555555555556" y1="285" y2="283" />
	<line stroke="black" stroke-width="2" x1="275.555555555556" x2="275.555555555556" y1="285" y2="284" />
	<path d="M 277.037037037037,285 L 277.037037037037,283.6878 L 280,283.6878 L 280,285 Z" style="fill:gold;stroke:black;stroke-width:0.5;" />
	<path d="M 280,285 L 280,283.6878 L 282.962962962963,283.6878 L 282.962962962963,285 Z" style="fill:gold;stroke:black;stroke-width:0.5;" />
	<path d="M 282.962962962963,285 L 282.962962962963,283.6878 L 285.925925925926,283.6878 L 285.925925925926,285 Z" style="fill:gold;stroke:black;stroke-width:0.5;" />
	<path d="M 285.925925925926,285 L 285.925925925926,283.6878 L 288.888888888889,283.6878 L 288.888888888889,285 Z" style="fill:gold;stroke:black;stroke-width:0.5;" />
	<path d="M 288.888888888889,285 L 288.888888888889,283.6878 L 291.851851851852,283.6878 L 291.851851851852,285 Z" style="fill:gold;stroke:black;stroke-width:0.5;" />
	<line stroke="black" stroke-width="2" x1="290.37037037037" x2="290.37037037037" y1="285" y2="284" />
	<path d="M 291.851851851852,285 L 291.851851851852,283.6878 L 294.814814814815,283.6878 L 294.814814814815,285 Z" style="fill:gold;stroke:black;stroke-width:0.5;" />
	<path d="M 294.814814814815,285 L 294.814814814815,283.6878 L 297.777777777778,283.6878 L 297.777777777778,285 Z" style="fill:gold;stroke:black;stroke-width:0.5;" />
	<path d="M 297.777777777778,285 L 297.777777777778,283.6878 L 300.740740740741,283.6878 L 300.740740740741,285 Z" style="fill:gold;stroke:black;stroke-width:0.5;" />
	<path d="M 300.740740740741,285 L 300.740740740741,283.6878 L 303.703703703704,283.6878 L 303.703703703704,285 Z" style="fill:gold;stroke:black;stroke-width:0.5;" />
	<path d="M 303.703703703704,285 L 303.703703703704,283.6878 L 306.666666666667,283.6878 L 306.666666666667,285 Z" style="fill:gold;stroke:black;stroke-width:0.5;" />
	<text font-size="10" x="303.703703703704" y="297">90</text>
	<line stroke="black" stroke-width="2" x1="305.185185185185" x2="305.185185185185" y1="285" y2="283" />
	<line stroke="black" stroke-width="2" x1="305.185185185185" x2="305.185185185185" y1="285" y2="284" />
	<path d="M 306.666666666667,285 L 306.666666666667,283.6878 L 309.62962962963,283.6878 L 309.62962962963,285 Z" style="fill:gold;stroke:black;stroke-width:0.5;" />
	<path d="M 309.62962962963,285 L 309.62962962963,283.6878 L 312.592592592593,283.6878 L 312.592592592593,285 Z" style="fill:gold;stroke:black;stroke-width:0.5;" />
	<path d="M 312.592592592593,285 L 312.592592592593,283.6878 L 315.555555555556,283.6878 L 315.555555555556,285 Z" style="fill:gold;stroke:black;stroke-width:0.5;" />
	<path d="M 315.555555555556,285 L 315.555555555556,283.6878 L 318.518518518518,283.6878 L 318.518518518518,285 Z" style="fill:gold;stroke:black;stroke-width:0.5;" />
	<path d="M 318.518518518518,285 L 318.518518518518,283.6878 L 321.481481481481,283.6878 L 321.481481481481,285 Z" style="fill:gold;stroke:black;stroke-width:0.5;" />
	<line stroke="black" stroke-width="2" x1="320" x2="320" y1="285" y2="284" />
	<path d="M 321.481481481481,285 L 321.481481481481,283.6878 L 324.444444444444,283.6878 L 324.444444444444,285 Z" style="fill:gold;stroke:black;stroke-width:0.5;" />
	<path d="M 324.444444444444,285 L 324.444444444444,283.6878 L 327.407407407407,283.6878 L 327.407407407407,285 Z" style="fill:gold;stroke:black;stroke-width:0.5;" />
	<path d="M 327.407407407407,285 L 327.407407407407,283.6878 L 330.37037037037,283.6878 L 330.37037037037,285 Z" style="fill:gold;stroke:black;stroke-width:0.5;" />
	<path d="M 330.37037037037,285 L 330.37037037037,283.6878 L 333.333333333333,283.6878 L 333.333333333333,285 Z" style="fill:gold;stroke:black;stroke-width:0.5;" />
	<path d="M 333.333333333333,285 L 333.333333333333,283.6878 L 336.296296296296,283.6878 L 336.296296296296,285 Z" style="fill:gold;stroke:black;stroke-width:0.5;" />
	<text font-size="10" x="333.333333333333" y="297">100</text>
	<line stroke="black" stroke-width="2" x1="334.814814814815" x2="334.814814814815" y1="285" y2="283" />
	<line stroke="black" stroke-width="2" x1="334.814814814815" x2="334.814814814815" y1="285" y2="284" />
	<path d="M 336.296296296296,285 L 336.296296296296,283.7742 L 339.259259259259,283.7742 L 339.259259259259,285 Z" style="fill:gold;stroke:black;stroke-width:0.5;" />
	<path d="M 339.259259259259,285 L 339.259259259259,285 L 342.222222222222,285 L 342.222222222222,285 Z" style="fill:blue;stroke:black;stroke-width:0.5;" />
	<path d="M 342.222222222222,285 L 342.222222222222,285 L 345.185185185185,285 L 345.185185185185,285 Z" style="fill:blue;stroke:black;stroke-width:0.5;" />
	<path d="M 345.185185185185,285 L 345.185185185185,285 L 348.148148148148,285 L 348.148148148148,285 Z" style="fill:blue;stroke:black;stroke-width:0.5;" />
	<path d="M 348.148148148148,285 L 348.148148148148,285 L 351.111111111111,285 L 351.111111111111,285 Z" style="fill:blue;stroke:black;stroke-width:0.5;" />
	<line stroke="black" stroke-width="2" x1="349.62962962963" x2="349.62962962963" y1="285" y2="284" />
	<path d="M 351.111111111111,285 L 351.111111111111,285 L 354.074074074074,285 L 354.074074074074,285 Z" style="fill:blue;stroke:black;stroke-width:0.5;" />
	<path d="M 354.074074074074,285 L 354.074074074074,285 L 357.037037037037,285 L 357.037037037037,285 Z" style="fill:blue;stroke:black;stroke-width:0.5;" />
	<path d="M 357.037037037037,285 L 357.037037037037,285 L 360,285 L 360,285 Z" style="fill:blue;stroke:black;stroke-width:0.5;" />
	<path d="M 360,285 L 360,285 L 362.962962962963,285 L 362.962962962963,285 Z" style="fill:blue;stroke:black;stroke-width:0.5;" />
	<path d="M 362.962962962963,285 L 362.962962962963,285 L 365.925925925926,285 L 365.925925925926,285 Z" style="fill:blue;stroke:black;stroke-width:0.5;" />
	<text font-size="10" x="362.962962962963" y="297">110</text>
	<line stroke="black" stroke-width="2" x1="364.444444444444" x2="364.444444444444" y1="285" y2="283" />
	<line stroke="black" stroke-width="2" x1="364.444444444444" x2="364.444444444444" y1="285" y2="284" />
	<path d="M 365.925925925926,285 L 365.925925925926,285 L 368.888888888889,285 L 368.888888888889,285 Z" style="fill:blue;stroke:black;stroke-width:0.5;" />
	<path d="M 368.888888888889,285 L 368.888888888889,285 L 371.851851851852,285 L 371.851851851852,285 Z" style="fill:blue;stroke:black;stroke-width:0.5;" />
	<path d="M 371.851851851852,285 L 371.851851851852,285 L 374.814814814815,285 L 374.814814814815,285 Z" style="fill:blue;stroke:black;stroke-width:0.5;" />
	<path d="M 374.814814814815,285 L 374.814814814815,285 L 377.777777777778,285 L 377.777777777778,285 Z" style="fill:blue;stroke:black;stroke-width:0.5;" />
	<path d="M 377.777777777778,285 L 377.777777777778,285 L 380.740740740741,285 L 380.740740740741,285 Z" style="fill:blue;stroke:black;stroke-width:0.5;" />
	<line stroke="black" stroke-width="2" x1="379.259259259259" x2="379.259259259259" y1="285" y2="284" />
	<path d="M 380.740740740741,285 L 380.740740740741,285 L 383.703703703704,285 L 383.703703703704,285 Z" style="fill:blue;stroke:black;stroke-width:0.5;" />
	<path d="M 383.703703703704,285 L 383.703703703704,285 L 386.666666666667,285 L 386.666666666667,285 Z" style="fill:blue;stroke:black;stroke-width:0.5;" />
	<path d="M 386.666666666667,285 L 386.666666666667,285 L 389.62962962963,285 L 389.62962962963,285 Z" style="fill:blue;stroke:black;stroke-width:0.5;" />
	<path d="M 389.62962962963,285 L 389.62962962963,285 L 392.592592592593,285 L 392.592592592593,285 Z" style="fill:blue;stroke:black;stroke-width:0.5;" />
	<path d="M 392.592592592593,285 L 392.592592592593,285 L 395.555555555556,285 L 395.555555555556,285 Z" style="fill:blue;stroke:black;stroke-width:0.5;" />
	<text font-size="10" x="392.592592592593" y="297">120</text>
	<line stroke="black" stroke-width="2" x1="394.074074074074" x2="394.074074074074" y1="285" y2="283" />
	<line stroke="black" stroke-width="2" x1="394.074074074074" x2="394.074074074074" y1="285" y2="284" />
	<path d="M 395.555555555556,285 L 395.555555555556,285 L 398.518518518518,285 L 398.518518518518,285 Z" style="fill:blue;stroke:black;stroke-width:0.5;" />
	<path d="M 398.518518518518,285 L 398.518518518518,285 L 401.481481481481,285 L 401.481481481481,285 Z" style="fill:blue;stroke:black;stroke-width:0.5;" />
	<path d="M 401.481481481481,285 L 401.481481481481,285 L 404.444444444444,285 L 404.444444444444,285 Z" style="fill:blue;stroke:black;stroke-width:0.5;" />
	<path d="M 404.444444444444,285 L 404.444444444444,285 L 407.407407407407,285 L 407.407407407407,285 Z" style="fill:blue;stroke:black;stroke-width:0.5;" />
	<path d="M 407.407407407407,285 L 407.407407407407,285 L 410.37037037037,285 L 410.37037037037,285 Z" style="fill:blue;stroke:black;stroke-width:0.5;" />
	<line stroke="black" stroke-width="2" x1="408.888888888889" x2="408.888888888889" y1="285" y2="284" />
	<path d="M 410.37037037037,285 L 410.37037037037,285 L 413.333333333333,285 L 413.333333333333,285 Z" style="fill:blue;stroke:black;stroke-width:0.5;" />
	<path d="M 413.333333333333,285 L 413.333333333333,285 L 416.296296296296,285 L 416.296296296296,285 Z" style="fill:blue;stroke:black;stroke-width:0.5;" />
	<path d="M 416.296296296296,285 L 416.296296296296,285 L 419.259259259259,285 L 419.259259259259,285 Z" style="fill:blue;stroke:black;stroke-width:0.5;" />
	<path d="M 419.259259259259,285 L 419.259259259259,285 L 422.222222222222,285 L 422.222222222222,285 Z" style="fill:blue;stroke:black;stroke-width:0.5;" />
	<path d="M 422.222222222222,285 L 422.222222222222,285 L 425.185185185185,285 L 425.185185185185,285 Z" style="fill:blue;stroke:black;stroke-width:0.5;" />
	<text font-size="10" x="422.222222222222" y="297">130</text>
	<line stroke="black" stroke-width="2" x1="423.703703703704" x2="423.703703703704" y1="285" y2="283" />
	<line stroke="black" stroke-width="2" x1="423.703703703704" x2="423.703703703704" y1="285" y2="284" />
	<path d="M 425.185185185185,285 L 425.185185185185,285 L 428.148148148148,285 L 428.148148148148,285 Z" style="fill:blue;stroke:black;stroke-width:0.5;" />
	<path d="M 428.148148148148,285 L 428.148148148148,285 L 431.111111111111,285 L 431.111111111111,285 Z" style="fill:blue;stroke:black;stroke-width:0.5;" />
	<path d="M 431.111111111111,285 L 431.111111111111,285 L 434.074074074074,285 L 434.074074074074,285 Z" style="fill:blue;stroke:black;stroke-width:0.5;" />
	<path d="M 434.074074074074,285 L 434.074074074074,285 L 437.037037037037,285 L 437.037037037037,285 Z" style="fill:blue;stroke:black;stroke-width:0.5;" />
	<path d="M 437.037037037037,285 L 437.037037037037,285 L 440,285 L 440,285 Z" style="fill:blue;stroke:black;stroke-width:0.5;" />
	<line stroke="black" stroke-width="2" x1="438.518518518518" x2="438.518518518518" y1="285" y2="284" />
	<path d="M 440,285 L 440,285 L 442.962962962963,285 L 442.962962962963,285 Z" style="fill:blue;stroke:black;stroke-width:0.5;" />
	<path d="M 442.962962962963,285 L 442.962962962963,285 L 445.925925925926,285 L 445.925925925926,285 Z" style="fill:blue;stroke:black;stroke-width:0.5;" />
	<path d="M 445.925925925926,285 L 445.925925925926,285 L 448.888888888889,285 L 448.888888888889,285 Z" style="fill:blue;stroke:black;stroke-width:0.5;" />
	<path d="M 448.888888888889,285 L 448.888888888889,285 L 451.851851851852,285 L 451.851851851852,285 Z" style="fill:blue;stroke:black;stroke-width:0.5;" />
	<path d="M 451.851851851852,285 L 451.851851851852,285 L 454.814814814815,285 L 454.814814814815,285 Z" style="fill:blue;stroke:black;stroke-width:0.5;" />
	<text font-size="10" x="451.851851851852" y="297">140</text>
	<line stroke="black" stroke-width="2" x1="453.333333333333" x2="453.333333333333" y1="285" y2="283" />
	<line stroke="black" stroke-width="2" x1="453.333333333333" x2="453.333333333333" y1="285" y2="284" />
	<path d="M 454.814814814815,285 L 454.814814814815,285 L 457.777777777778,285 L 457.777777777778,285 Z" style="fill:blue;stroke:black;stroke-width:0.5;" />
	<path d="M 457.777777777778,285 L 457.777777777778,285 L 460.740740740741,285 L 460.740740740741,285 Z" style="fill:blue;stroke:black;stroke-width:0.5;" />
	<path d="M 460.740740740741,285 L 460.740740740741,285 L 463.703703703704,285 L 463.703703703704,285 Z" style="fill:blue;stroke:black;stroke-width:0.5;" />
	<path d="M 463.703703703704,285 L 463.703703703704,285 L 466.666666666667,285 L 466.666666666667,285 Z" style="fill:blue;stroke:black;stroke-width:0.5;" />
	<path d="M 466.666666666667,285 L 466.666666666667,285 L 469.62962962963,285 L 469.62962962963,285 Z" style="fill:blue;stroke:black;stroke-width:0.5;" />
	<line stroke="black" stroke-width="2" x1="468.148148148148" x2="468.148148148148" y1="285" y2="284" />
	<path d="M 469.62962962963,285 L 469.62962962963,285 L 472.592592592593,285 L 472.592592592593,285 Z" style="fill:blue;stroke:black;stroke-width:0.5;" />
	<path d="M 472.592592592593,285 L 472.592592592593,285 L 475.555555555556,285 L 475.555555555556,285 Z" style="fill:blue;stroke:black;stroke-width:0.5;" />
	<path d="M 475.555555555556,285 L 475.555555555556,285 L 478.518518518518,285 L 478.518518518518,285 Z" style="fill:blue;stroke:black;stroke-width:0.5;" />
	<path d="M 478.518518518518,285 L 478.518518518518,285 L 481.481481481481,285 L 481.481481481481,285 Z" style="fill:blue;stroke:black;stroke-width:0.5;" />
	<path d="M 481.481481481481,285 L 481.481481481481,285 L 484.444444444444,285 L 484.444444444444,285 Z" style="fill:blue;stroke:black;stroke-width:0.5;" />
	<text font-size="10" x="481.481481481481" y="297">150</text>
	<line stroke="black" stroke-width="2" x1="482.962962962963" x2="482.962962962963" y1="285" y2="283" />
	<line stroke="black" stroke-width="2" x1="482.962962962963" x2="482.962962962963" y1="285" y2="284" />
	<path d="M 484.444444444444,285 L 484.444444444444,285 L 487.407407407407,285 L 487.407407407407,285 Z" style="fill:blue;stroke:black;stroke-width:0.5;" />
	<path d="M 487.407407407407,285 L 487.407407407407,285 L 490.37037037037,285 L 490.37037037037,285 Z" style="fill:blue;stroke:black;stroke-width:0.5;" />
	<path d="M 490.37037037037,285 L 490.37037037037,285 L 493.333333333333,285 L 493.333333333333,285 Z" style="fill:blue;stroke:black;stroke-width:0.5;" />
	<path d="M 493.333333333333,285 L 493.333333333333,285 L 496.296296296296,285 L 496.296296296296,285 Z" style="fill:blue;stroke:black;stroke-width:0.5;" />
	<path d="M 496.296296296296,285 L 496.296296296296,285 L 499.259259259259,285 L 499.259259259259,285 Z" style="fill:blue;stroke:black;stroke-width:0.5;" />
	<line stroke="black" stroke-width="2" x1="497.777777777778" x2="497.777777777778" y1="285" y2="284" />
	<path d="M 499.259259259259,285 L 499.259259259259,285 L 502.222222222222,285 L 502.222222222222,285 Z" style="fill:blue;stroke:black;stroke-width:0.5;" />
	<path d="M 502.222222222222,285 L 502.222222222222,285 L 505.185185185185,285 L 505.185185185185,285 Z" style="fill:blue;stroke:black;stroke-width:0.5;" />
	<path d="M 505.185185185185,285 L 505.185185185185,285 L 508.148148148148,285 L 508.148148148148,285 Z" style="fill:blue;stroke:black;stroke-width:0.5;" />
	<path d="M 508.148148148148,285 L 508.148148148148,285 L 511.111111111111,285 L 511.111111111111,285 Z" style="fill:blue;stroke:black;stroke-width:0.5;" />
	<path d="M 511.111111111111,285 L 511.111111111111,285 L 514.074074074074,285 L 514.074074074074,285 Z" style="fill:blue;stroke:black;stroke-width:0.5;" />
	<text font-size="10" x="511.111111111111" y="297">160</text>
	<line stroke="black" stroke-width="2" x1="512.592592592593" x2="512.592592592593" y1="285" y2="283" />
	<line stroke="black" stroke-width="2" x1="512.592592592593" x2="512.592592592593" y1="285" y2="284" />
	<path d="M 514.074074074074,285 L 514.074074074074,285 L 517.037037037037,285 L 517.037037037037,285 Z" style="fill:blue;stroke:black;stroke-width:0.5;" />
	<path d="M 517.037037037037,285 L 517.037037037037,285 L 520,285 L 520,285 Z" style="fill:blue;stroke:black;stroke-width:0.5;" />
	<path d="M 520,285 L 520,285 L 522.962962962963,285 L 522.962962962963,285 Z" style="fill:blue;stroke:black;stroke-width:0.5;" />
	<path d="M 522.962962962963,285 L 522.962962962963,285 L 525.925925925926,285 L 525.925925925926,285 Z" style="fill:blue;stroke:black;stroke-width:0.5;" />
	<path d="M 525.925925925926,285 L 525.925925925926,285 L 528.888888888889,285 L 528.888888888889,285 Z" style="fill:blue;stroke:black;stroke-width:0.5;" />
	<line stroke="black" stroke-width="2" x1="527.407407407407" x2="527.407407407407" y1="285" y2="284" />
	<path d="M 528.888888888889,285 L 528.888888888889,285 L 531.851851851852,285 L 531.851851851852,285 Z" style="fill:blue;stroke:black;stroke-width:0.5;" />
	<path d="M 531.851851851852,285 L 531.851851851852,285 L 534.814814814815,285 L 534.814814814815,285 Z" style="fill:blue;stroke:black;stroke-width:0.5;" />
	<path d="M 534.814814814815,285 L 534.814814814815,285 L 537.777777777778,285 L 537.777777777778,285 Z" style="fill:blue;stroke:black;stroke-width:0.5;" />
	<path d="M 537.777777777778,285 L 537.777777777778,285 L 540.740740740741,285 L 540.740740740741,285 Z" style="fill:blue;stroke:black;stroke-width:0.5;" />
	<path d="M 540.740740740741,285 L 540.740740740741,285 L 543.703703703704,285 L 543.703703703704,285 Z" style="fill:blue;stroke:black;stroke-width:0.5;" />
	<text font-size="10" x="540.740740740741" y="297">170</text>
	<line stroke="black" stroke-width="2" x1="542.222222222222" x2="542.222222222222" y1="285" y2="283" />
	<line stroke="black" stroke-width="2" x1="542.222222222222" x2="542.222222222222" y1="285" y2="284" />
	<path d="M 543.703703703704,285 L 543.703703703704,285 L 546.666666666667,285 L 546.666666666667,285 Z" style="fill:blue;stroke:black;stroke-width:0.5;" />
	<path d="M 546.666666666667,285 L 546.666666666667,285 L 549.62962962963,285 L 549.62962962963,285 Z" style="fill:blue;stroke:black;stroke-width:0.5;" />
	<path d="M 549.62962962963,285 L 549.62962962963,285 L 552.592592592593,285 L 552.592592592593,285 Z" style="fill:blue;stroke:black;stroke-width:0.5;" />
	<path d="M 552.592592592593,285 L 552.592592592593,285 L 555.555555555556,285 L 555.555555555556,285 Z" style="fill:blue;stroke:black;stroke-width:0.5;" />
	<path d="M 555.555555555556,285 L 555.555555555556,285 L 558.518518518518,285 L 558.518518518518,285 Z" style="fill:blue;stroke:black;stroke-width:0.5;" />
	<line stroke="black" stroke-width="2" x1="557.037037037037" x2="557.037037037037" y1="285" y2="284" />
	<path d="M 558.518518518518,285 L 558.518518518518,285 L 561.481481481481,285 L 561.481481481481,285 Z" style="fill:blue;stroke:black;stroke-width:0.5;" />
	<path d="M 561.481481481481,285 L 561.481481481481,285 L 564.444444444444,285 L 564.444444444444,285 Z" style="fill:blue;stroke:black;stroke-width:0.5;" />
	<path d="M 564.444444444444,285 L 564.444444444444,285 L 567.407407407407,285 L 567.407407407407,285 Z" style="fill:blue;stroke:black;stroke-width:0.5;" />
	<path d="M 567.407407407407,285 L 567.407407407407,285 L 570.37037037037,285 L 570.37037037037,285 Z" style="fill:blue;stroke:black;stroke-width:0.5;" />
	<path d="M 570.37037037037,285 L 570.37037037037,285 L 573.333333333333,285 L 573.333333333333,285 Z" style="fill:blue;stroke:black;stroke-width:0.5;" />
	<text font-size="10" x="570.37037037037" y="297">180</text>
	<line stroke="black" stroke-width="2" x1="571.851851851852" x2="571.851851851852" y1="285" y2="283" />
	<line stroke="black" stroke-width="2" x1="571.851851851852" x2="571.851851851852" y1="285" y2="284" />
	<path d="M 573.333333333333,285 L 573.333333333333,285 L 576.296296296296,285 L 576.296296296296,285 Z" style="fill:blue;stroke:black;stroke-width:0.5;" />
	<path d="M 576.296296296296,285 L 576.296296296296,285 L 579.259259259259,285 L 579.259259259259,285 Z" style="fill:blue;stroke:black;stroke-width:0.5;" />
	<path d="M 579.259259259259,285 L 579.259259259259,285 L 582.222222222222,285 L 582.222222222222,285 Z" style="fill:blue;stroke:black;stroke-width:0.5;" />
	<path d="M 582.222222222222,285 L 582.222222222222,285 L 585.185185185185,285 L 585.185185185185,285 Z" style="fill:blue;stroke:black;stroke-width:0.5;" />
	<path d="M 585.185185185185,285 L 585.185185185185,285 L 588.148148148148,285 L 588.148148148148,285 Z" style="fill:blue;stroke:black;stroke-width:0.5;" />
	<line stroke="black" stroke-width="2" x1="586.666666666667" x2="586.666666666667" y1="285" y2="284" />
	<path d="M 588.148148148148,285 L 588.148148148148,285 L 591.111111111111,285 L 591.111111111111,285 Z" style="fill:blue;stroke:black;stroke-width:0.5;" />
	<path d="M 591.111111111111,285 L 591.111111111111,285 L 594.074074074074,285 L 594.074074074074,285 Z" style="fill:blue;stroke:black;stroke-width:0.5;" />
	<path d="M 594.074074074074,285 L 594.074074074074,285 L 597.037037037037,285 L 597.037037037037,285 Z" style="fill:blue;stroke:black;stroke-width:0.5;" />
	<path d="M 597.037037037037,285 L 597.037037037037,285 L 600,285 L 600,285 Z" style="fill:blue;stroke:black;stroke-width:0.5;" />
	<path d="M 600,285 L 600,285 L 602.962962962963,285 L 602.962962962963,285 Z" style="fill:blue;stroke:black;stroke-width:0.5;" />
	<text font-size="10" x="600" y="297">190</text>
	<line stroke="black" stroke-width="2" x1="601.481481481482" x2="601.481481481482" y1="285" y2="283" />
	<line stroke="black" stroke-width="2" x1="601.481481481482" x2="601.481481481482" y1="285" y2="284" />
	<path d="M 602.962962962963,285 L 602.962962962963,285 L 605.925925925926,285 L 605.925925925926,285 Z" style="fill:blue;stroke:black;stroke-width:0.5;" />
	<path d="M 605.925925925926,285 L 605.925925925926,285 L 608.888888888889,285 L 608.888888888889,285 Z" style="fill:blue;stroke:black;stroke-width:0.5;" />
	<path d="M 608.888888888889,285 L 608.888888888889,285 L 611.851851851852,285 L 611.851851851852,285 Z" style="fill:blue;stroke:black;stroke-width:0.5;" />
	<path d="M 611.851851851852,285 L 611.851851851852,285 L 614.814814814815,285 L 614.814814814815,285 Z" style="fill:blue;stroke:black;stroke-width:0.5;" />
	<path d="M 614.814814814815,285 L 614.814814814815,285 L 617.777777777778,285 L 617.777777777778,285 Z" style="fill:blue;stroke:black;stroke-width:0.5;" />
	<line stroke="black" stroke-width="2" x1="616.296296296296" x2="616.296296296296" y1="285" y2="284" />
	<path d="M 617.777777777778,285 L 617.777777777778,285 L 620.740740740741,285 L 620.740740740741,285 Z" style="fill:blue;stroke:black;stroke-width:0.5;" />
	<path d="M 620.740740740741,285 L 620.740740740741,285 L 623.703703703704,285 L 623.703703703704,285 Z" style="fill:blue;stroke:black;stroke-width:0.5;" />
	<path d="M 623.703703703704,285 L 623.703703703704,285 L 626.666666666667,285 L 626.666666666667,285 Z" style="fill:blue;stroke:black;stroke-width:0.5;" />
	<path d="M 626.666666666667,285 L 626.666666666667,285 L 629.62962962963,285 L 629.62962962963,285 Z" style="fill:blue;stroke:black;stroke-width:0.5;" />
	<path d="M 629.62962962963,285 L 629.62962962963,285 L 632.592592592593,285 L 632.592592592593,285 Z" style="fill:blue;stroke:black;stroke-width:0.5;" />
	<text font-size="10" x="629.62962962963" y="297">200</text>
	<line stroke="black" stroke-width="2" x1="631.111111111111" x2="631.111111111111" y1="285" y2="283" />
	<line stroke="black" stroke-width="2" x1="631.111111111111" x2="631.111111111111" y1="285" y2="284" />
	<path d="M 632.592592592593,285 L 632.592592592593,285 L 635.555555555556,285 L 635.555555555556,285 Z" style="fill:blue;stroke:black;stroke-width:0.5;" />
	<path d="M 635.555555555556,285 L 635.555555555556,285 L 638.518518518518,285 L 638.518518518518,285 Z" style="fill:blue;stroke:black;stroke-width:0.5;" />
	<path d="M 638.518518518518,285 L 638.518518518518,285 L 641.481481481481,285 L 641.481481481481,285 Z" style="fill:blue;stroke:black;stroke-width:0.5;" />
	<path d="M 641.481481481481,285 L 641.481481481481,285 L 644.444444444444,285 L 644.444444444444,285 Z" style="fill:blue;stroke:black;stroke-width:0.5;" />
	<path d="M 644.444444444444,285 L 644.444444444444,285 L 647.407407407407,285 L 647.407407407407,285 Z" style="fill:blue;stroke:black;stroke-width:0.5;" />
	<line stroke="black" stroke-width="2" x1="645.925925925926" x2="645.925925925926" y1="285" y2="284" />
	<path d="M 647.407407407407,285 L 647.407407407407,285 L 650.37037037037,285 L 650.37037037037,285 Z" style="fill:blue;stroke:black;stroke-width:0.5;" />
	<path d="M 650.37037037037,285 L 650.37037037037,285 L 653.333333333333,285 L 653.333333333333,285 Z" style="fill:blue;stroke:black;stroke-width:0.5;" />
	<path d="M 653.333333333333,285 L 653.333333333333,285 L 656.296296296296,285 L 656.296296296296,285 Z" style="fill:blue;stroke:black;stroke-width:0.5;" />
	<path d="M 656.296296296296,285 L 656.296296296296,285 L 659.259259259259,285 L 659.259259259259,285 Z" style="fill:blue;stroke:black;stroke-width:0.5;" />
	<path d="M 659.259259259259,285 L 659.259259259259,285 L 662.222222222222,285 L 662.222222222222,285 Z" style="fill:blue;stroke:black;stroke-width:0.5;" />
	<text font-size="10" x="659.259259259259" y="297">210</text>
	<line stroke="black" stroke-width="2" x1="660.740740740741" x2="660.740740740741" y1="285" y2="283" />
	<line stroke="black" stroke-width="2" x1="660.740740740741" x2="660.740740740741" y1="285" y2="284" />
	<path d="M 662.222222222222,285 L 662.222222222222,285 L 665.185185185185,285 L 665.185185185185,285 Z" style="fill:blue;stroke:black;stroke-width:0.5;" />
	<path d="M 665.185185185185,285 L 665.185185185185,285 L 668.148148148148,285 L 668.148148148148,285 Z" style="fill:blue;stroke:black;stroke-width:0.5;" />
	<path d="M 668.148148148148,285 L 668.148148148148,285 L 671.111111111111,285 L 671.111111111111,285 Z" style="fill:blue;stroke:black;stroke-width:0.5;" />
	<path d="M 671.111111111111,285 L 671.111111111111,285 L 674.074074074074,285 L 674.074074074074,285 Z" style="fill:blue;stroke:black;stroke-width:0.5;" />
	<path d="M 674.074074074074,285 L 674.074074074074,285 L 677.037037037037,285 L 677.037037037037,285 Z" style="fill:blue;stroke:black;stroke-width:0.5;" />
	<line stroke="black" stroke-width="2" x1="675.555555555555" x2="675.555555555555" y1="285" y2="284" />
	<path d="M 677.037037037037,285 L 677.037037037037,285 L 680,285 L 680,285 Z" style="fill:blue;stroke:black;stroke-width:0.5;" />
	<path d="M 680,285 L 680,285 L 682.962962962963,285 L 682.962962962963,285 Z" style="fill:blue;stroke:black;stroke-width:0.5;" />
	<path d="M 682.962962962963,285 L 682.962962962963,285 L 685.925925925926,285 L 685.925925925926,285 Z" style="fill:blue;stroke:black;stroke-width:0.5;" />
	<path d="M 685.925925925926,285 L 685.925925925926,285 L 688.888888888889,285 L 688.888888888889,285 Z" style="fill:blue;stroke:black;stroke-width:0.5;" />
	<path d="M 688.888888888889,285 L 688.888888888889,285 L 691.851851851852,285 L 691.851851851852,285 Z" style="fill:blue;stroke:black;stroke-width:0.5;" />
	<text font-size="10" x="688.888888888889" y="297">220</text>
	<line stroke="black" stroke-width="2" x1="690.37037037037" x2="690.37037037037" y1="285" y2="283" />
	<line stroke="black" stroke-width="2" x1="690.37037037037" x2="690.37037037037" y1="285" y2="284" />
	<path d="M 691.851851851852,285 L 691.851851851852,285 L 694.814814814815,285 L 694.814814814815,285 Z" style="fill:blue;stroke:black;stroke-width:0.5;" />
	<path d="M 694.814814814815,285 L 694.814814814815,285 L 697.777777777778,285 L 697.777777777778,285 Z" style="fill:blue;stroke:black;stroke-width:0.5;" />
	<path d="M 697.777777777778,285 L 697.777777777778,285 L 700.740740740741,285 L 700.740740740741,285 Z" style="fill:blue;stroke:black;stroke-width:0.5;" />
	<path d="M 700.740740740741,285 L 700.740740740741,285 L 703.703703703704,285 L 703.703703703704,285 Z" style="fill:blue;stroke:black;stroke-width:0.5;" />
	<path d="M 703.703703703704,285 L 703.703703703704,285 L 706.666666666667,285 L 706.666666666667,285 Z" style="fill:blue;stroke:black;stroke-width:0.5;" />
	<line stroke="black" stroke-width="2" x1="705.185185185185" x2="705.185185185185" y1="285" y2="284" />
	<path d="M 706.666666666667,285 L 706.666666666667,285 L 709.62962962963,285 L 709.62962962963,285 Z" style="fill:blue;stroke:black;stroke-width:0.5;" />
	<path d="M 709.62962962963,285 L 709.62962962963,285 L 712.592592592593,285 L 712.592592592593,285 Z" style="fill:blue;stroke:black;stroke-width:0.5;" />
	<path d="M 712.592592592593,285 L 712.592592592593,285 L 715.555555555556,285 L 715.555555555556,285 Z" style="fill:blue;stroke:black;stroke-width:0.5;" />
	<path d="M 715.555555555556,285 L 715.555555555556,285 L 718.518518518518,285 L 718.518518518518,285 Z" style="fill:blue;stroke:black;stroke-width:0.5;" />
	<path d="M 718.518518518518,285 L 718.518518518518,285 L 721.481481481481,285 L 721.481481481481,285 Z" style="fill:blue;stroke:black;stroke-width:0.5;" />
	<text font-size="10" x="718.518518518518" y="297">230</text>
	<line stroke="black" stroke-width="2" x1="720" x2="720" y1="285" y2="283" />
	<line stroke="black" stroke-width="2" x1="720" x2="720" y1="285" y2="284" />
	<path d="M 721.481481481481,285 L 721.481481481481,285 L 724.444444444444,285 L 724.444444444444,285 Z" style="fill:blue;stroke:black;stroke-width:0.5;" />
	<path d="M 724.444444444444,285 L 724.444444444444,285 L 727.407407407407,285 L 727.407407407407,285 Z" style="fill:blue;stroke:black;stroke-width:0.5;" />
	<path d="M 727.407407407407,285 L 727.407407407407,285 L 730.37037037037,285 L 730.37037037037,285 Z" style="fill:blue;stroke:black;stroke-width:0.5;" />
	<path d="M 730.37037037037,285 L 730.37037037037,285 L 733.333333333333,285 L 733.333333333333,285 Z" style="fill:blue;stroke:black;stroke-width:0.5;" />
	<path d="M 733.333333333333,285 L 733.333333333333,285 L 736.296296296296,285 L 736.296296296296,285 Z" style="fill:blue;stroke:black;stroke-width:0.5;" />
	<line stroke="black" stroke-width="2" x1="734.814814814815" x2="734.814814814815" y1="285" y2="284" />
	<path d="M 736.296296296296,285 L 736.296296296296,285 L 739.259259259259,285 L 739.259259259259,285 Z" style="fill:blue;stroke:black;stroke-width:0.5;" />
	<path d="M 739.259259259259,285 L 739.259259259259,285 L 742.222222222222,285 L 742.222222222222,285 Z" style="fill:blue;stroke:black;stroke-width:0.5;" />
	<path d="M 742.222222222222,285 L 742.222222222222,285 L 745.185185185185,285 L 745.185185185185,285 Z" style="fill:blue;stroke:black;stroke-width:0.5;" />
	<path d="M 745.185185185185,285 L 745.185185185185,285 L 748.148148148148,285 L 748.148148148148,285 Z" style="fill:blue;stroke:black;stroke-width:0.5;" />
	<path d="M 748.148148148148,285 L 748.148148148148,285 L 751.111111111111,285 L 751.111111111111,285 Z" style="fill:blue;stroke:black;stroke-width:0.5;" />
	<text font-size="10" x="748.148148148148" y="297">240</text>
	<line stroke="black" stroke-width="2" x1="749.62962962963" x2="749.62962962963" y1="285" y2="283" />
	<line stroke="black" stroke-width="2" x1="749.62962962963" x2="749.62962962963" y1="285" y2="284" />
	<path d="M 751.111111111111,285 L 751.111111111111,285 L 754.074074074074,285 L 754.074074074074,285 Z" style="fill:blue;stroke:black;stroke-width:0.5;" />
	<path d="M 754.074074074074,285 L 754.074074074074,285 L 757.037037037037,285 L 757.037037037037,285 Z" style="fill:blue;stroke:black;stroke-width:0.5;" />
	<path d="M 757.037037037037,285 L 757.037037037037,285 L 760,285 L 760,285 Z" style="fill:blue;stroke:black;stroke-width:0.5;" />
	<!-- 
	Generated using the Perl SVG Module V2.50
	by Ronan Oger
	Info: http://www.roitsystems.com/
 -->
</svg>