<?xml version="1.0" encoding="UTF-8" standalone="yes"?>
<!DOCTYPE svg PUBLIC "-//W3C//DTD SVG 1.0//EN" "http://www.w3.org/TR/2001/REC-SVG-20010904/DTD/svg10.dtd">
<svg height="300" width="800" xmlns="http://www.w3.org/2000/svg" xmlns:svg="http://www.w3.org/2000/svg" xmlns:xlink="http://www.w3.org/1999/xlink">
	<line stroke="black" stroke-width="2" x1="40" x2="40" y1="15" y2="285" />
	<line stroke="black" stroke-width="2" x1="40" x2="45.0704225352113" y1="231" y2="231" />
	<text font-size="12" x="47.6056338028169" y="231">1000</text>
	<line stroke="black" stroke-width="2" x1="40" x2="45.0704225352113" y1="177" y2="177" />
	<text font-size="12" x="47.6056338028169" y="177">2000</text>
	<line stroke="black" stroke-width="2" x1="40" x2="45.0704225352113" y1="123" y2="123" />
	<text font-size="12" x="47.6056338028169" y="123">3000</text>
	<line stroke="black" stroke-width="2" x1="40" x2="45.0704225352113" y1="69" y2="69" />
	<text font-size="12" x="47.6056338028169" y="69">4000</text>
	<line stroke="black" stroke-width="2" x1="40" x2="45.0704225352113" y1="15" y2="15" />
	<text font-size="12" x="47.6056338028169" y="15">5000</text>
	<line stroke="black" stroke-width="2" x1="40" x2="800" y1="285" y2="285" />
	<path d="M 40,285 L 40,285 L 45.0704225352113,285 L 45.0704225352113,285 Z" style="fill:blue;stroke:black;stroke-width:0.5;" />
	<path d="M 45.0704225352113,285 L 45.0704225352113,285 L 50.1408450704225,285 L 50.1408450704225,285 Z" style="fill:blue;stroke:black;stroke-width:0.5;" />
	<path d="M 50.1408450704225,285 L 50.1408450704225,285 L 55.2112676056338,285 L 55.2112676056338,285 Z" style="fill:blue;stroke:black;stroke-width:0.5;" />
	<path d="M 55.2112676056338,285 L 55.2112676056338,285 L 60.2816901408451,285 L 60.2816901408451,285 Z" style="fill:blue;stroke:black;stroke-width:0.5;" />
	<path d="M 60.2816901408451,285 L 60.2816901408451,285 L 65.3521126760563,285 L 65.3521126760563,285 Z" style="fill:blue;stroke:black;stroke-width:0.5;" />
	<line stroke="black" stroke-width="2" x1="62.8169014084507" x2="62.8169014084507" y1="285" y2="284" />
	<path d="M 65.3521126760563,285 L 65.3521126760563,285 L 70.4225352112676,285 L 70.4225352112676,285 Z" style="fill:blue;stroke:black;stroke-width:0.5;" />
	<path d="M 70.4225352112676,285 L 70.4225352112676,285 L 75.4929577464789,285 L 75.4929577464789,285 Z" style="fill:blue;stroke:black;stroke-width:0.5;" />
	<path d="M 75.4929577464789,285 L 75.4929577464789,285 L 80.5633802816901,285 L 80.5633802816901,285 Z" style="fill:blue;stroke:black;stroke-width:0.5;" />
	<path d="M 80.5633802816901,285 L 80.5633802816901,285 L 85.6338028169014,285 L 85.6338028169014,285 Z" style="fill:blue;stroke:black;stroke-width:0.5;" />
	<path d="M 85.6338028169014,285 L 85.6338028169014,285 L 90.7042253521127,285 L 90.7042253521127,285 Z" style="fill:blue;stroke:black;stroke-width:0.5;" />
	<text font-size="10" x="85.6338028169014" y="297">10</text>
	<line stroke="black" stroke-width="2" x1="88.169014084507" x2="88.169014084507" y1="285" y2="283" />
	<line stroke="black" stroke-width="2" x1="88.169014084507" x2="88.169014084507" y1="285" y2="284" />
	<path d="M 90.7042253521127,285 L 90.7042253521127,285 L 95.774647887324,285 L 95.774647887324,285 Z" style="fill:blue;stroke:black;stroke-width:0.5;" />
	<path d="M 95.774647887324,285 L 95.774647887324,285 L 100.845070422535,285 L 100.845070422535,285 Z" style="fill:blue;stroke:black;stroke-width:0.5;" />
	<path d="M 100.845070422535,285 L 100.845070422535,285 L 105.915492957746,285 L 105.915492957746,285 Z" style="fill:blue;stroke:black;stroke-width:0.5;" />
	<path d="M 105.915492957746,285 L 105.915492957746,285 L 110.985915492958,285 L 110.985915492958,285 Z" style="fill:blue;stroke:black;stroke-width:0.5;" />
	<path d="M 110.985915492958,285 L 110.985915492958,285 L 116.056338028169,285 L 116.056338028169,285 Z" style="fill:blue;stroke:black;stroke-width:0.5;" />
	<line stroke="black" stroke-width="2" x1="113.521126760563" x2="113.521126760563" y1="285" y2="284" />
	<path d="M 116.056338028169,285 L 116.056338028169,285 L 121.12676056338,285 L 121.12676056338,285 Z" style="fill:blue;stroke:black;stroke-width:0.5;" />
	<path d="M 121.12676056338,285 L 121.12676056338,285 L 126.197183098592,285 L 126.197183098592,285 Z" style="fill:blue;stroke:black;stroke-width:0.5;" />
	<path d="M 126.197183098592,285 L 126.197183098592,285 L 131.267605633803,285 L 131.267605633803,285 Z" style="fill:blue;stroke:black;stroke-width:0.5;" />
	<path d="M 131.267605633803,285 L 131.267605633803,285 L 136.338028169014,285 L 136.338028169014,285 Z" style="fill:blue;stroke:black;stroke-width:0.5;" />
	<path d="M 136.338028169014,285 L 136.338028169014,285 L 141.408450704225,285 L 141.408450704225,285 Z" style="fill:blue;stroke:black;stroke-width:0.5;" />
	<text font-size="10" x="136.338028169014" y="297">20</text>
	<line stroke="black" stroke-width="2" x1="138.87323943662" x2="138.87323943662" y1="285" y2="283" />
	<line stroke="black" stroke-width="2" x1="138.87323943662" x2="138.87323943662" y1="285" y2="284" />
	<path d="M 141.408450704225,285 L 141.408450704225,285 L 146.478873239437,285 L 146.478873239437,285 Z" style="fill:blue;stroke:black;stroke-width:0.5;" />
	<path d="M 146.478873239437,285 L 146.478873239437,285 L 151.549295774648,285 L 151.549295774648,285 Z" style="fill:blue;stroke:black;stroke-width:0.5;" />
	<path d="M 151.549295774648,285 L 151.549295774648,284.79804 L 156.619718309859,284.79804 L 156.619718309859,285 Z" style="fill:blue;stroke:black;stroke-width:0.5;" />
	<path d="M 156.619718309859,285 L 156.619718309859,284.79804 L 161.69014084507,284.79804 L 161.69014084507,285 Z" style="fill:blue;stroke:black;stroke-width:0.5;" />
	<path d="M 161.69014084507,285 L 161.69014084507,282.95934 L 166.760563380282,282.95934 L 166.760563380282,285 Z" style="fill:blue;stroke:black;stroke-width:0.5;" />
	<line stroke="black" stroke-width="2" x1="164.225352112676" x2="164.225352112676" y1="285" y2="284" />
	<path d="M 166.760563380282,285 L 166.760563380282,32.08614 L 171.830985915493,32.08614 L 171.830985915493,285 Z" style="fill:gold;stroke:black;stroke-width:0.5;" />
	<path d="M 171.830985915493,285 L 171.830985915493,27.98808 L 176.901408450704,27.98808 L 176.901408450704,285 Z" style="fill:gold;stroke:black;stroke-width:0.5;" />
	<path d="M 176.901408450704,285 L 176.901408450704,27.8654999999999 L 181.971830985916,27.8654999999999 L 181.971830985916,285 Z" style="fill:gold;stroke:black;stroke-width:0.5;" />
	<path d="M 181.971830985916,285 L 181.971830985916,27.6813599999999 L 187.042253521127,27.6813599999999 L 187.042253521127,285 Z" style="fill:gold;stroke:black;stroke-width:0.5;" />
	<path d="M 187.042253521127,285 L 187.042253521127,27.6727199999999 L 192.112676056338,27.6727199999999 L 192.112676056338,285 Z" style="fill:gold;stroke:black;stroke-width:0.5;" />
	<text font-size="10" x="187.042253521127" y="297">30</text>
	<line stroke="black" stroke-width="2" x1="189.577464788732" x2="189.577464788732" y1="285" y2="283" />
	<line stroke="black" stroke-width="2" x1="189.577464788732" x2="189.577464788732" y1="285" y2="284" />
	<path d="M 192.112676056338,285 L 192.112676056338,27.63762 L 197.183098591549,27.63762 L 197.183098591549,285 Z" style="fill:gold;stroke:black;stroke-width:0.5;" />
	<path d="M 197.183098591549,285 L 197.183098591549,27.6203399999999 L 202.253521126761,27.6203399999999 L 202.253521126761,285 Z" style="fill:gold;stroke:black;stroke-width:0.5;" />
	<path d="M 202.253521126761,285 L 202.253521126761,27.6203399999999 L 207.323943661972,27.6203399999999 L 207.323943661972,285 Z" style="fill:gold;stroke:black;stroke-width:0.5;" />
	<path d="M 207.323943661972,285 L 207.323943661972,27.6203399999999 L 212.394366197183,27.6203399999999 L 212.394366197183,285 Z" style="fill:gold;stroke:black;stroke-width:0.5;" />
	<path d="M 212.394366197183,285 L 212.394366197183,27.6203399999999 L 217.464788732394,27.6203399999999 L 217.464788732394,285 Z" style="fill:gold;stroke:black;stroke-width:0.5;" />
	<line stroke="black" stroke-width="2" x1="214.929577464789" x2="214.929577464789" y1="285" y2="284" />
	<path d="M 217.464788732394,285 L 217.464788732394,27.6203399999999 L 222.535211267606,27.6203399999999 L 222.535211267606,285 Z" style="fill:gold;stroke:black;stroke-width:0.5;" />
	<path d="M 222.535211267606,285 L 222.535211267606,27.6203399999999 L 227.605633802817,27.6203399999999 L 227.605633802817,285 Z" style="fill:gold;stroke:black;stroke-width:0.5;" />
	<path d="M 227.605633802817,285 L 227.605633802817,27.6203399999999 L 232.676056338028,27.6203399999999 L 232.676056338028,285 Z" style="fill:gold;stroke:black;stroke-width:0.5;" />
	<path d="M 232.676056338028,285 L 232.676056338028,27.6203399999999 L 237.746478873239,27.6203399999999 L 237.746478873239,285 Z" style="fill:gold;stroke:black;stroke-width:0.5;" />
	<path d="M 237.746478873239,285 L 237.746478873239,27.6203399999999 L 242.816901408451,27.6203399999999 L 242.816901408451,285 Z" style="fill:gold;stroke:black;stroke-width:0.5;" />
	<text font-size="10" x="237.746478873239" y="297">40</text>
	<line stroke="black" stroke-width="2" x1="240.281690140845" x2="240.281690140845" y1="285" y2="283" />
	<line stroke="black" stroke-width="2" x1="240.281690140845" x2="240.281690140845" y1="285" y2="284" />
	<path d="M 242.816901408451,285 L 242.816901408451,27.6203399999999 L 247.887323943662,27.6203399999999 L 247.887323943662,285 Z" style="fill:gold;stroke:black;stroke-width:0.5;" />
	<path d="M 247.887323943662,285 L 247.887323943662,27.62898 L 252.957746478873,27.62898 L 252.957746478873,285 Z" style="fill:gold;stroke:black;stroke-width:0.5;" />
	<path d="M 252.957746478873,285 L 252.957746478873,27.66354 L 258.028169014084,27.66354 L 258.028169014084,285 Z" style="fill:gold;stroke:black;stroke-width:0.5;" />
	<path d="M 258.028169014084,285 L 258.028169014084,27.85632 L 263.098591549296,27.85632 L 263.098591549296,285 Z" style="fill:gold;stroke:black;stroke-width:0.5;" />
	<path d="M 263.098591549296,285 L 263.098591549296,28.10148 L 268.169014084507,28.10148 L 268.169014084507,285 Z" style="fill:gold;stroke:black;stroke-width:0.5;" />
	<line stroke="black" stroke-width="2" x1="265.633802816901" x2="265.633802816901" y1="285" y2="284" />
	<path d="M 268.169014084507,285 L 268.169014084507,43.4029199999999 L 273.239436619718,43.4029199999999 L 273.239436619718,285 Z" style="fill:gold;stroke:black;stroke-width:0.5;" />
	<path d="M 273.239436619718,285 L 273.239436619718,284.24832 L 278.30985915493,284.24832 L 278.30985915493,285 Z" style="fill:blue;stroke:black;stroke-width:0.5;" />
	<path d="M 278.30985915493,285 L 278.30985915493,284.9568 L 283.380281690141,284.9568 L 283.380281690141,285 Z" style="fill:blue;stroke:black;stroke-width:0.5;" />
	<path d="M 283.380281690141,285 L 283.380281690141,284.9568 L 288.450704225352,284.9568 L 288.450704225352,285 Z" style="fill:blue;stroke:black;stroke-width:0.5;" />
	<path d="M 288.450704225352,285 L 288.450704225352,284.96544 L 293.521126760563,284.96544 L 293.521126760563,285 Z" style="fill:blue;stroke:black;stroke-width:0.5;" />
	<text font-size="10" x="288.450704225352" y="297">50</text>
	<line stroke="black" stroke-width="2" x1="290.985915492958" x2="290.985915492958" y1="285" y2="283" />
	<line stroke="black" stroke-width="2" x1="290.985915492958" x2="290.985915492958" y1="285" y2="284" />
	<path d="M 293.521126760563,285 L 293.521126760563,284.97408 L 298.591549295775,284.97408 L 298.591549295775,285 Z" style="fill:blue;stroke:black;stroke-width:0.5;" />
	<path d="M 298.591549295775,285 L 298.591549295775,284.97408 L 303.661971830986,284.97408 L 303.661971830986,285 Z" style="fill:blue;stroke:black;stroke-width:0.5;" />
	<path d="M 303.661971830986,285 L 303.661971830986,284.98272 L 308.732394366197,284.98272 L 308.732394366197,285 Z" style="fill:blue;stroke:black;stroke-width:0.5;" />
	<path d="M 308.732394366197,285 L 308.732394366197,284.98272 L 313.802816901408,284.98272 L 313.802816901408,285 Z" style="fill:blue;stroke:black;stroke-width:0.5;" />
	<path d="M 313.802816901408,285 L 313.802816901408,284.98272 L 318.87323943662,284.98272 L 318.87323943662,285 Z" style="fill:blue;stroke:black;stroke-width:0.5;" />
	<line stroke="black" stroke-width="2" x1="316.338028169014" x2="316.338028169014" y1="285" y2="284" />
	<path d="M 318.87323943662,285 L 318.87323943662,284.98272 L 323.943661971831,284.98272 L 323.943661971831,285 Z" style="fill:blue;stroke:black;stroke-width:0.5;" />
	<path d="M 323.943661971831,285 L 323.943661971831,284.98272 L 329.014084507042,284.98272 L 329.014084507042,285 Z" style="fill:blue;stroke:black;stroke-width:0.5;" />
	<path d="M 329.014084507042,285 L 329.014084507042,284.98272 L 334.084507042254,284.98272 L 334.084507042254,285 Z" style="fill:blue;stroke:black;stroke-width:0.5;" />
	<path d="M 334.084507042254,285 L 334.084507042254,284.98272 L 339.154929577465,284.98272 L 339.154929577465,285 Z" style="fill:blue;stroke:black;stroke-width:0.5;" />
	<path d="M 339.154929577465,285 L 339.154929577465,284.98272 L 344.225352112676,284.98272 L 344.225352112676,285 Z" style="fill:blue;stroke:black;stroke-width:0.5;" />
	<text font-size="10" x="339.154929577465" y="297">60</text>
	<line stroke="black" stroke-width="2" x1="341.69014084507" x2="341.69014084507" y1="285" y2="283" />
	<line stroke="black" stroke-width="2" x1="341.69014084507" x2="341.69014084507" y1="285" y2="284" />
	<path d="M 344.225352112676,285 L 344.225352112676,284.98272 L 349.295774647887,284.98272 L 349.295774647887,285 Z" style="fill:blue;stroke:black;stroke-width:0.5;" />
	<path d="M 349.295774647887,285 L 349.295774647887,284.98272 L 354.366197183099,284.98272 L 354.366197183099,285 Z" style="fill:blue;stroke:black;stroke-width:0.5;" />
	<path d="M 354.366197183099,285 L 354.366197183099,284.98272 L 359.43661971831,284.98272 L 359.43661971831,285 Z" style="fill:blue;stroke:black;stroke-width:0.5;" />
	<path d="M 359.43661971831,285 L 359.43661971831,284.98272 L 364.507042253521,284.98272 L 364.507042253521,285 Z" style="fill:blue;stroke:black;stroke-width:0.5;" />
	<path d="M 364.507042253521,285 L 364.507042253521,284.98272 L 369.577464788732,284.98272 L 369.577464788732,285 Z" style="fill:blue;stroke:black;stroke-width:0.5;" />
	<line stroke="black" stroke-width="2" x1="367.042253521127" x2="367.042253521127" y1="285" y2="284" />
	<path d="M 369.577464788732,285 L 369.577464788732,284.99136 L 374.647887323944,284.99136 L 374.647887323944,285 Z" style="fill:blue;stroke:black;stroke-width:0.5;" />
	<path d="M 374.647887323944,285 L 374.647887323944,284.99136 L 379.718309859155,284.99136 L 379.718309859155,285 Z" style="fill:blue;stroke:black;stroke-width:0.5;" />
	<path d="M 379.718309859155,285 L 379.718309859155,284.98272 L 384.788732394366,284.98272 L 384.788732394366,285 Z" style="fill:blue;stroke:black;stroke-width:0.5;" />
	<path d="M 384.788732394366,285 L 384.788732394366,284.98272 L 389.859154929577,284.98272 L 389.859154929577,285 Z" style="fill:blue;stroke:black;stroke-width:0.5;" />
	<path d="M 389.859154929577,285 L 389.859154929577,284.98272 L 394.929577464789,284.98272 L 394.929577464789,285 Z" style="fill:blue;stroke:black;stroke-width:0.5;" />
	<text font-size="10" x="389.859154929577" y="297">70</text>
	<line stroke="black" stroke-width="2" x1="392.394366197183" x2="392.394366197183" y1="285" y2="283" />
	<line stroke="black" stroke-width="2" x1="392.394366197183" x2="392.394366197183" y1="285" y2="284" />
	<path d="M 394.929577464789,285 L 394.929577464789,284.96544 L 400,284.96544 L 400,285 Z" style="fill:blue;stroke:black;stroke-width:0.5;" />
	<path d="M 400,285 L 400,284.94816 L 405.070422535211,284.94816 L 405.070422535211,285 Z" style="fill:blue;stroke:black;stroke-width:0.5;" />
	<path d="M 405.070422535211,285 L 405.070422535211,284.94816 L 410.140845070423,284.94816 L 410.140845070423,285 Z" style="fill:blue;stroke:black;stroke-width:0.5;" />
	<path d="M 410.140845070423,285 L 410.140845070423,284.93952 L 415.211267605634,284.93952 L 415.211267605634,285 Z" style="fill:blue;stroke:black;stroke-width:0.5;" />
	<path d="M 415.211267605634,285 L 415.211267605634,284.93952 L 420.281690140845,284.93952 L 420.281690140845,285 Z" style="fill:blue;stroke:black;stroke-width:0.5;" />
	<line stroke="black" stroke-width="2" x1="417.746478873239" x2="417.746478873239" y1="285" y2="284" />
	<path d="M 420.281690140845,285 L 420.281690140845,284.93088 L 425.352112676056,284.93088 L 425.352112676056,285 Z" style="fill:blue;stroke:black;stroke-width:0.5;" />
	<path d="M 425.352112676056,285 L 425.352112676056,284.93088 L 430.422535211268,284.93088 L 430.422535211268,285 Z" style="fill:blue;stroke:black;stroke-width:0.5;" />
	<path d="M 430.422535211268,285 L 430.422535211268,284.93088 L 435.492957746479,284.93088 L 435.492957746479,285 Z" style="fill:blue;stroke:black;stroke-width:0.5;" />
	<path d="M 435.492957746479,285 L 435.492957746479,284.90442 L 440.56338028169,284.90442 L 440.56338028169,285 Z" style="fill:blue;stroke:black;stroke-width:0.5;" />
	<path d="M 440.56338028169,285 L 440.56338028169,284.90442 L 445.633802816901,284.90442 L 445.633802816901,285 Z" style="fill:blue;stroke:black;stroke-width:0.5;" />
	<text font-size="10" x="440.56338028169" y="297">80</text>
	<line stroke="black" stroke-width="2" x1="443.098591549296" x2="443.098591549296" y1="285" y2="283" />
	<line stroke="black" stroke-width="2" x1="443.098591549296" x2="443.098591549296" y1="285" y2="284" />
	<path d="M 445.633802816901,285 L 445.633802816901,284.90442 L 450.704225352113,284.90442 L 450.704225352113,285 Z" style="fill:blue;stroke:black;stroke-width:0.5;" />
	<path d="M 450.704225352113,285 L 450.704225352113,284.90442 L 455.774647887324,284.90442 L 455.774647887324,285 Z" style="fill:blue;stroke:black;stroke-width:0.5;" />
	<path d="M 455.774647887324,285 L 455.774647887324,284.90442 L 460.845070422535,284.90442 L 460.845070422535,285 Z" style="fill:blue;stroke:black;stroke-width:0.5;" />
	<path d="M 460.845070422535,285 L 460.845070422535,284.90442 L 465.915492957746,284.90442 L 465.915492957746,285 Z" style="fill:blue;stroke:black;stroke-width:0.5;" />
	<path d="M 465.915492957746,285 L 465.915492957746,284.90442 L 470.985915492958,284.90442 L 470.985915492958,285 Z" style="fill:blue;stroke:black;stroke-width:0.5;" />
	<line stroke="black" stroke-width="2" x1="468.450704225352" x2="468.450704225352" y1="285" y2="284" />
	<path d="M 470.985915492958,285 L 470.985915492958,284.91306 L 476.056338028169,284.91306 L 476.056338028169,285 Z" style="fill:blue;stroke:black;stroke-width:0.5;" />
	<path d="M 476.056338028169,285 L 476.056338028169,284.79912 L 481.12676056338,284.79912 L 481.12676056338,285 Z" style="fill:blue;stroke:black;stroke-width:0.5;" />
	<path d="M 481.12676056338,285 L 481.12676056338,284.22132 L 486.197183098592,284.22132 L 486.197183098592,285 Z" style="fill:gold;stroke:black;stroke-width:0.5;" />
	<path d="M 486.197183098592,285 L 486.197183098592,283.68672 L 491.267605633803,283.68672 L 491.267605633803,285 Z" style="fill:gold;stroke:black;stroke-width:0.5;" />
	<path d="M 491.267605633803,285 L 491.267605633803,283.66944 L 496.338028169014,283.66944 L 496.338028169014,285 Z" style="fill:gold;stroke:black;stroke-width:0.5;" />
	<text font-size="10" x="491.267605633803" y="297">90</text>
	<line stroke="black" stroke-width="2" x1="493.802816901409" x2="493.802816901409" y1="285" y2="283" />
	<line stroke="black" stroke-width="2" x1="493.802816901409" x2="493.802816901409" y1="285" y2="284" />
	<path d="M 496.338028169014,285 L 496.338028169014,283.63488 L 501.408450704225,283.63488 L 501.408450704225,285 Z" style="fill:gold;stroke:black;stroke-width:0.5;" />
	<path d="M 501.408450704225,285 L 501.408450704225,283.59168 L 506.478873239437,283.59168 L 506.478873239437,285 Z" style="fill:gold;stroke:black;stroke-width:0.5;" />
	<path d="M 506.478873239437,285 L 506.478873239437,283.5744 L 511.549295774648,283.5744 L 511.549295774648,285 Z" style="fill:gold;stroke:black;stroke-width:0.5;" />
	<path d="M 511.549295774648,285 L 511.549295774648,283.5744 L 516.619718309859,283.5744 L 516.619718309859,285 Z" style="fill:gold;stroke:black;stroke-width:0.5;" />
	<path d="M 516.619718309859,285 L 516.619718309859,283.55712 L 521.69014084507,283.55712 L 521.69014084507,285 Z" style="fill:gold;stroke:black;stroke-width:0.5;" />
	<line stroke="black" stroke-width="2" x1="519.154929577465" x2="519.154929577465" y1="285" y2="284" />
	<path d="M 521.69014084507,285 L 521.69014084507,283.55712 L 526.760563380282,283.55712 L 526.760563380282,285 Z" style="fill:gold;stroke:black;stroke-width:0.5;" />
	<path d="M 526.760563380282,285 L 526.760563380282,283.55712 L 531.830985915493,283.55712 L 531.830985915493,285 Z" style="fill:gold;stroke:black;stroke-width:0.5;" />
	<path d="M 531.830985915493,285 L 531.830985915493,283.54848 L 536.901408450704,283.54848 L 536.901408450704,285 Z" style="fill:gold;stroke:black;stroke-width:0.5;" />
	<path d="M 536.901408450704,285 L 536.901408450704,283.53984 L 541.971830985916,283.53984 L 541.971830985916,285 Z" style="fill:gold;stroke:black;stroke-width:0.5;" />
	<path d="M 541.971830985916,285 L 541.971830985916,283.5744 L 547.042253521127,283.5744 L 547.042253521127,285 Z" style="fill:gold;stroke:black;stroke-width:0.5;" />
	<text font-size="10" x="541.971830985916" y="297">100</text>
	<line stroke="black" stroke-width="2" x1="544.507042253521" x2="544.507042253521" y1="285" y2="283" />
	<line stroke="black" stroke-width="2" x1="544.507042253521" x2="544.507042253521" y1="285" y2="284" />
	<path d="M 547.042253521127,285 L 547.042253521127,283.58304 L 552.112676056338,283.58304 L 552.112676056338,285 Z" style="fill:gold;stroke:black;stroke-width:0.5;" />
	<path d="M 552.112676056338,285 L 552.112676056338,283.60032 L 557.183098591549,283.60032 L 557.183098591549,285 Z" style="fill:gold;stroke:black;stroke-width:0.5;" />
	<path d="M 557.183098591549,285 L 557.183098591549,283.62678 L 562.253521126761,283.62678 L 562.253521126761,285 Z" style="fill:gold;stroke:black;stroke-width:0.5;" />
	<path d="M 562.253521126761,285 L 562.253521126761,283.62678 L 567.323943661972,283.62678 L 567.323943661972,285 Z" style="fill:gold;stroke:black;stroke-width:0.5;" />
	<path d="M 567.323943661972,285 L 567.323943661972,283.62678 L 572.394366197183,283.62678 L 572.394366197183,285 Z" style="fill:gold;stroke:black;stroke-width:0.5;" />
	<line stroke="black" stroke-width="2" x1="569.859154929577" x2="569.859154929577" y1="285" y2="284" />
	<path d="M 572.394366197183,285 L 572.394366197183,283.62678 L 577.464788732394,283.62678 L 577.464788732394,285 Z" style="fill:gold;stroke:black;stroke-width:0.5;" />
	<path d="M 577.464788732394,285 L 577.464788732394,283.63542 L 582.535211267606,283.63542 L 582.535211267606,285 Z" style="fill:gold;stroke:black;stroke-width:0.5;" />
	<path d="M 582.535211267606,285 L 582.535211267606,283.8282 L 587.605633802817,283.8282 L 587.605633802817,285 Z" style="fill:gold;stroke:black;stroke-width:0.5;" />
	<path d="M 587.605633802817,285 L 587.605633802817,284.42328 L 592.676056338028,284.42328 L 592.676056338028,285 Z" style="fill:blue;stroke:black;stroke-width:0.5;" />
	<path d="M 592.676056338028,285 L 592.676056338028,284.88768 L 597.746478873239,284.88768 L 597.746478873239,285 Z" style="fill:blue;stroke:black;stroke-width:0.5;" />
	<text font-size="10" x="592.676056338028" y="297">110</text>
	<line stroke="black" stroke-width="2" x1="595.211267605634" x2="595.211267605634" y1="285" y2="283" />
	<line stroke="black" stroke-width="2" x1="595.211267605634" x2="595.211267605634" y1="285" y2="284" />
	<path d="M 597.746478873239,285 L 597.746478873239,284.90496 L 602.816901408451,284.90496 L 602.816901408451,285 Z" style="fill:blue;stroke:black;stroke-width:0.5;" />
	<path d="M 602.816901408451,285 L 602.816901408451,284.92224 L 607.887323943662,284.92224 L 607.887323943662,285 Z" style="fill:blue;stroke:black;stroke-width:0.5;" />
	<path d="M 607.887323943662,285 L 607.887323943662,284.92224 L 612.957746478873,284.92224 L 612.957746478873,285 Z" style="fill:blue;stroke:black;stroke-width:0.5;" />
	<path d="M 612.957746478873,285 L 612.957746478873,284.92224 L 618.028169014085,284.92224 L 618.028169014085,285 Z" style="fill:blue;stroke:black;stroke-width:0.5;" />
	<path d="M 618.028169014085,285 L 618.028169014085,284.93088 L 623.098591549296,284.93088 L 623.098591549296,285 Z" style="fill:blue;stroke:black;stroke-width:0.5;" />
	<line stroke="black" stroke-width="2" x1="620.56338028169" x2="620.56338028169" y1="285" y2="284" />
	<path d="M 623.098591549296,285 L 623.098591549296,284.9568 L 628.169014084507,284.9568 L 628.169014084507,285 Z" style="fill:blue;stroke:black;stroke-width:0.5;" />
	<path d="M 628.169014084507,285 L 628.169014084507,284.97408 L 633.239436619718,284.97408 L 633.239436619718,285 Z" style="fill:blue;stroke:black;stroke-width:0.5;" />
	<path d="M 633.239436619718,285 L 633.239436619718,284.99136 L 638.30985915493,284.99136 L 638.30985915493,285 Z" style="fill:blue;stroke:black;stroke-width:0.5;" />
	<path d="M 638.30985915493,285 L 638.30985915493,284.99136 L 643.380281690141,284.99136 L 643.380281690141,285 Z" style="fill:blue;stroke:black;stroke-width:0.5;" />
	<path d="M 643.380281690141,285 L 643.380281690141,284.99136 L 648.450704225352,284.99136 L 648.450704225352,285 Z" style="fill:blue;stroke:black;stroke-width:0.5;" />
	<text font-size="10" x="643.380281690141" y="297">120</text>
	<line stroke="black" stroke-width="2" x1="645.915492957747" x2="645.915492957747" y1="285" y2="283" />
	<line stroke="black" stroke-width="2" x1="645.915492957747" x2="645.915492957747" y1="285" y2="284" />
	<path d="M 648.450704225352,285 L 648.450704225352,285 L 653.521126760563,285 L 653.521126760563,285 Z" style="fill:blue;stroke:black;stroke-width:0.5;" />
	<path d="M 653.521126760563,285 L 653.521126760563,285 L 658.591549295775,285 L 658.591549295775,285 Z" style="fill:blue;stroke:black;stroke-width:0.5;" />
	<path d="M 658.591549295775,285 L 658.591549295775,285 L 663.661971830986,285 L 663.661971830986,285 Z" style="fill:blue;stroke:black;stroke-width:0.5;" />
	<path d="M 663.661971830986,285 L 663.661971830986,285 L 668.732394366197,285 L 668.732394366197,285 Z" style="fill:blue;stroke:black;stroke-width:0.5;" />
	<path d="M 668.732394366197,285 L 668.732394366197,285 L 673.802816901409,285 L 673.802816901409,285 Z" style="fill:blue;stroke:black;stroke-width:0.5;" />
	<line stroke="black" stroke-width="2" x1="671.267605633803" x2="671.267605633803" y1="285" y2="284" />
	<path d="M 673.802816901409,285 L 673.802816901409,285 L 678.87323943662,285 L 678.87323943662,285 Z" style="fill:blue;stroke:black;stroke-width:0.5;" />
	<path d="M 678.87323943662,285 L 678.87323943662,285 L 683.943661971831,285 L 683.943661971831,285 Z" style="fill:blue;stroke:black;stroke-width:0.5;" />
	<path d="M 683.943661971831,285 L 683.943661971831,285 L 689.014084507042,285 L 689.014084507042,285 Z" style="fill:blue;stroke:black;stroke-width:0.5;" />
	<path d="M 689.014084507042,285 L 689.014084507042,285 L 694.084507042254,285 L 694.084507042254,285 Z" style="fill:blue;stroke:black;stroke-width:0.5;" />
	<path d="M 694.084507042254,285 L 694.084507042254,285 L 699.154929577465,285 L 699.154929577465,285 Z" style="fill:blue;stroke:black;stroke-width:0.5;" />
	<text font-size="10" x="694.084507042254" y="297">130</text>
	<line stroke="black" stroke-width="2" x1="696.619718309859" x2="696.619718309859" y1="285" y2="283" />
	<line stroke="black" stroke-width="2" x1="696.619718309859" x2="696.619718309859" y1="285" y2="284" />
	<path d="M 699.154929577465,285 L 699.154929577465,285 L 704.225352112676,285 L 704.225352112676,285 Z" style="fill:blue;stroke:black;stroke-width:0.5;" />
	<path d="M 704.225352112676,285 L 704.225352112676,285 L 709.295774647887,285 L 709.295774647887,285 Z" style="fill:blue;stroke:black;stroke-width:0.5;" />
	<path d="M 709.295774647887,285 L 709.295774647887,285 L 714.366197183099,285 L 714.366197183099,285 Z" style="fill:blue;stroke:black;stroke-width:0.5;" />
	<path d="M 714.366197183099,285 L 714.366197183099,285 L 719.43661971831,285 L 719.43661971831,285 Z" style="fill:blue;stroke:black;stroke-width:0.5;" />
	<path d="M 719.43661971831,285 L 719.43661971831,285 L 724.507042253521,285 L 724.507042253521,285 Z" style="fill:blue;stroke:black;stroke-width:0.5;" />
	<line stroke="black" stroke-width="2" x1="721.971830985916" x2="721.971830985916" y1="285" y2="284" />
	<path d="M 724.507042253521,285 L 724.507042253521,285 L 729.577464788732,285 L 729.577464788732,285 Z" style="fill:blue;stroke:black;stroke-width:0.5;" />
	<path d="M 729.577464788732,285 L 729.577464788732,285 L 734.647887323944,285 L 734.647887323944,285 Z" style="fill:blue;stroke:black;stroke-width:0.5;" />
	<path d="M 734.647887323944,285 L 734.647887323944,285 L 739.718309859155,285 L 739.718309859155,285 Z" style="fill:blue;stroke:black;stroke-width:0.5;" />
	<path d="M 739.718309859155,285 L 739.718309859155,285 L 744.788732394366,285 L 744.788732394366,285 Z" style="fill:blue;stroke:black;stroke-width:0.5;" />
	<path d="M 744.788732394366,285 L 744.788732394366,285 L 749.859154929577,285 L 749.859154929577,285 Z" style="fill:blue;stroke:black;stroke-width:0.5;" />
	<text font-size="10" x="744.788732394366" y="297">140</text>
	<line stroke="black" stroke-width="2" x1="747.323943661972" x2="747.323943661972" y1="285" y2="283" />
	<line stroke="black" stroke-width="2" x1="747.323943661972" x2="747.323943661972" y1="285" y2="284" />
	<path d="M 749.859154929577,285 L 749.859154929577,285 L 754.929577464789,285 L 754.929577464789,285 Z" style="fill:blue;stroke:black;stroke-width:0.5;" />
	<path d="M 754.929577464789,285 L 754.929577464789,285 L 760,285 L 760,285 Z" style="fill:blue;stroke:black;stroke-width:0.5;" />
	<!-- 
	Generated using the Perl SVG Module V2.50
	by Ronan Oger
	Info: http://www.roitsystems.com/
 -->
</svg>