<?xml version="1.0" encoding="UTF-8" standalone="yes"?>
<!DOCTYPE svg PUBLIC "-//W3C//DTD SVG 1.0//EN" "http://www.w3.org/TR/2001/REC-SVG-20010904/DTD/svg10.dtd">
<svg height="300" width="800" xmlns="http://www.w3.org/2000/svg" xmlns:svg="http://www.w3.org/2000/svg" xmlns:xlink="http://www.w3.org/1999/xlink">
	<line stroke="black" stroke-width="2" x1="40" x2="40" y1="15" y2="285" />
	<line stroke="black" stroke-width="2" x1="40" x2="45.5813953488372" y1="231" y2="231" />
	<text font-size="12" x="48.3720930232558" y="231">1000</text>
	<line stroke="black" stroke-width="2" x1="40" x2="45.5813953488372" y1="177" y2="177" />
	<text font-size="12" x="48.3720930232558" y="177">2000</text>
	<line stroke="black" stroke-width="2" x1="40" x2="45.5813953488372" y1="123" y2="123" />
	<text font-size="12" x="48.3720930232558" y="123">3000</text>
	<line stroke="black" stroke-width="2" x1="40" x2="45.5813953488372" y1="69" y2="69" />
	<text font-size="12" x="48.3720930232558" y="69">4000</text>
	<line stroke="black" stroke-width="2" x1="40" x2="45.5813953488372" y1="15" y2="15" />
	<text font-size="12" x="48.3720930232558" y="15">5000</text>
	<line stroke="black" stroke-width="2" x1="40" x2="800" y1="285" y2="285" />
	<path d="M 40,285 L 40,285 L 45.5813953488372,285 L 45.5813953488372,285 Z" style="fill:blue;stroke:black;stroke-width:0.5;" />
	<path d="M 45.5813953488372,285 L 45.5813953488372,285 L 51.1627906976744,285 L 51.1627906976744,285 Z" style="fill:blue;stroke:black;stroke-width:0.5;" />
	<path d="M 51.1627906976744,285 L 51.1627906976744,285 L 56.7441860465116,285 L 56.7441860465116,285 Z" style="fill:blue;stroke:black;stroke-width:0.5;" />
	<path d="M 56.7441860465116,285 L 56.7441860465116,285 L 62.3255813953488,285 L 62.3255813953488,285 Z" style="fill:blue;stroke:black;stroke-width:0.5;" />
	<path d="M 62.3255813953488,285 L 62.3255813953488,285 L 67.906976744186,285 L 67.906976744186,285 Z" style="fill:blue;stroke:black;stroke-width:0.5;" />
	<line stroke="black" stroke-width="2" x1="65.1162790697674" x2="65.1162790697674" y1="285" y2="284" />
	<path d="M 67.906976744186,285 L 67.906976744186,285 L 73.4883720930233,285 L 73.4883720930233,285 Z" style="fill:blue;stroke:black;stroke-width:0.5;" />
	<path d="M 73.4883720930233,285 L 73.4883720930233,285 L 79.0697674418605,285 L 79.0697674418605,285 Z" style="fill:blue;stroke:black;stroke-width:0.5;" />
	<path d="M 79.0697674418605,285 L 79.0697674418605,285 L 84.6511627906977,285 L 84.6511627906977,285 Z" style="fill:blue;stroke:black;stroke-width:0.5;" />
	<path d="M 84.6511627906977,285 L 84.6511627906977,285 L 90.2325581395349,285 L 90.2325581395349,285 Z" style="fill:blue;stroke:black;stroke-width:0.5;" />
	<path d="M 90.2325581395349,285 L 90.2325581395349,285 L 95.8139534883721,285 L 95.8139534883721,285 Z" style="fill:blue;stroke:black;stroke-width:0.5;" />
	<text font-size="10" x="90.2325581395349" y="297">10</text>
	<line stroke="black" stroke-width="2" x1="93.0232558139535" x2="93.0232558139535" y1="285" y2="283" />
	<line stroke="black" stroke-width="2" x1="93.0232558139535" x2="93.0232558139535" y1="285" y2="284" />
	<path d="M 95.8139534883721,285 L 95.8139534883721,285 L 101.395348837209,285 L 101.395348837209,285 Z" style="fill:blue;stroke:black;stroke-width:0.5;" />
	<path d="M 101.395348837209,285 L 101.395348837209,285 L 106.976744186047,285 L 106.976744186047,285 Z" style="fill:blue;stroke:black;stroke-width:0.5;" />
	<path d="M 106.976744186047,285 L 106.976744186047,285 L 112.558139534884,285 L 112.558139534884,285 Z" style="fill:blue;stroke:black;stroke-width:0.5;" />
	<path d="M 112.558139534884,285 L 112.558139534884,285 L 118.139534883721,285 L 118.139534883721,285 Z" style="fill:blue;stroke:black;stroke-width:0.5;" />
	<path d="M 118.139534883721,285 L 118.139534883721,285 L 123.720930232558,285 L 123.720930232558,285 Z" style="fill:blue;stroke:black;stroke-width:0.5;" />
	<line stroke="black" stroke-width="2" x1="120.93023255814" x2="120.93023255814" y1="285" y2="284" />
	<path d="M 123.720930232558,285 L 123.720930232558,285 L 129.302325581395,285 L 129.302325581395,285 Z" style="fill:blue;stroke:black;stroke-width:0.5;" />
	<path d="M 129.302325581395,285 L 129.302325581395,285 L 134.883720930233,285 L 134.883720930233,285 Z" style="fill:blue;stroke:black;stroke-width:0.5;" />
	<path d="M 134.883720930233,285 L 134.883720930233,285 L 140.46511627907,285 L 140.46511627907,285 Z" style="fill:blue;stroke:black;stroke-width:0.5;" />
	<path d="M 140.46511627907,285 L 140.46511627907,285 L 146.046511627907,285 L 146.046511627907,285 Z" style="fill:blue;stroke:black;stroke-width:0.5;" />
	<path d="M 146.046511627907,285 L 146.046511627907,285 L 151.627906976744,285 L 151.627906976744,285 Z" style="fill:blue;stroke:black;stroke-width:0.5;" />
	<text font-size="10" x="146.046511627907" y="297">20</text>
	<line stroke="black" stroke-width="2" x1="148.837209302326" x2="148.837209302326" y1="285" y2="283" />
	<line stroke="black" stroke-width="2" x1="148.837209302326" x2="148.837209302326" y1="285" y2="284" />
	<path d="M 151.627906976744,285 L 151.627906976744,285 L 157.209302325581,285 L 157.209302325581,285 Z" style="fill:blue;stroke:black;stroke-width:0.5;" />
	<path d="M 157.209302325581,285 L 157.209302325581,285 L 162.790697674419,285 L 162.790697674419,285 Z" style="fill:blue;stroke:black;stroke-width:0.5;" />
	<path d="M 162.790697674419,285 L 162.790697674419,284.98272 L 168.372093023256,284.98272 L 168.372093023256,285 Z" style="fill:blue;stroke:black;stroke-width:0.5;" />
	<path d="M 168.372093023256,285 L 168.372093023256,284.97408 L 173.953488372093,284.97408 L 173.953488372093,285 Z" style="fill:blue;stroke:black;stroke-width:0.5;" />
	<path d="M 173.953488372093,285 L 173.953488372093,284.04366 L 179.53488372093,284.04366 L 179.53488372093,285 Z" style="fill:blue;stroke:black;stroke-width:0.5;" />
	<line stroke="black" stroke-width="2" x1="176.744186046512" x2="176.744186046512" y1="285" y2="284" />
	<path d="M 179.53488372093,285 L 179.53488372093,148.785 L 185.116279069767,148.785 L 185.116279069767,285 Z" style="fill:gold;stroke:black;stroke-width:0.5;" />
	<path d="M 185.116279069767,285 L 185.116279069767,144.924 L 190.697674418605,144.924 L 190.697674418605,285 Z" style="fill:gold;stroke:black;stroke-width:0.5;" />
	<path d="M 190.697674418605,285 L 190.697674418605,144.3273 L 196.279069767442,144.3273 L 196.279069767442,285 Z" style="fill:gold;stroke:black;stroke-width:0.5;" />
	<path d="M 196.279069767442,285 L 196.279069767442,144.28356 L 201.860465116279,144.28356 L 201.860465116279,285 Z" style="fill:gold;stroke:black;stroke-width:0.5;" />
	<path d="M 201.860465116279,285 L 201.860465116279,144.27492 L 207.441860465116,144.27492 L 207.441860465116,285 Z" style="fill:gold;stroke:black;stroke-width:0.5;" />
	<text font-size="10" x="201.860465116279" y="297">30</text>
	<line stroke="black" stroke-width="2" x1="204.651162790698" x2="204.651162790698" y1="285" y2="283" />
	<line stroke="black" stroke-width="2" x1="204.651162790698" x2="204.651162790698" y1="285" y2="284" />
	<path d="M 207.441860465116,285 L 207.441860465116,144.19662 L 213.023255813953,144.19662 L 213.023255813953,285 Z" style="fill:gold;stroke:black;stroke-width:0.5;" />
	<path d="M 213.023255813953,285 L 213.023255813953,144.18798 L 218.604651162791,144.18798 L 218.604651162791,285 Z" style="fill:gold;stroke:black;stroke-width:0.5;" />
	<path d="M 218.604651162791,285 L 218.604651162791,144.18798 L 224.186046511628,144.18798 L 224.186046511628,285 Z" style="fill:gold;stroke:black;stroke-width:0.5;" />
	<path d="M 224.186046511628,285 L 224.186046511628,144.18798 L 229.767441860465,144.18798 L 229.767441860465,285 Z" style="fill:gold;stroke:black;stroke-width:0.5;" />
	<path d="M 229.767441860465,285 L 229.767441860465,144.18798 L 235.348837209302,144.18798 L 235.348837209302,285 Z" style="fill:gold;stroke:black;stroke-width:0.5;" />
	<line stroke="black" stroke-width="2" x1="232.558139534884" x2="232.558139534884" y1="285" y2="284" />
	<path d="M 235.348837209302,285 L 235.348837209302,144.18798 L 240.93023255814,144.18798 L 240.93023255814,285 Z" style="fill:gold;stroke:black;stroke-width:0.5;" />
	<path d="M 240.93023255814,285 L 240.93023255814,144.16206 L 246.511627906977,144.16206 L 246.511627906977,285 Z" style="fill:gold;stroke:black;stroke-width:0.5;" />
	<path d="M 246.511627906977,285 L 246.511627906977,144.14478 L 252.093023255814,144.14478 L 252.093023255814,285 Z" style="fill:gold;stroke:black;stroke-width:0.5;" />
	<path d="M 252.093023255814,285 L 252.093023255814,144.14478 L 257.674418604651,144.14478 L 257.674418604651,285 Z" style="fill:gold;stroke:black;stroke-width:0.5;" />
	<path d="M 257.674418604651,285 L 257.674418604651,144.13614 L 263.255813953488,144.13614 L 263.255813953488,285 Z" style="fill:gold;stroke:black;stroke-width:0.5;" />
	<text font-size="10" x="257.674418604651" y="297">40</text>
	<line stroke="black" stroke-width="2" x1="260.46511627907" x2="260.46511627907" y1="285" y2="283" />
	<line stroke="black" stroke-width="2" x1="260.46511627907" x2="260.46511627907" y1="285" y2="284" />
	<path d="M 263.255813953488,285 L 263.255813953488,144.23172 L 268.837209302326,144.23172 L 268.837209302326,285 Z" style="fill:gold;stroke:black;stroke-width:0.5;" />
	<path d="M 268.837209302326,285 L 268.837209302326,144.28464 L 274.418604651163,144.28464 L 274.418604651163,285 Z" style="fill:gold;stroke:black;stroke-width:0.5;" />
	<path d="M 274.418604651163,285 L 274.418604651163,144.7917 L 280,144.7917 L 280,285 Z" style="fill:gold;stroke:black;stroke-width:0.5;" />
	<path d="M 280,285 L 280,145.2291 L 285.581395348837,145.2291 L 285.581395348837,285 Z" style="fill:gold;stroke:black;stroke-width:0.5;" />
	<path d="M 285.581395348837,285 L 285.581395348837,145.42188 L 291.162790697674,145.42188 L 291.162790697674,285 Z" style="fill:gold;stroke:black;stroke-width:0.5;" />
	<line stroke="black" stroke-width="2" x1="288.372093023256" x2="288.372093023256" y1="285" y2="284" />
	<path d="M 291.162790697674,285 L 291.162790697674,151.9953 L 296.744186046512,151.9953 L 296.744186046512,285 Z" style="fill:gold;stroke:black;stroke-width:0.5;" />
	<path d="M 296.744186046512,285 L 296.744186046512,280.05252 L 302.325581395349,280.05252 L 302.325581395349,285 Z" style="fill:blue;stroke:black;stroke-width:0.5;" />
	<path d="M 302.325581395349,285 L 302.325581395349,284.85258 L 307.906976744186,284.85258 L 307.906976744186,285 Z" style="fill:blue;stroke:black;stroke-width:0.5;" />
	<path d="M 307.906976744186,285 L 307.906976744186,284.85258 L 313.488372093023,284.85258 L 313.488372093023,285 Z" style="fill:blue;stroke:black;stroke-width:0.5;" />
	<path d="M 313.488372093023,285 L 313.488372093023,284.86986 L 319.06976744186,284.86986 L 319.06976744186,285 Z" style="fill:blue;stroke:black;stroke-width:0.5;" />
	<text font-size="10" x="313.488372093023" y="297">50</text>
	<line stroke="black" stroke-width="2" x1="316.279069767442" x2="316.279069767442" y1="285" y2="283" />
	<line stroke="black" stroke-width="2" x1="316.279069767442" x2="316.279069767442" y1="285" y2="284" />
	<path d="M 319.06976744186,285 L 319.06976744186,284.86986 L 324.651162790698,284.86986 L 324.651162790698,285 Z" style="fill:blue;stroke:black;stroke-width:0.5;" />
	<path d="M 324.651162790698,285 L 324.651162790698,284.8785 L 330.232558139535,284.8785 L 330.232558139535,285 Z" style="fill:blue;stroke:black;stroke-width:0.5;" />
	<path d="M 330.232558139535,285 L 330.232558139535,284.8785 L 335.813953488372,284.8785 L 335.813953488372,285 Z" style="fill:blue;stroke:black;stroke-width:0.5;" />
	<path d="M 335.813953488372,285 L 335.813953488372,284.8785 L 341.395348837209,284.8785 L 341.395348837209,285 Z" style="fill:blue;stroke:black;stroke-width:0.5;" />
	<path d="M 341.395348837209,285 L 341.395348837209,284.88714 L 346.976744186047,284.88714 L 346.976744186047,285 Z" style="fill:blue;stroke:black;stroke-width:0.5;" />
	<line stroke="black" stroke-width="2" x1="344.186046511628" x2="344.186046511628" y1="285" y2="284" />
	<path d="M 346.976744186047,285 L 346.976744186047,284.88714 L 352.558139534884,284.88714 L 352.558139534884,285 Z" style="fill:blue;stroke:black;stroke-width:0.5;" />
	<path d="M 352.558139534884,285 L 352.558139534884,284.88714 L 358.139534883721,284.88714 L 358.139534883721,285 Z" style="fill:blue;stroke:black;stroke-width:0.5;" />
	<path d="M 358.139534883721,285 L 358.139534883721,284.88714 L 363.720930232558,284.88714 L 363.720930232558,285 Z" style="fill:blue;stroke:black;stroke-width:0.5;" />
	<path d="M 363.720930232558,285 L 363.720930232558,284.88714 L 369.302325581395,284.88714 L 369.302325581395,285 Z" style="fill:blue;stroke:black;stroke-width:0.5;" />
	<path d="M 369.302325581395,285 L 369.302325581395,284.88714 L 374.883720930233,284.88714 L 374.883720930233,285 Z" style="fill:blue;stroke:black;stroke-width:0.5;" />
	<text font-size="10" x="369.302325581395" y="297">60</text>
	<line stroke="black" stroke-width="2" x1="372.093023255814" x2="372.093023255814" y1="285" y2="283" />
	<line stroke="black" stroke-width="2" x1="372.093023255814" x2="372.093023255814" y1="285" y2="284" />
	<path d="M 374.883720930233,285 L 374.883720930233,284.88714 L 380.46511627907,284.88714 L 380.46511627907,285 Z" style="fill:blue;stroke:black;stroke-width:0.5;" />
	<path d="M 380.46511627907,285 L 380.46511627907,284.88714 L 386.046511627907,284.88714 L 386.046511627907,285 Z" style="fill:blue;stroke:black;stroke-width:0.5;" />
	<path d="M 386.046511627907,285 L 386.046511627907,284.88714 L 391.627906976744,284.88714 L 391.627906976744,285 Z" style="fill:blue;stroke:black;stroke-width:0.5;" />
	<path d="M 391.627906976744,285 L 391.627906976744,284.88714 L 397.209302325581,284.88714 L 397.209302325581,285 Z" style="fill:blue;stroke:black;stroke-width:0.5;" />
	<path d="M 397.209302325581,285 L 397.209302325581,284.90442 L 402.790697674419,284.90442 L 402.790697674419,285 Z" style="fill:blue;stroke:black;stroke-width:0.5;" />
	<line stroke="black" stroke-width="2" x1="400" x2="400" y1="285" y2="284" />
	<path d="M 402.790697674419,285 L 402.790697674419,284.9217 L 408.372093023256,284.9217 L 408.372093023256,285 Z" style="fill:blue;stroke:black;stroke-width:0.5;" />
	<path d="M 408.372093023256,285 L 408.372093023256,284.9649 L 413.953488372093,284.9649 L 413.953488372093,285 Z" style="fill:blue;stroke:black;stroke-width:0.5;" />
	<path d="M 413.953488372093,285 L 413.953488372093,284.95626 L 419.53488372093,284.95626 L 419.53488372093,285 Z" style="fill:blue;stroke:black;stroke-width:0.5;" />
	<path d="M 419.53488372093,285 L 419.53488372093,284.93898 L 425.116279069767,284.93898 L 425.116279069767,285 Z" style="fill:blue;stroke:black;stroke-width:0.5;" />
	<path d="M 425.116279069767,285 L 425.116279069767,284.93898 L 430.697674418605,284.93898 L 430.697674418605,285 Z" style="fill:blue;stroke:black;stroke-width:0.5;" />
	<text font-size="10" x="425.116279069767" y="297">70</text>
	<line stroke="black" stroke-width="2" x1="427.906976744186" x2="427.906976744186" y1="285" y2="283" />
	<line stroke="black" stroke-width="2" x1="427.906976744186" x2="427.906976744186" y1="285" y2="284" />
	<path d="M 430.697674418605,285 L 430.697674418605,284.93898 L 436.279069767442,284.93898 L 436.279069767442,285 Z" style="fill:blue;stroke:black;stroke-width:0.5;" />
	<path d="M 436.279069767442,285 L 436.279069767442,284.93898 L 441.860465116279,284.93898 L 441.860465116279,285 Z" style="fill:blue;stroke:black;stroke-width:0.5;" />
	<path d="M 441.860465116279,285 L 441.860465116279,284.93898 L 447.441860465116,284.93898 L 447.441860465116,285 Z" style="fill:blue;stroke:black;stroke-width:0.5;" />
	<path d="M 447.441860465116,285 L 447.441860465116,284.93898 L 453.023255813953,284.93898 L 453.023255813953,285 Z" style="fill:blue;stroke:black;stroke-width:0.5;" />
	<path d="M 453.023255813953,285 L 453.023255813953,284.93898 L 458.604651162791,284.93898 L 458.604651162791,285 Z" style="fill:blue;stroke:black;stroke-width:0.5;" />
	<line stroke="black" stroke-width="2" x1="455.813953488372" x2="455.813953488372" y1="285" y2="284" />
	<path d="M 458.604651162791,285 L 458.604651162791,284.93898 L 464.186046511628,284.93898 L 464.186046511628,285 Z" style="fill:blue;stroke:black;stroke-width:0.5;" />
	<path d="M 464.186046511628,285 L 464.186046511628,284.93898 L 469.767441860465,284.93898 L 469.767441860465,285 Z" style="fill:blue;stroke:black;stroke-width:0.5;" />
	<path d="M 469.767441860465,285 L 469.767441860465,284.93898 L 475.348837209302,284.93898 L 475.348837209302,285 Z" style="fill:blue;stroke:black;stroke-width:0.5;" />
	<path d="M 475.348837209302,285 L 475.348837209302,284.93898 L 480.93023255814,284.93898 L 480.93023255814,285 Z" style="fill:blue;stroke:black;stroke-width:0.5;" />
	<path d="M 480.93023255814,285 L 480.93023255814,284.93898 L 486.511627906977,284.93898 L 486.511627906977,285 Z" style="fill:blue;stroke:black;stroke-width:0.5;" />
	<text font-size="10" x="480.93023255814" y="297">80</text>
	<line stroke="black" stroke-width="2" x1="483.720930232558" x2="483.720930232558" y1="285" y2="283" />
	<line stroke="black" stroke-width="2" x1="483.720930232558" x2="483.720930232558" y1="285" y2="284" />
	<path d="M 486.511627906977,285 L 486.511627906977,284.93898 L 492.093023255814,284.93898 L 492.093023255814,285 Z" style="fill:blue;stroke:black;stroke-width:0.5;" />
	<path d="M 492.093023255814,285 L 492.093023255814,284.93898 L 497.674418604651,284.93898 L 497.674418604651,285 Z" style="fill:blue;stroke:black;stroke-width:0.5;" />
	<path d="M 497.674418604651,285 L 497.674418604651,284.93898 L 503.255813953488,284.93898 L 503.255813953488,285 Z" style="fill:blue;stroke:black;stroke-width:0.5;" />
	<path d="M 503.255813953488,285 L 503.255813953488,284.93898 L 508.837209302326,284.93898 L 508.837209302326,285 Z" style="fill:blue;stroke:black;stroke-width:0.5;" />
	<path d="M 508.837209302326,285 L 508.837209302326,284.93898 L 514.418604651163,284.93898 L 514.418604651163,285 Z" style="fill:blue;stroke:black;stroke-width:0.5;" />
	<line stroke="black" stroke-width="2" x1="511.627906976744" x2="511.627906976744" y1="285" y2="284" />
	<path d="M 514.418604651163,285 L 514.418604651163,284.30016 L 520,284.30016 L 520,285 Z" style="fill:gold;stroke:black;stroke-width:0.5;" />
	<path d="M 520,285 L 520,284.2386 L 525.581395348837,284.2386 L 525.581395348837,285 Z" style="fill:gold;stroke:black;stroke-width:0.5;" />
	<path d="M 525.581395348837,285 L 525.581395348837,284.2386 L 531.162790697674,284.2386 L 531.162790697674,285 Z" style="fill:gold;stroke:black;stroke-width:0.5;" />
	<path d="M 531.162790697674,285 L 531.162790697674,284.2386 L 536.744186046512,284.2386 L 536.744186046512,285 Z" style="fill:gold;stroke:black;stroke-width:0.5;" />
	<path d="M 536.744186046512,285 L 536.744186046512,284.2386 L 542.325581395349,284.2386 L 542.325581395349,285 Z" style="fill:gold;stroke:black;stroke-width:0.5;" />
	<text font-size="10" x="536.744186046512" y="297">90</text>
	<line stroke="black" stroke-width="2" x1="539.53488372093" x2="539.53488372093" y1="285" y2="283" />
	<line stroke="black" stroke-width="2" x1="539.53488372093" x2="539.53488372093" y1="285" y2="284" />
	<path d="M 542.325581395349,285 L 542.325581395349,284.24724 L 547.906976744186,284.24724 L 547.906976744186,285 Z" style="fill:gold;stroke:black;stroke-width:0.5;" />
	<path d="M 547.906976744186,285 L 547.906976744186,284.24724 L 553.488372093023,284.24724 L 553.488372093023,285 Z" style="fill:gold;stroke:black;stroke-width:0.5;" />
	<path d="M 553.488372093023,285 L 553.488372093023,284.24724 L 559.06976744186,284.24724 L 559.06976744186,285 Z" style="fill:gold;stroke:black;stroke-width:0.5;" />
	<path d="M 559.06976744186,285 L 559.06976744186,284.24724 L 564.651162790698,284.24724 L 564.651162790698,285 Z" style="fill:gold;stroke:black;stroke-width:0.5;" />
	<path d="M 564.651162790698,285 L 564.651162790698,284.29962 L 570.232558139535,284.29962 L 570.232558139535,285 Z" style="fill:gold;stroke:black;stroke-width:0.5;" />
	<line stroke="black" stroke-width="2" x1="567.441860465116" x2="567.441860465116" y1="285" y2="284" />
	<path d="M 570.232558139535,285 L 570.232558139535,284.29962 L 575.813953488372,284.29962 L 575.813953488372,285 Z" style="fill:gold;stroke:black;stroke-width:0.5;" />
	<path d="M 575.813953488372,285 L 575.813953488372,284.29962 L 581.395348837209,284.29962 L 581.395348837209,285 Z" style="fill:gold;stroke:black;stroke-width:0.5;" />
	<path d="M 581.395348837209,285 L 581.395348837209,284.29962 L 586.976744186047,284.29962 L 586.976744186047,285 Z" style="fill:gold;stroke:black;stroke-width:0.5;" />
	<path d="M 586.976744186047,285 L 586.976744186047,284.29962 L 592.558139534884,284.29962 L 592.558139534884,285 Z" style="fill:gold;stroke:black;stroke-width:0.5;" />
	<path d="M 592.558139534884,285 L 592.558139534884,284.29962 L 598.139534883721,284.29962 L 598.139534883721,285 Z" style="fill:gold;stroke:black;stroke-width:0.5;" />
	<text font-size="10" x="592.558139534884" y="297">100</text>
	<line stroke="black" stroke-width="2" x1="595.348837209302" x2="595.348837209302" y1="285" y2="283" />
	<line stroke="black" stroke-width="2" x1="595.348837209302" x2="595.348837209302" y1="285" y2="284" />
	<path d="M 598.139534883721,285 L 598.139534883721,284.29962 L 603.720930232558,284.29962 L 603.720930232558,285 Z" style="fill:gold;stroke:black;stroke-width:0.5;" />
	<path d="M 603.720930232558,285 L 603.720930232558,284.29962 L 609.302325581395,284.29962 L 609.302325581395,285 Z" style="fill:gold;stroke:black;stroke-width:0.5;" />
	<path d="M 609.302325581395,285 L 609.302325581395,284.29962 L 614.883720930233,284.29962 L 614.883720930233,285 Z" style="fill:gold;stroke:black;stroke-width:0.5;" />
	<path d="M 614.883720930233,285 L 614.883720930233,284.30826 L 620.46511627907,284.30826 L 620.46511627907,285 Z" style="fill:gold;stroke:black;stroke-width:0.5;" />
	<path d="M 620.46511627907,285 L 620.46511627907,284.3169 L 626.046511627907,284.3169 L 626.046511627907,285 Z" style="fill:gold;stroke:black;stroke-width:0.5;" />
	<line stroke="black" stroke-width="2" x1="623.255813953488" x2="623.255813953488" y1="285" y2="284" />
	<path d="M 626.046511627907,285 L 626.046511627907,284.32554 L 631.627906976744,284.32554 L 631.627906976744,285 Z" style="fill:gold;stroke:black;stroke-width:0.5;" />
	<path d="M 631.627906976744,285 L 631.627906976744,284.9649 L 637.209302325581,284.9649 L 637.209302325581,285 Z" style="fill:blue;stroke:black;stroke-width:0.5;" />
	<path d="M 637.209302325581,285 L 637.209302325581,285 L 642.790697674419,285 L 642.790697674419,285 Z" style="fill:blue;stroke:black;stroke-width:0.5;" />
	<path d="M 642.790697674419,285 L 642.790697674419,285 L 648.372093023256,285 L 648.372093023256,285 Z" style="fill:blue;stroke:black;stroke-width:0.5;" />
	<path d="M 648.372093023256,285 L 648.372093023256,285 L 653.953488372093,285 L 653.953488372093,285 Z" style="fill:blue;stroke:black;stroke-width:0.5;" />
	<text font-size="10" x="648.372093023256" y="297">110</text>
	<line stroke="black" stroke-width="2" x1="651.162790697674" x2="651.162790697674" y1="285" y2="283" />
	<line stroke="black" stroke-width="2" x1="651.162790697674" x2="651.162790697674" y1="285" y2="284" />
	<path d="M 653.953488372093,285 L 653.953488372093,285 L 659.53488372093,285 L 659.53488372093,285 Z" style="fill:blue;stroke:black;stroke-width:0.5;" />
	<path d="M 659.53488372093,285 L 659.53488372093,285 L 665.116279069767,285 L 665.116279069767,285 Z" style="fill:blue;stroke:black;stroke-width:0.5;" />
	<path d="M 665.116279069767,285 L 665.116279069767,285 L 670.697674418605,285 L 670.697674418605,285 Z" style="fill:blue;stroke:black;stroke-width:0.5;" />
	<path d="M 670.697674418605,285 L 670.697674418605,285 L 676.279069767442,285 L 676.279069767442,285 Z" style="fill:blue;stroke:black;stroke-width:0.5;" />
	<path d="M 676.279069767442,285 L 676.279069767442,285 L 681.860465116279,285 L 681.860465116279,285 Z" style="fill:blue;stroke:black;stroke-width:0.5;" />
	<line stroke="black" stroke-width="2" x1="679.06976744186" x2="679.06976744186" y1="285" y2="284" />
	<path d="M 681.860465116279,285 L 681.860465116279,285 L 687.441860465116,285 L 687.441860465116,285 Z" style="fill:blue;stroke:black;stroke-width:0.5;" />
	<path d="M 687.441860465116,285 L 687.441860465116,285 L 693.023255813953,285 L 693.023255813953,285 Z" style="fill:blue;stroke:black;stroke-width:0.5;" />
	<path d="M 693.023255813953,285 L 693.023255813953,285 L 698.604651162791,285 L 698.604651162791,285 Z" style="fill:blue;stroke:black;stroke-width:0.5;" />
	<path d="M 698.604651162791,285 L 698.604651162791,285 L 704.186046511628,285 L 704.186046511628,285 Z" style="fill:blue;stroke:black;stroke-width:0.5;" />
	<path d="M 704.186046511628,285 L 704.186046511628,285 L 709.767441860465,285 L 709.767441860465,285 Z" style="fill:blue;stroke:black;stroke-width:0.5;" />
	<text font-size="10" x="704.186046511628" y="297">120</text>
	<line stroke="black" stroke-width="2" x1="706.976744186047" x2="706.976744186047" y1="285" y2="283" />
	<line stroke="black" stroke-width="2" x1="706.976744186047" x2="706.976744186047" y1="285" y2="284" />
	<path d="M 709.767441860465,285 L 709.767441860465,285 L 715.348837209302,285 L 715.348837209302,285 Z" style="fill:blue;stroke:black;stroke-width:0.5;" />
	<path d="M 715.348837209302,285 L 715.348837209302,285 L 720.93023255814,285 L 720.93023255814,285 Z" style="fill:blue;stroke:black;stroke-width:0.5;" />
	<path d="M 720.93023255814,285 L 720.93023255814,285 L 726.511627906977,285 L 726.511627906977,285 Z" style="fill:blue;stroke:black;stroke-width:0.5;" />
	<path d="M 726.511627906977,285 L 726.511627906977,285 L 732.093023255814,285 L 732.093023255814,285 Z" style="fill:blue;stroke:black;stroke-width:0.5;" />
	<path d="M 732.093023255814,285 L 732.093023255814,285 L 737.674418604651,285 L 737.674418604651,285 Z" style="fill:blue;stroke:black;stroke-width:0.5;" />
	<line stroke="black" stroke-width="2" x1="734.883720930233" x2="734.883720930233" y1="285" y2="284" />
	<path d="M 737.674418604651,285 L 737.674418604651,285 L 743.255813953488,285 L 743.255813953488,285 Z" style="fill:blue;stroke:black;stroke-width:0.5;" />
	<path d="M 743.255813953488,285 L 743.255813953488,285 L 748.837209302326,285 L 748.837209302326,285 Z" style="fill:blue;stroke:black;stroke-width:0.5;" />
	<path d="M 748.837209302326,285 L 748.837209302326,285 L 754.418604651163,285 L 754.418604651163,285 Z" style="fill:blue;stroke:black;stroke-width:0.5;" />
	<path d="M 754.418604651163,285 L 754.418604651163,285 L 760,285 L 760,285 Z" style="fill:blue;stroke:black;stroke-width:0.5;" />
	<!-- 
	Generated using the Perl SVG Module V2.50
	by Ronan Oger
	Info: http://www.roitsystems.com/
 -->
</svg>