<?xml version="1.0" encoding="UTF-8" standalone="yes"?>
<!DOCTYPE svg PUBLIC "-//W3C//DTD SVG 1.0//EN" "http://www.w3.org/TR/2001/REC-SVG-20010904/DTD/svg10.dtd">
<svg height="300" width="800" xmlns="http://www.w3.org/2000/svg" xmlns:svg="http://www.w3.org/2000/svg" xmlns:xlink="http://www.w3.org/1999/xlink">
	<line stroke="black" stroke-width="2" x1="40" x2="40" y1="15" y2="285" />
	<line stroke="black" stroke-width="2" x1="40" x2="45.1798561151079" y1="231" y2="231" />
	<text font-size="12" x="47.7697841726619" y="231">1000</text>
	<line stroke="black" stroke-width="2" x1="40" x2="45.1798561151079" y1="177" y2="177" />
	<text font-size="12" x="47.7697841726619" y="177">2000</text>
	<line stroke="black" stroke-width="2" x1="40" x2="45.1798561151079" y1="123" y2="123" />
	<text font-size="12" x="47.7697841726619" y="123">3000</text>
	<line stroke="black" stroke-width="2" x1="40" x2="45.1798561151079" y1="69" y2="69" />
	<text font-size="12" x="47.7697841726619" y="69">4000</text>
	<line stroke="black" stroke-width="2" x1="40" x2="45.1798561151079" y1="15" y2="15" />
	<text font-size="12" x="47.7697841726619" y="15">5000</text>
	<line stroke="black" stroke-width="2" x1="40" x2="800" y1="285" y2="285" />
	<path d="M 40,285 L 40,285 L 45.1798561151079,285 L 45.1798561151079,285 Z" style="fill:blue;stroke:black;stroke-width:0.5;" />
	<path d="M 45.1798561151079,285 L 45.1798561151079,285 L 50.3597122302158,285 L 50.3597122302158,285 Z" style="fill:blue;stroke:black;stroke-width:0.5;" />
	<path d="M 50.3597122302158,285 L 50.3597122302158,285 L 55.5395683453237,285 L 55.5395683453237,285 Z" style="fill:blue;stroke:black;stroke-width:0.5;" />
	<path d="M 55.5395683453237,285 L 55.5395683453237,285 L 60.7194244604317,285 L 60.7194244604317,285 Z" style="fill:blue;stroke:black;stroke-width:0.5;" />
	<path d="M 60.7194244604317,285 L 60.7194244604317,285 L 65.8992805755396,285 L 65.8992805755396,285 Z" style="fill:blue;stroke:black;stroke-width:0.5;" />
	<line stroke="black" stroke-width="2" x1="63.3093525179856" x2="63.3093525179856" y1="285" y2="284" />
	<path d="M 65.8992805755396,285 L 65.8992805755396,285 L 71.0791366906475,285 L 71.0791366906475,285 Z" style="fill:blue;stroke:black;stroke-width:0.5;" />
	<path d="M 71.0791366906475,285 L 71.0791366906475,285 L 76.2589928057554,285 L 76.2589928057554,285 Z" style="fill:blue;stroke:black;stroke-width:0.5;" />
	<path d="M 76.2589928057554,285 L 76.2589928057554,285 L 81.4388489208633,285 L 81.4388489208633,285 Z" style="fill:blue;stroke:black;stroke-width:0.5;" />
	<path d="M 81.4388489208633,285 L 81.4388489208633,285 L 86.6187050359712,285 L 86.6187050359712,285 Z" style="fill:blue;stroke:black;stroke-width:0.5;" />
	<path d="M 86.6187050359712,285 L 86.6187050359712,285 L 91.7985611510791,285 L 91.7985611510791,285 Z" style="fill:blue;stroke:black;stroke-width:0.5;" />
	<text font-size="10" x="86.6187050359712" y="297">10</text>
	<line stroke="black" stroke-width="2" x1="89.2086330935252" x2="89.2086330935252" y1="285" y2="283" />
	<line stroke="black" stroke-width="2" x1="89.2086330935252" x2="89.2086330935252" y1="285" y2="284" />
	<path d="M 91.7985611510791,285 L 91.7985611510791,285 L 96.9784172661871,285 L 96.9784172661871,285 Z" style="fill:blue;stroke:black;stroke-width:0.5;" />
	<path d="M 96.9784172661871,285 L 96.9784172661871,285 L 102.158273381295,285 L 102.158273381295,285 Z" style="fill:blue;stroke:black;stroke-width:0.5;" />
	<path d="M 102.158273381295,285 L 102.158273381295,285 L 107.338129496403,285 L 107.338129496403,285 Z" style="fill:blue;stroke:black;stroke-width:0.5;" />
	<path d="M 107.338129496403,285 L 107.338129496403,285 L 112.517985611511,285 L 112.517985611511,285 Z" style="fill:blue;stroke:black;stroke-width:0.5;" />
	<path d="M 112.517985611511,285 L 112.517985611511,285 L 117.697841726619,285 L 117.697841726619,285 Z" style="fill:blue;stroke:black;stroke-width:0.5;" />
	<line stroke="black" stroke-width="2" x1="115.107913669065" x2="115.107913669065" y1="285" y2="284" />
	<path d="M 117.697841726619,285 L 117.697841726619,285 L 122.877697841727,285 L 122.877697841727,285 Z" style="fill:blue;stroke:black;stroke-width:0.5;" />
	<path d="M 122.877697841727,285 L 122.877697841727,285 L 128.057553956835,285 L 128.057553956835,285 Z" style="fill:blue;stroke:black;stroke-width:0.5;" />
	<path d="M 128.057553956835,285 L 128.057553956835,285 L 133.237410071942,285 L 133.237410071942,285 Z" style="fill:blue;stroke:black;stroke-width:0.5;" />
	<path d="M 133.237410071942,285 L 133.237410071942,285 L 138.41726618705,285 L 138.41726618705,285 Z" style="fill:blue;stroke:black;stroke-width:0.5;" />
	<path d="M 138.41726618705,285 L 138.41726618705,285 L 143.597122302158,285 L 143.597122302158,285 Z" style="fill:blue;stroke:black;stroke-width:0.5;" />
	<text font-size="10" x="138.41726618705" y="297">20</text>
	<line stroke="black" stroke-width="2" x1="141.007194244604" x2="141.007194244604" y1="285" y2="283" />
	<line stroke="black" stroke-width="2" x1="141.007194244604" x2="141.007194244604" y1="285" y2="284" />
	<path d="M 143.597122302158,285 L 143.597122302158,285 L 148.776978417266,285 L 148.776978417266,285 Z" style="fill:blue;stroke:black;stroke-width:0.5;" />
	<path d="M 148.776978417266,285 L 148.776978417266,285 L 153.956834532374,285 L 153.956834532374,285 Z" style="fill:blue;stroke:black;stroke-width:0.5;" />
	<path d="M 153.956834532374,285 L 153.956834532374,284.79804 L 159.136690647482,284.79804 L 159.136690647482,285 Z" style="fill:blue;stroke:black;stroke-width:0.5;" />
	<path d="M 159.136690647482,285 L 159.136690647482,284.79804 L 164.31654676259,284.79804 L 164.31654676259,285 Z" style="fill:blue;stroke:black;stroke-width:0.5;" />
	<path d="M 164.31654676259,285 L 164.31654676259,282.95934 L 169.496402877698,282.95934 L 169.496402877698,285 Z" style="fill:blue;stroke:black;stroke-width:0.5;" />
	<line stroke="black" stroke-width="2" x1="166.906474820144" x2="166.906474820144" y1="285" y2="284" />
	<path d="M 169.496402877698,285 L 169.496402877698,32.08614 L 174.676258992806,32.08614 L 174.676258992806,285 Z" style="fill:gold;stroke:black;stroke-width:0.5;" />
	<path d="M 174.676258992806,285 L 174.676258992806,27.98808 L 179.856115107914,27.98808 L 179.856115107914,285 Z" style="fill:gold;stroke:black;stroke-width:0.5;" />
	<path d="M 179.856115107914,285 L 179.856115107914,27.8654999999999 L 185.035971223022,27.8654999999999 L 185.035971223022,285 Z" style="fill:gold;stroke:black;stroke-width:0.5;" />
	<path d="M 185.035971223022,285 L 185.035971223022,27.6813599999999 L 190.215827338129,27.6813599999999 L 190.215827338129,285 Z" style="fill:gold;stroke:black;stroke-width:0.5;" />
	<path d="M 190.215827338129,285 L 190.215827338129,27.6727199999999 L 195.395683453237,27.6727199999999 L 195.395683453237,285 Z" style="fill:gold;stroke:black;stroke-width:0.5;" />
	<text font-size="10" x="190.215827338129" y="297">30</text>
	<line stroke="black" stroke-width="2" x1="192.805755395683" x2="192.805755395683" y1="285" y2="283" />
	<line stroke="black" stroke-width="2" x1="192.805755395683" x2="192.805755395683" y1="285" y2="284" />
	<path d="M 195.395683453237,285 L 195.395683453237,27.63762 L 200.575539568345,27.63762 L 200.575539568345,285 Z" style="fill:gold;stroke:black;stroke-width:0.5;" />
	<path d="M 200.575539568345,285 L 200.575539568345,27.6203399999999 L 205.755395683453,27.6203399999999 L 205.755395683453,285 Z" style="fill:gold;stroke:black;stroke-width:0.5;" />
	<path d="M 205.755395683453,285 L 205.755395683453,27.6203399999999 L 210.935251798561,27.6203399999999 L 210.935251798561,285 Z" style="fill:gold;stroke:black;stroke-width:0.5;" />
	<path d="M 210.935251798561,285 L 210.935251798561,27.6203399999999 L 216.115107913669,27.6203399999999 L 216.115107913669,285 Z" style="fill:gold;stroke:black;stroke-width:0.5;" />
	<path d="M 216.115107913669,285 L 216.115107913669,27.6203399999999 L 221.294964028777,27.6203399999999 L 221.294964028777,285 Z" style="fill:gold;stroke:black;stroke-width:0.5;" />
	<line stroke="black" stroke-width="2" x1="218.705035971223" x2="218.705035971223" y1="285" y2="284" />
	<path d="M 221.294964028777,285 L 221.294964028777,27.6203399999999 L 226.474820143885,27.6203399999999 L 226.474820143885,285 Z" style="fill:gold;stroke:black;stroke-width:0.5;" />
	<path d="M 226.474820143885,285 L 226.474820143885,27.6203399999999 L 231.654676258993,27.6203399999999 L 231.654676258993,285 Z" style="fill:gold;stroke:black;stroke-width:0.5;" />
	<path d="M 231.654676258993,285 L 231.654676258993,27.6203399999999 L 236.834532374101,27.6203399999999 L 236.834532374101,285 Z" style="fill:gold;stroke:black;stroke-width:0.5;" />
	<path d="M 236.834532374101,285 L 236.834532374101,27.6203399999999 L 242.014388489209,27.6203399999999 L 242.014388489209,285 Z" style="fill:gold;stroke:black;stroke-width:0.5;" />
	<path d="M 242.014388489209,285 L 242.014388489209,27.6203399999999 L 247.194244604317,27.6203399999999 L 247.194244604317,285 Z" style="fill:gold;stroke:black;stroke-width:0.5;" />
	<text font-size="10" x="242.014388489209" y="297">40</text>
	<line stroke="black" stroke-width="2" x1="244.604316546763" x2="244.604316546763" y1="285" y2="283" />
	<line stroke="black" stroke-width="2" x1="244.604316546763" x2="244.604316546763" y1="285" y2="284" />
	<path d="M 247.194244604317,285 L 247.194244604317,27.6203399999999 L 252.374100719424,27.6203399999999 L 252.374100719424,285 Z" style="fill:gold;stroke:black;stroke-width:0.5;" />
	<path d="M 252.374100719424,285 L 252.374100719424,27.62898 L 257.553956834532,27.62898 L 257.553956834532,285 Z" style="fill:gold;stroke:black;stroke-width:0.5;" />
	<path d="M 257.553956834532,285 L 257.553956834532,27.66354 L 262.73381294964,27.66354 L 262.73381294964,285 Z" style="fill:gold;stroke:black;stroke-width:0.5;" />
	<path d="M 262.73381294964,285 L 262.73381294964,27.85632 L 267.913669064748,27.85632 L 267.913669064748,285 Z" style="fill:gold;stroke:black;stroke-width:0.5;" />
	<path d="M 267.913669064748,285 L 267.913669064748,28.10148 L 273.093525179856,28.10148 L 273.093525179856,285 Z" style="fill:gold;stroke:black;stroke-width:0.5;" />
	<line stroke="black" stroke-width="2" x1="270.503597122302" x2="270.503597122302" y1="285" y2="284" />
	<path d="M 273.093525179856,285 L 273.093525179856,43.4029199999999 L 278.273381294964,43.4029199999999 L 278.273381294964,285 Z" style="fill:gold;stroke:black;stroke-width:0.5;" />
	<path d="M 278.273381294964,285 L 278.273381294964,284.24832 L 283.453237410072,284.24832 L 283.453237410072,285 Z" style="fill:blue;stroke:black;stroke-width:0.5;" />
	<path d="M 283.453237410072,285 L 283.453237410072,284.9568 L 288.63309352518,284.9568 L 288.63309352518,285 Z" style="fill:blue;stroke:black;stroke-width:0.5;" />
	<path d="M 288.63309352518,285 L 288.63309352518,284.9568 L 293.812949640288,284.9568 L 293.812949640288,285 Z" style="fill:blue;stroke:black;stroke-width:0.5;" />
	<path d="M 293.812949640288,285 L 293.812949640288,284.96544 L 298.992805755396,284.96544 L 298.992805755396,285 Z" style="fill:blue;stroke:black;stroke-width:0.5;" />
	<text font-size="10" x="293.812949640288" y="297">50</text>
	<line stroke="black" stroke-width="2" x1="296.402877697842" x2="296.402877697842" y1="285" y2="283" />
	<line stroke="black" stroke-width="2" x1="296.402877697842" x2="296.402877697842" y1="285" y2="284" />
	<path d="M 298.992805755396,285 L 298.992805755396,284.97408 L 304.172661870504,284.97408 L 304.172661870504,285 Z" style="fill:blue;stroke:black;stroke-width:0.5;" />
	<path d="M 304.172661870504,285 L 304.172661870504,284.97408 L 309.352517985611,284.97408 L 309.352517985611,285 Z" style="fill:blue;stroke:black;stroke-width:0.5;" />
	<path d="M 309.352517985611,285 L 309.352517985611,284.98272 L 314.532374100719,284.98272 L 314.532374100719,285 Z" style="fill:blue;stroke:black;stroke-width:0.5;" />
	<path d="M 314.532374100719,285 L 314.532374100719,284.98272 L 319.712230215827,284.98272 L 319.712230215827,285 Z" style="fill:blue;stroke:black;stroke-width:0.5;" />
	<path d="M 319.712230215827,285 L 319.712230215827,284.98272 L 324.892086330935,284.98272 L 324.892086330935,285 Z" style="fill:blue;stroke:black;stroke-width:0.5;" />
	<line stroke="black" stroke-width="2" x1="322.302158273381" x2="322.302158273381" y1="285" y2="284" />
	<path d="M 324.892086330935,285 L 324.892086330935,284.98272 L 330.071942446043,284.98272 L 330.071942446043,285 Z" style="fill:blue;stroke:black;stroke-width:0.5;" />
	<path d="M 330.071942446043,285 L 330.071942446043,284.98272 L 335.251798561151,284.98272 L 335.251798561151,285 Z" style="fill:blue;stroke:black;stroke-width:0.5;" />
	<path d="M 335.251798561151,285 L 335.251798561151,284.98272 L 340.431654676259,284.98272 L 340.431654676259,285 Z" style="fill:blue;stroke:black;stroke-width:0.5;" />
	<path d="M 340.431654676259,285 L 340.431654676259,284.98272 L 345.611510791367,284.98272 L 345.611510791367,285 Z" style="fill:blue;stroke:black;stroke-width:0.5;" />
	<path d="M 345.611510791367,285 L 345.611510791367,284.98272 L 350.791366906475,284.98272 L 350.791366906475,285 Z" style="fill:blue;stroke:black;stroke-width:0.5;" />
	<text font-size="10" x="345.611510791367" y="297">60</text>
	<line stroke="black" stroke-width="2" x1="348.201438848921" x2="348.201438848921" y1="285" y2="283" />
	<line stroke="black" stroke-width="2" x1="348.201438848921" x2="348.201438848921" y1="285" y2="284" />
	<path d="M 350.791366906475,285 L 350.791366906475,284.98272 L 355.971223021583,284.98272 L 355.971223021583,285 Z" style="fill:blue;stroke:black;stroke-width:0.5;" />
	<path d="M 355.971223021583,285 L 355.971223021583,284.98272 L 361.151079136691,284.98272 L 361.151079136691,285 Z" style="fill:blue;stroke:black;stroke-width:0.5;" />
	<path d="M 361.151079136691,285 L 361.151079136691,284.98272 L 366.330935251799,284.98272 L 366.330935251799,285 Z" style="fill:blue;stroke:black;stroke-width:0.5;" />
	<path d="M 366.330935251799,285 L 366.330935251799,284.98272 L 371.510791366906,284.98272 L 371.510791366906,285 Z" style="fill:blue;stroke:black;stroke-width:0.5;" />
	<path d="M 371.510791366906,285 L 371.510791366906,284.98272 L 376.690647482014,284.98272 L 376.690647482014,285 Z" style="fill:blue;stroke:black;stroke-width:0.5;" />
	<line stroke="black" stroke-width="2" x1="374.10071942446" x2="374.10071942446" y1="285" y2="284" />
	<path d="M 376.690647482014,285 L 376.690647482014,284.99136 L 381.870503597122,284.99136 L 381.870503597122,285 Z" style="fill:blue;stroke:black;stroke-width:0.5;" />
	<path d="M 381.870503597122,285 L 381.870503597122,284.99136 L 387.05035971223,284.99136 L 387.05035971223,285 Z" style="fill:blue;stroke:black;stroke-width:0.5;" />
	<path d="M 387.05035971223,285 L 387.05035971223,284.98272 L 392.230215827338,284.98272 L 392.230215827338,285 Z" style="fill:blue;stroke:black;stroke-width:0.5;" />
	<path d="M 392.230215827338,285 L 392.230215827338,284.98272 L 397.410071942446,284.98272 L 397.410071942446,285 Z" style="fill:blue;stroke:black;stroke-width:0.5;" />
	<path d="M 397.410071942446,285 L 397.410071942446,284.98272 L 402.589928057554,284.98272 L 402.589928057554,285 Z" style="fill:blue;stroke:black;stroke-width:0.5;" />
	<text font-size="10" x="397.410071942446" y="297">70</text>
	<line stroke="black" stroke-width="2" x1="400" x2="400" y1="285" y2="283" />
	<line stroke="black" stroke-width="2" x1="400" x2="400" y1="285" y2="284" />
	<path d="M 402.589928057554,285 L 402.589928057554,284.96544 L 407.769784172662,284.96544 L 407.769784172662,285 Z" style="fill:blue;stroke:black;stroke-width:0.5;" />
	<path d="M 407.769784172662,285 L 407.769784172662,284.94816 L 412.94964028777,284.94816 L 412.94964028777,285 Z" style="fill:blue;stroke:black;stroke-width:0.5;" />
	<path d="M 412.94964028777,285 L 412.94964028777,284.94816 L 418.129496402878,284.94816 L 418.129496402878,285 Z" style="fill:blue;stroke:black;stroke-width:0.5;" />
	<path d="M 418.129496402878,285 L 418.129496402878,284.93952 L 423.309352517986,284.93952 L 423.309352517986,285 Z" style="fill:blue;stroke:black;stroke-width:0.5;" />
	<path d="M 423.309352517986,285 L 423.309352517986,284.93952 L 428.489208633093,284.93952 L 428.489208633093,285 Z" style="fill:blue;stroke:black;stroke-width:0.5;" />
	<line stroke="black" stroke-width="2" x1="425.89928057554" x2="425.89928057554" y1="285" y2="284" />
	<path d="M 428.489208633093,285 L 428.489208633093,284.93088 L 433.669064748201,284.93088 L 433.669064748201,285 Z" style="fill:blue;stroke:black;stroke-width:0.5;" />
	<path d="M 433.669064748201,285 L 433.669064748201,284.93088 L 438.848920863309,284.93088 L 438.848920863309,285 Z" style="fill:blue;stroke:black;stroke-width:0.5;" />
	<path d="M 438.848920863309,285 L 438.848920863309,284.93088 L 444.028776978417,284.93088 L 444.028776978417,285 Z" style="fill:blue;stroke:black;stroke-width:0.5;" />
	<path d="M 444.028776978417,285 L 444.028776978417,284.90442 L 449.208633093525,284.90442 L 449.208633093525,285 Z" style="fill:blue;stroke:black;stroke-width:0.5;" />
	<path d="M 449.208633093525,285 L 449.208633093525,284.90442 L 454.388489208633,284.90442 L 454.388489208633,285 Z" style="fill:blue;stroke:black;stroke-width:0.5;" />
	<text font-size="10" x="449.208633093525" y="297">80</text>
	<line stroke="black" stroke-width="2" x1="451.798561151079" x2="451.798561151079" y1="285" y2="283" />
	<line stroke="black" stroke-width="2" x1="451.798561151079" x2="451.798561151079" y1="285" y2="284" />
	<path d="M 454.388489208633,285 L 454.388489208633,284.90442 L 459.568345323741,284.90442 L 459.568345323741,285 Z" style="fill:blue;stroke:black;stroke-width:0.5;" />
	<path d="M 459.568345323741,285 L 459.568345323741,284.90442 L 464.748201438849,284.90442 L 464.748201438849,285 Z" style="fill:blue;stroke:black;stroke-width:0.5;" />
	<path d="M 464.748201438849,285 L 464.748201438849,284.90442 L 469.928057553957,284.90442 L 469.928057553957,285 Z" style="fill:blue;stroke:black;stroke-width:0.5;" />
	<path d="M 469.928057553957,285 L 469.928057553957,284.90442 L 475.107913669065,284.90442 L 475.107913669065,285 Z" style="fill:blue;stroke:black;stroke-width:0.5;" />
	<path d="M 475.107913669065,285 L 475.107913669065,284.90442 L 480.287769784173,284.90442 L 480.287769784173,285 Z" style="fill:blue;stroke:black;stroke-width:0.5;" />
	<line stroke="black" stroke-width="2" x1="477.697841726619" x2="477.697841726619" y1="285" y2="284" />
	<path d="M 480.287769784173,285 L 480.287769784173,284.91306 L 485.467625899281,284.91306 L 485.467625899281,285 Z" style="fill:blue;stroke:black;stroke-width:0.5;" />
	<path d="M 485.467625899281,285 L 485.467625899281,284.79912 L 490.647482014388,284.79912 L 490.647482014388,285 Z" style="fill:blue;stroke:black;stroke-width:0.5;" />
	<path d="M 490.647482014388,285 L 490.647482014388,284.22132 L 495.827338129496,284.22132 L 495.827338129496,285 Z" style="fill:gold;stroke:black;stroke-width:0.5;" />
	<path d="M 495.827338129496,285 L 495.827338129496,283.68672 L 501.007194244604,283.68672 L 501.007194244604,285 Z" style="fill:gold;stroke:black;stroke-width:0.5;" />
	<path d="M 501.007194244604,285 L 501.007194244604,283.66944 L 506.187050359712,283.66944 L 506.187050359712,285 Z" style="fill:gold;stroke:black;stroke-width:0.5;" />
	<text font-size="10" x="501.007194244604" y="297">90</text>
	<line stroke="black" stroke-width="2" x1="503.597122302158" x2="503.597122302158" y1="285" y2="283" />
	<line stroke="black" stroke-width="2" x1="503.597122302158" x2="503.597122302158" y1="285" y2="284" />
	<path d="M 506.187050359712,285 L 506.187050359712,283.63488 L 511.36690647482,283.63488 L 511.36690647482,285 Z" style="fill:gold;stroke:black;stroke-width:0.5;" />
	<path d="M 511.36690647482,285 L 511.36690647482,283.59168 L 516.546762589928,283.59168 L 516.546762589928,285 Z" style="fill:gold;stroke:black;stroke-width:0.5;" />
	<path d="M 516.546762589928,285 L 516.546762589928,283.5744 L 521.726618705036,283.5744 L 521.726618705036,285 Z" style="fill:gold;stroke:black;stroke-width:0.5;" />
	<path d="M 521.726618705036,285 L 521.726618705036,283.5744 L 526.906474820144,283.5744 L 526.906474820144,285 Z" style="fill:gold;stroke:black;stroke-width:0.5;" />
	<path d="M 526.906474820144,285 L 526.906474820144,283.55712 L 532.086330935252,283.55712 L 532.086330935252,285 Z" style="fill:gold;stroke:black;stroke-width:0.5;" />
	<line stroke="black" stroke-width="2" x1="529.496402877698" x2="529.496402877698" y1="285" y2="284" />
	<path d="M 532.086330935252,285 L 532.086330935252,283.55712 L 537.26618705036,283.55712 L 537.26618705036,285 Z" style="fill:gold;stroke:black;stroke-width:0.5;" />
	<path d="M 537.26618705036,285 L 537.26618705036,283.55712 L 542.446043165468,283.55712 L 542.446043165468,285 Z" style="fill:gold;stroke:black;stroke-width:0.5;" />
	<path d="M 542.446043165468,285 L 542.446043165468,283.54848 L 547.625899280576,283.54848 L 547.625899280576,285 Z" style="fill:gold;stroke:black;stroke-width:0.5;" />
	<path d="M 547.625899280576,285 L 547.625899280576,283.53984 L 552.805755395683,283.53984 L 552.805755395683,285 Z" style="fill:gold;stroke:black;stroke-width:0.5;" />
	<path d="M 552.805755395683,285 L 552.805755395683,283.5744 L 557.985611510791,283.5744 L 557.985611510791,285 Z" style="fill:gold;stroke:black;stroke-width:0.5;" />
	<text font-size="10" x="552.805755395683" y="297">100</text>
	<line stroke="black" stroke-width="2" x1="555.395683453237" x2="555.395683453237" y1="285" y2="283" />
	<line stroke="black" stroke-width="2" x1="555.395683453237" x2="555.395683453237" y1="285" y2="284" />
	<path d="M 557.985611510791,285 L 557.985611510791,283.58304 L 563.165467625899,283.58304 L 563.165467625899,285 Z" style="fill:gold;stroke:black;stroke-width:0.5;" />
	<path d="M 563.165467625899,285 L 563.165467625899,283.60032 L 568.345323741007,283.60032 L 568.345323741007,285 Z" style="fill:gold;stroke:black;stroke-width:0.5;" />
	<path d="M 568.345323741007,285 L 568.345323741007,283.62678 L 573.525179856115,283.62678 L 573.525179856115,285 Z" style="fill:gold;stroke:black;stroke-width:0.5;" />
	<path d="M 573.525179856115,285 L 573.525179856115,283.62678 L 578.705035971223,283.62678 L 578.705035971223,285 Z" style="fill:gold;stroke:black;stroke-width:0.5;" />
	<path d="M 578.705035971223,285 L 578.705035971223,283.62678 L 583.884892086331,283.62678 L 583.884892086331,285 Z" style="fill:gold;stroke:black;stroke-width:0.5;" />
	<line stroke="black" stroke-width="2" x1="581.294964028777" x2="581.294964028777" y1="285" y2="284" />
	<path d="M 583.884892086331,285 L 583.884892086331,283.62678 L 589.064748201439,283.62678 L 589.064748201439,285 Z" style="fill:gold;stroke:black;stroke-width:0.5;" />
	<path d="M 589.064748201439,285 L 589.064748201439,283.63542 L 594.244604316547,283.63542 L 594.244604316547,285 Z" style="fill:gold;stroke:black;stroke-width:0.5;" />
	<path d="M 594.244604316547,285 L 594.244604316547,283.8282 L 599.424460431655,283.8282 L 599.424460431655,285 Z" style="fill:gold;stroke:black;stroke-width:0.5;" />
	<path d="M 599.424460431655,285 L 599.424460431655,284.42328 L 604.604316546763,284.42328 L 604.604316546763,285 Z" style="fill:blue;stroke:black;stroke-width:0.5;" />
	<path d="M 604.604316546763,285 L 604.604316546763,284.88768 L 609.78417266187,284.88768 L 609.78417266187,285 Z" style="fill:blue;stroke:black;stroke-width:0.5;" />
	<text font-size="10" x="604.604316546763" y="297">110</text>
	<line stroke="black" stroke-width="2" x1="607.194244604317" x2="607.194244604317" y1="285" y2="283" />
	<line stroke="black" stroke-width="2" x1="607.194244604317" x2="607.194244604317" y1="285" y2="284" />
	<path d="M 609.78417266187,285 L 609.78417266187,284.90496 L 614.964028776978,284.90496 L 614.964028776978,285 Z" style="fill:blue;stroke:black;stroke-width:0.5;" />
	<path d="M 614.964028776978,285 L 614.964028776978,284.92224 L 620.143884892086,284.92224 L 620.143884892086,285 Z" style="fill:blue;stroke:black;stroke-width:0.5;" />
	<path d="M 620.143884892086,285 L 620.143884892086,284.92224 L 625.323741007194,284.92224 L 625.323741007194,285 Z" style="fill:blue;stroke:black;stroke-width:0.5;" />
	<path d="M 625.323741007194,285 L 625.323741007194,284.92224 L 630.503597122302,284.92224 L 630.503597122302,285 Z" style="fill:blue;stroke:black;stroke-width:0.5;" />
	<path d="M 630.503597122302,285 L 630.503597122302,284.93088 L 635.68345323741,284.93088 L 635.68345323741,285 Z" style="fill:blue;stroke:black;stroke-width:0.5;" />
	<line stroke="black" stroke-width="2" x1="633.093525179856" x2="633.093525179856" y1="285" y2="284" />
	<path d="M 635.68345323741,285 L 635.68345323741,284.9568 L 640.863309352518,284.9568 L 640.863309352518,285 Z" style="fill:blue;stroke:black;stroke-width:0.5;" />
	<path d="M 640.863309352518,285 L 640.863309352518,284.97408 L 646.043165467626,284.97408 L 646.043165467626,285 Z" style="fill:blue;stroke:black;stroke-width:0.5;" />
	<path d="M 646.043165467626,285 L 646.043165467626,284.99136 L 651.223021582734,284.99136 L 651.223021582734,285 Z" style="fill:blue;stroke:black;stroke-width:0.5;" />
	<path d="M 651.223021582734,285 L 651.223021582734,284.99136 L 656.402877697842,284.99136 L 656.402877697842,285 Z" style="fill:blue;stroke:black;stroke-width:0.5;" />
	<path d="M 656.402877697842,285 L 656.402877697842,284.99136 L 661.58273381295,284.99136 L 661.58273381295,285 Z" style="fill:blue;stroke:black;stroke-width:0.5;" />
	<text font-size="10" x="656.402877697842" y="297">120</text>
	<line stroke="black" stroke-width="2" x1="658.992805755396" x2="658.992805755396" y1="285" y2="283" />
	<line stroke="black" stroke-width="2" x1="658.992805755396" x2="658.992805755396" y1="285" y2="284" />
	<path d="M 661.58273381295,285 L 661.58273381295,285 L 666.762589928058,285 L 666.762589928058,285 Z" style="fill:blue;stroke:black;stroke-width:0.5;" />
	<path d="M 666.762589928058,285 L 666.762589928058,285 L 671.942446043165,285 L 671.942446043165,285 Z" style="fill:blue;stroke:black;stroke-width:0.5;" />
	<path d="M 671.942446043165,285 L 671.942446043165,285 L 677.122302158273,285 L 677.122302158273,285 Z" style="fill:blue;stroke:black;stroke-width:0.5;" />
	<path d="M 677.122302158273,285 L 677.122302158273,285 L 682.302158273381,285 L 682.302158273381,285 Z" style="fill:blue;stroke:black;stroke-width:0.5;" />
	<path d="M 682.302158273381,285 L 682.302158273381,285 L 687.482014388489,285 L 687.482014388489,285 Z" style="fill:blue;stroke:black;stroke-width:0.5;" />
	<line stroke="black" stroke-width="2" x1="684.892086330935" x2="684.892086330935" y1="285" y2="284" />
	<path d="M 687.482014388489,285 L 687.482014388489,285 L 692.661870503597,285 L 692.661870503597,285 Z" style="fill:blue;stroke:black;stroke-width:0.5;" />
	<path d="M 692.661870503597,285 L 692.661870503597,285 L 697.841726618705,285 L 697.841726618705,285 Z" style="fill:blue;stroke:black;stroke-width:0.5;" />
	<path d="M 697.841726618705,285 L 697.841726618705,285 L 703.021582733813,285 L 703.021582733813,285 Z" style="fill:blue;stroke:black;stroke-width:0.5;" />
	<path d="M 703.021582733813,285 L 703.021582733813,285 L 708.201438848921,285 L 708.201438848921,285 Z" style="fill:blue;stroke:black;stroke-width:0.5;" />
	<path d="M 708.201438848921,285 L 708.201438848921,285 L 713.381294964029,285 L 713.381294964029,285 Z" style="fill:blue;stroke:black;stroke-width:0.5;" />
	<text font-size="10" x="708.201438848921" y="297">130</text>
	<line stroke="black" stroke-width="2" x1="710.791366906475" x2="710.791366906475" y1="285" y2="283" />
	<line stroke="black" stroke-width="2" x1="710.791366906475" x2="710.791366906475" y1="285" y2="284" />
	<path d="M 713.381294964029,285 L 713.381294964029,285 L 718.561151079137,285 L 718.561151079137,285 Z" style="fill:blue;stroke:black;stroke-width:0.5;" />
	<path d="M 718.561151079137,285 L 718.561151079137,285 L 723.741007194245,285 L 723.741007194245,285 Z" style="fill:blue;stroke:black;stroke-width:0.5;" />
	<path d="M 723.741007194245,285 L 723.741007194245,285 L 728.920863309353,285 L 728.920863309353,285 Z" style="fill:blue;stroke:black;stroke-width:0.5;" />
	<path d="M 728.920863309353,285 L 728.920863309353,285 L 734.10071942446,285 L 734.10071942446,285 Z" style="fill:blue;stroke:black;stroke-width:0.5;" />
	<path d="M 734.10071942446,285 L 734.10071942446,285 L 739.280575539568,285 L 739.280575539568,285 Z" style="fill:blue;stroke:black;stroke-width:0.5;" />
	<line stroke="black" stroke-width="2" x1="736.690647482014" x2="736.690647482014" y1="285" y2="284" />
	<path d="M 739.280575539568,285 L 739.280575539568,285 L 744.460431654676,285 L 744.460431654676,285 Z" style="fill:blue;stroke:black;stroke-width:0.5;" />
	<path d="M 744.460431654676,285 L 744.460431654676,285 L 749.640287769784,285 L 749.640287769784,285 Z" style="fill:blue;stroke:black;stroke-width:0.5;" />
	<path d="M 749.640287769784,285 L 749.640287769784,285 L 754.820143884892,285 L 754.820143884892,285 Z" style="fill:blue;stroke:black;stroke-width:0.5;" />
	<path d="M 754.820143884892,285 L 754.820143884892,285 L 760,285 L 760,285 Z" style="fill:blue;stroke:black;stroke-width:0.5;" />
	<!-- 
	Generated using the Perl SVG Module V2.50
	by Ronan Oger
	Info: http://www.roitsystems.com/
 -->
</svg>