<?xml version="1.0" encoding="UTF-8" standalone="yes"?>
<!DOCTYPE svg PUBLIC "-//W3C//DTD SVG 1.0//EN" "http://www.w3.org/TR/2001/REC-SVG-20010904/DTD/svg10.dtd">
<svg height="300" width="800" xmlns="http://www.w3.org/2000/svg" xmlns:svg="http://www.w3.org/2000/svg" xmlns:xlink="http://www.w3.org/1999/xlink">
	<line stroke="black" stroke-width="2" x1="40" x2="40" y1="15" y2="285" />
	<line stroke="black" stroke-width="2" x1="40" x2="44.6451612903226" y1="231" y2="231" />
	<text font-size="12" x="46.9677419354839" y="231">10</text>
	<line stroke="black" stroke-width="2" x1="40" x2="44.6451612903226" y1="177" y2="177" />
	<text font-size="12" x="46.9677419354839" y="177">20</text>
	<line stroke="black" stroke-width="2" x1="40" x2="44.6451612903226" y1="123" y2="123" />
	<text font-size="12" x="46.9677419354839" y="123">30</text>
	<line stroke="black" stroke-width="2" x1="40" x2="44.6451612903226" y1="69" y2="69" />
	<text font-size="12" x="46.9677419354839" y="69">40</text>
	<line stroke="black" stroke-width="2" x1="40" x2="44.6451612903226" y1="15" y2="15" />
	<text font-size="12" x="46.9677419354839" y="15">50</text>
	<line stroke="black" stroke-width="2" x1="40" x2="800" y1="285" y2="285" />
	<path d="M 40,285 L 40,285 L 44.6451612903226,285 L 44.6451612903226,285 Z" style="fill:blue;stroke:black;stroke-width:0.5;" />
	<path d="M 44.6451612903226,285 L 44.6451612903226,285 L 49.2903225806452,285 L 49.2903225806452,285 Z" style="fill:blue;stroke:black;stroke-width:0.5;" />
	<path d="M 49.2903225806452,285 L 49.2903225806452,285 L 53.9354838709677,285 L 53.9354838709677,285 Z" style="fill:blue;stroke:black;stroke-width:0.5;" />
	<path d="M 53.9354838709677,285 L 53.9354838709677,285 L 58.5806451612903,285 L 58.5806451612903,285 Z" style="fill:blue;stroke:black;stroke-width:0.5;" />
	<path d="M 58.5806451612903,285 L 58.5806451612903,285 L 63.2258064516129,285 L 63.2258064516129,285 Z" style="fill:blue;stroke:black;stroke-width:0.5;" />
	<line stroke="black" stroke-width="2" x1="60.9032258064516" x2="60.9032258064516" y1="285" y2="284" />
	<path d="M 63.2258064516129,285 L 63.2258064516129,285 L 67.8709677419355,285 L 67.8709677419355,285 Z" style="fill:blue;stroke:black;stroke-width:0.5;" />
	<path d="M 67.8709677419355,285 L 67.8709677419355,285 L 72.5161290322581,285 L 72.5161290322581,285 Z" style="fill:blue;stroke:black;stroke-width:0.5;" />
	<path d="M 72.5161290322581,285 L 72.5161290322581,285 L 77.1612903225806,285 L 77.1612903225806,285 Z" style="fill:blue;stroke:black;stroke-width:0.5;" />
	<path d="M 77.1612903225806,285 L 77.1612903225806,285 L 81.8064516129032,285 L 81.8064516129032,285 Z" style="fill:blue;stroke:black;stroke-width:0.5;" />
	<path d="M 81.8064516129032,285 L 81.8064516129032,285 L 86.4516129032258,285 L 86.4516129032258,285 Z" style="fill:blue;stroke:black;stroke-width:0.5;" />
	<text font-size="10" x="81.8064516129032" y="297">10</text>
	<line stroke="black" stroke-width="2" x1="84.1290322580645" x2="84.1290322580645" y1="285" y2="283" />
	<line stroke="black" stroke-width="2" x1="84.1290322580645" x2="84.1290322580645" y1="285" y2="284" />
	<path d="M 86.4516129032258,285 L 86.4516129032258,285 L 91.0967741935484,285 L 91.0967741935484,285 Z" style="fill:blue;stroke:black;stroke-width:0.5;" />
	<path d="M 91.0967741935484,285 L 91.0967741935484,285 L 95.741935483871,285 L 95.741935483871,285 Z" style="fill:blue;stroke:black;stroke-width:0.5;" />
	<path d="M 95.741935483871,285 L 95.741935483871,285 L 100.387096774194,285 L 100.387096774194,285 Z" style="fill:blue;stroke:black;stroke-width:0.5;" />
	<path d="M 100.387096774194,285 L 100.387096774194,285 L 105.032258064516,285 L 105.032258064516,285 Z" style="fill:blue;stroke:black;stroke-width:0.5;" />
	<path d="M 105.032258064516,285 L 105.032258064516,285 L 109.677419354839,285 L 109.677419354839,285 Z" style="fill:blue;stroke:black;stroke-width:0.5;" />
	<line stroke="black" stroke-width="2" x1="107.354838709677" x2="107.354838709677" y1="285" y2="284" />
	<path d="M 109.677419354839,285 L 109.677419354839,285 L 114.322580645161,285 L 114.322580645161,285 Z" style="fill:blue;stroke:black;stroke-width:0.5;" />
	<path d="M 114.322580645161,285 L 114.322580645161,285 L 118.967741935484,285 L 118.967741935484,285 Z" style="fill:blue;stroke:black;stroke-width:0.5;" />
	<path d="M 118.967741935484,285 L 118.967741935484,285 L 123.612903225806,285 L 123.612903225806,285 Z" style="fill:blue;stroke:black;stroke-width:0.5;" />
	<path d="M 123.612903225806,285 L 123.612903225806,285 L 128.258064516129,285 L 128.258064516129,285 Z" style="fill:blue;stroke:black;stroke-width:0.5;" />
	<path d="M 128.258064516129,285 L 128.258064516129,285 L 132.903225806452,285 L 132.903225806452,285 Z" style="fill:blue;stroke:black;stroke-width:0.5;" />
	<text font-size="10" x="128.258064516129" y="297">20</text>
	<line stroke="black" stroke-width="2" x1="130.58064516129" x2="130.58064516129" y1="285" y2="283" />
	<line stroke="black" stroke-width="2" x1="130.58064516129" x2="130.58064516129" y1="285" y2="284" />
	<path d="M 132.903225806452,285 L 132.903225806452,285 L 137.548387096774,285 L 137.548387096774,285 Z" style="fill:blue;stroke:black;stroke-width:0.5;" />
	<path d="M 137.548387096774,285 L 137.548387096774,285 L 142.193548387097,285 L 142.193548387097,285 Z" style="fill:blue;stroke:black;stroke-width:0.5;" />
	<path d="M 142.193548387097,285 L 142.193548387097,284.136 L 146.838709677419,284.136 L 146.838709677419,285 Z" style="fill:blue;stroke:black;stroke-width:0.5;" />
	<path d="M 146.838709677419,285 L 146.838709677419,284.136 L 151.483870967742,284.136 L 151.483870967742,285 Z" style="fill:blue;stroke:black;stroke-width:0.5;" />
	<path d="M 151.483870967742,285 L 151.483870967742,284.136 L 156.129032258065,284.136 L 156.129032258065,285 Z" style="fill:blue;stroke:black;stroke-width:0.5;" />
	<line stroke="black" stroke-width="2" x1="153.806451612903" x2="153.806451612903" y1="285" y2="284" />
	<path d="M 156.129032258065,285 L 156.129032258065,284.136 L 160.774193548387,284.136 L 160.774193548387,285 Z" style="fill:blue;stroke:black;stroke-width:0.5;" />
	<path d="M 160.774193548387,285 L 160.774193548387,284.136 L 165.41935483871,284.136 L 165.41935483871,285 Z" style="fill:blue;stroke:black;stroke-width:0.5;" />
	<path d="M 165.41935483871,285 L 165.41935483871,284.136 L 170.064516129032,284.136 L 170.064516129032,285 Z" style="fill:blue;stroke:black;stroke-width:0.5;" />
	<path d="M 170.064516129032,285 L 170.064516129032,284.136 L 174.709677419355,284.136 L 174.709677419355,285 Z" style="fill:blue;stroke:black;stroke-width:0.5;" />
	<path d="M 174.709677419355,285 L 174.709677419355,284.136 L 179.354838709677,284.136 L 179.354838709677,285 Z" style="fill:blue;stroke:black;stroke-width:0.5;" />
	<text font-size="10" x="174.709677419355" y="297">30</text>
	<line stroke="black" stroke-width="2" x1="177.032258064516" x2="177.032258064516" y1="285" y2="283" />
	<line stroke="black" stroke-width="2" x1="177.032258064516" x2="177.032258064516" y1="285" y2="284" />
	<path d="M 179.354838709677,285 L 179.354838709677,284.136 L 184,284.136 L 184,285 Z" style="fill:blue;stroke:black;stroke-width:0.5;" />
	<path d="M 184,285 L 184,284.136 L 188.645161290323,284.136 L 188.645161290323,285 Z" style="fill:blue;stroke:black;stroke-width:0.5;" />
	<path d="M 188.645161290323,285 L 188.645161290323,284.136 L 193.290322580645,284.136 L 193.290322580645,285 Z" style="fill:blue;stroke:black;stroke-width:0.5;" />
	<path d="M 193.290322580645,285 L 193.290322580645,284.136 L 197.935483870968,284.136 L 197.935483870968,285 Z" style="fill:blue;stroke:black;stroke-width:0.5;" />
	<path d="M 197.935483870968,285 L 197.935483870968,284.136 L 202.58064516129,284.136 L 202.58064516129,285 Z" style="fill:blue;stroke:black;stroke-width:0.5;" />
	<line stroke="black" stroke-width="2" x1="200.258064516129" x2="200.258064516129" y1="285" y2="284" />
	<path d="M 202.58064516129,285 L 202.58064516129,284.136 L 207.225806451613,284.136 L 207.225806451613,285 Z" style="fill:blue;stroke:black;stroke-width:0.5;" />
	<path d="M 207.225806451613,285 L 207.225806451613,284.136 L 211.870967741935,284.136 L 211.870967741935,285 Z" style="fill:blue;stroke:black;stroke-width:0.5;" />
	<path d="M 211.870967741935,285 L 211.870967741935,284.136 L 216.516129032258,284.136 L 216.516129032258,285 Z" style="fill:blue;stroke:black;stroke-width:0.5;" />
	<path d="M 216.516129032258,285 L 216.516129032258,284.136 L 221.161290322581,284.136 L 221.161290322581,285 Z" style="fill:blue;stroke:black;stroke-width:0.5;" />
	<path d="M 221.161290322581,285 L 221.161290322581,284.136 L 225.806451612903,284.136 L 225.806451612903,285 Z" style="fill:blue;stroke:black;stroke-width:0.5;" />
	<text font-size="10" x="221.161290322581" y="297">40</text>
	<line stroke="black" stroke-width="2" x1="223.483870967742" x2="223.483870967742" y1="285" y2="283" />
	<line stroke="black" stroke-width="2" x1="223.483870967742" x2="223.483870967742" y1="285" y2="284" />
	<path d="M 225.806451612903,285 L 225.806451612903,284.136 L 230.451612903226,284.136 L 230.451612903226,285 Z" style="fill:blue;stroke:black;stroke-width:0.5;" />
	<path d="M 230.451612903226,285 L 230.451612903226,284.136 L 235.096774193548,284.136 L 235.096774193548,285 Z" style="fill:blue;stroke:black;stroke-width:0.5;" />
	<path d="M 235.096774193548,285 L 235.096774193548,284.136 L 239.741935483871,284.136 L 239.741935483871,285 Z" style="fill:blue;stroke:black;stroke-width:0.5;" />
	<path d="M 239.741935483871,285 L 239.741935483871,284.136 L 244.387096774194,284.136 L 244.387096774194,285 Z" style="fill:blue;stroke:black;stroke-width:0.5;" />
	<path d="M 244.387096774194,285 L 244.387096774194,284.136 L 249.032258064516,284.136 L 249.032258064516,285 Z" style="fill:blue;stroke:black;stroke-width:0.5;" />
	<line stroke="black" stroke-width="2" x1="246.709677419355" x2="246.709677419355" y1="285" y2="284" />
	<path d="M 249.032258064516,285 L 249.032258064516,284.136 L 253.677419354839,284.136 L 253.677419354839,285 Z" style="fill:blue;stroke:black;stroke-width:0.5;" />
	<path d="M 253.677419354839,285 L 253.677419354839,285 L 258.322580645161,285 L 258.322580645161,285 Z" style="fill:blue;stroke:black;stroke-width:0.5;" />
	<path d="M 258.322580645161,285 L 258.322580645161,285 L 262.967741935484,285 L 262.967741935484,285 Z" style="fill:blue;stroke:black;stroke-width:0.5;" />
	<path d="M 262.967741935484,285 L 262.967741935484,285 L 267.612903225806,285 L 267.612903225806,285 Z" style="fill:blue;stroke:black;stroke-width:0.5;" />
	<path d="M 267.612903225806,285 L 267.612903225806,134.448 L 272.258064516129,134.448 L 272.258064516129,285 Z" style="fill:gold;stroke:black;stroke-width:0.5;" />
	<text font-size="10" x="267.612903225806" y="297">50</text>
	<line stroke="black" stroke-width="2" x1="269.935483870968" x2="269.935483870968" y1="285" y2="283" />
	<line stroke="black" stroke-width="2" x1="269.935483870968" x2="269.935483870968" y1="285" y2="284" />
	<path d="M 272.258064516129,285 L 272.258064516129,133.584 L 276.903225806452,133.584 L 276.903225806452,285 Z" style="fill:gold;stroke:black;stroke-width:0.5;" />
	<path d="M 276.903225806452,285 L 276.903225806452,133.584 L 281.548387096774,133.584 L 281.548387096774,285 Z" style="fill:gold;stroke:black;stroke-width:0.5;" />
	<path d="M 281.548387096774,285 L 281.548387096774,133.584 L 286.193548387097,133.584 L 286.193548387097,285 Z" style="fill:gold;stroke:black;stroke-width:0.5;" />
	<path d="M 286.193548387097,285 L 286.193548387097,125.7 L 290.838709677419,125.7 L 290.838709677419,285 Z" style="fill:gold;stroke:black;stroke-width:0.5;" />
	<path d="M 290.838709677419,285 L 290.838709677419,123.972 L 295.483870967742,123.972 L 295.483870967742,285 Z" style="fill:gold;stroke:black;stroke-width:0.5;" />
	<line stroke="black" stroke-width="2" x1="293.161290322581" x2="293.161290322581" y1="285" y2="284" />
	<path d="M 295.483870967742,285 L 295.483870967742,123.972 L 300.129032258065,123.972 L 300.129032258065,285 Z" style="fill:gold;stroke:black;stroke-width:0.5;" />
	<path d="M 300.129032258065,285 L 300.129032258065,123.972 L 304.774193548387,123.972 L 304.774193548387,285 Z" style="fill:gold;stroke:black;stroke-width:0.5;" />
	<path d="M 304.774193548387,285 L 304.774193548387,123.972 L 309.41935483871,123.972 L 309.41935483871,285 Z" style="fill:gold;stroke:black;stroke-width:0.5;" />
	<path d="M 309.41935483871,285 L 309.41935483871,123.972 L 314.064516129032,123.972 L 314.064516129032,285 Z" style="fill:gold;stroke:black;stroke-width:0.5;" />
	<path d="M 314.064516129032,285 L 314.064516129032,123.972 L 318.709677419355,123.972 L 318.709677419355,285 Z" style="fill:gold;stroke:black;stroke-width:0.5;" />
	<text font-size="10" x="314.064516129032" y="297">60</text>
	<line stroke="black" stroke-width="2" x1="316.387096774194" x2="316.387096774194" y1="285" y2="283" />
	<line stroke="black" stroke-width="2" x1="316.387096774194" x2="316.387096774194" y1="285" y2="284" />
	<path d="M 318.709677419355,285 L 318.709677419355,123.972 L 323.354838709677,123.972 L 323.354838709677,285 Z" style="fill:gold;stroke:black;stroke-width:0.5;" />
	<path d="M 323.354838709677,285 L 323.354838709677,123.972 L 328,123.972 L 328,285 Z" style="fill:gold;stroke:black;stroke-width:0.5;" />
	<path d="M 328,285 L 328,123.972 L 332.645161290323,123.972 L 332.645161290323,285 Z" style="fill:gold;stroke:black;stroke-width:0.5;" />
	<path d="M 332.645161290323,285 L 332.645161290323,123.972 L 337.290322580645,123.972 L 337.290322580645,285 Z" style="fill:gold;stroke:black;stroke-width:0.5;" />
	<path d="M 337.290322580645,285 L 337.290322580645,123.972 L 341.935483870968,123.972 L 341.935483870968,285 Z" style="fill:gold;stroke:black;stroke-width:0.5;" />
	<line stroke="black" stroke-width="2" x1="339.612903225806" x2="339.612903225806" y1="285" y2="284" />
	<path d="M 341.935483870968,285 L 341.935483870968,123.972 L 346.58064516129,123.972 L 346.58064516129,285 Z" style="fill:gold;stroke:black;stroke-width:0.5;" />
	<path d="M 346.58064516129,285 L 346.58064516129,123.972 L 351.225806451613,123.972 L 351.225806451613,285 Z" style="fill:gold;stroke:black;stroke-width:0.5;" />
	<path d="M 351.225806451613,285 L 351.225806451613,123.972 L 355.870967741935,123.972 L 355.870967741935,285 Z" style="fill:gold;stroke:black;stroke-width:0.5;" />
	<path d="M 355.870967741935,285 L 355.870967741935,122.19 L 360.516129032258,122.19 L 360.516129032258,285 Z" style="fill:gold;stroke:black;stroke-width:0.5;" />
	<path d="M 360.516129032258,285 L 360.516129032258,122.19 L 365.161290322581,122.19 L 365.161290322581,285 Z" style="fill:gold;stroke:black;stroke-width:0.5;" />
	<text font-size="10" x="360.516129032258" y="297">70</text>
	<line stroke="black" stroke-width="2" x1="362.838709677419" x2="362.838709677419" y1="285" y2="283" />
	<line stroke="black" stroke-width="2" x1="362.838709677419" x2="362.838709677419" y1="285" y2="284" />
	<path d="M 365.161290322581,285 L 365.161290322581,280.626 L 369.806451612903,280.626 L 369.806451612903,285 Z" style="fill:blue;stroke:black;stroke-width:0.5;" />
	<path d="M 369.806451612903,285 L 369.806451612903,281.49 L 374.451612903226,281.49 L 374.451612903226,285 Z" style="fill:blue;stroke:black;stroke-width:0.5;" />
	<path d="M 374.451612903226,285 L 374.451612903226,281.49 L 379.096774193548,281.49 L 379.096774193548,285 Z" style="fill:blue;stroke:black;stroke-width:0.5;" />
	<path d="M 379.096774193548,285 L 379.096774193548,281.49 L 383.741935483871,281.49 L 383.741935483871,285 Z" style="fill:blue;stroke:black;stroke-width:0.5;" />
	<path d="M 383.741935483871,285 L 383.741935483871,283.218 L 388.387096774194,283.218 L 388.387096774194,285 Z" style="fill:blue;stroke:black;stroke-width:0.5;" />
	<line stroke="black" stroke-width="2" x1="386.064516129032" x2="386.064516129032" y1="285" y2="284" />
	<path d="M 388.387096774194,285 L 388.387096774194,283.218 L 393.032258064516,283.218 L 393.032258064516,285 Z" style="fill:blue;stroke:black;stroke-width:0.5;" />
	<path d="M 393.032258064516,285 L 393.032258064516,283.218 L 397.677419354839,283.218 L 397.677419354839,285 Z" style="fill:blue;stroke:black;stroke-width:0.5;" />
	<path d="M 397.677419354839,285 L 397.677419354839,283.218 L 402.322580645161,283.218 L 402.322580645161,285 Z" style="fill:blue;stroke:black;stroke-width:0.5;" />
	<path d="M 402.322580645161,285 L 402.322580645161,283.218 L 406.967741935484,283.218 L 406.967741935484,285 Z" style="fill:blue;stroke:black;stroke-width:0.5;" />
	<path d="M 406.967741935484,285 L 406.967741935484,283.218 L 411.612903225806,283.218 L 411.612903225806,285 Z" style="fill:blue;stroke:black;stroke-width:0.5;" />
	<text font-size="10" x="406.967741935484" y="297">80</text>
	<line stroke="black" stroke-width="2" x1="409.290322580645" x2="409.290322580645" y1="285" y2="283" />
	<line stroke="black" stroke-width="2" x1="409.290322580645" x2="409.290322580645" y1="285" y2="284" />
	<path d="M 411.612903225806,285 L 411.612903225806,283.218 L 416.258064516129,283.218 L 416.258064516129,285 Z" style="fill:blue;stroke:black;stroke-width:0.5;" />
	<path d="M 416.258064516129,285 L 416.258064516129,283.218 L 420.903225806452,283.218 L 420.903225806452,285 Z" style="fill:blue;stroke:black;stroke-width:0.5;" />
	<path d="M 420.903225806452,285 L 420.903225806452,283.218 L 425.548387096774,283.218 L 425.548387096774,285 Z" style="fill:blue;stroke:black;stroke-width:0.5;" />
	<path d="M 425.548387096774,285 L 425.548387096774,283.218 L 430.193548387097,283.218 L 430.193548387097,285 Z" style="fill:blue;stroke:black;stroke-width:0.5;" />
	<path d="M 430.193548387097,285 L 430.193548387097,283.218 L 434.838709677419,283.218 L 434.838709677419,285 Z" style="fill:blue;stroke:black;stroke-width:0.5;" />
	<line stroke="black" stroke-width="2" x1="432.516129032258" x2="432.516129032258" y1="285" y2="284" />
	<path d="M 434.838709677419,285 L 434.838709677419,283.218 L 439.483870967742,283.218 L 439.483870967742,285 Z" style="fill:blue;stroke:black;stroke-width:0.5;" />
	<path d="M 439.483870967742,285 L 439.483870967742,285 L 444.129032258065,285 L 444.129032258065,285 Z" style="fill:blue;stroke:black;stroke-width:0.5;" />
	<path d="M 444.129032258065,285 L 444.129032258065,285 L 448.774193548387,285 L 448.774193548387,285 Z" style="fill:blue;stroke:black;stroke-width:0.5;" />
	<path d="M 448.774193548387,285 L 448.774193548387,285 L 453.41935483871,285 L 453.41935483871,285 Z" style="fill:blue;stroke:black;stroke-width:0.5;" />
	<path d="M 453.41935483871,285 L 453.41935483871,284.136 L 458.064516129032,284.136 L 458.064516129032,285 Z" style="fill:blue;stroke:black;stroke-width:0.5;" />
	<text font-size="10" x="453.41935483871" y="297">90</text>
	<line stroke="black" stroke-width="2" x1="455.741935483871" x2="455.741935483871" y1="285" y2="283" />
	<line stroke="black" stroke-width="2" x1="455.741935483871" x2="455.741935483871" y1="285" y2="284" />
	<path d="M 458.064516129032,285 L 458.064516129032,284.136 L 462.709677419355,284.136 L 462.709677419355,285 Z" style="fill:blue;stroke:black;stroke-width:0.5;" />
	<path d="M 462.709677419355,285 L 462.709677419355,283.272 L 467.354838709677,283.272 L 467.354838709677,285 Z" style="fill:blue;stroke:black;stroke-width:0.5;" />
	<path d="M 467.354838709677,285 L 467.354838709677,283.272 L 472,283.272 L 472,285 Z" style="fill:blue;stroke:black;stroke-width:0.5;" />
	<path d="M 472,285 L 472,282.408 L 476.645161290323,282.408 L 476.645161290323,285 Z" style="fill:blue;stroke:black;stroke-width:0.5;" />
	<path d="M 476.645161290323,285 L 476.645161290323,282.408 L 481.290322580645,282.408 L 481.290322580645,285 Z" style="fill:blue;stroke:black;stroke-width:0.5;" />
	<line stroke="black" stroke-width="2" x1="478.967741935484" x2="478.967741935484" y1="285" y2="284" />
	<path d="M 481.290322580645,285 L 481.290322580645,282.408 L 485.935483870968,282.408 L 485.935483870968,285 Z" style="fill:blue;stroke:black;stroke-width:0.5;" />
	<path d="M 485.935483870968,285 L 485.935483870968,282.408 L 490.58064516129,282.408 L 490.58064516129,285 Z" style="fill:blue;stroke:black;stroke-width:0.5;" />
	<path d="M 490.58064516129,285 L 490.58064516129,282.408 L 495.225806451613,282.408 L 495.225806451613,285 Z" style="fill:blue;stroke:black;stroke-width:0.5;" />
	<path d="M 495.225806451613,285 L 495.225806451613,282.408 L 499.870967741935,282.408 L 499.870967741935,285 Z" style="fill:blue;stroke:black;stroke-width:0.5;" />
	<path d="M 499.870967741935,285 L 499.870967741935,282.408 L 504.516129032258,282.408 L 504.516129032258,285 Z" style="fill:blue;stroke:black;stroke-width:0.5;" />
	<text font-size="10" x="499.870967741935" y="297">100</text>
	<line stroke="black" stroke-width="2" x1="502.193548387097" x2="502.193548387097" y1="285" y2="283" />
	<line stroke="black" stroke-width="2" x1="502.193548387097" x2="502.193548387097" y1="285" y2="284" />
	<path d="M 504.516129032258,285 L 504.516129032258,282.408 L 509.161290322581,282.408 L 509.161290322581,285 Z" style="fill:blue;stroke:black;stroke-width:0.5;" />
	<path d="M 509.161290322581,285 L 509.161290322581,282.408 L 513.806451612903,282.408 L 513.806451612903,285 Z" style="fill:blue;stroke:black;stroke-width:0.5;" />
	<path d="M 513.806451612903,285 L 513.806451612903,282.408 L 518.451612903226,282.408 L 518.451612903226,285 Z" style="fill:blue;stroke:black;stroke-width:0.5;" />
	<path d="M 518.451612903226,285 L 518.451612903226,282.408 L 523.096774193548,282.408 L 523.096774193548,285 Z" style="fill:blue;stroke:black;stroke-width:0.5;" />
	<path d="M 523.096774193548,285 L 523.096774193548,282.408 L 527.741935483871,282.408 L 527.741935483871,285 Z" style="fill:blue;stroke:black;stroke-width:0.5;" />
	<line stroke="black" stroke-width="2" x1="525.41935483871" x2="525.41935483871" y1="285" y2="284" />
	<path d="M 527.741935483871,285 L 527.741935483871,282.408 L 532.387096774194,282.408 L 532.387096774194,285 Z" style="fill:blue;stroke:black;stroke-width:0.5;" />
	<path d="M 532.387096774194,285 L 532.387096774194,282.408 L 537.032258064516,282.408 L 537.032258064516,285 Z" style="fill:blue;stroke:black;stroke-width:0.5;" />
	<path d="M 537.032258064516,285 L 537.032258064516,282.408 L 541.677419354839,282.408 L 541.677419354839,285 Z" style="fill:blue;stroke:black;stroke-width:0.5;" />
	<path d="M 541.677419354839,285 L 541.677419354839,282.408 L 546.322580645161,282.408 L 546.322580645161,285 Z" style="fill:blue;stroke:black;stroke-width:0.5;" />
	<path d="M 546.322580645161,285 L 546.322580645161,281.544 L 550.967741935484,281.544 L 550.967741935484,285 Z" style="fill:blue;stroke:black;stroke-width:0.5;" />
	<text font-size="10" x="546.322580645161" y="297">110</text>
	<line stroke="black" stroke-width="2" x1="548.645161290323" x2="548.645161290323" y1="285" y2="283" />
	<line stroke="black" stroke-width="2" x1="548.645161290323" x2="548.645161290323" y1="285" y2="284" />
	<path d="M 550.967741935484,285 L 550.967741935484,281.544 L 555.612903225806,281.544 L 555.612903225806,285 Z" style="fill:blue;stroke:black;stroke-width:0.5;" />
	<path d="M 555.612903225806,285 L 555.612903225806,280.68 L 560.258064516129,280.68 L 560.258064516129,285 Z" style="fill:blue;stroke:black;stroke-width:0.5;" />
	<path d="M 560.258064516129,285 L 560.258064516129,280.68 L 564.903225806452,280.68 L 564.903225806452,285 Z" style="fill:blue;stroke:black;stroke-width:0.5;" />
	<path d="M 564.903225806452,285 L 564.903225806452,280.68 L 569.548387096774,280.68 L 569.548387096774,285 Z" style="fill:blue;stroke:black;stroke-width:0.5;" />
	<path d="M 569.548387096774,285 L 569.548387096774,273.66 L 574.193548387097,273.66 L 574.193548387097,285 Z" style="fill:gold;stroke:black;stroke-width:0.5;" />
	<line stroke="black" stroke-width="2" x1="571.870967741936" x2="571.870967741936" y1="285" y2="284" />
	<path d="M 574.193548387097,285 L 574.193548387097,276.252 L 578.838709677419,276.252 L 578.838709677419,285 Z" style="fill:gold;stroke:black;stroke-width:0.5;" />
	<path d="M 578.838709677419,285 L 578.838709677419,276.252 L 583.483870967742,276.252 L 583.483870967742,285 Z" style="fill:gold;stroke:black;stroke-width:0.5;" />
	<path d="M 583.483870967742,285 L 583.483870967742,276.252 L 588.129032258065,276.252 L 588.129032258065,285 Z" style="fill:gold;stroke:black;stroke-width:0.5;" />
	<path d="M 588.129032258065,285 L 588.129032258065,276.252 L 592.774193548387,276.252 L 592.774193548387,285 Z" style="fill:gold;stroke:black;stroke-width:0.5;" />
	<path d="M 592.774193548387,285 L 592.774193548387,276.252 L 597.41935483871,276.252 L 597.41935483871,285 Z" style="fill:gold;stroke:black;stroke-width:0.5;" />
	<text font-size="10" x="592.774193548387" y="297">120</text>
	<line stroke="black" stroke-width="2" x1="595.096774193549" x2="595.096774193549" y1="285" y2="283" />
	<line stroke="black" stroke-width="2" x1="595.096774193549" x2="595.096774193549" y1="285" y2="284" />
	<path d="M 597.41935483871,285 L 597.41935483871,276.252 L 602.064516129032,276.252 L 602.064516129032,285 Z" style="fill:gold;stroke:black;stroke-width:0.5;" />
	<path d="M 602.064516129032,285 L 602.064516129032,276.252 L 606.709677419355,276.252 L 606.709677419355,285 Z" style="fill:gold;stroke:black;stroke-width:0.5;" />
	<path d="M 606.709677419355,285 L 606.709677419355,276.252 L 611.354838709677,276.252 L 611.354838709677,285 Z" style="fill:gold;stroke:black;stroke-width:0.5;" />
	<path d="M 611.354838709677,285 L 611.354838709677,276.252 L 616,276.252 L 616,285 Z" style="fill:gold;stroke:black;stroke-width:0.5;" />
	<path d="M 616,285 L 616,276.252 L 620.645161290323,276.252 L 620.645161290323,285 Z" style="fill:gold;stroke:black;stroke-width:0.5;" />
	<line stroke="black" stroke-width="2" x1="618.322580645161" x2="618.322580645161" y1="285" y2="284" />
	<path d="M 620.645161290323,285 L 620.645161290323,276.252 L 625.290322580645,276.252 L 625.290322580645,285 Z" style="fill:gold;stroke:black;stroke-width:0.5;" />
	<path d="M 625.290322580645,285 L 625.290322580645,276.252 L 629.935483870968,276.252 L 629.935483870968,285 Z" style="fill:gold;stroke:black;stroke-width:0.5;" />
	<path d="M 629.935483870968,285 L 629.935483870968,276.252 L 634.58064516129,276.252 L 634.58064516129,285 Z" style="fill:gold;stroke:black;stroke-width:0.5;" />
	<path d="M 634.58064516129,285 L 634.58064516129,277.116 L 639.225806451613,277.116 L 639.225806451613,285 Z" style="fill:gold;stroke:black;stroke-width:0.5;" />
	<path d="M 639.225806451613,285 L 639.225806451613,277.116 L 643.870967741935,277.116 L 643.870967741935,285 Z" style="fill:gold;stroke:black;stroke-width:0.5;" />
	<text font-size="10" x="639.225806451613" y="297">130</text>
	<line stroke="black" stroke-width="2" x1="641.548387096774" x2="641.548387096774" y1="285" y2="283" />
	<line stroke="black" stroke-width="2" x1="641.548387096774" x2="641.548387096774" y1="285" y2="284" />
	<path d="M 643.870967741935,285 L 643.870967741935,277.98 L 648.516129032258,277.98 L 648.516129032258,285 Z" style="fill:gold;stroke:black;stroke-width:0.5;" />
	<path d="M 648.516129032258,285 L 648.516129032258,277.98 L 653.161290322581,277.98 L 653.161290322581,285 Z" style="fill:gold;stroke:black;stroke-width:0.5;" />
	<path d="M 653.161290322581,285 L 653.161290322581,277.98 L 657.806451612903,277.98 L 657.806451612903,285 Z" style="fill:gold;stroke:black;stroke-width:0.5;" />
	<path d="M 657.806451612903,285 L 657.806451612903,285 L 662.451612903226,285 L 662.451612903226,285 Z" style="fill:gold;stroke:black;stroke-width:0.5;" />
	<path d="M 662.451612903226,285 L 662.451612903226,285 L 667.096774193548,285 L 667.096774193548,285 Z" style="fill:gold;stroke:black;stroke-width:0.5;" />
	<line stroke="black" stroke-width="2" x1="664.774193548387" x2="664.774193548387" y1="285" y2="284" />
	<path d="M 667.096774193548,285 L 667.096774193548,285 L 671.741935483871,285 L 671.741935483871,285 Z" style="fill:blue;stroke:black;stroke-width:0.5;" />
	<path d="M 671.741935483871,285 L 671.741935483871,285 L 676.387096774194,285 L 676.387096774194,285 Z" style="fill:blue;stroke:black;stroke-width:0.5;" />
	<path d="M 676.387096774194,285 L 676.387096774194,285 L 681.032258064516,285 L 681.032258064516,285 Z" style="fill:blue;stroke:black;stroke-width:0.5;" />
	<path d="M 681.032258064516,285 L 681.032258064516,285 L 685.677419354839,285 L 685.677419354839,285 Z" style="fill:blue;stroke:black;stroke-width:0.5;" />
	<path d="M 685.677419354839,285 L 685.677419354839,285 L 690.322580645161,285 L 690.322580645161,285 Z" style="fill:blue;stroke:black;stroke-width:0.5;" />
	<text font-size="10" x="685.677419354839" y="297">140</text>
	<line stroke="black" stroke-width="2" x1="688" x2="688" y1="285" y2="283" />
	<line stroke="black" stroke-width="2" x1="688" x2="688" y1="285" y2="284" />
	<path d="M 690.322580645161,285 L 690.322580645161,285 L 694.967741935484,285 L 694.967741935484,285 Z" style="fill:blue;stroke:black;stroke-width:0.5;" />
	<path d="M 694.967741935484,285 L 694.967741935484,285 L 699.612903225806,285 L 699.612903225806,285 Z" style="fill:blue;stroke:black;stroke-width:0.5;" />
	<path d="M 699.612903225806,285 L 699.612903225806,285 L 704.258064516129,285 L 704.258064516129,285 Z" style="fill:blue;stroke:black;stroke-width:0.5;" />
	<path d="M 704.258064516129,285 L 704.258064516129,285 L 708.903225806452,285 L 708.903225806452,285 Z" style="fill:blue;stroke:black;stroke-width:0.5;" />
	<path d="M 708.903225806452,285 L 708.903225806452,285 L 713.548387096774,285 L 713.548387096774,285 Z" style="fill:blue;stroke:black;stroke-width:0.5;" />
	<line stroke="black" stroke-width="2" x1="711.225806451613" x2="711.225806451613" y1="285" y2="284" />
	<path d="M 713.548387096774,285 L 713.548387096774,285 L 718.193548387097,285 L 718.193548387097,285 Z" style="fill:blue;stroke:black;stroke-width:0.5;" />
	<path d="M 718.193548387097,285 L 718.193548387097,285 L 722.838709677419,285 L 722.838709677419,285 Z" style="fill:blue;stroke:black;stroke-width:0.5;" />
	<path d="M 722.838709677419,285 L 722.838709677419,285 L 727.483870967742,285 L 727.483870967742,285 Z" style="fill:blue;stroke:black;stroke-width:0.5;" />
	<path d="M 727.483870967742,285 L 727.483870967742,285 L 732.129032258065,285 L 732.129032258065,285 Z" style="fill:blue;stroke:black;stroke-width:0.5;" />
	<path d="M 732.129032258065,285 L 732.129032258065,285 L 736.774193548387,285 L 736.774193548387,285 Z" style="fill:blue;stroke:black;stroke-width:0.5;" />
	<text font-size="10" x="732.129032258065" y="297">150</text>
	<line stroke="black" stroke-width="2" x1="734.451612903226" x2="734.451612903226" y1="285" y2="283" />
	<line stroke="black" stroke-width="2" x1="734.451612903226" x2="734.451612903226" y1="285" y2="284" />
	<path d="M 736.774193548387,285 L 736.774193548387,285 L 741.41935483871,285 L 741.41935483871,285 Z" style="fill:blue;stroke:black;stroke-width:0.5;" />
	<path d="M 741.41935483871,285 L 741.41935483871,285 L 746.064516129032,285 L 746.064516129032,285 Z" style="fill:blue;stroke:black;stroke-width:0.5;" />
	<path d="M 746.064516129032,285 L 746.064516129032,285 L 750.709677419355,285 L 750.709677419355,285 Z" style="fill:blue;stroke:black;stroke-width:0.5;" />
	<path d="M 750.709677419355,285 L 750.709677419355,285 L 755.354838709677,285 L 755.354838709677,285 Z" style="fill:blue;stroke:black;stroke-width:0.5;" />
	<path d="M 755.354838709677,285 L 755.354838709677,285 L 760,285 L 760,285 Z" style="fill:blue;stroke:black;stroke-width:0.5;" />
	<line stroke="black" stroke-width="2" x1="757.677419354839" x2="757.677419354839" y1="285" y2="284" />
	<!-- 
	Generated using the Perl SVG Module V2.50
	by Ronan Oger
	Info: http://www.roitsystems.com/
 -->
</svg>