<?xml version="1.0" encoding="UTF-8" standalone="yes"?>
<!DOCTYPE svg PUBLIC "-//W3C//DTD SVG 1.0//EN" "http://www.w3.org/TR/2001/REC-SVG-20010904/DTD/svg10.dtd">
<svg height="300" width="800" xmlns="http://www.w3.org/2000/svg" xmlns:svg="http://www.w3.org/2000/svg" xmlns:xlink="http://www.w3.org/1999/xlink">
	<line stroke="black" stroke-width="2" x1="40" x2="40" y1="15" y2="285" />
	<line stroke="black" stroke-width="2" x1="40" x2="42.9875518672199" y1="231" y2="231" />
	<text font-size="12" x="44.4813278008299" y="231">10</text>
	<line stroke="black" stroke-width="2" x1="40" x2="42.9875518672199" y1="177" y2="177" />
	<text font-size="12" x="44.4813278008299" y="177">20</text>
	<line stroke="black" stroke-width="2" x1="40" x2="42.9875518672199" y1="123" y2="123" />
	<text font-size="12" x="44.4813278008299" y="123">30</text>
	<line stroke="black" stroke-width="2" x1="40" x2="42.9875518672199" y1="69" y2="69" />
	<text font-size="12" x="44.4813278008299" y="69">40</text>
	<line stroke="black" stroke-width="2" x1="40" x2="42.9875518672199" y1="15" y2="15" />
	<text font-size="12" x="44.4813278008299" y="15">50</text>
	<line stroke="black" stroke-width="2" x1="40" x2="800" y1="285" y2="285" />
	<path d="M 40,285 L 40,285 L 42.9875518672199,285 L 42.9875518672199,285 Z" style="fill:blue;stroke:black;stroke-width:0.5;" />
	<path d="M 42.9875518672199,285 L 42.9875518672199,285 L 45.9751037344398,285 L 45.9751037344398,285 Z" style="fill:blue;stroke:black;stroke-width:0.5;" />
	<path d="M 45.9751037344398,285 L 45.9751037344398,285 L 48.9626556016597,285 L 48.9626556016597,285 Z" style="fill:blue;stroke:black;stroke-width:0.5;" />
	<path d="M 48.9626556016597,285 L 48.9626556016597,285 L 51.9502074688797,285 L 51.9502074688797,285 Z" style="fill:blue;stroke:black;stroke-width:0.5;" />
	<path d="M 51.9502074688797,285 L 51.9502074688797,285 L 54.9377593360996,285 L 54.9377593360996,285 Z" style="fill:blue;stroke:black;stroke-width:0.5;" />
	<line stroke="black" stroke-width="2" x1="53.4439834024896" x2="53.4439834024896" y1="285" y2="284" />
	<path d="M 54.9377593360996,285 L 54.9377593360996,285 L 57.9253112033195,285 L 57.9253112033195,285 Z" style="fill:blue;stroke:black;stroke-width:0.5;" />
	<path d="M 57.9253112033195,285 L 57.9253112033195,285 L 60.9128630705394,285 L 60.9128630705394,285 Z" style="fill:blue;stroke:black;stroke-width:0.5;" />
	<path d="M 60.9128630705394,285 L 60.9128630705394,285 L 63.9004149377593,285 L 63.9004149377593,285 Z" style="fill:blue;stroke:black;stroke-width:0.5;" />
	<path d="M 63.9004149377593,285 L 63.9004149377593,285 L 66.8879668049793,285 L 66.8879668049793,285 Z" style="fill:blue;stroke:black;stroke-width:0.5;" />
	<path d="M 66.8879668049793,285 L 66.8879668049793,285 L 69.8755186721992,285 L 69.8755186721992,285 Z" style="fill:blue;stroke:black;stroke-width:0.5;" />
	<text font-size="10" x="66.8879668049793" y="297">10</text>
	<line stroke="black" stroke-width="2" x1="68.3817427385892" x2="68.3817427385892" y1="285" y2="283" />
	<line stroke="black" stroke-width="2" x1="68.3817427385892" x2="68.3817427385892" y1="285" y2="284" />
	<path d="M 69.8755186721992,285 L 69.8755186721992,285 L 72.8630705394191,285 L 72.8630705394191,285 Z" style="fill:blue;stroke:black;stroke-width:0.5;" />
	<path d="M 72.8630705394191,285 L 72.8630705394191,285 L 75.850622406639,285 L 75.850622406639,285 Z" style="fill:blue;stroke:black;stroke-width:0.5;" />
	<path d="M 75.850622406639,285 L 75.850622406639,284.136 L 78.8381742738589,284.136 L 78.8381742738589,285 Z" style="fill:blue;stroke:black;stroke-width:0.5;" />
	<path d="M 78.8381742738589,285 L 78.8381742738589,284.136 L 81.8257261410788,284.136 L 81.8257261410788,285 Z" style="fill:blue;stroke:black;stroke-width:0.5;" />
	<path d="M 81.8257261410788,285 L 81.8257261410788,284.136 L 84.8132780082988,284.136 L 84.8132780082988,285 Z" style="fill:blue;stroke:black;stroke-width:0.5;" />
	<line stroke="black" stroke-width="2" x1="83.3195020746888" x2="83.3195020746888" y1="285" y2="284" />
	<path d="M 84.8132780082988,285 L 84.8132780082988,284.136 L 87.8008298755187,284.136 L 87.8008298755187,285 Z" style="fill:blue;stroke:black;stroke-width:0.5;" />
	<path d="M 87.8008298755187,285 L 87.8008298755187,284.136 L 90.7883817427386,284.136 L 90.7883817427386,285 Z" style="fill:blue;stroke:black;stroke-width:0.5;" />
	<path d="M 90.7883817427386,285 L 90.7883817427386,284.136 L 93.7759336099585,284.136 L 93.7759336099585,285 Z" style="fill:blue;stroke:black;stroke-width:0.5;" />
	<path d="M 93.7759336099585,285 L 93.7759336099585,284.136 L 96.7634854771784,284.136 L 96.7634854771784,285 Z" style="fill:blue;stroke:black;stroke-width:0.5;" />
	<path d="M 96.7634854771784,285 L 96.7634854771784,284.136 L 99.7510373443983,284.136 L 99.7510373443983,285 Z" style="fill:blue;stroke:black;stroke-width:0.5;" />
	<text font-size="10" x="96.7634854771784" y="297">20</text>
	<line stroke="black" stroke-width="2" x1="98.2572614107884" x2="98.2572614107884" y1="285" y2="283" />
	<line stroke="black" stroke-width="2" x1="98.2572614107884" x2="98.2572614107884" y1="285" y2="284" />
	<path d="M 99.7510373443983,285 L 99.7510373443983,284.136 L 102.738589211618,284.136 L 102.738589211618,285 Z" style="fill:blue;stroke:black;stroke-width:0.5;" />
	<path d="M 102.738589211618,285 L 102.738589211618,284.136 L 105.726141078838,284.136 L 105.726141078838,285 Z" style="fill:blue;stroke:black;stroke-width:0.5;" />
	<path d="M 105.726141078838,285 L 105.726141078838,284.136 L 108.713692946058,284.136 L 108.713692946058,285 Z" style="fill:blue;stroke:black;stroke-width:0.5;" />
	<path d="M 108.713692946058,285 L 108.713692946058,284.136 L 111.701244813278,284.136 L 111.701244813278,285 Z" style="fill:blue;stroke:black;stroke-width:0.5;" />
	<path d="M 111.701244813278,285 L 111.701244813278,284.136 L 114.688796680498,284.136 L 114.688796680498,285 Z" style="fill:blue;stroke:black;stroke-width:0.5;" />
	<line stroke="black" stroke-width="2" x1="113.195020746888" x2="113.195020746888" y1="285" y2="284" />
	<path d="M 114.688796680498,285 L 114.688796680498,284.136 L 117.676348547718,284.136 L 117.676348547718,285 Z" style="fill:blue;stroke:black;stroke-width:0.5;" />
	<path d="M 117.676348547718,285 L 117.676348547718,284.136 L 120.663900414938,284.136 L 120.663900414938,285 Z" style="fill:blue;stroke:black;stroke-width:0.5;" />
	<path d="M 120.663900414938,285 L 120.663900414938,284.136 L 123.651452282158,284.136 L 123.651452282158,285 Z" style="fill:blue;stroke:black;stroke-width:0.5;" />
	<path d="M 123.651452282158,285 L 123.651452282158,284.136 L 126.639004149378,284.136 L 126.639004149378,285 Z" style="fill:blue;stroke:black;stroke-width:0.5;" />
	<path d="M 126.639004149378,285 L 126.639004149378,284.136 L 129.626556016598,284.136 L 129.626556016598,285 Z" style="fill:blue;stroke:black;stroke-width:0.5;" />
	<text font-size="10" x="126.639004149378" y="297">30</text>
	<line stroke="black" stroke-width="2" x1="128.132780082988" x2="128.132780082988" y1="285" y2="283" />
	<line stroke="black" stroke-width="2" x1="128.132780082988" x2="128.132780082988" y1="285" y2="284" />
	<path d="M 129.626556016598,285 L 129.626556016598,284.136 L 132.614107883817,284.136 L 132.614107883817,285 Z" style="fill:blue;stroke:black;stroke-width:0.5;" />
	<path d="M 132.614107883817,285 L 132.614107883817,284.136 L 135.601659751037,284.136 L 135.601659751037,285 Z" style="fill:blue;stroke:black;stroke-width:0.5;" />
	<path d="M 135.601659751037,285 L 135.601659751037,284.136 L 138.589211618257,284.136 L 138.589211618257,285 Z" style="fill:blue;stroke:black;stroke-width:0.5;" />
	<path d="M 138.589211618257,285 L 138.589211618257,284.136 L 141.576763485477,284.136 L 141.576763485477,285 Z" style="fill:blue;stroke:black;stroke-width:0.5;" />
	<path d="M 141.576763485477,285 L 141.576763485477,284.136 L 144.564315352697,284.136 L 144.564315352697,285 Z" style="fill:blue;stroke:black;stroke-width:0.5;" />
	<line stroke="black" stroke-width="2" x1="143.070539419087" x2="143.070539419087" y1="285" y2="284" />
	<path d="M 144.564315352697,285 L 144.564315352697,284.136 L 147.551867219917,284.136 L 147.551867219917,285 Z" style="fill:blue;stroke:black;stroke-width:0.5;" />
	<path d="M 147.551867219917,285 L 147.551867219917,285 L 150.539419087137,285 L 150.539419087137,285 Z" style="fill:blue;stroke:black;stroke-width:0.5;" />
	<path d="M 150.539419087137,285 L 150.539419087137,285 L 153.526970954357,285 L 153.526970954357,285 Z" style="fill:blue;stroke:black;stroke-width:0.5;" />
	<path d="M 153.526970954357,285 L 153.526970954357,285 L 156.514522821577,285 L 156.514522821577,285 Z" style="fill:blue;stroke:black;stroke-width:0.5;" />
	<path d="M 156.514522821577,285 L 156.514522821577,285 L 159.502074688797,285 L 159.502074688797,285 Z" style="fill:blue;stroke:black;stroke-width:0.5;" />
	<text font-size="10" x="156.514522821577" y="297">40</text>
	<line stroke="black" stroke-width="2" x1="158.008298755187" x2="158.008298755187" y1="285" y2="283" />
	<line stroke="black" stroke-width="2" x1="158.008298755187" x2="158.008298755187" y1="285" y2="284" />
	<path d="M 159.502074688797,285 L 159.502074688797,285 L 162.489626556017,285 L 162.489626556017,285 Z" style="fill:blue;stroke:black;stroke-width:0.5;" />
	<path d="M 162.489626556017,285 L 162.489626556017,285 L 165.477178423237,285 L 165.477178423237,285 Z" style="fill:blue;stroke:black;stroke-width:0.5;" />
	<path d="M 165.477178423237,285 L 165.477178423237,285 L 168.464730290456,285 L 168.464730290456,285 Z" style="fill:blue;stroke:black;stroke-width:0.5;" />
	<path d="M 168.464730290456,285 L 168.464730290456,284.136 L 171.452282157676,284.136 L 171.452282157676,285 Z" style="fill:blue;stroke:black;stroke-width:0.5;" />
	<path d="M 171.452282157676,285 L 171.452282157676,283.272 L 174.439834024896,283.272 L 174.439834024896,285 Z" style="fill:blue;stroke:black;stroke-width:0.5;" />
	<line stroke="black" stroke-width="2" x1="172.946058091286" x2="172.946058091286" y1="285" y2="284" />
	<path d="M 174.439834024896,285 L 174.439834024896,283.272 L 177.427385892116,283.272 L 177.427385892116,285 Z" style="fill:blue;stroke:black;stroke-width:0.5;" />
	<path d="M 177.427385892116,285 L 177.427385892116,283.272 L 180.414937759336,283.272 L 180.414937759336,285 Z" style="fill:blue;stroke:black;stroke-width:0.5;" />
	<path d="M 180.414937759336,285 L 180.414937759336,283.272 L 183.402489626556,283.272 L 183.402489626556,285 Z" style="fill:blue;stroke:black;stroke-width:0.5;" />
	<path d="M 183.402489626556,285 L 183.402489626556,283.272 L 186.390041493776,283.272 L 186.390041493776,285 Z" style="fill:blue;stroke:black;stroke-width:0.5;" />
	<path d="M 186.390041493776,285 L 186.390041493776,283.272 L 189.377593360996,283.272 L 189.377593360996,285 Z" style="fill:blue;stroke:black;stroke-width:0.5;" />
	<text font-size="10" x="186.390041493776" y="297">50</text>
	<line stroke="black" stroke-width="2" x1="187.883817427386" x2="187.883817427386" y1="285" y2="283" />
	<line stroke="black" stroke-width="2" x1="187.883817427386" x2="187.883817427386" y1="285" y2="284" />
	<path d="M 189.377593360996,285 L 189.377593360996,283.272 L 192.365145228216,283.272 L 192.365145228216,285 Z" style="fill:blue;stroke:black;stroke-width:0.5;" />
	<path d="M 192.365145228216,285 L 192.365145228216,283.272 L 195.352697095436,283.272 L 195.352697095436,285 Z" style="fill:blue;stroke:black;stroke-width:0.5;" />
	<path d="M 195.352697095436,285 L 195.352697095436,283.272 L 198.340248962656,283.272 L 198.340248962656,285 Z" style="fill:blue;stroke:black;stroke-width:0.5;" />
	<path d="M 198.340248962656,285 L 198.340248962656,283.272 L 201.327800829876,283.272 L 201.327800829876,285 Z" style="fill:blue;stroke:black;stroke-width:0.5;" />
	<path d="M 201.327800829876,285 L 201.327800829876,283.272 L 204.315352697095,283.272 L 204.315352697095,285 Z" style="fill:blue;stroke:black;stroke-width:0.5;" />
	<line stroke="black" stroke-width="2" x1="202.821576763485" x2="202.821576763485" y1="285" y2="284" />
	<path d="M 204.315352697095,285 L 204.315352697095,283.272 L 207.302904564315,283.272 L 207.302904564315,285 Z" style="fill:blue;stroke:black;stroke-width:0.5;" />
	<path d="M 207.302904564315,285 L 207.302904564315,283.272 L 210.290456431535,283.272 L 210.290456431535,285 Z" style="fill:blue;stroke:black;stroke-width:0.5;" />
	<path d="M 210.290456431535,285 L 210.290456431535,283.272 L 213.278008298755,283.272 L 213.278008298755,285 Z" style="fill:blue;stroke:black;stroke-width:0.5;" />
	<path d="M 213.278008298755,285 L 213.278008298755,283.272 L 216.265560165975,283.272 L 216.265560165975,285 Z" style="fill:blue;stroke:black;stroke-width:0.5;" />
	<path d="M 216.265560165975,285 L 216.265560165975,283.272 L 219.253112033195,283.272 L 219.253112033195,285 Z" style="fill:blue;stroke:black;stroke-width:0.5;" />
	<text font-size="10" x="216.265560165975" y="297">60</text>
	<line stroke="black" stroke-width="2" x1="217.759336099585" x2="217.759336099585" y1="285" y2="283" />
	<line stroke="black" stroke-width="2" x1="217.759336099585" x2="217.759336099585" y1="285" y2="284" />
	<path d="M 219.253112033195,285 L 219.253112033195,283.272 L 222.240663900415,283.272 L 222.240663900415,285 Z" style="fill:blue;stroke:black;stroke-width:0.5;" />
	<path d="M 222.240663900415,285 L 222.240663900415,283.272 L 225.228215767635,283.272 L 225.228215767635,285 Z" style="fill:blue;stroke:black;stroke-width:0.5;" />
	<path d="M 225.228215767635,285 L 225.228215767635,283.272 L 228.215767634855,283.272 L 228.215767634855,285 Z" style="fill:blue;stroke:black;stroke-width:0.5;" />
	<path d="M 228.215767634855,285 L 228.215767634855,283.272 L 231.203319502075,283.272 L 231.203319502075,285 Z" style="fill:blue;stroke:black;stroke-width:0.5;" />
	<path d="M 231.203319502075,285 L 231.203319502075,283.272 L 234.190871369295,283.272 L 234.190871369295,285 Z" style="fill:blue;stroke:black;stroke-width:0.5;" />
	<line stroke="black" stroke-width="2" x1="232.697095435685" x2="232.697095435685" y1="285" y2="284" />
	<path d="M 234.190871369295,285 L 234.190871369295,285 L 237.178423236515,285 L 237.178423236515,285 Z" style="fill:blue;stroke:black;stroke-width:0.5;" />
	<path d="M 237.178423236515,285 L 237.178423236515,285 L 240.165975103734,285 L 240.165975103734,285 Z" style="fill:blue;stroke:black;stroke-width:0.5;" />
	<path d="M 240.165975103734,285 L 240.165975103734,281.49 L 243.153526970954,281.49 L 243.153526970954,285 Z" style="fill:blue;stroke:black;stroke-width:0.5;" />
	<path d="M 243.153526970954,285 L 243.153526970954,281.49 L 246.141078838174,281.49 L 246.141078838174,285 Z" style="fill:blue;stroke:black;stroke-width:0.5;" />
	<path d="M 246.141078838174,285 L 246.141078838174,281.49 L 249.128630705394,281.49 L 249.128630705394,285 Z" style="fill:blue;stroke:black;stroke-width:0.5;" />
	<text font-size="10" x="246.141078838174" y="297">70</text>
	<line stroke="black" stroke-width="2" x1="247.634854771784" x2="247.634854771784" y1="285" y2="283" />
	<line stroke="black" stroke-width="2" x1="247.634854771784" x2="247.634854771784" y1="285" y2="284" />
	<path d="M 249.128630705394,285 L 249.128630705394,280.626 L 252.116182572614,280.626 L 252.116182572614,285 Z" style="fill:blue;stroke:black;stroke-width:0.5;" />
	<path d="M 252.116182572614,285 L 252.116182572614,280.626 L 255.103734439834,280.626 L 255.103734439834,285 Z" style="fill:blue;stroke:black;stroke-width:0.5;" />
	<path d="M 255.103734439834,285 L 255.103734439834,280.626 L 258.091286307054,280.626 L 258.091286307054,285 Z" style="fill:blue;stroke:black;stroke-width:0.5;" />
	<path d="M 258.091286307054,285 L 258.091286307054,280.626 L 261.078838174274,280.626 L 261.078838174274,285 Z" style="fill:blue;stroke:black;stroke-width:0.5;" />
	<path d="M 261.078838174274,285 L 261.078838174274,280.626 L 264.066390041494,280.626 L 264.066390041494,285 Z" style="fill:blue;stroke:black;stroke-width:0.5;" />
	<line stroke="black" stroke-width="2" x1="262.572614107884" x2="262.572614107884" y1="285" y2="284" />
	<path d="M 264.066390041494,285 L 264.066390041494,280.626 L 267.053941908714,280.626 L 267.053941908714,285 Z" style="fill:blue;stroke:black;stroke-width:0.5;" />
	<path d="M 267.053941908714,285 L 267.053941908714,280.626 L 270.041493775934,280.626 L 270.041493775934,285 Z" style="fill:blue;stroke:black;stroke-width:0.5;" />
	<path d="M 270.041493775934,285 L 270.041493775934,280.626 L 273.029045643153,280.626 L 273.029045643153,285 Z" style="fill:blue;stroke:black;stroke-width:0.5;" />
	<path d="M 273.029045643153,285 L 273.029045643153,280.626 L 276.016597510373,280.626 L 276.016597510373,285 Z" style="fill:blue;stroke:black;stroke-width:0.5;" />
	<path d="M 276.016597510373,285 L 276.016597510373,280.626 L 279.004149377593,280.626 L 279.004149377593,285 Z" style="fill:blue;stroke:black;stroke-width:0.5;" />
	<text font-size="10" x="276.016597510373" y="297">80</text>
	<line stroke="black" stroke-width="2" x1="277.510373443983" x2="277.510373443983" y1="285" y2="283" />
	<line stroke="black" stroke-width="2" x1="277.510373443983" x2="277.510373443983" y1="285" y2="284" />
	<path d="M 279.004149377593,285 L 279.004149377593,280.626 L 281.991701244813,280.626 L 281.991701244813,285 Z" style="fill:blue;stroke:black;stroke-width:0.5;" />
	<path d="M 281.991701244813,285 L 281.991701244813,280.626 L 284.979253112033,280.626 L 284.979253112033,285 Z" style="fill:blue;stroke:black;stroke-width:0.5;" />
	<path d="M 284.979253112033,285 L 284.979253112033,280.626 L 287.966804979253,280.626 L 287.966804979253,285 Z" style="fill:blue;stroke:black;stroke-width:0.5;" />
	<path d="M 287.966804979253,285 L 287.966804979253,280.626 L 290.954356846473,280.626 L 290.954356846473,285 Z" style="fill:blue;stroke:black;stroke-width:0.5;" />
	<path d="M 290.954356846473,285 L 290.954356846473,280.626 L 293.941908713693,280.626 L 293.941908713693,285 Z" style="fill:blue;stroke:black;stroke-width:0.5;" />
	<line stroke="black" stroke-width="2" x1="292.448132780083" x2="292.448132780083" y1="285" y2="284" />
	<path d="M 293.941908713693,285 L 293.941908713693,280.626 L 296.929460580913,280.626 L 296.929460580913,285 Z" style="fill:blue;stroke:black;stroke-width:0.5;" />
	<path d="M 296.929460580913,285 L 296.929460580913,280.626 L 299.917012448133,280.626 L 299.917012448133,285 Z" style="fill:blue;stroke:black;stroke-width:0.5;" />
	<path d="M 299.917012448133,285 L 299.917012448133,280.626 L 302.904564315353,280.626 L 302.904564315353,285 Z" style="fill:blue;stroke:black;stroke-width:0.5;" />
	<path d="M 302.904564315353,285 L 302.904564315353,280.626 L 305.892116182573,280.626 L 305.892116182573,285 Z" style="fill:blue;stroke:black;stroke-width:0.5;" />
	<path d="M 305.892116182573,285 L 305.892116182573,280.626 L 308.879668049793,280.626 L 308.879668049793,285 Z" style="fill:blue;stroke:black;stroke-width:0.5;" />
	<text font-size="10" x="305.892116182573" y="297">90</text>
	<line stroke="black" stroke-width="2" x1="307.385892116183" x2="307.385892116183" y1="285" y2="283" />
	<line stroke="black" stroke-width="2" x1="307.385892116183" x2="307.385892116183" y1="285" y2="284" />
	<path d="M 308.879668049793,285 L 308.879668049793,280.626 L 311.867219917012,280.626 L 311.867219917012,285 Z" style="fill:blue;stroke:black;stroke-width:0.5;" />
	<path d="M 311.867219917012,285 L 311.867219917012,284.136 L 314.854771784232,284.136 L 314.854771784232,285 Z" style="fill:blue;stroke:black;stroke-width:0.5;" />
	<path d="M 314.854771784232,285 L 314.854771784232,284.136 L 317.842323651452,284.136 L 317.842323651452,285 Z" style="fill:blue;stroke:black;stroke-width:0.5;" />
	<path d="M 317.842323651452,285 L 317.842323651452,285 L 320.829875518672,285 L 320.829875518672,285 Z" style="fill:blue;stroke:black;stroke-width:0.5;" />
	<path d="M 320.829875518672,285 L 320.829875518672,285 L 323.817427385892,285 L 323.817427385892,285 Z" style="fill:blue;stroke:black;stroke-width:0.5;" />
	<line stroke="black" stroke-width="2" x1="322.323651452282" x2="322.323651452282" y1="285" y2="284" />
	<path d="M 323.817427385892,285 L 323.817427385892,285 L 326.804979253112,285 L 326.804979253112,285 Z" style="fill:blue;stroke:black;stroke-width:0.5;" />
	<path d="M 326.804979253112,285 L 326.804979253112,285 L 329.792531120332,285 L 329.792531120332,285 Z" style="fill:blue;stroke:black;stroke-width:0.5;" />
	<path d="M 329.792531120332,285 L 329.792531120332,285 L 332.780082987552,285 L 332.780082987552,285 Z" style="fill:gold;stroke:black;stroke-width:0.5;" />
	<path d="M 332.780082987552,285 L 332.780082987552,285 L 335.767634854772,285 L 335.767634854772,285 Z" style="fill:gold;stroke:black;stroke-width:0.5;" />
	<path d="M 335.767634854772,285 L 335.767634854772,285 L 338.755186721992,285 L 338.755186721992,285 Z" style="fill:gold;stroke:black;stroke-width:0.5;" />
	<text font-size="10" x="335.767634854772" y="297">100</text>
	<line stroke="black" stroke-width="2" x1="337.261410788382" x2="337.261410788382" y1="285" y2="283" />
	<line stroke="black" stroke-width="2" x1="337.261410788382" x2="337.261410788382" y1="285" y2="284" />
	<path d="M 338.755186721992,285 L 338.755186721992,285 L 341.742738589212,285 L 341.742738589212,285 Z" style="fill:gold;stroke:black;stroke-width:0.5;" />
	<path d="M 341.742738589212,285 L 341.742738589212,285 L 344.730290456432,285 L 344.730290456432,285 Z" style="fill:gold;stroke:black;stroke-width:0.5;" />
	<path d="M 344.730290456432,285 L 344.730290456432,285 L 347.717842323651,285 L 347.717842323651,285 Z" style="fill:gold;stroke:black;stroke-width:0.5;" />
	<path d="M 347.717842323651,285 L 347.717842323651,285 L 350.705394190871,285 L 350.705394190871,285 Z" style="fill:gold;stroke:black;stroke-width:0.5;" />
	<path d="M 350.705394190871,285 L 350.705394190871,285 L 353.692946058091,285 L 353.692946058091,285 Z" style="fill:gold;stroke:black;stroke-width:0.5;" />
	<line stroke="black" stroke-width="2" x1="352.199170124481" x2="352.199170124481" y1="285" y2="284" />
	<path d="M 353.692946058091,285 L 353.692946058091,285 L 356.680497925311,285 L 356.680497925311,285 Z" style="fill:gold;stroke:black;stroke-width:0.5;" />
	<path d="M 356.680497925311,285 L 356.680497925311,285 L 359.668049792531,285 L 359.668049792531,285 Z" style="fill:gold;stroke:black;stroke-width:0.5;" />
	<path d="M 359.668049792531,285 L 359.668049792531,285 L 362.655601659751,285 L 362.655601659751,285 Z" style="fill:gold;stroke:black;stroke-width:0.5;" />
	<path d="M 362.655601659751,285 L 362.655601659751,285 L 365.643153526971,285 L 365.643153526971,285 Z" style="fill:gold;stroke:black;stroke-width:0.5;" />
	<path d="M 365.643153526971,285 L 365.643153526971,285 L 368.630705394191,285 L 368.630705394191,285 Z" style="fill:gold;stroke:black;stroke-width:0.5;" />
	<text font-size="10" x="365.643153526971" y="297">110</text>
	<line stroke="black" stroke-width="2" x1="367.136929460581" x2="367.136929460581" y1="285" y2="283" />
	<line stroke="black" stroke-width="2" x1="367.136929460581" x2="367.136929460581" y1="285" y2="284" />
	<path d="M 368.630705394191,285 L 368.630705394191,285 L 371.618257261411,285 L 371.618257261411,285 Z" style="fill:gold;stroke:black;stroke-width:0.5;" />
	<path d="M 371.618257261411,285 L 371.618257261411,285 L 374.605809128631,285 L 374.605809128631,285 Z" style="fill:gold;stroke:black;stroke-width:0.5;" />
	<path d="M 374.605809128631,285 L 374.605809128631,285 L 377.593360995851,285 L 377.593360995851,285 Z" style="fill:gold;stroke:black;stroke-width:0.5;" />
	<path d="M 377.593360995851,285 L 377.593360995851,285 L 380.580912863071,285 L 380.580912863071,285 Z" style="fill:gold;stroke:black;stroke-width:0.5;" />
	<path d="M 380.580912863071,285 L 380.580912863071,285 L 383.56846473029,285 L 383.56846473029,285 Z" style="fill:gold;stroke:black;stroke-width:0.5;" />
	<line stroke="black" stroke-width="2" x1="382.074688796681" x2="382.074688796681" y1="285" y2="284" />
	<path d="M 383.56846473029,285 L 383.56846473029,285 L 386.55601659751,285 L 386.55601659751,285 Z" style="fill:gold;stroke:black;stroke-width:0.5;" />
	<path d="M 386.55601659751,285 L 386.55601659751,285 L 389.54356846473,285 L 389.54356846473,285 Z" style="fill:gold;stroke:black;stroke-width:0.5;" />
	<path d="M 389.54356846473,285 L 389.54356846473,285 L 392.53112033195,285 L 392.53112033195,285 Z" style="fill:gold;stroke:black;stroke-width:0.5;" />
	<path d="M 392.53112033195,285 L 392.53112033195,285 L 395.51867219917,285 L 395.51867219917,285 Z" style="fill:gold;stroke:black;stroke-width:0.5;" />
	<path d="M 395.51867219917,285 L 395.51867219917,285 L 398.50622406639,285 L 398.50622406639,285 Z" style="fill:gold;stroke:black;stroke-width:0.5;" />
	<text font-size="10" x="395.51867219917" y="297">120</text>
	<line stroke="black" stroke-width="2" x1="397.01244813278" x2="397.01244813278" y1="285" y2="283" />
	<line stroke="black" stroke-width="2" x1="397.01244813278" x2="397.01244813278" y1="285" y2="284" />
	<path d="M 398.50622406639,285 L 398.50622406639,285 L 401.49377593361,285 L 401.49377593361,285 Z" style="fill:gold;stroke:black;stroke-width:0.5;" />
	<path d="M 401.49377593361,285 L 401.49377593361,285 L 404.48132780083,285 L 404.48132780083,285 Z" style="fill:blue;stroke:black;stroke-width:0.5;" />
	<path d="M 404.48132780083,285 L 404.48132780083,285 L 407.46887966805,285 L 407.46887966805,285 Z" style="fill:blue;stroke:black;stroke-width:0.5;" />
	<path d="M 407.46887966805,285 L 407.46887966805,285 L 410.45643153527,285 L 410.45643153527,285 Z" style="fill:blue;stroke:black;stroke-width:0.5;" />
	<path d="M 410.45643153527,285 L 410.45643153527,285 L 413.44398340249,285 L 413.44398340249,285 Z" style="fill:blue;stroke:black;stroke-width:0.5;" />
	<line stroke="black" stroke-width="2" x1="411.95020746888" x2="411.95020746888" y1="285" y2="284" />
	<path d="M 413.44398340249,285 L 413.44398340249,285 L 416.43153526971,285 L 416.43153526971,285 Z" style="fill:blue;stroke:black;stroke-width:0.5;" />
	<path d="M 416.43153526971,285 L 416.43153526971,285 L 419.419087136929,285 L 419.419087136929,285 Z" style="fill:blue;stroke:black;stroke-width:0.5;" />
	<path d="M 419.419087136929,285 L 419.419087136929,285 L 422.406639004149,285 L 422.406639004149,285 Z" style="fill:blue;stroke:black;stroke-width:0.5;" />
	<path d="M 422.406639004149,285 L 422.406639004149,285 L 425.394190871369,285 L 425.394190871369,285 Z" style="fill:blue;stroke:black;stroke-width:0.5;" />
	<path d="M 425.394190871369,285 L 425.394190871369,285 L 428.381742738589,285 L 428.381742738589,285 Z" style="fill:blue;stroke:black;stroke-width:0.5;" />
	<text font-size="10" x="425.394190871369" y="297">130</text>
	<line stroke="black" stroke-width="2" x1="426.887966804979" x2="426.887966804979" y1="285" y2="283" />
	<line stroke="black" stroke-width="2" x1="426.887966804979" x2="426.887966804979" y1="285" y2="284" />
	<path d="M 428.381742738589,285 L 428.381742738589,285 L 431.369294605809,285 L 431.369294605809,285 Z" style="fill:blue;stroke:black;stroke-width:0.5;" />
	<path d="M 431.369294605809,285 L 431.369294605809,285 L 434.356846473029,285 L 434.356846473029,285 Z" style="fill:blue;stroke:black;stroke-width:0.5;" />
	<path d="M 434.356846473029,285 L 434.356846473029,285 L 437.344398340249,285 L 437.344398340249,285 Z" style="fill:blue;stroke:black;stroke-width:0.5;" />
	<path d="M 437.344398340249,285 L 437.344398340249,285 L 440.331950207469,285 L 440.331950207469,285 Z" style="fill:blue;stroke:black;stroke-width:0.5;" />
	<path d="M 440.331950207469,285 L 440.331950207469,285 L 443.319502074689,285 L 443.319502074689,285 Z" style="fill:blue;stroke:black;stroke-width:0.5;" />
	<line stroke="black" stroke-width="2" x1="441.825726141079" x2="441.825726141079" y1="285" y2="284" />
	<path d="M 443.319502074689,285 L 443.319502074689,285 L 446.307053941909,285 L 446.307053941909,285 Z" style="fill:blue;stroke:black;stroke-width:0.5;" />
	<path d="M 446.307053941909,285 L 446.307053941909,285 L 449.294605809129,285 L 449.294605809129,285 Z" style="fill:blue;stroke:black;stroke-width:0.5;" />
	<path d="M 449.294605809129,285 L 449.294605809129,285 L 452.282157676349,285 L 452.282157676349,285 Z" style="fill:blue;stroke:black;stroke-width:0.5;" />
	<path d="M 452.282157676349,285 L 452.282157676349,285 L 455.269709543568,285 L 455.269709543568,285 Z" style="fill:blue;stroke:black;stroke-width:0.5;" />
	<path d="M 455.269709543568,285 L 455.269709543568,285 L 458.257261410788,285 L 458.257261410788,285 Z" style="fill:blue;stroke:black;stroke-width:0.5;" />
	<text font-size="10" x="455.269709543568" y="297">140</text>
	<line stroke="black" stroke-width="2" x1="456.763485477178" x2="456.763485477178" y1="285" y2="283" />
	<line stroke="black" stroke-width="2" x1="456.763485477178" x2="456.763485477178" y1="285" y2="284" />
	<path d="M 458.257261410788,285 L 458.257261410788,285 L 461.244813278008,285 L 461.244813278008,285 Z" style="fill:blue;stroke:black;stroke-width:0.5;" />
	<path d="M 461.244813278008,285 L 461.244813278008,285 L 464.232365145228,285 L 464.232365145228,285 Z" style="fill:blue;stroke:black;stroke-width:0.5;" />
	<path d="M 464.232365145228,285 L 464.232365145228,285 L 467.219917012448,285 L 467.219917012448,285 Z" style="fill:blue;stroke:black;stroke-width:0.5;" />
	<path d="M 467.219917012448,285 L 467.219917012448,285 L 470.207468879668,285 L 470.207468879668,285 Z" style="fill:blue;stroke:black;stroke-width:0.5;" />
	<path d="M 470.207468879668,285 L 470.207468879668,285 L 473.195020746888,285 L 473.195020746888,285 Z" style="fill:blue;stroke:black;stroke-width:0.5;" />
	<line stroke="black" stroke-width="2" x1="471.701244813278" x2="471.701244813278" y1="285" y2="284" />
	<path d="M 473.195020746888,285 L 473.195020746888,285 L 476.182572614108,285 L 476.182572614108,285 Z" style="fill:blue;stroke:black;stroke-width:0.5;" />
	<path d="M 476.182572614108,285 L 476.182572614108,285 L 479.170124481328,285 L 479.170124481328,285 Z" style="fill:blue;stroke:black;stroke-width:0.5;" />
	<path d="M 479.170124481328,285 L 479.170124481328,285 L 482.157676348548,285 L 482.157676348548,285 Z" style="fill:blue;stroke:black;stroke-width:0.5;" />
	<path d="M 482.157676348548,285 L 482.157676348548,285 L 485.145228215768,285 L 485.145228215768,285 Z" style="fill:blue;stroke:black;stroke-width:0.5;" />
	<path d="M 485.145228215768,285 L 485.145228215768,285 L 488.132780082988,285 L 488.132780082988,285 Z" style="fill:blue;stroke:black;stroke-width:0.5;" />
	<text font-size="10" x="485.145228215768" y="297">150</text>
	<line stroke="black" stroke-width="2" x1="486.639004149378" x2="486.639004149378" y1="285" y2="283" />
	<line stroke="black" stroke-width="2" x1="486.639004149378" x2="486.639004149378" y1="285" y2="284" />
	<path d="M 488.132780082988,285 L 488.132780082988,285 L 491.120331950207,285 L 491.120331950207,285 Z" style="fill:blue;stroke:black;stroke-width:0.5;" />
	<path d="M 491.120331950207,285 L 491.120331950207,285 L 494.107883817427,285 L 494.107883817427,285 Z" style="fill:blue;stroke:black;stroke-width:0.5;" />
	<path d="M 494.107883817427,285 L 494.107883817427,285 L 497.095435684647,285 L 497.095435684647,285 Z" style="fill:blue;stroke:black;stroke-width:0.5;" />
	<path d="M 497.095435684647,285 L 497.095435684647,285 L 500.082987551867,285 L 500.082987551867,285 Z" style="fill:blue;stroke:black;stroke-width:0.5;" />
	<path d="M 500.082987551867,285 L 500.082987551867,285 L 503.070539419087,285 L 503.070539419087,285 Z" style="fill:blue;stroke:black;stroke-width:0.5;" />
	<line stroke="black" stroke-width="2" x1="501.576763485477" x2="501.576763485477" y1="285" y2="284" />
	<path d="M 503.070539419087,285 L 503.070539419087,285 L 506.058091286307,285 L 506.058091286307,285 Z" style="fill:blue;stroke:black;stroke-width:0.5;" />
	<path d="M 506.058091286307,285 L 506.058091286307,285 L 509.045643153527,285 L 509.045643153527,285 Z" style="fill:blue;stroke:black;stroke-width:0.5;" />
	<path d="M 509.045643153527,285 L 509.045643153527,285 L 512.033195020747,285 L 512.033195020747,285 Z" style="fill:blue;stroke:black;stroke-width:0.5;" />
	<path d="M 512.033195020747,285 L 512.033195020747,285 L 515.020746887967,285 L 515.020746887967,285 Z" style="fill:blue;stroke:black;stroke-width:0.5;" />
	<path d="M 515.020746887967,285 L 515.020746887967,285 L 518.008298755187,285 L 518.008298755187,285 Z" style="fill:blue;stroke:black;stroke-width:0.5;" />
	<text font-size="10" x="515.020746887967" y="297">160</text>
	<line stroke="black" stroke-width="2" x1="516.514522821577" x2="516.514522821577" y1="285" y2="283" />
	<line stroke="black" stroke-width="2" x1="516.514522821577" x2="516.514522821577" y1="285" y2="284" />
	<path d="M 518.008298755187,285 L 518.008298755187,285 L 520.995850622407,285 L 520.995850622407,285 Z" style="fill:blue;stroke:black;stroke-width:0.5;" />
	<path d="M 520.995850622407,285 L 520.995850622407,285 L 523.983402489627,285 L 523.983402489627,285 Z" style="fill:blue;stroke:black;stroke-width:0.5;" />
	<path d="M 523.983402489627,285 L 523.983402489627,285 L 526.970954356847,285 L 526.970954356847,285 Z" style="fill:blue;stroke:black;stroke-width:0.5;" />
	<path d="M 526.970954356847,285 L 526.970954356847,285 L 529.958506224066,285 L 529.958506224066,285 Z" style="fill:blue;stroke:black;stroke-width:0.5;" />
	<path d="M 529.958506224066,285 L 529.958506224066,285 L 532.946058091286,285 L 532.946058091286,285 Z" style="fill:blue;stroke:black;stroke-width:0.5;" />
	<line stroke="black" stroke-width="2" x1="531.452282157676" x2="531.452282157676" y1="285" y2="284" />
	<path d="M 532.946058091286,285 L 532.946058091286,285 L 535.933609958506,285 L 535.933609958506,285 Z" style="fill:blue;stroke:black;stroke-width:0.5;" />
	<path d="M 535.933609958506,285 L 535.933609958506,285 L 538.921161825726,285 L 538.921161825726,285 Z" style="fill:blue;stroke:black;stroke-width:0.5;" />
	<path d="M 538.921161825726,285 L 538.921161825726,285 L 541.908713692946,285 L 541.908713692946,285 Z" style="fill:blue;stroke:black;stroke-width:0.5;" />
	<path d="M 541.908713692946,285 L 541.908713692946,285 L 544.896265560166,285 L 544.896265560166,285 Z" style="fill:blue;stroke:black;stroke-width:0.5;" />
	<path d="M 544.896265560166,285 L 544.896265560166,285 L 547.883817427386,285 L 547.883817427386,285 Z" style="fill:blue;stroke:black;stroke-width:0.5;" />
	<text font-size="10" x="544.896265560166" y="297">170</text>
	<line stroke="black" stroke-width="2" x1="546.390041493776" x2="546.390041493776" y1="285" y2="283" />
	<line stroke="black" stroke-width="2" x1="546.390041493776" x2="546.390041493776" y1="285" y2="284" />
	<path d="M 547.883817427386,285 L 547.883817427386,285 L 550.871369294606,285 L 550.871369294606,285 Z" style="fill:blue;stroke:black;stroke-width:0.5;" />
	<path d="M 550.871369294606,285 L 550.871369294606,285 L 553.858921161826,285 L 553.858921161826,285 Z" style="fill:blue;stroke:black;stroke-width:0.5;" />
	<path d="M 553.858921161826,285 L 553.858921161826,285 L 556.846473029046,285 L 556.846473029046,285 Z" style="fill:blue;stroke:black;stroke-width:0.5;" />
	<path d="M 556.846473029046,285 L 556.846473029046,285 L 559.834024896266,285 L 559.834024896266,285 Z" style="fill:blue;stroke:black;stroke-width:0.5;" />
	<path d="M 559.834024896266,285 L 559.834024896266,285 L 562.821576763485,285 L 562.821576763485,285 Z" style="fill:blue;stroke:black;stroke-width:0.5;" />
	<line stroke="black" stroke-width="2" x1="561.327800829876" x2="561.327800829876" y1="285" y2="284" />
	<path d="M 562.821576763485,285 L 562.821576763485,285 L 565.809128630705,285 L 565.809128630705,285 Z" style="fill:blue;stroke:black;stroke-width:0.5;" />
	<path d="M 565.809128630705,285 L 565.809128630705,285 L 568.796680497925,285 L 568.796680497925,285 Z" style="fill:blue;stroke:black;stroke-width:0.5;" />
	<path d="M 568.796680497925,285 L 568.796680497925,285 L 571.784232365145,285 L 571.784232365145,285 Z" style="fill:blue;stroke:black;stroke-width:0.5;" />
	<path d="M 571.784232365145,285 L 571.784232365145,285 L 574.771784232365,285 L 574.771784232365,285 Z" style="fill:blue;stroke:black;stroke-width:0.5;" />
	<path d="M 574.771784232365,285 L 574.771784232365,285 L 577.759336099585,285 L 577.759336099585,285 Z" style="fill:blue;stroke:black;stroke-width:0.5;" />
	<text font-size="10" x="574.771784232365" y="297">180</text>
	<line stroke="black" stroke-width="2" x1="576.265560165975" x2="576.265560165975" y1="285" y2="283" />
	<line stroke="black" stroke-width="2" x1="576.265560165975" x2="576.265560165975" y1="285" y2="284" />
	<path d="M 577.759336099585,285 L 577.759336099585,285 L 580.746887966805,285 L 580.746887966805,285 Z" style="fill:blue;stroke:black;stroke-width:0.5;" />
	<path d="M 580.746887966805,285 L 580.746887966805,285 L 583.734439834025,285 L 583.734439834025,285 Z" style="fill:blue;stroke:black;stroke-width:0.5;" />
	<path d="M 583.734439834025,285 L 583.734439834025,285 L 586.721991701245,285 L 586.721991701245,285 Z" style="fill:blue;stroke:black;stroke-width:0.5;" />
	<path d="M 586.721991701245,285 L 586.721991701245,285 L 589.709543568465,285 L 589.709543568465,285 Z" style="fill:blue;stroke:black;stroke-width:0.5;" />
	<path d="M 589.709543568465,285 L 589.709543568465,285 L 592.697095435685,285 L 592.697095435685,285 Z" style="fill:blue;stroke:black;stroke-width:0.5;" />
	<line stroke="black" stroke-width="2" x1="591.203319502075" x2="591.203319502075" y1="285" y2="284" />
	<path d="M 592.697095435685,285 L 592.697095435685,285 L 595.684647302905,285 L 595.684647302905,285 Z" style="fill:blue;stroke:black;stroke-width:0.5;" />
	<path d="M 595.684647302905,285 L 595.684647302905,285 L 598.672199170124,285 L 598.672199170124,285 Z" style="fill:blue;stroke:black;stroke-width:0.5;" />
	<path d="M 598.672199170124,285 L 598.672199170124,285 L 601.659751037344,285 L 601.659751037344,285 Z" style="fill:blue;stroke:black;stroke-width:0.5;" />
	<path d="M 601.659751037344,285 L 601.659751037344,283.218 L 604.647302904564,283.218 L 604.647302904564,285 Z" style="fill:blue;stroke:black;stroke-width:0.5;" />
	<path d="M 604.647302904564,285 L 604.647302904564,283.218 L 607.634854771784,283.218 L 607.634854771784,285 Z" style="fill:blue;stroke:black;stroke-width:0.5;" />
	<text font-size="10" x="604.647302904564" y="297">190</text>
	<line stroke="black" stroke-width="2" x1="606.141078838174" x2="606.141078838174" y1="285" y2="283" />
	<line stroke="black" stroke-width="2" x1="606.141078838174" x2="606.141078838174" y1="285" y2="284" />
	<path d="M 607.634854771784,285 L 607.634854771784,283.218 L 610.622406639004,283.218 L 610.622406639004,285 Z" style="fill:blue;stroke:black;stroke-width:0.5;" />
	<path d="M 610.622406639004,285 L 610.622406639004,283.218 L 613.609958506224,283.218 L 613.609958506224,285 Z" style="fill:blue;stroke:black;stroke-width:0.5;" />
	<path d="M 613.609958506224,285 L 613.609958506224,283.218 L 616.597510373444,283.218 L 616.597510373444,285 Z" style="fill:blue;stroke:black;stroke-width:0.5;" />
	<path d="M 616.597510373444,285 L 616.597510373444,283.218 L 619.585062240664,283.218 L 619.585062240664,285 Z" style="fill:blue;stroke:black;stroke-width:0.5;" />
	<path d="M 619.585062240664,285 L 619.585062240664,277.062 L 622.572614107884,277.062 L 622.572614107884,285 Z" style="fill:blue;stroke:black;stroke-width:0.5;" />
	<line stroke="black" stroke-width="2" x1="621.078838174274" x2="621.078838174274" y1="285" y2="284" />
	<path d="M 622.572614107884,285 L 622.572614107884,277.062 L 625.560165975104,277.062 L 625.560165975104,285 Z" style="fill:blue;stroke:black;stroke-width:0.5;" />
	<path d="M 625.560165975104,285 L 625.560165975104,277.062 L 628.547717842324,277.062 L 628.547717842324,285 Z" style="fill:blue;stroke:black;stroke-width:0.5;" />
	<path d="M 628.547717842324,285 L 628.547717842324,276.198 L 631.535269709544,276.198 L 631.535269709544,285 Z" style="fill:blue;stroke:black;stroke-width:0.5;" />
	<path d="M 631.535269709544,285 L 631.535269709544,275.334 L 634.522821576763,275.334 L 634.522821576763,285 Z" style="fill:blue;stroke:black;stroke-width:0.5;" />
	<path d="M 634.522821576763,285 L 634.522821576763,275.334 L 637.510373443983,275.334 L 637.510373443983,285 Z" style="fill:blue;stroke:black;stroke-width:0.5;" />
	<text font-size="10" x="634.522821576763" y="297">200</text>
	<line stroke="black" stroke-width="2" x1="636.016597510373" x2="636.016597510373" y1="285" y2="283" />
	<line stroke="black" stroke-width="2" x1="636.016597510373" x2="636.016597510373" y1="285" y2="284" />
	<path d="M 637.510373443983,285 L 637.510373443983,275.334 L 640.497925311203,275.334 L 640.497925311203,285 Z" style="fill:blue;stroke:black;stroke-width:0.5;" />
	<path d="M 640.497925311203,285 L 640.497925311203,275.334 L 643.485477178423,275.334 L 643.485477178423,285 Z" style="fill:blue;stroke:black;stroke-width:0.5;" />
	<path d="M 643.485477178423,285 L 643.485477178423,263.076 L 646.473029045643,263.076 L 646.473029045643,285 Z" style="fill:blue;stroke:black;stroke-width:0.5;" />
	<path d="M 646.473029045643,285 L 646.473029045643,112.416 L 649.460580912863,112.416 L 649.460580912863,285 Z" style="fill:gold;stroke:black;stroke-width:0.5;" />
	<path d="M 649.460580912863,285 L 649.460580912863,112.416 L 652.448132780083,112.416 L 652.448132780083,285 Z" style="fill:gold;stroke:black;stroke-width:0.5;" />
	<line stroke="black" stroke-width="2" x1="650.954356846473" x2="650.954356846473" y1="285" y2="284" />
	<path d="M 652.448132780083,285 L 652.448132780083,111.552 L 655.435684647303,111.552 L 655.435684647303,285 Z" style="fill:gold;stroke:black;stroke-width:0.5;" />
	<path d="M 655.435684647303,285 L 655.435684647303,111.552 L 658.423236514523,111.552 L 658.423236514523,285 Z" style="fill:gold;stroke:black;stroke-width:0.5;" />
	<path d="M 658.423236514523,285 L 658.423236514523,111.552 L 661.410788381743,111.552 L 661.410788381743,285 Z" style="fill:gold;stroke:black;stroke-width:0.5;" />
	<path d="M 661.410788381743,285 L 661.410788381743,111.552 L 664.398340248963,111.552 L 664.398340248963,285 Z" style="fill:gold;stroke:black;stroke-width:0.5;" />
	<path d="M 664.398340248963,285 L 664.398340248963,111.552 L 667.385892116183,111.552 L 667.385892116183,285 Z" style="fill:gold;stroke:black;stroke-width:0.5;" />
	<text font-size="10" x="664.398340248963" y="297">210</text>
	<line stroke="black" stroke-width="2" x1="665.892116182573" x2="665.892116182573" y1="285" y2="283" />
	<line stroke="black" stroke-width="2" x1="665.892116182573" x2="665.892116182573" y1="285" y2="284" />
	<path d="M 667.385892116183,285 L 667.385892116183,111.552 L 670.373443983402,111.552 L 670.373443983402,285 Z" style="fill:gold;stroke:black;stroke-width:0.5;" />
	<path d="M 670.373443983402,285 L 670.373443983402,111.552 L 673.360995850622,111.552 L 673.360995850622,285 Z" style="fill:gold;stroke:black;stroke-width:0.5;" />
	<path d="M 673.360995850622,285 L 673.360995850622,113.334 L 676.348547717842,113.334 L 676.348547717842,285 Z" style="fill:gold;stroke:black;stroke-width:0.5;" />
	<path d="M 676.348547717842,285 L 676.348547717842,114.198 L 679.336099585062,114.198 L 679.336099585062,285 Z" style="fill:gold;stroke:black;stroke-width:0.5;" />
	<path d="M 679.336099585062,285 L 679.336099585062,114.198 L 682.323651452282,114.198 L 682.323651452282,285 Z" style="fill:gold;stroke:black;stroke-width:0.5;" />
	<line stroke="black" stroke-width="2" x1="680.829875518672" x2="680.829875518672" y1="285" y2="284" />
	<path d="M 682.323651452282,285 L 682.323651452282,114.198 L 685.311203319502,114.198 L 685.311203319502,285 Z" style="fill:gold;stroke:black;stroke-width:0.5;" />
	<path d="M 685.311203319502,285 L 685.311203319502,114.198 L 688.298755186722,114.198 L 688.298755186722,285 Z" style="fill:gold;stroke:black;stroke-width:0.5;" />
	<path d="M 688.298755186722,285 L 688.298755186722,117.708 L 691.286307053942,117.708 L 691.286307053942,285 Z" style="fill:gold;stroke:black;stroke-width:0.5;" />
	<path d="M 691.286307053942,285 L 691.286307053942,123.81 L 694.273858921162,123.81 L 694.273858921162,285 Z" style="fill:gold;stroke:black;stroke-width:0.5;" />
	<path d="M 694.273858921162,285 L 694.273858921162,123.81 L 697.261410788382,123.81 L 697.261410788382,285 Z" style="fill:gold;stroke:black;stroke-width:0.5;" />
	<text font-size="10" x="694.273858921162" y="297">220</text>
	<line stroke="black" stroke-width="2" x1="695.767634854772" x2="695.767634854772" y1="285" y2="283" />
	<line stroke="black" stroke-width="2" x1="695.767634854772" x2="695.767634854772" y1="285" y2="284" />
	<path d="M 697.261410788382,285 L 697.261410788382,123.81 L 700.248962655602,123.81 L 700.248962655602,285 Z" style="fill:gold;stroke:black;stroke-width:0.5;" />
	<path d="M 700.248962655602,285 L 700.248962655602,123.81 L 703.236514522822,123.81 L 703.236514522822,285 Z" style="fill:gold;stroke:black;stroke-width:0.5;" />
	<path d="M 703.236514522822,285 L 703.236514522822,123.81 L 706.224066390041,123.81 L 706.224066390041,285 Z" style="fill:gold;stroke:black;stroke-width:0.5;" />
	<path d="M 706.224066390041,285 L 706.224066390041,123.81 L 709.211618257261,123.81 L 709.211618257261,285 Z" style="fill:gold;stroke:black;stroke-width:0.5;" />
	<path d="M 709.211618257261,285 L 709.211618257261,123.81 L 712.199170124481,123.81 L 712.199170124481,285 Z" style="fill:gold;stroke:black;stroke-width:0.5;" />
	<line stroke="black" stroke-width="2" x1="710.705394190871" x2="710.705394190871" y1="285" y2="284" />
	<path d="M 712.199170124481,285 L 712.199170124481,123.81 L 715.186721991701,123.81 L 715.186721991701,285 Z" style="fill:gold;stroke:black;stroke-width:0.5;" />
	<path d="M 715.186721991701,285 L 715.186721991701,137.796 L 718.174273858921,137.796 L 718.174273858921,285 Z" style="fill:gold;stroke:black;stroke-width:0.5;" />
	<path d="M 718.174273858921,285 L 718.174273858921,284.136 L 721.161825726141,284.136 L 721.161825726141,285 Z" style="fill:blue;stroke:black;stroke-width:0.5;" />
	<path d="M 721.161825726141,285 L 721.161825726141,285 L 724.149377593361,285 L 724.149377593361,285 Z" style="fill:blue;stroke:black;stroke-width:0.5;" />
	<path d="M 724.149377593361,285 L 724.149377593361,285 L 727.136929460581,285 L 727.136929460581,285 Z" style="fill:blue;stroke:black;stroke-width:0.5;" />
	<text font-size="10" x="724.149377593361" y="297">230</text>
	<line stroke="black" stroke-width="2" x1="725.643153526971" x2="725.643153526971" y1="285" y2="283" />
	<line stroke="black" stroke-width="2" x1="725.643153526971" x2="725.643153526971" y1="285" y2="284" />
	<path d="M 727.136929460581,285 L 727.136929460581,285 L 730.124481327801,285 L 730.124481327801,285 Z" style="fill:blue;stroke:black;stroke-width:0.5;" />
	<path d="M 730.124481327801,285 L 730.124481327801,285 L 733.112033195021,285 L 733.112033195021,285 Z" style="fill:blue;stroke:black;stroke-width:0.5;" />
	<path d="M 733.112033195021,285 L 733.112033195021,285 L 736.099585062241,285 L 736.099585062241,285 Z" style="fill:blue;stroke:black;stroke-width:0.5;" />
	<path d="M 736.099585062241,285 L 736.099585062241,285 L 739.087136929461,285 L 739.087136929461,285 Z" style="fill:blue;stroke:black;stroke-width:0.5;" />
	<path d="M 739.087136929461,285 L 739.087136929461,285 L 742.074688796681,285 L 742.074688796681,285 Z" style="fill:blue;stroke:black;stroke-width:0.5;" />
	<line stroke="black" stroke-width="2" x1="740.580912863071" x2="740.580912863071" y1="285" y2="284" />
	<path d="M 742.074688796681,285 L 742.074688796681,285 L 745.0622406639,285 L 745.0622406639,285 Z" style="fill:blue;stroke:black;stroke-width:0.5;" />
	<path d="M 745.0622406639,285 L 745.0622406639,285 L 748.04979253112,285 L 748.04979253112,285 Z" style="fill:blue;stroke:black;stroke-width:0.5;" />
	<path d="M 748.04979253112,285 L 748.04979253112,285 L 751.03734439834,285 L 751.03734439834,285 Z" style="fill:blue;stroke:black;stroke-width:0.5;" />
	<path d="M 751.03734439834,285 L 751.03734439834,285 L 754.02489626556,285 L 754.02489626556,285 Z" style="fill:blue;stroke:black;stroke-width:0.5;" />
	<path d="M 754.02489626556,285 L 754.02489626556,285 L 757.01244813278,285 L 757.01244813278,285 Z" style="fill:blue;stroke:black;stroke-width:0.5;" />
	<text font-size="10" x="754.02489626556" y="297">240</text>
	<line stroke="black" stroke-width="2" x1="755.51867219917" x2="755.51867219917" y1="285" y2="283" />
	<line stroke="black" stroke-width="2" x1="755.51867219917" x2="755.51867219917" y1="285" y2="284" />
	<path d="M 757.01244813278,285 L 757.01244813278,285 L 760,285 L 760,285 Z" style="fill:blue;stroke:black;stroke-width:0.5;" />
	<!-- 
	Generated using the Perl SVG Module V2.50
	by Ronan Oger
	Info: http://www.roitsystems.com/
 -->
</svg>