<?xml version="1.0" encoding="UTF-8" standalone="yes"?>
<!DOCTYPE svg PUBLIC "-//W3C//DTD SVG 1.0//EN" "http://www.w3.org/TR/2001/REC-SVG-20010904/DTD/svg10.dtd">
<svg height="300" width="800" xmlns="http://www.w3.org/2000/svg" xmlns:svg="http://www.w3.org/2000/svg" xmlns:xlink="http://www.w3.org/1999/xlink">
	<line stroke="black" stroke-width="2" x1="40" x2="40" y1="15" y2="285" />
	<line stroke="black" stroke-width="2" x1="40" x2="44.0909090909091" y1="231" y2="231" />
	<text font-size="12" x="46.1363636363636" y="231">2</text>
	<line stroke="black" stroke-width="2" x1="40" x2="44.0909090909091" y1="177" y2="177" />
	<text font-size="12" x="46.1363636363636" y="177">4</text>
	<line stroke="black" stroke-width="2" x1="40" x2="44.0909090909091" y1="123" y2="123" />
	<text font-size="12" x="46.1363636363636" y="123">6</text>
	<line stroke="black" stroke-width="2" x1="40" x2="44.0909090909091" y1="69" y2="69" />
	<text font-size="12" x="46.1363636363636" y="69">8</text>
	<line stroke="black" stroke-width="2" x1="40" x2="44.0909090909091" y1="15" y2="15" />
	<text font-size="12" x="46.1363636363636" y="15">10</text>
	<line stroke="black" stroke-width="2" x1="40" x2="800" y1="285" y2="285" />
	<path d="M 40,285 L 40,285 L 44.0909090909091,285 L 44.0909090909091,285 Z" style="fill:blue;stroke:black;stroke-width:0.5;" />
	<path d="M 44.0909090909091,285 L 44.0909090909091,285 L 48.1818181818182,285 L 48.1818181818182,285 Z" style="fill:blue;stroke:black;stroke-width:0.5;" />
	<path d="M 48.1818181818182,285 L 48.1818181818182,285 L 52.2727272727273,285 L 52.2727272727273,285 Z" style="fill:blue;stroke:black;stroke-width:0.5;" />
	<path d="M 52.2727272727273,285 L 52.2727272727273,285 L 56.3636363636364,285 L 56.3636363636364,285 Z" style="fill:blue;stroke:black;stroke-width:0.5;" />
	<path d="M 56.3636363636364,285 L 56.3636363636364,285 L 60.4545454545455,285 L 60.4545454545455,285 Z" style="fill:blue;stroke:black;stroke-width:0.5;" />
	<line stroke="black" stroke-width="2" x1="58.4090909090909" x2="58.4090909090909" y1="285" y2="284" />
	<path d="M 60.4545454545455,285 L 60.4545454545455,285 L 64.5454545454545,285 L 64.5454545454545,285 Z" style="fill:blue;stroke:black;stroke-width:0.5;" />
	<path d="M 64.5454545454545,285 L 64.5454545454545,285 L 68.6363636363636,285 L 68.6363636363636,285 Z" style="fill:blue;stroke:black;stroke-width:0.5;" />
	<path d="M 68.6363636363636,285 L 68.6363636363636,285 L 72.7272727272727,285 L 72.7272727272727,285 Z" style="fill:blue;stroke:black;stroke-width:0.5;" />
	<path d="M 72.7272727272727,285 L 72.7272727272727,285 L 76.8181818181818,285 L 76.8181818181818,285 Z" style="fill:blue;stroke:black;stroke-width:0.5;" />
	<path d="M 76.8181818181818,285 L 76.8181818181818,285 L 80.9090909090909,285 L 80.9090909090909,285 Z" style="fill:blue;stroke:black;stroke-width:0.5;" />
	<text font-size="10" x="76.8181818181818" y="297">10</text>
	<line stroke="black" stroke-width="2" x1="78.8636363636364" x2="78.8636363636364" y1="285" y2="283" />
	<line stroke="black" stroke-width="2" x1="78.8636363636364" x2="78.8636363636364" y1="285" y2="284" />
	<path d="M 80.9090909090909,285 L 80.9090909090909,285 L 85,285 L 85,285 Z" style="fill:blue;stroke:black;stroke-width:0.5;" />
	<path d="M 85,285 L 85,285 L 89.0909090909091,285 L 89.0909090909091,285 Z" style="fill:blue;stroke:black;stroke-width:0.5;" />
	<path d="M 89.0909090909091,285 L 89.0909090909091,285 L 93.1818181818182,285 L 93.1818181818182,285 Z" style="fill:blue;stroke:black;stroke-width:0.5;" />
	<path d="M 93.1818181818182,285 L 93.1818181818182,285 L 97.2727272727273,285 L 97.2727272727273,285 Z" style="fill:blue;stroke:black;stroke-width:0.5;" />
	<path d="M 97.2727272727273,285 L 97.2727272727273,285 L 101.363636363636,285 L 101.363636363636,285 Z" style="fill:blue;stroke:black;stroke-width:0.5;" />
	<line stroke="black" stroke-width="2" x1="99.3181818181818" x2="99.3181818181818" y1="285" y2="284" />
	<path d="M 101.363636363636,285 L 101.363636363636,285 L 105.454545454545,285 L 105.454545454545,285 Z" style="fill:blue;stroke:black;stroke-width:0.5;" />
	<path d="M 105.454545454545,285 L 105.454545454545,285 L 109.545454545455,285 L 109.545454545455,285 Z" style="fill:blue;stroke:black;stroke-width:0.5;" />
	<path d="M 109.545454545455,285 L 109.545454545455,285 L 113.636363636364,285 L 113.636363636364,285 Z" style="fill:blue;stroke:black;stroke-width:0.5;" />
	<path d="M 113.636363636364,285 L 113.636363636364,285 L 117.727272727273,285 L 117.727272727273,285 Z" style="fill:blue;stroke:black;stroke-width:0.5;" />
	<path d="M 117.727272727273,285 L 117.727272727273,285 L 121.818181818182,285 L 121.818181818182,285 Z" style="fill:blue;stroke:black;stroke-width:0.5;" />
	<text font-size="10" x="117.727272727273" y="297">20</text>
	<line stroke="black" stroke-width="2" x1="119.772727272727" x2="119.772727272727" y1="285" y2="283" />
	<line stroke="black" stroke-width="2" x1="119.772727272727" x2="119.772727272727" y1="285" y2="284" />
	<path d="M 121.818181818182,285 L 121.818181818182,285 L 125.909090909091,285 L 125.909090909091,285 Z" style="fill:blue;stroke:black;stroke-width:0.5;" />
	<path d="M 125.909090909091,285 L 125.909090909091,285 L 130,285 L 130,285 Z" style="fill:blue;stroke:black;stroke-width:0.5;" />
	<path d="M 130,285 L 130,153.78 L 134.090909090909,153.78 L 134.090909090909,285 Z" style="fill:gold;stroke:black;stroke-width:0.5;" />
	<path d="M 134.090909090909,285 L 134.090909090909,153.78 L 138.181818181818,153.78 L 138.181818181818,285 Z" style="fill:gold;stroke:black;stroke-width:0.5;" />
	<path d="M 138.181818181818,285 L 138.181818181818,149.46 L 142.272727272727,149.46 L 142.272727272727,285 Z" style="fill:gold;stroke:black;stroke-width:0.5;" />
	<line stroke="black" stroke-width="2" x1="140.227272727273" x2="140.227272727273" y1="285" y2="284" />
	<path d="M 142.272727272727,285 L 142.272727272727,149.46 L 146.363636363636,149.46 L 146.363636363636,285 Z" style="fill:gold;stroke:black;stroke-width:0.5;" />
	<path d="M 146.363636363636,285 L 146.363636363636,149.46 L 150.454545454545,149.46 L 150.454545454545,285 Z" style="fill:gold;stroke:black;stroke-width:0.5;" />
	<path d="M 150.454545454545,285 L 150.454545454545,149.46 L 154.545454545455,149.46 L 154.545454545455,285 Z" style="fill:gold;stroke:black;stroke-width:0.5;" />
	<path d="M 154.545454545455,285 L 154.545454545455,149.46 L 158.636363636364,149.46 L 158.636363636364,285 Z" style="fill:gold;stroke:black;stroke-width:0.5;" />
	<path d="M 158.636363636364,285 L 158.636363636364,149.46 L 162.727272727273,149.46 L 162.727272727273,285 Z" style="fill:gold;stroke:black;stroke-width:0.5;" />
	<text font-size="10" x="158.636363636364" y="297">30</text>
	<line stroke="black" stroke-width="2" x1="160.681818181818" x2="160.681818181818" y1="285" y2="283" />
	<line stroke="black" stroke-width="2" x1="160.681818181818" x2="160.681818181818" y1="285" y2="284" />
	<path d="M 162.727272727273,285 L 162.727272727273,149.46 L 166.818181818182,149.46 L 166.818181818182,285 Z" style="fill:gold;stroke:black;stroke-width:0.5;" />
	<path d="M 166.818181818182,285 L 166.818181818182,149.46 L 170.909090909091,149.46 L 170.909090909091,285 Z" style="fill:gold;stroke:black;stroke-width:0.5;" />
	<path d="M 170.909090909091,285 L 170.909090909091,149.46 L 175,149.46 L 175,285 Z" style="fill:gold;stroke:black;stroke-width:0.5;" />
	<path d="M 175,285 L 175,149.46 L 179.090909090909,149.46 L 179.090909090909,285 Z" style="fill:gold;stroke:black;stroke-width:0.5;" />
	<path d="M 179.090909090909,285 L 179.090909090909,149.46 L 183.181818181818,149.46 L 183.181818181818,285 Z" style="fill:gold;stroke:black;stroke-width:0.5;" />
	<line stroke="black" stroke-width="2" x1="181.136363636364" x2="181.136363636364" y1="285" y2="284" />
	<path d="M 183.181818181818,285 L 183.181818181818,149.46 L 187.272727272727,149.46 L 187.272727272727,285 Z" style="fill:gold;stroke:black;stroke-width:0.5;" />
	<path d="M 187.272727272727,285 L 187.272727272727,149.46 L 191.363636363636,149.46 L 191.363636363636,285 Z" style="fill:gold;stroke:black;stroke-width:0.5;" />
	<path d="M 191.363636363636,285 L 191.363636363636,149.46 L 195.454545454545,149.46 L 195.454545454545,285 Z" style="fill:gold;stroke:black;stroke-width:0.5;" />
	<path d="M 195.454545454545,285 L 195.454545454545,149.46 L 199.545454545455,149.46 L 199.545454545455,285 Z" style="fill:gold;stroke:black;stroke-width:0.5;" />
	<path d="M 199.545454545455,285 L 199.545454545455,149.46 L 203.636363636364,149.46 L 203.636363636364,285 Z" style="fill:gold;stroke:black;stroke-width:0.5;" />
	<text font-size="10" x="199.545454545455" y="297">40</text>
	<line stroke="black" stroke-width="2" x1="201.590909090909" x2="201.590909090909" y1="285" y2="283" />
	<line stroke="black" stroke-width="2" x1="201.590909090909" x2="201.590909090909" y1="285" y2="284" />
	<path d="M 203.636363636364,285 L 203.636363636364,149.46 L 207.727272727273,149.46 L 207.727272727273,285 Z" style="fill:gold;stroke:black;stroke-width:0.5;" />
	<path d="M 207.727272727273,285 L 207.727272727273,149.46 L 211.818181818182,149.46 L 211.818181818182,285 Z" style="fill:gold;stroke:black;stroke-width:0.5;" />
	<path d="M 211.818181818182,285 L 211.818181818182,149.46 L 215.909090909091,149.46 L 215.909090909091,285 Z" style="fill:gold;stroke:black;stroke-width:0.5;" />
	<path d="M 215.909090909091,285 L 215.909090909091,280.68 L 220,280.68 L 220,285 Z" style="fill:blue;stroke:black;stroke-width:0.5;" />
	<path d="M 220,285 L 220,280.68 L 224.090909090909,280.68 L 224.090909090909,285 Z" style="fill:blue;stroke:black;stroke-width:0.5;" />
	<line stroke="black" stroke-width="2" x1="222.045454545455" x2="222.045454545455" y1="285" y2="284" />
	<path d="M 224.090909090909,285 L 224.090909090909,280.68 L 228.181818181818,280.68 L 228.181818181818,285 Z" style="fill:blue;stroke:black;stroke-width:0.5;" />
	<path d="M 228.181818181818,285 L 228.181818181818,280.68 L 232.272727272727,280.68 L 232.272727272727,285 Z" style="fill:blue;stroke:black;stroke-width:0.5;" />
	<path d="M 232.272727272727,285 L 232.272727272727,280.68 L 236.363636363636,280.68 L 236.363636363636,285 Z" style="fill:blue;stroke:black;stroke-width:0.5;" />
	<path d="M 236.363636363636,285 L 236.363636363636,280.68 L 240.454545454545,280.68 L 240.454545454545,285 Z" style="fill:blue;stroke:black;stroke-width:0.5;" />
	<path d="M 240.454545454545,285 L 240.454545454545,285 L 244.545454545455,285 L 244.545454545455,285 Z" style="fill:blue;stroke:black;stroke-width:0.5;" />
	<text font-size="10" x="240.454545454545" y="297">50</text>
	<line stroke="black" stroke-width="2" x1="242.5" x2="242.5" y1="285" y2="283" />
	<line stroke="black" stroke-width="2" x1="242.5" x2="242.5" y1="285" y2="284" />
	<path d="M 244.545454545455,285 L 244.545454545455,285 L 248.636363636364,285 L 248.636363636364,285 Z" style="fill:blue;stroke:black;stroke-width:0.5;" />
	<path d="M 248.636363636364,285 L 248.636363636364,285 L 252.727272727273,285 L 252.727272727273,285 Z" style="fill:blue;stroke:black;stroke-width:0.5;" />
	<path d="M 252.727272727273,285 L 252.727272727273,285 L 256.818181818182,285 L 256.818181818182,285 Z" style="fill:blue;stroke:black;stroke-width:0.5;" />
	<path d="M 256.818181818182,285 L 256.818181818182,285 L 260.909090909091,285 L 260.909090909091,285 Z" style="fill:blue;stroke:black;stroke-width:0.5;" />
	<path d="M 260.909090909091,285 L 260.909090909091,285 L 265,285 L 265,285 Z" style="fill:blue;stroke:black;stroke-width:0.5;" />
	<line stroke="black" stroke-width="2" x1="262.954545454545" x2="262.954545454545" y1="285" y2="284" />
	<path d="M 265,285 L 265,285 L 269.090909090909,285 L 269.090909090909,285 Z" style="fill:blue;stroke:black;stroke-width:0.5;" />
	<path d="M 269.090909090909,285 L 269.090909090909,285 L 273.181818181818,285 L 273.181818181818,285 Z" style="fill:blue;stroke:black;stroke-width:0.5;" />
	<path d="M 273.181818181818,285 L 273.181818181818,285 L 277.272727272727,285 L 277.272727272727,285 Z" style="fill:blue;stroke:black;stroke-width:0.5;" />
	<path d="M 277.272727272727,285 L 277.272727272727,285 L 281.363636363636,285 L 281.363636363636,285 Z" style="fill:blue;stroke:black;stroke-width:0.5;" />
	<path d="M 281.363636363636,285 L 281.363636363636,285 L 285.454545454545,285 L 285.454545454545,285 Z" style="fill:blue;stroke:black;stroke-width:0.5;" />
	<text font-size="10" x="281.363636363636" y="297">60</text>
	<line stroke="black" stroke-width="2" x1="283.409090909091" x2="283.409090909091" y1="285" y2="283" />
	<line stroke="black" stroke-width="2" x1="283.409090909091" x2="283.409090909091" y1="285" y2="284" />
	<path d="M 285.454545454545,285 L 285.454545454545,285 L 289.545454545455,285 L 289.545454545455,285 Z" style="fill:blue;stroke:black;stroke-width:0.5;" />
	<path d="M 289.545454545455,285 L 289.545454545455,285 L 293.636363636364,285 L 293.636363636364,285 Z" style="fill:blue;stroke:black;stroke-width:0.5;" />
	<path d="M 293.636363636364,285 L 293.636363636364,285 L 297.727272727273,285 L 297.727272727273,285 Z" style="fill:blue;stroke:black;stroke-width:0.5;" />
	<path d="M 297.727272727273,285 L 297.727272727273,285 L 301.818181818182,285 L 301.818181818182,285 Z" style="fill:blue;stroke:black;stroke-width:0.5;" />
	<path d="M 301.818181818182,285 L 301.818181818182,285 L 305.909090909091,285 L 305.909090909091,285 Z" style="fill:blue;stroke:black;stroke-width:0.5;" />
	<line stroke="black" stroke-width="2" x1="303.863636363636" x2="303.863636363636" y1="285" y2="284" />
	<path d="M 305.909090909091,285 L 305.909090909091,285 L 310,285 L 310,285 Z" style="fill:blue;stroke:black;stroke-width:0.5;" />
	<path d="M 310,285 L 310,285 L 314.090909090909,285 L 314.090909090909,285 Z" style="fill:blue;stroke:black;stroke-width:0.5;" />
	<path d="M 314.090909090909,285 L 314.090909090909,285 L 318.181818181818,285 L 318.181818181818,285 Z" style="fill:blue;stroke:black;stroke-width:0.5;" />
	<path d="M 318.181818181818,285 L 318.181818181818,285 L 322.272727272727,285 L 322.272727272727,285 Z" style="fill:blue;stroke:black;stroke-width:0.5;" />
	<path d="M 322.272727272727,285 L 322.272727272727,285 L 326.363636363636,285 L 326.363636363636,285 Z" style="fill:blue;stroke:black;stroke-width:0.5;" />
	<text font-size="10" x="322.272727272727" y="297">70</text>
	<line stroke="black" stroke-width="2" x1="324.318181818182" x2="324.318181818182" y1="285" y2="283" />
	<line stroke="black" stroke-width="2" x1="324.318181818182" x2="324.318181818182" y1="285" y2="284" />
	<path d="M 326.363636363636,285 L 326.363636363636,285 L 330.454545454545,285 L 330.454545454545,285 Z" style="fill:blue;stroke:black;stroke-width:0.5;" />
	<path d="M 330.454545454545,285 L 330.454545454545,285 L 334.545454545455,285 L 334.545454545455,285 Z" style="fill:blue;stroke:black;stroke-width:0.5;" />
	<path d="M 334.545454545455,285 L 334.545454545455,285 L 338.636363636364,285 L 338.636363636364,285 Z" style="fill:blue;stroke:black;stroke-width:0.5;" />
	<path d="M 338.636363636364,285 L 338.636363636364,285 L 342.727272727273,285 L 342.727272727273,285 Z" style="fill:blue;stroke:black;stroke-width:0.5;" />
	<path d="M 342.727272727273,285 L 342.727272727273,285 L 346.818181818182,285 L 346.818181818182,285 Z" style="fill:blue;stroke:black;stroke-width:0.5;" />
	<line stroke="black" stroke-width="2" x1="344.772727272727" x2="344.772727272727" y1="285" y2="284" />
	<path d="M 346.818181818182,285 L 346.818181818182,285 L 350.909090909091,285 L 350.909090909091,285 Z" style="fill:blue;stroke:black;stroke-width:0.5;" />
	<path d="M 350.909090909091,285 L 350.909090909091,285 L 355,285 L 355,285 Z" style="fill:blue;stroke:black;stroke-width:0.5;" />
	<path d="M 355,285 L 355,285 L 359.090909090909,285 L 359.090909090909,285 Z" style="fill:blue;stroke:black;stroke-width:0.5;" />
	<path d="M 359.090909090909,285 L 359.090909090909,285 L 363.181818181818,285 L 363.181818181818,285 Z" style="fill:blue;stroke:black;stroke-width:0.5;" />
	<path d="M 363.181818181818,285 L 363.181818181818,276.09 L 367.272727272727,276.09 L 367.272727272727,285 Z" style="fill:blue;stroke:black;stroke-width:0.5;" />
	<text font-size="10" x="363.181818181818" y="297">80</text>
	<line stroke="black" stroke-width="2" x1="365.227272727273" x2="365.227272727273" y1="285" y2="283" />
	<line stroke="black" stroke-width="2" x1="365.227272727273" x2="365.227272727273" y1="285" y2="284" />
	<path d="M 367.272727272727,285 L 367.272727272727,267.45 L 371.363636363636,267.45 L 371.363636363636,285 Z" style="fill:blue;stroke:black;stroke-width:0.5;" />
	<path d="M 371.363636363636,285 L 371.363636363636,267.45 L 375.454545454545,267.45 L 375.454545454545,285 Z" style="fill:blue;stroke:black;stroke-width:0.5;" />
	<path d="M 375.454545454545,285 L 375.454545454545,267.45 L 379.545454545455,267.45 L 379.545454545455,285 Z" style="fill:blue;stroke:black;stroke-width:0.5;" />
	<path d="M 379.545454545455,285 L 379.545454545455,267.45 L 383.636363636364,267.45 L 383.636363636364,285 Z" style="fill:blue;stroke:black;stroke-width:0.5;" />
	<path d="M 383.636363636364,285 L 383.636363636364,267.45 L 387.727272727273,267.45 L 387.727272727273,285 Z" style="fill:blue;stroke:black;stroke-width:0.5;" />
	<line stroke="black" stroke-width="2" x1="385.681818181818" x2="385.681818181818" y1="285" y2="284" />
	<path d="M 387.727272727273,285 L 387.727272727273,267.45 L 391.818181818182,267.45 L 391.818181818182,285 Z" style="fill:gold;stroke:black;stroke-width:0.5;" />
	<path d="M 391.818181818182,285 L 391.818181818182,267.45 L 395.909090909091,267.45 L 395.909090909091,285 Z" style="fill:gold;stroke:black;stroke-width:0.5;" />
	<path d="M 395.909090909091,285 L 395.909090909091,267.45 L 400,267.45 L 400,285 Z" style="fill:gold;stroke:black;stroke-width:0.5;" />
	<path d="M 400,285 L 400,267.45 L 404.090909090909,267.45 L 404.090909090909,285 Z" style="fill:gold;stroke:black;stroke-width:0.5;" />
	<path d="M 404.090909090909,285 L 404.090909090909,267.45 L 408.181818181818,267.45 L 408.181818181818,285 Z" style="fill:gold;stroke:black;stroke-width:0.5;" />
	<text font-size="10" x="404.090909090909" y="297">90</text>
	<line stroke="black" stroke-width="2" x1="406.136363636364" x2="406.136363636364" y1="285" y2="283" />
	<line stroke="black" stroke-width="2" x1="406.136363636364" x2="406.136363636364" y1="285" y2="284" />
	<path d="M 408.181818181818,285 L 408.181818181818,267.45 L 412.272727272727,267.45 L 412.272727272727,285 Z" style="fill:gold;stroke:black;stroke-width:0.5;" />
	<path d="M 412.272727272727,285 L 412.272727272727,267.45 L 416.363636363636,267.45 L 416.363636363636,285 Z" style="fill:gold;stroke:black;stroke-width:0.5;" />
	<path d="M 416.363636363636,285 L 416.363636363636,267.45 L 420.454545454545,267.45 L 420.454545454545,285 Z" style="fill:gold;stroke:black;stroke-width:0.5;" />
	<path d="M 420.454545454545,285 L 420.454545454545,267.45 L 424.545454545455,267.45 L 424.545454545455,285 Z" style="fill:gold;stroke:black;stroke-width:0.5;" />
	<path d="M 424.545454545455,285 L 424.545454545455,267.45 L 428.636363636364,267.45 L 428.636363636364,285 Z" style="fill:gold;stroke:black;stroke-width:0.5;" />
	<line stroke="black" stroke-width="2" x1="426.590909090909" x2="426.590909090909" y1="285" y2="284" />
	<path d="M 428.636363636364,285 L 428.636363636364,267.45 L 432.727272727273,267.45 L 432.727272727273,285 Z" style="fill:gold;stroke:black;stroke-width:0.5;" />
	<path d="M 432.727272727273,285 L 432.727272727273,267.45 L 436.818181818182,267.45 L 436.818181818182,285 Z" style="fill:gold;stroke:black;stroke-width:0.5;" />
	<path d="M 436.818181818182,285 L 436.818181818182,267.45 L 440.909090909091,267.45 L 440.909090909091,285 Z" style="fill:gold;stroke:black;stroke-width:0.5;" />
	<path d="M 440.909090909091,285 L 440.909090909091,267.45 L 445,267.45 L 445,285 Z" style="fill:gold;stroke:black;stroke-width:0.5;" />
	<path d="M 445,285 L 445,267.45 L 449.090909090909,267.45 L 449.090909090909,285 Z" style="fill:gold;stroke:black;stroke-width:0.5;" />
	<text font-size="10" x="445" y="297">100</text>
	<line stroke="black" stroke-width="2" x1="447.045454545455" x2="447.045454545455" y1="285" y2="283" />
	<line stroke="black" stroke-width="2" x1="447.045454545455" x2="447.045454545455" y1="285" y2="284" />
	<path d="M 449.090909090909,285 L 449.090909090909,267.45 L 453.181818181818,267.45 L 453.181818181818,285 Z" style="fill:gold;stroke:black;stroke-width:0.5;" />
	<path d="M 453.181818181818,285 L 453.181818181818,267.45 L 457.272727272727,267.45 L 457.272727272727,285 Z" style="fill:gold;stroke:black;stroke-width:0.5;" />
	<path d="M 457.272727272727,285 L 457.272727272727,267.45 L 461.363636363636,267.45 L 461.363636363636,285 Z" style="fill:gold;stroke:black;stroke-width:0.5;" />
	<path d="M 461.363636363636,285 L 461.363636363636,280.68 L 465.454545454545,280.68 L 465.454545454545,285 Z" style="fill:gold;stroke:black;stroke-width:0.5;" />
	<path d="M 465.454545454545,285 L 465.454545454545,285 L 469.545454545455,285 L 469.545454545455,285 Z" style="fill:gold;stroke:black;stroke-width:0.5;" />
	<line stroke="black" stroke-width="2" x1="467.5" x2="467.5" y1="285" y2="284" />
	<path d="M 469.545454545455,285 L 469.545454545455,285 L 473.636363636364,285 L 473.636363636364,285 Z" style="fill:gold;stroke:black;stroke-width:0.5;" />
	<path d="M 473.636363636364,285 L 473.636363636364,285 L 477.727272727273,285 L 477.727272727273,285 Z" style="fill:blue;stroke:black;stroke-width:0.5;" />
	<path d="M 477.727272727273,285 L 477.727272727273,285 L 481.818181818182,285 L 481.818181818182,285 Z" style="fill:blue;stroke:black;stroke-width:0.5;" />
	<path d="M 481.818181818182,285 L 481.818181818182,285 L 485.909090909091,285 L 485.909090909091,285 Z" style="fill:blue;stroke:black;stroke-width:0.5;" />
	<path d="M 485.909090909091,285 L 485.909090909091,285 L 490,285 L 490,285 Z" style="fill:blue;stroke:black;stroke-width:0.5;" />
	<text font-size="10" x="485.909090909091" y="297">110</text>
	<line stroke="black" stroke-width="2" x1="487.954545454545" x2="487.954545454545" y1="285" y2="283" />
	<line stroke="black" stroke-width="2" x1="487.954545454545" x2="487.954545454545" y1="285" y2="284" />
	<path d="M 490,285 L 490,285 L 494.090909090909,285 L 494.090909090909,285 Z" style="fill:blue;stroke:black;stroke-width:0.5;" />
	<path d="M 494.090909090909,285 L 494.090909090909,285 L 498.181818181818,285 L 498.181818181818,285 Z" style="fill:blue;stroke:black;stroke-width:0.5;" />
	<path d="M 498.181818181818,285 L 498.181818181818,285 L 502.272727272727,285 L 502.272727272727,285 Z" style="fill:blue;stroke:black;stroke-width:0.5;" />
	<path d="M 502.272727272727,285 L 502.272727272727,285 L 506.363636363636,285 L 506.363636363636,285 Z" style="fill:blue;stroke:black;stroke-width:0.5;" />
	<path d="M 506.363636363636,285 L 506.363636363636,285 L 510.454545454545,285 L 510.454545454545,285 Z" style="fill:blue;stroke:black;stroke-width:0.5;" />
	<line stroke="black" stroke-width="2" x1="508.409090909091" x2="508.409090909091" y1="285" y2="284" />
	<path d="M 510.454545454545,285 L 510.454545454545,285 L 514.545454545455,285 L 514.545454545455,285 Z" style="fill:blue;stroke:black;stroke-width:0.5;" />
	<path d="M 514.545454545455,285 L 514.545454545455,285 L 518.636363636364,285 L 518.636363636364,285 Z" style="fill:blue;stroke:black;stroke-width:0.5;" />
	<path d="M 518.636363636364,285 L 518.636363636364,285 L 522.727272727273,285 L 522.727272727273,285 Z" style="fill:blue;stroke:black;stroke-width:0.5;" />
	<path d="M 522.727272727273,285 L 522.727272727273,285 L 526.818181818182,285 L 526.818181818182,285 Z" style="fill:blue;stroke:black;stroke-width:0.5;" />
	<path d="M 526.818181818182,285 L 526.818181818182,285 L 530.909090909091,285 L 530.909090909091,285 Z" style="fill:blue;stroke:black;stroke-width:0.5;" />
	<text font-size="10" x="526.818181818182" y="297">120</text>
	<line stroke="black" stroke-width="2" x1="528.863636363636" x2="528.863636363636" y1="285" y2="283" />
	<line stroke="black" stroke-width="2" x1="528.863636363636" x2="528.863636363636" y1="285" y2="284" />
	<path d="M 530.909090909091,285 L 530.909090909091,285 L 535,285 L 535,285 Z" style="fill:blue;stroke:black;stroke-width:0.5;" />
	<path d="M 535,285 L 535,285 L 539.090909090909,285 L 539.090909090909,285 Z" style="fill:blue;stroke:black;stroke-width:0.5;" />
	<path d="M 539.090909090909,285 L 539.090909090909,285 L 543.181818181818,285 L 543.181818181818,285 Z" style="fill:blue;stroke:black;stroke-width:0.5;" />
	<path d="M 543.181818181818,285 L 543.181818181818,285 L 547.272727272727,285 L 547.272727272727,285 Z" style="fill:blue;stroke:black;stroke-width:0.5;" />
	<path d="M 547.272727272727,285 L 547.272727272727,285 L 551.363636363636,285 L 551.363636363636,285 Z" style="fill:blue;stroke:black;stroke-width:0.5;" />
	<line stroke="black" stroke-width="2" x1="549.318181818182" x2="549.318181818182" y1="285" y2="284" />
	<path d="M 551.363636363636,285 L 551.363636363636,285 L 555.454545454545,285 L 555.454545454545,285 Z" style="fill:blue;stroke:black;stroke-width:0.5;" />
	<path d="M 555.454545454545,285 L 555.454545454545,285 L 559.545454545455,285 L 559.545454545455,285 Z" style="fill:blue;stroke:black;stroke-width:0.5;" />
	<path d="M 559.545454545455,285 L 559.545454545455,285 L 563.636363636364,285 L 563.636363636364,285 Z" style="fill:blue;stroke:black;stroke-width:0.5;" />
	<path d="M 563.636363636364,285 L 563.636363636364,285 L 567.727272727273,285 L 567.727272727273,285 Z" style="fill:blue;stroke:black;stroke-width:0.5;" />
	<path d="M 567.727272727273,285 L 567.727272727273,285 L 571.818181818182,285 L 571.818181818182,285 Z" style="fill:blue;stroke:black;stroke-width:0.5;" />
	<text font-size="10" x="567.727272727273" y="297">130</text>
	<line stroke="black" stroke-width="2" x1="569.772727272727" x2="569.772727272727" y1="285" y2="283" />
	<line stroke="black" stroke-width="2" x1="569.772727272727" x2="569.772727272727" y1="285" y2="284" />
	<path d="M 571.818181818182,285 L 571.818181818182,285 L 575.909090909091,285 L 575.909090909091,285 Z" style="fill:blue;stroke:black;stroke-width:0.5;" />
	<path d="M 575.909090909091,285 L 575.909090909091,285 L 580,285 L 580,285 Z" style="fill:blue;stroke:black;stroke-width:0.5;" />
	<path d="M 580,285 L 580,285 L 584.090909090909,285 L 584.090909090909,285 Z" style="fill:blue;stroke:black;stroke-width:0.5;" />
	<path d="M 584.090909090909,285 L 584.090909090909,285 L 588.181818181818,285 L 588.181818181818,285 Z" style="fill:blue;stroke:black;stroke-width:0.5;" />
	<path d="M 588.181818181818,285 L 588.181818181818,285 L 592.272727272727,285 L 592.272727272727,285 Z" style="fill:blue;stroke:black;stroke-width:0.5;" />
	<line stroke="black" stroke-width="2" x1="590.227272727273" x2="590.227272727273" y1="285" y2="284" />
	<path d="M 592.272727272727,285 L 592.272727272727,285 L 596.363636363636,285 L 596.363636363636,285 Z" style="fill:blue;stroke:black;stroke-width:0.5;" />
	<path d="M 596.363636363636,285 L 596.363636363636,285 L 600.454545454545,285 L 600.454545454545,285 Z" style="fill:blue;stroke:black;stroke-width:0.5;" />
	<path d="M 600.454545454545,285 L 600.454545454545,285 L 604.545454545455,285 L 604.545454545455,285 Z" style="fill:blue;stroke:black;stroke-width:0.5;" />
	<path d="M 604.545454545455,285 L 604.545454545455,285 L 608.636363636364,285 L 608.636363636364,285 Z" style="fill:blue;stroke:black;stroke-width:0.5;" />
	<path d="M 608.636363636364,285 L 608.636363636364,285 L 612.727272727273,285 L 612.727272727273,285 Z" style="fill:blue;stroke:black;stroke-width:0.5;" />
	<text font-size="10" x="608.636363636364" y="297">140</text>
	<line stroke="black" stroke-width="2" x1="610.681818181818" x2="610.681818181818" y1="285" y2="283" />
	<line stroke="black" stroke-width="2" x1="610.681818181818" x2="610.681818181818" y1="285" y2="284" />
	<path d="M 612.727272727273,285 L 612.727272727273,285 L 616.818181818182,285 L 616.818181818182,285 Z" style="fill:blue;stroke:black;stroke-width:0.5;" />
	<path d="M 616.818181818182,285 L 616.818181818182,285 L 620.909090909091,285 L 620.909090909091,285 Z" style="fill:blue;stroke:black;stroke-width:0.5;" />
	<path d="M 620.909090909091,285 L 620.909090909091,285 L 625,285 L 625,285 Z" style="fill:blue;stroke:black;stroke-width:0.5;" />
	<path d="M 625,285 L 625,285 L 629.090909090909,285 L 629.090909090909,285 Z" style="fill:blue;stroke:black;stroke-width:0.5;" />
	<path d="M 629.090909090909,285 L 629.090909090909,285 L 633.181818181818,285 L 633.181818181818,285 Z" style="fill:blue;stroke:black;stroke-width:0.5;" />
	<line stroke="black" stroke-width="2" x1="631.136363636364" x2="631.136363636364" y1="285" y2="284" />
	<path d="M 633.181818181818,285 L 633.181818181818,285 L 637.272727272727,285 L 637.272727272727,285 Z" style="fill:blue;stroke:black;stroke-width:0.5;" />
	<path d="M 637.272727272727,285 L 637.272727272727,285 L 641.363636363636,285 L 641.363636363636,285 Z" style="fill:blue;stroke:black;stroke-width:0.5;" />
	<path d="M 641.363636363636,285 L 641.363636363636,285 L 645.454545454545,285 L 645.454545454545,285 Z" style="fill:blue;stroke:black;stroke-width:0.5;" />
	<path d="M 645.454545454545,285 L 645.454545454545,285 L 649.545454545455,285 L 649.545454545455,285 Z" style="fill:blue;stroke:black;stroke-width:0.5;" />
	<path d="M 649.545454545455,285 L 649.545454545455,285 L 653.636363636364,285 L 653.636363636364,285 Z" style="fill:blue;stroke:black;stroke-width:0.5;" />
	<text font-size="10" x="649.545454545455" y="297">150</text>
	<line stroke="black" stroke-width="2" x1="651.590909090909" x2="651.590909090909" y1="285" y2="283" />
	<line stroke="black" stroke-width="2" x1="651.590909090909" x2="651.590909090909" y1="285" y2="284" />
	<path d="M 653.636363636364,285 L 653.636363636364,285 L 657.727272727273,285 L 657.727272727273,285 Z" style="fill:blue;stroke:black;stroke-width:0.5;" />
	<path d="M 657.727272727273,285 L 657.727272727273,285 L 661.818181818182,285 L 661.818181818182,285 Z" style="fill:blue;stroke:black;stroke-width:0.5;" />
	<path d="M 661.818181818182,285 L 661.818181818182,285 L 665.909090909091,285 L 665.909090909091,285 Z" style="fill:blue;stroke:black;stroke-width:0.5;" />
	<path d="M 665.909090909091,285 L 665.909090909091,285 L 670,285 L 670,285 Z" style="fill:blue;stroke:black;stroke-width:0.5;" />
	<path d="M 670,285 L 670,285 L 674.090909090909,285 L 674.090909090909,285 Z" style="fill:blue;stroke:black;stroke-width:0.5;" />
	<line stroke="black" stroke-width="2" x1="672.045454545455" x2="672.045454545455" y1="285" y2="284" />
	<path d="M 674.090909090909,285 L 674.090909090909,285 L 678.181818181818,285 L 678.181818181818,285 Z" style="fill:blue;stroke:black;stroke-width:0.5;" />
	<path d="M 678.181818181818,285 L 678.181818181818,285 L 682.272727272727,285 L 682.272727272727,285 Z" style="fill:blue;stroke:black;stroke-width:0.5;" />
	<path d="M 682.272727272727,285 L 682.272727272727,285 L 686.363636363636,285 L 686.363636363636,285 Z" style="fill:blue;stroke:black;stroke-width:0.5;" />
	<path d="M 686.363636363636,285 L 686.363636363636,285 L 690.454545454545,285 L 690.454545454545,285 Z" style="fill:blue;stroke:black;stroke-width:0.5;" />
	<path d="M 690.454545454545,285 L 690.454545454545,285 L 694.545454545455,285 L 694.545454545455,285 Z" style="fill:blue;stroke:black;stroke-width:0.5;" />
	<text font-size="10" x="690.454545454545" y="297">160</text>
	<line stroke="black" stroke-width="2" x1="692.5" x2="692.5" y1="285" y2="283" />
	<line stroke="black" stroke-width="2" x1="692.5" x2="692.5" y1="285" y2="284" />
	<path d="M 694.545454545455,285 L 694.545454545455,285 L 698.636363636364,285 L 698.636363636364,285 Z" style="fill:blue;stroke:black;stroke-width:0.5;" />
	<path d="M 698.636363636364,285 L 698.636363636364,285 L 702.727272727273,285 L 702.727272727273,285 Z" style="fill:blue;stroke:black;stroke-width:0.5;" />
	<path d="M 702.727272727273,285 L 702.727272727273,285 L 706.818181818182,285 L 706.818181818182,285 Z" style="fill:blue;stroke:black;stroke-width:0.5;" />
	<path d="M 706.818181818182,285 L 706.818181818182,285 L 710.909090909091,285 L 710.909090909091,285 Z" style="fill:blue;stroke:black;stroke-width:0.5;" />
	<path d="M 710.909090909091,285 L 710.909090909091,285 L 715,285 L 715,285 Z" style="fill:blue;stroke:black;stroke-width:0.5;" />
	<line stroke="black" stroke-width="2" x1="712.954545454545" x2="712.954545454545" y1="285" y2="284" />
	<path d="M 715,285 L 715,285 L 719.090909090909,285 L 719.090909090909,285 Z" style="fill:blue;stroke:black;stroke-width:0.5;" />
	<path d="M 719.090909090909,285 L 719.090909090909,285 L 723.181818181818,285 L 723.181818181818,285 Z" style="fill:blue;stroke:black;stroke-width:0.5;" />
	<path d="M 723.181818181818,285 L 723.181818181818,285 L 727.272727272727,285 L 727.272727272727,285 Z" style="fill:blue;stroke:black;stroke-width:0.5;" />
	<path d="M 727.272727272727,285 L 727.272727272727,285 L 731.363636363636,285 L 731.363636363636,285 Z" style="fill:blue;stroke:black;stroke-width:0.5;" />
	<path d="M 731.363636363636,285 L 731.363636363636,285 L 735.454545454545,285 L 735.454545454545,285 Z" style="fill:blue;stroke:black;stroke-width:0.5;" />
	<text font-size="10" x="731.363636363636" y="297">170</text>
	<line stroke="black" stroke-width="2" x1="733.409090909091" x2="733.409090909091" y1="285" y2="283" />
	<line stroke="black" stroke-width="2" x1="733.409090909091" x2="733.409090909091" y1="285" y2="284" />
	<path d="M 735.454545454545,285 L 735.454545454545,285 L 739.545454545455,285 L 739.545454545455,285 Z" style="fill:blue;stroke:black;stroke-width:0.5;" />
	<path d="M 739.545454545455,285 L 739.545454545455,285 L 743.636363636364,285 L 743.636363636364,285 Z" style="fill:blue;stroke:black;stroke-width:0.5;" />
	<path d="M 743.636363636364,285 L 743.636363636364,285 L 747.727272727273,285 L 747.727272727273,285 Z" style="fill:blue;stroke:black;stroke-width:0.5;" />
	<path d="M 747.727272727273,285 L 747.727272727273,285 L 751.818181818182,285 L 751.818181818182,285 Z" style="fill:blue;stroke:black;stroke-width:0.5;" />
	<path d="M 751.818181818182,285 L 751.818181818182,285 L 755.909090909091,285 L 755.909090909091,285 Z" style="fill:blue;stroke:black;stroke-width:0.5;" />
	<line stroke="black" stroke-width="2" x1="753.863636363636" x2="753.863636363636" y1="285" y2="284" />
	<path d="M 755.909090909091,285 L 755.909090909091,285 L 760,285 L 760,285 Z" style="fill:blue;stroke:black;stroke-width:0.5;" />
	<!-- 
	Generated using the Perl SVG Module V2.50
	by Ronan Oger
	Info: http://www.roitsystems.com/
 -->
</svg>