<?xml version="1.0" encoding="UTF-8" standalone="yes"?>
<!DOCTYPE svg PUBLIC "-//W3C//DTD SVG 1.0//EN" "http://www.w3.org/TR/2001/REC-SVG-20010904/DTD/svg10.dtd">
<svg height="300" width="800" xmlns="http://www.w3.org/2000/svg" xmlns:svg="http://www.w3.org/2000/svg" xmlns:xlink="http://www.w3.org/1999/xlink">
	<line stroke="black" stroke-width="2" x1="40" x2="40" y1="15" y2="285" />
	<line stroke="black" stroke-width="2" x1="40" x2="43.4123222748815" y1="231" y2="231" />
	<text font-size="12" x="45.1184834123223" y="231">10</text>
	<line stroke="black" stroke-width="2" x1="40" x2="43.4123222748815" y1="177" y2="177" />
	<text font-size="12" x="45.1184834123223" y="177">20</text>
	<line stroke="black" stroke-width="2" x1="40" x2="43.4123222748815" y1="123" y2="123" />
	<text font-size="12" x="45.1184834123223" y="123">30</text>
	<line stroke="black" stroke-width="2" x1="40" x2="43.4123222748815" y1="69" y2="69" />
	<text font-size="12" x="45.1184834123223" y="69">40</text>
	<line stroke="black" stroke-width="2" x1="40" x2="43.4123222748815" y1="15" y2="15" />
	<text font-size="12" x="45.1184834123223" y="15">50</text>
	<line stroke="black" stroke-width="2" x1="40" x2="800" y1="285" y2="285" />
	<path d="M 40,285 L 40,285 L 43.4123222748815,285 L 43.4123222748815,285 Z" style="fill:blue;stroke:black;stroke-width:0.5;" />
	<path d="M 43.4123222748815,285 L 43.4123222748815,285 L 46.824644549763,285 L 46.824644549763,285 Z" style="fill:blue;stroke:black;stroke-width:0.5;" />
	<path d="M 46.824644549763,285 L 46.824644549763,285 L 50.2369668246446,285 L 50.2369668246446,285 Z" style="fill:blue;stroke:black;stroke-width:0.5;" />
	<path d="M 50.2369668246446,285 L 50.2369668246446,285 L 53.6492890995261,285 L 53.6492890995261,285 Z" style="fill:blue;stroke:black;stroke-width:0.5;" />
	<path d="M 53.6492890995261,285 L 53.6492890995261,285 L 57.0616113744076,285 L 57.0616113744076,285 Z" style="fill:blue;stroke:black;stroke-width:0.5;" />
	<line stroke="black" stroke-width="2" x1="55.3554502369668" x2="55.3554502369668" y1="285" y2="284" />
	<path d="M 57.0616113744076,285 L 57.0616113744076,285 L 60.4739336492891,285 L 60.4739336492891,285 Z" style="fill:blue;stroke:black;stroke-width:0.5;" />
	<path d="M 60.4739336492891,285 L 60.4739336492891,285 L 63.8862559241706,285 L 63.8862559241706,285 Z" style="fill:blue;stroke:black;stroke-width:0.5;" />
	<path d="M 63.8862559241706,285 L 63.8862559241706,285 L 67.2985781990521,285 L 67.2985781990521,285 Z" style="fill:blue;stroke:black;stroke-width:0.5;" />
	<path d="M 67.2985781990521,285 L 67.2985781990521,285 L 70.7109004739336,285 L 70.7109004739336,285 Z" style="fill:blue;stroke:black;stroke-width:0.5;" />
	<path d="M 70.7109004739336,285 L 70.7109004739336,285 L 74.1232227488152,285 L 74.1232227488152,285 Z" style="fill:blue;stroke:black;stroke-width:0.5;" />
	<text font-size="10" x="70.7109004739336" y="297">10</text>
	<line stroke="black" stroke-width="2" x1="72.4170616113744" x2="72.4170616113744" y1="285" y2="283" />
	<line stroke="black" stroke-width="2" x1="72.4170616113744" x2="72.4170616113744" y1="285" y2="284" />
	<path d="M 74.1232227488152,285 L 74.1232227488152,285 L 77.5355450236967,285 L 77.5355450236967,285 Z" style="fill:blue;stroke:black;stroke-width:0.5;" />
	<path d="M 77.5355450236967,285 L 77.5355450236967,285 L 80.9478672985782,285 L 80.9478672985782,285 Z" style="fill:blue;stroke:black;stroke-width:0.5;" />
	<path d="M 80.9478672985782,285 L 80.9478672985782,285 L 84.3601895734597,285 L 84.3601895734597,285 Z" style="fill:blue;stroke:black;stroke-width:0.5;" />
	<path d="M 84.3601895734597,285 L 84.3601895734597,285 L 87.7725118483412,285 L 87.7725118483412,285 Z" style="fill:blue;stroke:black;stroke-width:0.5;" />
	<path d="M 87.7725118483412,285 L 87.7725118483412,285 L 91.1848341232227,285 L 91.1848341232227,285 Z" style="fill:blue;stroke:black;stroke-width:0.5;" />
	<line stroke="black" stroke-width="2" x1="89.478672985782" x2="89.478672985782" y1="285" y2="284" />
	<path d="M 91.1848341232227,285 L 91.1848341232227,285 L 94.5971563981043,285 L 94.5971563981043,285 Z" style="fill:blue;stroke:black;stroke-width:0.5;" />
	<path d="M 94.5971563981043,285 L 94.5971563981043,285 L 98.0094786729858,285 L 98.0094786729858,285 Z" style="fill:blue;stroke:black;stroke-width:0.5;" />
	<path d="M 98.0094786729858,285 L 98.0094786729858,285 L 101.421800947867,285 L 101.421800947867,285 Z" style="fill:blue;stroke:black;stroke-width:0.5;" />
	<path d="M 101.421800947867,285 L 101.421800947867,285 L 104.834123222749,285 L 104.834123222749,285 Z" style="fill:blue;stroke:black;stroke-width:0.5;" />
	<path d="M 104.834123222749,285 L 104.834123222749,285 L 108.24644549763,285 L 108.24644549763,285 Z" style="fill:blue;stroke:black;stroke-width:0.5;" />
	<text font-size="10" x="104.834123222749" y="297">20</text>
	<line stroke="black" stroke-width="2" x1="106.54028436019" x2="106.54028436019" y1="285" y2="283" />
	<line stroke="black" stroke-width="2" x1="106.54028436019" x2="106.54028436019" y1="285" y2="284" />
	<path d="M 108.24644549763,285 L 108.24644549763,285 L 111.658767772512,285 L 111.658767772512,285 Z" style="fill:blue;stroke:black;stroke-width:0.5;" />
	<path d="M 111.658767772512,285 L 111.658767772512,285 L 115.071090047393,285 L 115.071090047393,285 Z" style="fill:blue;stroke:black;stroke-width:0.5;" />
	<path d="M 115.071090047393,285 L 115.071090047393,284.136 L 118.483412322275,284.136 L 118.483412322275,285 Z" style="fill:blue;stroke:black;stroke-width:0.5;" />
	<path d="M 118.483412322275,285 L 118.483412322275,284.136 L 121.895734597156,284.136 L 121.895734597156,285 Z" style="fill:blue;stroke:black;stroke-width:0.5;" />
	<path d="M 121.895734597156,285 L 121.895734597156,284.136 L 125.308056872038,284.136 L 125.308056872038,285 Z" style="fill:blue;stroke:black;stroke-width:0.5;" />
	<line stroke="black" stroke-width="2" x1="123.601895734597" x2="123.601895734597" y1="285" y2="284" />
	<path d="M 125.308056872038,285 L 125.308056872038,284.136 L 128.720379146919,284.136 L 128.720379146919,285 Z" style="fill:blue;stroke:black;stroke-width:0.5;" />
	<path d="M 128.720379146919,285 L 128.720379146919,284.136 L 132.132701421801,284.136 L 132.132701421801,285 Z" style="fill:blue;stroke:black;stroke-width:0.5;" />
	<path d="M 132.132701421801,285 L 132.132701421801,284.136 L 135.545023696682,284.136 L 135.545023696682,285 Z" style="fill:blue;stroke:black;stroke-width:0.5;" />
	<path d="M 135.545023696682,285 L 135.545023696682,284.136 L 138.957345971564,284.136 L 138.957345971564,285 Z" style="fill:blue;stroke:black;stroke-width:0.5;" />
	<path d="M 138.957345971564,285 L 138.957345971564,284.136 L 142.369668246445,284.136 L 142.369668246445,285 Z" style="fill:blue;stroke:black;stroke-width:0.5;" />
	<text font-size="10" x="138.957345971564" y="297">30</text>
	<line stroke="black" stroke-width="2" x1="140.663507109005" x2="140.663507109005" y1="285" y2="283" />
	<line stroke="black" stroke-width="2" x1="140.663507109005" x2="140.663507109005" y1="285" y2="284" />
	<path d="M 142.369668246445,285 L 142.369668246445,284.136 L 145.781990521327,284.136 L 145.781990521327,285 Z" style="fill:blue;stroke:black;stroke-width:0.5;" />
	<path d="M 145.781990521327,285 L 145.781990521327,284.136 L 149.194312796209,284.136 L 149.194312796209,285 Z" style="fill:blue;stroke:black;stroke-width:0.5;" />
	<path d="M 149.194312796209,285 L 149.194312796209,284.136 L 152.60663507109,284.136 L 152.60663507109,285 Z" style="fill:blue;stroke:black;stroke-width:0.5;" />
	<path d="M 152.60663507109,285 L 152.60663507109,284.136 L 156.018957345972,284.136 L 156.018957345972,285 Z" style="fill:blue;stroke:black;stroke-width:0.5;" />
	<path d="M 156.018957345972,285 L 156.018957345972,284.136 L 159.431279620853,284.136 L 159.431279620853,285 Z" style="fill:blue;stroke:black;stroke-width:0.5;" />
	<line stroke="black" stroke-width="2" x1="157.725118483412" x2="157.725118483412" y1="285" y2="284" />
	<path d="M 159.431279620853,285 L 159.431279620853,284.136 L 162.843601895735,284.136 L 162.843601895735,285 Z" style="fill:blue;stroke:black;stroke-width:0.5;" />
	<path d="M 162.843601895735,285 L 162.843601895735,284.136 L 166.255924170616,284.136 L 166.255924170616,285 Z" style="fill:blue;stroke:black;stroke-width:0.5;" />
	<path d="M 166.255924170616,285 L 166.255924170616,284.136 L 169.668246445498,284.136 L 169.668246445498,285 Z" style="fill:blue;stroke:black;stroke-width:0.5;" />
	<path d="M 169.668246445498,285 L 169.668246445498,284.136 L 173.080568720379,284.136 L 173.080568720379,285 Z" style="fill:blue;stroke:black;stroke-width:0.5;" />
	<path d="M 173.080568720379,285 L 173.080568720379,284.136 L 176.492890995261,284.136 L 176.492890995261,285 Z" style="fill:blue;stroke:black;stroke-width:0.5;" />
	<text font-size="10" x="173.080568720379" y="297">40</text>
	<line stroke="black" stroke-width="2" x1="174.78672985782" x2="174.78672985782" y1="285" y2="283" />
	<line stroke="black" stroke-width="2" x1="174.78672985782" x2="174.78672985782" y1="285" y2="284" />
	<path d="M 176.492890995261,285 L 176.492890995261,284.136 L 179.905213270142,284.136 L 179.905213270142,285 Z" style="fill:blue;stroke:black;stroke-width:0.5;" />
	<path d="M 179.905213270142,285 L 179.905213270142,284.136 L 183.317535545024,284.136 L 183.317535545024,285 Z" style="fill:blue;stroke:black;stroke-width:0.5;" />
	<path d="M 183.317535545024,285 L 183.317535545024,284.136 L 186.729857819905,284.136 L 186.729857819905,285 Z" style="fill:blue;stroke:black;stroke-width:0.5;" />
	<path d="M 186.729857819905,285 L 186.729857819905,284.136 L 190.142180094787,284.136 L 190.142180094787,285 Z" style="fill:blue;stroke:black;stroke-width:0.5;" />
	<path d="M 190.142180094787,285 L 190.142180094787,284.136 L 193.554502369668,284.136 L 193.554502369668,285 Z" style="fill:blue;stroke:black;stroke-width:0.5;" />
	<line stroke="black" stroke-width="2" x1="191.848341232227" x2="191.848341232227" y1="285" y2="284" />
	<path d="M 193.554502369668,285 L 193.554502369668,285 L 196.96682464455,285 L 196.96682464455,285 Z" style="fill:blue;stroke:black;stroke-width:0.5;" />
	<path d="M 196.96682464455,285 L 196.96682464455,285 L 200.379146919431,285 L 200.379146919431,285 Z" style="fill:blue;stroke:black;stroke-width:0.5;" />
	<path d="M 200.379146919431,285 L 200.379146919431,285 L 203.791469194313,285 L 203.791469194313,285 Z" style="fill:blue;stroke:black;stroke-width:0.5;" />
	<path d="M 203.791469194313,285 L 203.791469194313,285 L 207.203791469194,285 L 207.203791469194,285 Z" style="fill:blue;stroke:black;stroke-width:0.5;" />
	<path d="M 207.203791469194,285 L 207.203791469194,285 L 210.616113744076,285 L 210.616113744076,285 Z" style="fill:blue;stroke:black;stroke-width:0.5;" />
	<text font-size="10" x="207.203791469194" y="297">50</text>
	<line stroke="black" stroke-width="2" x1="208.909952606635" x2="208.909952606635" y1="285" y2="283" />
	<line stroke="black" stroke-width="2" x1="208.909952606635" x2="208.909952606635" y1="285" y2="284" />
	<path d="M 210.616113744076,285 L 210.616113744076,285 L 214.028436018957,285 L 214.028436018957,285 Z" style="fill:blue;stroke:black;stroke-width:0.5;" />
	<path d="M 214.028436018957,285 L 214.028436018957,285 L 217.440758293839,285 L 217.440758293839,285 Z" style="fill:blue;stroke:black;stroke-width:0.5;" />
	<path d="M 217.440758293839,285 L 217.440758293839,285 L 220.85308056872,285 L 220.85308056872,285 Z" style="fill:blue;stroke:black;stroke-width:0.5;" />
	<path d="M 220.85308056872,285 L 220.85308056872,285 L 224.265402843602,285 L 224.265402843602,285 Z" style="fill:blue;stroke:black;stroke-width:0.5;" />
	<path d="M 224.265402843602,285 L 224.265402843602,285 L 227.677725118483,285 L 227.677725118483,285 Z" style="fill:blue;stroke:black;stroke-width:0.5;" />
	<line stroke="black" stroke-width="2" x1="225.971563981043" x2="225.971563981043" y1="285" y2="284" />
	<path d="M 227.677725118483,285 L 227.677725118483,285 L 231.090047393365,285 L 231.090047393365,285 Z" style="fill:blue;stroke:black;stroke-width:0.5;" />
	<path d="M 231.090047393365,285 L 231.090047393365,285 L 234.502369668246,285 L 234.502369668246,285 Z" style="fill:blue;stroke:black;stroke-width:0.5;" />
	<path d="M 234.502369668246,285 L 234.502369668246,285 L 237.914691943128,285 L 237.914691943128,285 Z" style="fill:blue;stroke:black;stroke-width:0.5;" />
	<path d="M 237.914691943128,285 L 237.914691943128,285 L 241.327014218009,285 L 241.327014218009,285 Z" style="fill:blue;stroke:black;stroke-width:0.5;" />
	<path d="M 241.327014218009,285 L 241.327014218009,285 L 244.739336492891,285 L 244.739336492891,285 Z" style="fill:blue;stroke:black;stroke-width:0.5;" />
	<text font-size="10" x="241.327014218009" y="297">60</text>
	<line stroke="black" stroke-width="2" x1="243.03317535545" x2="243.03317535545" y1="285" y2="283" />
	<line stroke="black" stroke-width="2" x1="243.03317535545" x2="243.03317535545" y1="285" y2="284" />
	<path d="M 244.739336492891,285 L 244.739336492891,285 L 248.151658767773,285 L 248.151658767773,285 Z" style="fill:blue;stroke:black;stroke-width:0.5;" />
	<path d="M 248.151658767773,285 L 248.151658767773,285 L 251.563981042654,285 L 251.563981042654,285 Z" style="fill:blue;stroke:black;stroke-width:0.5;" />
	<path d="M 251.563981042654,285 L 251.563981042654,285 L 254.976303317536,285 L 254.976303317536,285 Z" style="fill:blue;stroke:black;stroke-width:0.5;" />
	<path d="M 254.976303317536,285 L 254.976303317536,285 L 258.388625592417,285 L 258.388625592417,285 Z" style="fill:blue;stroke:black;stroke-width:0.5;" />
	<path d="M 258.388625592417,285 L 258.388625592417,285 L 261.800947867299,285 L 261.800947867299,285 Z" style="fill:blue;stroke:black;stroke-width:0.5;" />
	<line stroke="black" stroke-width="2" x1="260.094786729858" x2="260.094786729858" y1="285" y2="284" />
	<path d="M 261.800947867299,285 L 261.800947867299,285 L 265.21327014218,285 L 265.21327014218,285 Z" style="fill:blue;stroke:black;stroke-width:0.5;" />
	<path d="M 265.21327014218,285 L 265.21327014218,285 L 268.625592417062,285 L 268.625592417062,285 Z" style="fill:blue;stroke:black;stroke-width:0.5;" />
	<path d="M 268.625592417062,285 L 268.625592417062,285 L 272.037914691943,285 L 272.037914691943,285 Z" style="fill:blue;stroke:black;stroke-width:0.5;" />
	<path d="M 272.037914691943,285 L 272.037914691943,285 L 275.450236966825,285 L 275.450236966825,285 Z" style="fill:blue;stroke:black;stroke-width:0.5;" />
	<path d="M 275.450236966825,285 L 275.450236966825,285 L 278.862559241706,285 L 278.862559241706,285 Z" style="fill:blue;stroke:black;stroke-width:0.5;" />
	<text font-size="10" x="275.450236966825" y="297">70</text>
	<line stroke="black" stroke-width="2" x1="277.156398104265" x2="277.156398104265" y1="285" y2="283" />
	<line stroke="black" stroke-width="2" x1="277.156398104265" x2="277.156398104265" y1="285" y2="284" />
	<path d="M 278.862559241706,285 L 278.862559241706,285 L 282.274881516588,285 L 282.274881516588,285 Z" style="fill:blue;stroke:black;stroke-width:0.5;" />
	<path d="M 282.274881516588,285 L 282.274881516588,285 L 285.687203791469,285 L 285.687203791469,285 Z" style="fill:blue;stroke:black;stroke-width:0.5;" />
	<path d="M 285.687203791469,285 L 285.687203791469,285 L 289.099526066351,285 L 289.099526066351,285 Z" style="fill:blue;stroke:black;stroke-width:0.5;" />
	<path d="M 289.099526066351,285 L 289.099526066351,285 L 292.511848341232,285 L 292.511848341232,285 Z" style="fill:blue;stroke:black;stroke-width:0.5;" />
	<path d="M 292.511848341232,285 L 292.511848341232,285 L 295.924170616114,285 L 295.924170616114,285 Z" style="fill:blue;stroke:black;stroke-width:0.5;" />
	<line stroke="black" stroke-width="2" x1="294.218009478673" x2="294.218009478673" y1="285" y2="284" />
	<path d="M 295.924170616114,285 L 295.924170616114,285 L 299.336492890995,285 L 299.336492890995,285 Z" style="fill:blue;stroke:black;stroke-width:0.5;" />
	<path d="M 299.336492890995,285 L 299.336492890995,285 L 302.748815165877,285 L 302.748815165877,285 Z" style="fill:blue;stroke:black;stroke-width:0.5;" />
	<path d="M 302.748815165877,285 L 302.748815165877,285 L 306.161137440758,285 L 306.161137440758,285 Z" style="fill:blue;stroke:black;stroke-width:0.5;" />
	<path d="M 306.161137440758,285 L 306.161137440758,285 L 309.57345971564,285 L 309.57345971564,285 Z" style="fill:blue;stroke:black;stroke-width:0.5;" />
	<path d="M 309.57345971564,285 L 309.57345971564,285 L 312.985781990521,285 L 312.985781990521,285 Z" style="fill:blue;stroke:black;stroke-width:0.5;" />
	<text font-size="10" x="309.57345971564" y="297">80</text>
	<line stroke="black" stroke-width="2" x1="311.279620853081" x2="311.279620853081" y1="285" y2="283" />
	<line stroke="black" stroke-width="2" x1="311.279620853081" x2="311.279620853081" y1="285" y2="284" />
	<path d="M 312.985781990521,285 L 312.985781990521,285 L 316.398104265403,285 L 316.398104265403,285 Z" style="fill:blue;stroke:black;stroke-width:0.5;" />
	<path d="M 316.398104265403,285 L 316.398104265403,285 L 319.810426540284,285 L 319.810426540284,285 Z" style="fill:blue;stroke:black;stroke-width:0.5;" />
	<path d="M 319.810426540284,285 L 319.810426540284,285 L 323.222748815166,285 L 323.222748815166,285 Z" style="fill:blue;stroke:black;stroke-width:0.5;" />
	<path d="M 323.222748815166,285 L 323.222748815166,285 L 326.635071090047,285 L 326.635071090047,285 Z" style="fill:blue;stroke:black;stroke-width:0.5;" />
	<path d="M 326.635071090047,285 L 326.635071090047,285 L 330.047393364929,285 L 330.047393364929,285 Z" style="fill:blue;stroke:black;stroke-width:0.5;" />
	<line stroke="black" stroke-width="2" x1="328.341232227488" x2="328.341232227488" y1="285" y2="284" />
	<path d="M 330.047393364929,285 L 330.047393364929,285 L 333.45971563981,285 L 333.45971563981,285 Z" style="fill:blue;stroke:black;stroke-width:0.5;" />
	<path d="M 333.45971563981,285 L 333.45971563981,284.136 L 336.872037914692,284.136 L 336.872037914692,285 Z" style="fill:blue;stroke:black;stroke-width:0.5;" />
	<path d="M 336.872037914692,285 L 336.872037914692,199.14 L 340.284360189573,199.14 L 340.284360189573,285 Z" style="fill:blue;stroke:black;stroke-width:0.5;" />
	<path d="M 340.284360189573,285 L 340.284360189573,139.686 L 343.696682464455,139.686 L 343.696682464455,285 Z" style="fill:gold;stroke:black;stroke-width:0.5;" />
	<path d="M 343.696682464455,285 L 343.696682464455,138.822 L 347.109004739337,138.822 L 347.109004739337,285 Z" style="fill:gold;stroke:black;stroke-width:0.5;" />
	<text font-size="10" x="343.696682464455" y="297">90</text>
	<line stroke="black" stroke-width="2" x1="345.402843601896" x2="345.402843601896" y1="285" y2="283" />
	<line stroke="black" stroke-width="2" x1="345.402843601896" x2="345.402843601896" y1="285" y2="284" />
	<path d="M 347.109004739337,285 L 347.109004739337,138.822 L 350.521327014218,138.822 L 350.521327014218,285 Z" style="fill:gold;stroke:black;stroke-width:0.5;" />
	<path d="M 350.521327014218,285 L 350.521327014218,138.822 L 353.9336492891,138.822 L 353.9336492891,285 Z" style="fill:gold;stroke:black;stroke-width:0.5;" />
	<path d="M 353.9336492891,285 L 353.9336492891,136.176 L 357.345971563981,136.176 L 357.345971563981,285 Z" style="fill:gold;stroke:black;stroke-width:0.5;" />
	<path d="M 357.345971563981,285 L 357.345971563981,136.176 L 360.758293838863,136.176 L 360.758293838863,285 Z" style="fill:gold;stroke:black;stroke-width:0.5;" />
	<path d="M 360.758293838863,285 L 360.758293838863,136.176 L 364.170616113744,136.176 L 364.170616113744,285 Z" style="fill:gold;stroke:black;stroke-width:0.5;" />
	<line stroke="black" stroke-width="2" x1="362.464454976303" x2="362.464454976303" y1="285" y2="284" />
	<path d="M 364.170616113744,285 L 364.170616113744,136.176 L 367.582938388626,136.176 L 367.582938388626,285 Z" style="fill:gold;stroke:black;stroke-width:0.5;" />
	<path d="M 367.582938388626,285 L 367.582938388626,136.176 L 370.995260663507,136.176 L 370.995260663507,285 Z" style="fill:gold;stroke:black;stroke-width:0.5;" />
	<path d="M 370.995260663507,285 L 370.995260663507,136.176 L 374.407582938389,136.176 L 374.407582938389,285 Z" style="fill:gold;stroke:black;stroke-width:0.5;" />
	<path d="M 374.407582938389,285 L 374.407582938389,136.176 L 377.81990521327,136.176 L 377.81990521327,285 Z" style="fill:gold;stroke:black;stroke-width:0.5;" />
	<path d="M 377.81990521327,285 L 377.81990521327,136.176 L 381.232227488152,136.176 L 381.232227488152,285 Z" style="fill:gold;stroke:black;stroke-width:0.5;" />
	<text font-size="10" x="377.81990521327" y="297">100</text>
	<line stroke="black" stroke-width="2" x1="379.526066350711" x2="379.526066350711" y1="285" y2="283" />
	<line stroke="black" stroke-width="2" x1="379.526066350711" x2="379.526066350711" y1="285" y2="284" />
	<path d="M 381.232227488152,285 L 381.232227488152,136.176 L 384.644549763033,136.176 L 384.644549763033,285 Z" style="fill:gold;stroke:black;stroke-width:0.5;" />
	<path d="M 384.644549763033,285 L 384.644549763033,136.176 L 388.056872037915,136.176 L 388.056872037915,285 Z" style="fill:gold;stroke:black;stroke-width:0.5;" />
	<path d="M 388.056872037915,285 L 388.056872037915,136.176 L 391.469194312796,136.176 L 391.469194312796,285 Z" style="fill:gold;stroke:black;stroke-width:0.5;" />
	<path d="M 391.469194312796,285 L 391.469194312796,136.176 L 394.881516587678,136.176 L 394.881516587678,285 Z" style="fill:gold;stroke:black;stroke-width:0.5;" />
	<path d="M 394.881516587678,285 L 394.881516587678,137.04 L 398.293838862559,137.04 L 398.293838862559,285 Z" style="fill:gold;stroke:black;stroke-width:0.5;" />
	<line stroke="black" stroke-width="2" x1="396.587677725119" x2="396.587677725119" y1="285" y2="284" />
	<path d="M 398.293838862559,285 L 398.293838862559,138.768 L 401.706161137441,138.768 L 401.706161137441,285 Z" style="fill:gold;stroke:black;stroke-width:0.5;" />
	<path d="M 401.706161137441,285 L 401.706161137441,139.632 L 405.118483412322,139.632 L 405.118483412322,285 Z" style="fill:gold;stroke:black;stroke-width:0.5;" />
	<path d="M 405.118483412322,285 L 405.118483412322,141.36 L 408.530805687204,141.36 L 408.530805687204,285 Z" style="fill:gold;stroke:black;stroke-width:0.5;" />
	<path d="M 408.530805687204,285 L 408.530805687204,213.18 L 411.943127962085,213.18 L 411.943127962085,285 Z" style="fill:gold;stroke:black;stroke-width:0.5;" />
	<path d="M 411.943127962085,285 L 411.943127962085,274.416 L 415.355450236967,274.416 L 415.355450236967,285 Z" style="fill:blue;stroke:black;stroke-width:0.5;" />
	<text font-size="10" x="411.943127962085" y="297">110</text>
	<line stroke="black" stroke-width="2" x1="413.649289099526" x2="413.649289099526" y1="285" y2="283" />
	<line stroke="black" stroke-width="2" x1="413.649289099526" x2="413.649289099526" y1="285" y2="284" />
	<path d="M 415.355450236967,285 L 415.355450236967,279.708 L 418.767772511848,279.708 L 418.767772511848,285 Z" style="fill:blue;stroke:black;stroke-width:0.5;" />
	<path d="M 418.767772511848,285 L 418.767772511848,285 L 422.18009478673,285 L 422.18009478673,285 Z" style="fill:blue;stroke:black;stroke-width:0.5;" />
	<path d="M 422.18009478673,285 L 422.18009478673,285 L 425.592417061611,285 L 425.592417061611,285 Z" style="fill:blue;stroke:black;stroke-width:0.5;" />
	<path d="M 425.592417061611,285 L 425.592417061611,285 L 429.004739336493,285 L 429.004739336493,285 Z" style="fill:blue;stroke:black;stroke-width:0.5;" />
	<path d="M 429.004739336493,285 L 429.004739336493,285 L 432.417061611374,285 L 432.417061611374,285 Z" style="fill:blue;stroke:black;stroke-width:0.5;" />
	<line stroke="black" stroke-width="2" x1="430.710900473934" x2="430.710900473934" y1="285" y2="284" />
	<path d="M 432.417061611374,285 L 432.417061611374,285 L 435.829383886256,285 L 435.829383886256,285 Z" style="fill:blue;stroke:black;stroke-width:0.5;" />
	<path d="M 435.829383886256,285 L 435.829383886256,285 L 439.241706161137,285 L 439.241706161137,285 Z" style="fill:blue;stroke:black;stroke-width:0.5;" />
	<path d="M 439.241706161137,285 L 439.241706161137,285 L 442.654028436019,285 L 442.654028436019,285 Z" style="fill:blue;stroke:black;stroke-width:0.5;" />
	<path d="M 442.654028436019,285 L 442.654028436019,285 L 446.066350710901,285 L 446.066350710901,285 Z" style="fill:blue;stroke:black;stroke-width:0.5;" />
	<path d="M 446.066350710901,285 L 446.066350710901,285 L 449.478672985782,285 L 449.478672985782,285 Z" style="fill:blue;stroke:black;stroke-width:0.5;" />
	<text font-size="10" x="446.066350710901" y="297">120</text>
	<line stroke="black" stroke-width="2" x1="447.772511848341" x2="447.772511848341" y1="285" y2="283" />
	<line stroke="black" stroke-width="2" x1="447.772511848341" x2="447.772511848341" y1="285" y2="284" />
	<path d="M 449.478672985782,285 L 449.478672985782,285 L 452.890995260664,285 L 452.890995260664,285 Z" style="fill:blue;stroke:black;stroke-width:0.5;" />
	<path d="M 452.890995260664,285 L 452.890995260664,285 L 456.303317535545,285 L 456.303317535545,285 Z" style="fill:blue;stroke:black;stroke-width:0.5;" />
	<path d="M 456.303317535545,285 L 456.303317535545,285 L 459.715639810427,285 L 459.715639810427,285 Z" style="fill:blue;stroke:black;stroke-width:0.5;" />
	<path d="M 459.715639810427,285 L 459.715639810427,285 L 463.127962085308,285 L 463.127962085308,285 Z" style="fill:blue;stroke:black;stroke-width:0.5;" />
	<path d="M 463.127962085308,285 L 463.127962085308,284.136 L 466.54028436019,284.136 L 466.54028436019,285 Z" style="fill:blue;stroke:black;stroke-width:0.5;" />
	<line stroke="black" stroke-width="2" x1="464.834123222749" x2="464.834123222749" y1="285" y2="284" />
	<path d="M 466.54028436019,285 L 466.54028436019,284.136 L 469.952606635071,284.136 L 469.952606635071,285 Z" style="fill:blue;stroke:black;stroke-width:0.5;" />
	<path d="M 469.952606635071,285 L 469.952606635071,284.136 L 473.364928909953,284.136 L 473.364928909953,285 Z" style="fill:blue;stroke:black;stroke-width:0.5;" />
	<path d="M 473.364928909953,285 L 473.364928909953,284.136 L 476.777251184834,284.136 L 476.777251184834,285 Z" style="fill:blue;stroke:black;stroke-width:0.5;" />
	<path d="M 476.777251184834,285 L 476.777251184834,284.136 L 480.189573459716,284.136 L 480.189573459716,285 Z" style="fill:blue;stroke:black;stroke-width:0.5;" />
	<path d="M 480.189573459716,285 L 480.189573459716,284.136 L 483.601895734597,284.136 L 483.601895734597,285 Z" style="fill:blue;stroke:black;stroke-width:0.5;" />
	<text font-size="10" x="480.189573459716" y="297">130</text>
	<line stroke="black" stroke-width="2" x1="481.895734597156" x2="481.895734597156" y1="285" y2="283" />
	<line stroke="black" stroke-width="2" x1="481.895734597156" x2="481.895734597156" y1="285" y2="284" />
	<path d="M 483.601895734597,285 L 483.601895734597,284.136 L 487.014218009479,284.136 L 487.014218009479,285 Z" style="fill:blue;stroke:black;stroke-width:0.5;" />
	<path d="M 487.014218009479,285 L 487.014218009479,283.272 L 490.42654028436,283.272 L 490.42654028436,285 Z" style="fill:blue;stroke:black;stroke-width:0.5;" />
	<path d="M 490.42654028436,285 L 490.42654028436,283.272 L 493.838862559242,283.272 L 493.838862559242,285 Z" style="fill:blue;stroke:black;stroke-width:0.5;" />
	<path d="M 493.838862559242,285 L 493.838862559242,283.272 L 497.251184834123,283.272 L 497.251184834123,285 Z" style="fill:blue;stroke:black;stroke-width:0.5;" />
	<path d="M 497.251184834123,285 L 497.251184834123,283.272 L 500.663507109005,283.272 L 500.663507109005,285 Z" style="fill:blue;stroke:black;stroke-width:0.5;" />
	<line stroke="black" stroke-width="2" x1="498.957345971564" x2="498.957345971564" y1="285" y2="284" />
	<path d="M 500.663507109005,285 L 500.663507109005,283.272 L 504.075829383886,283.272 L 504.075829383886,285 Z" style="fill:blue;stroke:black;stroke-width:0.5;" />
	<path d="M 504.075829383886,285 L 504.075829383886,283.272 L 507.488151658768,283.272 L 507.488151658768,285 Z" style="fill:blue;stroke:black;stroke-width:0.5;" />
	<path d="M 507.488151658768,285 L 507.488151658768,283.272 L 510.900473933649,283.272 L 510.900473933649,285 Z" style="fill:blue;stroke:black;stroke-width:0.5;" />
	<path d="M 510.900473933649,285 L 510.900473933649,283.272 L 514.312796208531,283.272 L 514.312796208531,285 Z" style="fill:blue;stroke:black;stroke-width:0.5;" />
	<path d="M 514.312796208531,285 L 514.312796208531,283.272 L 517.725118483412,283.272 L 517.725118483412,285 Z" style="fill:blue;stroke:black;stroke-width:0.5;" />
	<text font-size="10" x="514.312796208531" y="297">140</text>
	<line stroke="black" stroke-width="2" x1="516.018957345972" x2="516.018957345972" y1="285" y2="283" />
	<line stroke="black" stroke-width="2" x1="516.018957345972" x2="516.018957345972" y1="285" y2="284" />
	<path d="M 517.725118483412,285 L 517.725118483412,283.272 L 521.137440758294,283.272 L 521.137440758294,285 Z" style="fill:blue;stroke:black;stroke-width:0.5;" />
	<path d="M 521.137440758294,285 L 521.137440758294,283.272 L 524.549763033175,283.272 L 524.549763033175,285 Z" style="fill:blue;stroke:black;stroke-width:0.5;" />
	<path d="M 524.549763033175,285 L 524.549763033175,283.272 L 527.962085308057,283.272 L 527.962085308057,285 Z" style="fill:blue;stroke:black;stroke-width:0.5;" />
	<path d="M 527.962085308057,285 L 527.962085308057,283.272 L 531.374407582938,283.272 L 531.374407582938,285 Z" style="fill:blue;stroke:black;stroke-width:0.5;" />
	<path d="M 531.374407582938,285 L 531.374407582938,283.272 L 534.78672985782,283.272 L 534.78672985782,285 Z" style="fill:blue;stroke:black;stroke-width:0.5;" />
	<line stroke="black" stroke-width="2" x1="533.080568720379" x2="533.080568720379" y1="285" y2="284" />
	<path d="M 534.78672985782,285 L 534.78672985782,283.272 L 538.199052132701,283.272 L 538.199052132701,285 Z" style="fill:blue;stroke:black;stroke-width:0.5;" />
	<path d="M 538.199052132701,285 L 538.199052132701,283.272 L 541.611374407583,283.272 L 541.611374407583,285 Z" style="fill:blue;stroke:black;stroke-width:0.5;" />
	<path d="M 541.611374407583,285 L 541.611374407583,284.136 L 545.023696682465,284.136 L 545.023696682465,285 Z" style="fill:blue;stroke:black;stroke-width:0.5;" />
	<path d="M 545.023696682465,285 L 545.023696682465,285 L 548.436018957346,285 L 548.436018957346,285 Z" style="fill:blue;stroke:black;stroke-width:0.5;" />
	<path d="M 548.436018957346,285 L 548.436018957346,285 L 551.848341232228,285 L 551.848341232228,285 Z" style="fill:blue;stroke:black;stroke-width:0.5;" />
	<text font-size="10" x="548.436018957346" y="297">150</text>
	<line stroke="black" stroke-width="2" x1="550.142180094787" x2="550.142180094787" y1="285" y2="283" />
	<line stroke="black" stroke-width="2" x1="550.142180094787" x2="550.142180094787" y1="285" y2="284" />
	<path d="M 551.848341232228,285 L 551.848341232228,285 L 555.260663507109,285 L 555.260663507109,285 Z" style="fill:blue;stroke:black;stroke-width:0.5;" />
	<path d="M 555.260663507109,285 L 555.260663507109,284.136 L 558.672985781991,284.136 L 558.672985781991,285 Z" style="fill:blue;stroke:black;stroke-width:0.5;" />
	<path d="M 558.672985781991,285 L 558.672985781991,284.136 L 562.085308056872,284.136 L 562.085308056872,285 Z" style="fill:blue;stroke:black;stroke-width:0.5;" />
	<path d="M 562.085308056872,285 L 562.085308056872,284.136 L 565.497630331754,284.136 L 565.497630331754,285 Z" style="fill:blue;stroke:black;stroke-width:0.5;" />
	<path d="M 565.497630331754,285 L 565.497630331754,284.136 L 568.909952606635,284.136 L 568.909952606635,285 Z" style="fill:blue;stroke:black;stroke-width:0.5;" />
	<line stroke="black" stroke-width="2" x1="567.203791469194" x2="567.203791469194" y1="285" y2="284" />
	<path d="M 568.909952606635,285 L 568.909952606635,284.136 L 572.322274881517,284.136 L 572.322274881517,285 Z" style="fill:gold;stroke:black;stroke-width:0.5;" />
	<path d="M 572.322274881517,285 L 572.322274881517,284.136 L 575.734597156398,284.136 L 575.734597156398,285 Z" style="fill:gold;stroke:black;stroke-width:0.5;" />
	<path d="M 575.734597156398,285 L 575.734597156398,284.136 L 579.14691943128,284.136 L 579.14691943128,285 Z" style="fill:gold;stroke:black;stroke-width:0.5;" />
	<path d="M 579.14691943128,285 L 579.14691943128,284.136 L 582.559241706161,284.136 L 582.559241706161,285 Z" style="fill:gold;stroke:black;stroke-width:0.5;" />
	<path d="M 582.559241706161,285 L 582.559241706161,284.136 L 585.971563981043,284.136 L 585.971563981043,285 Z" style="fill:gold;stroke:black;stroke-width:0.5;" />
	<text font-size="10" x="582.559241706161" y="297">160</text>
	<line stroke="black" stroke-width="2" x1="584.265402843602" x2="584.265402843602" y1="285" y2="283" />
	<line stroke="black" stroke-width="2" x1="584.265402843602" x2="584.265402843602" y1="285" y2="284" />
	<path d="M 585.971563981043,285 L 585.971563981043,284.136 L 589.383886255924,284.136 L 589.383886255924,285 Z" style="fill:gold;stroke:black;stroke-width:0.5;" />
	<path d="M 589.383886255924,285 L 589.383886255924,284.136 L 592.796208530806,284.136 L 592.796208530806,285 Z" style="fill:gold;stroke:black;stroke-width:0.5;" />
	<path d="M 592.796208530806,285 L 592.796208530806,284.136 L 596.208530805687,284.136 L 596.208530805687,285 Z" style="fill:gold;stroke:black;stroke-width:0.5;" />
	<path d="M 596.208530805687,285 L 596.208530805687,284.136 L 599.620853080569,284.136 L 599.620853080569,285 Z" style="fill:gold;stroke:black;stroke-width:0.5;" />
	<path d="M 599.620853080569,285 L 599.620853080569,284.136 L 603.03317535545,284.136 L 603.03317535545,285 Z" style="fill:gold;stroke:black;stroke-width:0.5;" />
	<line stroke="black" stroke-width="2" x1="601.327014218009" x2="601.327014218009" y1="285" y2="284" />
	<path d="M 603.03317535545,285 L 603.03317535545,284.136 L 606.445497630332,284.136 L 606.445497630332,285 Z" style="fill:gold;stroke:black;stroke-width:0.5;" />
	<path d="M 606.445497630332,285 L 606.445497630332,284.136 L 609.857819905213,284.136 L 609.857819905213,285 Z" style="fill:gold;stroke:black;stroke-width:0.5;" />
	<path d="M 609.857819905213,285 L 609.857819905213,284.136 L 613.270142180095,284.136 L 613.270142180095,285 Z" style="fill:gold;stroke:black;stroke-width:0.5;" />
	<path d="M 613.270142180095,285 L 613.270142180095,284.136 L 616.682464454976,284.136 L 616.682464454976,285 Z" style="fill:gold;stroke:black;stroke-width:0.5;" />
	<path d="M 616.682464454976,285 L 616.682464454976,284.136 L 620.094786729858,284.136 L 620.094786729858,285 Z" style="fill:gold;stroke:black;stroke-width:0.5;" />
	<text font-size="10" x="616.682464454976" y="297">170</text>
	<line stroke="black" stroke-width="2" x1="618.388625592417" x2="618.388625592417" y1="285" y2="283" />
	<line stroke="black" stroke-width="2" x1="618.388625592417" x2="618.388625592417" y1="285" y2="284" />
	<path d="M 620.094786729858,285 L 620.094786729858,284.136 L 623.507109004739,284.136 L 623.507109004739,285 Z" style="fill:gold;stroke:black;stroke-width:0.5;" />
	<path d="M 623.507109004739,285 L 623.507109004739,284.136 L 626.919431279621,284.136 L 626.919431279621,285 Z" style="fill:gold;stroke:black;stroke-width:0.5;" />
	<path d="M 626.919431279621,285 L 626.919431279621,284.136 L 630.331753554502,284.136 L 630.331753554502,285 Z" style="fill:gold;stroke:black;stroke-width:0.5;" />
	<path d="M 630.331753554502,285 L 630.331753554502,284.136 L 633.744075829384,284.136 L 633.744075829384,285 Z" style="fill:gold;stroke:black;stroke-width:0.5;" />
	<path d="M 633.744075829384,285 L 633.744075829384,285 L 637.156398104265,285 L 637.156398104265,285 Z" style="fill:gold;stroke:black;stroke-width:0.5;" />
	<line stroke="black" stroke-width="2" x1="635.450236966825" x2="635.450236966825" y1="285" y2="284" />
	<path d="M 637.156398104265,285 L 637.156398104265,285 L 640.568720379147,285 L 640.568720379147,285 Z" style="fill:gold;stroke:black;stroke-width:0.5;" />
	<path d="M 640.568720379147,285 L 640.568720379147,285 L 643.981042654028,285 L 643.981042654028,285 Z" style="fill:blue;stroke:black;stroke-width:0.5;" />
	<path d="M 643.981042654028,285 L 643.981042654028,285 L 647.39336492891,285 L 647.39336492891,285 Z" style="fill:blue;stroke:black;stroke-width:0.5;" />
	<path d="M 647.39336492891,285 L 647.39336492891,285 L 650.805687203792,285 L 650.805687203792,285 Z" style="fill:blue;stroke:black;stroke-width:0.5;" />
	<path d="M 650.805687203792,285 L 650.805687203792,285 L 654.218009478673,285 L 654.218009478673,285 Z" style="fill:blue;stroke:black;stroke-width:0.5;" />
	<text font-size="10" x="650.805687203792" y="297">180</text>
	<line stroke="black" stroke-width="2" x1="652.511848341232" x2="652.511848341232" y1="285" y2="283" />
	<line stroke="black" stroke-width="2" x1="652.511848341232" x2="652.511848341232" y1="285" y2="284" />
	<path d="M 654.218009478673,285 L 654.218009478673,285 L 657.630331753555,285 L 657.630331753555,285 Z" style="fill:blue;stroke:black;stroke-width:0.5;" />
	<path d="M 657.630331753555,285 L 657.630331753555,285 L 661.042654028436,285 L 661.042654028436,285 Z" style="fill:blue;stroke:black;stroke-width:0.5;" />
	<path d="M 661.042654028436,285 L 661.042654028436,285 L 664.454976303318,285 L 664.454976303318,285 Z" style="fill:blue;stroke:black;stroke-width:0.5;" />
	<path d="M 664.454976303318,285 L 664.454976303318,285 L 667.867298578199,285 L 667.867298578199,285 Z" style="fill:blue;stroke:black;stroke-width:0.5;" />
	<path d="M 667.867298578199,285 L 667.867298578199,285 L 671.279620853081,285 L 671.279620853081,285 Z" style="fill:blue;stroke:black;stroke-width:0.5;" />
	<line stroke="black" stroke-width="2" x1="669.57345971564" x2="669.57345971564" y1="285" y2="284" />
	<path d="M 671.279620853081,285 L 671.279620853081,285 L 674.691943127962,285 L 674.691943127962,285 Z" style="fill:blue;stroke:black;stroke-width:0.5;" />
	<path d="M 674.691943127962,285 L 674.691943127962,285 L 678.104265402844,285 L 678.104265402844,285 Z" style="fill:blue;stroke:black;stroke-width:0.5;" />
	<path d="M 678.104265402844,285 L 678.104265402844,285 L 681.516587677725,285 L 681.516587677725,285 Z" style="fill:blue;stroke:black;stroke-width:0.5;" />
	<path d="M 681.516587677725,285 L 681.516587677725,285 L 684.928909952607,285 L 684.928909952607,285 Z" style="fill:blue;stroke:black;stroke-width:0.5;" />
	<path d="M 684.928909952607,285 L 684.928909952607,285 L 688.341232227488,285 L 688.341232227488,285 Z" style="fill:blue;stroke:black;stroke-width:0.5;" />
	<text font-size="10" x="684.928909952607" y="297">190</text>
	<line stroke="black" stroke-width="2" x1="686.635071090047" x2="686.635071090047" y1="285" y2="283" />
	<line stroke="black" stroke-width="2" x1="686.635071090047" x2="686.635071090047" y1="285" y2="284" />
	<path d="M 688.341232227488,285 L 688.341232227488,285 L 691.75355450237,285 L 691.75355450237,285 Z" style="fill:blue;stroke:black;stroke-width:0.5;" />
	<path d="M 691.75355450237,285 L 691.75355450237,285 L 695.165876777251,285 L 695.165876777251,285 Z" style="fill:blue;stroke:black;stroke-width:0.5;" />
	<path d="M 695.165876777251,285 L 695.165876777251,285 L 698.578199052133,285 L 698.578199052133,285 Z" style="fill:blue;stroke:black;stroke-width:0.5;" />
	<path d="M 698.578199052133,285 L 698.578199052133,285 L 701.990521327014,285 L 701.990521327014,285 Z" style="fill:blue;stroke:black;stroke-width:0.5;" />
	<path d="M 701.990521327014,285 L 701.990521327014,285 L 705.402843601896,285 L 705.402843601896,285 Z" style="fill:blue;stroke:black;stroke-width:0.5;" />
	<line stroke="black" stroke-width="2" x1="703.696682464455" x2="703.696682464455" y1="285" y2="284" />
	<path d="M 705.402843601896,285 L 705.402843601896,285 L 708.815165876777,285 L 708.815165876777,285 Z" style="fill:blue;stroke:black;stroke-width:0.5;" />
	<path d="M 708.815165876777,285 L 708.815165876777,285 L 712.227488151659,285 L 712.227488151659,285 Z" style="fill:blue;stroke:black;stroke-width:0.5;" />
	<path d="M 712.227488151659,285 L 712.227488151659,285 L 715.63981042654,285 L 715.63981042654,285 Z" style="fill:blue;stroke:black;stroke-width:0.5;" />
	<path d="M 715.63981042654,285 L 715.63981042654,285 L 719.052132701422,285 L 719.052132701422,285 Z" style="fill:blue;stroke:black;stroke-width:0.5;" />
	<path d="M 719.052132701422,285 L 719.052132701422,285 L 722.464454976303,285 L 722.464454976303,285 Z" style="fill:blue;stroke:black;stroke-width:0.5;" />
	<text font-size="10" x="719.052132701422" y="297">200</text>
	<line stroke="black" stroke-width="2" x1="720.758293838863" x2="720.758293838863" y1="285" y2="283" />
	<line stroke="black" stroke-width="2" x1="720.758293838863" x2="720.758293838863" y1="285" y2="284" />
	<path d="M 722.464454976303,285 L 722.464454976303,285 L 725.876777251185,285 L 725.876777251185,285 Z" style="fill:blue;stroke:black;stroke-width:0.5;" />
	<path d="M 725.876777251185,285 L 725.876777251185,285 L 729.289099526066,285 L 729.289099526066,285 Z" style="fill:blue;stroke:black;stroke-width:0.5;" />
	<path d="M 729.289099526066,285 L 729.289099526066,285 L 732.701421800948,285 L 732.701421800948,285 Z" style="fill:blue;stroke:black;stroke-width:0.5;" />
	<path d="M 732.701421800948,285 L 732.701421800948,285 L 736.113744075829,285 L 736.113744075829,285 Z" style="fill:blue;stroke:black;stroke-width:0.5;" />
	<path d="M 736.113744075829,285 L 736.113744075829,285 L 739.526066350711,285 L 739.526066350711,285 Z" style="fill:blue;stroke:black;stroke-width:0.5;" />
	<line stroke="black" stroke-width="2" x1="737.81990521327" x2="737.81990521327" y1="285" y2="284" />
	<path d="M 739.526066350711,285 L 739.526066350711,285 L 742.938388625592,285 L 742.938388625592,285 Z" style="fill:blue;stroke:black;stroke-width:0.5;" />
	<path d="M 742.938388625592,285 L 742.938388625592,285 L 746.350710900474,285 L 746.350710900474,285 Z" style="fill:blue;stroke:black;stroke-width:0.5;" />
	<path d="M 746.350710900474,285 L 746.350710900474,285 L 749.763033175356,285 L 749.763033175356,285 Z" style="fill:blue;stroke:black;stroke-width:0.5;" />
	<path d="M 749.763033175356,285 L 749.763033175356,285 L 753.175355450237,285 L 753.175355450237,285 Z" style="fill:blue;stroke:black;stroke-width:0.5;" />
	<path d="M 753.175355450237,285 L 753.175355450237,285 L 756.587677725119,285 L 756.587677725119,285 Z" style="fill:blue;stroke:black;stroke-width:0.5;" />
	<text font-size="10" x="753.175355450237" y="297">210</text>
	<line stroke="black" stroke-width="2" x1="754.881516587678" x2="754.881516587678" y1="285" y2="283" />
	<line stroke="black" stroke-width="2" x1="754.881516587678" x2="754.881516587678" y1="285" y2="284" />
	<path d="M 756.587677725119,285 L 756.587677725119,285 L 760,285 L 760,285 Z" style="fill:blue;stroke:black;stroke-width:0.5;" />
	<!-- 
	Generated using the Perl SVG Module V2.50
	by Ronan Oger
	Info: http://www.roitsystems.com/
 -->
</svg>