<?xml version="1.0" encoding="UTF-8" standalone="yes"?>
<!DOCTYPE svg PUBLIC "-//W3C//DTD SVG 1.0//EN" "http://www.w3.org/TR/2001/REC-SVG-20010904/DTD/svg10.dtd">
<svg height="300" width="800" xmlns="http://www.w3.org/2000/svg" xmlns:svg="http://www.w3.org/2000/svg" xmlns:xlink="http://www.w3.org/1999/xlink">
	<line stroke="black" stroke-width="2" x1="40" x2="40" y1="15" y2="285" />
	<line stroke="black" stroke-width="2" x1="40" x2="43.1858407079646" y1="231" y2="231" />
	<text font-size="12" x="44.7787610619469" y="231">1000</text>
	<line stroke="black" stroke-width="2" x1="40" x2="43.1858407079646" y1="177" y2="177" />
	<text font-size="12" x="44.7787610619469" y="177">2000</text>
	<line stroke="black" stroke-width="2" x1="40" x2="43.1858407079646" y1="123" y2="123" />
	<text font-size="12" x="44.7787610619469" y="123">3000</text>
	<line stroke="black" stroke-width="2" x1="40" x2="43.1858407079646" y1="69" y2="69" />
	<text font-size="12" x="44.7787610619469" y="69">4000</text>
	<line stroke="black" stroke-width="2" x1="40" x2="43.1858407079646" y1="15" y2="15" />
	<text font-size="12" x="44.7787610619469" y="15">5000</text>
	<line stroke="black" stroke-width="2" x1="40" x2="800" y1="285" y2="285" />
	<path d="M 40,285 L 40,285 L 43.1858407079646,285 L 43.1858407079646,285 Z" style="fill:blue;stroke:black;stroke-width:0.5;" />
	<path d="M 43.1858407079646,285 L 43.1858407079646,285 L 46.3716814159292,285 L 46.3716814159292,285 Z" style="fill:blue;stroke:black;stroke-width:0.5;" />
	<path d="M 46.3716814159292,285 L 46.3716814159292,285 L 49.5575221238938,285 L 49.5575221238938,285 Z" style="fill:blue;stroke:black;stroke-width:0.5;" />
	<path d="M 49.5575221238938,285 L 49.5575221238938,285 L 52.7433628318584,285 L 52.7433628318584,285 Z" style="fill:blue;stroke:black;stroke-width:0.5;" />
	<path d="M 52.7433628318584,285 L 52.7433628318584,285 L 55.929203539823,285 L 55.929203539823,285 Z" style="fill:blue;stroke:black;stroke-width:0.5;" />
	<line stroke="black" stroke-width="2" x1="54.3362831858407" x2="54.3362831858407" y1="285" y2="284" />
	<path d="M 55.929203539823,285 L 55.929203539823,285 L 59.1150442477876,285 L 59.1150442477876,285 Z" style="fill:blue;stroke:black;stroke-width:0.5;" />
	<path d="M 59.1150442477876,285 L 59.1150442477876,285 L 62.3008849557522,285 L 62.3008849557522,285 Z" style="fill:blue;stroke:black;stroke-width:0.5;" />
	<path d="M 62.3008849557522,285 L 62.3008849557522,285 L 65.4867256637168,285 L 65.4867256637168,285 Z" style="fill:blue;stroke:black;stroke-width:0.5;" />
	<path d="M 65.4867256637168,285 L 65.4867256637168,285 L 68.6725663716814,285 L 68.6725663716814,285 Z" style="fill:blue;stroke:black;stroke-width:0.5;" />
	<path d="M 68.6725663716814,285 L 68.6725663716814,285 L 71.858407079646,285 L 71.858407079646,285 Z" style="fill:blue;stroke:black;stroke-width:0.5;" />
	<text font-size="10" x="68.6725663716814" y="297">10</text>
	<line stroke="black" stroke-width="2" x1="70.2654867256637" x2="70.2654867256637" y1="285" y2="283" />
	<line stroke="black" stroke-width="2" x1="70.2654867256637" x2="70.2654867256637" y1="285" y2="284" />
	<path d="M 71.858407079646,285 L 71.858407079646,285 L 75.0442477876106,285 L 75.0442477876106,285 Z" style="fill:blue;stroke:black;stroke-width:0.5;" />
	<path d="M 75.0442477876106,285 L 75.0442477876106,285 L 78.2300884955752,285 L 78.2300884955752,285 Z" style="fill:blue;stroke:black;stroke-width:0.5;" />
	<path d="M 78.2300884955752,285 L 78.2300884955752,285 L 81.4159292035398,285 L 81.4159292035398,285 Z" style="fill:blue;stroke:black;stroke-width:0.5;" />
	<path d="M 81.4159292035398,285 L 81.4159292035398,285 L 84.6017699115044,285 L 84.6017699115044,285 Z" style="fill:blue;stroke:black;stroke-width:0.5;" />
	<path d="M 84.6017699115044,285 L 84.6017699115044,285 L 87.787610619469,285 L 87.787610619469,285 Z" style="fill:blue;stroke:black;stroke-width:0.5;" />
	<line stroke="black" stroke-width="2" x1="86.1946902654867" x2="86.1946902654867" y1="285" y2="284" />
	<path d="M 87.787610619469,285 L 87.787610619469,285 L 90.9734513274336,285 L 90.9734513274336,285 Z" style="fill:blue;stroke:black;stroke-width:0.5;" />
	<path d="M 90.9734513274336,285 L 90.9734513274336,285 L 94.1592920353982,285 L 94.1592920353982,285 Z" style="fill:blue;stroke:black;stroke-width:0.5;" />
	<path d="M 94.1592920353982,285 L 94.1592920353982,285 L 97.3451327433628,285 L 97.3451327433628,285 Z" style="fill:blue;stroke:black;stroke-width:0.5;" />
	<path d="M 97.3451327433628,285 L 97.3451327433628,285 L 100.530973451327,285 L 100.530973451327,285 Z" style="fill:blue;stroke:black;stroke-width:0.5;" />
	<path d="M 100.530973451327,285 L 100.530973451327,285 L 103.716814159292,285 L 103.716814159292,285 Z" style="fill:blue;stroke:black;stroke-width:0.5;" />
	<text font-size="10" x="100.530973451327" y="297">20</text>
	<line stroke="black" stroke-width="2" x1="102.12389380531" x2="102.12389380531" y1="285" y2="283" />
	<line stroke="black" stroke-width="2" x1="102.12389380531" x2="102.12389380531" y1="285" y2="284" />
	<path d="M 103.716814159292,285 L 103.716814159292,285 L 106.902654867257,285 L 106.902654867257,285 Z" style="fill:blue;stroke:black;stroke-width:0.5;" />
	<path d="M 106.902654867257,285 L 106.902654867257,285 L 110.088495575221,285 L 110.088495575221,285 Z" style="fill:blue;stroke:black;stroke-width:0.5;" />
	<path d="M 110.088495575221,285 L 110.088495575221,285 L 113.274336283186,285 L 113.274336283186,285 Z" style="fill:blue;stroke:black;stroke-width:0.5;" />
	<path d="M 113.274336283186,285 L 113.274336283186,285 L 116.46017699115,285 L 116.46017699115,285 Z" style="fill:blue;stroke:black;stroke-width:0.5;" />
	<path d="M 116.46017699115,285 L 116.46017699115,285 L 119.646017699115,285 L 119.646017699115,285 Z" style="fill:blue;stroke:black;stroke-width:0.5;" />
	<line stroke="black" stroke-width="2" x1="118.053097345133" x2="118.053097345133" y1="285" y2="284" />
	<path d="M 119.646017699115,285 L 119.646017699115,285 L 122.83185840708,285 L 122.83185840708,285 Z" style="fill:blue;stroke:black;stroke-width:0.5;" />
	<path d="M 122.83185840708,285 L 122.83185840708,285 L 126.017699115044,285 L 126.017699115044,285 Z" style="fill:blue;stroke:black;stroke-width:0.5;" />
	<path d="M 126.017699115044,285 L 126.017699115044,285 L 129.203539823009,285 L 129.203539823009,285 Z" style="fill:blue;stroke:black;stroke-width:0.5;" />
	<path d="M 129.203539823009,285 L 129.203539823009,285 L 132.389380530973,285 L 132.389380530973,285 Z" style="fill:blue;stroke:black;stroke-width:0.5;" />
	<path d="M 132.389380530973,285 L 132.389380530973,285 L 135.575221238938,285 L 135.575221238938,285 Z" style="fill:blue;stroke:black;stroke-width:0.5;" />
	<text font-size="10" x="132.389380530973" y="297">30</text>
	<line stroke="black" stroke-width="2" x1="133.982300884956" x2="133.982300884956" y1="285" y2="283" />
	<line stroke="black" stroke-width="2" x1="133.982300884956" x2="133.982300884956" y1="285" y2="284" />
	<path d="M 135.575221238938,285 L 135.575221238938,285 L 138.761061946903,285 L 138.761061946903,285 Z" style="fill:blue;stroke:black;stroke-width:0.5;" />
	<path d="M 138.761061946903,285 L 138.761061946903,285 L 141.946902654867,285 L 141.946902654867,285 Z" style="fill:blue;stroke:black;stroke-width:0.5;" />
	<path d="M 141.946902654867,285 L 141.946902654867,285 L 145.132743362832,285 L 145.132743362832,285 Z" style="fill:blue;stroke:black;stroke-width:0.5;" />
	<path d="M 145.132743362832,285 L 145.132743362832,285 L 148.318584070796,285 L 148.318584070796,285 Z" style="fill:blue;stroke:black;stroke-width:0.5;" />
	<path d="M 148.318584070796,285 L 148.318584070796,285 L 151.504424778761,285 L 151.504424778761,285 Z" style="fill:blue;stroke:black;stroke-width:0.5;" />
	<line stroke="black" stroke-width="2" x1="149.911504424779" x2="149.911504424779" y1="285" y2="284" />
	<path d="M 151.504424778761,285 L 151.504424778761,285 L 154.690265486726,285 L 154.690265486726,285 Z" style="fill:blue;stroke:black;stroke-width:0.5;" />
	<path d="M 154.690265486726,285 L 154.690265486726,285 L 157.87610619469,285 L 157.87610619469,285 Z" style="fill:blue;stroke:black;stroke-width:0.5;" />
	<path d="M 157.87610619469,285 L 157.87610619469,285 L 161.061946902655,285 L 161.061946902655,285 Z" style="fill:blue;stroke:black;stroke-width:0.5;" />
	<path d="M 161.061946902655,285 L 161.061946902655,285 L 164.247787610619,285 L 164.247787610619,285 Z" style="fill:blue;stroke:black;stroke-width:0.5;" />
	<path d="M 164.247787610619,285 L 164.247787610619,285 L 167.433628318584,285 L 167.433628318584,285 Z" style="fill:blue;stroke:black;stroke-width:0.5;" />
	<text font-size="10" x="164.247787610619" y="297">40</text>
	<line stroke="black" stroke-width="2" x1="165.840707964602" x2="165.840707964602" y1="285" y2="283" />
	<line stroke="black" stroke-width="2" x1="165.840707964602" x2="165.840707964602" y1="285" y2="284" />
	<path d="M 167.433628318584,285 L 167.433628318584,285 L 170.619469026549,285 L 170.619469026549,285 Z" style="fill:blue;stroke:black;stroke-width:0.5;" />
	<path d="M 170.619469026549,285 L 170.619469026549,285 L 173.805309734513,285 L 173.805309734513,285 Z" style="fill:blue;stroke:black;stroke-width:0.5;" />
	<path d="M 173.805309734513,285 L 173.805309734513,285 L 176.991150442478,285 L 176.991150442478,285 Z" style="fill:blue;stroke:black;stroke-width:0.5;" />
	<path d="M 176.991150442478,285 L 176.991150442478,285 L 180.176991150442,285 L 180.176991150442,285 Z" style="fill:blue;stroke:black;stroke-width:0.5;" />
	<path d="M 180.176991150442,285 L 180.176991150442,285 L 183.362831858407,285 L 183.362831858407,285 Z" style="fill:blue;stroke:black;stroke-width:0.5;" />
	<line stroke="black" stroke-width="2" x1="181.769911504425" x2="181.769911504425" y1="285" y2="284" />
	<path d="M 183.362831858407,285 L 183.362831858407,285 L 186.548672566372,285 L 186.548672566372,285 Z" style="fill:blue;stroke:black;stroke-width:0.5;" />
	<path d="M 186.548672566372,285 L 186.548672566372,285 L 189.734513274336,285 L 189.734513274336,285 Z" style="fill:blue;stroke:black;stroke-width:0.5;" />
	<path d="M 189.734513274336,285 L 189.734513274336,285 L 192.920353982301,285 L 192.920353982301,285 Z" style="fill:blue;stroke:black;stroke-width:0.5;" />
	<path d="M 192.920353982301,285 L 192.920353982301,285 L 196.106194690265,285 L 196.106194690265,285 Z" style="fill:blue;stroke:black;stroke-width:0.5;" />
	<path d="M 196.106194690265,285 L 196.106194690265,285 L 199.29203539823,285 L 199.29203539823,285 Z" style="fill:blue;stroke:black;stroke-width:0.5;" />
	<text font-size="10" x="196.106194690265" y="297">50</text>
	<line stroke="black" stroke-width="2" x1="197.699115044248" x2="197.699115044248" y1="285" y2="283" />
	<line stroke="black" stroke-width="2" x1="197.699115044248" x2="197.699115044248" y1="285" y2="284" />
	<path d="M 199.29203539823,285 L 199.29203539823,285 L 202.477876106195,285 L 202.477876106195,285 Z" style="fill:blue;stroke:black;stroke-width:0.5;" />
	<path d="M 202.477876106195,285 L 202.477876106195,285 L 205.663716814159,285 L 205.663716814159,285 Z" style="fill:blue;stroke:black;stroke-width:0.5;" />
	<path d="M 205.663716814159,285 L 205.663716814159,285 L 208.849557522124,285 L 208.849557522124,285 Z" style="fill:blue;stroke:black;stroke-width:0.5;" />
	<path d="M 208.849557522124,285 L 208.849557522124,285 L 212.035398230089,285 L 212.035398230089,285 Z" style="fill:blue;stroke:black;stroke-width:0.5;" />
	<path d="M 212.035398230089,285 L 212.035398230089,285 L 215.221238938053,285 L 215.221238938053,285 Z" style="fill:blue;stroke:black;stroke-width:0.5;" />
	<line stroke="black" stroke-width="2" x1="213.628318584071" x2="213.628318584071" y1="285" y2="284" />
	<path d="M 215.221238938053,285 L 215.221238938053,285 L 218.407079646018,285 L 218.407079646018,285 Z" style="fill:blue;stroke:black;stroke-width:0.5;" />
	<path d="M 218.407079646018,285 L 218.407079646018,285 L 221.592920353982,285 L 221.592920353982,285 Z" style="fill:blue;stroke:black;stroke-width:0.5;" />
	<path d="M 221.592920353982,285 L 221.592920353982,285 L 224.778761061947,285 L 224.778761061947,285 Z" style="fill:blue;stroke:black;stroke-width:0.5;" />
	<path d="M 224.778761061947,285 L 224.778761061947,285 L 227.964601769911,285 L 227.964601769911,285 Z" style="fill:blue;stroke:black;stroke-width:0.5;" />
	<path d="M 227.964601769911,285 L 227.964601769911,285 L 231.150442477876,285 L 231.150442477876,285 Z" style="fill:blue;stroke:black;stroke-width:0.5;" />
	<text font-size="10" x="227.964601769911" y="297">60</text>
	<line stroke="black" stroke-width="2" x1="229.557522123894" x2="229.557522123894" y1="285" y2="283" />
	<line stroke="black" stroke-width="2" x1="229.557522123894" x2="229.557522123894" y1="285" y2="284" />
	<path d="M 231.150442477876,285 L 231.150442477876,285 L 234.336283185841,285 L 234.336283185841,285 Z" style="fill:blue;stroke:black;stroke-width:0.5;" />
	<path d="M 234.336283185841,285 L 234.336283185841,285 L 237.522123893805,285 L 237.522123893805,285 Z" style="fill:blue;stroke:black;stroke-width:0.5;" />
	<path d="M 237.522123893805,285 L 237.522123893805,285 L 240.70796460177,285 L 240.70796460177,285 Z" style="fill:blue;stroke:black;stroke-width:0.5;" />
	<path d="M 240.70796460177,285 L 240.70796460177,285 L 243.893805309735,285 L 243.893805309735,285 Z" style="fill:blue;stroke:black;stroke-width:0.5;" />
	<path d="M 243.893805309735,285 L 243.893805309735,285 L 247.079646017699,285 L 247.079646017699,285 Z" style="fill:blue;stroke:black;stroke-width:0.5;" />
	<line stroke="black" stroke-width="2" x1="245.486725663717" x2="245.486725663717" y1="285" y2="284" />
	<path d="M 247.079646017699,285 L 247.079646017699,285 L 250.265486725664,285 L 250.265486725664,285 Z" style="fill:blue;stroke:black;stroke-width:0.5;" />
	<path d="M 250.265486725664,285 L 250.265486725664,285 L 253.451327433628,285 L 253.451327433628,285 Z" style="fill:blue;stroke:black;stroke-width:0.5;" />
	<path d="M 253.451327433628,285 L 253.451327433628,285 L 256.637168141593,285 L 256.637168141593,285 Z" style="fill:blue;stroke:black;stroke-width:0.5;" />
	<path d="M 256.637168141593,285 L 256.637168141593,285 L 259.823008849558,285 L 259.823008849558,285 Z" style="fill:blue;stroke:black;stroke-width:0.5;" />
	<path d="M 259.823008849558,285 L 259.823008849558,285 L 263.008849557522,285 L 263.008849557522,285 Z" style="fill:blue;stroke:black;stroke-width:0.5;" />
	<text font-size="10" x="259.823008849558" y="297">70</text>
	<line stroke="black" stroke-width="2" x1="261.41592920354" x2="261.41592920354" y1="285" y2="283" />
	<line stroke="black" stroke-width="2" x1="261.41592920354" x2="261.41592920354" y1="285" y2="284" />
	<path d="M 263.008849557522,285 L 263.008849557522,285 L 266.194690265487,285 L 266.194690265487,285 Z" style="fill:blue;stroke:black;stroke-width:0.5;" />
	<path d="M 266.194690265487,285 L 266.194690265487,285 L 269.380530973451,285 L 269.380530973451,285 Z" style="fill:blue;stroke:black;stroke-width:0.5;" />
	<path d="M 269.380530973451,285 L 269.380530973451,285 L 272.566371681416,285 L 272.566371681416,285 Z" style="fill:blue;stroke:black;stroke-width:0.5;" />
	<path d="M 272.566371681416,285 L 272.566371681416,285 L 275.752212389381,285 L 275.752212389381,285 Z" style="fill:blue;stroke:black;stroke-width:0.5;" />
	<path d="M 275.752212389381,285 L 275.752212389381,285 L 278.938053097345,285 L 278.938053097345,285 Z" style="fill:blue;stroke:black;stroke-width:0.5;" />
	<line stroke="black" stroke-width="2" x1="277.345132743363" x2="277.345132743363" y1="285" y2="284" />
	<path d="M 278.938053097345,285 L 278.938053097345,285 L 282.12389380531,285 L 282.12389380531,285 Z" style="fill:blue;stroke:black;stroke-width:0.5;" />
	<path d="M 282.12389380531,285 L 282.12389380531,285 L 285.309734513274,285 L 285.309734513274,285 Z" style="fill:blue;stroke:black;stroke-width:0.5;" />
	<path d="M 285.309734513274,285 L 285.309734513274,285 L 288.495575221239,285 L 288.495575221239,285 Z" style="fill:blue;stroke:black;stroke-width:0.5;" />
	<path d="M 288.495575221239,285 L 288.495575221239,285 L 291.681415929204,285 L 291.681415929204,285 Z" style="fill:blue;stroke:black;stroke-width:0.5;" />
	<path d="M 291.681415929204,285 L 291.681415929204,285 L 294.867256637168,285 L 294.867256637168,285 Z" style="fill:blue;stroke:black;stroke-width:0.5;" />
	<text font-size="10" x="291.681415929204" y="297">80</text>
	<line stroke="black" stroke-width="2" x1="293.274336283186" x2="293.274336283186" y1="285" y2="283" />
	<line stroke="black" stroke-width="2" x1="293.274336283186" x2="293.274336283186" y1="285" y2="284" />
	<path d="M 294.867256637168,285 L 294.867256637168,285 L 298.053097345133,285 L 298.053097345133,285 Z" style="fill:blue;stroke:black;stroke-width:0.5;" />
	<path d="M 298.053097345133,285 L 298.053097345133,284.46594 L 301.238938053097,284.46594 L 301.238938053097,285 Z" style="fill:blue;stroke:black;stroke-width:0.5;" />
	<path d="M 301.238938053097,285 L 301.238938053097,284.44002 L 304.424778761062,284.44002 L 304.424778761062,285 Z" style="fill:gold;stroke:black;stroke-width:0.5;" />
	<path d="M 304.424778761062,285 L 304.424778761062,284.44002 L 307.610619469027,284.44002 L 307.610619469027,285 Z" style="fill:gold;stroke:black;stroke-width:0.5;" />
	<path d="M 307.610619469027,285 L 307.610619469027,284.44002 L 310.796460176991,284.44002 L 310.796460176991,285 Z" style="fill:gold;stroke:black;stroke-width:0.5;" />
	<line stroke="black" stroke-width="2" x1="309.203539823009" x2="309.203539823009" y1="285" y2="284" />
	<path d="M 310.796460176991,285 L 310.796460176991,284.44002 L 313.982300884956,284.44002 L 313.982300884956,285 Z" style="fill:gold;stroke:black;stroke-width:0.5;" />
	<path d="M 313.982300884956,285 L 313.982300884956,284.44002 L 317.16814159292,284.44002 L 317.16814159292,285 Z" style="fill:gold;stroke:black;stroke-width:0.5;" />
	<path d="M 317.16814159292,285 L 317.16814159292,284.44002 L 320.353982300885,284.44002 L 320.353982300885,285 Z" style="fill:gold;stroke:black;stroke-width:0.5;" />
	<path d="M 320.353982300885,285 L 320.353982300885,284.44002 L 323.53982300885,284.44002 L 323.53982300885,285 Z" style="fill:gold;stroke:black;stroke-width:0.5;" />
	<path d="M 323.53982300885,285 L 323.53982300885,284.44002 L 326.725663716814,284.44002 L 326.725663716814,285 Z" style="fill:gold;stroke:black;stroke-width:0.5;" />
	<text font-size="10" x="323.53982300885" y="297">90</text>
	<line stroke="black" stroke-width="2" x1="325.132743362832" x2="325.132743362832" y1="285" y2="283" />
	<line stroke="black" stroke-width="2" x1="325.132743362832" x2="325.132743362832" y1="285" y2="284" />
	<path d="M 326.725663716814,285 L 326.725663716814,284.44002 L 329.911504424779,284.44002 L 329.911504424779,285 Z" style="fill:gold;stroke:black;stroke-width:0.5;" />
	<path d="M 329.911504424779,285 L 329.911504424779,284.44002 L 333.097345132743,284.44002 L 333.097345132743,285 Z" style="fill:gold;stroke:black;stroke-width:0.5;" />
	<path d="M 333.097345132743,285 L 333.097345132743,284.44002 L 336.283185840708,284.44002 L 336.283185840708,285 Z" style="fill:gold;stroke:black;stroke-width:0.5;" />
	<path d="M 336.283185840708,285 L 336.283185840708,284.40492 L 339.469026548673,284.40492 L 339.469026548673,285 Z" style="fill:gold;stroke:black;stroke-width:0.5;" />
	<path d="M 339.469026548673,285 L 339.469026548673,284.40492 L 342.654867256637,284.40492 L 342.654867256637,285 Z" style="fill:gold;stroke:black;stroke-width:0.5;" />
	<line stroke="black" stroke-width="2" x1="341.061946902655" x2="341.061946902655" y1="285" y2="284" />
	<path d="M 342.654867256637,285 L 342.654867256637,284.40492 L 345.840707964602,284.40492 L 345.840707964602,285 Z" style="fill:gold;stroke:black;stroke-width:0.5;" />
	<path d="M 345.840707964602,285 L 345.840707964602,284.40492 L 349.026548672566,284.40492 L 349.026548672566,285 Z" style="fill:gold;stroke:black;stroke-width:0.5;" />
	<path d="M 349.026548672566,285 L 349.026548672566,284.40492 L 352.212389380531,284.40492 L 352.212389380531,285 Z" style="fill:gold;stroke:black;stroke-width:0.5;" />
	<path d="M 352.212389380531,285 L 352.212389380531,284.40492 L 355.398230088496,284.40492 L 355.398230088496,285 Z" style="fill:gold;stroke:black;stroke-width:0.5;" />
	<path d="M 355.398230088496,285 L 355.398230088496,284.40492 L 358.58407079646,284.40492 L 358.58407079646,285 Z" style="fill:gold;stroke:black;stroke-width:0.5;" />
	<text font-size="10" x="355.398230088496" y="297">100</text>
	<line stroke="black" stroke-width="2" x1="356.991150442478" x2="356.991150442478" y1="285" y2="283" />
	<line stroke="black" stroke-width="2" x1="356.991150442478" x2="356.991150442478" y1="285" y2="284" />
	<path d="M 358.58407079646,285 L 358.58407079646,284.40492 L 361.769911504425,284.40492 L 361.769911504425,285 Z" style="fill:gold;stroke:black;stroke-width:0.5;" />
	<path d="M 361.769911504425,285 L 361.769911504425,284.40492 L 364.955752212389,284.40492 L 364.955752212389,285 Z" style="fill:gold;stroke:black;stroke-width:0.5;" />
	<path d="M 364.955752212389,285 L 364.955752212389,284.41356 L 368.141592920354,284.41356 L 368.141592920354,285 Z" style="fill:gold;stroke:black;stroke-width:0.5;" />
	<path d="M 368.141592920354,285 L 368.141592920354,284.95626 L 371.327433628319,284.95626 L 371.327433628319,285 Z" style="fill:blue;stroke:black;stroke-width:0.5;" />
	<path d="M 371.327433628319,285 L 371.327433628319,284.9649 L 374.513274336283,284.9649 L 374.513274336283,285 Z" style="fill:blue;stroke:black;stroke-width:0.5;" />
	<line stroke="black" stroke-width="2" x1="372.920353982301" x2="372.920353982301" y1="285" y2="284" />
	<path d="M 374.513274336283,285 L 374.513274336283,284.9649 L 377.699115044248,284.9649 L 377.699115044248,285 Z" style="fill:blue;stroke:black;stroke-width:0.5;" />
	<path d="M 377.699115044248,285 L 377.699115044248,284.9649 L 380.884955752212,284.9649 L 380.884955752212,285 Z" style="fill:blue;stroke:black;stroke-width:0.5;" />
	<path d="M 380.884955752212,285 L 380.884955752212,284.9649 L 384.070796460177,284.9649 L 384.070796460177,285 Z" style="fill:blue;stroke:black;stroke-width:0.5;" />
	<path d="M 384.070796460177,285 L 384.070796460177,284.9649 L 387.256637168142,284.9649 L 387.256637168142,285 Z" style="fill:blue;stroke:black;stroke-width:0.5;" />
	<path d="M 387.256637168142,285 L 387.256637168142,284.9649 L 390.442477876106,284.9649 L 390.442477876106,285 Z" style="fill:blue;stroke:black;stroke-width:0.5;" />
	<text font-size="10" x="387.256637168142" y="297">110</text>
	<line stroke="black" stroke-width="2" x1="388.849557522124" x2="388.849557522124" y1="285" y2="283" />
	<line stroke="black" stroke-width="2" x1="388.849557522124" x2="388.849557522124" y1="285" y2="284" />
	<path d="M 390.442477876106,285 L 390.442477876106,284.9649 L 393.628318584071,284.9649 L 393.628318584071,285 Z" style="fill:blue;stroke:black;stroke-width:0.5;" />
	<path d="M 393.628318584071,285 L 393.628318584071,284.9649 L 396.814159292035,284.9649 L 396.814159292035,285 Z" style="fill:blue;stroke:black;stroke-width:0.5;" />
	<path d="M 396.814159292035,285 L 396.814159292035,284.9649 L 400,284.9649 L 400,285 Z" style="fill:blue;stroke:black;stroke-width:0.5;" />
	<path d="M 400,285 L 400,284.9649 L 403.185840707965,284.9649 L 403.185840707965,285 Z" style="fill:blue;stroke:black;stroke-width:0.5;" />
	<path d="M 403.185840707965,285 L 403.185840707965,284.97354 L 406.371681415929,284.97354 L 406.371681415929,285 Z" style="fill:blue;stroke:black;stroke-width:0.5;" />
	<line stroke="black" stroke-width="2" x1="404.778761061947" x2="404.778761061947" y1="285" y2="284" />
	<path d="M 406.371681415929,285 L 406.371681415929,285 L 409.557522123894,285 L 409.557522123894,285 Z" style="fill:blue;stroke:black;stroke-width:0.5;" />
	<path d="M 409.557522123894,285 L 409.557522123894,285 L 412.743362831858,285 L 412.743362831858,285 Z" style="fill:blue;stroke:black;stroke-width:0.5;" />
	<path d="M 412.743362831858,285 L 412.743362831858,285 L 415.929203539823,285 L 415.929203539823,285 Z" style="fill:blue;stroke:black;stroke-width:0.5;" />
	<path d="M 415.929203539823,285 L 415.929203539823,285 L 419.115044247788,285 L 419.115044247788,285 Z" style="fill:blue;stroke:black;stroke-width:0.5;" />
	<path d="M 419.115044247788,285 L 419.115044247788,285 L 422.300884955752,285 L 422.300884955752,285 Z" style="fill:blue;stroke:black;stroke-width:0.5;" />
	<text font-size="10" x="419.115044247788" y="297">120</text>
	<line stroke="black" stroke-width="2" x1="420.70796460177" x2="420.70796460177" y1="285" y2="283" />
	<line stroke="black" stroke-width="2" x1="420.70796460177" x2="420.70796460177" y1="285" y2="284" />
	<path d="M 422.300884955752,285 L 422.300884955752,285 L 425.486725663717,285 L 425.486725663717,285 Z" style="fill:blue;stroke:black;stroke-width:0.5;" />
	<path d="M 425.486725663717,285 L 425.486725663717,285 L 428.672566371681,285 L 428.672566371681,285 Z" style="fill:blue;stroke:black;stroke-width:0.5;" />
	<path d="M 428.672566371681,285 L 428.672566371681,285 L 431.858407079646,285 L 431.858407079646,285 Z" style="fill:blue;stroke:black;stroke-width:0.5;" />
	<path d="M 431.858407079646,285 L 431.858407079646,285 L 435.044247787611,285 L 435.044247787611,285 Z" style="fill:blue;stroke:black;stroke-width:0.5;" />
	<path d="M 435.044247787611,285 L 435.044247787611,285 L 438.230088495575,285 L 438.230088495575,285 Z" style="fill:blue;stroke:black;stroke-width:0.5;" />
	<line stroke="black" stroke-width="2" x1="436.637168141593" x2="436.637168141593" y1="285" y2="284" />
	<path d="M 438.230088495575,285 L 438.230088495575,285 L 441.41592920354,285 L 441.41592920354,285 Z" style="fill:blue;stroke:black;stroke-width:0.5;" />
	<path d="M 441.41592920354,285 L 441.41592920354,285 L 444.601769911504,285 L 444.601769911504,285 Z" style="fill:blue;stroke:black;stroke-width:0.5;" />
	<path d="M 444.601769911504,285 L 444.601769911504,285 L 447.787610619469,285 L 447.787610619469,285 Z" style="fill:blue;stroke:black;stroke-width:0.5;" />
	<path d="M 447.787610619469,285 L 447.787610619469,285 L 450.973451327434,285 L 450.973451327434,285 Z" style="fill:blue;stroke:black;stroke-width:0.5;" />
	<path d="M 450.973451327434,285 L 450.973451327434,285 L 454.159292035398,285 L 454.159292035398,285 Z" style="fill:blue;stroke:black;stroke-width:0.5;" />
	<text font-size="10" x="450.973451327434" y="297">130</text>
	<line stroke="black" stroke-width="2" x1="452.566371681416" x2="452.566371681416" y1="285" y2="283" />
	<line stroke="black" stroke-width="2" x1="452.566371681416" x2="452.566371681416" y1="285" y2="284" />
	<path d="M 454.159292035398,285 L 454.159292035398,285 L 457.345132743363,285 L 457.345132743363,285 Z" style="fill:blue;stroke:black;stroke-width:0.5;" />
	<path d="M 457.345132743363,285 L 457.345132743363,285 L 460.530973451327,285 L 460.530973451327,285 Z" style="fill:blue;stroke:black;stroke-width:0.5;" />
	<path d="M 460.530973451327,285 L 460.530973451327,285 L 463.716814159292,285 L 463.716814159292,285 Z" style="fill:blue;stroke:black;stroke-width:0.5;" />
	<path d="M 463.716814159292,285 L 463.716814159292,285 L 466.902654867257,285 L 466.902654867257,285 Z" style="fill:blue;stroke:black;stroke-width:0.5;" />
	<path d="M 466.902654867257,285 L 466.902654867257,285 L 470.088495575221,285 L 470.088495575221,285 Z" style="fill:blue;stroke:black;stroke-width:0.5;" />
	<line stroke="black" stroke-width="2" x1="468.495575221239" x2="468.495575221239" y1="285" y2="284" />
	<path d="M 470.088495575221,285 L 470.088495575221,285 L 473.274336283186,285 L 473.274336283186,285 Z" style="fill:blue;stroke:black;stroke-width:0.5;" />
	<path d="M 473.274336283186,285 L 473.274336283186,285 L 476.46017699115,285 L 476.46017699115,285 Z" style="fill:blue;stroke:black;stroke-width:0.5;" />
	<path d="M 476.46017699115,285 L 476.46017699115,285 L 479.646017699115,285 L 479.646017699115,285 Z" style="fill:blue;stroke:black;stroke-width:0.5;" />
	<path d="M 479.646017699115,285 L 479.646017699115,285 L 482.83185840708,285 L 482.83185840708,285 Z" style="fill:blue;stroke:black;stroke-width:0.5;" />
	<path d="M 482.83185840708,285 L 482.83185840708,285 L 486.017699115044,285 L 486.017699115044,285 Z" style="fill:blue;stroke:black;stroke-width:0.5;" />
	<text font-size="10" x="482.83185840708" y="297">140</text>
	<line stroke="black" stroke-width="2" x1="484.424778761062" x2="484.424778761062" y1="285" y2="283" />
	<line stroke="black" stroke-width="2" x1="484.424778761062" x2="484.424778761062" y1="285" y2="284" />
	<path d="M 486.017699115044,285 L 486.017699115044,285 L 489.203539823009,285 L 489.203539823009,285 Z" style="fill:blue;stroke:black;stroke-width:0.5;" />
	<path d="M 489.203539823009,285 L 489.203539823009,285 L 492.389380530973,285 L 492.389380530973,285 Z" style="fill:blue;stroke:black;stroke-width:0.5;" />
	<path d="M 492.389380530973,285 L 492.389380530973,285 L 495.575221238938,285 L 495.575221238938,285 Z" style="fill:blue;stroke:black;stroke-width:0.5;" />
	<path d="M 495.575221238938,285 L 495.575221238938,285 L 498.761061946903,285 L 498.761061946903,285 Z" style="fill:blue;stroke:black;stroke-width:0.5;" />
	<path d="M 498.761061946903,285 L 498.761061946903,285 L 501.946902654867,285 L 501.946902654867,285 Z" style="fill:blue;stroke:black;stroke-width:0.5;" />
	<line stroke="black" stroke-width="2" x1="500.353982300885" x2="500.353982300885" y1="285" y2="284" />
	<path d="M 501.946902654867,285 L 501.946902654867,285 L 505.132743362832,285 L 505.132743362832,285 Z" style="fill:blue;stroke:black;stroke-width:0.5;" />
	<path d="M 505.132743362832,285 L 505.132743362832,285 L 508.318584070796,285 L 508.318584070796,285 Z" style="fill:blue;stroke:black;stroke-width:0.5;" />
	<path d="M 508.318584070796,285 L 508.318584070796,285 L 511.504424778761,285 L 511.504424778761,285 Z" style="fill:blue;stroke:black;stroke-width:0.5;" />
	<path d="M 511.504424778761,285 L 511.504424778761,285 L 514.690265486726,285 L 514.690265486726,285 Z" style="fill:blue;stroke:black;stroke-width:0.5;" />
	<path d="M 514.690265486726,285 L 514.690265486726,285 L 517.87610619469,285 L 517.87610619469,285 Z" style="fill:blue;stroke:black;stroke-width:0.5;" />
	<text font-size="10" x="514.690265486726" y="297">150</text>
	<line stroke="black" stroke-width="2" x1="516.283185840708" x2="516.283185840708" y1="285" y2="283" />
	<line stroke="black" stroke-width="2" x1="516.283185840708" x2="516.283185840708" y1="285" y2="284" />
	<path d="M 517.87610619469,285 L 517.87610619469,285 L 521.061946902655,285 L 521.061946902655,285 Z" style="fill:blue;stroke:black;stroke-width:0.5;" />
	<path d="M 521.061946902655,285 L 521.061946902655,285 L 524.24778761062,285 L 524.24778761062,285 Z" style="fill:blue;stroke:black;stroke-width:0.5;" />
	<path d="M 524.24778761062,285 L 524.24778761062,285 L 527.433628318584,285 L 527.433628318584,285 Z" style="fill:blue;stroke:black;stroke-width:0.5;" />
	<path d="M 527.433628318584,285 L 527.433628318584,285 L 530.619469026549,285 L 530.619469026549,285 Z" style="fill:blue;stroke:black;stroke-width:0.5;" />
	<path d="M 530.619469026549,285 L 530.619469026549,285 L 533.805309734513,285 L 533.805309734513,285 Z" style="fill:blue;stroke:black;stroke-width:0.5;" />
	<line stroke="black" stroke-width="2" x1="532.212389380531" x2="532.212389380531" y1="285" y2="284" />
	<path d="M 533.805309734513,285 L 533.805309734513,285 L 536.991150442478,285 L 536.991150442478,285 Z" style="fill:blue;stroke:black;stroke-width:0.5;" />
	<path d="M 536.991150442478,285 L 536.991150442478,285 L 540.176991150443,285 L 540.176991150443,285 Z" style="fill:blue;stroke:black;stroke-width:0.5;" />
	<path d="M 540.176991150443,285 L 540.176991150443,285 L 543.362831858407,285 L 543.362831858407,285 Z" style="fill:blue;stroke:black;stroke-width:0.5;" />
	<path d="M 543.362831858407,285 L 543.362831858407,285 L 546.548672566372,285 L 546.548672566372,285 Z" style="fill:blue;stroke:black;stroke-width:0.5;" />
	<path d="M 546.548672566372,285 L 546.548672566372,285 L 549.734513274336,285 L 549.734513274336,285 Z" style="fill:blue;stroke:black;stroke-width:0.5;" />
	<text font-size="10" x="546.548672566372" y="297">160</text>
	<line stroke="black" stroke-width="2" x1="548.141592920354" x2="548.141592920354" y1="285" y2="283" />
	<line stroke="black" stroke-width="2" x1="548.141592920354" x2="548.141592920354" y1="285" y2="284" />
	<path d="M 549.734513274336,285 L 549.734513274336,285 L 552.920353982301,285 L 552.920353982301,285 Z" style="fill:blue;stroke:black;stroke-width:0.5;" />
	<path d="M 552.920353982301,285 L 552.920353982301,285 L 556.106194690266,285 L 556.106194690266,285 Z" style="fill:blue;stroke:black;stroke-width:0.5;" />
	<path d="M 556.106194690266,285 L 556.106194690266,285 L 559.29203539823,285 L 559.29203539823,285 Z" style="fill:blue;stroke:black;stroke-width:0.5;" />
	<path d="M 559.29203539823,285 L 559.29203539823,285 L 562.477876106195,285 L 562.477876106195,285 Z" style="fill:blue;stroke:black;stroke-width:0.5;" />
	<path d="M 562.477876106195,285 L 562.477876106195,285 L 565.663716814159,285 L 565.663716814159,285 Z" style="fill:blue;stroke:black;stroke-width:0.5;" />
	<line stroke="black" stroke-width="2" x1="564.070796460177" x2="564.070796460177" y1="285" y2="284" />
	<path d="M 565.663716814159,285 L 565.663716814159,285 L 568.849557522124,285 L 568.849557522124,285 Z" style="fill:blue;stroke:black;stroke-width:0.5;" />
	<path d="M 568.849557522124,285 L 568.849557522124,285 L 572.035398230089,285 L 572.035398230089,285 Z" style="fill:blue;stroke:black;stroke-width:0.5;" />
	<path d="M 572.035398230089,285 L 572.035398230089,285 L 575.221238938053,285 L 575.221238938053,285 Z" style="fill:blue;stroke:black;stroke-width:0.5;" />
	<path d="M 575.221238938053,285 L 575.221238938053,285 L 578.407079646018,285 L 578.407079646018,285 Z" style="fill:blue;stroke:black;stroke-width:0.5;" />
	<path d="M 578.407079646018,285 L 578.407079646018,285 L 581.592920353982,285 L 581.592920353982,285 Z" style="fill:blue;stroke:black;stroke-width:0.5;" />
	<text font-size="10" x="578.407079646018" y="297">170</text>
	<line stroke="black" stroke-width="2" x1="580" x2="580" y1="285" y2="283" />
	<line stroke="black" stroke-width="2" x1="580" x2="580" y1="285" y2="284" />
	<path d="M 581.592920353982,285 L 581.592920353982,285 L 584.778761061947,285 L 584.778761061947,285 Z" style="fill:blue;stroke:black;stroke-width:0.5;" />
	<path d="M 584.778761061947,285 L 584.778761061947,284.96544 L 587.964601769911,284.96544 L 587.964601769911,285 Z" style="fill:blue;stroke:black;stroke-width:0.5;" />
	<path d="M 587.964601769911,285 L 587.964601769911,284.96544 L 591.150442477876,284.96544 L 591.150442477876,285 Z" style="fill:blue;stroke:black;stroke-width:0.5;" />
	<path d="M 591.150442477876,285 L 591.150442477876,284.96544 L 594.336283185841,284.96544 L 594.336283185841,285 Z" style="fill:blue;stroke:black;stroke-width:0.5;" />
	<path d="M 594.336283185841,285 L 594.336283185841,284.96544 L 597.522123893805,284.96544 L 597.522123893805,285 Z" style="fill:blue;stroke:black;stroke-width:0.5;" />
	<line stroke="black" stroke-width="2" x1="595.929203539823" x2="595.929203539823" y1="285" y2="284" />
	<path d="M 597.522123893805,285 L 597.522123893805,284.96544 L 600.70796460177,284.96544 L 600.70796460177,285 Z" style="fill:blue;stroke:black;stroke-width:0.5;" />
	<path d="M 600.70796460177,285 L 600.70796460177,284.96544 L 603.893805309734,284.96544 L 603.893805309734,285 Z" style="fill:blue;stroke:black;stroke-width:0.5;" />
	<path d="M 603.893805309734,285 L 603.893805309734,284.96544 L 607.079646017699,284.96544 L 607.079646017699,285 Z" style="fill:blue;stroke:black;stroke-width:0.5;" />
	<path d="M 607.079646017699,285 L 607.079646017699,284.96544 L 610.265486725664,284.96544 L 610.265486725664,285 Z" style="fill:blue;stroke:black;stroke-width:0.5;" />
	<path d="M 610.265486725664,285 L 610.265486725664,284.96544 L 613.451327433628,284.96544 L 613.451327433628,285 Z" style="fill:blue;stroke:black;stroke-width:0.5;" />
	<text font-size="10" x="610.265486725664" y="297">180</text>
	<line stroke="black" stroke-width="2" x1="611.858407079646" x2="611.858407079646" y1="285" y2="283" />
	<line stroke="black" stroke-width="2" x1="611.858407079646" x2="611.858407079646" y1="285" y2="284" />
	<path d="M 613.451327433628,285 L 613.451327433628,284.96544 L 616.637168141593,284.96544 L 616.637168141593,285 Z" style="fill:blue;stroke:black;stroke-width:0.5;" />
	<path d="M 616.637168141593,285 L 616.637168141593,221.11476 L 619.823008849557,221.11476 L 619.823008849557,285 Z" style="fill:gold;stroke:black;stroke-width:0.5;" />
	<path d="M 619.823008849557,285 L 619.823008849557,220.89552 L 623.008849557522,220.89552 L 623.008849557522,285 Z" style="fill:gold;stroke:black;stroke-width:0.5;" />
	<path d="M 623.008849557522,285 L 623.008849557522,220.84314 L 626.194690265487,220.84314 L 626.194690265487,285 Z" style="fill:gold;stroke:black;stroke-width:0.5;" />
	<path d="M 626.194690265487,285 L 626.194690265487,220.80804 L 629.380530973451,220.80804 L 629.380530973451,285 Z" style="fill:gold;stroke:black;stroke-width:0.5;" />
	<line stroke="black" stroke-width="2" x1="627.787610619469" x2="627.787610619469" y1="285" y2="284" />
	<path d="M 629.380530973451,285 L 629.380530973451,220.7994 L 632.566371681416,220.7994 L 632.566371681416,285 Z" style="fill:gold;stroke:black;stroke-width:0.5;" />
	<path d="M 632.566371681416,285 L 632.566371681416,220.7994 L 635.752212389381,220.7994 L 635.752212389381,285 Z" style="fill:gold;stroke:black;stroke-width:0.5;" />
	<path d="M 635.752212389381,285 L 635.752212389381,220.7994 L 638.938053097345,220.7994 L 638.938053097345,285 Z" style="fill:gold;stroke:black;stroke-width:0.5;" />
	<path d="M 638.938053097345,285 L 638.938053097345,220.7994 L 642.12389380531,220.7994 L 642.12389380531,285 Z" style="fill:gold;stroke:black;stroke-width:0.5;" />
	<path d="M 642.12389380531,285 L 642.12389380531,220.7994 L 645.309734513274,220.7994 L 645.309734513274,285 Z" style="fill:gold;stroke:black;stroke-width:0.5;" />
	<text font-size="10" x="642.12389380531" y="297">190</text>
	<line stroke="black" stroke-width="2" x1="643.716814159292" x2="643.716814159292" y1="285" y2="283" />
	<line stroke="black" stroke-width="2" x1="643.716814159292" x2="643.716814159292" y1="285" y2="284" />
	<path d="M 645.309734513274,285 L 645.309734513274,220.81668 L 648.495575221239,220.81668 L 648.495575221239,285 Z" style="fill:gold;stroke:black;stroke-width:0.5;" />
	<path d="M 648.495575221239,285 L 648.495575221239,220.81668 L 651.681415929204,220.81668 L 651.681415929204,285 Z" style="fill:gold;stroke:black;stroke-width:0.5;" />
	<path d="M 651.681415929204,285 L 651.681415929204,220.83396 L 654.867256637168,220.83396 L 654.867256637168,285 Z" style="fill:gold;stroke:black;stroke-width:0.5;" />
	<path d="M 654.867256637168,285 L 654.867256637168,220.83396 L 658.053097345133,220.83396 L 658.053097345133,285 Z" style="fill:gold;stroke:black;stroke-width:0.5;" />
	<path d="M 658.053097345133,285 L 658.053097345133,220.83396 L 661.238938053097,220.83396 L 661.238938053097,285 Z" style="fill:gold;stroke:black;stroke-width:0.5;" />
	<line stroke="black" stroke-width="2" x1="659.646017699115" x2="659.646017699115" y1="285" y2="284" />
	<path d="M 661.238938053097,285 L 661.238938053097,220.83396 L 664.424778761062,220.83396 L 664.424778761062,285 Z" style="fill:gold;stroke:black;stroke-width:0.5;" />
	<path d="M 664.424778761062,285 L 664.424778761062,220.85178 L 667.610619469027,220.85178 L 667.610619469027,285 Z" style="fill:gold;stroke:black;stroke-width:0.5;" />
	<path d="M 667.610619469027,285 L 667.610619469027,220.8777 L 670.796460176991,220.8777 L 670.796460176991,285 Z" style="fill:gold;stroke:black;stroke-width:0.5;" />
	<path d="M 670.796460176991,285 L 670.796460176991,220.89552 L 673.982300884956,220.89552 L 673.982300884956,285 Z" style="fill:gold;stroke:black;stroke-width:0.5;" />
	<path d="M 673.982300884956,285 L 673.982300884956,221.99064 L 677.16814159292,221.99064 L 677.16814159292,285 Z" style="fill:gold;stroke:black;stroke-width:0.5;" />
	<text font-size="10" x="673.982300884956" y="297">200</text>
	<line stroke="black" stroke-width="2" x1="675.575221238938" x2="675.575221238938" y1="285" y2="283" />
	<line stroke="black" stroke-width="2" x1="675.575221238938" x2="675.575221238938" y1="285" y2="284" />
	<path d="M 677.16814159292,285 L 677.16814159292,224.3823 L 680.353982300885,224.3823 L 680.353982300885,285 Z" style="fill:gold;stroke:black;stroke-width:0.5;" />
	<path d="M 680.353982300885,285 L 680.353982300885,228.46038 L 683.53982300885,228.46038 L 683.53982300885,285 Z" style="fill:gold;stroke:black;stroke-width:0.5;" />
	<path d="M 683.53982300885,285 L 683.53982300885,283.09812 L 686.725663716814,283.09812 L 686.725663716814,285 Z" style="fill:blue;stroke:black;stroke-width:0.5;" />
	<path d="M 686.725663716814,285 L 686.725663716814,284.99136 L 689.911504424779,284.99136 L 689.911504424779,285 Z" style="fill:blue;stroke:black;stroke-width:0.5;" />
	<path d="M 689.911504424779,285 L 689.911504424779,285 L 693.097345132743,285 L 693.097345132743,285 Z" style="fill:blue;stroke:black;stroke-width:0.5;" />
	<line stroke="black" stroke-width="2" x1="691.504424778761" x2="691.504424778761" y1="285" y2="284" />
	<path d="M 693.097345132743,285 L 693.097345132743,285 L 696.283185840708,285 L 696.283185840708,285 Z" style="fill:blue;stroke:black;stroke-width:0.5;" />
	<path d="M 696.283185840708,285 L 696.283185840708,285 L 699.469026548673,285 L 699.469026548673,285 Z" style="fill:blue;stroke:black;stroke-width:0.5;" />
	<path d="M 699.469026548673,285 L 699.469026548673,285 L 702.654867256637,285 L 702.654867256637,285 Z" style="fill:blue;stroke:black;stroke-width:0.5;" />
	<path d="M 702.654867256637,285 L 702.654867256637,285 L 705.840707964602,285 L 705.840707964602,285 Z" style="fill:blue;stroke:black;stroke-width:0.5;" />
	<path d="M 705.840707964602,285 L 705.840707964602,285 L 709.026548672566,285 L 709.026548672566,285 Z" style="fill:blue;stroke:black;stroke-width:0.5;" />
	<text font-size="10" x="705.840707964602" y="297">210</text>
	<line stroke="black" stroke-width="2" x1="707.433628318584" x2="707.433628318584" y1="285" y2="283" />
	<line stroke="black" stroke-width="2" x1="707.433628318584" x2="707.433628318584" y1="285" y2="284" />
	<path d="M 709.026548672566,285 L 709.026548672566,285 L 712.212389380531,285 L 712.212389380531,285 Z" style="fill:blue;stroke:black;stroke-width:0.5;" />
	<path d="M 712.212389380531,285 L 712.212389380531,285 L 715.398230088496,285 L 715.398230088496,285 Z" style="fill:blue;stroke:black;stroke-width:0.5;" />
	<path d="M 715.398230088496,285 L 715.398230088496,285 L 718.58407079646,285 L 718.58407079646,285 Z" style="fill:blue;stroke:black;stroke-width:0.5;" />
	<path d="M 718.58407079646,285 L 718.58407079646,285 L 721.769911504425,285 L 721.769911504425,285 Z" style="fill:blue;stroke:black;stroke-width:0.5;" />
	<path d="M 721.769911504425,285 L 721.769911504425,285 L 724.955752212389,285 L 724.955752212389,285 Z" style="fill:blue;stroke:black;stroke-width:0.5;" />
	<line stroke="black" stroke-width="2" x1="723.362831858407" x2="723.362831858407" y1="285" y2="284" />
	<path d="M 724.955752212389,285 L 724.955752212389,285 L 728.141592920354,285 L 728.141592920354,285 Z" style="fill:blue;stroke:black;stroke-width:0.5;" />
	<path d="M 728.141592920354,285 L 728.141592920354,285 L 731.327433628319,285 L 731.327433628319,285 Z" style="fill:blue;stroke:black;stroke-width:0.5;" />
	<path d="M 731.327433628319,285 L 731.327433628319,285 L 734.513274336283,285 L 734.513274336283,285 Z" style="fill:blue;stroke:black;stroke-width:0.5;" />
	<path d="M 734.513274336283,285 L 734.513274336283,285 L 737.699115044248,285 L 737.699115044248,285 Z" style="fill:blue;stroke:black;stroke-width:0.5;" />
	<path d="M 737.699115044248,285 L 737.699115044248,285 L 740.884955752212,285 L 740.884955752212,285 Z" style="fill:blue;stroke:black;stroke-width:0.5;" />
	<text font-size="10" x="737.699115044248" y="297">220</text>
	<line stroke="black" stroke-width="2" x1="739.29203539823" x2="739.29203539823" y1="285" y2="283" />
	<line stroke="black" stroke-width="2" x1="739.29203539823" x2="739.29203539823" y1="285" y2="284" />
	<path d="M 740.884955752212,285 L 740.884955752212,285 L 744.070796460177,285 L 744.070796460177,285 Z" style="fill:blue;stroke:black;stroke-width:0.5;" />
	<path d="M 744.070796460177,285 L 744.070796460177,285 L 747.256637168142,285 L 747.256637168142,285 Z" style="fill:blue;stroke:black;stroke-width:0.5;" />
	<path d="M 747.256637168142,285 L 747.256637168142,285 L 750.442477876106,285 L 750.442477876106,285 Z" style="fill:blue;stroke:black;stroke-width:0.5;" />
	<path d="M 750.442477876106,285 L 750.442477876106,285 L 753.628318584071,285 L 753.628318584071,285 Z" style="fill:blue;stroke:black;stroke-width:0.5;" />
	<path d="M 753.628318584071,285 L 753.628318584071,285 L 756.814159292035,285 L 756.814159292035,285 Z" style="fill:blue;stroke:black;stroke-width:0.5;" />
	<line stroke="black" stroke-width="2" x1="755.221238938053" x2="755.221238938053" y1="285" y2="284" />
	<path d="M 756.814159292035,285 L 756.814159292035,285 L 760,285 L 760,285 Z" style="fill:blue;stroke:black;stroke-width:0.5;" />
	<!-- 
	Generated using the Perl SVG Module V2.50
	by Ronan Oger
	Info: http://www.roitsystems.com/
 -->
</svg>