<?xml version="1.0" encoding="UTF-8" standalone="yes"?>
<!DOCTYPE svg PUBLIC "-//W3C//DTD SVG 1.0//EN" "http://www.w3.org/TR/2001/REC-SVG-20010904/DTD/svg10.dtd">
<svg height="300" width="800" xmlns="http://www.w3.org/2000/svg" xmlns:svg="http://www.w3.org/2000/svg" xmlns:xlink="http://www.w3.org/1999/xlink">
	<line stroke="black" stroke-width="2" x1="40" x2="40" y1="15" y2="285" />
	<line stroke="black" stroke-width="2" x1="40" x2="45.8064516129032" y1="231" y2="231" />
	<text font-size="12" x="48.7096774193548" y="231">1000</text>
	<line stroke="black" stroke-width="2" x1="40" x2="45.8064516129032" y1="177" y2="177" />
	<text font-size="12" x="48.7096774193548" y="177">2000</text>
	<line stroke="black" stroke-width="2" x1="40" x2="45.8064516129032" y1="123" y2="123" />
	<text font-size="12" x="48.7096774193548" y="123">3000</text>
	<line stroke="black" stroke-width="2" x1="40" x2="45.8064516129032" y1="69" y2="69" />
	<text font-size="12" x="48.7096774193548" y="69">4000</text>
	<line stroke="black" stroke-width="2" x1="40" x2="45.8064516129032" y1="15" y2="15" />
	<text font-size="12" x="48.7096774193548" y="15">5000</text>
	<line stroke="black" stroke-width="2" x1="40" x2="800" y1="285" y2="285" />
	<path d="M 40,285 L 40,285 L 45.8064516129032,285 L 45.8064516129032,285 Z" style="fill:blue;stroke:black;stroke-width:0.5;" />
	<path d="M 45.8064516129032,285 L 45.8064516129032,285 L 51.6129032258064,285 L 51.6129032258064,285 Z" style="fill:blue;stroke:black;stroke-width:0.5;" />
	<path d="M 51.6129032258064,285 L 51.6129032258064,285 L 57.4193548387097,285 L 57.4193548387097,285 Z" style="fill:blue;stroke:black;stroke-width:0.5;" />
	<path d="M 57.4193548387097,285 L 57.4193548387097,285 L 63.2258064516129,285 L 63.2258064516129,285 Z" style="fill:blue;stroke:black;stroke-width:0.5;" />
	<path d="M 63.2258064516129,285 L 63.2258064516129,285 L 69.0322580645161,285 L 69.0322580645161,285 Z" style="fill:blue;stroke:black;stroke-width:0.5;" />
	<line stroke="black" stroke-width="2" x1="66.1290322580645" x2="66.1290322580645" y1="285" y2="284" />
	<path d="M 69.0322580645161,285 L 69.0322580645161,285 L 74.8387096774194,285 L 74.8387096774194,285 Z" style="fill:blue;stroke:black;stroke-width:0.5;" />
	<path d="M 74.8387096774194,285 L 74.8387096774194,285 L 80.6451612903226,285 L 80.6451612903226,285 Z" style="fill:blue;stroke:black;stroke-width:0.5;" />
	<path d="M 80.6451612903226,285 L 80.6451612903226,285 L 86.4516129032258,285 L 86.4516129032258,285 Z" style="fill:blue;stroke:black;stroke-width:0.5;" />
	<path d="M 86.4516129032258,285 L 86.4516129032258,285 L 92.258064516129,285 L 92.258064516129,285 Z" style="fill:blue;stroke:black;stroke-width:0.5;" />
	<path d="M 92.258064516129,285 L 92.258064516129,285 L 98.0645161290323,285 L 98.0645161290323,285 Z" style="fill:blue;stroke:black;stroke-width:0.5;" />
	<text font-size="10" x="92.258064516129" y="297">10</text>
	<line stroke="black" stroke-width="2" x1="95.1612903225806" x2="95.1612903225806" y1="285" y2="283" />
	<line stroke="black" stroke-width="2" x1="95.1612903225806" x2="95.1612903225806" y1="285" y2="284" />
	<path d="M 98.0645161290323,285 L 98.0645161290323,285 L 103.870967741935,285 L 103.870967741935,285 Z" style="fill:blue;stroke:black;stroke-width:0.5;" />
	<path d="M 103.870967741935,285 L 103.870967741935,285 L 109.677419354839,285 L 109.677419354839,285 Z" style="fill:blue;stroke:black;stroke-width:0.5;" />
	<path d="M 109.677419354839,285 L 109.677419354839,285 L 115.483870967742,285 L 115.483870967742,285 Z" style="fill:blue;stroke:black;stroke-width:0.5;" />
	<path d="M 115.483870967742,285 L 115.483870967742,285 L 121.290322580645,285 L 121.290322580645,285 Z" style="fill:blue;stroke:black;stroke-width:0.5;" />
	<path d="M 121.290322580645,285 L 121.290322580645,284.73756 L 127.096774193548,284.73756 L 127.096774193548,285 Z" style="fill:blue;stroke:black;stroke-width:0.5;" />
	<line stroke="black" stroke-width="2" x1="124.193548387097" x2="124.193548387097" y1="285" y2="284" />
	<path d="M 127.096774193548,285 L 127.096774193548,284.72892 L 132.903225806452,284.72892 L 132.903225806452,285 Z" style="fill:blue;stroke:black;stroke-width:0.5;" />
	<path d="M 132.903225806452,285 L 132.903225806452,284.72892 L 138.709677419355,284.72892 L 138.709677419355,285 Z" style="fill:blue;stroke:black;stroke-width:0.5;" />
	<path d="M 138.709677419355,285 L 138.709677419355,284.72892 L 144.516129032258,284.72892 L 144.516129032258,285 Z" style="fill:blue;stroke:black;stroke-width:0.5;" />
	<path d="M 144.516129032258,285 L 144.516129032258,284.72892 L 150.322580645161,284.72892 L 150.322580645161,285 Z" style="fill:blue;stroke:black;stroke-width:0.5;" />
	<path d="M 150.322580645161,285 L 150.322580645161,284.72892 L 156.129032258065,284.72892 L 156.129032258065,285 Z" style="fill:blue;stroke:black;stroke-width:0.5;" />
	<text font-size="10" x="150.322580645161" y="297">20</text>
	<line stroke="black" stroke-width="2" x1="153.225806451613" x2="153.225806451613" y1="285" y2="283" />
	<line stroke="black" stroke-width="2" x1="153.225806451613" x2="153.225806451613" y1="285" y2="284" />
	<path d="M 156.129032258065,285 L 156.129032258065,284.72892 L 161.935483870968,284.72892 L 161.935483870968,285 Z" style="fill:blue;stroke:black;stroke-width:0.5;" />
	<path d="M 161.935483870968,285 L 161.935483870968,284.72892 L 167.741935483871,284.72892 L 167.741935483871,285 Z" style="fill:blue;stroke:black;stroke-width:0.5;" />
	<path d="M 167.741935483871,285 L 167.741935483871,284.69382 L 173.548387096774,284.69382 L 173.548387096774,285 Z" style="fill:blue;stroke:black;stroke-width:0.5;" />
	<path d="M 173.548387096774,285 L 173.548387096774,284.58906 L 179.354838709677,284.58906 L 179.354838709677,285 Z" style="fill:blue;stroke:black;stroke-width:0.5;" />
	<path d="M 179.354838709677,285 L 179.354838709677,284.58042 L 185.161290322581,284.58042 L 185.161290322581,285 Z" style="fill:blue;stroke:black;stroke-width:0.5;" />
	<line stroke="black" stroke-width="2" x1="182.258064516129" x2="182.258064516129" y1="285" y2="284" />
	<path d="M 185.161290322581,285 L 185.161290322581,226.2318 L 190.967741935484,226.2318 L 190.967741935484,285 Z" style="fill:gold;stroke:black;stroke-width:0.5;" />
	<path d="M 190.967741935484,285 L 190.967741935484,225.49794 L 196.774193548387,225.49794 L 196.774193548387,285 Z" style="fill:gold;stroke:black;stroke-width:0.5;" />
	<path d="M 196.774193548387,285 L 196.774193548387,225.44556 L 202.58064516129,225.44556 L 202.58064516129,285 Z" style="fill:gold;stroke:black;stroke-width:0.5;" />
	<path d="M 202.58064516129,285 L 202.58064516129,225.17502 L 208.387096774194,225.17502 L 208.387096774194,285 Z" style="fill:gold;stroke:black;stroke-width:0.5;" />
	<path d="M 208.387096774194,285 L 208.387096774194,224.72952 L 214.193548387097,224.72952 L 214.193548387097,285 Z" style="fill:gold;stroke:black;stroke-width:0.5;" />
	<text font-size="10" x="208.387096774194" y="297">30</text>
	<line stroke="black" stroke-width="2" x1="211.290322580645" x2="211.290322580645" y1="285" y2="283" />
	<line stroke="black" stroke-width="2" x1="211.290322580645" x2="211.290322580645" y1="285" y2="284" />
	<path d="M 214.193548387097,285 L 214.193548387097,224.66796 L 220,224.66796 L 220,285 Z" style="fill:gold;stroke:black;stroke-width:0.5;" />
	<path d="M 220,285 L 220,224.61558 L 225.806451612903,224.61558 L 225.806451612903,285 Z" style="fill:gold;stroke:black;stroke-width:0.5;" />
	<path d="M 225.806451612903,285 L 225.806451612903,224.56374 L 231.612903225806,224.56374 L 231.612903225806,285 Z" style="fill:gold;stroke:black;stroke-width:0.5;" />
	<path d="M 231.612903225806,285 L 231.612903225806,224.52918 L 237.41935483871,224.52918 L 237.41935483871,285 Z" style="fill:gold;stroke:black;stroke-width:0.5;" />
	<path d="M 237.41935483871,285 L 237.41935483871,224.52054 L 243.225806451613,224.52054 L 243.225806451613,285 Z" style="fill:gold;stroke:black;stroke-width:0.5;" />
	<line stroke="black" stroke-width="2" x1="240.322580645161" x2="240.322580645161" y1="285" y2="284" />
	<path d="M 243.225806451613,285 L 243.225806451613,224.77434 L 249.032258064516,224.77434 L 249.032258064516,285 Z" style="fill:gold;stroke:black;stroke-width:0.5;" />
	<path d="M 249.032258064516,285 L 249.032258064516,224.77434 L 254.838709677419,224.77434 L 254.838709677419,285 Z" style="fill:gold;stroke:black;stroke-width:0.5;" />
	<path d="M 254.838709677419,285 L 254.838709677419,224.77434 L 260.645161290323,224.77434 L 260.645161290323,285 Z" style="fill:gold;stroke:black;stroke-width:0.5;" />
	<path d="M 260.645161290323,285 L 260.645161290323,224.77434 L 266.451612903226,224.77434 L 266.451612903226,285 Z" style="fill:gold;stroke:black;stroke-width:0.5;" />
	<path d="M 266.451612903226,285 L 266.451612903226,224.77434 L 272.258064516129,224.77434 L 272.258064516129,285 Z" style="fill:gold;stroke:black;stroke-width:0.5;" />
	<text font-size="10" x="266.451612903226" y="297">40</text>
	<line stroke="black" stroke-width="2" x1="269.354838709677" x2="269.354838709677" y1="285" y2="283" />
	<line stroke="black" stroke-width="2" x1="269.354838709677" x2="269.354838709677" y1="285" y2="284" />
	<path d="M 272.258064516129,285 L 272.258064516129,224.78298 L 278.064516129032,224.78298 L 278.064516129032,285 Z" style="fill:gold;stroke:black;stroke-width:0.5;" />
	<path d="M 278.064516129032,285 L 278.064516129032,225.04542 L 283.870967741935,225.04542 L 283.870967741935,285 Z" style="fill:gold;stroke:black;stroke-width:0.5;" />
	<path d="M 283.870967741935,285 L 283.870967741935,225.81492 L 289.677419354839,225.81492 L 289.677419354839,285 Z" style="fill:gold;stroke:black;stroke-width:0.5;" />
	<path d="M 289.677419354839,285 L 289.677419354839,226.47048 L 295.483870967742,226.47048 L 295.483870967742,285 Z" style="fill:gold;stroke:black;stroke-width:0.5;" />
	<path d="M 295.483870967742,285 L 295.483870967742,227.06502 L 301.290322580645,227.06502 L 301.290322580645,285 Z" style="fill:gold;stroke:black;stroke-width:0.5;" />
	<line stroke="black" stroke-width="2" x1="298.387096774194" x2="298.387096774194" y1="285" y2="284" />
	<path d="M 301.290322580645,285 L 301.290322580645,232.27548 L 307.096774193548,232.27548 L 307.096774193548,285 Z" style="fill:gold;stroke:black;stroke-width:0.5;" />
	<path d="M 307.096774193548,285 L 307.096774193548,264.1425 L 312.903225806452,264.1425 L 312.903225806452,285 Z" style="fill:blue;stroke:black;stroke-width:0.5;" />
	<path d="M 312.903225806452,285 L 312.903225806452,284.74836 L 318.709677419355,284.74836 L 318.709677419355,285 Z" style="fill:blue;stroke:black;stroke-width:0.5;" />
	<path d="M 318.709677419355,285 L 318.709677419355,284.8704 L 324.516129032258,284.8704 L 324.516129032258,285 Z" style="fill:blue;stroke:black;stroke-width:0.5;" />
	<path d="M 324.516129032258,285 L 324.516129032258,284.8704 L 330.322580645161,284.8704 L 330.322580645161,285 Z" style="fill:blue;stroke:black;stroke-width:0.5;" />
	<text font-size="10" x="324.516129032258" y="297">50</text>
	<line stroke="black" stroke-width="2" x1="327.41935483871" x2="327.41935483871" y1="285" y2="283" />
	<line stroke="black" stroke-width="2" x1="327.41935483871" x2="327.41935483871" y1="285" y2="284" />
	<path d="M 330.322580645161,285 L 330.322580645161,284.88768 L 336.129032258065,284.88768 L 336.129032258065,285 Z" style="fill:blue;stroke:black;stroke-width:0.5;" />
	<path d="M 336.129032258065,285 L 336.129032258065,284.89632 L 341.935483870968,284.89632 L 341.935483870968,285 Z" style="fill:blue;stroke:black;stroke-width:0.5;" />
	<path d="M 341.935483870968,285 L 341.935483870968,284.90496 L 347.741935483871,284.90496 L 347.741935483871,285 Z" style="fill:blue;stroke:black;stroke-width:0.5;" />
	<path d="M 347.741935483871,285 L 347.741935483871,284.9136 L 353.548387096774,284.9136 L 353.548387096774,285 Z" style="fill:blue;stroke:black;stroke-width:0.5;" />
	<path d="M 353.548387096774,285 L 353.548387096774,284.92224 L 359.354838709677,284.92224 L 359.354838709677,285 Z" style="fill:blue;stroke:black;stroke-width:0.5;" />
	<line stroke="black" stroke-width="2" x1="356.451612903226" x2="356.451612903226" y1="285" y2="284" />
	<path d="M 359.354838709677,285 L 359.354838709677,284.92224 L 365.161290322581,284.92224 L 365.161290322581,285 Z" style="fill:blue;stroke:black;stroke-width:0.5;" />
	<path d="M 365.161290322581,285 L 365.161290322581,284.92224 L 370.967741935484,284.92224 L 370.967741935484,285 Z" style="fill:blue;stroke:black;stroke-width:0.5;" />
	<path d="M 370.967741935484,285 L 370.967741935484,284.92224 L 376.774193548387,284.92224 L 376.774193548387,285 Z" style="fill:blue;stroke:black;stroke-width:0.5;" />
	<path d="M 376.774193548387,285 L 376.774193548387,284.93088 L 382.58064516129,284.93088 L 382.58064516129,285 Z" style="fill:blue;stroke:black;stroke-width:0.5;" />
	<path d="M 382.58064516129,285 L 382.58064516129,284.94816 L 388.387096774194,284.94816 L 388.387096774194,285 Z" style="fill:blue;stroke:black;stroke-width:0.5;" />
	<text font-size="10" x="382.58064516129" y="297">60</text>
	<line stroke="black" stroke-width="2" x1="385.483870967742" x2="385.483870967742" y1="285" y2="283" />
	<line stroke="black" stroke-width="2" x1="385.483870967742" x2="385.483870967742" y1="285" y2="284" />
	<path d="M 388.387096774194,285 L 388.387096774194,284.94816 L 394.193548387097,284.94816 L 394.193548387097,285 Z" style="fill:blue;stroke:black;stroke-width:0.5;" />
	<path d="M 394.193548387097,285 L 394.193548387097,284.94816 L 400,284.94816 L 400,285 Z" style="fill:blue;stroke:black;stroke-width:0.5;" />
	<path d="M 400,285 L 400,284.94816 L 405.806451612903,284.94816 L 405.806451612903,285 Z" style="fill:blue;stroke:black;stroke-width:0.5;" />
	<path d="M 405.806451612903,285 L 405.806451612903,284.96544 L 411.612903225806,284.96544 L 411.612903225806,285 Z" style="fill:blue;stroke:black;stroke-width:0.5;" />
	<path d="M 411.612903225806,285 L 411.612903225806,284.9568 L 417.41935483871,284.9568 L 417.41935483871,285 Z" style="fill:blue;stroke:black;stroke-width:0.5;" />
	<line stroke="black" stroke-width="2" x1="414.516129032258" x2="414.516129032258" y1="285" y2="284" />
	<path d="M 417.41935483871,285 L 417.41935483871,284.85204 L 423.225806451613,284.85204 L 423.225806451613,285 Z" style="fill:blue;stroke:black;stroke-width:0.5;" />
	<path d="M 423.225806451613,285 L 423.225806451613,284.82612 L 429.032258064516,284.82612 L 429.032258064516,285 Z" style="fill:blue;stroke:black;stroke-width:0.5;" />
	<path d="M 429.032258064516,285 L 429.032258064516,284.73 L 434.838709677419,284.73 L 434.838709677419,285 Z" style="fill:blue;stroke:black;stroke-width:0.5;" />
	<path d="M 434.838709677419,285 L 434.838709677419,284.72136 L 440.645161290323,284.72136 L 440.645161290323,285 Z" style="fill:blue;stroke:black;stroke-width:0.5;" />
	<path d="M 440.645161290323,285 L 440.645161290323,284.72136 L 446.451612903226,284.72136 L 446.451612903226,285 Z" style="fill:blue;stroke:black;stroke-width:0.5;" />
	<text font-size="10" x="440.645161290323" y="297">70</text>
	<line stroke="black" stroke-width="2" x1="443.548387096774" x2="443.548387096774" y1="285" y2="283" />
	<line stroke="black" stroke-width="2" x1="443.548387096774" x2="443.548387096774" y1="285" y2="284" />
	<path d="M 446.451612903226,285 L 446.451612903226,284.72136 L 452.258064516129,284.72136 L 452.258064516129,285 Z" style="fill:blue;stroke:black;stroke-width:0.5;" />
	<path d="M 452.258064516129,285 L 452.258064516129,284.72136 L 458.064516129032,284.72136 L 458.064516129032,285 Z" style="fill:blue;stroke:black;stroke-width:0.5;" />
	<path d="M 458.064516129032,285 L 458.064516129032,284.73 L 463.870967741935,284.73 L 463.870967741935,285 Z" style="fill:blue;stroke:black;stroke-width:0.5;" />
	<path d="M 463.870967741935,285 L 463.870967741935,284.73 L 469.677419354839,284.73 L 469.677419354839,285 Z" style="fill:blue;stroke:black;stroke-width:0.5;" />
	<path d="M 469.677419354839,285 L 469.677419354839,284.73 L 475.483870967742,284.73 L 475.483870967742,285 Z" style="fill:blue;stroke:black;stroke-width:0.5;" />
	<line stroke="black" stroke-width="2" x1="472.58064516129" x2="472.58064516129" y1="285" y2="284" />
	<path d="M 475.483870967742,285 L 475.483870967742,284.73 L 481.290322580645,284.73 L 481.290322580645,285 Z" style="fill:blue;stroke:black;stroke-width:0.5;" />
	<path d="M 481.290322580645,285 L 481.290322580645,284.73 L 487.096774193548,284.73 L 487.096774193548,285 Z" style="fill:blue;stroke:black;stroke-width:0.5;" />
	<path d="M 487.096774193548,285 L 487.096774193548,284.73 L 492.903225806452,284.73 L 492.903225806452,285 Z" style="fill:blue;stroke:black;stroke-width:0.5;" />
	<path d="M 492.903225806452,285 L 492.903225806452,284.73 L 498.709677419355,284.73 L 498.709677419355,285 Z" style="fill:blue;stroke:black;stroke-width:0.5;" />
	<path d="M 498.709677419355,285 L 498.709677419355,284.73 L 504.516129032258,284.73 L 504.516129032258,285 Z" style="fill:blue;stroke:black;stroke-width:0.5;" />
	<text font-size="10" x="498.709677419355" y="297">80</text>
	<line stroke="black" stroke-width="2" x1="501.612903225806" x2="501.612903225806" y1="285" y2="283" />
	<line stroke="black" stroke-width="2" x1="501.612903225806" x2="501.612903225806" y1="285" y2="284" />
	<path d="M 504.516129032258,285 L 504.516129032258,283.65432 L 510.322580645161,283.65432 L 510.322580645161,285 Z" style="fill:blue;stroke:black;stroke-width:0.5;" />
	<path d="M 510.322580645161,285 L 510.322580645161,281.33718 L 516.129032258065,281.33718 L 516.129032258065,285 Z" style="fill:gold;stroke:black;stroke-width:0.5;" />
	<path d="M 516.129032258065,285 L 516.129032258065,281.2497 L 521.935483870968,281.2497 L 521.935483870968,285 Z" style="fill:gold;stroke:black;stroke-width:0.5;" />
	<path d="M 521.935483870968,285 L 521.935483870968,280.98726 L 527.741935483871,280.98726 L 527.741935483871,285 Z" style="fill:gold;stroke:black;stroke-width:0.5;" />
	<path d="M 527.741935483871,285 L 527.741935483871,280.98726 L 533.548387096774,280.98726 L 533.548387096774,285 Z" style="fill:gold;stroke:black;stroke-width:0.5;" />
	<line stroke="black" stroke-width="2" x1="530.645161290323" x2="530.645161290323" y1="285" y2="284" />
	<path d="M 533.548387096774,285 L 533.548387096774,280.97862 L 539.354838709677,280.97862 L 539.354838709677,285 Z" style="fill:gold;stroke:black;stroke-width:0.5;" />
	<path d="M 539.354838709677,285 L 539.354838709677,280.98726 L 545.161290322581,280.98726 L 545.161290322581,285 Z" style="fill:gold;stroke:black;stroke-width:0.5;" />
	<path d="M 545.161290322581,285 L 545.161290322581,280.98726 L 550.967741935484,280.98726 L 550.967741935484,285 Z" style="fill:gold;stroke:black;stroke-width:0.5;" />
	<path d="M 550.967741935484,285 L 550.967741935484,280.98726 L 556.774193548387,280.98726 L 556.774193548387,285 Z" style="fill:gold;stroke:black;stroke-width:0.5;" />
	<path d="M 556.774193548387,285 L 556.774193548387,280.98726 L 562.58064516129,280.98726 L 562.58064516129,285 Z" style="fill:gold;stroke:black;stroke-width:0.5;" />
	<text font-size="10" x="556.774193548387" y="297">90</text>
	<line stroke="black" stroke-width="2" x1="559.677419354839" x2="559.677419354839" y1="285" y2="283" />
	<line stroke="black" stroke-width="2" x1="559.677419354839" x2="559.677419354839" y1="285" y2="284" />
	<path d="M 562.58064516129,285 L 562.58064516129,280.98726 L 568.387096774194,280.98726 L 568.387096774194,285 Z" style="fill:gold;stroke:black;stroke-width:0.5;" />
	<path d="M 568.387096774194,285 L 568.387096774194,280.98726 L 574.193548387097,280.98726 L 574.193548387097,285 Z" style="fill:gold;stroke:black;stroke-width:0.5;" />
	<path d="M 574.193548387097,285 L 574.193548387097,280.98726 L 580,280.98726 L 580,285 Z" style="fill:gold;stroke:black;stroke-width:0.5;" />
	<path d="M 580,285 L 580,281.09202 L 585.806451612903,281.09202 L 585.806451612903,285 Z" style="fill:gold;stroke:black;stroke-width:0.5;" />
	<path d="M 585.806451612903,285 L 585.806451612903,281.23998 L 591.612903225806,281.23998 L 591.612903225806,285 Z" style="fill:gold;stroke:black;stroke-width:0.5;" />
	<line stroke="black" stroke-width="2" x1="588.709677419355" x2="588.709677419355" y1="285" y2="284" />
	<path d="M 591.612903225806,285 L 591.612903225806,281.24862 L 597.41935483871,281.24862 L 597.41935483871,285 Z" style="fill:gold;stroke:black;stroke-width:0.5;" />
	<path d="M 597.41935483871,285 L 597.41935483871,281.24862 L 603.225806451613,281.24862 L 603.225806451613,285 Z" style="fill:gold;stroke:black;stroke-width:0.5;" />
	<path d="M 603.225806451613,285 L 603.225806451613,281.24862 L 609.032258064516,281.24862 L 609.032258064516,285 Z" style="fill:gold;stroke:black;stroke-width:0.5;" />
	<path d="M 609.032258064516,285 L 609.032258064516,281.24862 L 614.838709677419,281.24862 L 614.838709677419,285 Z" style="fill:gold;stroke:black;stroke-width:0.5;" />
	<path d="M 614.838709677419,285 L 614.838709677419,281.24862 L 620.645161290323,281.24862 L 620.645161290323,285 Z" style="fill:gold;stroke:black;stroke-width:0.5;" />
	<text font-size="10" x="614.838709677419" y="297">100</text>
	<line stroke="black" stroke-width="2" x1="617.741935483871" x2="617.741935483871" y1="285" y2="283" />
	<line stroke="black" stroke-width="2" x1="617.741935483871" x2="617.741935483871" y1="285" y2="284" />
	<path d="M 620.645161290323,285 L 620.645161290323,281.25726 L 626.451612903226,281.25726 L 626.451612903226,285 Z" style="fill:gold;stroke:black;stroke-width:0.5;" />
	<path d="M 626.451612903226,285 L 626.451612903226,281.38848 L 632.258064516129,281.38848 L 632.258064516129,285 Z" style="fill:gold;stroke:black;stroke-width:0.5;" />
	<path d="M 632.258064516129,285 L 632.258064516129,284.73756 L 638.064516129032,284.73756 L 638.064516129032,285 Z" style="fill:blue;stroke:black;stroke-width:0.5;" />
	<path d="M 638.064516129032,285 L 638.064516129032,284.73756 L 643.870967741935,284.73756 L 643.870967741935,285 Z" style="fill:blue;stroke:black;stroke-width:0.5;" />
	<path d="M 643.870967741935,285 L 643.870967741935,285 L 649.677419354839,285 L 649.677419354839,285 Z" style="fill:blue;stroke:black;stroke-width:0.5;" />
	<line stroke="black" stroke-width="2" x1="646.774193548387" x2="646.774193548387" y1="285" y2="284" />
	<path d="M 649.677419354839,285 L 649.677419354839,285 L 655.483870967742,285 L 655.483870967742,285 Z" style="fill:blue;stroke:black;stroke-width:0.5;" />
	<path d="M 655.483870967742,285 L 655.483870967742,285 L 661.290322580645,285 L 661.290322580645,285 Z" style="fill:blue;stroke:black;stroke-width:0.5;" />
	<path d="M 661.290322580645,285 L 661.290322580645,285 L 667.096774193548,285 L 667.096774193548,285 Z" style="fill:blue;stroke:black;stroke-width:0.5;" />
	<path d="M 667.096774193548,285 L 667.096774193548,285 L 672.903225806452,285 L 672.903225806452,285 Z" style="fill:blue;stroke:black;stroke-width:0.5;" />
	<path d="M 672.903225806452,285 L 672.903225806452,285 L 678.709677419355,285 L 678.709677419355,285 Z" style="fill:blue;stroke:black;stroke-width:0.5;" />
	<text font-size="10" x="672.903225806452" y="297">110</text>
	<line stroke="black" stroke-width="2" x1="675.806451612903" x2="675.806451612903" y1="285" y2="283" />
	<line stroke="black" stroke-width="2" x1="675.806451612903" x2="675.806451612903" y1="285" y2="284" />
	<path d="M 678.709677419355,285 L 678.709677419355,285 L 684.516129032258,285 L 684.516129032258,285 Z" style="fill:blue;stroke:black;stroke-width:0.5;" />
	<path d="M 684.516129032258,285 L 684.516129032258,285 L 690.322580645161,285 L 690.322580645161,285 Z" style="fill:blue;stroke:black;stroke-width:0.5;" />
	<path d="M 690.322580645161,285 L 690.322580645161,285 L 696.129032258065,285 L 696.129032258065,285 Z" style="fill:blue;stroke:black;stroke-width:0.5;" />
	<path d="M 696.129032258065,285 L 696.129032258065,285 L 701.935483870968,285 L 701.935483870968,285 Z" style="fill:blue;stroke:black;stroke-width:0.5;" />
	<path d="M 701.935483870968,285 L 701.935483870968,285 L 707.741935483871,285 L 707.741935483871,285 Z" style="fill:blue;stroke:black;stroke-width:0.5;" />
	<line stroke="black" stroke-width="2" x1="704.838709677419" x2="704.838709677419" y1="285" y2="284" />
	<path d="M 707.741935483871,285 L 707.741935483871,285 L 713.548387096774,285 L 713.548387096774,285 Z" style="fill:blue;stroke:black;stroke-width:0.5;" />
	<path d="M 713.548387096774,285 L 713.548387096774,285 L 719.354838709677,285 L 719.354838709677,285 Z" style="fill:blue;stroke:black;stroke-width:0.5;" />
	<path d="M 719.354838709677,285 L 719.354838709677,285 L 725.161290322581,285 L 725.161290322581,285 Z" style="fill:blue;stroke:black;stroke-width:0.5;" />
	<path d="M 725.161290322581,285 L 725.161290322581,285 L 730.967741935484,285 L 730.967741935484,285 Z" style="fill:blue;stroke:black;stroke-width:0.5;" />
	<path d="M 730.967741935484,285 L 730.967741935484,285 L 736.774193548387,285 L 736.774193548387,285 Z" style="fill:blue;stroke:black;stroke-width:0.5;" />
	<text font-size="10" x="730.967741935484" y="297">120</text>
	<line stroke="black" stroke-width="2" x1="733.870967741935" x2="733.870967741935" y1="285" y2="283" />
	<line stroke="black" stroke-width="2" x1="733.870967741935" x2="733.870967741935" y1="285" y2="284" />
	<path d="M 736.774193548387,285 L 736.774193548387,285 L 742.58064516129,285 L 742.58064516129,285 Z" style="fill:blue;stroke:black;stroke-width:0.5;" />
	<path d="M 742.58064516129,285 L 742.58064516129,285 L 748.387096774194,285 L 748.387096774194,285 Z" style="fill:blue;stroke:black;stroke-width:0.5;" />
	<path d="M 748.387096774194,285 L 748.387096774194,285 L 754.193548387097,285 L 754.193548387097,285 Z" style="fill:blue;stroke:black;stroke-width:0.5;" />
	<path d="M 754.193548387097,285 L 754.193548387097,285 L 760,285 L 760,285 Z" style="fill:blue;stroke:black;stroke-width:0.5;" />
	<!-- 
	Generated using the Perl SVG Module V2.50
	by Ronan Oger
	Info: http://www.roitsystems.com/
 -->
</svg>