<?xml version="1.0" encoding="UTF-8" standalone="yes"?>
<!DOCTYPE svg PUBLIC "-//W3C//DTD SVG 1.0//EN" "http://www.w3.org/TR/2001/REC-SVG-20010904/DTD/svg10.dtd">
<svg height="300" width="800" xmlns="http://www.w3.org/2000/svg" xmlns:svg="http://www.w3.org/2000/svg" xmlns:xlink="http://www.w3.org/1999/xlink">
	<line stroke="black" stroke-width="2" x1="40" x2="40" y1="15" y2="285" />
	<line stroke="black" stroke-width="2" x1="40" x2="45.5384615384615" y1="231" y2="231" />
	<text font-size="12" x="48.3076923076923" y="231">100</text>
	<line stroke="black" stroke-width="2" x1="40" x2="45.5384615384615" y1="177" y2="177" />
	<text font-size="12" x="48.3076923076923" y="177">200</text>
	<line stroke="black" stroke-width="2" x1="40" x2="45.5384615384615" y1="123" y2="123" />
	<text font-size="12" x="48.3076923076923" y="123">300</text>
	<line stroke="black" stroke-width="2" x1="40" x2="45.5384615384615" y1="69" y2="69" />
	<text font-size="12" x="48.3076923076923" y="69">400</text>
	<line stroke="black" stroke-width="2" x1="40" x2="45.5384615384615" y1="15" y2="15" />
	<text font-size="12" x="48.3076923076923" y="15">500</text>
	<line stroke="black" stroke-width="2" x1="40" x2="800" y1="285" y2="285" />
	<path d="M 40,285 L 40,285 L 45.5384615384615,285 L 45.5384615384615,285 Z" style="fill:blue;stroke:black;stroke-width:0.5;" />
	<path d="M 45.5384615384615,285 L 45.5384615384615,285 L 51.0769230769231,285 L 51.0769230769231,285 Z" style="fill:blue;stroke:black;stroke-width:0.5;" />
	<path d="M 51.0769230769231,285 L 51.0769230769231,285 L 56.6153846153846,285 L 56.6153846153846,285 Z" style="fill:blue;stroke:black;stroke-width:0.5;" />
	<path d="M 56.6153846153846,285 L 56.6153846153846,285 L 62.1538461538462,285 L 62.1538461538462,285 Z" style="fill:blue;stroke:black;stroke-width:0.5;" />
	<path d="M 62.1538461538462,285 L 62.1538461538462,285 L 67.6923076923077,285 L 67.6923076923077,285 Z" style="fill:blue;stroke:black;stroke-width:0.5;" />
	<line stroke="black" stroke-width="2" x1="64.9230769230769" x2="64.9230769230769" y1="285" y2="284" />
	<path d="M 67.6923076923077,285 L 67.6923076923077,285 L 73.2307692307692,285 L 73.2307692307692,285 Z" style="fill:blue;stroke:black;stroke-width:0.5;" />
	<path d="M 73.2307692307692,285 L 73.2307692307692,285 L 78.7692307692308,285 L 78.7692307692308,285 Z" style="fill:blue;stroke:black;stroke-width:0.5;" />
	<path d="M 78.7692307692308,285 L 78.7692307692308,285 L 84.3076923076923,285 L 84.3076923076923,285 Z" style="fill:blue;stroke:black;stroke-width:0.5;" />
	<path d="M 84.3076923076923,285 L 84.3076923076923,285 L 89.8461538461538,285 L 89.8461538461538,285 Z" style="fill:blue;stroke:black;stroke-width:0.5;" />
	<path d="M 89.8461538461538,285 L 89.8461538461538,285 L 95.3846153846154,285 L 95.3846153846154,285 Z" style="fill:blue;stroke:black;stroke-width:0.5;" />
	<text font-size="10" x="89.8461538461538" y="297">10</text>
	<line stroke="black" stroke-width="2" x1="92.6153846153846" x2="92.6153846153846" y1="285" y2="283" />
	<line stroke="black" stroke-width="2" x1="92.6153846153846" x2="92.6153846153846" y1="285" y2="284" />
	<path d="M 95.3846153846154,285 L 95.3846153846154,285 L 100.923076923077,285 L 100.923076923077,285 Z" style="fill:blue;stroke:black;stroke-width:0.5;" />
	<path d="M 100.923076923077,285 L 100.923076923077,285 L 106.461538461538,285 L 106.461538461538,285 Z" style="fill:blue;stroke:black;stroke-width:0.5;" />
	<path d="M 106.461538461538,285 L 106.461538461538,285 L 112,285 L 112,285 Z" style="fill:blue;stroke:black;stroke-width:0.5;" />
	<path d="M 112,285 L 112,285 L 117.538461538462,285 L 117.538461538462,285 Z" style="fill:blue;stroke:black;stroke-width:0.5;" />
	<path d="M 117.538461538462,285 L 117.538461538462,285 L 123.076923076923,285 L 123.076923076923,285 Z" style="fill:blue;stroke:black;stroke-width:0.5;" />
	<line stroke="black" stroke-width="2" x1="120.307692307692" x2="120.307692307692" y1="285" y2="284" />
	<path d="M 123.076923076923,285 L 123.076923076923,285 L 128.615384615385,285 L 128.615384615385,285 Z" style="fill:blue;stroke:black;stroke-width:0.5;" />
	<path d="M 128.615384615385,285 L 128.615384615385,285 L 134.153846153846,285 L 134.153846153846,285 Z" style="fill:blue;stroke:black;stroke-width:0.5;" />
	<path d="M 134.153846153846,285 L 134.153846153846,285 L 139.692307692308,285 L 139.692307692308,285 Z" style="fill:blue;stroke:black;stroke-width:0.5;" />
	<path d="M 139.692307692308,285 L 139.692307692308,285 L 145.230769230769,285 L 145.230769230769,285 Z" style="fill:blue;stroke:black;stroke-width:0.5;" />
	<path d="M 145.230769230769,285 L 145.230769230769,285 L 150.769230769231,285 L 150.769230769231,285 Z" style="fill:blue;stroke:black;stroke-width:0.5;" />
	<text font-size="10" x="145.230769230769" y="297">20</text>
	<line stroke="black" stroke-width="2" x1="148" x2="148" y1="285" y2="283" />
	<line stroke="black" stroke-width="2" x1="148" x2="148" y1="285" y2="284" />
	<path d="M 150.769230769231,285 L 150.769230769231,285 L 156.307692307692,285 L 156.307692307692,285 Z" style="fill:blue;stroke:black;stroke-width:0.5;" />
	<path d="M 156.307692307692,285 L 156.307692307692,285 L 161.846153846154,285 L 161.846153846154,285 Z" style="fill:blue;stroke:black;stroke-width:0.5;" />
	<path d="M 161.846153846154,285 L 161.846153846154,284.8596 L 167.384615384615,284.8596 L 167.384615384615,285 Z" style="fill:blue;stroke:black;stroke-width:0.5;" />
	<path d="M 167.384615384615,285 L 167.384615384615,146.8788 L 172.923076923077,146.8788 L 172.923076923077,285 Z" style="fill:gold;stroke:black;stroke-width:0.5;" />
	<path d="M 172.923076923077,285 L 172.923076923077,146.2794 L 178.461538461538,146.2794 L 178.461538461538,285 Z" style="fill:gold;stroke:black;stroke-width:0.5;" />
	<line stroke="black" stroke-width="2" x1="175.692307692308" x2="175.692307692308" y1="285" y2="284" />
	<path d="M 178.461538461538,285 L 178.461538461538,146.22 L 184,146.22 L 184,285 Z" style="fill:gold;stroke:black;stroke-width:0.5;" />
	<path d="M 184,285 L 184,146.1066 L 189.538461538462,146.1066 L 189.538461538462,285 Z" style="fill:gold;stroke:black;stroke-width:0.5;" />
	<path d="M 189.538461538462,285 L 189.538461538462,146.1066 L 195.076923076923,146.1066 L 195.076923076923,285 Z" style="fill:gold;stroke:black;stroke-width:0.5;" />
	<path d="M 195.076923076923,285 L 195.076923076923,146.0472 L 200.615384615385,146.0472 L 200.615384615385,285 Z" style="fill:gold;stroke:black;stroke-width:0.5;" />
	<path d="M 200.615384615385,285 L 200.615384615385,146.0472 L 206.153846153846,146.0472 L 206.153846153846,285 Z" style="fill:gold;stroke:black;stroke-width:0.5;" />
	<text font-size="10" x="200.615384615385" y="297">30</text>
	<line stroke="black" stroke-width="2" x1="203.384615384615" x2="203.384615384615" y1="285" y2="283" />
	<line stroke="black" stroke-width="2" x1="203.384615384615" x2="203.384615384615" y1="285" y2="284" />
	<path d="M 206.153846153846,285 L 206.153846153846,146.0472 L 211.692307692308,146.0472 L 211.692307692308,285 Z" style="fill:gold;stroke:black;stroke-width:0.5;" />
	<path d="M 211.692307692308,285 L 211.692307692308,146.0472 L 217.230769230769,146.0472 L 217.230769230769,285 Z" style="fill:gold;stroke:black;stroke-width:0.5;" />
	<path d="M 217.230769230769,285 L 217.230769230769,146.0472 L 222.769230769231,146.0472 L 222.769230769231,285 Z" style="fill:gold;stroke:black;stroke-width:0.5;" />
	<path d="M 222.769230769231,285 L 222.769230769231,146.0472 L 228.307692307692,146.0472 L 228.307692307692,285 Z" style="fill:gold;stroke:black;stroke-width:0.5;" />
	<path d="M 228.307692307692,285 L 228.307692307692,146.0472 L 233.846153846154,146.0472 L 233.846153846154,285 Z" style="fill:gold;stroke:black;stroke-width:0.5;" />
	<line stroke="black" stroke-width="2" x1="231.076923076923" x2="231.076923076923" y1="285" y2="284" />
	<path d="M 233.846153846154,285 L 233.846153846154,146.0472 L 239.384615384615,146.0472 L 239.384615384615,285 Z" style="fill:gold;stroke:black;stroke-width:0.5;" />
	<path d="M 239.384615384615,285 L 239.384615384615,146.0472 L 244.923076923077,146.0472 L 244.923076923077,285 Z" style="fill:gold;stroke:black;stroke-width:0.5;" />
	<path d="M 244.923076923077,285 L 244.923076923077,146.0472 L 250.461538461538,146.0472 L 250.461538461538,285 Z" style="fill:gold;stroke:black;stroke-width:0.5;" />
	<path d="M 250.461538461538,285 L 250.461538461538,146.1066 L 256,146.1066 L 256,285 Z" style="fill:gold;stroke:black;stroke-width:0.5;" />
	<path d="M 256,285 L 256,146.4522 L 261.538461538462,146.4522 L 261.538461538462,285 Z" style="fill:gold;stroke:black;stroke-width:0.5;" />
	<text font-size="10" x="256" y="297">40</text>
	<line stroke="black" stroke-width="2" x1="258.769230769231" x2="258.769230769231" y1="285" y2="283" />
	<line stroke="black" stroke-width="2" x1="258.769230769231" x2="258.769230769231" y1="285" y2="284" />
	<path d="M 261.538461538462,285 L 261.538461538462,146.4522 L 267.076923076923,146.4522 L 267.076923076923,285 Z" style="fill:gold;stroke:black;stroke-width:0.5;" />
	<path d="M 267.076923076923,285 L 267.076923076923,146.7384 L 272.615384615385,146.7384 L 272.615384615385,285 Z" style="fill:gold;stroke:black;stroke-width:0.5;" />
	<path d="M 272.615384615385,285 L 272.615384615385,147.2298 L 278.153846153846,147.2298 L 278.153846153846,285 Z" style="fill:gold;stroke:black;stroke-width:0.5;" />
	<path d="M 278.153846153846,285 L 278.153846153846,284.2332 L 283.692307692308,284.2332 L 283.692307692308,285 Z" style="fill:blue;stroke:black;stroke-width:0.5;" />
	<path d="M 283.692307692308,285 L 283.692307692308,284.919 L 289.230769230769,284.919 L 289.230769230769,285 Z" style="fill:blue;stroke:black;stroke-width:0.5;" />
	<line stroke="black" stroke-width="2" x1="286.461538461538" x2="286.461538461538" y1="285" y2="284" />
	<path d="M 289.230769230769,285 L 289.230769230769,284.919 L 294.769230769231,284.919 L 294.769230769231,285 Z" style="fill:blue;stroke:black;stroke-width:0.5;" />
	<path d="M 294.769230769231,285 L 294.769230769231,284.919 L 300.307692307692,284.919 L 300.307692307692,285 Z" style="fill:blue;stroke:black;stroke-width:0.5;" />
	<path d="M 300.307692307692,285 L 300.307692307692,284.919 L 305.846153846154,284.919 L 305.846153846154,285 Z" style="fill:blue;stroke:black;stroke-width:0.5;" />
	<path d="M 305.846153846154,285 L 305.846153846154,284.919 L 311.384615384615,284.919 L 311.384615384615,285 Z" style="fill:blue;stroke:black;stroke-width:0.5;" />
	<path d="M 311.384615384615,285 L 311.384615384615,284.919 L 316.923076923077,284.919 L 316.923076923077,285 Z" style="fill:blue;stroke:black;stroke-width:0.5;" />
	<text font-size="10" x="311.384615384615" y="297">50</text>
	<line stroke="black" stroke-width="2" x1="314.153846153846" x2="314.153846153846" y1="285" y2="283" />
	<line stroke="black" stroke-width="2" x1="314.153846153846" x2="314.153846153846" y1="285" y2="284" />
	<path d="M 316.923076923077,285 L 316.923076923077,284.919 L 322.461538461538,284.919 L 322.461538461538,285 Z" style="fill:blue;stroke:black;stroke-width:0.5;" />
	<path d="M 322.461538461538,285 L 322.461538461538,284.919 L 328,284.919 L 328,285 Z" style="fill:blue;stroke:black;stroke-width:0.5;" />
	<path d="M 328,285 L 328,284.919 L 333.538461538462,284.919 L 333.538461538462,285 Z" style="fill:blue;stroke:black;stroke-width:0.5;" />
	<path d="M 333.538461538462,285 L 333.538461538462,284.919 L 339.076923076923,284.919 L 339.076923076923,285 Z" style="fill:blue;stroke:black;stroke-width:0.5;" />
	<path d="M 339.076923076923,285 L 339.076923076923,284.919 L 344.615384615385,284.919 L 344.615384615385,285 Z" style="fill:blue;stroke:black;stroke-width:0.5;" />
	<line stroke="black" stroke-width="2" x1="341.846153846154" x2="341.846153846154" y1="285" y2="284" />
	<path d="M 344.615384615385,285 L 344.615384615385,284.919 L 350.153846153846,284.919 L 350.153846153846,285 Z" style="fill:blue;stroke:black;stroke-width:0.5;" />
	<path d="M 350.153846153846,285 L 350.153846153846,284.919 L 355.692307692308,284.919 L 355.692307692308,285 Z" style="fill:blue;stroke:black;stroke-width:0.5;" />
	<path d="M 355.692307692308,285 L 355.692307692308,284.919 L 361.230769230769,284.919 L 361.230769230769,285 Z" style="fill:blue;stroke:black;stroke-width:0.5;" />
	<path d="M 361.230769230769,285 L 361.230769230769,284.919 L 366.769230769231,284.919 L 366.769230769231,285 Z" style="fill:blue;stroke:black;stroke-width:0.5;" />
	<path d="M 366.769230769231,285 L 366.769230769231,284.919 L 372.307692307692,284.919 L 372.307692307692,285 Z" style="fill:blue;stroke:black;stroke-width:0.5;" />
	<text font-size="10" x="366.769230769231" y="297">60</text>
	<line stroke="black" stroke-width="2" x1="369.538461538462" x2="369.538461538462" y1="285" y2="283" />
	<line stroke="black" stroke-width="2" x1="369.538461538462" x2="369.538461538462" y1="285" y2="284" />
	<path d="M 372.307692307692,285 L 372.307692307692,284.919 L 377.846153846154,284.919 L 377.846153846154,285 Z" style="fill:blue;stroke:black;stroke-width:0.5;" />
	<path d="M 377.846153846154,285 L 377.846153846154,284.919 L 383.384615384615,284.919 L 383.384615384615,285 Z" style="fill:blue;stroke:black;stroke-width:0.5;" />
	<path d="M 383.384615384615,285 L 383.384615384615,284.919 L 388.923076923077,284.919 L 388.923076923077,285 Z" style="fill:blue;stroke:black;stroke-width:0.5;" />
	<path d="M 388.923076923077,285 L 388.923076923077,284.919 L 394.461538461538,284.919 L 394.461538461538,285 Z" style="fill:blue;stroke:black;stroke-width:0.5;" />
	<path d="M 394.461538461538,285 L 394.461538461538,284.919 L 400,284.919 L 400,285 Z" style="fill:blue;stroke:black;stroke-width:0.5;" />
	<line stroke="black" stroke-width="2" x1="397.230769230769" x2="397.230769230769" y1="285" y2="284" />
	<path d="M 400,285 L 400,284.919 L 405.538461538462,284.919 L 405.538461538462,285 Z" style="fill:blue;stroke:black;stroke-width:0.5;" />
	<path d="M 405.538461538462,285 L 405.538461538462,284.919 L 411.076923076923,284.919 L 411.076923076923,285 Z" style="fill:blue;stroke:black;stroke-width:0.5;" />
	<path d="M 411.076923076923,285 L 411.076923076923,284.919 L 416.615384615385,284.919 L 416.615384615385,285 Z" style="fill:blue;stroke:black;stroke-width:0.5;" />
	<path d="M 416.615384615385,285 L 416.615384615385,285 L 422.153846153846,285 L 422.153846153846,285 Z" style="fill:blue;stroke:black;stroke-width:0.5;" />
	<path d="M 422.153846153846,285 L 422.153846153846,285 L 427.692307692308,285 L 427.692307692308,285 Z" style="fill:blue;stroke:black;stroke-width:0.5;" />
	<text font-size="10" x="422.153846153846" y="297">70</text>
	<line stroke="black" stroke-width="2" x1="424.923076923077" x2="424.923076923077" y1="285" y2="283" />
	<line stroke="black" stroke-width="2" x1="424.923076923077" x2="424.923076923077" y1="285" y2="284" />
	<path d="M 427.692307692308,285 L 427.692307692308,285 L 433.230769230769,285 L 433.230769230769,285 Z" style="fill:blue;stroke:black;stroke-width:0.5;" />
	<path d="M 433.230769230769,285 L 433.230769230769,285 L 438.769230769231,285 L 438.769230769231,285 Z" style="fill:blue;stroke:black;stroke-width:0.5;" />
	<path d="M 438.769230769231,285 L 438.769230769231,285 L 444.307692307692,285 L 444.307692307692,285 Z" style="fill:blue;stroke:black;stroke-width:0.5;" />
	<path d="M 444.307692307692,285 L 444.307692307692,285 L 449.846153846154,285 L 449.846153846154,285 Z" style="fill:blue;stroke:black;stroke-width:0.5;" />
	<path d="M 449.846153846154,285 L 449.846153846154,285 L 455.384615384615,285 L 455.384615384615,285 Z" style="fill:blue;stroke:black;stroke-width:0.5;" />
	<line stroke="black" stroke-width="2" x1="452.615384615385" x2="452.615384615385" y1="285" y2="284" />
	<path d="M 455.384615384615,285 L 455.384615384615,285 L 460.923076923077,285 L 460.923076923077,285 Z" style="fill:blue;stroke:black;stroke-width:0.5;" />
	<path d="M 460.923076923077,285 L 460.923076923077,285 L 466.461538461538,285 L 466.461538461538,285 Z" style="fill:blue;stroke:black;stroke-width:0.5;" />
	<path d="M 466.461538461538,285 L 466.461538461538,285 L 472,285 L 472,285 Z" style="fill:blue;stroke:black;stroke-width:0.5;" />
	<path d="M 472,285 L 472,285 L 477.538461538462,285 L 477.538461538462,285 Z" style="fill:blue;stroke:black;stroke-width:0.5;" />
	<path d="M 477.538461538462,285 L 477.538461538462,285 L 483.076923076923,285 L 483.076923076923,285 Z" style="fill:blue;stroke:black;stroke-width:0.5;" />
	<text font-size="10" x="477.538461538462" y="297">80</text>
	<line stroke="black" stroke-width="2" x1="480.307692307692" x2="480.307692307692" y1="285" y2="283" />
	<line stroke="black" stroke-width="2" x1="480.307692307692" x2="480.307692307692" y1="285" y2="284" />
	<path d="M 483.076923076923,285 L 483.076923076923,285 L 488.615384615385,285 L 488.615384615385,285 Z" style="fill:blue;stroke:black;stroke-width:0.5;" />
	<path d="M 488.615384615385,285 L 488.615384615385,285 L 494.153846153846,285 L 494.153846153846,285 Z" style="fill:blue;stroke:black;stroke-width:0.5;" />
	<path d="M 494.153846153846,285 L 494.153846153846,285 L 499.692307692308,285 L 499.692307692308,285 Z" style="fill:blue;stroke:black;stroke-width:0.5;" />
	<path d="M 499.692307692308,285 L 499.692307692308,285 L 505.230769230769,285 L 505.230769230769,285 Z" style="fill:blue;stroke:black;stroke-width:0.5;" />
	<path d="M 505.230769230769,285 L 505.230769230769,285 L 510.769230769231,285 L 510.769230769231,285 Z" style="fill:blue;stroke:black;stroke-width:0.5;" />
	<line stroke="black" stroke-width="2" x1="508" x2="508" y1="285" y2="284" />
	<path d="M 510.769230769231,285 L 510.769230769231,285 L 516.307692307692,285 L 516.307692307692,285 Z" style="fill:blue;stroke:black;stroke-width:0.5;" />
	<path d="M 516.307692307692,285 L 516.307692307692,282.9858 L 521.846153846154,282.9858 L 521.846153846154,285 Z" style="fill:gold;stroke:black;stroke-width:0.5;" />
	<path d="M 521.846153846154,285 L 521.846153846154,282.9858 L 527.384615384615,282.9858 L 527.384615384615,285 Z" style="fill:gold;stroke:black;stroke-width:0.5;" />
	<path d="M 527.384615384615,285 L 527.384615384615,282.9858 L 532.923076923077,282.9858 L 532.923076923077,285 Z" style="fill:gold;stroke:black;stroke-width:0.5;" />
	<path d="M 532.923076923077,285 L 532.923076923077,282.9858 L 538.461538461538,282.9858 L 538.461538461538,285 Z" style="fill:gold;stroke:black;stroke-width:0.5;" />
	<text font-size="10" x="532.923076923077" y="297">90</text>
	<line stroke="black" stroke-width="2" x1="535.692307692308" x2="535.692307692308" y1="285" y2="283" />
	<line stroke="black" stroke-width="2" x1="535.692307692308" x2="535.692307692308" y1="285" y2="284" />
	<path d="M 538.461538461538,285 L 538.461538461538,282.9858 L 544,282.9858 L 544,285 Z" style="fill:gold;stroke:black;stroke-width:0.5;" />
	<path d="M 544,285 L 544,282.9858 L 549.538461538462,282.9858 L 549.538461538462,285 Z" style="fill:gold;stroke:black;stroke-width:0.5;" />
	<path d="M 549.538461538462,285 L 549.538461538462,282.9858 L 555.076923076923,282.9858 L 555.076923076923,285 Z" style="fill:gold;stroke:black;stroke-width:0.5;" />
	<path d="M 555.076923076923,285 L 555.076923076923,282.9858 L 560.615384615385,282.9858 L 560.615384615385,285 Z" style="fill:gold;stroke:black;stroke-width:0.5;" />
	<path d="M 560.615384615385,285 L 560.615384615385,282.9858 L 566.153846153846,282.9858 L 566.153846153846,285 Z" style="fill:gold;stroke:black;stroke-width:0.5;" />
	<line stroke="black" stroke-width="2" x1="563.384615384615" x2="563.384615384615" y1="285" y2="284" />
	<path d="M 566.153846153846,285 L 566.153846153846,282.9858 L 571.692307692308,282.9858 L 571.692307692308,285 Z" style="fill:gold;stroke:black;stroke-width:0.5;" />
	<path d="M 571.692307692308,285 L 571.692307692308,282.9858 L 577.230769230769,282.9858 L 577.230769230769,285 Z" style="fill:gold;stroke:black;stroke-width:0.5;" />
	<path d="M 577.230769230769,285 L 577.230769230769,282.9858 L 582.769230769231,282.9858 L 582.769230769231,285 Z" style="fill:gold;stroke:black;stroke-width:0.5;" />
	<path d="M 582.769230769231,285 L 582.769230769231,282.9858 L 588.307692307692,282.9858 L 588.307692307692,285 Z" style="fill:gold;stroke:black;stroke-width:0.5;" />
	<path d="M 588.307692307692,285 L 588.307692307692,282.9858 L 593.846153846154,282.9858 L 593.846153846154,285 Z" style="fill:gold;stroke:black;stroke-width:0.5;" />
	<text font-size="10" x="588.307692307692" y="297">100</text>
	<line stroke="black" stroke-width="2" x1="591.076923076923" x2="591.076923076923" y1="285" y2="283" />
	<line stroke="black" stroke-width="2" x1="591.076923076923" x2="591.076923076923" y1="285" y2="284" />
	<path d="M 593.846153846154,285 L 593.846153846154,282.9858 L 599.384615384615,282.9858 L 599.384615384615,285 Z" style="fill:gold;stroke:black;stroke-width:0.5;" />
	<path d="M 599.384615384615,285 L 599.384615384615,282.9858 L 604.923076923077,282.9858 L 604.923076923077,285 Z" style="fill:gold;stroke:black;stroke-width:0.5;" />
	<path d="M 604.923076923077,285 L 604.923076923077,282.9858 L 610.461538461538,282.9858 L 610.461538461538,285 Z" style="fill:gold;stroke:black;stroke-width:0.5;" />
	<path d="M 610.461538461538,285 L 610.461538461538,282.9858 L 616,282.9858 L 616,285 Z" style="fill:gold;stroke:black;stroke-width:0.5;" />
	<path d="M 616,285 L 616,282.9858 L 621.538461538462,282.9858 L 621.538461538462,285 Z" style="fill:gold;stroke:black;stroke-width:0.5;" />
	<line stroke="black" stroke-width="2" x1="618.769230769231" x2="618.769230769231" y1="285" y2="284" />
	<path d="M 621.538461538462,285 L 621.538461538462,282.9858 L 627.076923076923,282.9858 L 627.076923076923,285 Z" style="fill:gold;stroke:black;stroke-width:0.5;" />
	<path d="M 627.076923076923,285 L 627.076923076923,282.9858 L 632.615384615385,282.9858 L 632.615384615385,285 Z" style="fill:gold;stroke:black;stroke-width:0.5;" />
	<path d="M 632.615384615385,285 L 632.615384615385,282.9858 L 638.153846153846,282.9858 L 638.153846153846,285 Z" style="fill:gold;stroke:black;stroke-width:0.5;" />
	<path d="M 638.153846153846,285 L 638.153846153846,285 L 643.692307692308,285 L 643.692307692308,285 Z" style="fill:blue;stroke:black;stroke-width:0.5;" />
	<path d="M 643.692307692308,285 L 643.692307692308,285 L 649.230769230769,285 L 649.230769230769,285 Z" style="fill:blue;stroke:black;stroke-width:0.5;" />
	<text font-size="10" x="643.692307692308" y="297">110</text>
	<line stroke="black" stroke-width="2" x1="646.461538461538" x2="646.461538461538" y1="285" y2="283" />
	<line stroke="black" stroke-width="2" x1="646.461538461538" x2="646.461538461538" y1="285" y2="284" />
	<path d="M 649.230769230769,285 L 649.230769230769,285 L 654.769230769231,285 L 654.769230769231,285 Z" style="fill:blue;stroke:black;stroke-width:0.5;" />
	<path d="M 654.769230769231,285 L 654.769230769231,285 L 660.307692307692,285 L 660.307692307692,285 Z" style="fill:blue;stroke:black;stroke-width:0.5;" />
	<path d="M 660.307692307692,285 L 660.307692307692,285 L 665.846153846154,285 L 665.846153846154,285 Z" style="fill:blue;stroke:black;stroke-width:0.5;" />
	<path d="M 665.846153846154,285 L 665.846153846154,285 L 671.384615384615,285 L 671.384615384615,285 Z" style="fill:blue;stroke:black;stroke-width:0.5;" />
	<path d="M 671.384615384615,285 L 671.384615384615,285 L 676.923076923077,285 L 676.923076923077,285 Z" style="fill:blue;stroke:black;stroke-width:0.5;" />
	<line stroke="black" stroke-width="2" x1="674.153846153846" x2="674.153846153846" y1="285" y2="284" />
	<path d="M 676.923076923077,285 L 676.923076923077,285 L 682.461538461538,285 L 682.461538461538,285 Z" style="fill:blue;stroke:black;stroke-width:0.5;" />
	<path d="M 682.461538461538,285 L 682.461538461538,285 L 688,285 L 688,285 Z" style="fill:blue;stroke:black;stroke-width:0.5;" />
	<path d="M 688,285 L 688,285 L 693.538461538462,285 L 693.538461538462,285 Z" style="fill:blue;stroke:black;stroke-width:0.5;" />
	<path d="M 693.538461538462,285 L 693.538461538462,285 L 699.076923076923,285 L 699.076923076923,285 Z" style="fill:blue;stroke:black;stroke-width:0.5;" />
	<path d="M 699.076923076923,285 L 699.076923076923,285 L 704.615384615385,285 L 704.615384615385,285 Z" style="fill:blue;stroke:black;stroke-width:0.5;" />
	<text font-size="10" x="699.076923076923" y="297">120</text>
	<line stroke="black" stroke-width="2" x1="701.846153846154" x2="701.846153846154" y1="285" y2="283" />
	<line stroke="black" stroke-width="2" x1="701.846153846154" x2="701.846153846154" y1="285" y2="284" />
	<path d="M 704.615384615385,285 L 704.615384615385,285 L 710.153846153846,285 L 710.153846153846,285 Z" style="fill:blue;stroke:black;stroke-width:0.5;" />
	<path d="M 710.153846153846,285 L 710.153846153846,285 L 715.692307692308,285 L 715.692307692308,285 Z" style="fill:blue;stroke:black;stroke-width:0.5;" />
	<path d="M 715.692307692308,285 L 715.692307692308,285 L 721.230769230769,285 L 721.230769230769,285 Z" style="fill:blue;stroke:black;stroke-width:0.5;" />
	<path d="M 721.230769230769,285 L 721.230769230769,285 L 726.769230769231,285 L 726.769230769231,285 Z" style="fill:blue;stroke:black;stroke-width:0.5;" />
	<path d="M 726.769230769231,285 L 726.769230769231,285 L 732.307692307692,285 L 732.307692307692,285 Z" style="fill:blue;stroke:black;stroke-width:0.5;" />
	<line stroke="black" stroke-width="2" x1="729.538461538461" x2="729.538461538461" y1="285" y2="284" />
	<path d="M 732.307692307692,285 L 732.307692307692,285 L 737.846153846154,285 L 737.846153846154,285 Z" style="fill:blue;stroke:black;stroke-width:0.5;" />
	<path d="M 737.846153846154,285 L 737.846153846154,285 L 743.384615384615,285 L 743.384615384615,285 Z" style="fill:blue;stroke:black;stroke-width:0.5;" />
	<path d="M 743.384615384615,285 L 743.384615384615,285 L 748.923076923077,285 L 748.923076923077,285 Z" style="fill:blue;stroke:black;stroke-width:0.5;" />
	<path d="M 748.923076923077,285 L 748.923076923077,285 L 754.461538461538,285 L 754.461538461538,285 Z" style="fill:blue;stroke:black;stroke-width:0.5;" />
	<path d="M 754.461538461538,285 L 754.461538461538,285 L 760,285 L 760,285 Z" style="fill:blue;stroke:black;stroke-width:0.5;" />
	<text font-size="10" x="754.461538461538" y="297">130</text>
	<line stroke="black" stroke-width="2" x1="757.230769230769" x2="757.230769230769" y1="285" y2="283" />
	<line stroke="black" stroke-width="2" x1="757.230769230769" x2="757.230769230769" y1="285" y2="284" />
	<!-- 
	Generated using the Perl SVG Module V2.50
	by Ronan Oger
	Info: http://www.roitsystems.com/
 -->
</svg>