<?xml version="1.0" encoding="UTF-8" standalone="yes"?>
<!DOCTYPE svg PUBLIC "-//W3C//DTD SVG 1.0//EN" "http://www.w3.org/TR/2001/REC-SVG-20010904/DTD/svg10.dtd">
<svg height="300" width="800" xmlns="http://www.w3.org/2000/svg" xmlns:svg="http://www.w3.org/2000/svg" xmlns:xlink="http://www.w3.org/1999/xlink">
	<line stroke="black" stroke-width="2" x1="40" x2="40" y1="15" y2="285" />
	<line stroke="black" stroke-width="2" x1="40" x2="45.2173913043478" y1="231" y2="231" />
	<text font-size="12" x="47.8260869565217" y="231">100</text>
	<line stroke="black" stroke-width="2" x1="40" x2="45.2173913043478" y1="177" y2="177" />
	<text font-size="12" x="47.8260869565217" y="177">200</text>
	<line stroke="black" stroke-width="2" x1="40" x2="45.2173913043478" y1="123" y2="123" />
	<text font-size="12" x="47.8260869565217" y="123">300</text>
	<line stroke="black" stroke-width="2" x1="40" x2="45.2173913043478" y1="69" y2="69" />
	<text font-size="12" x="47.8260869565217" y="69">400</text>
	<line stroke="black" stroke-width="2" x1="40" x2="45.2173913043478" y1="15" y2="15" />
	<text font-size="12" x="47.8260869565217" y="15">500</text>
	<line stroke="black" stroke-width="2" x1="40" x2="800" y1="285" y2="285" />
	<path d="M 40,285 L 40,285 L 45.2173913043478,285 L 45.2173913043478,285 Z" style="fill:blue;stroke:black;stroke-width:0.5;" />
	<path d="M 45.2173913043478,285 L 45.2173913043478,285 L 50.4347826086957,285 L 50.4347826086957,285 Z" style="fill:blue;stroke:black;stroke-width:0.5;" />
	<path d="M 50.4347826086957,285 L 50.4347826086957,285 L 55.6521739130435,285 L 55.6521739130435,285 Z" style="fill:blue;stroke:black;stroke-width:0.5;" />
	<path d="M 55.6521739130435,285 L 55.6521739130435,285 L 60.8695652173913,285 L 60.8695652173913,285 Z" style="fill:blue;stroke:black;stroke-width:0.5;" />
	<path d="M 60.8695652173913,285 L 60.8695652173913,285 L 66.0869565217391,285 L 66.0869565217391,285 Z" style="fill:blue;stroke:black;stroke-width:0.5;" />
	<line stroke="black" stroke-width="2" x1="63.4782608695652" x2="63.4782608695652" y1="285" y2="284" />
	<path d="M 66.0869565217391,285 L 66.0869565217391,285 L 71.304347826087,285 L 71.304347826087,285 Z" style="fill:blue;stroke:black;stroke-width:0.5;" />
	<path d="M 71.304347826087,285 L 71.304347826087,285 L 76.5217391304348,285 L 76.5217391304348,285 Z" style="fill:blue;stroke:black;stroke-width:0.5;" />
	<path d="M 76.5217391304348,285 L 76.5217391304348,285 L 81.7391304347826,285 L 81.7391304347826,285 Z" style="fill:blue;stroke:black;stroke-width:0.5;" />
	<path d="M 81.7391304347826,285 L 81.7391304347826,285 L 86.9565217391304,285 L 86.9565217391304,285 Z" style="fill:blue;stroke:black;stroke-width:0.5;" />
	<path d="M 86.9565217391304,285 L 86.9565217391304,285 L 92.1739130434783,285 L 92.1739130434783,285 Z" style="fill:blue;stroke:black;stroke-width:0.5;" />
	<text font-size="10" x="86.9565217391304" y="297">10</text>
	<line stroke="black" stroke-width="2" x1="89.5652173913043" x2="89.5652173913043" y1="285" y2="283" />
	<line stroke="black" stroke-width="2" x1="89.5652173913043" x2="89.5652173913043" y1="285" y2="284" />
	<path d="M 92.1739130434783,285 L 92.1739130434783,285 L 97.3913043478261,285 L 97.3913043478261,285 Z" style="fill:blue;stroke:black;stroke-width:0.5;" />
	<path d="M 97.3913043478261,285 L 97.3913043478261,285 L 102.608695652174,285 L 102.608695652174,285 Z" style="fill:blue;stroke:black;stroke-width:0.5;" />
	<path d="M 102.608695652174,285 L 102.608695652174,285 L 107.826086956522,285 L 107.826086956522,285 Z" style="fill:blue;stroke:black;stroke-width:0.5;" />
	<path d="M 107.826086956522,285 L 107.826086956522,285 L 113.04347826087,285 L 113.04347826087,285 Z" style="fill:blue;stroke:black;stroke-width:0.5;" />
	<path d="M 113.04347826087,285 L 113.04347826087,285 L 118.260869565217,285 L 118.260869565217,285 Z" style="fill:blue;stroke:black;stroke-width:0.5;" />
	<line stroke="black" stroke-width="2" x1="115.652173913043" x2="115.652173913043" y1="285" y2="284" />
	<path d="M 118.260869565217,285 L 118.260869565217,285 L 123.478260869565,285 L 123.478260869565,285 Z" style="fill:blue;stroke:black;stroke-width:0.5;" />
	<path d="M 123.478260869565,285 L 123.478260869565,285 L 128.695652173913,285 L 128.695652173913,285 Z" style="fill:blue;stroke:black;stroke-width:0.5;" />
	<path d="M 128.695652173913,285 L 128.695652173913,285 L 133.913043478261,285 L 133.913043478261,285 Z" style="fill:blue;stroke:black;stroke-width:0.5;" />
	<path d="M 133.913043478261,285 L 133.913043478261,285 L 139.130434782609,285 L 139.130434782609,285 Z" style="fill:blue;stroke:black;stroke-width:0.5;" />
	<path d="M 139.130434782609,285 L 139.130434782609,285 L 144.347826086957,285 L 144.347826086957,285 Z" style="fill:blue;stroke:black;stroke-width:0.5;" />
	<text font-size="10" x="139.130434782609" y="297">20</text>
	<line stroke="black" stroke-width="2" x1="141.739130434783" x2="141.739130434783" y1="285" y2="283" />
	<line stroke="black" stroke-width="2" x1="141.739130434783" x2="141.739130434783" y1="285" y2="284" />
	<path d="M 144.347826086957,285 L 144.347826086957,285 L 149.565217391304,285 L 149.565217391304,285 Z" style="fill:blue;stroke:black;stroke-width:0.5;" />
	<path d="M 149.565217391304,285 L 149.565217391304,285 L 154.782608695652,285 L 154.782608695652,285 Z" style="fill:blue;stroke:black;stroke-width:0.5;" />
	<path d="M 154.782608695652,285 L 154.782608695652,284.7786 L 160,284.7786 L 160,285 Z" style="fill:blue;stroke:black;stroke-width:0.5;" />
	<path d="M 160,285 L 160,284.7192 L 165.217391304348,284.7192 L 165.217391304348,285 Z" style="fill:blue;stroke:black;stroke-width:0.5;" />
	<path d="M 165.217391304348,285 L 165.217391304348,278.4822 L 170.434782608696,278.4822 L 170.434782608696,285 Z" style="fill:blue;stroke:black;stroke-width:0.5;" />
	<line stroke="black" stroke-width="2" x1="167.826086956522" x2="167.826086956522" y1="285" y2="284" />
	<path d="M 170.434782608696,285 L 170.434782608696,56.6934 L 175.652173913043,56.6934 L 175.652173913043,285 Z" style="fill:gold;stroke:black;stroke-width:0.5;" />
	<path d="M 175.652173913043,285 L 175.652173913043,38.652 L 180.869565217391,38.652 L 180.869565217391,285 Z" style="fill:gold;stroke:black;stroke-width:0.5;" />
	<path d="M 180.869565217391,285 L 180.869565217391,38.0039999999999 L 186.086956521739,38.0039999999999 L 186.086956521739,285 Z" style="fill:gold;stroke:black;stroke-width:0.5;" />
	<path d="M 186.086956521739,285 L 186.086956521739,37.6044 L 191.304347826087,37.6044 L 191.304347826087,285 Z" style="fill:gold;stroke:black;stroke-width:0.5;" />
	<path d="M 191.304347826087,285 L 191.304347826087,37.6044 L 196.521739130435,37.6044 L 196.521739130435,285 Z" style="fill:gold;stroke:black;stroke-width:0.5;" />
	<text font-size="10" x="191.304347826087" y="297">30</text>
	<line stroke="black" stroke-width="2" x1="193.913043478261" x2="193.913043478261" y1="285" y2="283" />
	<line stroke="black" stroke-width="2" x1="193.913043478261" x2="193.913043478261" y1="285" y2="284" />
	<path d="M 196.521739130435,285 L 196.521739130435,37.6044 L 201.739130434783,37.6044 L 201.739130434783,285 Z" style="fill:gold;stroke:black;stroke-width:0.5;" />
	<path d="M 201.739130434783,285 L 201.739130434783,37.4856 L 206.95652173913,37.4856 L 206.95652173913,285 Z" style="fill:gold;stroke:black;stroke-width:0.5;" />
	<path d="M 206.95652173913,285 L 206.95652173913,37.4856 L 212.173913043478,37.4856 L 212.173913043478,285 Z" style="fill:gold;stroke:black;stroke-width:0.5;" />
	<path d="M 212.173913043478,285 L 212.173913043478,37.4856 L 217.391304347826,37.4856 L 217.391304347826,285 Z" style="fill:gold;stroke:black;stroke-width:0.5;" />
	<path d="M 217.391304347826,285 L 217.391304347826,37.4856 L 222.608695652174,37.4856 L 222.608695652174,285 Z" style="fill:gold;stroke:black;stroke-width:0.5;" />
	<line stroke="black" stroke-width="2" x1="220" x2="220" y1="285" y2="284" />
	<path d="M 222.608695652174,285 L 222.608695652174,37.4856 L 227.826086956522,37.4856 L 227.826086956522,285 Z" style="fill:gold;stroke:black;stroke-width:0.5;" />
	<path d="M 227.826086956522,285 L 227.826086956522,37.4856 L 233.04347826087,37.4856 L 233.04347826087,285 Z" style="fill:gold;stroke:black;stroke-width:0.5;" />
	<path d="M 233.04347826087,285 L 233.04347826087,37.4856 L 238.260869565217,37.4856 L 238.260869565217,285 Z" style="fill:gold;stroke:black;stroke-width:0.5;" />
	<path d="M 238.260869565217,285 L 238.260869565217,37.4856 L 243.478260869565,37.4856 L 243.478260869565,285 Z" style="fill:gold;stroke:black;stroke-width:0.5;" />
	<path d="M 243.478260869565,285 L 243.478260869565,37.4856 L 248.695652173913,37.4856 L 248.695652173913,285 Z" style="fill:gold;stroke:black;stroke-width:0.5;" />
	<text font-size="10" x="243.478260869565" y="297">40</text>
	<line stroke="black" stroke-width="2" x1="246.086956521739" x2="246.086956521739" y1="285" y2="283" />
	<line stroke="black" stroke-width="2" x1="246.086956521739" x2="246.086956521739" y1="285" y2="284" />
	<path d="M 248.695652173913,285 L 248.695652173913,37.4856 L 253.913043478261,37.4856 L 253.913043478261,285 Z" style="fill:gold;stroke:black;stroke-width:0.5;" />
	<path d="M 253.913043478261,285 L 253.913043478261,37.5989999999999 L 259.130434782609,37.5989999999999 L 259.130434782609,285 Z" style="fill:gold;stroke:black;stroke-width:0.5;" />
	<path d="M 259.130434782609,285 L 259.130434782609,37.5989999999999 L 264.347826086957,37.5989999999999 L 264.347826086957,285 Z" style="fill:gold;stroke:black;stroke-width:0.5;" />
	<path d="M 264.347826086957,285 L 264.347826086957,37.7123999999999 L 269.565217391304,37.7123999999999 L 269.565217391304,285 Z" style="fill:gold;stroke:black;stroke-width:0.5;" />
	<path d="M 269.565217391304,285 L 269.565217391304,38.3441999999999 L 274.782608695652,38.3441999999999 L 274.782608695652,285 Z" style="fill:gold;stroke:black;stroke-width:0.5;" />
	<line stroke="black" stroke-width="2" x1="272.173913043478" x2="272.173913043478" y1="285" y2="284" />
	<path d="M 274.782608695652,285 L 274.782608695652,106.7136 L 280,106.7136 L 280,285 Z" style="fill:gold;stroke:black;stroke-width:0.5;" />
	<path d="M 280,285 L 280,269.6478 L 285.217391304348,269.6478 L 285.217391304348,285 Z" style="fill:blue;stroke:black;stroke-width:0.5;" />
	<path d="M 285.217391304348,285 L 285.217391304348,284.1522 L 290.434782608696,284.1522 L 290.434782608696,285 Z" style="fill:blue;stroke:black;stroke-width:0.5;" />
	<path d="M 290.434782608696,285 L 290.434782608696,284.7408 L 295.652173913043,284.7408 L 295.652173913043,285 Z" style="fill:blue;stroke:black;stroke-width:0.5;" />
	<path d="M 295.652173913043,285 L 295.652173913043,284.8002 L 300.869565217391,284.8002 L 300.869565217391,285 Z" style="fill:blue;stroke:black;stroke-width:0.5;" />
	<text font-size="10" x="295.652173913043" y="297">50</text>
	<line stroke="black" stroke-width="2" x1="298.260869565217" x2="298.260869565217" y1="285" y2="283" />
	<line stroke="black" stroke-width="2" x1="298.260869565217" x2="298.260869565217" y1="285" y2="284" />
	<path d="M 300.869565217391,285 L 300.869565217391,284.9406 L 306.086956521739,284.9406 L 306.086956521739,285 Z" style="fill:blue;stroke:black;stroke-width:0.5;" />
	<path d="M 306.086956521739,285 L 306.086956521739,284.9406 L 311.304347826087,284.9406 L 311.304347826087,285 Z" style="fill:blue;stroke:black;stroke-width:0.5;" />
	<path d="M 311.304347826087,285 L 311.304347826087,285 L 316.521739130435,285 L 316.521739130435,285 Z" style="fill:blue;stroke:black;stroke-width:0.5;" />
	<path d="M 316.521739130435,285 L 316.521739130435,285 L 321.739130434783,285 L 321.739130434783,285 Z" style="fill:blue;stroke:black;stroke-width:0.5;" />
	<path d="M 321.739130434783,285 L 321.739130434783,285 L 326.95652173913,285 L 326.95652173913,285 Z" style="fill:blue;stroke:black;stroke-width:0.5;" />
	<line stroke="black" stroke-width="2" x1="324.347826086957" x2="324.347826086957" y1="285" y2="284" />
	<path d="M 326.95652173913,285 L 326.95652173913,285 L 332.173913043478,285 L 332.173913043478,285 Z" style="fill:blue;stroke:black;stroke-width:0.5;" />
	<path d="M 332.173913043478,285 L 332.173913043478,285 L 337.391304347826,285 L 337.391304347826,285 Z" style="fill:blue;stroke:black;stroke-width:0.5;" />
	<path d="M 337.391304347826,285 L 337.391304347826,285 L 342.608695652174,285 L 342.608695652174,285 Z" style="fill:blue;stroke:black;stroke-width:0.5;" />
	<path d="M 342.608695652174,285 L 342.608695652174,284.8866 L 347.826086956522,284.8866 L 347.826086956522,285 Z" style="fill:blue;stroke:black;stroke-width:0.5;" />
	<path d="M 347.826086956522,285 L 347.826086956522,284.8866 L 353.04347826087,284.8866 L 353.04347826087,285 Z" style="fill:blue;stroke:black;stroke-width:0.5;" />
	<text font-size="10" x="347.826086956522" y="297">60</text>
	<line stroke="black" stroke-width="2" x1="350.434782608696" x2="350.434782608696" y1="285" y2="283" />
	<line stroke="black" stroke-width="2" x1="350.434782608696" x2="350.434782608696" y1="285" y2="284" />
	<path d="M 353.04347826087,285 L 353.04347826087,284.8866 L 358.260869565217,284.8866 L 358.260869565217,285 Z" style="fill:blue;stroke:black;stroke-width:0.5;" />
	<path d="M 358.260869565217,285 L 358.260869565217,284.8866 L 363.478260869565,284.8866 L 363.478260869565,285 Z" style="fill:blue;stroke:black;stroke-width:0.5;" />
	<path d="M 363.478260869565,285 L 363.478260869565,284.8866 L 368.695652173913,284.8866 L 368.695652173913,285 Z" style="fill:blue;stroke:black;stroke-width:0.5;" />
	<path d="M 368.695652173913,285 L 368.695652173913,284.8866 L 373.913043478261,284.8866 L 373.913043478261,285 Z" style="fill:blue;stroke:black;stroke-width:0.5;" />
	<path d="M 373.913043478261,285 L 373.913043478261,284.8866 L 379.130434782609,284.8866 L 379.130434782609,285 Z" style="fill:blue;stroke:black;stroke-width:0.5;" />
	<line stroke="black" stroke-width="2" x1="376.521739130435" x2="376.521739130435" y1="285" y2="284" />
	<path d="M 379.130434782609,285 L 379.130434782609,284.8866 L 384.347826086957,284.8866 L 384.347826086957,285 Z" style="fill:blue;stroke:black;stroke-width:0.5;" />
	<path d="M 384.347826086957,285 L 384.347826086957,284.8866 L 389.565217391304,284.8866 L 389.565217391304,285 Z" style="fill:blue;stroke:black;stroke-width:0.5;" />
	<path d="M 389.565217391304,285 L 389.565217391304,284.8866 L 394.782608695652,284.8866 L 394.782608695652,285 Z" style="fill:blue;stroke:black;stroke-width:0.5;" />
	<path d="M 394.782608695652,285 L 394.782608695652,284.8866 L 400,284.8866 L 400,285 Z" style="fill:blue;stroke:black;stroke-width:0.5;" />
	<path d="M 400,285 L 400,284.8866 L 405.217391304348,284.8866 L 405.217391304348,285 Z" style="fill:blue;stroke:black;stroke-width:0.5;" />
	<text font-size="10" x="400" y="297">70</text>
	<line stroke="black" stroke-width="2" x1="402.608695652174" x2="402.608695652174" y1="285" y2="283" />
	<line stroke="black" stroke-width="2" x1="402.608695652174" x2="402.608695652174" y1="285" y2="284" />
	<path d="M 405.217391304348,285 L 405.217391304348,284.8866 L 410.434782608696,284.8866 L 410.434782608696,285 Z" style="fill:blue;stroke:black;stroke-width:0.5;" />
	<path d="M 410.434782608696,285 L 410.434782608696,284.8866 L 415.652173913043,284.8866 L 415.652173913043,285 Z" style="fill:blue;stroke:black;stroke-width:0.5;" />
	<path d="M 415.652173913043,285 L 415.652173913043,284.8866 L 420.869565217391,284.8866 L 420.869565217391,285 Z" style="fill:blue;stroke:black;stroke-width:0.5;" />
	<path d="M 420.869565217391,285 L 420.869565217391,284.8866 L 426.086956521739,284.8866 L 426.086956521739,285 Z" style="fill:blue;stroke:black;stroke-width:0.5;" />
	<path d="M 426.086956521739,285 L 426.086956521739,284.8866 L 431.304347826087,284.8866 L 431.304347826087,285 Z" style="fill:blue;stroke:black;stroke-width:0.5;" />
	<line stroke="black" stroke-width="2" x1="428.695652173913" x2="428.695652173913" y1="285" y2="284" />
	<path d="M 431.304347826087,285 L 431.304347826087,284.8866 L 436.521739130435,284.8866 L 436.521739130435,285 Z" style="fill:blue;stroke:black;stroke-width:0.5;" />
	<path d="M 436.521739130435,285 L 436.521739130435,284.8866 L 441.739130434783,284.8866 L 441.739130434783,285 Z" style="fill:blue;stroke:black;stroke-width:0.5;" />
	<path d="M 441.739130434783,285 L 441.739130434783,284.8866 L 446.95652173913,284.8866 L 446.95652173913,285 Z" style="fill:blue;stroke:black;stroke-width:0.5;" />
	<path d="M 446.95652173913,285 L 446.95652173913,284.9406 L 452.173913043478,284.9406 L 452.173913043478,285 Z" style="fill:blue;stroke:black;stroke-width:0.5;" />
	<path d="M 452.173913043478,285 L 452.173913043478,284.9406 L 457.391304347826,284.9406 L 457.391304347826,285 Z" style="fill:blue;stroke:black;stroke-width:0.5;" />
	<text font-size="10" x="452.173913043478" y="297">80</text>
	<line stroke="black" stroke-width="2" x1="454.782608695652" x2="454.782608695652" y1="285" y2="283" />
	<line stroke="black" stroke-width="2" x1="454.782608695652" x2="454.782608695652" y1="285" y2="284" />
	<path d="M 457.391304347826,285 L 457.391304347826,284.9406 L 462.608695652174,284.9406 L 462.608695652174,285 Z" style="fill:blue;stroke:black;stroke-width:0.5;" />
	<path d="M 462.608695652174,285 L 462.608695652174,284.9406 L 467.826086956522,284.9406 L 467.826086956522,285 Z" style="fill:blue;stroke:black;stroke-width:0.5;" />
	<path d="M 467.826086956522,285 L 467.826086956522,284.9406 L 473.04347826087,284.9406 L 473.04347826087,285 Z" style="fill:blue;stroke:black;stroke-width:0.5;" />
	<path d="M 473.04347826087,285 L 473.04347826087,284.6598 L 478.260869565217,284.6598 L 478.260869565217,285 Z" style="fill:blue;stroke:black;stroke-width:0.5;" />
	<path d="M 478.260869565217,285 L 478.260869565217,284.6598 L 483.478260869565,284.6598 L 483.478260869565,285 Z" style="fill:blue;stroke:black;stroke-width:0.5;" />
	<line stroke="black" stroke-width="2" x1="480.869565217391" x2="480.869565217391" y1="285" y2="284" />
	<path d="M 483.478260869565,285 L 483.478260869565,284.6598 L 488.695652173913,284.6598 L 488.695652173913,285 Z" style="fill:blue;stroke:black;stroke-width:0.5;" />
	<path d="M 488.695652173913,285 L 488.695652173913,282.0138 L 493.913043478261,282.0138 L 493.913043478261,285 Z" style="fill:blue;stroke:black;stroke-width:0.5;" />
	<path d="M 493.913043478261,285 L 493.913043478261,275.7336 L 499.130434782609,275.7336 L 499.130434782609,285 Z" style="fill:gold;stroke:black;stroke-width:0.5;" />
	<path d="M 499.130434782609,285 L 499.130434782609,272.1372 L 504.347826086957,272.1372 L 504.347826086957,285 Z" style="fill:gold;stroke:black;stroke-width:0.5;" />
	<path d="M 504.347826086957,285 L 504.347826086957,271.5162 L 509.565217391304,271.5162 L 509.565217391304,285 Z" style="fill:gold;stroke:black;stroke-width:0.5;" />
	<text font-size="10" x="504.347826086957" y="297">90</text>
	<line stroke="black" stroke-width="2" x1="506.95652173913" x2="506.95652173913" y1="285" y2="283" />
	<line stroke="black" stroke-width="2" x1="506.95652173913" x2="506.95652173913" y1="285" y2="284" />
	<path d="M 509.565217391304,285 L 509.565217391304,271.3164 L 514.782608695652,271.3164 L 514.782608695652,285 Z" style="fill:gold;stroke:black;stroke-width:0.5;" />
	<path d="M 514.782608695652,285 L 514.782608695652,270.9276 L 520,270.9276 L 520,285 Z" style="fill:gold;stroke:black;stroke-width:0.5;" />
	<path d="M 520,285 L 520,270.6468 L 525.217391304348,270.6468 L 525.217391304348,285 Z" style="fill:gold;stroke:black;stroke-width:0.5;" />
	<path d="M 525.217391304348,285 L 525.217391304348,270.5658 L 530.434782608696,270.5658 L 530.434782608696,285 Z" style="fill:gold;stroke:black;stroke-width:0.5;" />
	<path d="M 530.434782608696,285 L 530.434782608696,270.5658 L 535.652173913043,270.5658 L 535.652173913043,285 Z" style="fill:gold;stroke:black;stroke-width:0.5;" />
	<line stroke="black" stroke-width="2" x1="533.04347826087" x2="533.04347826087" y1="285" y2="284" />
	<path d="M 535.652173913043,285 L 535.652173913043,270.5658 L 540.869565217391,270.5658 L 540.869565217391,285 Z" style="fill:gold;stroke:black;stroke-width:0.5;" />
	<path d="M 540.869565217391,285 L 540.869565217391,270.5658 L 546.086956521739,270.5658 L 546.086956521739,285 Z" style="fill:gold;stroke:black;stroke-width:0.5;" />
	<path d="M 546.086956521739,285 L 546.086956521739,270.5658 L 551.304347826087,270.5658 L 551.304347826087,285 Z" style="fill:gold;stroke:black;stroke-width:0.5;" />
	<path d="M 551.304347826087,285 L 551.304347826087,270.4848 L 556.521739130435,270.4848 L 556.521739130435,285 Z" style="fill:gold;stroke:black;stroke-width:0.5;" />
	<path d="M 556.521739130435,285 L 556.521739130435,270.4848 L 561.739130434783,270.4848 L 561.739130434783,285 Z" style="fill:gold;stroke:black;stroke-width:0.5;" />
	<text font-size="10" x="556.521739130435" y="297">100</text>
	<line stroke="black" stroke-width="2" x1="559.130434782609" x2="559.130434782609" y1="285" y2="283" />
	<line stroke="black" stroke-width="2" x1="559.130434782609" x2="559.130434782609" y1="285" y2="284" />
	<path d="M 561.739130434783,285 L 561.739130434783,270.4038 L 566.95652173913,270.4038 L 566.95652173913,285 Z" style="fill:gold;stroke:black;stroke-width:0.5;" />
	<path d="M 566.95652173913,285 L 566.95652173913,270.4038 L 572.173913043478,270.4038 L 572.173913043478,285 Z" style="fill:gold;stroke:black;stroke-width:0.5;" />
	<path d="M 572.173913043478,285 L 572.173913043478,270.5226 L 577.391304347826,270.5226 L 577.391304347826,285 Z" style="fill:gold;stroke:black;stroke-width:0.5;" />
	<path d="M 577.391304347826,285 L 577.391304347826,270.5226 L 582.608695652174,270.5226 L 582.608695652174,285 Z" style="fill:gold;stroke:black;stroke-width:0.5;" />
	<path d="M 582.608695652174,285 L 582.608695652174,270.5226 L 587.826086956522,270.5226 L 587.826086956522,285 Z" style="fill:gold;stroke:black;stroke-width:0.5;" />
	<line stroke="black" stroke-width="2" x1="585.217391304348" x2="585.217391304348" y1="285" y2="284" />
	<path d="M 587.826086956522,285 L 587.826086956522,270.5226 L 593.04347826087,270.5226 L 593.04347826087,285 Z" style="fill:gold;stroke:black;stroke-width:0.5;" />
	<path d="M 593.04347826087,285 L 593.04347826087,270.5226 L 598.260869565217,270.5226 L 598.260869565217,285 Z" style="fill:gold;stroke:black;stroke-width:0.5;" />
	<path d="M 598.260869565217,285 L 598.260869565217,273.5844 L 603.478260869565,273.5844 L 603.478260869565,285 Z" style="fill:gold;stroke:black;stroke-width:0.5;" />
	<path d="M 603.478260869565,285 L 603.478260869565,280.0428 L 608.695652173913,280.0428 L 608.695652173913,285 Z" style="fill:blue;stroke:black;stroke-width:0.5;" />
	<path d="M 608.695652173913,285 L 608.695652173913,283.9794 L 613.913043478261,283.9794 L 613.913043478261,285 Z" style="fill:blue;stroke:black;stroke-width:0.5;" />
	<text font-size="10" x="608.695652173913" y="297">110</text>
	<line stroke="black" stroke-width="2" x1="611.304347826087" x2="611.304347826087" y1="285" y2="283" />
	<line stroke="black" stroke-width="2" x1="611.304347826087" x2="611.304347826087" y1="285" y2="284" />
	<path d="M 613.913043478261,285 L 613.913043478261,283.9794 L 619.130434782609,283.9794 L 619.130434782609,285 Z" style="fill:blue;stroke:black;stroke-width:0.5;" />
	<path d="M 619.130434782609,285 L 619.130434782609,284.2278 L 624.347826086957,284.2278 L 624.347826086957,285 Z" style="fill:blue;stroke:black;stroke-width:0.5;" />
	<path d="M 624.347826086957,285 L 624.347826086957,284.2872 L 629.565217391304,284.2872 L 629.565217391304,285 Z" style="fill:blue;stroke:black;stroke-width:0.5;" />
	<path d="M 629.565217391304,285 L 629.565217391304,284.2872 L 634.782608695652,284.2872 L 634.782608695652,285 Z" style="fill:blue;stroke:black;stroke-width:0.5;" />
	<path d="M 634.782608695652,285 L 634.782608695652,284.3682 L 640,284.3682 L 640,285 Z" style="fill:blue;stroke:black;stroke-width:0.5;" />
	<line stroke="black" stroke-width="2" x1="637.391304347826" x2="637.391304347826" y1="285" y2="284" />
	<path d="M 640,285 L 640,284.6166 L 645.217391304348,284.6166 L 645.217391304348,285 Z" style="fill:blue;stroke:black;stroke-width:0.5;" />
	<path d="M 645.217391304348,285 L 645.217391304348,284.838 L 650.434782608696,284.838 L 650.434782608696,285 Z" style="fill:blue;stroke:black;stroke-width:0.5;" />
	<path d="M 650.434782608696,285 L 650.434782608696,284.838 L 655.652173913043,284.838 L 655.652173913043,285 Z" style="fill:blue;stroke:black;stroke-width:0.5;" />
	<path d="M 655.652173913043,285 L 655.652173913043,284.919 L 660.869565217391,284.919 L 660.869565217391,285 Z" style="fill:blue;stroke:black;stroke-width:0.5;" />
	<path d="M 660.869565217391,285 L 660.869565217391,284.919 L 666.086956521739,284.919 L 666.086956521739,285 Z" style="fill:blue;stroke:black;stroke-width:0.5;" />
	<text font-size="10" x="660.869565217391" y="297">120</text>
	<line stroke="black" stroke-width="2" x1="663.478260869565" x2="663.478260869565" y1="285" y2="283" />
	<line stroke="black" stroke-width="2" x1="663.478260869565" x2="663.478260869565" y1="285" y2="284" />
	<path d="M 666.086956521739,285 L 666.086956521739,285 L 671.304347826087,285 L 671.304347826087,285 Z" style="fill:blue;stroke:black;stroke-width:0.5;" />
	<path d="M 671.304347826087,285 L 671.304347826087,285 L 676.521739130435,285 L 676.521739130435,285 Z" style="fill:blue;stroke:black;stroke-width:0.5;" />
	<path d="M 676.521739130435,285 L 676.521739130435,285 L 681.739130434783,285 L 681.739130434783,285 Z" style="fill:blue;stroke:black;stroke-width:0.5;" />
	<path d="M 681.739130434783,285 L 681.739130434783,285 L 686.95652173913,285 L 686.95652173913,285 Z" style="fill:blue;stroke:black;stroke-width:0.5;" />
	<path d="M 686.95652173913,285 L 686.95652173913,285 L 692.173913043478,285 L 692.173913043478,285 Z" style="fill:blue;stroke:black;stroke-width:0.5;" />
	<line stroke="black" stroke-width="2" x1="689.565217391304" x2="689.565217391304" y1="285" y2="284" />
	<path d="M 692.173913043478,285 L 692.173913043478,285 L 697.391304347826,285 L 697.391304347826,285 Z" style="fill:blue;stroke:black;stroke-width:0.5;" />
	<path d="M 697.391304347826,285 L 697.391304347826,285 L 702.608695652174,285 L 702.608695652174,285 Z" style="fill:blue;stroke:black;stroke-width:0.5;" />
	<path d="M 702.608695652174,285 L 702.608695652174,285 L 707.826086956522,285 L 707.826086956522,285 Z" style="fill:blue;stroke:black;stroke-width:0.5;" />
	<path d="M 707.826086956522,285 L 707.826086956522,285 L 713.04347826087,285 L 713.04347826087,285 Z" style="fill:blue;stroke:black;stroke-width:0.5;" />
	<path d="M 713.04347826087,285 L 713.04347826087,285 L 718.260869565217,285 L 718.260869565217,285 Z" style="fill:blue;stroke:black;stroke-width:0.5;" />
	<text font-size="10" x="713.04347826087" y="297">130</text>
	<line stroke="black" stroke-width="2" x1="715.652173913043" x2="715.652173913043" y1="285" y2="283" />
	<line stroke="black" stroke-width="2" x1="715.652173913043" x2="715.652173913043" y1="285" y2="284" />
	<path d="M 718.260869565217,285 L 718.260869565217,285 L 723.478260869565,285 L 723.478260869565,285 Z" style="fill:blue;stroke:black;stroke-width:0.5;" />
	<path d="M 723.478260869565,285 L 723.478260869565,285 L 728.695652173913,285 L 728.695652173913,285 Z" style="fill:blue;stroke:black;stroke-width:0.5;" />
	<path d="M 728.695652173913,285 L 728.695652173913,285 L 733.913043478261,285 L 733.913043478261,285 Z" style="fill:blue;stroke:black;stroke-width:0.5;" />
	<path d="M 733.913043478261,285 L 733.913043478261,285 L 739.130434782609,285 L 739.130434782609,285 Z" style="fill:blue;stroke:black;stroke-width:0.5;" />
	<path d="M 739.130434782609,285 L 739.130434782609,285 L 744.347826086957,285 L 744.347826086957,285 Z" style="fill:blue;stroke:black;stroke-width:0.5;" />
	<line stroke="black" stroke-width="2" x1="741.739130434783" x2="741.739130434783" y1="285" y2="284" />
	<path d="M 744.347826086957,285 L 744.347826086957,285 L 749.565217391304,285 L 749.565217391304,285 Z" style="fill:blue;stroke:black;stroke-width:0.5;" />
	<path d="M 749.565217391304,285 L 749.565217391304,285 L 754.782608695652,285 L 754.782608695652,285 Z" style="fill:blue;stroke:black;stroke-width:0.5;" />
	<path d="M 754.782608695652,285 L 754.782608695652,285 L 760,285 L 760,285 Z" style="fill:blue;stroke:black;stroke-width:0.5;" />
	<!-- 
	Generated using the Perl SVG Module V2.50
	by Ronan Oger
	Info: http://www.roitsystems.com/
 -->
</svg>