<?xml version="1.0" encoding="UTF-8" standalone="yes"?>
<!DOCTYPE svg PUBLIC "-//W3C//DTD SVG 1.0//EN" "http://www.w3.org/TR/2001/REC-SVG-20010904/DTD/svg10.dtd">
<svg height="300" width="800" xmlns="http://www.w3.org/2000/svg" xmlns:svg="http://www.w3.org/2000/svg" xmlns:xlink="http://www.w3.org/1999/xlink">
	<line stroke="black" stroke-width="2" x1="40" x2="40" y1="15" y2="285" />
	<line stroke="black" stroke-width="2" x1="40" x2="46.3716814159292" y1="231" y2="231" />
	<text font-size="12" x="49.5575221238938" y="231">1</text>
	<line stroke="black" stroke-width="2" x1="40" x2="46.3716814159292" y1="177" y2="177" />
	<text font-size="12" x="49.5575221238938" y="177">2</text>
	<line stroke="black" stroke-width="2" x1="40" x2="46.3716814159292" y1="123" y2="123" />
	<text font-size="12" x="49.5575221238938" y="123">3</text>
	<line stroke="black" stroke-width="2" x1="40" x2="46.3716814159292" y1="69" y2="69" />
	<text font-size="12" x="49.5575221238938" y="69">4</text>
	<line stroke="black" stroke-width="2" x1="40" x2="46.3716814159292" y1="15" y2="15" />
	<text font-size="12" x="49.5575221238938" y="15">5</text>
	<line stroke="black" stroke-width="2" x1="40" x2="800" y1="285" y2="285" />
	<path d="M 40,285 L 40,285 L 46.3716814159292,285 L 46.3716814159292,285 Z" style="fill:blue;stroke:black;stroke-width:0.5;" />
	<path d="M 46.3716814159292,285 L 46.3716814159292,285 L 52.7433628318584,285 L 52.7433628318584,285 Z" style="fill:blue;stroke:black;stroke-width:0.5;" />
	<path d="M 52.7433628318584,285 L 52.7433628318584,285 L 59.1150442477876,285 L 59.1150442477876,285 Z" style="fill:blue;stroke:black;stroke-width:0.5;" />
	<path d="M 59.1150442477876,285 L 59.1150442477876,285 L 65.4867256637168,285 L 65.4867256637168,285 Z" style="fill:blue;stroke:black;stroke-width:0.5;" />
	<path d="M 65.4867256637168,285 L 65.4867256637168,285 L 71.858407079646,285 L 71.858407079646,285 Z" style="fill:blue;stroke:black;stroke-width:0.5;" />
	<line stroke="black" stroke-width="2" x1="68.6725663716814" x2="68.6725663716814" y1="285" y2="284" />
	<path d="M 71.858407079646,285 L 71.858407079646,285 L 78.2300884955752,285 L 78.2300884955752,285 Z" style="fill:blue;stroke:black;stroke-width:0.5;" />
	<path d="M 78.2300884955752,285 L 78.2300884955752,285 L 84.6017699115044,285 L 84.6017699115044,285 Z" style="fill:blue;stroke:black;stroke-width:0.5;" />
	<path d="M 84.6017699115044,285 L 84.6017699115044,285 L 90.9734513274336,285 L 90.9734513274336,285 Z" style="fill:blue;stroke:black;stroke-width:0.5;" />
	<path d="M 90.9734513274336,285 L 90.9734513274336,285 L 97.3451327433628,285 L 97.3451327433628,285 Z" style="fill:blue;stroke:black;stroke-width:0.5;" />
	<path d="M 97.3451327433628,285 L 97.3451327433628,285 L 103.716814159292,285 L 103.716814159292,285 Z" style="fill:gold;stroke:black;stroke-width:0.5;" />
	<text font-size="10" x="97.3451327433628" y="297">10</text>
	<line stroke="black" stroke-width="2" x1="100.530973451327" x2="100.530973451327" y1="285" y2="283" />
	<line stroke="black" stroke-width="2" x1="100.530973451327" x2="100.530973451327" y1="285" y2="284" />
	<path d="M 103.716814159292,285 L 103.716814159292,285 L 110.088495575221,285 L 110.088495575221,285 Z" style="fill:gold;stroke:black;stroke-width:0.5;" />
	<path d="M 110.088495575221,285 L 110.088495575221,285 L 116.46017699115,285 L 116.46017699115,285 Z" style="fill:gold;stroke:black;stroke-width:0.5;" />
	<path d="M 116.46017699115,285 L 116.46017699115,285 L 122.83185840708,285 L 122.83185840708,285 Z" style="fill:gold;stroke:black;stroke-width:0.5;" />
	<path d="M 122.83185840708,285 L 122.83185840708,285 L 129.203539823009,285 L 129.203539823009,285 Z" style="fill:gold;stroke:black;stroke-width:0.5;" />
	<path d="M 129.203539823009,285 L 129.203539823009,285 L 135.575221238938,285 L 135.575221238938,285 Z" style="fill:gold;stroke:black;stroke-width:0.5;" />
	<line stroke="black" stroke-width="2" x1="132.389380530973" x2="132.389380530973" y1="285" y2="284" />
	<path d="M 135.575221238938,285 L 135.575221238938,285 L 141.946902654867,285 L 141.946902654867,285 Z" style="fill:gold;stroke:black;stroke-width:0.5;" />
	<path d="M 141.946902654867,285 L 141.946902654867,285 L 148.318584070796,285 L 148.318584070796,285 Z" style="fill:gold;stroke:black;stroke-width:0.5;" />
	<path d="M 148.318584070796,285 L 148.318584070796,285 L 154.690265486726,285 L 154.690265486726,285 Z" style="fill:gold;stroke:black;stroke-width:0.5;" />
	<path d="M 154.690265486726,285 L 154.690265486726,285 L 161.061946902655,285 L 161.061946902655,285 Z" style="fill:gold;stroke:black;stroke-width:0.5;" />
	<path d="M 161.061946902655,285 L 161.061946902655,285 L 167.433628318584,285 L 167.433628318584,285 Z" style="fill:gold;stroke:black;stroke-width:0.5;" />
	<text font-size="10" x="161.061946902655" y="297">20</text>
	<line stroke="black" stroke-width="2" x1="164.247787610619" x2="164.247787610619" y1="285" y2="283" />
	<line stroke="black" stroke-width="2" x1="164.247787610619" x2="164.247787610619" y1="285" y2="284" />
	<path d="M 167.433628318584,285 L 167.433628318584,285 L 173.805309734513,285 L 173.805309734513,285 Z" style="fill:gold;stroke:black;stroke-width:0.5;" />
	<path d="M 173.805309734513,285 L 173.805309734513,285 L 180.176991150442,285 L 180.176991150442,285 Z" style="fill:gold;stroke:black;stroke-width:0.5;" />
	<path d="M 180.176991150442,285 L 180.176991150442,285 L 186.548672566372,285 L 186.548672566372,285 Z" style="fill:gold;stroke:black;stroke-width:0.5;" />
	<path d="M 186.548672566372,285 L 186.548672566372,285 L 192.920353982301,285 L 192.920353982301,285 Z" style="fill:gold;stroke:black;stroke-width:0.5;" />
	<path d="M 192.920353982301,285 L 192.920353982301,285 L 199.29203539823,285 L 199.29203539823,285 Z" style="fill:gold;stroke:black;stroke-width:0.5;" />
	<line stroke="black" stroke-width="2" x1="196.106194690266" x2="196.106194690266" y1="285" y2="284" />
	<path d="M 199.29203539823,285 L 199.29203539823,285 L 205.663716814159,285 L 205.663716814159,285 Z" style="fill:gold;stroke:black;stroke-width:0.5;" />
	<path d="M 205.663716814159,285 L 205.663716814159,285 L 212.035398230089,285 L 212.035398230089,285 Z" style="fill:gold;stroke:black;stroke-width:0.5;" />
	<path d="M 212.035398230089,285 L 212.035398230089,285 L 218.407079646018,285 L 218.407079646018,285 Z" style="fill:gold;stroke:black;stroke-width:0.5;" />
	<path d="M 218.407079646018,285 L 218.407079646018,285 L 224.778761061947,285 L 224.778761061947,285 Z" style="fill:gold;stroke:black;stroke-width:0.5;" />
	<path d="M 224.778761061947,285 L 224.778761061947,285 L 231.150442477876,285 L 231.150442477876,285 Z" style="fill:gold;stroke:black;stroke-width:0.5;" />
	<text font-size="10" x="224.778761061947" y="297">30</text>
	<line stroke="black" stroke-width="2" x1="227.964601769911" x2="227.964601769911" y1="285" y2="283" />
	<line stroke="black" stroke-width="2" x1="227.964601769911" x2="227.964601769911" y1="285" y2="284" />
	<path d="M 231.150442477876,285 L 231.150442477876,285 L 237.522123893805,285 L 237.522123893805,285 Z" style="fill:blue;stroke:black;stroke-width:0.5;" />
	<path d="M 237.522123893805,285 L 237.522123893805,285 L 243.893805309735,285 L 243.893805309735,285 Z" style="fill:blue;stroke:black;stroke-width:0.5;" />
	<path d="M 243.893805309735,285 L 243.893805309735,285 L 250.265486725664,285 L 250.265486725664,285 Z" style="fill:blue;stroke:black;stroke-width:0.5;" />
	<path d="M 250.265486725664,285 L 250.265486725664,285 L 256.637168141593,285 L 256.637168141593,285 Z" style="fill:blue;stroke:black;stroke-width:0.5;" />
	<path d="M 256.637168141593,285 L 256.637168141593,285 L 263.008849557522,285 L 263.008849557522,285 Z" style="fill:blue;stroke:black;stroke-width:0.5;" />
	<line stroke="black" stroke-width="2" x1="259.823008849558" x2="259.823008849558" y1="285" y2="284" />
	<path d="M 263.008849557522,285 L 263.008849557522,285 L 269.380530973451,285 L 269.380530973451,285 Z" style="fill:blue;stroke:black;stroke-width:0.5;" />
	<path d="M 269.380530973451,285 L 269.380530973451,285 L 275.752212389381,285 L 275.752212389381,285 Z" style="fill:blue;stroke:black;stroke-width:0.5;" />
	<path d="M 275.752212389381,285 L 275.752212389381,285 L 282.12389380531,285 L 282.12389380531,285 Z" style="fill:blue;stroke:black;stroke-width:0.5;" />
	<path d="M 282.12389380531,285 L 282.12389380531,285 L 288.495575221239,285 L 288.495575221239,285 Z" style="fill:blue;stroke:black;stroke-width:0.5;" />
	<path d="M 288.495575221239,285 L 288.495575221239,285 L 294.867256637168,285 L 294.867256637168,285 Z" style="fill:blue;stroke:black;stroke-width:0.5;" />
	<text font-size="10" x="288.495575221239" y="297">40</text>
	<line stroke="black" stroke-width="2" x1="291.681415929204" x2="291.681415929204" y1="285" y2="283" />
	<line stroke="black" stroke-width="2" x1="291.681415929204" x2="291.681415929204" y1="285" y2="284" />
	<path d="M 294.867256637168,285 L 294.867256637168,285 L 301.238938053097,285 L 301.238938053097,285 Z" style="fill:blue;stroke:black;stroke-width:0.5;" />
	<path d="M 301.238938053097,285 L 301.238938053097,285 L 307.610619469027,285 L 307.610619469027,285 Z" style="fill:blue;stroke:black;stroke-width:0.5;" />
	<path d="M 307.610619469027,285 L 307.610619469027,285 L 313.982300884956,285 L 313.982300884956,285 Z" style="fill:blue;stroke:black;stroke-width:0.5;" />
	<path d="M 313.982300884956,285 L 313.982300884956,285 L 320.353982300885,285 L 320.353982300885,285 Z" style="fill:blue;stroke:black;stroke-width:0.5;" />
	<path d="M 320.353982300885,285 L 320.353982300885,285 L 326.725663716814,285 L 326.725663716814,285 Z" style="fill:blue;stroke:black;stroke-width:0.5;" />
	<line stroke="black" stroke-width="2" x1="323.53982300885" x2="323.53982300885" y1="285" y2="284" />
	<path d="M 326.725663716814,285 L 326.725663716814,285 L 333.097345132743,285 L 333.097345132743,285 Z" style="fill:blue;stroke:black;stroke-width:0.5;" />
	<path d="M 333.097345132743,285 L 333.097345132743,285 L 339.469026548673,285 L 339.469026548673,285 Z" style="fill:blue;stroke:black;stroke-width:0.5;" />
	<path d="M 339.469026548673,285 L 339.469026548673,285 L 345.840707964602,285 L 345.840707964602,285 Z" style="fill:blue;stroke:black;stroke-width:0.5;" />
	<path d="M 345.840707964602,285 L 345.840707964602,285 L 352.212389380531,285 L 352.212389380531,285 Z" style="fill:blue;stroke:black;stroke-width:0.5;" />
	<path d="M 352.212389380531,285 L 352.212389380531,285 L 358.58407079646,285 L 358.58407079646,285 Z" style="fill:blue;stroke:black;stroke-width:0.5;" />
	<text font-size="10" x="352.212389380531" y="297">50</text>
	<line stroke="black" stroke-width="2" x1="355.398230088496" x2="355.398230088496" y1="285" y2="283" />
	<line stroke="black" stroke-width="2" x1="355.398230088496" x2="355.398230088496" y1="285" y2="284" />
	<path d="M 358.58407079646,285 L 358.58407079646,285 L 364.955752212389,285 L 364.955752212389,285 Z" style="fill:blue;stroke:black;stroke-width:0.5;" />
	<path d="M 364.955752212389,285 L 364.955752212389,285 L 371.327433628319,285 L 371.327433628319,285 Z" style="fill:blue;stroke:black;stroke-width:0.5;" />
	<path d="M 371.327433628319,285 L 371.327433628319,285 L 377.699115044248,285 L 377.699115044248,285 Z" style="fill:blue;stroke:black;stroke-width:0.5;" />
	<path d="M 377.699115044248,285 L 377.699115044248,285 L 384.070796460177,285 L 384.070796460177,285 Z" style="fill:blue;stroke:black;stroke-width:0.5;" />
	<path d="M 384.070796460177,285 L 384.070796460177,285 L 390.442477876106,285 L 390.442477876106,285 Z" style="fill:blue;stroke:black;stroke-width:0.5;" />
	<line stroke="black" stroke-width="2" x1="387.256637168142" x2="387.256637168142" y1="285" y2="284" />
	<path d="M 390.442477876106,285 L 390.442477876106,285 L 396.814159292035,285 L 396.814159292035,285 Z" style="fill:blue;stroke:black;stroke-width:0.5;" />
	<path d="M 396.814159292035,285 L 396.814159292035,285 L 403.185840707965,285 L 403.185840707965,285 Z" style="fill:blue;stroke:black;stroke-width:0.5;" />
	<path d="M 403.185840707965,285 L 403.185840707965,285 L 409.557522123894,285 L 409.557522123894,285 Z" style="fill:blue;stroke:black;stroke-width:0.5;" />
	<path d="M 409.557522123894,285 L 409.557522123894,285 L 415.929203539823,285 L 415.929203539823,285 Z" style="fill:blue;stroke:black;stroke-width:0.5;" />
	<path d="M 415.929203539823,285 L 415.929203539823,285 L 422.300884955752,285 L 422.300884955752,285 Z" style="fill:blue;stroke:black;stroke-width:0.5;" />
	<text font-size="10" x="415.929203539823" y="297">60</text>
	<line stroke="black" stroke-width="2" x1="419.115044247788" x2="419.115044247788" y1="285" y2="283" />
	<line stroke="black" stroke-width="2" x1="419.115044247788" x2="419.115044247788" y1="285" y2="284" />
	<path d="M 422.300884955752,285 L 422.300884955752,285 L 428.672566371681,285 L 428.672566371681,285 Z" style="fill:blue;stroke:black;stroke-width:0.5;" />
	<path d="M 428.672566371681,285 L 428.672566371681,285 L 435.044247787611,285 L 435.044247787611,285 Z" style="fill:blue;stroke:black;stroke-width:0.5;" />
	<path d="M 435.044247787611,285 L 435.044247787611,285 L 441.41592920354,285 L 441.41592920354,285 Z" style="fill:blue;stroke:black;stroke-width:0.5;" />
	<path d="M 441.41592920354,285 L 441.41592920354,285 L 447.787610619469,285 L 447.787610619469,285 Z" style="fill:blue;stroke:black;stroke-width:0.5;" />
	<path d="M 447.787610619469,285 L 447.787610619469,279.06 L 454.159292035398,279.06 L 454.159292035398,285 Z" style="fill:blue;stroke:black;stroke-width:0.5;" />
	<line stroke="black" stroke-width="2" x1="450.973451327434" x2="450.973451327434" y1="285" y2="284" />
	<path d="M 454.159292035398,285 L 454.159292035398,279.06 L 460.530973451327,279.06 L 460.530973451327,285 Z" style="fill:blue;stroke:black;stroke-width:0.5;" />
	<path d="M 460.530973451327,285 L 460.530973451327,279.06 L 466.902654867257,279.06 L 466.902654867257,285 Z" style="fill:blue;stroke:black;stroke-width:0.5;" />
	<path d="M 466.902654867257,285 L 466.902654867257,139.74 L 473.274336283186,139.74 L 473.274336283186,285 Z" style="fill:gold;stroke:black;stroke-width:0.5;" />
	<path d="M 473.274336283186,285 L 473.274336283186,139.74 L 479.646017699115,139.74 L 479.646017699115,285 Z" style="fill:gold;stroke:black;stroke-width:0.5;" />
	<path d="M 479.646017699115,285 L 479.646017699115,139.74 L 486.017699115044,139.74 L 486.017699115044,285 Z" style="fill:gold;stroke:black;stroke-width:0.5;" />
	<text font-size="10" x="479.646017699115" y="297">70</text>
	<line stroke="black" stroke-width="2" x1="482.83185840708" x2="482.83185840708" y1="285" y2="283" />
	<line stroke="black" stroke-width="2" x1="482.83185840708" x2="482.83185840708" y1="285" y2="284" />
	<path d="M 486.017699115044,285 L 486.017699115044,128.4 L 492.389380530973,128.4 L 492.389380530973,285 Z" style="fill:gold;stroke:black;stroke-width:0.5;" />
	<path d="M 492.389380530973,285 L 492.389380530973,128.4 L 498.761061946903,128.4 L 498.761061946903,285 Z" style="fill:gold;stroke:black;stroke-width:0.5;" />
	<path d="M 498.761061946903,285 L 498.761061946903,128.4 L 505.132743362832,128.4 L 505.132743362832,285 Z" style="fill:gold;stroke:black;stroke-width:0.5;" />
	<path d="M 505.132743362832,285 L 505.132743362832,128.4 L 511.504424778761,128.4 L 511.504424778761,285 Z" style="fill:gold;stroke:black;stroke-width:0.5;" />
	<path d="M 511.504424778761,285 L 511.504424778761,128.4 L 517.87610619469,128.4 L 517.87610619469,285 Z" style="fill:gold;stroke:black;stroke-width:0.5;" />
	<line stroke="black" stroke-width="2" x1="514.690265486726" x2="514.690265486726" y1="285" y2="284" />
	<path d="M 517.87610619469,285 L 517.87610619469,128.4 L 524.24778761062,128.4 L 524.24778761062,285 Z" style="fill:gold;stroke:black;stroke-width:0.5;" />
	<path d="M 524.24778761062,285 L 524.24778761062,128.4 L 530.619469026549,128.4 L 530.619469026549,285 Z" style="fill:gold;stroke:black;stroke-width:0.5;" />
	<path d="M 530.619469026549,285 L 530.619469026549,128.4 L 536.991150442478,128.4 L 536.991150442478,285 Z" style="fill:gold;stroke:black;stroke-width:0.5;" />
	<path d="M 536.991150442478,285 L 536.991150442478,128.4 L 543.362831858407,128.4 L 543.362831858407,285 Z" style="fill:gold;stroke:black;stroke-width:0.5;" />
	<path d="M 543.362831858407,285 L 543.362831858407,128.4 L 549.734513274336,128.4 L 549.734513274336,285 Z" style="fill:gold;stroke:black;stroke-width:0.5;" />
	<text font-size="10" x="543.362831858407" y="297">80</text>
	<line stroke="black" stroke-width="2" x1="546.548672566372" x2="546.548672566372" y1="285" y2="283" />
	<line stroke="black" stroke-width="2" x1="546.548672566372" x2="546.548672566372" y1="285" y2="284" />
	<path d="M 549.734513274336,285 L 549.734513274336,128.4 L 556.106194690266,128.4 L 556.106194690266,285 Z" style="fill:gold;stroke:black;stroke-width:0.5;" />
	<path d="M 556.106194690266,285 L 556.106194690266,128.4 L 562.477876106195,128.4 L 562.477876106195,285 Z" style="fill:gold;stroke:black;stroke-width:0.5;" />
	<path d="M 562.477876106195,285 L 562.477876106195,128.4 L 568.849557522124,128.4 L 568.849557522124,285 Z" style="fill:gold;stroke:black;stroke-width:0.5;" />
	<path d="M 568.849557522124,285 L 568.849557522124,128.4 L 575.221238938053,128.4 L 575.221238938053,285 Z" style="fill:gold;stroke:black;stroke-width:0.5;" />
	<path d="M 575.221238938053,285 L 575.221238938053,128.4 L 581.592920353982,128.4 L 581.592920353982,285 Z" style="fill:gold;stroke:black;stroke-width:0.5;" />
	<line stroke="black" stroke-width="2" x1="578.407079646018" x2="578.407079646018" y1="285" y2="284" />
	<path d="M 581.592920353982,285 L 581.592920353982,128.4 L 587.964601769911,128.4 L 587.964601769911,285 Z" style="fill:gold;stroke:black;stroke-width:0.5;" />
	<path d="M 587.964601769911,285 L 587.964601769911,128.4 L 594.336283185841,128.4 L 594.336283185841,285 Z" style="fill:gold;stroke:black;stroke-width:0.5;" />
	<path d="M 594.336283185841,285 L 594.336283185841,128.4 L 600.70796460177,128.4 L 600.70796460177,285 Z" style="fill:gold;stroke:black;stroke-width:0.5;" />
	<path d="M 600.70796460177,285 L 600.70796460177,273.66 L 607.079646017699,273.66 L 607.079646017699,285 Z" style="fill:blue;stroke:black;stroke-width:0.5;" />
	<path d="M 607.079646017699,285 L 607.079646017699,273.66 L 613.451327433628,273.66 L 613.451327433628,285 Z" style="fill:blue;stroke:black;stroke-width:0.5;" />
	<text font-size="10" x="607.079646017699" y="297">90</text>
	<line stroke="black" stroke-width="2" x1="610.265486725664" x2="610.265486725664" y1="285" y2="283" />
	<line stroke="black" stroke-width="2" x1="610.265486725664" x2="610.265486725664" y1="285" y2="284" />
	<path d="M 613.451327433628,285 L 613.451327433628,273.66 L 619.823008849557,273.66 L 619.823008849557,285 Z" style="fill:blue;stroke:black;stroke-width:0.5;" />
	<path d="M 619.823008849557,285 L 619.823008849557,285 L 626.194690265487,285 L 626.194690265487,285 Z" style="fill:blue;stroke:black;stroke-width:0.5;" />
	<path d="M 626.194690265487,285 L 626.194690265487,285 L 632.566371681416,285 L 632.566371681416,285 Z" style="fill:blue;stroke:black;stroke-width:0.5;" />
	<path d="M 632.566371681416,285 L 632.566371681416,285 L 638.938053097345,285 L 638.938053097345,285 Z" style="fill:blue;stroke:black;stroke-width:0.5;" />
	<path d="M 638.938053097345,285 L 638.938053097345,285 L 645.309734513274,285 L 645.309734513274,285 Z" style="fill:blue;stroke:black;stroke-width:0.5;" />
	<line stroke="black" stroke-width="2" x1="642.12389380531" x2="642.12389380531" y1="285" y2="284" />
	<path d="M 645.309734513274,285 L 645.309734513274,285 L 651.681415929204,285 L 651.681415929204,285 Z" style="fill:blue;stroke:black;stroke-width:0.5;" />
	<path d="M 651.681415929204,285 L 651.681415929204,285 L 658.053097345133,285 L 658.053097345133,285 Z" style="fill:blue;stroke:black;stroke-width:0.5;" />
	<path d="M 658.053097345133,285 L 658.053097345133,285 L 664.424778761062,285 L 664.424778761062,285 Z" style="fill:blue;stroke:black;stroke-width:0.5;" />
	<path d="M 664.424778761062,285 L 664.424778761062,285 L 670.796460176991,285 L 670.796460176991,285 Z" style="fill:blue;stroke:black;stroke-width:0.5;" />
	<path d="M 670.796460176991,285 L 670.796460176991,285 L 677.16814159292,285 L 677.16814159292,285 Z" style="fill:blue;stroke:black;stroke-width:0.5;" />
	<text font-size="10" x="670.796460176991" y="297">100</text>
	<line stroke="black" stroke-width="2" x1="673.982300884956" x2="673.982300884956" y1="285" y2="283" />
	<line stroke="black" stroke-width="2" x1="673.982300884956" x2="673.982300884956" y1="285" y2="284" />
	<path d="M 677.16814159292,285 L 677.16814159292,285 L 683.53982300885,285 L 683.53982300885,285 Z" style="fill:blue;stroke:black;stroke-width:0.5;" />
	<path d="M 683.53982300885,285 L 683.53982300885,285 L 689.911504424779,285 L 689.911504424779,285 Z" style="fill:blue;stroke:black;stroke-width:0.5;" />
	<path d="M 689.911504424779,285 L 689.911504424779,285 L 696.283185840708,285 L 696.283185840708,285 Z" style="fill:blue;stroke:black;stroke-width:0.5;" />
	<path d="M 696.283185840708,285 L 696.283185840708,285 L 702.654867256637,285 L 702.654867256637,285 Z" style="fill:blue;stroke:black;stroke-width:0.5;" />
	<path d="M 702.654867256637,285 L 702.654867256637,285 L 709.026548672566,285 L 709.026548672566,285 Z" style="fill:blue;stroke:black;stroke-width:0.5;" />
	<line stroke="black" stroke-width="2" x1="705.840707964602" x2="705.840707964602" y1="285" y2="284" />
	<path d="M 709.026548672566,285 L 709.026548672566,285 L 715.398230088496,285 L 715.398230088496,285 Z" style="fill:blue;stroke:black;stroke-width:0.5;" />
	<path d="M 715.398230088496,285 L 715.398230088496,285 L 721.769911504425,285 L 721.769911504425,285 Z" style="fill:blue;stroke:black;stroke-width:0.5;" />
	<path d="M 721.769911504425,285 L 721.769911504425,285 L 728.141592920354,285 L 728.141592920354,285 Z" style="fill:blue;stroke:black;stroke-width:0.5;" />
	<path d="M 728.141592920354,285 L 728.141592920354,285 L 734.513274336283,285 L 734.513274336283,285 Z" style="fill:blue;stroke:black;stroke-width:0.5;" />
	<path d="M 734.513274336283,285 L 734.513274336283,285 L 740.884955752212,285 L 740.884955752212,285 Z" style="fill:blue;stroke:black;stroke-width:0.5;" />
	<text font-size="10" x="734.513274336283" y="297">110</text>
	<line stroke="black" stroke-width="2" x1="737.699115044248" x2="737.699115044248" y1="285" y2="283" />
	<line stroke="black" stroke-width="2" x1="737.699115044248" x2="737.699115044248" y1="285" y2="284" />
	<path d="M 740.884955752212,285 L 740.884955752212,285 L 747.256637168142,285 L 747.256637168142,285 Z" style="fill:blue;stroke:black;stroke-width:0.5;" />
	<path d="M 747.256637168142,285 L 747.256637168142,285 L 753.628318584071,285 L 753.628318584071,285 Z" style="fill:blue;stroke:black;stroke-width:0.5;" />
	<path d="M 753.628318584071,285 L 753.628318584071,285 L 760,285 L 760,285 Z" style="fill:blue;stroke:black;stroke-width:0.5;" />
	<!-- 
	Generated using the Perl SVG Module V2.50
	by Ronan Oger
	Info: http://www.roitsystems.com/
 -->
</svg>