<?xml version="1.0" encoding="UTF-8" standalone="yes"?>
<!DOCTYPE svg PUBLIC "-//W3C//DTD SVG 1.0//EN" "http://www.w3.org/TR/2001/REC-SVG-20010904/DTD/svg10.dtd">
<svg height="300" width="800" xmlns="http://www.w3.org/2000/svg" xmlns:svg="http://www.w3.org/2000/svg" xmlns:xlink="http://www.w3.org/1999/xlink">
	<line stroke="black" stroke-width="2" x1="40" x2="40" y1="15" y2="285" />
	<line stroke="black" stroke-width="2" x1="40" x2="45.3731343283582" y1="231" y2="231" />
	<text font-size="12" x="48.0597014925373" y="231">100</text>
	<line stroke="black" stroke-width="2" x1="40" x2="45.3731343283582" y1="177" y2="177" />
	<text font-size="12" x="48.0597014925373" y="177">200</text>
	<line stroke="black" stroke-width="2" x1="40" x2="45.3731343283582" y1="123" y2="123" />
	<text font-size="12" x="48.0597014925373" y="123">300</text>
	<line stroke="black" stroke-width="2" x1="40" x2="45.3731343283582" y1="69" y2="69" />
	<text font-size="12" x="48.0597014925373" y="69">400</text>
	<line stroke="black" stroke-width="2" x1="40" x2="45.3731343283582" y1="15" y2="15" />
	<text font-size="12" x="48.0597014925373" y="15">500</text>
	<line stroke="black" stroke-width="2" x1="40" x2="800" y1="285" y2="285" />
	<path d="M 40,285 L 40,285 L 45.3731343283582,285 L 45.3731343283582,285 Z" style="fill:blue;stroke:black;stroke-width:0.5;" />
	<path d="M 45.3731343283582,285 L 45.3731343283582,285 L 50.7462686567164,285 L 50.7462686567164,285 Z" style="fill:blue;stroke:black;stroke-width:0.5;" />
	<path d="M 50.7462686567164,285 L 50.7462686567164,285 L 56.1194029850746,285 L 56.1194029850746,285 Z" style="fill:blue;stroke:black;stroke-width:0.5;" />
	<path d="M 56.1194029850746,285 L 56.1194029850746,285 L 61.4925373134328,285 L 61.4925373134328,285 Z" style="fill:blue;stroke:black;stroke-width:0.5;" />
	<path d="M 61.4925373134328,285 L 61.4925373134328,285 L 66.865671641791,285 L 66.865671641791,285 Z" style="fill:blue;stroke:black;stroke-width:0.5;" />
	<line stroke="black" stroke-width="2" x1="64.1791044776119" x2="64.1791044776119" y1="285" y2="284" />
	<path d="M 66.865671641791,285 L 66.865671641791,285 L 72.2388059701493,285 L 72.2388059701493,285 Z" style="fill:blue;stroke:black;stroke-width:0.5;" />
	<path d="M 72.2388059701493,285 L 72.2388059701493,285 L 77.6119402985075,285 L 77.6119402985075,285 Z" style="fill:blue;stroke:black;stroke-width:0.5;" />
	<path d="M 77.6119402985075,285 L 77.6119402985075,285 L 82.9850746268657,285 L 82.9850746268657,285 Z" style="fill:blue;stroke:black;stroke-width:0.5;" />
	<path d="M 82.9850746268657,285 L 82.9850746268657,285 L 88.3582089552239,285 L 88.3582089552239,285 Z" style="fill:blue;stroke:black;stroke-width:0.5;" />
	<path d="M 88.3582089552239,285 L 88.3582089552239,285 L 93.7313432835821,285 L 93.7313432835821,285 Z" style="fill:blue;stroke:black;stroke-width:0.5;" />
	<text font-size="10" x="88.3582089552239" y="297">10</text>
	<line stroke="black" stroke-width="2" x1="91.044776119403" x2="91.044776119403" y1="285" y2="283" />
	<line stroke="black" stroke-width="2" x1="91.044776119403" x2="91.044776119403" y1="285" y2="284" />
	<path d="M 93.7313432835821,285 L 93.7313432835821,285 L 99.1044776119403,285 L 99.1044776119403,285 Z" style="fill:blue;stroke:black;stroke-width:0.5;" />
	<path d="M 99.1044776119403,285 L 99.1044776119403,285 L 104.477611940299,285 L 104.477611940299,285 Z" style="fill:blue;stroke:black;stroke-width:0.5;" />
	<path d="M 104.477611940299,285 L 104.477611940299,285 L 109.850746268657,285 L 109.850746268657,285 Z" style="fill:blue;stroke:black;stroke-width:0.5;" />
	<path d="M 109.850746268657,285 L 109.850746268657,285 L 115.223880597015,285 L 115.223880597015,285 Z" style="fill:blue;stroke:black;stroke-width:0.5;" />
	<path d="M 115.223880597015,285 L 115.223880597015,285 L 120.597014925373,285 L 120.597014925373,285 Z" style="fill:blue;stroke:black;stroke-width:0.5;" />
	<line stroke="black" stroke-width="2" x1="117.910447761194" x2="117.910447761194" y1="285" y2="284" />
	<path d="M 120.597014925373,285 L 120.597014925373,285 L 125.970149253731,285 L 125.970149253731,285 Z" style="fill:blue;stroke:black;stroke-width:0.5;" />
	<path d="M 125.970149253731,285 L 125.970149253731,285 L 131.34328358209,285 L 131.34328358209,285 Z" style="fill:blue;stroke:black;stroke-width:0.5;" />
	<path d="M 131.34328358209,285 L 131.34328358209,285 L 136.716417910448,285 L 136.716417910448,285 Z" style="fill:blue;stroke:black;stroke-width:0.5;" />
	<path d="M 136.716417910448,285 L 136.716417910448,285 L 142.089552238806,285 L 142.089552238806,285 Z" style="fill:blue;stroke:black;stroke-width:0.5;" />
	<path d="M 142.089552238806,285 L 142.089552238806,285 L 147.462686567164,285 L 147.462686567164,285 Z" style="fill:blue;stroke:black;stroke-width:0.5;" />
	<text font-size="10" x="142.089552238806" y="297">20</text>
	<line stroke="black" stroke-width="2" x1="144.776119402985" x2="144.776119402985" y1="285" y2="283" />
	<line stroke="black" stroke-width="2" x1="144.776119402985" x2="144.776119402985" y1="285" y2="284" />
	<path d="M 147.462686567164,285 L 147.462686567164,285 L 152.835820895522,285 L 152.835820895522,285 Z" style="fill:blue;stroke:black;stroke-width:0.5;" />
	<path d="M 152.835820895522,285 L 152.835820895522,285 L 158.208955223881,285 L 158.208955223881,285 Z" style="fill:blue;stroke:black;stroke-width:0.5;" />
	<path d="M 158.208955223881,285 L 158.208955223881,284.9406 L 163.582089552239,284.9406 L 163.582089552239,285 Z" style="fill:blue;stroke:black;stroke-width:0.5;" />
	<path d="M 163.582089552239,285 L 163.582089552239,284.9406 L 168.955223880597,284.9406 L 168.955223880597,285 Z" style="fill:blue;stroke:black;stroke-width:0.5;" />
	<path d="M 168.955223880597,285 L 168.955223880597,284.9406 L 174.328358208955,284.9406 L 174.328358208955,285 Z" style="fill:blue;stroke:black;stroke-width:0.5;" />
	<line stroke="black" stroke-width="2" x1="171.641791044776" x2="171.641791044776" y1="285" y2="284" />
	<path d="M 174.328358208955,285 L 174.328358208955,284.9406 L 179.701492537313,284.9406 L 179.701492537313,285 Z" style="fill:blue;stroke:black;stroke-width:0.5;" />
	<path d="M 179.701492537313,285 L 179.701492537313,284.9406 L 185.074626865672,284.9406 L 185.074626865672,285 Z" style="fill:blue;stroke:black;stroke-width:0.5;" />
	<path d="M 185.074626865672,285 L 185.074626865672,268.368 L 190.44776119403,268.368 L 190.44776119403,285 Z" style="fill:gold;stroke:black;stroke-width:0.5;" />
	<path d="M 190.44776119403,285 L 190.44776119403,268.1952 L 195.820895522388,268.1952 L 195.820895522388,285 Z" style="fill:gold;stroke:black;stroke-width:0.5;" />
	<path d="M 195.820895522388,285 L 195.820895522388,267.9954 L 201.194029850746,267.9954 L 201.194029850746,285 Z" style="fill:gold;stroke:black;stroke-width:0.5;" />
	<text font-size="10" x="195.820895522388" y="297">30</text>
	<line stroke="black" stroke-width="2" x1="198.507462686567" x2="198.507462686567" y1="285" y2="283" />
	<line stroke="black" stroke-width="2" x1="198.507462686567" x2="198.507462686567" y1="285" y2="284" />
	<path d="M 201.194029850746,285 L 201.194029850746,267.0558 L 206.567164179104,267.0558 L 206.567164179104,285 Z" style="fill:gold;stroke:black;stroke-width:0.5;" />
	<path d="M 206.567164179104,285 L 206.567164179104,267.0558 L 211.940298507463,267.0558 L 211.940298507463,285 Z" style="fill:gold;stroke:black;stroke-width:0.5;" />
	<path d="M 211.940298507463,285 L 211.940298507463,266.9424 L 217.313432835821,266.9424 L 217.313432835821,285 Z" style="fill:gold;stroke:black;stroke-width:0.5;" />
	<path d="M 217.313432835821,285 L 217.313432835821,266.9424 L 222.686567164179,266.9424 L 222.686567164179,285 Z" style="fill:gold;stroke:black;stroke-width:0.5;" />
	<path d="M 222.686567164179,285 L 222.686567164179,266.9424 L 228.059701492537,266.9424 L 228.059701492537,285 Z" style="fill:gold;stroke:black;stroke-width:0.5;" />
	<line stroke="black" stroke-width="2" x1="225.373134328358" x2="225.373134328358" y1="285" y2="284" />
	<path d="M 228.059701492537,285 L 228.059701492537,266.9424 L 233.432835820896,266.9424 L 233.432835820896,285 Z" style="fill:gold;stroke:black;stroke-width:0.5;" />
	<path d="M 233.432835820896,285 L 233.432835820896,266.9424 L 238.805970149254,266.9424 L 238.805970149254,285 Z" style="fill:gold;stroke:black;stroke-width:0.5;" />
	<path d="M 238.805970149254,285 L 238.805970149254,266.9424 L 244.179104477612,266.9424 L 244.179104477612,285 Z" style="fill:gold;stroke:black;stroke-width:0.5;" />
	<path d="M 244.179104477612,285 L 244.179104477612,266.9424 L 249.55223880597,266.9424 L 249.55223880597,285 Z" style="fill:gold;stroke:black;stroke-width:0.5;" />
	<path d="M 249.55223880597,285 L 249.55223880597,266.9424 L 254.925373134328,266.9424 L 254.925373134328,285 Z" style="fill:gold;stroke:black;stroke-width:0.5;" />
	<text font-size="10" x="249.55223880597" y="297">40</text>
	<line stroke="black" stroke-width="2" x1="252.238805970149" x2="252.238805970149" y1="285" y2="283" />
	<line stroke="black" stroke-width="2" x1="252.238805970149" x2="252.238805970149" y1="285" y2="284" />
	<path d="M 254.925373134328,285 L 254.925373134328,266.9424 L 260.298507462687,266.9424 L 260.298507462687,285 Z" style="fill:gold;stroke:black;stroke-width:0.5;" />
	<path d="M 260.298507462687,285 L 260.298507462687,266.9424 L 265.671641791045,266.9424 L 265.671641791045,285 Z" style="fill:gold;stroke:black;stroke-width:0.5;" />
	<path d="M 265.671641791045,285 L 265.671641791045,267.0018 L 271.044776119403,267.0018 L 271.044776119403,285 Z" style="fill:gold;stroke:black;stroke-width:0.5;" />
	<path d="M 271.044776119403,285 L 271.044776119403,267.0018 L 276.417910447761,267.0018 L 276.417910447761,285 Z" style="fill:gold;stroke:black;stroke-width:0.5;" />
	<path d="M 276.417910447761,285 L 276.417910447761,267.0018 L 281.791044776119,267.0018 L 281.791044776119,285 Z" style="fill:gold;stroke:black;stroke-width:0.5;" />
	<line stroke="black" stroke-width="2" x1="279.10447761194" x2="279.10447761194" y1="285" y2="284" />
	<path d="M 281.791044776119,285 L 281.791044776119,267.0018 L 287.164179104478,267.0018 L 287.164179104478,285 Z" style="fill:gold;stroke:black;stroke-width:0.5;" />
	<path d="M 287.164179104478,285 L 287.164179104478,267.0018 L 292.537313432836,267.0018 L 292.537313432836,285 Z" style="fill:gold;stroke:black;stroke-width:0.5;" />
	<path d="M 292.537313432836,285 L 292.537313432836,267.0612 L 297.910447761194,267.0612 L 297.910447761194,285 Z" style="fill:gold;stroke:black;stroke-width:0.5;" />
	<path d="M 297.910447761194,285 L 297.910447761194,283.8876 L 303.283582089552,283.8876 L 303.283582089552,285 Z" style="fill:blue;stroke:black;stroke-width:0.5;" />
	<path d="M 303.283582089552,285 L 303.283582089552,284.2926 L 308.65671641791,284.2926 L 308.65671641791,285 Z" style="fill:blue;stroke:black;stroke-width:0.5;" />
	<text font-size="10" x="303.283582089552" y="297">50</text>
	<line stroke="black" stroke-width="2" x1="305.970149253731" x2="305.970149253731" y1="285" y2="283" />
	<line stroke="black" stroke-width="2" x1="305.970149253731" x2="305.970149253731" y1="285" y2="284" />
	<path d="M 308.65671641791,285 L 308.65671641791,284.433 L 314.029850746269,284.433 L 314.029850746269,285 Z" style="fill:blue;stroke:black;stroke-width:0.5;" />
	<path d="M 314.029850746269,285 L 314.029850746269,284.8866 L 319.402985074627,284.8866 L 319.402985074627,285 Z" style="fill:blue;stroke:black;stroke-width:0.5;" />
	<path d="M 319.402985074627,285 L 319.402985074627,284.8866 L 324.776119402985,284.8866 L 324.776119402985,285 Z" style="fill:blue;stroke:black;stroke-width:0.5;" />
	<path d="M 324.776119402985,285 L 324.776119402985,285 L 330.149253731343,285 L 330.149253731343,285 Z" style="fill:blue;stroke:black;stroke-width:0.5;" />
	<path d="M 330.149253731343,285 L 330.149253731343,285 L 335.522388059702,285 L 335.522388059702,285 Z" style="fill:blue;stroke:black;stroke-width:0.5;" />
	<line stroke="black" stroke-width="2" x1="332.835820895522" x2="332.835820895522" y1="285" y2="284" />
	<path d="M 335.522388059702,285 L 335.522388059702,285 L 340.89552238806,285 L 340.89552238806,285 Z" style="fill:blue;stroke:black;stroke-width:0.5;" />
	<path d="M 340.89552238806,285 L 340.89552238806,285 L 346.268656716418,285 L 346.268656716418,285 Z" style="fill:blue;stroke:black;stroke-width:0.5;" />
	<path d="M 346.268656716418,285 L 346.268656716418,285 L 351.641791044776,285 L 351.641791044776,285 Z" style="fill:blue;stroke:black;stroke-width:0.5;" />
	<path d="M 351.641791044776,285 L 351.641791044776,285 L 357.014925373134,285 L 357.014925373134,285 Z" style="fill:blue;stroke:black;stroke-width:0.5;" />
	<path d="M 357.014925373134,285 L 357.014925373134,285 L 362.388059701493,285 L 362.388059701493,285 Z" style="fill:blue;stroke:black;stroke-width:0.5;" />
	<text font-size="10" x="357.014925373134" y="297">60</text>
	<line stroke="black" stroke-width="2" x1="359.701492537313" x2="359.701492537313" y1="285" y2="283" />
	<line stroke="black" stroke-width="2" x1="359.701492537313" x2="359.701492537313" y1="285" y2="284" />
	<path d="M 362.388059701493,285 L 362.388059701493,285 L 367.761194029851,285 L 367.761194029851,285 Z" style="fill:blue;stroke:black;stroke-width:0.5;" />
	<path d="M 367.761194029851,285 L 367.761194029851,285 L 373.134328358209,285 L 373.134328358209,285 Z" style="fill:blue;stroke:black;stroke-width:0.5;" />
	<path d="M 373.134328358209,285 L 373.134328358209,285 L 378.507462686567,285 L 378.507462686567,285 Z" style="fill:blue;stroke:black;stroke-width:0.5;" />
	<path d="M 378.507462686567,285 L 378.507462686567,285 L 383.880597014925,285 L 383.880597014925,285 Z" style="fill:blue;stroke:black;stroke-width:0.5;" />
	<path d="M 383.880597014925,285 L 383.880597014925,285 L 389.253731343284,285 L 389.253731343284,285 Z" style="fill:blue;stroke:black;stroke-width:0.5;" />
	<line stroke="black" stroke-width="2" x1="386.567164179105" x2="386.567164179105" y1="285" y2="284" />
	<path d="M 389.253731343284,285 L 389.253731343284,285 L 394.626865671642,285 L 394.626865671642,285 Z" style="fill:blue;stroke:black;stroke-width:0.5;" />
	<path d="M 394.626865671642,285 L 394.626865671642,285 L 400,285 L 400,285 Z" style="fill:blue;stroke:black;stroke-width:0.5;" />
	<path d="M 400,285 L 400,285 L 405.373134328358,285 L 405.373134328358,285 Z" style="fill:blue;stroke:black;stroke-width:0.5;" />
	<path d="M 405.373134328358,285 L 405.373134328358,285 L 410.746268656716,285 L 410.746268656716,285 Z" style="fill:blue;stroke:black;stroke-width:0.5;" />
	<path d="M 410.746268656716,285 L 410.746268656716,285 L 416.119402985075,285 L 416.119402985075,285 Z" style="fill:blue;stroke:black;stroke-width:0.5;" />
	<text font-size="10" x="410.746268656716" y="297">70</text>
	<line stroke="black" stroke-width="2" x1="413.432835820896" x2="413.432835820896" y1="285" y2="283" />
	<line stroke="black" stroke-width="2" x1="413.432835820896" x2="413.432835820896" y1="285" y2="284" />
	<path d="M 416.119402985075,285 L 416.119402985075,285 L 421.492537313433,285 L 421.492537313433,285 Z" style="fill:blue;stroke:black;stroke-width:0.5;" />
	<path d="M 421.492537313433,285 L 421.492537313433,285 L 426.865671641791,285 L 426.865671641791,285 Z" style="fill:blue;stroke:black;stroke-width:0.5;" />
	<path d="M 426.865671641791,285 L 426.865671641791,285 L 432.238805970149,285 L 432.238805970149,285 Z" style="fill:blue;stroke:black;stroke-width:0.5;" />
	<path d="M 432.238805970149,285 L 432.238805970149,285 L 437.611940298507,285 L 437.611940298507,285 Z" style="fill:blue;stroke:black;stroke-width:0.5;" />
	<path d="M 437.611940298507,285 L 437.611940298507,285 L 442.985074626866,285 L 442.985074626866,285 Z" style="fill:blue;stroke:black;stroke-width:0.5;" />
	<line stroke="black" stroke-width="2" x1="440.298507462687" x2="440.298507462687" y1="285" y2="284" />
	<path d="M 442.985074626866,285 L 442.985074626866,285 L 448.358208955224,285 L 448.358208955224,285 Z" style="fill:blue;stroke:black;stroke-width:0.5;" />
	<path d="M 448.358208955224,285 L 448.358208955224,285 L 453.731343283582,285 L 453.731343283582,285 Z" style="fill:blue;stroke:black;stroke-width:0.5;" />
	<path d="M 453.731343283582,285 L 453.731343283582,285 L 459.10447761194,285 L 459.10447761194,285 Z" style="fill:blue;stroke:black;stroke-width:0.5;" />
	<path d="M 459.10447761194,285 L 459.10447761194,285 L 464.477611940299,285 L 464.477611940299,285 Z" style="fill:blue;stroke:black;stroke-width:0.5;" />
	<path d="M 464.477611940299,285 L 464.477611940299,285 L 469.850746268657,285 L 469.850746268657,285 Z" style="fill:blue;stroke:black;stroke-width:0.5;" />
	<text font-size="10" x="464.477611940299" y="297">80</text>
	<line stroke="black" stroke-width="2" x1="467.164179104478" x2="467.164179104478" y1="285" y2="283" />
	<line stroke="black" stroke-width="2" x1="467.164179104478" x2="467.164179104478" y1="285" y2="284" />
	<path d="M 469.850746268657,285 L 469.850746268657,284.9406 L 475.223880597015,284.9406 L 475.223880597015,285 Z" style="fill:blue;stroke:black;stroke-width:0.5;" />
	<path d="M 475.223880597015,285 L 475.223880597015,284.9406 L 480.597014925373,284.9406 L 480.597014925373,285 Z" style="fill:blue;stroke:black;stroke-width:0.5;" />
	<path d="M 480.597014925373,285 L 480.597014925373,284.8812 L 485.970149253731,284.8812 L 485.970149253731,285 Z" style="fill:blue;stroke:black;stroke-width:0.5;" />
	<path d="M 485.970149253731,285 L 485.970149253731,284.7678 L 491.34328358209,284.7678 L 491.34328358209,285 Z" style="fill:blue;stroke:black;stroke-width:0.5;" />
	<path d="M 491.34328358209,285 L 491.34328358209,284.7678 L 496.716417910448,284.7678 L 496.716417910448,285 Z" style="fill:blue;stroke:black;stroke-width:0.5;" />
	<line stroke="black" stroke-width="2" x1="494.029850746269" x2="494.029850746269" y1="285" y2="284" />
	<path d="M 496.716417910448,285 L 496.716417910448,284.7678 L 502.089552238806,284.7678 L 502.089552238806,285 Z" style="fill:blue;stroke:black;stroke-width:0.5;" />
	<path d="M 502.089552238806,285 L 502.089552238806,284.7084 L 507.462686567164,284.7084 L 507.462686567164,285 Z" style="fill:blue;stroke:black;stroke-width:0.5;" />
	<path d="M 507.462686567164,285 L 507.462686567164,284.4816 L 512.835820895522,284.4816 L 512.835820895522,285 Z" style="fill:blue;stroke:black;stroke-width:0.5;" />
	<path d="M 512.835820895522,285 L 512.835820895522,156.0318 L 518.208955223881,156.0318 L 518.208955223881,285 Z" style="fill:gold;stroke:black;stroke-width:0.5;" />
	<path d="M 518.208955223881,285 L 518.208955223881,149.8596 L 523.582089552239,149.8596 L 523.582089552239,285 Z" style="fill:gold;stroke:black;stroke-width:0.5;" />
	<text font-size="10" x="518.208955223881" y="297">90</text>
	<line stroke="black" stroke-width="2" x1="520.89552238806" x2="520.89552238806" y1="285" y2="283" />
	<line stroke="black" stroke-width="2" x1="520.89552238806" x2="520.89552238806" y1="285" y2="284" />
	<path d="M 523.582089552239,285 L 523.582089552239,149.8002 L 528.955223880597,149.8002 L 528.955223880597,285 Z" style="fill:gold;stroke:black;stroke-width:0.5;" />
	<path d="M 528.955223880597,285 L 528.955223880597,149.8002 L 534.328358208955,149.8002 L 534.328358208955,285 Z" style="fill:gold;stroke:black;stroke-width:0.5;" />
	<path d="M 534.328358208955,285 L 534.328358208955,149.8002 L 539.701492537313,149.8002 L 539.701492537313,285 Z" style="fill:gold;stroke:black;stroke-width:0.5;" />
	<path d="M 539.701492537313,285 L 539.701492537313,149.8002 L 545.074626865672,149.8002 L 545.074626865672,285 Z" style="fill:gold;stroke:black;stroke-width:0.5;" />
	<path d="M 545.074626865672,285 L 545.074626865672,149.8002 L 550.44776119403,149.8002 L 550.44776119403,285 Z" style="fill:gold;stroke:black;stroke-width:0.5;" />
	<line stroke="black" stroke-width="2" x1="547.761194029851" x2="547.761194029851" y1="285" y2="284" />
	<path d="M 550.44776119403,285 L 550.44776119403,149.8002 L 555.820895522388,149.8002 L 555.820895522388,285 Z" style="fill:gold;stroke:black;stroke-width:0.5;" />
	<path d="M 555.820895522388,285 L 555.820895522388,149.8002 L 561.194029850746,149.8002 L 561.194029850746,285 Z" style="fill:gold;stroke:black;stroke-width:0.5;" />
	<path d="M 561.194029850746,285 L 561.194029850746,149.8002 L 566.567164179105,149.8002 L 566.567164179105,285 Z" style="fill:gold;stroke:black;stroke-width:0.5;" />
	<path d="M 566.567164179105,285 L 566.567164179105,149.8002 L 571.940298507463,149.8002 L 571.940298507463,285 Z" style="fill:gold;stroke:black;stroke-width:0.5;" />
	<path d="M 571.940298507463,285 L 571.940298507463,149.8002 L 577.313432835821,149.8002 L 577.313432835821,285 Z" style="fill:gold;stroke:black;stroke-width:0.5;" />
	<text font-size="10" x="571.940298507463" y="297">100</text>
	<line stroke="black" stroke-width="2" x1="574.626865671642" x2="574.626865671642" y1="285" y2="283" />
	<line stroke="black" stroke-width="2" x1="574.626865671642" x2="574.626865671642" y1="285" y2="284" />
	<path d="M 577.313432835821,285 L 577.313432835821,149.8596 L 582.686567164179,149.8596 L 582.686567164179,285 Z" style="fill:gold;stroke:black;stroke-width:0.5;" />
	<path d="M 582.686567164179,285 L 582.686567164179,149.8596 L 588.059701492537,149.8596 L 588.059701492537,285 Z" style="fill:gold;stroke:black;stroke-width:0.5;" />
	<path d="M 588.059701492537,285 L 588.059701492537,149.8596 L 593.432835820896,149.8596 L 593.432835820896,285 Z" style="fill:gold;stroke:black;stroke-width:0.5;" />
	<path d="M 593.432835820896,285 L 593.432835820896,149.973 L 598.805970149254,149.973 L 598.805970149254,285 Z" style="fill:gold;stroke:black;stroke-width:0.5;" />
	<path d="M 598.805970149254,285 L 598.805970149254,150.6048 L 604.179104477612,150.6048 L 604.179104477612,285 Z" style="fill:gold;stroke:black;stroke-width:0.5;" />
	<line stroke="black" stroke-width="2" x1="601.492537313433" x2="601.492537313433" y1="285" y2="284" />
	<path d="M 604.179104477612,285 L 604.179104477612,150.6642 L 609.55223880597,150.6642 L 609.55223880597,285 Z" style="fill:gold;stroke:black;stroke-width:0.5;" />
	<path d="M 609.55223880597,285 L 609.55223880597,151.836 L 614.925373134328,151.836 L 614.925373134328,285 Z" style="fill:gold;stroke:black;stroke-width:0.5;" />
	<path d="M 614.925373134328,285 L 614.925373134328,155.6646 L 620.298507462687,155.6646 L 620.298507462687,285 Z" style="fill:gold;stroke:black;stroke-width:0.5;" />
	<path d="M 620.298507462687,285 L 620.298507462687,158.2134 L 625.671641791045,158.2134 L 625.671641791045,285 Z" style="fill:gold;stroke:black;stroke-width:0.5;" />
	<path d="M 625.671641791045,285 L 625.671641791045,281.8032 L 631.044776119403,281.8032 L 631.044776119403,285 Z" style="fill:blue;stroke:black;stroke-width:0.5;" />
	<text font-size="10" x="625.671641791045" y="297">110</text>
	<line stroke="black" stroke-width="2" x1="628.358208955224" x2="628.358208955224" y1="285" y2="283" />
	<line stroke="black" stroke-width="2" x1="628.358208955224" x2="628.358208955224" y1="285" y2="284" />
	<path d="M 631.044776119403,285 L 631.044776119403,284.6652 L 636.417910447761,284.6652 L 636.417910447761,285 Z" style="fill:blue;stroke:black;stroke-width:0.5;" />
	<path d="M 636.417910447761,285 L 636.417910447761,284.8056 L 641.791044776119,284.8056 L 641.791044776119,285 Z" style="fill:blue;stroke:black;stroke-width:0.5;" />
	<path d="M 641.791044776119,285 L 641.791044776119,285 L 647.164179104478,285 L 647.164179104478,285 Z" style="fill:blue;stroke:black;stroke-width:0.5;" />
	<path d="M 647.164179104478,285 L 647.164179104478,285 L 652.537313432836,285 L 652.537313432836,285 Z" style="fill:blue;stroke:black;stroke-width:0.5;" />
	<path d="M 652.537313432836,285 L 652.537313432836,285 L 657.910447761194,285 L 657.910447761194,285 Z" style="fill:blue;stroke:black;stroke-width:0.5;" />
	<line stroke="black" stroke-width="2" x1="655.223880597015" x2="655.223880597015" y1="285" y2="284" />
	<path d="M 657.910447761194,285 L 657.910447761194,285 L 663.283582089552,285 L 663.283582089552,285 Z" style="fill:blue;stroke:black;stroke-width:0.5;" />
	<path d="M 663.283582089552,285 L 663.283582089552,285 L 668.656716417911,285 L 668.656716417911,285 Z" style="fill:blue;stroke:black;stroke-width:0.5;" />
	<path d="M 668.656716417911,285 L 668.656716417911,285 L 674.029850746269,285 L 674.029850746269,285 Z" style="fill:blue;stroke:black;stroke-width:0.5;" />
	<path d="M 674.029850746269,285 L 674.029850746269,285 L 679.402985074627,285 L 679.402985074627,285 Z" style="fill:blue;stroke:black;stroke-width:0.5;" />
	<path d="M 679.402985074627,285 L 679.402985074627,285 L 684.776119402985,285 L 684.776119402985,285 Z" style="fill:blue;stroke:black;stroke-width:0.5;" />
	<text font-size="10" x="679.402985074627" y="297">120</text>
	<line stroke="black" stroke-width="2" x1="682.089552238806" x2="682.089552238806" y1="285" y2="283" />
	<line stroke="black" stroke-width="2" x1="682.089552238806" x2="682.089552238806" y1="285" y2="284" />
	<path d="M 684.776119402985,285 L 684.776119402985,285 L 690.149253731343,285 L 690.149253731343,285 Z" style="fill:blue;stroke:black;stroke-width:0.5;" />
	<path d="M 690.149253731343,285 L 690.149253731343,285 L 695.522388059702,285 L 695.522388059702,285 Z" style="fill:blue;stroke:black;stroke-width:0.5;" />
	<path d="M 695.522388059702,285 L 695.522388059702,285 L 700.89552238806,285 L 700.89552238806,285 Z" style="fill:blue;stroke:black;stroke-width:0.5;" />
	<path d="M 700.89552238806,285 L 700.89552238806,285 L 706.268656716418,285 L 706.268656716418,285 Z" style="fill:blue;stroke:black;stroke-width:0.5;" />
	<path d="M 706.268656716418,285 L 706.268656716418,285 L 711.641791044776,285 L 711.641791044776,285 Z" style="fill:blue;stroke:black;stroke-width:0.5;" />
	<line stroke="black" stroke-width="2" x1="708.955223880597" x2="708.955223880597" y1="285" y2="284" />
	<path d="M 711.641791044776,285 L 711.641791044776,285 L 717.014925373134,285 L 717.014925373134,285 Z" style="fill:blue;stroke:black;stroke-width:0.5;" />
	<path d="M 717.014925373134,285 L 717.014925373134,285 L 722.388059701493,285 L 722.388059701493,285 Z" style="fill:blue;stroke:black;stroke-width:0.5;" />
	<path d="M 722.388059701493,285 L 722.388059701493,285 L 727.761194029851,285 L 727.761194029851,285 Z" style="fill:blue;stroke:black;stroke-width:0.5;" />
	<path d="M 727.761194029851,285 L 727.761194029851,285 L 733.134328358209,285 L 733.134328358209,285 Z" style="fill:blue;stroke:black;stroke-width:0.5;" />
	<path d="M 733.134328358209,285 L 733.134328358209,285 L 738.507462686567,285 L 738.507462686567,285 Z" style="fill:blue;stroke:black;stroke-width:0.5;" />
	<text font-size="10" x="733.134328358209" y="297">130</text>
	<line stroke="black" stroke-width="2" x1="735.820895522388" x2="735.820895522388" y1="285" y2="283" />
	<line stroke="black" stroke-width="2" x1="735.820895522388" x2="735.820895522388" y1="285" y2="284" />
	<path d="M 738.507462686567,285 L 738.507462686567,285 L 743.880597014925,285 L 743.880597014925,285 Z" style="fill:blue;stroke:black;stroke-width:0.5;" />
	<path d="M 743.880597014925,285 L 743.880597014925,285 L 749.253731343284,285 L 749.253731343284,285 Z" style="fill:blue;stroke:black;stroke-width:0.5;" />
	<path d="M 749.253731343284,285 L 749.253731343284,285 L 754.626865671642,285 L 754.626865671642,285 Z" style="fill:blue;stroke:black;stroke-width:0.5;" />
	<path d="M 754.626865671642,285 L 754.626865671642,285 L 760,285 L 760,285 Z" style="fill:blue;stroke:black;stroke-width:0.5;" />
	<!-- 
	Generated using the Perl SVG Module V2.50
	by Ronan Oger
	Info: http://www.roitsystems.com/
 -->
</svg>