<?xml version="1.0" encoding="UTF-8" standalone="yes"?>
<!DOCTYPE svg PUBLIC "-//W3C//DTD SVG 1.0//EN" "http://www.w3.org/TR/2001/REC-SVG-20010904/DTD/svg10.dtd">
<svg height="300" width="800" xmlns="http://www.w3.org/2000/svg" xmlns:svg="http://www.w3.org/2000/svg" xmlns:xlink="http://www.w3.org/1999/xlink">
	<line stroke="black" stroke-width="2" x1="40" x2="40" y1="15" y2="285" />
	<line stroke="black" stroke-width="2" x1="40" x2="44.5569620253165" y1="231" y2="231" />
	<text font-size="12" x="46.8354430379747" y="231">1000</text>
	<line stroke="black" stroke-width="2" x1="40" x2="44.5569620253165" y1="177" y2="177" />
	<text font-size="12" x="46.8354430379747" y="177">2000</text>
	<line stroke="black" stroke-width="2" x1="40" x2="44.5569620253165" y1="123" y2="123" />
	<text font-size="12" x="46.8354430379747" y="123">3000</text>
	<line stroke="black" stroke-width="2" x1="40" x2="44.5569620253165" y1="69" y2="69" />
	<text font-size="12" x="46.8354430379747" y="69">4000</text>
	<line stroke="black" stroke-width="2" x1="40" x2="44.5569620253165" y1="15" y2="15" />
	<text font-size="12" x="46.8354430379747" y="15">5000</text>
	<line stroke="black" stroke-width="2" x1="40" x2="800" y1="285" y2="285" />
	<path d="M 40,285 L 40,285 L 44.5569620253165,285 L 44.5569620253165,285 Z" style="fill:blue;stroke:black;stroke-width:0.5;" />
	<path d="M 44.5569620253165,285 L 44.5569620253165,285 L 49.1139240506329,285 L 49.1139240506329,285 Z" style="fill:blue;stroke:black;stroke-width:0.5;" />
	<path d="M 49.1139240506329,285 L 49.1139240506329,285 L 53.6708860759494,285 L 53.6708860759494,285 Z" style="fill:blue;stroke:black;stroke-width:0.5;" />
	<path d="M 53.6708860759494,285 L 53.6708860759494,285 L 58.2278481012658,285 L 58.2278481012658,285 Z" style="fill:blue;stroke:black;stroke-width:0.5;" />
	<path d="M 58.2278481012658,285 L 58.2278481012658,284.98866 L 62.7848101265823,284.98866 L 62.7848101265823,285 Z" style="fill:blue;stroke:black;stroke-width:0.5;" />
	<line stroke="black" stroke-width="2" x1="60.5063291139241" x2="60.5063291139241" y1="285" y2="284" />
	<path d="M 62.7848101265823,285 L 62.7848101265823,284.98866 L 67.3417721518987,284.98866 L 67.3417721518987,285 Z" style="fill:blue;stroke:black;stroke-width:0.5;" />
	<path d="M 67.3417721518987,285 L 67.3417721518987,284.98866 L 71.8987341772152,284.98866 L 71.8987341772152,285 Z" style="fill:blue;stroke:black;stroke-width:0.5;" />
	<path d="M 71.8987341772152,285 L 71.8987341772152,284.96598 L 76.4556962025316,284.96598 L 76.4556962025316,285 Z" style="fill:blue;stroke:black;stroke-width:0.5;" />
	<path d="M 76.4556962025316,285 L 76.4556962025316,284.96598 L 81.0126582278481,284.96598 L 81.0126582278481,285 Z" style="fill:blue;stroke:black;stroke-width:0.5;" />
	<path d="M 81.0126582278481,285 L 81.0126582278481,284.96598 L 85.5696202531646,284.96598 L 85.5696202531646,285 Z" style="fill:blue;stroke:black;stroke-width:0.5;" />
	<text font-size="10" x="81.0126582278481" y="297">10</text>
	<line stroke="black" stroke-width="2" x1="83.2911392405063" x2="83.2911392405063" y1="285" y2="283" />
	<line stroke="black" stroke-width="2" x1="83.2911392405063" x2="83.2911392405063" y1="285" y2="284" />
	<path d="M 85.5696202531646,285 L 85.5696202531646,284.96004 L 90.126582278481,284.96004 L 90.126582278481,285 Z" style="fill:blue;stroke:black;stroke-width:0.5;" />
	<path d="M 90.126582278481,285 L 90.126582278481,284.96004 L 94.6835443037975,284.96004 L 94.6835443037975,285 Z" style="fill:blue;stroke:black;stroke-width:0.5;" />
	<path d="M 94.6835443037975,285 L 94.6835443037975,284.96004 L 99.2405063291139,284.96004 L 99.2405063291139,285 Z" style="fill:blue;stroke:black;stroke-width:0.5;" />
	<path d="M 99.2405063291139,285 L 99.2405063291139,284.96004 L 103.79746835443,284.96004 L 103.79746835443,285 Z" style="fill:blue;stroke:black;stroke-width:0.5;" />
	<path d="M 103.79746835443,285 L 103.79746835443,284.96004 L 108.354430379747,284.96004 L 108.354430379747,285 Z" style="fill:blue;stroke:black;stroke-width:0.5;" />
	<line stroke="black" stroke-width="2" x1="106.075949367089" x2="106.075949367089" y1="285" y2="284" />
	<path d="M 108.354430379747,285 L 108.354430379747,284.96004 L 112.911392405063,284.96004 L 112.911392405063,285 Z" style="fill:blue;stroke:black;stroke-width:0.5;" />
	<path d="M 112.911392405063,285 L 112.911392405063,284.96004 L 117.46835443038,284.96004 L 117.46835443038,285 Z" style="fill:blue;stroke:black;stroke-width:0.5;" />
	<path d="M 117.46835443038,285 L 117.46835443038,284.88498 L 122.025316455696,284.88498 L 122.025316455696,285 Z" style="fill:blue;stroke:black;stroke-width:0.5;" />
	<path d="M 122.025316455696,285 L 122.025316455696,284.87904 L 126.582278481013,284.87904 L 126.582278481013,285 Z" style="fill:blue;stroke:black;stroke-width:0.5;" />
	<path d="M 126.582278481013,285 L 126.582278481013,284.87904 L 131.139240506329,284.87904 L 131.139240506329,285 Z" style="fill:blue;stroke:black;stroke-width:0.5;" />
	<text font-size="10" x="126.582278481013" y="297">20</text>
	<line stroke="black" stroke-width="2" x1="128.860759493671" x2="128.860759493671" y1="285" y2="283" />
	<line stroke="black" stroke-width="2" x1="128.860759493671" x2="128.860759493671" y1="285" y2="284" />
	<path d="M 131.139240506329,285 L 131.139240506329,284.87904 L 135.696202531646,284.87904 L 135.696202531646,285 Z" style="fill:blue;stroke:black;stroke-width:0.5;" />
	<path d="M 135.696202531646,285 L 135.696202531646,284.87904 L 140.253164556962,284.87904 L 140.253164556962,285 Z" style="fill:blue;stroke:black;stroke-width:0.5;" />
	<path d="M 140.253164556962,285 L 140.253164556962,284.80776 L 144.810126582278,284.80776 L 144.810126582278,285 Z" style="fill:blue;stroke:black;stroke-width:0.5;" />
	<path d="M 144.810126582278,285 L 144.810126582278,284.80776 L 149.367088607595,284.80776 L 149.367088607595,285 Z" style="fill:blue;stroke:black;stroke-width:0.5;" />
	<path d="M 149.367088607595,285 L 149.367088607595,284.80182 L 153.924050632911,284.80182 L 153.924050632911,285 Z" style="fill:blue;stroke:black;stroke-width:0.5;" />
	<line stroke="black" stroke-width="2" x1="151.645569620253" x2="151.645569620253" y1="285" y2="284" />
	<path d="M 153.924050632911,285 L 153.924050632911,284.81316 L 158.481012658228,284.81316 L 158.481012658228,285 Z" style="fill:blue;stroke:black;stroke-width:0.5;" />
	<path d="M 158.481012658228,285 L 158.481012658228,284.80182 L 163.037974683544,284.80182 L 163.037974683544,285 Z" style="fill:blue;stroke:black;stroke-width:0.5;" />
	<path d="M 163.037974683544,285 L 163.037974683544,284.80182 L 167.594936708861,284.80182 L 167.594936708861,285 Z" style="fill:blue;stroke:black;stroke-width:0.5;" />
	<path d="M 167.594936708861,285 L 167.594936708861,284.80776 L 172.151898734177,284.80776 L 172.151898734177,285 Z" style="fill:blue;stroke:black;stroke-width:0.5;" />
	<path d="M 172.151898734177,285 L 172.151898734177,229.80984 L 176.708860759494,229.80984 L 176.708860759494,285 Z" style="fill:gold;stroke:black;stroke-width:0.5;" />
	<text font-size="10" x="172.151898734177" y="297">30</text>
	<line stroke="black" stroke-width="2" x1="174.430379746835" x2="174.430379746835" y1="285" y2="283" />
	<line stroke="black" stroke-width="2" x1="174.430379746835" x2="174.430379746835" y1="285" y2="284" />
	<path d="M 176.708860759494,285 L 176.708860759494,212.60598 L 181.26582278481,212.60598 L 181.26582278481,285 Z" style="fill:gold;stroke:black;stroke-width:0.5;" />
	<path d="M 181.26582278481,285 L 181.26582278481,211.02 L 185.822784810127,211.02 L 185.822784810127,285 Z" style="fill:gold;stroke:black;stroke-width:0.5;" />
	<path d="M 185.822784810127,285 L 185.822784810127,211.02 L 190.379746835443,211.02 L 190.379746835443,285 Z" style="fill:gold;stroke:black;stroke-width:0.5;" />
	<path d="M 190.379746835443,285 L 190.379746835443,211.02 L 194.936708860759,211.02 L 194.936708860759,285 Z" style="fill:gold;stroke:black;stroke-width:0.5;" />
	<path d="M 194.936708860759,285 L 194.936708860759,211.02 L 199.493670886076,211.02 L 199.493670886076,285 Z" style="fill:gold;stroke:black;stroke-width:0.5;" />
	<line stroke="black" stroke-width="2" x1="197.215189873418" x2="197.215189873418" y1="285" y2="284" />
	<path d="M 199.493670886076,285 L 199.493670886076,211.01406 L 204.050632911392,211.01406 L 204.050632911392,285 Z" style="fill:gold;stroke:black;stroke-width:0.5;" />
	<path d="M 204.050632911392,285 L 204.050632911392,211.01406 L 208.607594936709,211.01406 L 208.607594936709,285 Z" style="fill:gold;stroke:black;stroke-width:0.5;" />
	<path d="M 208.607594936709,285 L 208.607594936709,211.04862 L 213.164556962025,211.04862 L 213.164556962025,285 Z" style="fill:gold;stroke:black;stroke-width:0.5;" />
	<path d="M 213.164556962025,285 L 213.164556962025,211.08318 L 217.721518987342,211.08318 L 217.721518987342,285 Z" style="fill:gold;stroke:black;stroke-width:0.5;" />
	<path d="M 217.721518987342,285 L 217.721518987342,211.08912 L 222.278481012658,211.08912 L 222.278481012658,285 Z" style="fill:gold;stroke:black;stroke-width:0.5;" />
	<text font-size="10" x="217.721518987342" y="297">40</text>
	<line stroke="black" stroke-width="2" x1="220" x2="220" y1="285" y2="283" />
	<line stroke="black" stroke-width="2" x1="220" x2="220" y1="285" y2="284" />
	<path d="M 222.278481012658,285 L 222.278481012658,211.08912 L 226.835443037975,211.08912 L 226.835443037975,285 Z" style="fill:gold;stroke:black;stroke-width:0.5;" />
	<path d="M 226.835443037975,285 L 226.835443037975,211.08912 L 231.392405063291,211.08912 L 231.392405063291,285 Z" style="fill:gold;stroke:black;stroke-width:0.5;" />
	<path d="M 231.392405063291,285 L 231.392405063291,211.08912 L 235.949367088608,211.08912 L 235.949367088608,285 Z" style="fill:gold;stroke:black;stroke-width:0.5;" />
	<path d="M 235.949367088608,285 L 235.949367088608,211.11774 L 240.506329113924,211.11774 L 240.506329113924,285 Z" style="fill:gold;stroke:black;stroke-width:0.5;" />
	<path d="M 240.506329113924,285 L 240.506329113924,211.1577 L 245.063291139241,211.1577 L 245.063291139241,285 Z" style="fill:gold;stroke:black;stroke-width:0.5;" />
	<line stroke="black" stroke-width="2" x1="242.784810126582" x2="242.784810126582" y1="285" y2="284" />
	<path d="M 245.063291139241,285 L 245.063291139241,211.3278 L 249.620253164557,211.3278 L 249.620253164557,285 Z" style="fill:gold;stroke:black;stroke-width:0.5;" />
	<path d="M 249.620253164557,285 L 249.620253164557,211.37586 L 254.177215189873,211.37586 L 254.177215189873,285 Z" style="fill:gold;stroke:black;stroke-width:0.5;" />
	<path d="M 254.177215189873,285 L 254.177215189873,211.51896 L 258.73417721519,211.51896 L 258.73417721519,285 Z" style="fill:gold;stroke:black;stroke-width:0.5;" />
	<path d="M 258.73417721519,285 L 258.73417721519,211.5762 L 263.291139240506,211.5762 L 263.291139240506,285 Z" style="fill:gold;stroke:black;stroke-width:0.5;" />
	<path d="M 263.291139240506,285 L 263.291139240506,211.71498 L 267.848101265823,211.71498 L 267.848101265823,285 Z" style="fill:gold;stroke:black;stroke-width:0.5;" />
	<text font-size="10" x="263.291139240506" y="297">50</text>
	<line stroke="black" stroke-width="2" x1="265.569620253165" x2="265.569620253165" y1="285" y2="283" />
	<line stroke="black" stroke-width="2" x1="265.569620253165" x2="265.569620253165" y1="285" y2="284" />
	<path d="M 267.848101265823,285 L 267.848101265823,266.7372 L 272.405063291139,266.7372 L 272.405063291139,285 Z" style="fill:blue;stroke:black;stroke-width:0.5;" />
	<path d="M 272.405063291139,285 L 272.405063291139,283.56036 L 276.962025316456,283.56036 L 276.962025316456,285 Z" style="fill:blue;stroke:black;stroke-width:0.5;" />
	<path d="M 276.962025316456,285 L 276.962025316456,284.58852 L 281.518987341772,284.58852 L 281.518987341772,285 Z" style="fill:blue;stroke:black;stroke-width:0.5;" />
	<path d="M 281.518987341772,285 L 281.518987341772,284.73 L 286.075949367089,284.73 L 286.075949367089,285 Z" style="fill:blue;stroke:black;stroke-width:0.5;" />
	<path d="M 286.075949367089,285 L 286.075949367089,284.74134 L 290.632911392405,284.74134 L 290.632911392405,285 Z" style="fill:blue;stroke:black;stroke-width:0.5;" />
	<line stroke="black" stroke-width="2" x1="288.354430379747" x2="288.354430379747" y1="285" y2="284" />
	<path d="M 290.632911392405,285 L 290.632911392405,284.93844 L 295.189873417722,284.93844 L 295.189873417722,285 Z" style="fill:blue;stroke:black;stroke-width:0.5;" />
	<path d="M 295.189873417722,285 L 295.189873417722,284.98596 L 299.746835443038,284.98596 L 299.746835443038,285 Z" style="fill:blue;stroke:black;stroke-width:0.5;" />
	<path d="M 299.746835443038,285 L 299.746835443038,284.98596 L 304.303797468354,284.98596 L 304.303797468354,285 Z" style="fill:blue;stroke:black;stroke-width:0.5;" />
	<path d="M 304.303797468354,285 L 304.303797468354,284.98596 L 308.860759493671,284.98596 L 308.860759493671,285 Z" style="fill:blue;stroke:black;stroke-width:0.5;" />
	<path d="M 308.860759493671,285 L 308.860759493671,284.98596 L 313.417721518987,284.98596 L 313.417721518987,285 Z" style="fill:blue;stroke:black;stroke-width:0.5;" />
	<text font-size="10" x="308.860759493671" y="297">60</text>
	<line stroke="black" stroke-width="2" x1="311.139240506329" x2="311.139240506329" y1="285" y2="283" />
	<line stroke="black" stroke-width="2" x1="311.139240506329" x2="311.139240506329" y1="285" y2="284" />
	<path d="M 313.417721518987,285 L 313.417721518987,284.98596 L 317.974683544304,284.98596 L 317.974683544304,285 Z" style="fill:blue;stroke:black;stroke-width:0.5;" />
	<path d="M 317.974683544304,285 L 317.974683544304,284.98596 L 322.53164556962,284.98596 L 322.53164556962,285 Z" style="fill:blue;stroke:black;stroke-width:0.5;" />
	<path d="M 322.53164556962,285 L 322.53164556962,284.98596 L 327.088607594937,284.98596 L 327.088607594937,285 Z" style="fill:blue;stroke:black;stroke-width:0.5;" />
	<path d="M 327.088607594937,285 L 327.088607594937,284.9919 L 331.645569620253,284.9919 L 331.645569620253,285 Z" style="fill:blue;stroke:black;stroke-width:0.5;" />
	<path d="M 331.645569620253,285 L 331.645569620253,284.9919 L 336.20253164557,284.9919 L 336.20253164557,285 Z" style="fill:blue;stroke:black;stroke-width:0.5;" />
	<line stroke="black" stroke-width="2" x1="333.924050632911" x2="333.924050632911" y1="285" y2="284" />
	<path d="M 336.20253164557,285 L 336.20253164557,285 L 340.759493670886,285 L 340.759493670886,285 Z" style="fill:blue;stroke:black;stroke-width:0.5;" />
	<path d="M 340.759493670886,285 L 340.759493670886,285 L 345.316455696203,285 L 345.316455696203,285 Z" style="fill:blue;stroke:black;stroke-width:0.5;" />
	<path d="M 345.316455696203,285 L 345.316455696203,285 L 349.873417721519,285 L 349.873417721519,285 Z" style="fill:blue;stroke:black;stroke-width:0.5;" />
	<path d="M 349.873417721519,285 L 349.873417721519,285 L 354.430379746835,285 L 354.430379746835,285 Z" style="fill:blue;stroke:black;stroke-width:0.5;" />
	<path d="M 354.430379746835,285 L 354.430379746835,285 L 358.987341772152,285 L 358.987341772152,285 Z" style="fill:blue;stroke:black;stroke-width:0.5;" />
	<text font-size="10" x="354.430379746835" y="297">70</text>
	<line stroke="black" stroke-width="2" x1="356.708860759494" x2="356.708860759494" y1="285" y2="283" />
	<line stroke="black" stroke-width="2" x1="356.708860759494" x2="356.708860759494" y1="285" y2="284" />
	<path d="M 358.987341772152,285 L 358.987341772152,285 L 363.544303797468,285 L 363.544303797468,285 Z" style="fill:blue;stroke:black;stroke-width:0.5;" />
	<path d="M 363.544303797468,285 L 363.544303797468,285 L 368.101265822785,285 L 368.101265822785,285 Z" style="fill:blue;stroke:black;stroke-width:0.5;" />
	<path d="M 368.101265822785,285 L 368.101265822785,285 L 372.658227848101,285 L 372.658227848101,285 Z" style="fill:blue;stroke:black;stroke-width:0.5;" />
	<path d="M 372.658227848101,285 L 372.658227848101,285 L 377.215189873418,285 L 377.215189873418,285 Z" style="fill:blue;stroke:black;stroke-width:0.5;" />
	<path d="M 377.215189873418,285 L 377.215189873418,285 L 381.772151898734,285 L 381.772151898734,285 Z" style="fill:blue;stroke:black;stroke-width:0.5;" />
	<line stroke="black" stroke-width="2" x1="379.493670886076" x2="379.493670886076" y1="285" y2="284" />
	<path d="M 381.772151898734,285 L 381.772151898734,285 L 386.329113924051,285 L 386.329113924051,285 Z" style="fill:blue;stroke:black;stroke-width:0.5;" />
	<path d="M 386.329113924051,285 L 386.329113924051,285 L 390.886075949367,285 L 390.886075949367,285 Z" style="fill:blue;stroke:black;stroke-width:0.5;" />
	<path d="M 390.886075949367,285 L 390.886075949367,285 L 395.443037974684,285 L 395.443037974684,285 Z" style="fill:blue;stroke:black;stroke-width:0.5;" />
	<path d="M 395.443037974684,285 L 395.443037974684,285 L 400,285 L 400,285 Z" style="fill:blue;stroke:black;stroke-width:0.5;" />
	<path d="M 400,285 L 400,285 L 404.556962025316,285 L 404.556962025316,285 Z" style="fill:blue;stroke:black;stroke-width:0.5;" />
	<text font-size="10" x="400" y="297">80</text>
	<line stroke="black" stroke-width="2" x1="402.278481012658" x2="402.278481012658" y1="285" y2="283" />
	<line stroke="black" stroke-width="2" x1="402.278481012658" x2="402.278481012658" y1="285" y2="284" />
	<path d="M 404.556962025316,285 L 404.556962025316,285 L 409.113924050633,285 L 409.113924050633,285 Z" style="fill:blue;stroke:black;stroke-width:0.5;" />
	<path d="M 409.113924050633,285 L 409.113924050633,285 L 413.670886075949,285 L 413.670886075949,285 Z" style="fill:blue;stroke:black;stroke-width:0.5;" />
	<path d="M 413.670886075949,285 L 413.670886075949,285 L 418.227848101266,285 L 418.227848101266,285 Z" style="fill:blue;stroke:black;stroke-width:0.5;" />
	<path d="M 418.227848101266,285 L 418.227848101266,285 L 422.784810126582,285 L 422.784810126582,285 Z" style="fill:blue;stroke:black;stroke-width:0.5;" />
	<path d="M 422.784810126582,285 L 422.784810126582,285 L 427.341772151899,285 L 427.341772151899,285 Z" style="fill:blue;stroke:black;stroke-width:0.5;" />
	<line stroke="black" stroke-width="2" x1="425.063291139241" x2="425.063291139241" y1="285" y2="284" />
	<path d="M 427.341772151899,285 L 427.341772151899,285 L 431.898734177215,285 L 431.898734177215,285 Z" style="fill:blue;stroke:black;stroke-width:0.5;" />
	<path d="M 431.898734177215,285 L 431.898734177215,285 L 436.455696202532,285 L 436.455696202532,285 Z" style="fill:blue;stroke:black;stroke-width:0.5;" />
	<path d="M 436.455696202532,285 L 436.455696202532,285 L 441.012658227848,285 L 441.012658227848,285 Z" style="fill:blue;stroke:black;stroke-width:0.5;" />
	<path d="M 441.012658227848,285 L 441.012658227848,285 L 445.569620253165,285 L 445.569620253165,285 Z" style="fill:blue;stroke:black;stroke-width:0.5;" />
	<path d="M 445.569620253165,285 L 445.569620253165,285 L 450.126582278481,285 L 450.126582278481,285 Z" style="fill:blue;stroke:black;stroke-width:0.5;" />
	<text font-size="10" x="445.569620253165" y="297">90</text>
	<line stroke="black" stroke-width="2" x1="447.848101265823" x2="447.848101265823" y1="285" y2="283" />
	<line stroke="black" stroke-width="2" x1="447.848101265823" x2="447.848101265823" y1="285" y2="284" />
	<path d="M 450.126582278481,285 L 450.126582278481,285 L 454.683544303797,285 L 454.683544303797,285 Z" style="fill:blue;stroke:black;stroke-width:0.5;" />
	<path d="M 454.683544303797,285 L 454.683544303797,285 L 459.240506329114,285 L 459.240506329114,285 Z" style="fill:blue;stroke:black;stroke-width:0.5;" />
	<path d="M 459.240506329114,285 L 459.240506329114,284.9919 L 463.79746835443,284.9919 L 463.79746835443,285 Z" style="fill:blue;stroke:black;stroke-width:0.5;" />
	<path d="M 463.79746835443,285 L 463.79746835443,284.9919 L 468.354430379747,284.9919 L 468.354430379747,285 Z" style="fill:blue;stroke:black;stroke-width:0.5;" />
	<path d="M 468.354430379747,285 L 468.354430379747,284.9919 L 472.911392405063,284.9919 L 472.911392405063,285 Z" style="fill:blue;stroke:black;stroke-width:0.5;" />
	<line stroke="black" stroke-width="2" x1="470.632911392405" x2="470.632911392405" y1="285" y2="284" />
	<path d="M 472.911392405063,285 L 472.911392405063,284.98596 L 477.46835443038,284.98596 L 477.46835443038,285 Z" style="fill:blue;stroke:black;stroke-width:0.5;" />
	<path d="M 477.46835443038,285 L 477.46835443038,284.98596 L 482.025316455696,284.98596 L 482.025316455696,285 Z" style="fill:blue;stroke:black;stroke-width:0.5;" />
	<path d="M 482.025316455696,285 L 482.025316455696,284.98596 L 486.582278481013,284.98596 L 486.582278481013,285 Z" style="fill:blue;stroke:black;stroke-width:0.5;" />
	<path d="M 486.582278481013,285 L 486.582278481013,284.97786 L 491.139240506329,284.97786 L 491.139240506329,285 Z" style="fill:blue;stroke:black;stroke-width:0.5;" />
	<path d="M 491.139240506329,285 L 491.139240506329,284.90712 L 495.696202531646,284.90712 L 495.696202531646,285 Z" style="fill:blue;stroke:black;stroke-width:0.5;" />
	<text font-size="10" x="491.139240506329" y="297">100</text>
	<line stroke="black" stroke-width="2" x1="493.417721518987" x2="493.417721518987" y1="285" y2="283" />
	<line stroke="black" stroke-width="2" x1="493.417721518987" x2="493.417721518987" y1="285" y2="284" />
	<path d="M 495.696202531646,285 L 495.696202531646,284.217 L 500.253164556962,284.217 L 500.253164556962,285 Z" style="fill:blue;stroke:black;stroke-width:0.5;" />
	<path d="M 500.253164556962,285 L 500.253164556962,281.0013 L 504.810126582278,281.0013 L 504.810126582278,285 Z" style="fill:blue;stroke:black;stroke-width:0.5;" />
	<path d="M 504.810126582278,285 L 504.810126582278,280.58388 L 509.367088607595,280.58388 L 509.367088607595,285 Z" style="fill:blue;stroke:black;stroke-width:0.5;" />
	<path d="M 509.367088607595,285 L 509.367088607595,277.1538 L 513.924050632911,277.1538 L 513.924050632911,285 Z" style="fill:gold;stroke:black;stroke-width:0.5;" />
	<path d="M 513.924050632911,285 L 513.924050632911,277.1538 L 518.481012658228,277.1538 L 518.481012658228,285 Z" style="fill:gold;stroke:black;stroke-width:0.5;" />
	<line stroke="black" stroke-width="2" x1="516.20253164557" x2="516.20253164557" y1="285" y2="284" />
	<path d="M 518.481012658228,285 L 518.481012658228,277.1538 L 523.037974683544,277.1538 L 523.037974683544,285 Z" style="fill:gold;stroke:black;stroke-width:0.5;" />
	<path d="M 523.037974683544,285 L 523.037974683544,277.13058 L 527.594936708861,277.13058 L 527.594936708861,285 Z" style="fill:gold;stroke:black;stroke-width:0.5;" />
	<path d="M 527.594936708861,285 L 527.594936708861,277.13058 L 532.151898734177,277.13058 L 532.151898734177,285 Z" style="fill:gold;stroke:black;stroke-width:0.5;" />
	<path d="M 532.151898734177,285 L 532.151898734177,277.0998 L 536.708860759494,277.0998 L 536.708860759494,285 Z" style="fill:gold;stroke:black;stroke-width:0.5;" />
	<path d="M 536.708860759494,285 L 536.708860759494,276.2844 L 541.26582278481,276.2844 L 541.26582278481,285 Z" style="fill:gold;stroke:black;stroke-width:0.5;" />
	<text font-size="10" x="536.708860759494" y="297">110</text>
	<line stroke="black" stroke-width="2" x1="538.987341772152" x2="538.987341772152" y1="285" y2="283" />
	<line stroke="black" stroke-width="2" x1="538.987341772152" x2="538.987341772152" y1="285" y2="284" />
	<path d="M 541.26582278481,285 L 541.26582278481,276.27306 L 545.822784810127,276.27306 L 545.822784810127,285 Z" style="fill:gold;stroke:black;stroke-width:0.5;" />
	<path d="M 545.822784810127,285 L 545.822784810127,276.26712 L 550.379746835443,276.26712 L 550.379746835443,285 Z" style="fill:gold;stroke:black;stroke-width:0.5;" />
	<path d="M 550.379746835443,285 L 550.379746835443,276.22446 L 554.936708860759,276.22446 L 554.936708860759,285 Z" style="fill:gold;stroke:black;stroke-width:0.5;" />
	<path d="M 554.936708860759,285 L 554.936708860759,276.05382 L 559.493670886076,276.05382 L 559.493670886076,285 Z" style="fill:gold;stroke:black;stroke-width:0.5;" />
	<path d="M 559.493670886076,285 L 559.493670886076,276.03654 L 564.050632911392,276.03654 L 564.050632911392,285 Z" style="fill:gold;stroke:black;stroke-width:0.5;" />
	<line stroke="black" stroke-width="2" x1="561.772151898734" x2="561.772151898734" y1="285" y2="284" />
	<path d="M 564.050632911392,285 L 564.050632911392,275.94798 L 568.607594936709,275.94798 L 568.607594936709,285 Z" style="fill:gold;stroke:black;stroke-width:0.5;" />
	<path d="M 568.607594936709,285 L 568.607594936709,275.94798 L 573.164556962025,275.94798 L 573.164556962025,285 Z" style="fill:gold;stroke:black;stroke-width:0.5;" />
	<path d="M 573.164556962025,285 L 573.164556962025,275.94798 L 577.721518987342,275.94798 L 577.721518987342,285 Z" style="fill:gold;stroke:black;stroke-width:0.5;" />
	<path d="M 577.721518987342,285 L 577.721518987342,275.95392 L 582.278481012658,275.95392 L 582.278481012658,285 Z" style="fill:gold;stroke:black;stroke-width:0.5;" />
	<path d="M 582.278481012658,285 L 582.278481012658,276.02574 L 586.835443037975,276.02574 L 586.835443037975,285 Z" style="fill:gold;stroke:black;stroke-width:0.5;" />
	<text font-size="10" x="582.278481012658" y="297">120</text>
	<line stroke="black" stroke-width="2" x1="584.556962025317" x2="584.556962025317" y1="285" y2="283" />
	<line stroke="black" stroke-width="2" x1="584.556962025317" x2="584.556962025317" y1="285" y2="284" />
	<path d="M 586.835443037975,285 L 586.835443037975,276.07974 L 591.392405063291,276.07974 L 591.392405063291,285 Z" style="fill:gold;stroke:black;stroke-width:0.5;" />
	<path d="M 591.392405063291,285 L 591.392405063291,276.12834 L 595.949367088608,276.12834 L 595.949367088608,285 Z" style="fill:gold;stroke:black;stroke-width:0.5;" />
	<path d="M 595.949367088608,285 L 595.949367088608,279.49146 L 600.506329113924,279.49146 L 600.506329113924,285 Z" style="fill:gold;stroke:black;stroke-width:0.5;" />
	<path d="M 600.506329113924,285 L 600.506329113924,279.93588 L 605.063291139241,279.93588 L 605.063291139241,285 Z" style="fill:gold;stroke:black;stroke-width:0.5;" />
	<path d="M 605.063291139241,285 L 605.063291139241,283.81146 L 609.620253164557,283.81146 L 609.620253164557,285 Z" style="fill:blue;stroke:black;stroke-width:0.5;" />
	<line stroke="black" stroke-width="2" x1="607.341772151899" x2="607.341772151899" y1="285" y2="284" />
	<path d="M 609.620253164557,285 L 609.620253164557,283.81146 L 614.177215189873,283.81146 L 614.177215189873,285 Z" style="fill:blue;stroke:black;stroke-width:0.5;" />
	<path d="M 614.177215189873,285 L 614.177215189873,283.81146 L 618.73417721519,283.81146 L 618.73417721519,285 Z" style="fill:blue;stroke:black;stroke-width:0.5;" />
	<path d="M 618.73417721519,285 L 618.73417721519,283.81146 L 623.291139240506,283.81146 L 623.291139240506,285 Z" style="fill:blue;stroke:black;stroke-width:0.5;" />
	<path d="M 623.291139240506,285 L 623.291139240506,283.81146 L 627.848101265823,283.81146 L 627.848101265823,285 Z" style="fill:blue;stroke:black;stroke-width:0.5;" />
	<path d="M 627.848101265823,285 L 627.848101265823,283.84008 L 632.405063291139,283.84008 L 632.405063291139,285 Z" style="fill:blue;stroke:black;stroke-width:0.5;" />
	<text font-size="10" x="627.848101265823" y="297">130</text>
	<line stroke="black" stroke-width="2" x1="630.126582278481" x2="630.126582278481" y1="285" y2="283" />
	<line stroke="black" stroke-width="2" x1="630.126582278481" x2="630.126582278481" y1="285" y2="284" />
	<path d="M 632.405063291139,285 L 632.405063291139,283.93134 L 636.962025316456,283.93134 L 636.962025316456,285 Z" style="fill:blue;stroke:black;stroke-width:0.5;" />
	<path d="M 636.962025316456,285 L 636.962025316456,284.66898 L 641.518987341772,284.66898 L 641.518987341772,285 Z" style="fill:blue;stroke:black;stroke-width:0.5;" />
	<path d="M 641.518987341772,285 L 641.518987341772,284.67492 L 646.075949367089,284.67492 L 646.075949367089,285 Z" style="fill:blue;stroke:black;stroke-width:0.5;" />
	<path d="M 646.075949367089,285 L 646.075949367089,284.72352 L 650.632911392405,284.72352 L 650.632911392405,285 Z" style="fill:blue;stroke:black;stroke-width:0.5;" />
	<path d="M 650.632911392405,285 L 650.632911392405,284.73486 L 655.189873417722,284.73486 L 655.189873417722,285 Z" style="fill:blue;stroke:black;stroke-width:0.5;" />
	<line stroke="black" stroke-width="2" x1="652.911392405063" x2="652.911392405063" y1="285" y2="284" />
	<path d="M 655.189873417722,285 L 655.189873417722,284.91144 L 659.746835443038,284.91144 L 659.746835443038,285 Z" style="fill:blue;stroke:black;stroke-width:0.5;" />
	<path d="M 659.746835443038,285 L 659.746835443038,284.99406 L 664.303797468354,284.99406 L 664.303797468354,285 Z" style="fill:blue;stroke:black;stroke-width:0.5;" />
	<path d="M 664.303797468354,285 L 664.303797468354,284.99406 L 668.860759493671,284.99406 L 668.860759493671,285 Z" style="fill:blue;stroke:black;stroke-width:0.5;" />
	<path d="M 668.860759493671,285 L 668.860759493671,285 L 673.417721518987,285 L 673.417721518987,285 Z" style="fill:blue;stroke:black;stroke-width:0.5;" />
	<path d="M 673.417721518987,285 L 673.417721518987,285 L 677.974683544304,285 L 677.974683544304,285 Z" style="fill:blue;stroke:black;stroke-width:0.5;" />
	<text font-size="10" x="673.417721518987" y="297">140</text>
	<line stroke="black" stroke-width="2" x1="675.696202531646" x2="675.696202531646" y1="285" y2="283" />
	<line stroke="black" stroke-width="2" x1="675.696202531646" x2="675.696202531646" y1="285" y2="284" />
	<path d="M 677.974683544304,285 L 677.974683544304,285 L 682.53164556962,285 L 682.53164556962,285 Z" style="fill:blue;stroke:black;stroke-width:0.5;" />
	<path d="M 682.53164556962,285 L 682.53164556962,285 L 687.088607594937,285 L 687.088607594937,285 Z" style="fill:blue;stroke:black;stroke-width:0.5;" />
	<path d="M 687.088607594937,285 L 687.088607594937,285 L 691.645569620253,285 L 691.645569620253,285 Z" style="fill:blue;stroke:black;stroke-width:0.5;" />
	<path d="M 691.645569620253,285 L 691.645569620253,285 L 696.20253164557,285 L 696.20253164557,285 Z" style="fill:blue;stroke:black;stroke-width:0.5;" />
	<path d="M 696.20253164557,285 L 696.20253164557,285 L 700.759493670886,285 L 700.759493670886,285 Z" style="fill:blue;stroke:black;stroke-width:0.5;" />
	<line stroke="black" stroke-width="2" x1="698.481012658228" x2="698.481012658228" y1="285" y2="284" />
	<path d="M 700.759493670886,285 L 700.759493670886,285 L 705.316455696203,285 L 705.316455696203,285 Z" style="fill:blue;stroke:black;stroke-width:0.5;" />
	<path d="M 705.316455696203,285 L 705.316455696203,285 L 709.873417721519,285 L 709.873417721519,285 Z" style="fill:blue;stroke:black;stroke-width:0.5;" />
	<path d="M 709.873417721519,285 L 709.873417721519,285 L 714.430379746835,285 L 714.430379746835,285 Z" style="fill:blue;stroke:black;stroke-width:0.5;" />
	<path d="M 714.430379746835,285 L 714.430379746835,285 L 718.987341772152,285 L 718.987341772152,285 Z" style="fill:blue;stroke:black;stroke-width:0.5;" />
	<path d="M 718.987341772152,285 L 718.987341772152,285 L 723.544303797468,285 L 723.544303797468,285 Z" style="fill:blue;stroke:black;stroke-width:0.5;" />
	<text font-size="10" x="718.987341772152" y="297">150</text>
	<line stroke="black" stroke-width="2" x1="721.26582278481" x2="721.26582278481" y1="285" y2="283" />
	<line stroke="black" stroke-width="2" x1="721.26582278481" x2="721.26582278481" y1="285" y2="284" />
	<path d="M 723.544303797468,285 L 723.544303797468,285 L 728.101265822785,285 L 728.101265822785,285 Z" style="fill:blue;stroke:black;stroke-width:0.5;" />
	<path d="M 728.101265822785,285 L 728.101265822785,285 L 732.658227848101,285 L 732.658227848101,285 Z" style="fill:blue;stroke:black;stroke-width:0.5;" />
	<path d="M 732.658227848101,285 L 732.658227848101,285 L 737.215189873418,285 L 737.215189873418,285 Z" style="fill:blue;stroke:black;stroke-width:0.5;" />
	<path d="M 737.215189873418,285 L 737.215189873418,285 L 741.772151898734,285 L 741.772151898734,285 Z" style="fill:blue;stroke:black;stroke-width:0.5;" />
	<path d="M 741.772151898734,285 L 741.772151898734,285 L 746.329113924051,285 L 746.329113924051,285 Z" style="fill:blue;stroke:black;stroke-width:0.5;" />
	<line stroke="black" stroke-width="2" x1="744.050632911393" x2="744.050632911393" y1="285" y2="284" />
	<path d="M 746.329113924051,285 L 746.329113924051,285 L 750.886075949367,285 L 750.886075949367,285 Z" style="fill:blue;stroke:black;stroke-width:0.5;" />
	<path d="M 750.886075949367,285 L 750.886075949367,285 L 755.443037974684,285 L 755.443037974684,285 Z" style="fill:blue;stroke:black;stroke-width:0.5;" />
	<path d="M 755.443037974684,285 L 755.443037974684,285 L 760,285 L 760,285 Z" style="fill:blue;stroke:black;stroke-width:0.5;" />
	<!-- 
	Generated using the Perl SVG Module V2.50
	by Ronan Oger
	Info: http://www.roitsystems.com/
 -->
</svg>