<?xml version="1.0" encoding="UTF-8" standalone="yes"?>
<!DOCTYPE svg PUBLIC "-//W3C//DTD SVG 1.0//EN" "http://www.w3.org/TR/2001/REC-SVG-20010904/DTD/svg10.dtd">
<svg height="300" width="800" xmlns="http://www.w3.org/2000/svg" xmlns:svg="http://www.w3.org/2000/svg" xmlns:xlink="http://www.w3.org/1999/xlink">
	<line stroke="black" stroke-width="2" x1="40" x2="40" y1="15" y2="285" />
	<line stroke="black" stroke-width="2" x1="40" x2="44.7682119205298" y1="231" y2="231" />
	<text font-size="12" x="47.1523178807947" y="231">2</text>
	<line stroke="black" stroke-width="2" x1="40" x2="44.7682119205298" y1="177" y2="177" />
	<text font-size="12" x="47.1523178807947" y="177">4</text>
	<line stroke="black" stroke-width="2" x1="40" x2="44.7682119205298" y1="123" y2="123" />
	<text font-size="12" x="47.1523178807947" y="123">6</text>
	<line stroke="black" stroke-width="2" x1="40" x2="44.7682119205298" y1="69" y2="69" />
	<text font-size="12" x="47.1523178807947" y="69">8</text>
	<line stroke="black" stroke-width="2" x1="40" x2="44.7682119205298" y1="15" y2="15" />
	<text font-size="12" x="47.1523178807947" y="15">10</text>
	<line stroke="black" stroke-width="2" x1="40" x2="800" y1="285" y2="285" />
	<path d="M 40,285 L 40,285 L 44.7682119205298,285 L 44.7682119205298,285 Z" style="fill:blue;stroke:black;stroke-width:0.5;" />
	<path d="M 44.7682119205298,285 L 44.7682119205298,285 L 49.5364238410596,285 L 49.5364238410596,285 Z" style="fill:blue;stroke:black;stroke-width:0.5;" />
	<path d="M 49.5364238410596,285 L 49.5364238410596,285 L 54.3046357615894,285 L 54.3046357615894,285 Z" style="fill:blue;stroke:black;stroke-width:0.5;" />
	<path d="M 54.3046357615894,285 L 54.3046357615894,285 L 59.0728476821192,285 L 59.0728476821192,285 Z" style="fill:blue;stroke:black;stroke-width:0.5;" />
	<path d="M 59.0728476821192,285 L 59.0728476821192,285 L 63.841059602649,285 L 63.841059602649,285 Z" style="fill:blue;stroke:black;stroke-width:0.5;" />
	<line stroke="black" stroke-width="2" x1="61.4569536423841" x2="61.4569536423841" y1="285" y2="284" />
	<path d="M 63.841059602649,285 L 63.841059602649,285 L 68.6092715231788,285 L 68.6092715231788,285 Z" style="fill:blue;stroke:black;stroke-width:0.5;" />
	<path d="M 68.6092715231788,285 L 68.6092715231788,285 L 73.3774834437086,285 L 73.3774834437086,285 Z" style="fill:blue;stroke:black;stroke-width:0.5;" />
	<path d="M 73.3774834437086,285 L 73.3774834437086,285 L 78.1456953642384,285 L 78.1456953642384,285 Z" style="fill:blue;stroke:black;stroke-width:0.5;" />
	<path d="M 78.1456953642384,285 L 78.1456953642384,285 L 82.9139072847682,285 L 82.9139072847682,285 Z" style="fill:blue;stroke:black;stroke-width:0.5;" />
	<path d="M 82.9139072847682,285 L 82.9139072847682,285 L 87.682119205298,285 L 87.682119205298,285 Z" style="fill:blue;stroke:black;stroke-width:0.5;" />
	<text font-size="10" x="82.9139072847682" y="297">10</text>
	<line stroke="black" stroke-width="2" x1="85.2980132450331" x2="85.2980132450331" y1="285" y2="283" />
	<line stroke="black" stroke-width="2" x1="85.2980132450331" x2="85.2980132450331" y1="285" y2="284" />
	<path d="M 87.682119205298,285 L 87.682119205298,285 L 92.4503311258278,285 L 92.4503311258278,285 Z" style="fill:blue;stroke:black;stroke-width:0.5;" />
	<path d="M 92.4503311258278,285 L 92.4503311258278,285 L 97.2185430463576,285 L 97.2185430463576,285 Z" style="fill:blue;stroke:black;stroke-width:0.5;" />
	<path d="M 97.2185430463576,285 L 97.2185430463576,285 L 101.986754966887,285 L 101.986754966887,285 Z" style="fill:blue;stroke:black;stroke-width:0.5;" />
	<path d="M 101.986754966887,285 L 101.986754966887,285 L 106.754966887417,285 L 106.754966887417,285 Z" style="fill:blue;stroke:black;stroke-width:0.5;" />
	<path d="M 106.754966887417,285 L 106.754966887417,285 L 111.523178807947,285 L 111.523178807947,285 Z" style="fill:blue;stroke:black;stroke-width:0.5;" />
	<line stroke="black" stroke-width="2" x1="109.139072847682" x2="109.139072847682" y1="285" y2="284" />
	<path d="M 111.523178807947,285 L 111.523178807947,285 L 116.291390728477,285 L 116.291390728477,285 Z" style="fill:blue;stroke:black;stroke-width:0.5;" />
	<path d="M 116.291390728477,285 L 116.291390728477,285 L 121.059602649007,285 L 121.059602649007,285 Z" style="fill:blue;stroke:black;stroke-width:0.5;" />
	<path d="M 121.059602649007,285 L 121.059602649007,285 L 125.827814569536,285 L 125.827814569536,285 Z" style="fill:blue;stroke:black;stroke-width:0.5;" />
	<path d="M 125.827814569536,285 L 125.827814569536,285 L 130.596026490066,285 L 130.596026490066,285 Z" style="fill:blue;stroke:black;stroke-width:0.5;" />
	<path d="M 130.596026490066,285 L 130.596026490066,285 L 135.364238410596,285 L 135.364238410596,285 Z" style="fill:blue;stroke:black;stroke-width:0.5;" />
	<text font-size="10" x="130.596026490066" y="297">20</text>
	<line stroke="black" stroke-width="2" x1="132.980132450331" x2="132.980132450331" y1="285" y2="283" />
	<line stroke="black" stroke-width="2" x1="132.980132450331" x2="132.980132450331" y1="285" y2="284" />
	<path d="M 135.364238410596,285 L 135.364238410596,285 L 140.132450331126,285 L 140.132450331126,285 Z" style="fill:blue;stroke:black;stroke-width:0.5;" />
	<path d="M 140.132450331126,285 L 140.132450331126,285 L 144.900662251656,285 L 144.900662251656,285 Z" style="fill:blue;stroke:black;stroke-width:0.5;" />
	<path d="M 144.900662251656,285 L 144.900662251656,282.03 L 149.668874172185,282.03 L 149.668874172185,285 Z" style="fill:blue;stroke:black;stroke-width:0.5;" />
	<path d="M 149.668874172185,285 L 149.668874172185,282.03 L 154.437086092715,282.03 L 154.437086092715,285 Z" style="fill:blue;stroke:black;stroke-width:0.5;" />
	<path d="M 154.437086092715,285 L 154.437086092715,276.09 L 159.205298013245,276.09 L 159.205298013245,285 Z" style="fill:blue;stroke:black;stroke-width:0.5;" />
	<line stroke="black" stroke-width="2" x1="156.82119205298" x2="156.82119205298" y1="285" y2="284" />
	<path d="M 159.205298013245,285 L 159.205298013245,276.09 L 163.973509933775,276.09 L 163.973509933775,285 Z" style="fill:blue;stroke:black;stroke-width:0.5;" />
	<path d="M 163.973509933775,285 L 163.973509933775,273.12 L 168.741721854305,273.12 L 168.741721854305,285 Z" style="fill:blue;stroke:black;stroke-width:0.5;" />
	<path d="M 168.741721854305,285 L 168.741721854305,273.12 L 173.509933774834,273.12 L 173.509933774834,285 Z" style="fill:blue;stroke:black;stroke-width:0.5;" />
	<path d="M 173.509933774834,285 L 173.509933774834,273.12 L 178.278145695364,273.12 L 178.278145695364,285 Z" style="fill:blue;stroke:black;stroke-width:0.5;" />
	<path d="M 178.278145695364,285 L 178.278145695364,273.12 L 183.046357615894,273.12 L 183.046357615894,285 Z" style="fill:blue;stroke:black;stroke-width:0.5;" />
	<text font-size="10" x="178.278145695364" y="297">30</text>
	<line stroke="black" stroke-width="2" x1="180.662251655629" x2="180.662251655629" y1="285" y2="283" />
	<line stroke="black" stroke-width="2" x1="180.662251655629" x2="180.662251655629" y1="285" y2="284" />
	<path d="M 183.046357615894,285 L 183.046357615894,273.12 L 187.814569536424,273.12 L 187.814569536424,285 Z" style="fill:blue;stroke:black;stroke-width:0.5;" />
	<path d="M 187.814569536424,285 L 187.814569536424,270.15 L 192.582781456954,270.15 L 192.582781456954,285 Z" style="fill:blue;stroke:black;stroke-width:0.5;" />
	<path d="M 192.582781456954,285 L 192.582781456954,270.15 L 197.350993377483,270.15 L 197.350993377483,285 Z" style="fill:blue;stroke:black;stroke-width:0.5;" />
	<path d="M 197.350993377483,285 L 197.350993377483,270.15 L 202.119205298013,270.15 L 202.119205298013,285 Z" style="fill:blue;stroke:black;stroke-width:0.5;" />
	<path d="M 202.119205298013,285 L 202.119205298013,270.15 L 206.887417218543,270.15 L 206.887417218543,285 Z" style="fill:blue;stroke:black;stroke-width:0.5;" />
	<line stroke="black" stroke-width="2" x1="204.503311258278" x2="204.503311258278" y1="285" y2="284" />
	<path d="M 206.887417218543,285 L 206.887417218543,270.15 L 211.655629139073,270.15 L 211.655629139073,285 Z" style="fill:blue;stroke:black;stroke-width:0.5;" />
	<path d="M 211.655629139073,285 L 211.655629139073,270.15 L 216.423841059603,270.15 L 216.423841059603,285 Z" style="fill:blue;stroke:black;stroke-width:0.5;" />
	<path d="M 216.423841059603,285 L 216.423841059603,270.15 L 221.192052980132,270.15 L 221.192052980132,285 Z" style="fill:blue;stroke:black;stroke-width:0.5;" />
	<path d="M 221.192052980132,285 L 221.192052980132,270.15 L 225.960264900662,270.15 L 225.960264900662,285 Z" style="fill:blue;stroke:black;stroke-width:0.5;" />
	<path d="M 225.960264900662,285 L 225.960264900662,270.15 L 230.728476821192,270.15 L 230.728476821192,285 Z" style="fill:blue;stroke:black;stroke-width:0.5;" />
	<text font-size="10" x="225.960264900662" y="297">40</text>
	<line stroke="black" stroke-width="2" x1="228.344370860927" x2="228.344370860927" y1="285" y2="283" />
	<line stroke="black" stroke-width="2" x1="228.344370860927" x2="228.344370860927" y1="285" y2="284" />
	<path d="M 230.728476821192,285 L 230.728476821192,270.15 L 235.496688741722,270.15 L 235.496688741722,285 Z" style="fill:blue;stroke:black;stroke-width:0.5;" />
	<path d="M 235.496688741722,285 L 235.496688741722,270.15 L 240.264900662252,270.15 L 240.264900662252,285 Z" style="fill:blue;stroke:black;stroke-width:0.5;" />
	<path d="M 240.264900662252,285 L 240.264900662252,270.15 L 245.033112582781,270.15 L 245.033112582781,285 Z" style="fill:blue;stroke:black;stroke-width:0.5;" />
	<path d="M 245.033112582781,285 L 245.033112582781,270.15 L 249.801324503311,270.15 L 249.801324503311,285 Z" style="fill:blue;stroke:black;stroke-width:0.5;" />
	<path d="M 249.801324503311,285 L 249.801324503311,270.15 L 254.569536423841,270.15 L 254.569536423841,285 Z" style="fill:blue;stroke:black;stroke-width:0.5;" />
	<line stroke="black" stroke-width="2" x1="252.185430463576" x2="252.185430463576" y1="285" y2="284" />
	<path d="M 254.569536423841,285 L 254.569536423841,52.5300000000001 L 259.337748344371,52.5300000000001 L 259.337748344371,285 Z" style="fill:gold;stroke:black;stroke-width:0.5;" />
	<path d="M 259.337748344371,285 L 259.337748344371,49.5600000000001 L 264.105960264901,49.5600000000001 L 264.105960264901,285 Z" style="fill:gold;stroke:black;stroke-width:0.5;" />
	<path d="M 264.105960264901,285 L 264.105960264901,46.5900000000001 L 268.87417218543,46.5900000000001 L 268.87417218543,285 Z" style="fill:gold;stroke:black;stroke-width:0.5;" />
	<path d="M 268.87417218543,285 L 268.87417218543,49.5600000000001 L 273.64238410596,49.5600000000001 L 273.64238410596,285 Z" style="fill:gold;stroke:black;stroke-width:0.5;" />
	<path d="M 273.64238410596,285 L 273.64238410596,32.2800000000001 L 278.41059602649,32.2800000000001 L 278.41059602649,285 Z" style="fill:gold;stroke:black;stroke-width:0.5;" />
	<text font-size="10" x="273.64238410596" y="297">50</text>
	<line stroke="black" stroke-width="2" x1="276.026490066225" x2="276.026490066225" y1="285" y2="283" />
	<line stroke="black" stroke-width="2" x1="276.026490066225" x2="276.026490066225" y1="285" y2="284" />
	<path d="M 278.41059602649,285 L 278.41059602649,15.2700000000001 L 283.17880794702,15.2700000000001 L 283.17880794702,285 Z" style="fill:gold;stroke:black;stroke-width:0.5;" />
	<path d="M 283.17880794702,285 L 283.17880794702,15.2700000000001 L 287.94701986755,15.2700000000001 L 287.94701986755,285 Z" style="fill:gold;stroke:black;stroke-width:0.5;" />
	<path d="M 287.94701986755,285 L 287.94701986755,15.2700000000001 L 292.715231788079,15.2700000000001 L 292.715231788079,285 Z" style="fill:gold;stroke:black;stroke-width:0.5;" />
	<path d="M 292.715231788079,285 L 292.715231788079,15.2700000000001 L 297.483443708609,15.2700000000001 L 297.483443708609,285 Z" style="fill:gold;stroke:black;stroke-width:0.5;" />
	<path d="M 297.483443708609,285 L 297.483443708609,15.2700000000001 L 302.251655629139,15.2700000000001 L 302.251655629139,285 Z" style="fill:gold;stroke:black;stroke-width:0.5;" />
	<line stroke="black" stroke-width="2" x1="299.867549668874" x2="299.867549668874" y1="285" y2="284" />
	<path d="M 302.251655629139,285 L 302.251655629139,15.2700000000001 L 307.019867549669,15.2700000000001 L 307.019867549669,285 Z" style="fill:gold;stroke:black;stroke-width:0.5;" />
	<path d="M 307.019867549669,285 L 307.019867549669,15.2700000000001 L 311.788079470199,15.2700000000001 L 311.788079470199,285 Z" style="fill:gold;stroke:black;stroke-width:0.5;" />
	<path d="M 311.788079470199,285 L 311.788079470199,18.2400000000001 L 316.556291390729,18.2400000000001 L 316.556291390729,285 Z" style="fill:gold;stroke:black;stroke-width:0.5;" />
	<path d="M 316.556291390729,285 L 316.556291390729,18.2400000000001 L 321.324503311258,18.2400000000001 L 321.324503311258,285 Z" style="fill:gold;stroke:black;stroke-width:0.5;" />
	<path d="M 321.324503311258,285 L 321.324503311258,18.2400000000001 L 326.092715231788,18.2400000000001 L 326.092715231788,285 Z" style="fill:gold;stroke:black;stroke-width:0.5;" />
	<text font-size="10" x="321.324503311258" y="297">60</text>
	<line stroke="black" stroke-width="2" x1="323.708609271523" x2="323.708609271523" y1="285" y2="283" />
	<line stroke="black" stroke-width="2" x1="323.708609271523" x2="323.708609271523" y1="285" y2="284" />
	<path d="M 326.092715231788,285 L 326.092715231788,18.2400000000001 L 330.860927152318,18.2400000000001 L 330.860927152318,285 Z" style="fill:gold;stroke:black;stroke-width:0.5;" />
	<path d="M 330.860927152318,285 L 330.860927152318,18.2400000000001 L 335.629139072848,18.2400000000001 L 335.629139072848,285 Z" style="fill:gold;stroke:black;stroke-width:0.5;" />
	<path d="M 335.629139072848,285 L 335.629139072848,18.2400000000001 L 340.397350993378,18.2400000000001 L 340.397350993378,285 Z" style="fill:gold;stroke:black;stroke-width:0.5;" />
	<path d="M 340.397350993378,285 L 340.397350993378,18.2400000000001 L 345.165562913907,18.2400000000001 L 345.165562913907,285 Z" style="fill:gold;stroke:black;stroke-width:0.5;" />
	<path d="M 345.165562913907,285 L 345.165562913907,15.2700000000001 L 349.933774834437,15.2700000000001 L 349.933774834437,285 Z" style="fill:gold;stroke:black;stroke-width:0.5;" />
	<line stroke="black" stroke-width="2" x1="347.549668874172" x2="347.549668874172" y1="285" y2="284" />
	<path d="M 349.933774834437,285 L 349.933774834437,15.2700000000001 L 354.701986754967,15.2700000000001 L 354.701986754967,285 Z" style="fill:gold;stroke:black;stroke-width:0.5;" />
	<path d="M 354.701986754967,285 L 354.701986754967,259.08 L 359.470198675497,259.08 L 359.470198675497,285 Z" style="fill:blue;stroke:black;stroke-width:0.5;" />
	<path d="M 359.470198675497,285 L 359.470198675497,259.08 L 364.238410596027,259.08 L 364.238410596027,285 Z" style="fill:blue;stroke:black;stroke-width:0.5;" />
	<path d="M 364.238410596027,285 L 364.238410596027,259.08 L 369.006622516556,259.08 L 369.006622516556,285 Z" style="fill:blue;stroke:black;stroke-width:0.5;" />
	<path d="M 369.006622516556,285 L 369.006622516556,259.08 L 373.774834437086,259.08 L 373.774834437086,285 Z" style="fill:blue;stroke:black;stroke-width:0.5;" />
	<text font-size="10" x="369.006622516556" y="297">70</text>
	<line stroke="black" stroke-width="2" x1="371.390728476821" x2="371.390728476821" y1="285" y2="283" />
	<line stroke="black" stroke-width="2" x1="371.390728476821" x2="371.390728476821" y1="285" y2="284" />
	<path d="M 373.774834437086,285 L 373.774834437086,267.72 L 378.543046357616,267.72 L 378.543046357616,285 Z" style="fill:blue;stroke:black;stroke-width:0.5;" />
	<path d="M 378.543046357616,285 L 378.543046357616,282.03 L 383.311258278146,282.03 L 383.311258278146,285 Z" style="fill:blue;stroke:black;stroke-width:0.5;" />
	<path d="M 383.311258278146,285 L 383.311258278146,282.03 L 388.079470198676,282.03 L 388.079470198676,285 Z" style="fill:blue;stroke:black;stroke-width:0.5;" />
	<path d="M 388.079470198676,285 L 388.079470198676,282.03 L 392.847682119205,282.03 L 392.847682119205,285 Z" style="fill:blue;stroke:black;stroke-width:0.5;" />
	<path d="M 392.847682119205,285 L 392.847682119205,282.03 L 397.615894039735,282.03 L 397.615894039735,285 Z" style="fill:blue;stroke:black;stroke-width:0.5;" />
	<line stroke="black" stroke-width="2" x1="395.23178807947" x2="395.23178807947" y1="285" y2="284" />
	<path d="M 397.615894039735,285 L 397.615894039735,282.03 L 402.384105960265,282.03 L 402.384105960265,285 Z" style="fill:blue;stroke:black;stroke-width:0.5;" />
	<path d="M 402.384105960265,285 L 402.384105960265,282.03 L 407.152317880795,282.03 L 407.152317880795,285 Z" style="fill:blue;stroke:black;stroke-width:0.5;" />
	<path d="M 407.152317880795,285 L 407.152317880795,282.03 L 411.920529801325,282.03 L 411.920529801325,285 Z" style="fill:blue;stroke:black;stroke-width:0.5;" />
	<path d="M 411.920529801325,285 L 411.920529801325,282.03 L 416.688741721854,282.03 L 416.688741721854,285 Z" style="fill:blue;stroke:black;stroke-width:0.5;" />
	<path d="M 416.688741721854,285 L 416.688741721854,282.03 L 421.456953642384,282.03 L 421.456953642384,285 Z" style="fill:blue;stroke:black;stroke-width:0.5;" />
	<text font-size="10" x="416.688741721854" y="297">80</text>
	<line stroke="black" stroke-width="2" x1="419.072847682119" x2="419.072847682119" y1="285" y2="283" />
	<line stroke="black" stroke-width="2" x1="419.072847682119" x2="419.072847682119" y1="285" y2="284" />
	<path d="M 421.456953642384,285 L 421.456953642384,282.03 L 426.225165562914,282.03 L 426.225165562914,285 Z" style="fill:blue;stroke:black;stroke-width:0.5;" />
	<path d="M 426.225165562914,285 L 426.225165562914,282.03 L 430.993377483444,282.03 L 430.993377483444,285 Z" style="fill:blue;stroke:black;stroke-width:0.5;" />
	<path d="M 430.993377483444,285 L 430.993377483444,282.03 L 435.761589403974,282.03 L 435.761589403974,285 Z" style="fill:blue;stroke:black;stroke-width:0.5;" />
	<path d="M 435.761589403974,285 L 435.761589403974,282.03 L 440.529801324503,282.03 L 440.529801324503,285 Z" style="fill:blue;stroke:black;stroke-width:0.5;" />
	<path d="M 440.529801324503,285 L 440.529801324503,282.03 L 445.298013245033,282.03 L 445.298013245033,285 Z" style="fill:blue;stroke:black;stroke-width:0.5;" />
	<line stroke="black" stroke-width="2" x1="442.913907284768" x2="442.913907284768" y1="285" y2="284" />
	<path d="M 445.298013245033,285 L 445.298013245033,279.06 L 450.066225165563,279.06 L 450.066225165563,285 Z" style="fill:blue;stroke:black;stroke-width:0.5;" />
	<path d="M 450.066225165563,285 L 450.066225165563,279.06 L 454.834437086093,279.06 L 454.834437086093,285 Z" style="fill:blue;stroke:black;stroke-width:0.5;" />
	<path d="M 454.834437086093,285 L 454.834437086093,279.06 L 459.602649006623,279.06 L 459.602649006623,285 Z" style="fill:blue;stroke:black;stroke-width:0.5;" />
	<path d="M 459.602649006623,285 L 459.602649006623,279.06 L 464.370860927152,279.06 L 464.370860927152,285 Z" style="fill:blue;stroke:black;stroke-width:0.5;" />
	<path d="M 464.370860927152,285 L 464.370860927152,279.06 L 469.139072847682,279.06 L 469.139072847682,285 Z" style="fill:blue;stroke:black;stroke-width:0.5;" />
	<text font-size="10" x="464.370860927152" y="297">90</text>
	<line stroke="black" stroke-width="2" x1="466.754966887417" x2="466.754966887417" y1="285" y2="283" />
	<line stroke="black" stroke-width="2" x1="466.754966887417" x2="466.754966887417" y1="285" y2="284" />
	<path d="M 469.139072847682,285 L 469.139072847682,279.06 L 473.907284768212,279.06 L 473.907284768212,285 Z" style="fill:blue;stroke:black;stroke-width:0.5;" />
	<path d="M 473.907284768212,285 L 473.907284768212,279.06 L 478.675496688742,279.06 L 478.675496688742,285 Z" style="fill:blue;stroke:black;stroke-width:0.5;" />
	<path d="M 478.675496688742,285 L 478.675496688742,279.06 L 483.443708609272,279.06 L 483.443708609272,285 Z" style="fill:blue;stroke:black;stroke-width:0.5;" />
	<path d="M 483.443708609272,285 L 483.443708609272,279.06 L 488.211920529801,279.06 L 488.211920529801,285 Z" style="fill:blue;stroke:black;stroke-width:0.5;" />
	<path d="M 488.211920529801,285 L 488.211920529801,279.06 L 492.980132450331,279.06 L 492.980132450331,285 Z" style="fill:blue;stroke:black;stroke-width:0.5;" />
	<line stroke="black" stroke-width="2" x1="490.596026490066" x2="490.596026490066" y1="285" y2="284" />
	<path d="M 492.980132450331,285 L 492.980132450331,279.06 L 497.748344370861,279.06 L 497.748344370861,285 Z" style="fill:blue;stroke:black;stroke-width:0.5;" />
	<path d="M 497.748344370861,285 L 497.748344370861,279.06 L 502.516556291391,279.06 L 502.516556291391,285 Z" style="fill:blue;stroke:black;stroke-width:0.5;" />
	<path d="M 502.516556291391,285 L 502.516556291391,279.06 L 507.284768211921,279.06 L 507.284768211921,285 Z" style="fill:blue;stroke:black;stroke-width:0.5;" />
	<path d="M 507.284768211921,285 L 507.284768211921,279.06 L 512.05298013245,279.06 L 512.05298013245,285 Z" style="fill:blue;stroke:black;stroke-width:0.5;" />
	<path d="M 512.05298013245,285 L 512.05298013245,279.06 L 516.82119205298,279.06 L 516.82119205298,285 Z" style="fill:blue;stroke:black;stroke-width:0.5;" />
	<text font-size="10" x="512.05298013245" y="297">100</text>
	<line stroke="black" stroke-width="2" x1="514.437086092715" x2="514.437086092715" y1="285" y2="283" />
	<line stroke="black" stroke-width="2" x1="514.437086092715" x2="514.437086092715" y1="285" y2="284" />
	<path d="M 516.82119205298,285 L 516.82119205298,279.06 L 521.58940397351,279.06 L 521.58940397351,285 Z" style="fill:blue;stroke:black;stroke-width:0.5;" />
	<path d="M 521.58940397351,285 L 521.58940397351,279.06 L 526.35761589404,279.06 L 526.35761589404,285 Z" style="fill:blue;stroke:black;stroke-width:0.5;" />
	<path d="M 526.35761589404,285 L 526.35761589404,279.06 L 531.12582781457,279.06 L 531.12582781457,285 Z" style="fill:blue;stroke:black;stroke-width:0.5;" />
	<path d="M 531.12582781457,285 L 531.12582781457,279.06 L 535.894039735099,279.06 L 535.894039735099,285 Z" style="fill:blue;stroke:black;stroke-width:0.5;" />
	<path d="M 535.894039735099,285 L 535.894039735099,279.06 L 540.662251655629,279.06 L 540.662251655629,285 Z" style="fill:blue;stroke:black;stroke-width:0.5;" />
	<line stroke="black" stroke-width="2" x1="538.278145695364" x2="538.278145695364" y1="285" y2="284" />
	<path d="M 540.662251655629,285 L 540.662251655629,276.09 L 545.430463576159,276.09 L 545.430463576159,285 Z" style="fill:blue;stroke:black;stroke-width:0.5;" />
	<path d="M 545.430463576159,285 L 545.430463576159,276.09 L 550.198675496689,276.09 L 550.198675496689,285 Z" style="fill:blue;stroke:black;stroke-width:0.5;" />
	<path d="M 550.198675496689,285 L 550.198675496689,276.09 L 554.966887417219,276.09 L 554.966887417219,285 Z" style="fill:blue;stroke:black;stroke-width:0.5;" />
	<path d="M 554.966887417219,285 L 554.966887417219,276.09 L 559.735099337748,276.09 L 559.735099337748,285 Z" style="fill:blue;stroke:black;stroke-width:0.5;" />
	<path d="M 559.735099337748,285 L 559.735099337748,276.09 L 564.503311258278,276.09 L 564.503311258278,285 Z" style="fill:blue;stroke:black;stroke-width:0.5;" />
	<text font-size="10" x="559.735099337748" y="297">110</text>
	<line stroke="black" stroke-width="2" x1="562.119205298013" x2="562.119205298013" y1="285" y2="283" />
	<line stroke="black" stroke-width="2" x1="562.119205298013" x2="562.119205298013" y1="285" y2="284" />
	<path d="M 564.503311258278,285 L 564.503311258278,270.42 L 569.271523178808,270.42 L 569.271523178808,285 Z" style="fill:gold;stroke:black;stroke-width:0.5;" />
	<path d="M 569.271523178808,285 L 569.271523178808,273.39 L 574.039735099338,273.39 L 574.039735099338,285 Z" style="fill:gold;stroke:black;stroke-width:0.5;" />
	<path d="M 574.039735099338,285 L 574.039735099338,273.39 L 578.807947019868,273.39 L 578.807947019868,285 Z" style="fill:gold;stroke:black;stroke-width:0.5;" />
	<path d="M 578.807947019868,285 L 578.807947019868,273.39 L 583.576158940397,273.39 L 583.576158940397,285 Z" style="fill:gold;stroke:black;stroke-width:0.5;" />
	<path d="M 583.576158940397,285 L 583.576158940397,273.39 L 588.344370860927,273.39 L 588.344370860927,285 Z" style="fill:gold;stroke:black;stroke-width:0.5;" />
	<line stroke="black" stroke-width="2" x1="585.960264900662" x2="585.960264900662" y1="285" y2="284" />
	<path d="M 588.344370860927,285 L 588.344370860927,273.39 L 593.112582781457,273.39 L 593.112582781457,285 Z" style="fill:gold;stroke:black;stroke-width:0.5;" />
	<path d="M 593.112582781457,285 L 593.112582781457,273.39 L 597.880794701987,273.39 L 597.880794701987,285 Z" style="fill:gold;stroke:black;stroke-width:0.5;" />
	<path d="M 597.880794701987,285 L 597.880794701987,273.39 L 602.649006622517,273.39 L 602.649006622517,285 Z" style="fill:gold;stroke:black;stroke-width:0.5;" />
	<path d="M 602.649006622517,285 L 602.649006622517,273.39 L 607.417218543046,273.39 L 607.417218543046,285 Z" style="fill:gold;stroke:black;stroke-width:0.5;" />
	<path d="M 607.417218543046,285 L 607.417218543046,273.39 L 612.185430463576,273.39 L 612.185430463576,285 Z" style="fill:gold;stroke:black;stroke-width:0.5;" />
	<text font-size="10" x="607.417218543046" y="297">120</text>
	<line stroke="black" stroke-width="2" x1="609.801324503311" x2="609.801324503311" y1="285" y2="283" />
	<line stroke="black" stroke-width="2" x1="609.801324503311" x2="609.801324503311" y1="285" y2="284" />
	<path d="M 612.185430463576,285 L 612.185430463576,273.39 L 616.953642384106,273.39 L 616.953642384106,285 Z" style="fill:gold;stroke:black;stroke-width:0.5;" />
	<path d="M 616.953642384106,285 L 616.953642384106,273.39 L 621.721854304636,273.39 L 621.721854304636,285 Z" style="fill:gold;stroke:black;stroke-width:0.5;" />
	<path d="M 621.721854304636,285 L 621.721854304636,273.39 L 626.490066225166,273.39 L 626.490066225166,285 Z" style="fill:gold;stroke:black;stroke-width:0.5;" />
	<path d="M 626.490066225166,285 L 626.490066225166,273.39 L 631.258278145695,273.39 L 631.258278145695,285 Z" style="fill:gold;stroke:black;stroke-width:0.5;" />
	<path d="M 631.258278145695,285 L 631.258278145695,273.39 L 636.026490066225,273.39 L 636.026490066225,285 Z" style="fill:gold;stroke:black;stroke-width:0.5;" />
	<line stroke="black" stroke-width="2" x1="633.64238410596" x2="633.64238410596" y1="285" y2="284" />
	<path d="M 636.026490066225,285 L 636.026490066225,273.39 L 640.794701986755,273.39 L 640.794701986755,285 Z" style="fill:gold;stroke:black;stroke-width:0.5;" />
	<path d="M 640.794701986755,285 L 640.794701986755,276.36 L 645.562913907285,276.36 L 645.562913907285,285 Z" style="fill:gold;stroke:black;stroke-width:0.5;" />
	<path d="M 645.562913907285,285 L 645.562913907285,276.36 L 650.331125827815,276.36 L 650.331125827815,285 Z" style="fill:gold;stroke:black;stroke-width:0.5;" />
	<path d="M 650.331125827815,285 L 650.331125827815,276.36 L 655.099337748344,276.36 L 655.099337748344,285 Z" style="fill:gold;stroke:black;stroke-width:0.5;" />
	<path d="M 655.099337748344,285 L 655.099337748344,285 L 659.867549668874,285 L 659.867549668874,285 Z" style="fill:gold;stroke:black;stroke-width:0.5;" />
	<text font-size="10" x="655.099337748344" y="297">130</text>
	<line stroke="black" stroke-width="2" x1="657.483443708609" x2="657.483443708609" y1="285" y2="283" />
	<line stroke="black" stroke-width="2" x1="657.483443708609" x2="657.483443708609" y1="285" y2="284" />
	<path d="M 659.867549668874,285 L 659.867549668874,285 L 664.635761589404,285 L 664.635761589404,285 Z" style="fill:gold;stroke:black;stroke-width:0.5;" />
	<path d="M 664.635761589404,285 L 664.635761589404,285 L 669.403973509934,285 L 669.403973509934,285 Z" style="fill:blue;stroke:black;stroke-width:0.5;" />
	<path d="M 669.403973509934,285 L 669.403973509934,285 L 674.172185430464,285 L 674.172185430464,285 Z" style="fill:blue;stroke:black;stroke-width:0.5;" />
	<path d="M 674.172185430464,285 L 674.172185430464,285 L 678.940397350993,285 L 678.940397350993,285 Z" style="fill:blue;stroke:black;stroke-width:0.5;" />
	<path d="M 678.940397350993,285 L 678.940397350993,285 L 683.708609271523,285 L 683.708609271523,285 Z" style="fill:blue;stroke:black;stroke-width:0.5;" />
	<line stroke="black" stroke-width="2" x1="681.324503311258" x2="681.324503311258" y1="285" y2="284" />
	<path d="M 683.708609271523,285 L 683.708609271523,285 L 688.476821192053,285 L 688.476821192053,285 Z" style="fill:blue;stroke:black;stroke-width:0.5;" />
	<path d="M 688.476821192053,285 L 688.476821192053,285 L 693.245033112583,285 L 693.245033112583,285 Z" style="fill:blue;stroke:black;stroke-width:0.5;" />
	<path d="M 693.245033112583,285 L 693.245033112583,285 L 698.013245033113,285 L 698.013245033113,285 Z" style="fill:blue;stroke:black;stroke-width:0.5;" />
	<path d="M 698.013245033113,285 L 698.013245033113,285 L 702.781456953642,285 L 702.781456953642,285 Z" style="fill:blue;stroke:black;stroke-width:0.5;" />
	<path d="M 702.781456953642,285 L 702.781456953642,285 L 707.549668874172,285 L 707.549668874172,285 Z" style="fill:blue;stroke:black;stroke-width:0.5;" />
	<text font-size="10" x="702.781456953642" y="297">140</text>
	<line stroke="black" stroke-width="2" x1="705.165562913907" x2="705.165562913907" y1="285" y2="283" />
	<line stroke="black" stroke-width="2" x1="705.165562913907" x2="705.165562913907" y1="285" y2="284" />
	<path d="M 707.549668874172,285 L 707.549668874172,285 L 712.317880794702,285 L 712.317880794702,285 Z" style="fill:blue;stroke:black;stroke-width:0.5;" />
	<path d="M 712.317880794702,285 L 712.317880794702,285 L 717.086092715232,285 L 717.086092715232,285 Z" style="fill:blue;stroke:black;stroke-width:0.5;" />
	<path d="M 717.086092715232,285 L 717.086092715232,285 L 721.854304635762,285 L 721.854304635762,285 Z" style="fill:blue;stroke:black;stroke-width:0.5;" />
	<path d="M 721.854304635762,285 L 721.854304635762,285 L 726.622516556291,285 L 726.622516556291,285 Z" style="fill:blue;stroke:black;stroke-width:0.5;" />
	<path d="M 726.622516556291,285 L 726.622516556291,285 L 731.390728476821,285 L 731.390728476821,285 Z" style="fill:blue;stroke:black;stroke-width:0.5;" />
	<line stroke="black" stroke-width="2" x1="729.006622516556" x2="729.006622516556" y1="285" y2="284" />
	<path d="M 731.390728476821,285 L 731.390728476821,285 L 736.158940397351,285 L 736.158940397351,285 Z" style="fill:blue;stroke:black;stroke-width:0.5;" />
	<path d="M 736.158940397351,285 L 736.158940397351,285 L 740.927152317881,285 L 740.927152317881,285 Z" style="fill:blue;stroke:black;stroke-width:0.5;" />
	<path d="M 740.927152317881,285 L 740.927152317881,285 L 745.695364238411,285 L 745.695364238411,285 Z" style="fill:blue;stroke:black;stroke-width:0.5;" />
	<path d="M 745.695364238411,285 L 745.695364238411,285 L 750.46357615894,285 L 750.46357615894,285 Z" style="fill:blue;stroke:black;stroke-width:0.5;" />
	<path d="M 750.46357615894,285 L 750.46357615894,285 L 755.23178807947,285 L 755.23178807947,285 Z" style="fill:blue;stroke:black;stroke-width:0.5;" />
	<text font-size="10" x="750.46357615894" y="297">150</text>
	<line stroke="black" stroke-width="2" x1="752.847682119205" x2="752.847682119205" y1="285" y2="283" />
	<line stroke="black" stroke-width="2" x1="752.847682119205" x2="752.847682119205" y1="285" y2="284" />
	<path d="M 755.23178807947,285 L 755.23178807947,285 L 760,285 L 760,285 Z" style="fill:blue;stroke:black;stroke-width:0.5;" />
	<!-- 
	Generated using the Perl SVG Module V2.50
	by Ronan Oger
	Info: http://www.roitsystems.com/
 -->
</svg>