<?xml version="1.0" encoding="UTF-8" standalone="yes"?>
<!DOCTYPE svg PUBLIC "-//W3C//DTD SVG 1.0//EN" "http://www.w3.org/TR/2001/REC-SVG-20010904/DTD/svg10.dtd">
<svg height="300" width="800" xmlns="http://www.w3.org/2000/svg" xmlns:svg="http://www.w3.org/2000/svg" xmlns:xlink="http://www.w3.org/1999/xlink">
	<line stroke="black" stroke-width="2" x1="40" x2="40" y1="15" y2="285" />
	<line stroke="black" stroke-width="2" x1="40" x2="42.7376425855513" y1="231" y2="231" />
	<text font-size="12" x="44.106463878327" y="231">2000</text>
	<line stroke="black" stroke-width="2" x1="40" x2="42.7376425855513" y1="177" y2="177" />
	<text font-size="12" x="44.106463878327" y="177">4000</text>
	<line stroke="black" stroke-width="2" x1="40" x2="42.7376425855513" y1="123" y2="123" />
	<text font-size="12" x="44.106463878327" y="123">6000</text>
	<line stroke="black" stroke-width="2" x1="40" x2="42.7376425855513" y1="69" y2="69" />
	<text font-size="12" x="44.106463878327" y="69">8000</text>
	<line stroke="black" stroke-width="2" x1="40" x2="42.7376425855513" y1="15" y2="15" />
	<text font-size="12" x="44.106463878327" y="15">10000</text>
	<line stroke="black" stroke-width="2" x1="40" x2="800" y1="285" y2="285" />
	<path d="M 40,285 L 40,284.97138 L 42.7376425855513,284.97138 L 42.7376425855513,285 Z" style="fill:blue;stroke:black;stroke-width:0.5;" />
	<path d="M 42.7376425855513,285 L 42.7376425855513,284.96841 L 45.4752851711027,284.96841 L 45.4752851711027,285 Z" style="fill:blue;stroke:black;stroke-width:0.5;" />
	<path d="M 45.4752851711027,285 L 45.4752851711027,284.96841 L 48.212927756654,284.96841 L 48.212927756654,285 Z" style="fill:blue;stroke:black;stroke-width:0.5;" />
	<path d="M 48.212927756654,285 L 48.212927756654,284.96436 L 50.9505703422053,284.96436 L 50.9505703422053,285 Z" style="fill:blue;stroke:black;stroke-width:0.5;" />
	<path d="M 50.9505703422053,285 L 50.9505703422053,275.7687 L 53.6882129277567,275.7687 L 53.6882129277567,285 Z" style="fill:blue;stroke:black;stroke-width:0.5;" />
	<line stroke="black" stroke-width="2" x1="52.319391634981" x2="52.319391634981" y1="285" y2="284" />
	<path d="M 53.6882129277567,285 L 53.6882129277567,275.70822 L 56.425855513308,275.70822 L 56.425855513308,285 Z" style="fill:blue;stroke:black;stroke-width:0.5;" />
	<path d="M 56.425855513308,285 L 56.425855513308,275.70525 L 59.1634980988593,275.70525 L 59.1634980988593,285 Z" style="fill:blue;stroke:black;stroke-width:0.5;" />
	<path d="M 59.1634980988593,285 L 59.1634980988593,275.69094 L 61.9011406844106,275.69094 L 61.9011406844106,285 Z" style="fill:blue;stroke:black;stroke-width:0.5;" />
	<path d="M 61.9011406844106,285 L 61.9011406844106,275.67528 L 64.638783269962,275.67528 L 64.638783269962,285 Z" style="fill:blue;stroke:black;stroke-width:0.5;" />
	<path d="M 64.638783269962,285 L 64.638783269962,275.67528 L 67.3764258555133,275.67528 L 67.3764258555133,285 Z" style="fill:blue;stroke:black;stroke-width:0.5;" />
	<text font-size="10" x="64.638783269962" y="297">10</text>
	<line stroke="black" stroke-width="2" x1="66.0076045627376" x2="66.0076045627376" y1="285" y2="283" />
	<line stroke="black" stroke-width="2" x1="66.0076045627376" x2="66.0076045627376" y1="285" y2="284" />
	<path d="M 67.3764258555133,285 L 67.3764258555133,275.6553 L 70.1140684410646,275.6553 L 70.1140684410646,285 Z" style="fill:blue;stroke:black;stroke-width:0.5;" />
	<path d="M 70.1140684410646,285 L 70.1140684410646,275.59374 L 72.851711026616,275.59374 L 72.851711026616,285 Z" style="fill:blue;stroke:black;stroke-width:0.5;" />
	<path d="M 72.851711026616,285 L 72.851711026616,275.58969 L 75.5893536121673,275.58969 L 75.5893536121673,285 Z" style="fill:blue;stroke:black;stroke-width:0.5;" />
	<path d="M 75.5893536121673,285 L 75.5893536121673,275.44821 L 78.3269961977186,275.44821 L 78.3269961977186,285 Z" style="fill:blue;stroke:black;stroke-width:0.5;" />
	<path d="M 78.3269961977186,285 L 78.3269961977186,275.41392 L 81.06463878327,275.41392 L 81.06463878327,285 Z" style="fill:blue;stroke:black;stroke-width:0.5;" />
	<line stroke="black" stroke-width="2" x1="79.6958174904943" x2="79.6958174904943" y1="285" y2="284" />
	<path d="M 81.06463878327,285 L 81.06463878327,37.48155 L 83.8022813688213,37.48155 L 83.8022813688213,285 Z" style="fill:gold;stroke:black;stroke-width:0.5;" />
	<path d="M 83.8022813688213,285 L 83.8022813688213,36.01086 L 86.5399239543726,36.01086 L 86.5399239543726,285 Z" style="fill:gold;stroke:black;stroke-width:0.5;" />
	<path d="M 86.5399239543726,285 L 86.5399239543726,35.93229 L 89.277566539924,35.93229 L 89.277566539924,285 Z" style="fill:gold;stroke:black;stroke-width:0.5;" />
	<path d="M 89.277566539924,285 L 89.277566539924,35.5305299999999 L 92.0152091254753,35.5305299999999 L 92.0152091254753,285 Z" style="fill:gold;stroke:black;stroke-width:0.5;" />
	<path d="M 92.0152091254753,285 L 92.0152091254753,35.39607 L 94.7528517110266,35.39607 L 94.7528517110266,285 Z" style="fill:gold;stroke:black;stroke-width:0.5;" />
	<text font-size="10" x="92.0152091254753" y="297">20</text>
	<line stroke="black" stroke-width="2" x1="93.3840304182509" x2="93.3840304182509" y1="285" y2="283" />
	<line stroke="black" stroke-width="2" x1="93.3840304182509" x2="93.3840304182509" y1="285" y2="284" />
	<path d="M 94.7528517110266,285 L 94.7528517110266,35.33586 L 97.4904942965779,35.33586 L 97.4904942965779,285 Z" style="fill:gold;stroke:black;stroke-width:0.5;" />
	<path d="M 97.4904942965779,285 L 97.4904942965779,35.30994 L 100.228136882129,35.30994 L 100.228136882129,285 Z" style="fill:gold;stroke:black;stroke-width:0.5;" />
	<path d="M 100.228136882129,285 L 100.228136882129,35.2527 L 102.965779467681,35.2527 L 102.965779467681,285 Z" style="fill:gold;stroke:black;stroke-width:0.5;" />
	<path d="M 102.965779467681,285 L 102.965779467681,35.1949200000001 L 105.703422053232,35.1949200000001 L 105.703422053232,285 Z" style="fill:gold;stroke:black;stroke-width:0.5;" />
	<path d="M 105.703422053232,285 L 105.703422053232,35.19222 L 108.441064638783,35.19222 L 108.441064638783,285 Z" style="fill:gold;stroke:black;stroke-width:0.5;" />
	<line stroke="black" stroke-width="2" x1="107.072243346008" x2="107.072243346008" y1="285" y2="284" />
	<path d="M 108.441064638783,285 L 108.441064638783,44.43891 L 111.178707224335,44.43891 L 111.178707224335,285 Z" style="fill:gold;stroke:black;stroke-width:0.5;" />
	<path d="M 111.178707224335,285 L 111.178707224335,44.44188 L 113.916349809886,44.44188 L 113.916349809886,285 Z" style="fill:gold;stroke:black;stroke-width:0.5;" />
	<path d="M 113.916349809886,285 L 113.916349809886,44.44188 L 116.653992395437,44.44188 L 116.653992395437,285 Z" style="fill:gold;stroke:black;stroke-width:0.5;" />
	<path d="M 116.653992395437,285 L 116.653992395437,44.45943 L 119.391634980989,44.45943 L 119.391634980989,285 Z" style="fill:gold;stroke:black;stroke-width:0.5;" />
	<path d="M 119.391634980989,285 L 119.391634980989,44.4675300000001 L 122.12927756654,44.4675300000001 L 122.12927756654,285 Z" style="fill:gold;stroke:black;stroke-width:0.5;" />
	<text font-size="10" x="119.391634980989" y="297">30</text>
	<line stroke="black" stroke-width="2" x1="120.760456273764" x2="120.760456273764" y1="285" y2="283" />
	<line stroke="black" stroke-width="2" x1="120.760456273764" x2="120.760456273764" y1="285" y2="284" />
	<path d="M 122.12927756654,285 L 122.12927756654,44.59065 L 124.866920152091,44.59065 L 124.866920152091,285 Z" style="fill:gold;stroke:black;stroke-width:0.5;" />
	<path d="M 124.866920152091,285 L 124.866920152091,44.77695 L 127.604562737643,44.77695 L 127.604562737643,285 Z" style="fill:gold;stroke:black;stroke-width:0.5;" />
	<path d="M 127.604562737643,285 L 127.604562737643,45.53322 L 130.342205323194,45.53322 L 130.342205323194,285 Z" style="fill:gold;stroke:black;stroke-width:0.5;" />
	<path d="M 130.342205323194,285 L 130.342205323194,45.83373 L 133.079847908745,45.83373 L 133.079847908745,285 Z" style="fill:gold;stroke:black;stroke-width:0.5;" />
	<path d="M 133.079847908745,285 L 133.079847908745,46.40046 L 135.817490494297,46.40046 L 135.817490494297,285 Z" style="fill:gold;stroke:black;stroke-width:0.5;" />
	<line stroke="black" stroke-width="2" x1="134.448669201521" x2="134.448669201521" y1="285" y2="284" />
	<path d="M 135.817490494297,285 L 135.817490494297,49.69176 L 138.555133079848,49.69176 L 138.555133079848,285 Z" style="fill:gold;stroke:black;stroke-width:0.5;" />
	<path d="M 138.555133079848,285 L 138.555133079848,171.13965 L 141.292775665399,171.13965 L 141.292775665399,285 Z" style="fill:blue;stroke:black;stroke-width:0.5;" />
	<path d="M 141.292775665399,285 L 141.292775665399,283.95483 L 144.030418250951,283.95483 L 144.030418250951,285 Z" style="fill:blue;stroke:black;stroke-width:0.5;" />
	<path d="M 144.030418250951,285 L 144.030418250951,284.487 L 146.768060836502,284.487 L 146.768060836502,285 Z" style="fill:blue;stroke:black;stroke-width:0.5;" />
	<path d="M 146.768060836502,285 L 146.768060836502,284.79453 L 149.505703422053,284.79453 L 149.505703422053,285 Z" style="fill:blue;stroke:black;stroke-width:0.5;" />
	<text font-size="10" x="146.768060836502" y="297">40</text>
	<line stroke="black" stroke-width="2" x1="148.136882129278" x2="148.136882129278" y1="285" y2="283" />
	<line stroke="black" stroke-width="2" x1="148.136882129278" x2="148.136882129278" y1="285" y2="284" />
	<path d="M 149.505703422053,285 L 149.505703422053,284.87229 L 152.243346007605,284.87229 L 152.243346007605,285 Z" style="fill:blue;stroke:black;stroke-width:0.5;" />
	<path d="M 152.243346007605,285 L 152.243346007605,284.87256 L 154.980988593156,284.87256 L 154.980988593156,285 Z" style="fill:blue;stroke:black;stroke-width:0.5;" />
	<path d="M 154.980988593156,285 L 154.980988593156,284.8785 L 157.718631178707,284.8785 L 157.718631178707,285 Z" style="fill:blue;stroke:black;stroke-width:0.5;" />
	<path d="M 157.718631178707,285 L 157.718631178707,284.88336 L 160.456273764259,284.88336 L 160.456273764259,285 Z" style="fill:blue;stroke:black;stroke-width:0.5;" />
	<path d="M 160.456273764259,285 L 160.456273764259,284.88336 L 163.19391634981,284.88336 L 163.19391634981,285 Z" style="fill:blue;stroke:black;stroke-width:0.5;" />
	<line stroke="black" stroke-width="2" x1="161.825095057034" x2="161.825095057034" y1="285" y2="284" />
	<path d="M 163.19391634981,285 L 163.19391634981,284.88336 L 165.931558935361,284.88336 L 165.931558935361,285 Z" style="fill:blue;stroke:black;stroke-width:0.5;" />
	<path d="M 165.931558935361,285 L 165.931558935361,284.88336 L 168.669201520913,284.88336 L 168.669201520913,285 Z" style="fill:blue;stroke:black;stroke-width:0.5;" />
	<path d="M 168.669201520913,285 L 168.669201520913,284.88336 L 171.406844106464,284.88336 L 171.406844106464,285 Z" style="fill:blue;stroke:black;stroke-width:0.5;" />
	<path d="M 171.406844106464,285 L 171.406844106464,284.88336 L 174.144486692015,284.88336 L 174.144486692015,285 Z" style="fill:blue;stroke:black;stroke-width:0.5;" />
	<path d="M 174.144486692015,285 L 174.144486692015,284.88336 L 176.882129277567,284.88336 L 176.882129277567,285 Z" style="fill:blue;stroke:black;stroke-width:0.5;" />
	<text font-size="10" x="174.144486692015" y="297">50</text>
	<line stroke="black" stroke-width="2" x1="175.513307984791" x2="175.513307984791" y1="285" y2="283" />
	<line stroke="black" stroke-width="2" x1="175.513307984791" x2="175.513307984791" y1="285" y2="284" />
	<path d="M 176.882129277567,285 L 176.882129277567,284.892 L 179.619771863118,284.892 L 179.619771863118,285 Z" style="fill:blue;stroke:black;stroke-width:0.5;" />
	<path d="M 179.619771863118,285 L 179.619771863118,284.89497 L 182.357414448669,284.89497 L 182.357414448669,285 Z" style="fill:blue;stroke:black;stroke-width:0.5;" />
	<path d="M 182.357414448669,285 L 182.357414448669,284.89794 L 185.095057034221,284.89794 L 185.095057034221,285 Z" style="fill:blue;stroke:black;stroke-width:0.5;" />
	<path d="M 185.095057034221,285 L 185.095057034221,284.93115 L 187.832699619772,284.93115 L 187.832699619772,285 Z" style="fill:blue;stroke:black;stroke-width:0.5;" />
	<path d="M 187.832699619772,285 L 187.832699619772,284.95707 L 190.570342205323,284.95707 L 190.570342205323,285 Z" style="fill:blue;stroke:black;stroke-width:0.5;" />
	<line stroke="black" stroke-width="2" x1="189.201520912548" x2="189.201520912548" y1="285" y2="284" />
	<path d="M 190.570342205323,285 L 190.570342205323,284.96301 L 193.307984790875,284.96301 L 193.307984790875,285 Z" style="fill:blue;stroke:black;stroke-width:0.5;" />
	<path d="M 193.307984790875,285 L 193.307984790875,284.96301 L 196.045627376426,284.96301 L 196.045627376426,285 Z" style="fill:blue;stroke:black;stroke-width:0.5;" />
	<path d="M 196.045627376426,285 L 196.045627376426,284.96301 L 198.783269961977,284.96301 L 198.783269961977,285 Z" style="fill:blue;stroke:black;stroke-width:0.5;" />
	<path d="M 198.783269961977,285 L 198.783269961977,284.96598 L 201.520912547528,284.96598 L 201.520912547528,285 Z" style="fill:blue;stroke:black;stroke-width:0.5;" />
	<path d="M 201.520912547528,285 L 201.520912547528,284.96193 L 204.25855513308,284.96193 L 204.25855513308,285 Z" style="fill:blue;stroke:black;stroke-width:0.5;" />
	<text font-size="10" x="201.520912547528" y="297">60</text>
	<line stroke="black" stroke-width="2" x1="202.889733840304" x2="202.889733840304" y1="285" y2="283" />
	<line stroke="black" stroke-width="2" x1="202.889733840304" x2="202.889733840304" y1="285" y2="284" />
	<path d="M 204.25855513308,285 L 204.25855513308,284.96193 L 206.996197718631,284.96193 L 206.996197718631,285 Z" style="fill:blue;stroke:black;stroke-width:0.5;" />
	<path d="M 206.996197718631,285 L 206.996197718631,284.95788 L 209.733840304183,284.95788 L 209.733840304183,285 Z" style="fill:blue;stroke:black;stroke-width:0.5;" />
	<path d="M 209.733840304183,285 L 209.733840304183,284.97327 L 212.471482889734,284.97327 L 212.471482889734,285 Z" style="fill:blue;stroke:black;stroke-width:0.5;" />
	<path d="M 212.471482889734,285 L 212.471482889734,284.98191 L 215.209125475285,284.98191 L 215.209125475285,285 Z" style="fill:blue;stroke:black;stroke-width:0.5;" />
	<path d="M 215.209125475285,285 L 215.209125475285,284.98191 L 217.946768060836,284.98191 L 217.946768060836,285 Z" style="fill:blue;stroke:black;stroke-width:0.5;" />
	<line stroke="black" stroke-width="2" x1="216.577946768061" x2="216.577946768061" y1="285" y2="284" />
	<path d="M 217.946768060836,285 L 217.946768060836,284.98785 L 220.684410646388,284.98785 L 220.684410646388,285 Z" style="fill:blue;stroke:black;stroke-width:0.5;" />
	<path d="M 220.684410646388,285 L 220.684410646388,284.9838 L 223.422053231939,284.9838 L 223.422053231939,285 Z" style="fill:blue;stroke:black;stroke-width:0.5;" />
	<path d="M 223.422053231939,285 L 223.422053231939,284.96382 L 226.15969581749,284.96382 L 226.15969581749,285 Z" style="fill:blue;stroke:black;stroke-width:0.5;" />
	<path d="M 226.15969581749,285 L 226.15969581749,284.92683 L 228.897338403042,284.92683 L 228.897338403042,285 Z" style="fill:blue;stroke:black;stroke-width:0.5;" />
	<path d="M 228.897338403042,285 L 228.897338403042,284.90982 L 231.634980988593,284.90982 L 231.634980988593,285 Z" style="fill:blue;stroke:black;stroke-width:0.5;" />
	<text font-size="10" x="228.897338403042" y="297">70</text>
	<line stroke="black" stroke-width="2" x1="230.266159695817" x2="230.266159695817" y1="285" y2="283" />
	<line stroke="black" stroke-width="2" x1="230.266159695817" x2="230.266159695817" y1="285" y2="284" />
	<path d="M 231.634980988593,285 L 231.634980988593,270.16836 L 234.372623574144,270.16836 L 234.372623574144,285 Z" style="fill:blue;stroke:black;stroke-width:0.5;" />
	<path d="M 234.372623574144,285 L 234.372623574144,253.36491 L 237.110266159696,253.36491 L 237.110266159696,285 Z" style="fill:gold;stroke:black;stroke-width:0.5;" />
	<path d="M 237.110266159696,285 L 237.110266159696,252.9861 L 239.847908745247,252.9861 L 239.847908745247,285 Z" style="fill:gold;stroke:black;stroke-width:0.5;" />
	<path d="M 239.847908745247,285 L 239.847908745247,251.61801 L 242.585551330798,251.61801 L 242.585551330798,285 Z" style="fill:gold;stroke:black;stroke-width:0.5;" />
	<path d="M 242.585551330798,285 L 242.585551330798,251.60937 L 245.32319391635,251.60937 L 245.32319391635,285 Z" style="fill:gold;stroke:black;stroke-width:0.5;" />
	<line stroke="black" stroke-width="2" x1="243.954372623574" x2="243.954372623574" y1="285" y2="284" />
	<path d="M 245.32319391635,285 L 245.32319391635,251.58804 L 248.060836501901,251.58804 L 248.060836501901,285 Z" style="fill:gold;stroke:black;stroke-width:0.5;" />
	<path d="M 248.060836501901,285 L 248.060836501901,251.58102 L 250.798479087452,251.58102 L 250.798479087452,285 Z" style="fill:gold;stroke:black;stroke-width:0.5;" />
	<path d="M 250.798479087452,285 L 250.798479087452,251.57508 L 253.536121673004,251.57508 L 253.536121673004,285 Z" style="fill:gold;stroke:black;stroke-width:0.5;" />
	<path d="M 253.536121673004,285 L 253.536121673004,251.57508 L 256.273764258555,251.57508 L 256.273764258555,285 Z" style="fill:gold;stroke:black;stroke-width:0.5;" />
	<path d="M 256.273764258555,285 L 256.273764258555,251.54943 L 259.011406844106,251.54943 L 259.011406844106,285 Z" style="fill:gold;stroke:black;stroke-width:0.5;" />
	<text font-size="10" x="256.273764258555" y="297">80</text>
	<line stroke="black" stroke-width="2" x1="257.642585551331" x2="257.642585551331" y1="285" y2="283" />
	<line stroke="black" stroke-width="2" x1="257.642585551331" x2="257.642585551331" y1="285" y2="284" />
	<path d="M 259.011406844106,285 L 259.011406844106,251.54943 L 261.749049429658,251.54943 L 261.749049429658,285 Z" style="fill:gold;stroke:black;stroke-width:0.5;" />
	<path d="M 261.749049429658,285 L 261.749049429658,251.54943 L 264.486692015209,251.54943 L 264.486692015209,285 Z" style="fill:gold;stroke:black;stroke-width:0.5;" />
	<path d="M 264.486692015209,285 L 264.486692015209,251.34315 L 267.22433460076,251.34315 L 267.22433460076,285 Z" style="fill:gold;stroke:black;stroke-width:0.5;" />
	<path d="M 267.22433460076,285 L 267.22433460076,251.31723 L 269.961977186312,251.31723 L 269.961977186312,285 Z" style="fill:gold;stroke:black;stroke-width:0.5;" />
	<path d="M 269.961977186312,285 L 269.961977186312,251.33154 L 272.699619771863,251.33154 L 272.699619771863,285 Z" style="fill:gold;stroke:black;stroke-width:0.5;" />
	<line stroke="black" stroke-width="2" x1="271.330798479087" x2="271.330798479087" y1="285" y2="284" />
	<path d="M 272.699619771863,285 L 272.699619771863,251.32398 L 275.437262357414,251.32398 L 275.437262357414,285 Z" style="fill:gold;stroke:black;stroke-width:0.5;" />
	<path d="M 275.437262357414,285 L 275.437262357414,251.33262 L 278.174904942966,251.33262 L 278.174904942966,285 Z" style="fill:gold;stroke:black;stroke-width:0.5;" />
	<path d="M 278.174904942966,285 L 278.174904942966,251.3499 L 280.912547528517,251.3499 L 280.912547528517,285 Z" style="fill:gold;stroke:black;stroke-width:0.5;" />
	<path d="M 280.912547528517,285 L 280.912547528517,251.36718 L 283.650190114068,251.36718 L 283.650190114068,285 Z" style="fill:gold;stroke:black;stroke-width:0.5;" />
	<path d="M 283.650190114068,285 L 283.650190114068,251.39553 L 286.38783269962,251.39553 L 286.38783269962,285 Z" style="fill:gold;stroke:black;stroke-width:0.5;" />
	<text font-size="10" x="283.650190114068" y="297">90</text>
	<line stroke="black" stroke-width="2" x1="285.019011406844" x2="285.019011406844" y1="285" y2="283" />
	<line stroke="black" stroke-width="2" x1="285.019011406844" x2="285.019011406844" y1="285" y2="284" />
	<path d="M 286.38783269962,285 L 286.38783269962,251.41011 L 289.125475285171,251.41011 L 289.125475285171,285 Z" style="fill:gold;stroke:black;stroke-width:0.5;" />
	<path d="M 289.125475285171,285 L 289.125475285171,251.69469 L 291.863117870722,251.69469 L 291.863117870722,285 Z" style="fill:gold;stroke:black;stroke-width:0.5;" />
	<path d="M 291.863117870722,285 L 291.863117870722,283.44696 L 294.600760456274,283.44696 L 294.600760456274,285 Z" style="fill:blue;stroke:black;stroke-width:0.5;" />
	<path d="M 294.600760456274,285 L 294.600760456274,283.46424 L 297.338403041825,283.46424 L 297.338403041825,285 Z" style="fill:blue;stroke:black;stroke-width:0.5;" />
	<path d="M 297.338403041825,285 L 297.338403041825,284.66952 L 300.076045627376,284.66952 L 300.076045627376,285 Z" style="fill:blue;stroke:black;stroke-width:0.5;" />
	<line stroke="black" stroke-width="2" x1="298.707224334601" x2="298.707224334601" y1="285" y2="284" />
	<path d="M 300.076045627376,285 L 300.076045627376,284.69355 L 302.813688212928,284.69355 L 302.813688212928,285 Z" style="fill:blue;stroke:black;stroke-width:0.5;" />
	<path d="M 302.813688212928,285 L 302.813688212928,284.70219 L 305.551330798479,284.70219 L 305.551330798479,285 Z" style="fill:blue;stroke:black;stroke-width:0.5;" />
	<path d="M 305.551330798479,285 L 305.551330798479,284.71758 L 308.28897338403,284.71758 L 308.28897338403,285 Z" style="fill:blue;stroke:black;stroke-width:0.5;" />
	<path d="M 308.28897338403,285 L 308.28897338403,284.71758 L 311.026615969582,284.71758 L 311.026615969582,285 Z" style="fill:blue;stroke:black;stroke-width:0.5;" />
	<path d="M 311.026615969582,285 L 311.026615969582,284.71758 L 313.764258555133,284.71758 L 313.764258555133,285 Z" style="fill:blue;stroke:black;stroke-width:0.5;" />
	<text font-size="10" x="311.026615969582" y="297">100</text>
	<line stroke="black" stroke-width="2" x1="312.395437262357" x2="312.395437262357" y1="285" y2="283" />
	<line stroke="black" stroke-width="2" x1="312.395437262357" x2="312.395437262357" y1="285" y2="284" />
	<path d="M 313.764258555133,285 L 313.764258555133,284.75484 L 316.501901140684,284.75484 L 316.501901140684,285 Z" style="fill:blue;stroke:black;stroke-width:0.5;" />
	<path d="M 316.501901140684,285 L 316.501901140684,284.76348 L 319.239543726236,284.76348 L 319.239543726236,285 Z" style="fill:blue;stroke:black;stroke-width:0.5;" />
	<path d="M 319.239543726236,285 L 319.239543726236,284.76645 L 321.977186311787,284.76645 L 321.977186311787,285 Z" style="fill:blue;stroke:black;stroke-width:0.5;" />
	<path d="M 321.977186311787,285 L 321.977186311787,284.98434 L 324.714828897338,284.98434 L 324.714828897338,285 Z" style="fill:blue;stroke:black;stroke-width:0.5;" />
	<path d="M 324.714828897338,285 L 324.714828897338,284.98434 L 327.45247148289,284.98434 L 327.45247148289,285 Z" style="fill:blue;stroke:black;stroke-width:0.5;" />
	<line stroke="black" stroke-width="2" x1="326.083650190114" x2="326.083650190114" y1="285" y2="284" />
	<path d="M 327.45247148289,285 L 327.45247148289,284.98731 L 330.190114068441,284.98731 L 330.190114068441,285 Z" style="fill:blue;stroke:black;stroke-width:0.5;" />
	<path d="M 330.190114068441,285 L 330.190114068441,284.99136 L 332.927756653992,284.99136 L 332.927756653992,285 Z" style="fill:blue;stroke:black;stroke-width:0.5;" />
	<path d="M 332.927756653992,285 L 332.927756653992,284.99703 L 335.665399239544,284.99703 L 335.665399239544,285 Z" style="fill:blue;stroke:black;stroke-width:0.5;" />
	<path d="M 335.665399239544,285 L 335.665399239544,284.99703 L 338.403041825095,284.99703 L 338.403041825095,285 Z" style="fill:blue;stroke:black;stroke-width:0.5;" />
	<path d="M 338.403041825095,285 L 338.403041825095,284.99703 L 341.140684410646,284.99703 L 341.140684410646,285 Z" style="fill:blue;stroke:black;stroke-width:0.5;" />
	<text font-size="10" x="338.403041825095" y="297">110</text>
	<line stroke="black" stroke-width="2" x1="339.771863117871" x2="339.771863117871" y1="285" y2="283" />
	<line stroke="black" stroke-width="2" x1="339.771863117871" x2="339.771863117871" y1="285" y2="284" />
	<path d="M 341.140684410646,285 L 341.140684410646,285 L 343.878326996198,285 L 343.878326996198,285 Z" style="fill:blue;stroke:black;stroke-width:0.5;" />
	<path d="M 343.878326996198,285 L 343.878326996198,285 L 346.615969581749,285 L 346.615969581749,285 Z" style="fill:blue;stroke:black;stroke-width:0.5;" />
	<path d="M 346.615969581749,285 L 346.615969581749,285 L 349.3536121673,285 L 349.3536121673,285 Z" style="fill:blue;stroke:black;stroke-width:0.5;" />
	<path d="M 349.3536121673,285 L 349.3536121673,285 L 352.091254752852,285 L 352.091254752852,285 Z" style="fill:blue;stroke:black;stroke-width:0.5;" />
	<path d="M 352.091254752852,285 L 352.091254752852,285 L 354.828897338403,285 L 354.828897338403,285 Z" style="fill:blue;stroke:black;stroke-width:0.5;" />
	<line stroke="black" stroke-width="2" x1="353.460076045627" x2="353.460076045627" y1="285" y2="284" />
	<path d="M 354.828897338403,285 L 354.828897338403,285 L 357.566539923954,285 L 357.566539923954,285 Z" style="fill:blue;stroke:black;stroke-width:0.5;" />
	<path d="M 357.566539923954,285 L 357.566539923954,285 L 360.304182509506,285 L 360.304182509506,285 Z" style="fill:blue;stroke:black;stroke-width:0.5;" />
	<path d="M 360.304182509506,285 L 360.304182509506,285 L 363.041825095057,285 L 363.041825095057,285 Z" style="fill:blue;stroke:black;stroke-width:0.5;" />
	<path d="M 363.041825095057,285 L 363.041825095057,285 L 365.779467680608,285 L 365.779467680608,285 Z" style="fill:blue;stroke:black;stroke-width:0.5;" />
	<path d="M 365.779467680608,285 L 365.779467680608,285 L 368.51711026616,285 L 368.51711026616,285 Z" style="fill:blue;stroke:black;stroke-width:0.5;" />
	<text font-size="10" x="365.779467680608" y="297">120</text>
	<line stroke="black" stroke-width="2" x1="367.148288973384" x2="367.148288973384" y1="285" y2="283" />
	<line stroke="black" stroke-width="2" x1="367.148288973384" x2="367.148288973384" y1="285" y2="284" />
	<path d="M 368.51711026616,285 L 368.51711026616,285 L 371.254752851711,285 L 371.254752851711,285 Z" style="fill:blue;stroke:black;stroke-width:0.5;" />
	<path d="M 371.254752851711,285 L 371.254752851711,285 L 373.992395437262,285 L 373.992395437262,285 Z" style="fill:blue;stroke:black;stroke-width:0.5;" />
	<path d="M 373.992395437262,285 L 373.992395437262,285 L 376.730038022814,285 L 376.730038022814,285 Z" style="fill:blue;stroke:black;stroke-width:0.5;" />
	<path d="M 376.730038022814,285 L 376.730038022814,285 L 379.467680608365,285 L 379.467680608365,285 Z" style="fill:blue;stroke:black;stroke-width:0.5;" />
	<path d="M 379.467680608365,285 L 379.467680608365,285 L 382.205323193916,285 L 382.205323193916,285 Z" style="fill:blue;stroke:black;stroke-width:0.5;" />
	<line stroke="black" stroke-width="2" x1="380.836501901141" x2="380.836501901141" y1="285" y2="284" />
	<path d="M 382.205323193916,285 L 382.205323193916,285 L 384.942965779468,285 L 384.942965779468,285 Z" style="fill:blue;stroke:black;stroke-width:0.5;" />
	<path d="M 384.942965779468,285 L 384.942965779468,285 L 387.680608365019,285 L 387.680608365019,285 Z" style="fill:blue;stroke:black;stroke-width:0.5;" />
	<path d="M 387.680608365019,285 L 387.680608365019,285 L 390.41825095057,285 L 390.41825095057,285 Z" style="fill:blue;stroke:black;stroke-width:0.5;" />
	<path d="M 390.41825095057,285 L 390.41825095057,285 L 393.155893536122,285 L 393.155893536122,285 Z" style="fill:blue;stroke:black;stroke-width:0.5;" />
	<path d="M 393.155893536122,285 L 393.155893536122,285 L 395.893536121673,285 L 395.893536121673,285 Z" style="fill:blue;stroke:black;stroke-width:0.5;" />
	<text font-size="10" x="393.155893536122" y="297">130</text>
	<line stroke="black" stroke-width="2" x1="394.524714828897" x2="394.524714828897" y1="285" y2="283" />
	<line stroke="black" stroke-width="2" x1="394.524714828897" x2="394.524714828897" y1="285" y2="284" />
	<path d="M 395.893536121673,285 L 395.893536121673,285 L 398.631178707224,285 L 398.631178707224,285 Z" style="fill:blue;stroke:black;stroke-width:0.5;" />
	<path d="M 398.631178707224,285 L 398.631178707224,285 L 401.368821292776,285 L 401.368821292776,285 Z" style="fill:blue;stroke:black;stroke-width:0.5;" />
	<path d="M 401.368821292776,285 L 401.368821292776,285 L 404.106463878327,285 L 404.106463878327,285 Z" style="fill:blue;stroke:black;stroke-width:0.5;" />
	<path d="M 404.106463878327,285 L 404.106463878327,285 L 406.844106463878,285 L 406.844106463878,285 Z" style="fill:blue;stroke:black;stroke-width:0.5;" />
	<path d="M 406.844106463878,285 L 406.844106463878,285 L 409.58174904943,285 L 409.58174904943,285 Z" style="fill:blue;stroke:black;stroke-width:0.5;" />
	<line stroke="black" stroke-width="2" x1="408.212927756654" x2="408.212927756654" y1="285" y2="284" />
	<path d="M 409.58174904943,285 L 409.58174904943,285 L 412.319391634981,285 L 412.319391634981,285 Z" style="fill:blue;stroke:black;stroke-width:0.5;" />
	<path d="M 412.319391634981,285 L 412.319391634981,284.99703 L 415.057034220532,284.99703 L 415.057034220532,285 Z" style="fill:blue;stroke:black;stroke-width:0.5;" />
	<path d="M 415.057034220532,285 L 415.057034220532,284.99703 L 417.794676806084,284.99703 L 417.794676806084,285 Z" style="fill:blue;stroke:black;stroke-width:0.5;" />
	<path d="M 417.794676806084,285 L 417.794676806084,284.99703 L 420.532319391635,284.99703 L 420.532319391635,285 Z" style="fill:blue;stroke:black;stroke-width:0.5;" />
	<path d="M 420.532319391635,285 L 420.532319391635,284.99406 L 423.269961977186,284.99406 L 423.269961977186,285 Z" style="fill:blue;stroke:black;stroke-width:0.5;" />
	<text font-size="10" x="420.532319391635" y="297">140</text>
	<line stroke="black" stroke-width="2" x1="421.901140684411" x2="421.901140684411" y1="285" y2="283" />
	<line stroke="black" stroke-width="2" x1="421.901140684411" x2="421.901140684411" y1="285" y2="284" />
	<path d="M 423.269961977186,285 L 423.269961977186,284.99406 L 426.007604562738,284.99406 L 426.007604562738,285 Z" style="fill:blue;stroke:black;stroke-width:0.5;" />
	<path d="M 426.007604562738,285 L 426.007604562738,284.99406 L 428.745247148289,284.99406 L 428.745247148289,285 Z" style="fill:blue;stroke:black;stroke-width:0.5;" />
	<path d="M 428.745247148289,285 L 428.745247148289,284.99406 L 431.48288973384,284.99406 L 431.48288973384,285 Z" style="fill:blue;stroke:black;stroke-width:0.5;" />
	<path d="M 431.48288973384,285 L 431.48288973384,284.99406 L 434.220532319392,284.99406 L 434.220532319392,285 Z" style="fill:blue;stroke:black;stroke-width:0.5;" />
	<path d="M 434.220532319392,285 L 434.220532319392,284.99109 L 436.958174904943,284.99109 L 436.958174904943,285 Z" style="fill:blue;stroke:black;stroke-width:0.5;" />
	<line stroke="black" stroke-width="2" x1="435.589353612167" x2="435.589353612167" y1="285" y2="284" />
	<path d="M 436.958174904943,285 L 436.958174904943,284.99109 L 439.695817490494,284.99109 L 439.695817490494,285 Z" style="fill:blue;stroke:black;stroke-width:0.5;" />
	<path d="M 439.695817490494,285 L 439.695817490494,284.99109 L 442.433460076046,284.99109 L 442.433460076046,285 Z" style="fill:blue;stroke:black;stroke-width:0.5;" />
	<path d="M 442.433460076046,285 L 442.433460076046,284.99109 L 445.171102661597,284.99109 L 445.171102661597,285 Z" style="fill:blue;stroke:black;stroke-width:0.5;" />
	<path d="M 445.171102661597,285 L 445.171102661597,284.99109 L 447.908745247148,284.99109 L 447.908745247148,285 Z" style="fill:blue;stroke:black;stroke-width:0.5;" />
	<path d="M 447.908745247148,285 L 447.908745247148,284.99109 L 450.6463878327,284.99109 L 450.6463878327,285 Z" style="fill:blue;stroke:black;stroke-width:0.5;" />
	<text font-size="10" x="447.908745247148" y="297">150</text>
	<line stroke="black" stroke-width="2" x1="449.277566539924" x2="449.277566539924" y1="285" y2="283" />
	<line stroke="black" stroke-width="2" x1="449.277566539924" x2="449.277566539924" y1="285" y2="284" />
	<path d="M 450.6463878327,285 L 450.6463878327,284.99109 L 453.384030418251,284.99109 L 453.384030418251,285 Z" style="fill:blue;stroke:black;stroke-width:0.5;" />
	<path d="M 453.384030418251,285 L 453.384030418251,284.99109 L 456.121673003802,284.99109 L 456.121673003802,285 Z" style="fill:blue;stroke:black;stroke-width:0.5;" />
	<path d="M 456.121673003802,285 L 456.121673003802,284.99109 L 458.859315589354,284.99109 L 458.859315589354,285 Z" style="fill:blue;stroke:black;stroke-width:0.5;" />
	<path d="M 458.859315589354,285 L 458.859315589354,284.99109 L 461.596958174905,284.99109 L 461.596958174905,285 Z" style="fill:blue;stroke:black;stroke-width:0.5;" />
	<path d="M 461.596958174905,285 L 461.596958174905,284.99109 L 464.334600760456,284.99109 L 464.334600760456,285 Z" style="fill:blue;stroke:black;stroke-width:0.5;" />
	<line stroke="black" stroke-width="2" x1="462.965779467681" x2="462.965779467681" y1="285" y2="284" />
	<path d="M 464.334600760456,285 L 464.334600760456,284.99109 L 467.072243346008,284.99109 L 467.072243346008,285 Z" style="fill:blue;stroke:black;stroke-width:0.5;" />
	<path d="M 467.072243346008,285 L 467.072243346008,284.99406 L 469.809885931559,284.99406 L 469.809885931559,285 Z" style="fill:blue;stroke:black;stroke-width:0.5;" />
	<path d="M 469.809885931559,285 L 469.809885931559,284.99406 L 472.54752851711,284.99406 L 472.54752851711,285 Z" style="fill:blue;stroke:black;stroke-width:0.5;" />
	<path d="M 472.54752851711,285 L 472.54752851711,284.99406 L 475.285171102662,284.99406 L 475.285171102662,285 Z" style="fill:blue;stroke:black;stroke-width:0.5;" />
	<path d="M 475.285171102662,285 L 475.285171102662,284.99406 L 478.022813688213,284.99406 L 478.022813688213,285 Z" style="fill:blue;stroke:black;stroke-width:0.5;" />
	<text font-size="10" x="475.285171102662" y="297">160</text>
	<line stroke="black" stroke-width="2" x1="476.653992395437" x2="476.653992395437" y1="285" y2="283" />
	<line stroke="black" stroke-width="2" x1="476.653992395437" x2="476.653992395437" y1="285" y2="284" />
	<path d="M 478.022813688213,285 L 478.022813688213,284.99703 L 480.760456273764,284.99703 L 480.760456273764,285 Z" style="fill:blue;stroke:black;stroke-width:0.5;" />
	<path d="M 480.760456273764,285 L 480.760456273764,284.99703 L 483.498098859316,284.99703 L 483.498098859316,285 Z" style="fill:blue;stroke:black;stroke-width:0.5;" />
	<path d="M 483.498098859316,285 L 483.498098859316,284.99703 L 486.235741444867,284.99703 L 486.235741444867,285 Z" style="fill:blue;stroke:black;stroke-width:0.5;" />
	<path d="M 486.235741444867,285 L 486.235741444867,284.99703 L 488.973384030418,284.99703 L 488.973384030418,285 Z" style="fill:blue;stroke:black;stroke-width:0.5;" />
	<path d="M 488.973384030418,285 L 488.973384030418,284.99703 L 491.71102661597,284.99703 L 491.71102661597,285 Z" style="fill:blue;stroke:black;stroke-width:0.5;" />
	<line stroke="black" stroke-width="2" x1="490.342205323194" x2="490.342205323194" y1="285" y2="284" />
	<path d="M 491.71102661597,285 L 491.71102661597,284.99703 L 494.448669201521,284.99703 L 494.448669201521,285 Z" style="fill:blue;stroke:black;stroke-width:0.5;" />
	<path d="M 494.448669201521,285 L 494.448669201521,285 L 497.186311787072,285 L 497.186311787072,285 Z" style="fill:blue;stroke:black;stroke-width:0.5;" />
	<path d="M 497.186311787072,285 L 497.186311787072,285 L 499.923954372624,285 L 499.923954372624,285 Z" style="fill:blue;stroke:black;stroke-width:0.5;" />
	<path d="M 499.923954372624,285 L 499.923954372624,285 L 502.661596958175,285 L 502.661596958175,285 Z" style="fill:blue;stroke:black;stroke-width:0.5;" />
	<path d="M 502.661596958175,285 L 502.661596958175,285 L 505.399239543726,285 L 505.399239543726,285 Z" style="fill:blue;stroke:black;stroke-width:0.5;" />
	<text font-size="10" x="502.661596958175" y="297">170</text>
	<line stroke="black" stroke-width="2" x1="504.030418250951" x2="504.030418250951" y1="285" y2="283" />
	<line stroke="black" stroke-width="2" x1="504.030418250951" x2="504.030418250951" y1="285" y2="284" />
	<path d="M 505.399239543726,285 L 505.399239543726,285 L 508.136882129278,285 L 508.136882129278,285 Z" style="fill:blue;stroke:black;stroke-width:0.5;" />
	<path d="M 508.136882129278,285 L 508.136882129278,285 L 510.874524714829,285 L 510.874524714829,285 Z" style="fill:blue;stroke:black;stroke-width:0.5;" />
	<path d="M 510.874524714829,285 L 510.874524714829,285 L 513.61216730038,285 L 513.61216730038,285 Z" style="fill:blue;stroke:black;stroke-width:0.5;" />
	<path d="M 513.61216730038,285 L 513.61216730038,285 L 516.349809885932,285 L 516.349809885932,285 Z" style="fill:blue;stroke:black;stroke-width:0.5;" />
	<path d="M 516.349809885932,285 L 516.349809885932,285 L 519.087452471483,285 L 519.087452471483,285 Z" style="fill:blue;stroke:black;stroke-width:0.5;" />
	<line stroke="black" stroke-width="2" x1="517.718631178707" x2="517.718631178707" y1="285" y2="284" />
	<path d="M 519.087452471483,285 L 519.087452471483,285 L 521.825095057034,285 L 521.825095057034,285 Z" style="fill:blue;stroke:black;stroke-width:0.5;" />
	<path d="M 521.825095057034,285 L 521.825095057034,285 L 524.562737642585,285 L 524.562737642585,285 Z" style="fill:blue;stroke:black;stroke-width:0.5;" />
	<path d="M 524.562737642585,285 L 524.562737642585,285 L 527.300380228137,285 L 527.300380228137,285 Z" style="fill:blue;stroke:black;stroke-width:0.5;" />
	<path d="M 527.300380228137,285 L 527.300380228137,285 L 530.038022813688,285 L 530.038022813688,285 Z" style="fill:blue;stroke:black;stroke-width:0.5;" />
	<path d="M 530.038022813688,285 L 530.038022813688,285 L 532.77566539924,285 L 532.77566539924,285 Z" style="fill:blue;stroke:black;stroke-width:0.5;" />
	<text font-size="10" x="530.038022813688" y="297">180</text>
	<line stroke="black" stroke-width="2" x1="531.406844106464" x2="531.406844106464" y1="285" y2="283" />
	<line stroke="black" stroke-width="2" x1="531.406844106464" x2="531.406844106464" y1="285" y2="284" />
	<path d="M 532.77566539924,285 L 532.77566539924,285 L 535.513307984791,285 L 535.513307984791,285 Z" style="fill:blue;stroke:black;stroke-width:0.5;" />
	<path d="M 535.513307984791,285 L 535.513307984791,285 L 538.250950570342,285 L 538.250950570342,285 Z" style="fill:blue;stroke:black;stroke-width:0.5;" />
	<path d="M 538.250950570342,285 L 538.250950570342,284.99703 L 540.988593155894,284.99703 L 540.988593155894,285 Z" style="fill:blue;stroke:black;stroke-width:0.5;" />
	<path d="M 540.988593155894,285 L 540.988593155894,284.99703 L 543.726235741445,284.99703 L 543.726235741445,285 Z" style="fill:blue;stroke:black;stroke-width:0.5;" />
	<path d="M 543.726235741445,285 L 543.726235741445,284.99703 L 546.463878326996,284.99703 L 546.463878326996,285 Z" style="fill:blue;stroke:black;stroke-width:0.5;" />
	<line stroke="black" stroke-width="2" x1="545.09505703422" x2="545.09505703422" y1="285" y2="284" />
	<path d="M 546.463878326996,285 L 546.463878326996,284.99703 L 549.201520912547,284.99703 L 549.201520912547,285 Z" style="fill:blue;stroke:black;stroke-width:0.5;" />
	<path d="M 549.201520912547,285 L 549.201520912547,284.99703 L 551.939163498099,284.99703 L 551.939163498099,285 Z" style="fill:blue;stroke:black;stroke-width:0.5;" />
	<path d="M 551.939163498099,285 L 551.939163498099,284.99703 L 554.67680608365,284.99703 L 554.67680608365,285 Z" style="fill:blue;stroke:black;stroke-width:0.5;" />
	<path d="M 554.67680608365,285 L 554.67680608365,284.99703 L 557.414448669202,284.99703 L 557.414448669202,285 Z" style="fill:blue;stroke:black;stroke-width:0.5;" />
	<path d="M 557.414448669202,285 L 557.414448669202,284.99703 L 560.152091254753,284.99703 L 560.152091254753,285 Z" style="fill:blue;stroke:black;stroke-width:0.5;" />
	<text font-size="10" x="557.414448669202" y="297">190</text>
	<line stroke="black" stroke-width="2" x1="558.783269961977" x2="558.783269961977" y1="285" y2="283" />
	<line stroke="black" stroke-width="2" x1="558.783269961977" x2="558.783269961977" y1="285" y2="284" />
	<path d="M 560.152091254753,285 L 560.152091254753,284.99703 L 562.889733840304,284.99703 L 562.889733840304,285 Z" style="fill:blue;stroke:black;stroke-width:0.5;" />
	<path d="M 562.889733840304,285 L 562.889733840304,284.99703 L 565.627376425855,284.99703 L 565.627376425855,285 Z" style="fill:blue;stroke:black;stroke-width:0.5;" />
	<path d="M 565.627376425855,285 L 565.627376425855,284.99703 L 568.365019011407,284.99703 L 568.365019011407,285 Z" style="fill:blue;stroke:black;stroke-width:0.5;" />
	<path d="M 568.365019011407,285 L 568.365019011407,284.99703 L 571.102661596958,284.99703 L 571.102661596958,285 Z" style="fill:blue;stroke:black;stroke-width:0.5;" />
	<path d="M 571.102661596958,285 L 571.102661596958,284.99703 L 573.840304182509,284.99703 L 573.840304182509,285 Z" style="fill:blue;stroke:black;stroke-width:0.5;" />
	<line stroke="black" stroke-width="2" x1="572.471482889734" x2="572.471482889734" y1="285" y2="284" />
	<path d="M 573.840304182509,285 L 573.840304182509,284.99703 L 576.577946768061,284.99703 L 576.577946768061,285 Z" style="fill:blue;stroke:black;stroke-width:0.5;" />
	<path d="M 576.577946768061,285 L 576.577946768061,284.99703 L 579.315589353612,284.99703 L 579.315589353612,285 Z" style="fill:blue;stroke:black;stroke-width:0.5;" />
	<path d="M 579.315589353612,285 L 579.315589353612,284.99703 L 582.053231939163,284.99703 L 582.053231939163,285 Z" style="fill:blue;stroke:black;stroke-width:0.5;" />
	<path d="M 582.053231939163,285 L 582.053231939163,284.99703 L 584.790874524715,284.99703 L 584.790874524715,285 Z" style="fill:blue;stroke:black;stroke-width:0.5;" />
	<path d="M 584.790874524715,285 L 584.790874524715,284.99703 L 587.528517110266,284.99703 L 587.528517110266,285 Z" style="fill:blue;stroke:black;stroke-width:0.5;" />
	<text font-size="10" x="584.790874524715" y="297">200</text>
	<line stroke="black" stroke-width="2" x1="586.159695817491" x2="586.159695817491" y1="285" y2="283" />
	<line stroke="black" stroke-width="2" x1="586.159695817491" x2="586.159695817491" y1="285" y2="284" />
	<path d="M 587.528517110266,285 L 587.528517110266,285 L 590.266159695817,285 L 590.266159695817,285 Z" style="fill:blue;stroke:black;stroke-width:0.5;" />
	<path d="M 590.266159695817,285 L 590.266159695817,285 L 593.003802281369,285 L 593.003802281369,285 Z" style="fill:blue;stroke:black;stroke-width:0.5;" />
	<path d="M 593.003802281369,285 L 593.003802281369,285 L 595.74144486692,285 L 595.74144486692,285 Z" style="fill:blue;stroke:black;stroke-width:0.5;" />
	<path d="M 595.74144486692,285 L 595.74144486692,285 L 598.479087452472,285 L 598.479087452472,285 Z" style="fill:blue;stroke:black;stroke-width:0.5;" />
	<path d="M 598.479087452472,285 L 598.479087452472,285 L 601.216730038023,285 L 601.216730038023,285 Z" style="fill:blue;stroke:black;stroke-width:0.5;" />
	<line stroke="black" stroke-width="2" x1="599.847908745247" x2="599.847908745247" y1="285" y2="284" />
	<path d="M 601.216730038023,285 L 601.216730038023,285 L 603.954372623574,285 L 603.954372623574,285 Z" style="fill:blue;stroke:black;stroke-width:0.5;" />
	<path d="M 603.954372623574,285 L 603.954372623574,285 L 606.692015209125,285 L 606.692015209125,285 Z" style="fill:blue;stroke:black;stroke-width:0.5;" />
	<path d="M 606.692015209125,285 L 606.692015209125,285 L 609.429657794677,285 L 609.429657794677,285 Z" style="fill:blue;stroke:black;stroke-width:0.5;" />
	<path d="M 609.429657794677,285 L 609.429657794677,285 L 612.167300380228,285 L 612.167300380228,285 Z" style="fill:blue;stroke:black;stroke-width:0.5;" />
	<path d="M 612.167300380228,285 L 612.167300380228,284.99703 L 614.904942965779,284.99703 L 614.904942965779,285 Z" style="fill:blue;stroke:black;stroke-width:0.5;" />
	<text font-size="10" x="612.167300380228" y="297">210</text>
	<line stroke="black" stroke-width="2" x1="613.536121673004" x2="613.536121673004" y1="285" y2="283" />
	<line stroke="black" stroke-width="2" x1="613.536121673004" x2="613.536121673004" y1="285" y2="284" />
	<path d="M 614.904942965779,285 L 614.904942965779,284.99703 L 617.642585551331,284.99703 L 617.642585551331,285 Z" style="fill:blue;stroke:black;stroke-width:0.5;" />
	<path d="M 617.642585551331,285 L 617.642585551331,284.99703 L 620.380228136882,284.99703 L 620.380228136882,285 Z" style="fill:blue;stroke:black;stroke-width:0.5;" />
	<path d="M 620.380228136882,285 L 620.380228136882,284.99703 L 623.117870722433,284.99703 L 623.117870722433,285 Z" style="fill:blue;stroke:black;stroke-width:0.5;" />
	<path d="M 623.117870722433,285 L 623.117870722433,284.99703 L 625.855513307985,284.99703 L 625.855513307985,285 Z" style="fill:blue;stroke:black;stroke-width:0.5;" />
	<path d="M 625.855513307985,285 L 625.855513307985,284.99703 L 628.593155893536,284.99703 L 628.593155893536,285 Z" style="fill:blue;stroke:black;stroke-width:0.5;" />
	<line stroke="black" stroke-width="2" x1="627.22433460076" x2="627.22433460076" y1="285" y2="284" />
	<path d="M 628.593155893536,285 L 628.593155893536,284.99703 L 631.330798479087,284.99703 L 631.330798479087,285 Z" style="fill:blue;stroke:black;stroke-width:0.5;" />
	<path d="M 631.330798479087,285 L 631.330798479087,284.99703 L 634.068441064639,284.99703 L 634.068441064639,285 Z" style="fill:blue;stroke:black;stroke-width:0.5;" />
	<path d="M 634.068441064639,285 L 634.068441064639,284.99406 L 636.80608365019,284.99406 L 636.80608365019,285 Z" style="fill:blue;stroke:black;stroke-width:0.5;" />
	<path d="M 636.80608365019,285 L 636.80608365019,284.99406 L 639.543726235741,284.99406 L 639.543726235741,285 Z" style="fill:blue;stroke:black;stroke-width:0.5;" />
	<path d="M 639.543726235741,285 L 639.543726235741,284.99406 L 642.281368821293,284.99406 L 642.281368821293,285 Z" style="fill:blue;stroke:black;stroke-width:0.5;" />
	<text font-size="10" x="639.543726235741" y="297">220</text>
	<line stroke="black" stroke-width="2" x1="640.912547528517" x2="640.912547528517" y1="285" y2="283" />
	<line stroke="black" stroke-width="2" x1="640.912547528517" x2="640.912547528517" y1="285" y2="284" />
	<path d="M 642.281368821293,285 L 642.281368821293,284.99406 L 645.019011406844,284.99406 L 645.019011406844,285 Z" style="fill:blue;stroke:black;stroke-width:0.5;" />
	<path d="M 645.019011406844,285 L 645.019011406844,284.99406 L 647.756653992395,284.99406 L 647.756653992395,285 Z" style="fill:blue;stroke:black;stroke-width:0.5;" />
	<path d="M 647.756653992395,285 L 647.756653992395,284.99406 L 650.494296577947,284.99406 L 650.494296577947,285 Z" style="fill:blue;stroke:black;stroke-width:0.5;" />
	<path d="M 650.494296577947,285 L 650.494296577947,284.99406 L 653.231939163498,284.99406 L 653.231939163498,285 Z" style="fill:blue;stroke:black;stroke-width:0.5;" />
	<path d="M 653.231939163498,285 L 653.231939163498,284.99406 L 655.969581749049,284.99406 L 655.969581749049,285 Z" style="fill:blue;stroke:black;stroke-width:0.5;" />
	<line stroke="black" stroke-width="2" x1="654.600760456274" x2="654.600760456274" y1="285" y2="284" />
	<path d="M 655.969581749049,285 L 655.969581749049,284.99406 L 658.707224334601,284.99406 L 658.707224334601,285 Z" style="fill:blue;stroke:black;stroke-width:0.5;" />
	<path d="M 658.707224334601,285 L 658.707224334601,284.99406 L 661.444866920152,284.99406 L 661.444866920152,285 Z" style="fill:blue;stroke:black;stroke-width:0.5;" />
	<path d="M 661.444866920152,285 L 661.444866920152,284.99406 L 664.182509505703,284.99406 L 664.182509505703,285 Z" style="fill:blue;stroke:black;stroke-width:0.5;" />
	<path d="M 664.182509505703,285 L 664.182509505703,284.99406 L 666.920152091255,284.99406 L 666.920152091255,285 Z" style="fill:blue;stroke:black;stroke-width:0.5;" />
	<path d="M 666.920152091255,285 L 666.920152091255,284.99406 L 669.657794676806,284.99406 L 669.657794676806,285 Z" style="fill:blue;stroke:black;stroke-width:0.5;" />
	<text font-size="10" x="666.920152091255" y="297">230</text>
	<line stroke="black" stroke-width="2" x1="668.28897338403" x2="668.28897338403" y1="285" y2="283" />
	<line stroke="black" stroke-width="2" x1="668.28897338403" x2="668.28897338403" y1="285" y2="284" />
	<path d="M 669.657794676806,285 L 669.657794676806,284.99406 L 672.395437262357,284.99406 L 672.395437262357,285 Z" style="fill:blue;stroke:black;stroke-width:0.5;" />
	<path d="M 672.395437262357,285 L 672.395437262357,284.99406 L 675.133079847909,284.99406 L 675.133079847909,285 Z" style="fill:blue;stroke:black;stroke-width:0.5;" />
	<path d="M 675.133079847909,285 L 675.133079847909,284.99406 L 677.87072243346,284.99406 L 677.87072243346,285 Z" style="fill:blue;stroke:black;stroke-width:0.5;" />
	<path d="M 677.87072243346,285 L 677.87072243346,284.99406 L 680.608365019011,284.99406 L 680.608365019011,285 Z" style="fill:blue;stroke:black;stroke-width:0.5;" />
	<path d="M 680.608365019011,285 L 680.608365019011,284.99703 L 683.346007604563,284.99703 L 683.346007604563,285 Z" style="fill:blue;stroke:black;stroke-width:0.5;" />
	<line stroke="black" stroke-width="2" x1="681.977186311787" x2="681.977186311787" y1="285" y2="284" />
	<path d="M 683.346007604563,285 L 683.346007604563,284.99703 L 686.083650190114,284.99703 L 686.083650190114,285 Z" style="fill:blue;stroke:black;stroke-width:0.5;" />
	<path d="M 686.083650190114,285 L 686.083650190114,284.99703 L 688.821292775665,284.99703 L 688.821292775665,285 Z" style="fill:blue;stroke:black;stroke-width:0.5;" />
	<path d="M 688.821292775665,285 L 688.821292775665,284.99703 L 691.558935361217,284.99703 L 691.558935361217,285 Z" style="fill:blue;stroke:black;stroke-width:0.5;" />
	<path d="M 691.558935361217,285 L 691.558935361217,284.99703 L 694.296577946768,284.99703 L 694.296577946768,285 Z" style="fill:blue;stroke:black;stroke-width:0.5;" />
	<path d="M 694.296577946768,285 L 694.296577946768,284.99703 L 697.034220532319,284.99703 L 697.034220532319,285 Z" style="fill:blue;stroke:black;stroke-width:0.5;" />
	<text font-size="10" x="694.296577946768" y="297">240</text>
	<line stroke="black" stroke-width="2" x1="695.665399239544" x2="695.665399239544" y1="285" y2="283" />
	<line stroke="black" stroke-width="2" x1="695.665399239544" x2="695.665399239544" y1="285" y2="284" />
	<path d="M 697.034220532319,285 L 697.034220532319,284.99703 L 699.771863117871,284.99703 L 699.771863117871,285 Z" style="fill:blue;stroke:black;stroke-width:0.5;" />
	<path d="M 699.771863117871,285 L 699.771863117871,285 L 702.509505703422,285 L 702.509505703422,285 Z" style="fill:blue;stroke:black;stroke-width:0.5;" />
	<path d="M 702.509505703422,285 L 702.509505703422,285 L 705.247148288973,285 L 705.247148288973,285 Z" style="fill:blue;stroke:black;stroke-width:0.5;" />
	<path d="M 705.247148288973,285 L 705.247148288973,285 L 707.984790874525,285 L 707.984790874525,285 Z" style="fill:blue;stroke:black;stroke-width:0.5;" />
	<path d="M 707.984790874525,285 L 707.984790874525,285 L 710.722433460076,285 L 710.722433460076,285 Z" style="fill:blue;stroke:black;stroke-width:0.5;" />
	<line stroke="black" stroke-width="2" x1="709.3536121673" x2="709.3536121673" y1="285" y2="284" />
	<path d="M 710.722433460076,285 L 710.722433460076,285 L 713.460076045627,285 L 713.460076045627,285 Z" style="fill:blue;stroke:black;stroke-width:0.5;" />
	<path d="M 713.460076045627,285 L 713.460076045627,285 L 716.197718631179,285 L 716.197718631179,285 Z" style="fill:blue;stroke:black;stroke-width:0.5;" />
	<path d="M 716.197718631179,285 L 716.197718631179,285 L 718.93536121673,285 L 718.93536121673,285 Z" style="fill:blue;stroke:black;stroke-width:0.5;" />
	<path d="M 718.93536121673,285 L 718.93536121673,285 L 721.673003802281,285 L 721.673003802281,285 Z" style="fill:blue;stroke:black;stroke-width:0.5;" />
	<path d="M 721.673003802281,285 L 721.673003802281,285 L 724.410646387833,285 L 724.410646387833,285 Z" style="fill:blue;stroke:black;stroke-width:0.5;" />
	<text font-size="10" x="721.673003802281" y="297">250</text>
	<line stroke="black" stroke-width="2" x1="723.041825095057" x2="723.041825095057" y1="285" y2="283" />
	<line stroke="black" stroke-width="2" x1="723.041825095057" x2="723.041825095057" y1="285" y2="284" />
	<path d="M 724.410646387833,285 L 724.410646387833,285 L 727.148288973384,285 L 727.148288973384,285 Z" style="fill:blue;stroke:black;stroke-width:0.5;" />
	<path d="M 727.148288973384,285 L 727.148288973384,285 L 729.885931558935,285 L 729.885931558935,285 Z" style="fill:blue;stroke:black;stroke-width:0.5;" />
	<path d="M 729.885931558935,285 L 729.885931558935,285 L 732.623574144487,285 L 732.623574144487,285 Z" style="fill:blue;stroke:black;stroke-width:0.5;" />
	<path d="M 732.623574144487,285 L 732.623574144487,285 L 735.361216730038,285 L 735.361216730038,285 Z" style="fill:blue;stroke:black;stroke-width:0.5;" />
	<path d="M 735.361216730038,285 L 735.361216730038,285 L 738.098859315589,285 L 738.098859315589,285 Z" style="fill:blue;stroke:black;stroke-width:0.5;" />
	<line stroke="black" stroke-width="2" x1="736.730038022814" x2="736.730038022814" y1="285" y2="284" />
	<path d="M 738.098859315589,285 L 738.098859315589,285 L 740.836501901141,285 L 740.836501901141,285 Z" style="fill:blue;stroke:black;stroke-width:0.5;" />
	<path d="M 740.836501901141,285 L 740.836501901141,285 L 743.574144486692,285 L 743.574144486692,285 Z" style="fill:blue;stroke:black;stroke-width:0.5;" />
	<path d="M 743.574144486692,285 L 743.574144486692,285 L 746.311787072243,285 L 746.311787072243,285 Z" style="fill:blue;stroke:black;stroke-width:0.5;" />
	<path d="M 746.311787072243,285 L 746.311787072243,285 L 749.049429657795,285 L 749.049429657795,285 Z" style="fill:blue;stroke:black;stroke-width:0.5;" />
	<path d="M 749.049429657795,285 L 749.049429657795,285 L 751.787072243346,285 L 751.787072243346,285 Z" style="fill:blue;stroke:black;stroke-width:0.5;" />
	<text font-size="10" x="749.049429657795" y="297">260</text>
	<line stroke="black" stroke-width="2" x1="750.41825095057" x2="750.41825095057" y1="285" y2="283" />
	<line stroke="black" stroke-width="2" x1="750.41825095057" x2="750.41825095057" y1="285" y2="284" />
	<path d="M 751.787072243346,285 L 751.787072243346,285 L 754.524714828897,285 L 754.524714828897,285 Z" style="fill:blue;stroke:black;stroke-width:0.5;" />
	<path d="M 754.524714828897,285 L 754.524714828897,285 L 757.262357414449,285 L 757.262357414449,285 Z" style="fill:blue;stroke:black;stroke-width:0.5;" />
	<path d="M 757.262357414449,285 L 757.262357414449,285 L 760,285 L 760,285 Z" style="fill:blue;stroke:black;stroke-width:0.5;" />
	<!-- 
	Generated using the Perl SVG Module V2.50
	by Ronan Oger
	Info: http://www.roitsystems.com/
 -->
</svg>