<?xml version="1.0" encoding="UTF-8" standalone="yes"?>
<!DOCTYPE svg PUBLIC "-//W3C//DTD SVG 1.0//EN" "http://www.w3.org/TR/2001/REC-SVG-20010904/DTD/svg10.dtd">
<svg height="300" width="800" xmlns="http://www.w3.org/2000/svg" xmlns:svg="http://www.w3.org/2000/svg" xmlns:xlink="http://www.w3.org/1999/xlink">
	<line stroke="black" stroke-width="2" x1="40" x2="40" y1="15" y2="285" />
	<line stroke="black" stroke-width="2" x1="40" x2="45.4545454545455" y1="231" y2="231" />
	<text font-size="12" x="48.1818181818182" y="231">2000</text>
	<line stroke="black" stroke-width="2" x1="40" x2="45.4545454545455" y1="177" y2="177" />
	<text font-size="12" x="48.1818181818182" y="177">4000</text>
	<line stroke="black" stroke-width="2" x1="40" x2="45.4545454545455" y1="123" y2="123" />
	<text font-size="12" x="48.1818181818182" y="123">6000</text>
	<line stroke="black" stroke-width="2" x1="40" x2="45.4545454545455" y1="69" y2="69" />
	<text font-size="12" x="48.1818181818182" y="69">8000</text>
	<line stroke="black" stroke-width="2" x1="40" x2="45.4545454545455" y1="15" y2="15" />
	<text font-size="12" x="48.1818181818182" y="15">10000</text>
	<line stroke="black" stroke-width="2" x1="40" x2="800" y1="285" y2="285" />
	<path d="M 40,285 L 40,284.97138 L 45.4545454545455,284.97138 L 45.4545454545455,285 Z" style="fill:blue;stroke:black;stroke-width:0.5;" />
	<path d="M 45.4545454545455,285 L 45.4545454545455,284.96841 L 50.9090909090909,284.96841 L 50.9090909090909,285 Z" style="fill:blue;stroke:black;stroke-width:0.5;" />
	<path d="M 50.9090909090909,285 L 50.9090909090909,284.96841 L 56.3636363636364,284.96841 L 56.3636363636364,285 Z" style="fill:blue;stroke:black;stroke-width:0.5;" />
	<path d="M 56.3636363636364,285 L 56.3636363636364,284.96436 L 61.8181818181818,284.96436 L 61.8181818181818,285 Z" style="fill:blue;stroke:black;stroke-width:0.5;" />
	<path d="M 61.8181818181818,285 L 61.8181818181818,275.7687 L 67.2727272727273,275.7687 L 67.2727272727273,285 Z" style="fill:blue;stroke:black;stroke-width:0.5;" />
	<line stroke="black" stroke-width="2" x1="64.5454545454545" x2="64.5454545454545" y1="285" y2="284" />
	<path d="M 67.2727272727273,285 L 67.2727272727273,275.70822 L 72.7272727272727,275.70822 L 72.7272727272727,285 Z" style="fill:blue;stroke:black;stroke-width:0.5;" />
	<path d="M 72.7272727272727,285 L 72.7272727272727,275.70525 L 78.1818181818182,275.70525 L 78.1818181818182,285 Z" style="fill:blue;stroke:black;stroke-width:0.5;" />
	<path d="M 78.1818181818182,285 L 78.1818181818182,275.69094 L 83.6363636363636,275.69094 L 83.6363636363636,285 Z" style="fill:blue;stroke:black;stroke-width:0.5;" />
	<path d="M 83.6363636363636,285 L 83.6363636363636,275.67528 L 89.0909090909091,275.67528 L 89.0909090909091,285 Z" style="fill:blue;stroke:black;stroke-width:0.5;" />
	<path d="M 89.0909090909091,285 L 89.0909090909091,275.67528 L 94.5454545454545,275.67528 L 94.5454545454545,285 Z" style="fill:blue;stroke:black;stroke-width:0.5;" />
	<text font-size="10" x="89.0909090909091" y="297">10</text>
	<line stroke="black" stroke-width="2" x1="91.8181818181818" x2="91.8181818181818" y1="285" y2="283" />
	<line stroke="black" stroke-width="2" x1="91.8181818181818" x2="91.8181818181818" y1="285" y2="284" />
	<path d="M 94.5454545454545,285 L 94.5454545454545,275.6553 L 100,275.6553 L 100,285 Z" style="fill:blue;stroke:black;stroke-width:0.5;" />
	<path d="M 100,285 L 100,275.59374 L 105.454545454545,275.59374 L 105.454545454545,285 Z" style="fill:blue;stroke:black;stroke-width:0.5;" />
	<path d="M 105.454545454545,285 L 105.454545454545,275.58969 L 110.909090909091,275.58969 L 110.909090909091,285 Z" style="fill:blue;stroke:black;stroke-width:0.5;" />
	<path d="M 110.909090909091,285 L 110.909090909091,275.44821 L 116.363636363636,275.44821 L 116.363636363636,285 Z" style="fill:blue;stroke:black;stroke-width:0.5;" />
	<path d="M 116.363636363636,285 L 116.363636363636,275.41392 L 121.818181818182,275.41392 L 121.818181818182,285 Z" style="fill:blue;stroke:black;stroke-width:0.5;" />
	<line stroke="black" stroke-width="2" x1="119.090909090909" x2="119.090909090909" y1="285" y2="284" />
	<path d="M 121.818181818182,285 L 121.818181818182,37.48155 L 127.272727272727,37.48155 L 127.272727272727,285 Z" style="fill:gold;stroke:black;stroke-width:0.5;" />
	<path d="M 127.272727272727,285 L 127.272727272727,36.01086 L 132.727272727273,36.01086 L 132.727272727273,285 Z" style="fill:gold;stroke:black;stroke-width:0.5;" />
	<path d="M 132.727272727273,285 L 132.727272727273,35.93229 L 138.181818181818,35.93229 L 138.181818181818,285 Z" style="fill:gold;stroke:black;stroke-width:0.5;" />
	<path d="M 138.181818181818,285 L 138.181818181818,35.5305299999999 L 143.636363636364,35.5305299999999 L 143.636363636364,285 Z" style="fill:gold;stroke:black;stroke-width:0.5;" />
	<path d="M 143.636363636364,285 L 143.636363636364,35.39607 L 149.090909090909,35.39607 L 149.090909090909,285 Z" style="fill:gold;stroke:black;stroke-width:0.5;" />
	<text font-size="10" x="143.636363636364" y="297">20</text>
	<line stroke="black" stroke-width="2" x1="146.363636363636" x2="146.363636363636" y1="285" y2="283" />
	<line stroke="black" stroke-width="2" x1="146.363636363636" x2="146.363636363636" y1="285" y2="284" />
	<path d="M 149.090909090909,285 L 149.090909090909,35.33586 L 154.545454545455,35.33586 L 154.545454545455,285 Z" style="fill:gold;stroke:black;stroke-width:0.5;" />
	<path d="M 154.545454545455,285 L 154.545454545455,35.30994 L 160,35.30994 L 160,285 Z" style="fill:gold;stroke:black;stroke-width:0.5;" />
	<path d="M 160,285 L 160,35.2527 L 165.454545454545,35.2527 L 165.454545454545,285 Z" style="fill:gold;stroke:black;stroke-width:0.5;" />
	<path d="M 165.454545454545,285 L 165.454545454545,35.1949200000001 L 170.909090909091,35.1949200000001 L 170.909090909091,285 Z" style="fill:gold;stroke:black;stroke-width:0.5;" />
	<path d="M 170.909090909091,285 L 170.909090909091,35.19222 L 176.363636363636,35.19222 L 176.363636363636,285 Z" style="fill:gold;stroke:black;stroke-width:0.5;" />
	<line stroke="black" stroke-width="2" x1="173.636363636364" x2="173.636363636364" y1="285" y2="284" />
	<path d="M 176.363636363636,285 L 176.363636363636,44.43891 L 181.818181818182,44.43891 L 181.818181818182,285 Z" style="fill:gold;stroke:black;stroke-width:0.5;" />
	<path d="M 181.818181818182,285 L 181.818181818182,44.44188 L 187.272727272727,44.44188 L 187.272727272727,285 Z" style="fill:gold;stroke:black;stroke-width:0.5;" />
	<path d="M 187.272727272727,285 L 187.272727272727,44.44188 L 192.727272727273,44.44188 L 192.727272727273,285 Z" style="fill:gold;stroke:black;stroke-width:0.5;" />
	<path d="M 192.727272727273,285 L 192.727272727273,44.45943 L 198.181818181818,44.45943 L 198.181818181818,285 Z" style="fill:gold;stroke:black;stroke-width:0.5;" />
	<path d="M 198.181818181818,285 L 198.181818181818,44.4675300000001 L 203.636363636364,44.4675300000001 L 203.636363636364,285 Z" style="fill:gold;stroke:black;stroke-width:0.5;" />
	<text font-size="10" x="198.181818181818" y="297">30</text>
	<line stroke="black" stroke-width="2" x1="200.909090909091" x2="200.909090909091" y1="285" y2="283" />
	<line stroke="black" stroke-width="2" x1="200.909090909091" x2="200.909090909091" y1="285" y2="284" />
	<path d="M 203.636363636364,285 L 203.636363636364,44.59065 L 209.090909090909,44.59065 L 209.090909090909,285 Z" style="fill:gold;stroke:black;stroke-width:0.5;" />
	<path d="M 209.090909090909,285 L 209.090909090909,44.77695 L 214.545454545455,44.77695 L 214.545454545455,285 Z" style="fill:gold;stroke:black;stroke-width:0.5;" />
	<path d="M 214.545454545455,285 L 214.545454545455,45.53322 L 220,45.53322 L 220,285 Z" style="fill:gold;stroke:black;stroke-width:0.5;" />
	<path d="M 220,285 L 220,45.83373 L 225.454545454545,45.83373 L 225.454545454545,285 Z" style="fill:gold;stroke:black;stroke-width:0.5;" />
	<path d="M 225.454545454545,285 L 225.454545454545,46.40046 L 230.909090909091,46.40046 L 230.909090909091,285 Z" style="fill:gold;stroke:black;stroke-width:0.5;" />
	<line stroke="black" stroke-width="2" x1="228.181818181818" x2="228.181818181818" y1="285" y2="284" />
	<path d="M 230.909090909091,285 L 230.909090909091,49.69176 L 236.363636363636,49.69176 L 236.363636363636,285 Z" style="fill:gold;stroke:black;stroke-width:0.5;" />
	<path d="M 236.363636363636,285 L 236.363636363636,171.13965 L 241.818181818182,171.13965 L 241.818181818182,285 Z" style="fill:blue;stroke:black;stroke-width:0.5;" />
	<path d="M 241.818181818182,285 L 241.818181818182,283.95483 L 247.272727272727,283.95483 L 247.272727272727,285 Z" style="fill:blue;stroke:black;stroke-width:0.5;" />
	<path d="M 247.272727272727,285 L 247.272727272727,284.487 L 252.727272727273,284.487 L 252.727272727273,285 Z" style="fill:blue;stroke:black;stroke-width:0.5;" />
	<path d="M 252.727272727273,285 L 252.727272727273,284.79453 L 258.181818181818,284.79453 L 258.181818181818,285 Z" style="fill:blue;stroke:black;stroke-width:0.5;" />
	<text font-size="10" x="252.727272727273" y="297">40</text>
	<line stroke="black" stroke-width="2" x1="255.454545454545" x2="255.454545454545" y1="285" y2="283" />
	<line stroke="black" stroke-width="2" x1="255.454545454545" x2="255.454545454545" y1="285" y2="284" />
	<path d="M 258.181818181818,285 L 258.181818181818,284.87229 L 263.636363636364,284.87229 L 263.636363636364,285 Z" style="fill:blue;stroke:black;stroke-width:0.5;" />
	<path d="M 263.636363636364,285 L 263.636363636364,284.87256 L 269.090909090909,284.87256 L 269.090909090909,285 Z" style="fill:blue;stroke:black;stroke-width:0.5;" />
	<path d="M 269.090909090909,285 L 269.090909090909,284.8785 L 274.545454545455,284.8785 L 274.545454545455,285 Z" style="fill:blue;stroke:black;stroke-width:0.5;" />
	<path d="M 274.545454545455,285 L 274.545454545455,284.88336 L 280,284.88336 L 280,285 Z" style="fill:blue;stroke:black;stroke-width:0.5;" />
	<path d="M 280,285 L 280,284.88336 L 285.454545454545,284.88336 L 285.454545454545,285 Z" style="fill:blue;stroke:black;stroke-width:0.5;" />
	<line stroke="black" stroke-width="2" x1="282.727272727273" x2="282.727272727273" y1="285" y2="284" />
	<path d="M 285.454545454545,285 L 285.454545454545,284.88336 L 290.909090909091,284.88336 L 290.909090909091,285 Z" style="fill:blue;stroke:black;stroke-width:0.5;" />
	<path d="M 290.909090909091,285 L 290.909090909091,284.88336 L 296.363636363636,284.88336 L 296.363636363636,285 Z" style="fill:blue;stroke:black;stroke-width:0.5;" />
	<path d="M 296.363636363636,285 L 296.363636363636,284.88336 L 301.818181818182,284.88336 L 301.818181818182,285 Z" style="fill:blue;stroke:black;stroke-width:0.5;" />
	<path d="M 301.818181818182,285 L 301.818181818182,284.88336 L 307.272727272727,284.88336 L 307.272727272727,285 Z" style="fill:blue;stroke:black;stroke-width:0.5;" />
	<path d="M 307.272727272727,285 L 307.272727272727,284.88336 L 312.727272727273,284.88336 L 312.727272727273,285 Z" style="fill:blue;stroke:black;stroke-width:0.5;" />
	<text font-size="10" x="307.272727272727" y="297">50</text>
	<line stroke="black" stroke-width="2" x1="310" x2="310" y1="285" y2="283" />
	<line stroke="black" stroke-width="2" x1="310" x2="310" y1="285" y2="284" />
	<path d="M 312.727272727273,285 L 312.727272727273,284.892 L 318.181818181818,284.892 L 318.181818181818,285 Z" style="fill:blue;stroke:black;stroke-width:0.5;" />
	<path d="M 318.181818181818,285 L 318.181818181818,284.89497 L 323.636363636364,284.89497 L 323.636363636364,285 Z" style="fill:blue;stroke:black;stroke-width:0.5;" />
	<path d="M 323.636363636364,285 L 323.636363636364,284.89794 L 329.090909090909,284.89794 L 329.090909090909,285 Z" style="fill:blue;stroke:black;stroke-width:0.5;" />
	<path d="M 329.090909090909,285 L 329.090909090909,284.93115 L 334.545454545455,284.93115 L 334.545454545455,285 Z" style="fill:blue;stroke:black;stroke-width:0.5;" />
	<path d="M 334.545454545455,285 L 334.545454545455,284.95707 L 340,284.95707 L 340,285 Z" style="fill:blue;stroke:black;stroke-width:0.5;" />
	<line stroke="black" stroke-width="2" x1="337.272727272727" x2="337.272727272727" y1="285" y2="284" />
	<path d="M 340,285 L 340,284.96301 L 345.454545454545,284.96301 L 345.454545454545,285 Z" style="fill:blue;stroke:black;stroke-width:0.5;" />
	<path d="M 345.454545454545,285 L 345.454545454545,284.96301 L 350.909090909091,284.96301 L 350.909090909091,285 Z" style="fill:blue;stroke:black;stroke-width:0.5;" />
	<path d="M 350.909090909091,285 L 350.909090909091,284.96301 L 356.363636363636,284.96301 L 356.363636363636,285 Z" style="fill:blue;stroke:black;stroke-width:0.5;" />
	<path d="M 356.363636363636,285 L 356.363636363636,284.96598 L 361.818181818182,284.96598 L 361.818181818182,285 Z" style="fill:blue;stroke:black;stroke-width:0.5;" />
	<path d="M 361.818181818182,285 L 361.818181818182,284.96193 L 367.272727272727,284.96193 L 367.272727272727,285 Z" style="fill:blue;stroke:black;stroke-width:0.5;" />
	<text font-size="10" x="361.818181818182" y="297">60</text>
	<line stroke="black" stroke-width="2" x1="364.545454545455" x2="364.545454545455" y1="285" y2="283" />
	<line stroke="black" stroke-width="2" x1="364.545454545455" x2="364.545454545455" y1="285" y2="284" />
	<path d="M 367.272727272727,285 L 367.272727272727,284.96193 L 372.727272727273,284.96193 L 372.727272727273,285 Z" style="fill:blue;stroke:black;stroke-width:0.5;" />
	<path d="M 372.727272727273,285 L 372.727272727273,284.95788 L 378.181818181818,284.95788 L 378.181818181818,285 Z" style="fill:blue;stroke:black;stroke-width:0.5;" />
	<path d="M 378.181818181818,285 L 378.181818181818,284.97327 L 383.636363636364,284.97327 L 383.636363636364,285 Z" style="fill:blue;stroke:black;stroke-width:0.5;" />
	<path d="M 383.636363636364,285 L 383.636363636364,284.98191 L 389.090909090909,284.98191 L 389.090909090909,285 Z" style="fill:blue;stroke:black;stroke-width:0.5;" />
	<path d="M 389.090909090909,285 L 389.090909090909,284.98191 L 394.545454545455,284.98191 L 394.545454545455,285 Z" style="fill:blue;stroke:black;stroke-width:0.5;" />
	<line stroke="black" stroke-width="2" x1="391.818181818182" x2="391.818181818182" y1="285" y2="284" />
	<path d="M 394.545454545455,285 L 394.545454545455,284.98785 L 400,284.98785 L 400,285 Z" style="fill:blue;stroke:black;stroke-width:0.5;" />
	<path d="M 400,285 L 400,284.9838 L 405.454545454545,284.9838 L 405.454545454545,285 Z" style="fill:blue;stroke:black;stroke-width:0.5;" />
	<path d="M 405.454545454545,285 L 405.454545454545,284.96382 L 410.909090909091,284.96382 L 410.909090909091,285 Z" style="fill:blue;stroke:black;stroke-width:0.5;" />
	<path d="M 410.909090909091,285 L 410.909090909091,284.92683 L 416.363636363636,284.92683 L 416.363636363636,285 Z" style="fill:blue;stroke:black;stroke-width:0.5;" />
	<path d="M 416.363636363636,285 L 416.363636363636,284.90982 L 421.818181818182,284.90982 L 421.818181818182,285 Z" style="fill:blue;stroke:black;stroke-width:0.5;" />
	<text font-size="10" x="416.363636363636" y="297">70</text>
	<line stroke="black" stroke-width="2" x1="419.090909090909" x2="419.090909090909" y1="285" y2="283" />
	<line stroke="black" stroke-width="2" x1="419.090909090909" x2="419.090909090909" y1="285" y2="284" />
	<path d="M 421.818181818182,285 L 421.818181818182,270.16836 L 427.272727272727,270.16836 L 427.272727272727,285 Z" style="fill:blue;stroke:black;stroke-width:0.5;" />
	<path d="M 427.272727272727,285 L 427.272727272727,253.36491 L 432.727272727273,253.36491 L 432.727272727273,285 Z" style="fill:gold;stroke:black;stroke-width:0.5;" />
	<path d="M 432.727272727273,285 L 432.727272727273,252.9861 L 438.181818181818,252.9861 L 438.181818181818,285 Z" style="fill:gold;stroke:black;stroke-width:0.5;" />
	<path d="M 438.181818181818,285 L 438.181818181818,251.61801 L 443.636363636364,251.61801 L 443.636363636364,285 Z" style="fill:gold;stroke:black;stroke-width:0.5;" />
	<path d="M 443.636363636364,285 L 443.636363636364,251.60937 L 449.090909090909,251.60937 L 449.090909090909,285 Z" style="fill:gold;stroke:black;stroke-width:0.5;" />
	<line stroke="black" stroke-width="2" x1="446.363636363636" x2="446.363636363636" y1="285" y2="284" />
	<path d="M 449.090909090909,285 L 449.090909090909,251.58804 L 454.545454545455,251.58804 L 454.545454545455,285 Z" style="fill:gold;stroke:black;stroke-width:0.5;" />
	<path d="M 454.545454545455,285 L 454.545454545455,251.58102 L 460,251.58102 L 460,285 Z" style="fill:gold;stroke:black;stroke-width:0.5;" />
	<path d="M 460,285 L 460,251.57508 L 465.454545454545,251.57508 L 465.454545454545,285 Z" style="fill:gold;stroke:black;stroke-width:0.5;" />
	<path d="M 465.454545454545,285 L 465.454545454545,251.57508 L 470.909090909091,251.57508 L 470.909090909091,285 Z" style="fill:gold;stroke:black;stroke-width:0.5;" />
	<path d="M 470.909090909091,285 L 470.909090909091,251.54943 L 476.363636363636,251.54943 L 476.363636363636,285 Z" style="fill:gold;stroke:black;stroke-width:0.5;" />
	<text font-size="10" x="470.909090909091" y="297">80</text>
	<line stroke="black" stroke-width="2" x1="473.636363636364" x2="473.636363636364" y1="285" y2="283" />
	<line stroke="black" stroke-width="2" x1="473.636363636364" x2="473.636363636364" y1="285" y2="284" />
	<path d="M 476.363636363636,285 L 476.363636363636,251.54943 L 481.818181818182,251.54943 L 481.818181818182,285 Z" style="fill:gold;stroke:black;stroke-width:0.5;" />
	<path d="M 481.818181818182,285 L 481.818181818182,251.54943 L 487.272727272727,251.54943 L 487.272727272727,285 Z" style="fill:gold;stroke:black;stroke-width:0.5;" />
	<path d="M 487.272727272727,285 L 487.272727272727,251.34315 L 492.727272727273,251.34315 L 492.727272727273,285 Z" style="fill:gold;stroke:black;stroke-width:0.5;" />
	<path d="M 492.727272727273,285 L 492.727272727273,251.31723 L 498.181818181818,251.31723 L 498.181818181818,285 Z" style="fill:gold;stroke:black;stroke-width:0.5;" />
	<path d="M 498.181818181818,285 L 498.181818181818,251.33154 L 503.636363636364,251.33154 L 503.636363636364,285 Z" style="fill:gold;stroke:black;stroke-width:0.5;" />
	<line stroke="black" stroke-width="2" x1="500.909090909091" x2="500.909090909091" y1="285" y2="284" />
	<path d="M 503.636363636364,285 L 503.636363636364,251.32398 L 509.090909090909,251.32398 L 509.090909090909,285 Z" style="fill:gold;stroke:black;stroke-width:0.5;" />
	<path d="M 509.090909090909,285 L 509.090909090909,251.33262 L 514.545454545455,251.33262 L 514.545454545455,285 Z" style="fill:gold;stroke:black;stroke-width:0.5;" />
	<path d="M 514.545454545455,285 L 514.545454545455,251.3499 L 520,251.3499 L 520,285 Z" style="fill:gold;stroke:black;stroke-width:0.5;" />
	<path d="M 520,285 L 520,251.36718 L 525.454545454545,251.36718 L 525.454545454545,285 Z" style="fill:gold;stroke:black;stroke-width:0.5;" />
	<path d="M 525.454545454545,285 L 525.454545454545,251.39553 L 530.909090909091,251.39553 L 530.909090909091,285 Z" style="fill:gold;stroke:black;stroke-width:0.5;" />
	<text font-size="10" x="525.454545454545" y="297">90</text>
	<line stroke="black" stroke-width="2" x1="528.181818181818" x2="528.181818181818" y1="285" y2="283" />
	<line stroke="black" stroke-width="2" x1="528.181818181818" x2="528.181818181818" y1="285" y2="284" />
	<path d="M 530.909090909091,285 L 530.909090909091,251.41011 L 536.363636363636,251.41011 L 536.363636363636,285 Z" style="fill:gold;stroke:black;stroke-width:0.5;" />
	<path d="M 536.363636363636,285 L 536.363636363636,251.69469 L 541.818181818182,251.69469 L 541.818181818182,285 Z" style="fill:gold;stroke:black;stroke-width:0.5;" />
	<path d="M 541.818181818182,285 L 541.818181818182,283.44696 L 547.272727272727,283.44696 L 547.272727272727,285 Z" style="fill:blue;stroke:black;stroke-width:0.5;" />
	<path d="M 547.272727272727,285 L 547.272727272727,283.46424 L 552.727272727273,283.46424 L 552.727272727273,285 Z" style="fill:blue;stroke:black;stroke-width:0.5;" />
	<path d="M 552.727272727273,285 L 552.727272727273,284.66952 L 558.181818181818,284.66952 L 558.181818181818,285 Z" style="fill:blue;stroke:black;stroke-width:0.5;" />
	<line stroke="black" stroke-width="2" x1="555.454545454545" x2="555.454545454545" y1="285" y2="284" />
	<path d="M 558.181818181818,285 L 558.181818181818,284.69355 L 563.636363636364,284.69355 L 563.636363636364,285 Z" style="fill:blue;stroke:black;stroke-width:0.5;" />
	<path d="M 563.636363636364,285 L 563.636363636364,284.70219 L 569.090909090909,284.70219 L 569.090909090909,285 Z" style="fill:blue;stroke:black;stroke-width:0.5;" />
	<path d="M 569.090909090909,285 L 569.090909090909,284.71758 L 574.545454545455,284.71758 L 574.545454545455,285 Z" style="fill:blue;stroke:black;stroke-width:0.5;" />
	<path d="M 574.545454545455,285 L 574.545454545455,284.71758 L 580,284.71758 L 580,285 Z" style="fill:blue;stroke:black;stroke-width:0.5;" />
	<path d="M 580,285 L 580,284.71758 L 585.454545454545,284.71758 L 585.454545454545,285 Z" style="fill:blue;stroke:black;stroke-width:0.5;" />
	<text font-size="10" x="580" y="297">100</text>
	<line stroke="black" stroke-width="2" x1="582.727272727273" x2="582.727272727273" y1="285" y2="283" />
	<line stroke="black" stroke-width="2" x1="582.727272727273" x2="582.727272727273" y1="285" y2="284" />
	<path d="M 585.454545454545,285 L 585.454545454545,284.75484 L 590.909090909091,284.75484 L 590.909090909091,285 Z" style="fill:blue;stroke:black;stroke-width:0.5;" />
	<path d="M 590.909090909091,285 L 590.909090909091,284.76348 L 596.363636363636,284.76348 L 596.363636363636,285 Z" style="fill:blue;stroke:black;stroke-width:0.5;" />
	<path d="M 596.363636363636,285 L 596.363636363636,284.76645 L 601.818181818182,284.76645 L 601.818181818182,285 Z" style="fill:blue;stroke:black;stroke-width:0.5;" />
	<path d="M 601.818181818182,285 L 601.818181818182,284.98434 L 607.272727272727,284.98434 L 607.272727272727,285 Z" style="fill:blue;stroke:black;stroke-width:0.5;" />
	<path d="M 607.272727272727,285 L 607.272727272727,284.98434 L 612.727272727273,284.98434 L 612.727272727273,285 Z" style="fill:blue;stroke:black;stroke-width:0.5;" />
	<line stroke="black" stroke-width="2" x1="610" x2="610" y1="285" y2="284" />
	<path d="M 612.727272727273,285 L 612.727272727273,284.98731 L 618.181818181818,284.98731 L 618.181818181818,285 Z" style="fill:blue;stroke:black;stroke-width:0.5;" />
	<path d="M 618.181818181818,285 L 618.181818181818,284.99136 L 623.636363636364,284.99136 L 623.636363636364,285 Z" style="fill:blue;stroke:black;stroke-width:0.5;" />
	<path d="M 623.636363636364,285 L 623.636363636364,284.99703 L 629.090909090909,284.99703 L 629.090909090909,285 Z" style="fill:blue;stroke:black;stroke-width:0.5;" />
	<path d="M 629.090909090909,285 L 629.090909090909,284.99703 L 634.545454545455,284.99703 L 634.545454545455,285 Z" style="fill:blue;stroke:black;stroke-width:0.5;" />
	<path d="M 634.545454545455,285 L 634.545454545455,284.99703 L 640,284.99703 L 640,285 Z" style="fill:blue;stroke:black;stroke-width:0.5;" />
	<text font-size="10" x="634.545454545455" y="297">110</text>
	<line stroke="black" stroke-width="2" x1="637.272727272727" x2="637.272727272727" y1="285" y2="283" />
	<line stroke="black" stroke-width="2" x1="637.272727272727" x2="637.272727272727" y1="285" y2="284" />
	<path d="M 640,285 L 640,285 L 645.454545454545,285 L 645.454545454545,285 Z" style="fill:blue;stroke:black;stroke-width:0.5;" />
	<path d="M 645.454545454545,285 L 645.454545454545,285 L 650.909090909091,285 L 650.909090909091,285 Z" style="fill:blue;stroke:black;stroke-width:0.5;" />
	<path d="M 650.909090909091,285 L 650.909090909091,285 L 656.363636363636,285 L 656.363636363636,285 Z" style="fill:blue;stroke:black;stroke-width:0.5;" />
	<path d="M 656.363636363636,285 L 656.363636363636,285 L 661.818181818182,285 L 661.818181818182,285 Z" style="fill:blue;stroke:black;stroke-width:0.5;" />
	<path d="M 661.818181818182,285 L 661.818181818182,285 L 667.272727272727,285 L 667.272727272727,285 Z" style="fill:blue;stroke:black;stroke-width:0.5;" />
	<line stroke="black" stroke-width="2" x1="664.545454545455" x2="664.545454545455" y1="285" y2="284" />
	<path d="M 667.272727272727,285 L 667.272727272727,285 L 672.727272727273,285 L 672.727272727273,285 Z" style="fill:blue;stroke:black;stroke-width:0.5;" />
	<path d="M 672.727272727273,285 L 672.727272727273,285 L 678.181818181818,285 L 678.181818181818,285 Z" style="fill:blue;stroke:black;stroke-width:0.5;" />
	<path d="M 678.181818181818,285 L 678.181818181818,285 L 683.636363636364,285 L 683.636363636364,285 Z" style="fill:blue;stroke:black;stroke-width:0.5;" />
	<path d="M 683.636363636364,285 L 683.636363636364,285 L 689.090909090909,285 L 689.090909090909,285 Z" style="fill:blue;stroke:black;stroke-width:0.5;" />
	<path d="M 689.090909090909,285 L 689.090909090909,285 L 694.545454545455,285 L 694.545454545455,285 Z" style="fill:blue;stroke:black;stroke-width:0.5;" />
	<text font-size="10" x="689.090909090909" y="297">120</text>
	<line stroke="black" stroke-width="2" x1="691.818181818182" x2="691.818181818182" y1="285" y2="283" />
	<line stroke="black" stroke-width="2" x1="691.818181818182" x2="691.818181818182" y1="285" y2="284" />
	<path d="M 694.545454545455,285 L 694.545454545455,285 L 700,285 L 700,285 Z" style="fill:blue;stroke:black;stroke-width:0.5;" />
	<path d="M 700,285 L 700,285 L 705.454545454545,285 L 705.454545454545,285 Z" style="fill:blue;stroke:black;stroke-width:0.5;" />
	<path d="M 705.454545454545,285 L 705.454545454545,285 L 710.909090909091,285 L 710.909090909091,285 Z" style="fill:blue;stroke:black;stroke-width:0.5;" />
	<path d="M 710.909090909091,285 L 710.909090909091,285 L 716.363636363636,285 L 716.363636363636,285 Z" style="fill:blue;stroke:black;stroke-width:0.5;" />
	<path d="M 716.363636363636,285 L 716.363636363636,285 L 721.818181818182,285 L 721.818181818182,285 Z" style="fill:blue;stroke:black;stroke-width:0.5;" />
	<line stroke="black" stroke-width="2" x1="719.090909090909" x2="719.090909090909" y1="285" y2="284" />
	<path d="M 721.818181818182,285 L 721.818181818182,285 L 727.272727272727,285 L 727.272727272727,285 Z" style="fill:blue;stroke:black;stroke-width:0.5;" />
	<path d="M 727.272727272727,285 L 727.272727272727,285 L 732.727272727273,285 L 732.727272727273,285 Z" style="fill:blue;stroke:black;stroke-width:0.5;" />
	<path d="M 732.727272727273,285 L 732.727272727273,285 L 738.181818181818,285 L 738.181818181818,285 Z" style="fill:blue;stroke:black;stroke-width:0.5;" />
	<path d="M 738.181818181818,285 L 738.181818181818,285 L 743.636363636364,285 L 743.636363636364,285 Z" style="fill:blue;stroke:black;stroke-width:0.5;" />
	<path d="M 743.636363636364,285 L 743.636363636364,285 L 749.090909090909,285 L 749.090909090909,285 Z" style="fill:blue;stroke:black;stroke-width:0.5;" />
	<text font-size="10" x="743.636363636364" y="297">130</text>
	<line stroke="black" stroke-width="2" x1="746.363636363636" x2="746.363636363636" y1="285" y2="283" />
	<line stroke="black" stroke-width="2" x1="746.363636363636" x2="746.363636363636" y1="285" y2="284" />
	<path d="M 749.090909090909,285 L 749.090909090909,285 L 754.545454545455,285 L 754.545454545455,285 Z" style="fill:blue;stroke:black;stroke-width:0.5;" />
	<path d="M 754.545454545455,285 L 754.545454545455,285 L 760,285 L 760,285 Z" style="fill:blue;stroke:black;stroke-width:0.5;" />
	<!-- 
	Generated using the Perl SVG Module V2.50
	by Ronan Oger
	Info: http://www.roitsystems.com/
 -->
</svg>