<?xml version="1.0" encoding="UTF-8" standalone="yes"?>
<!DOCTYPE svg PUBLIC "-//W3C//DTD SVG 1.0//EN" "http://www.w3.org/TR/2001/REC-SVG-20010904/DTD/svg10.dtd">
<svg height="300" width="800" xmlns="http://www.w3.org/2000/svg" xmlns:svg="http://www.w3.org/2000/svg" xmlns:xlink="http://www.w3.org/1999/xlink">
	<line stroke="black" stroke-width="2" x1="40" x2="40" y1="15" y2="285" />
	<line stroke="black" stroke-width="2" x1="40" x2="42.9508196721311" y1="231" y2="231" />
	<text font-size="12" x="44.4262295081967" y="231">100</text>
	<line stroke="black" stroke-width="2" x1="40" x2="42.9508196721311" y1="177" y2="177" />
	<text font-size="12" x="44.4262295081967" y="177">200</text>
	<line stroke="black" stroke-width="2" x1="40" x2="42.9508196721311" y1="123" y2="123" />
	<text font-size="12" x="44.4262295081967" y="123">300</text>
	<line stroke="black" stroke-width="2" x1="40" x2="42.9508196721311" y1="69" y2="69" />
	<text font-size="12" x="44.4262295081967" y="69">400</text>
	<line stroke="black" stroke-width="2" x1="40" x2="42.9508196721311" y1="15" y2="15" />
	<text font-size="12" x="44.4262295081967" y="15">500</text>
	<line stroke="black" stroke-width="2" x1="40" x2="800" y1="285" y2="285" />
	<path d="M 40,285 L 40,285 L 42.9508196721311,285 L 42.9508196721311,285 Z" style="fill:blue;stroke:black;stroke-width:0.5;" />
	<path d="M 42.9508196721311,285 L 42.9508196721311,285 L 45.9016393442623,285 L 45.9016393442623,285 Z" style="fill:blue;stroke:black;stroke-width:0.5;" />
	<path d="M 45.9016393442623,285 L 45.9016393442623,285 L 48.8524590163934,285 L 48.8524590163934,285 Z" style="fill:blue;stroke:black;stroke-width:0.5;" />
	<path d="M 48.8524590163934,285 L 48.8524590163934,285 L 51.8032786885246,285 L 51.8032786885246,285 Z" style="fill:blue;stroke:black;stroke-width:0.5;" />
	<path d="M 51.8032786885246,285 L 51.8032786885246,285 L 54.7540983606557,285 L 54.7540983606557,285 Z" style="fill:blue;stroke:black;stroke-width:0.5;" />
	<line stroke="black" stroke-width="2" x1="53.2786885245902" x2="53.2786885245902" y1="285" y2="284" />
	<path d="M 54.7540983606557,285 L 54.7540983606557,285 L 57.7049180327869,285 L 57.7049180327869,285 Z" style="fill:blue;stroke:black;stroke-width:0.5;" />
	<path d="M 57.7049180327869,285 L 57.7049180327869,285 L 60.655737704918,285 L 60.655737704918,285 Z" style="fill:blue;stroke:black;stroke-width:0.5;" />
	<path d="M 60.655737704918,285 L 60.655737704918,285 L 63.6065573770492,285 L 63.6065573770492,285 Z" style="fill:blue;stroke:black;stroke-width:0.5;" />
	<path d="M 63.6065573770492,285 L 63.6065573770492,285 L 66.5573770491803,285 L 66.5573770491803,285 Z" style="fill:blue;stroke:black;stroke-width:0.5;" />
	<path d="M 66.5573770491803,285 L 66.5573770491803,285 L 69.5081967213115,285 L 69.5081967213115,285 Z" style="fill:blue;stroke:black;stroke-width:0.5;" />
	<text font-size="10" x="66.5573770491803" y="297">10</text>
	<line stroke="black" stroke-width="2" x1="68.0327868852459" x2="68.0327868852459" y1="285" y2="283" />
	<line stroke="black" stroke-width="2" x1="68.0327868852459" x2="68.0327868852459" y1="285" y2="284" />
	<path d="M 69.5081967213115,285 L 69.5081967213115,285 L 72.4590163934426,285 L 72.4590163934426,285 Z" style="fill:blue;stroke:black;stroke-width:0.5;" />
	<path d="M 72.4590163934426,285 L 72.4590163934426,285 L 75.4098360655738,285 L 75.4098360655738,285 Z" style="fill:blue;stroke:black;stroke-width:0.5;" />
	<path d="M 75.4098360655738,285 L 75.4098360655738,285 L 78.3606557377049,285 L 78.3606557377049,285 Z" style="fill:blue;stroke:black;stroke-width:0.5;" />
	<path d="M 78.3606557377049,285 L 78.3606557377049,285 L 81.3114754098361,285 L 81.3114754098361,285 Z" style="fill:blue;stroke:black;stroke-width:0.5;" />
	<path d="M 81.3114754098361,285 L 81.3114754098361,285 L 84.2622950819672,285 L 84.2622950819672,285 Z" style="fill:blue;stroke:black;stroke-width:0.5;" />
	<line stroke="black" stroke-width="2" x1="82.7868852459016" x2="82.7868852459016" y1="285" y2="284" />
	<path d="M 84.2622950819672,285 L 84.2622950819672,285 L 87.2131147540984,285 L 87.2131147540984,285 Z" style="fill:blue;stroke:black;stroke-width:0.5;" />
	<path d="M 87.2131147540984,285 L 87.2131147540984,285 L 90.1639344262295,285 L 90.1639344262295,285 Z" style="fill:blue;stroke:black;stroke-width:0.5;" />
	<path d="M 90.1639344262295,285 L 90.1639344262295,285 L 93.1147540983607,285 L 93.1147540983607,285 Z" style="fill:blue;stroke:black;stroke-width:0.5;" />
	<path d="M 93.1147540983607,285 L 93.1147540983607,285 L 96.0655737704918,285 L 96.0655737704918,285 Z" style="fill:blue;stroke:black;stroke-width:0.5;" />
	<path d="M 96.0655737704918,285 L 96.0655737704918,285 L 99.016393442623,285 L 99.016393442623,285 Z" style="fill:blue;stroke:black;stroke-width:0.5;" />
	<text font-size="10" x="96.0655737704918" y="297">20</text>
	<line stroke="black" stroke-width="2" x1="97.5409836065574" x2="97.5409836065574" y1="285" y2="283" />
	<line stroke="black" stroke-width="2" x1="97.5409836065574" x2="97.5409836065574" y1="285" y2="284" />
	<path d="M 99.016393442623,285 L 99.016393442623,285 L 101.967213114754,285 L 101.967213114754,285 Z" style="fill:blue;stroke:black;stroke-width:0.5;" />
	<path d="M 101.967213114754,285 L 101.967213114754,285 L 104.918032786885,285 L 104.918032786885,285 Z" style="fill:blue;stroke:black;stroke-width:0.5;" />
	<path d="M 104.918032786885,285 L 104.918032786885,284.9136 L 107.868852459016,284.9136 L 107.868852459016,285 Z" style="fill:blue;stroke:black;stroke-width:0.5;" />
	<path d="M 107.868852459016,285 L 107.868852459016,284.9136 L 110.819672131148,284.9136 L 110.819672131148,285 Z" style="fill:blue;stroke:black;stroke-width:0.5;" />
	<path d="M 110.819672131148,285 L 110.819672131148,284.9136 L 113.770491803279,284.9136 L 113.770491803279,285 Z" style="fill:blue;stroke:black;stroke-width:0.5;" />
	<line stroke="black" stroke-width="2" x1="112.295081967213" x2="112.295081967213" y1="285" y2="284" />
	<path d="M 113.770491803279,285 L 113.770491803279,284.9136 L 116.72131147541,284.9136 L 116.72131147541,285 Z" style="fill:blue;stroke:black;stroke-width:0.5;" />
	<path d="M 116.72131147541,285 L 116.72131147541,284.9136 L 119.672131147541,284.9136 L 119.672131147541,285 Z" style="fill:blue;stroke:black;stroke-width:0.5;" />
	<path d="M 119.672131147541,285 L 119.672131147541,284.9136 L 122.622950819672,284.9136 L 122.622950819672,285 Z" style="fill:blue;stroke:black;stroke-width:0.5;" />
	<path d="M 122.622950819672,285 L 122.622950819672,284.9136 L 125.573770491803,284.9136 L 125.573770491803,285 Z" style="fill:blue;stroke:black;stroke-width:0.5;" />
	<path d="M 125.573770491803,285 L 125.573770491803,284.8272 L 128.524590163934,284.8272 L 128.524590163934,285 Z" style="fill:blue;stroke:black;stroke-width:0.5;" />
	<text font-size="10" x="125.573770491803" y="297">30</text>
	<line stroke="black" stroke-width="2" x1="127.049180327869" x2="127.049180327869" y1="285" y2="283" />
	<line stroke="black" stroke-width="2" x1="127.049180327869" x2="127.049180327869" y1="285" y2="284" />
	<path d="M 128.524590163934,285 L 128.524590163934,284.8272 L 131.475409836066,284.8272 L 131.475409836066,285 Z" style="fill:blue;stroke:black;stroke-width:0.5;" />
	<path d="M 131.475409836066,285 L 131.475409836066,284.8272 L 134.426229508197,284.8272 L 134.426229508197,285 Z" style="fill:blue;stroke:black;stroke-width:0.5;" />
	<path d="M 134.426229508197,285 L 134.426229508197,284.8272 L 137.377049180328,284.8272 L 137.377049180328,285 Z" style="fill:blue;stroke:black;stroke-width:0.5;" />
	<path d="M 137.377049180328,285 L 137.377049180328,284.8272 L 140.327868852459,284.8272 L 140.327868852459,285 Z" style="fill:blue;stroke:black;stroke-width:0.5;" />
	<path d="M 140.327868852459,285 L 140.327868852459,284.8272 L 143.27868852459,284.8272 L 143.27868852459,285 Z" style="fill:blue;stroke:black;stroke-width:0.5;" />
	<line stroke="black" stroke-width="2" x1="141.803278688525" x2="141.803278688525" y1="285" y2="284" />
	<path d="M 143.27868852459,285 L 143.27868852459,284.8272 L 146.229508196721,284.8272 L 146.229508196721,285 Z" style="fill:blue;stroke:black;stroke-width:0.5;" />
	<path d="M 146.229508196721,285 L 146.229508196721,284.8272 L 149.180327868852,284.8272 L 149.180327868852,285 Z" style="fill:blue;stroke:black;stroke-width:0.5;" />
	<path d="M 149.180327868852,285 L 149.180327868852,284.8272 L 152.131147540984,284.8272 L 152.131147540984,285 Z" style="fill:blue;stroke:black;stroke-width:0.5;" />
	<path d="M 152.131147540984,285 L 152.131147540984,284.8272 L 155.081967213115,284.8272 L 155.081967213115,285 Z" style="fill:blue;stroke:black;stroke-width:0.5;" />
	<path d="M 155.081967213115,285 L 155.081967213115,284.8272 L 158.032786885246,284.8272 L 158.032786885246,285 Z" style="fill:blue;stroke:black;stroke-width:0.5;" />
	<text font-size="10" x="155.081967213115" y="297">40</text>
	<line stroke="black" stroke-width="2" x1="156.55737704918" x2="156.55737704918" y1="285" y2="283" />
	<line stroke="black" stroke-width="2" x1="156.55737704918" x2="156.55737704918" y1="285" y2="284" />
	<path d="M 158.032786885246,285 L 158.032786885246,284.8272 L 160.983606557377,284.8272 L 160.983606557377,285 Z" style="fill:blue;stroke:black;stroke-width:0.5;" />
	<path d="M 160.983606557377,285 L 160.983606557377,284.8272 L 163.934426229508,284.8272 L 163.934426229508,285 Z" style="fill:blue;stroke:black;stroke-width:0.5;" />
	<path d="M 163.934426229508,285 L 163.934426229508,284.8272 L 166.885245901639,284.8272 L 166.885245901639,285 Z" style="fill:blue;stroke:black;stroke-width:0.5;" />
	<path d="M 166.885245901639,285 L 166.885245901639,284.8272 L 169.83606557377,284.8272 L 169.83606557377,285 Z" style="fill:blue;stroke:black;stroke-width:0.5;" />
	<path d="M 169.83606557377,285 L 169.83606557377,284.8272 L 172.786885245902,284.8272 L 172.786885245902,285 Z" style="fill:blue;stroke:black;stroke-width:0.5;" />
	<line stroke="black" stroke-width="2" x1="171.311475409836" x2="171.311475409836" y1="285" y2="284" />
	<path d="M 172.786885245902,285 L 172.786885245902,284.8272 L 175.737704918033,284.8272 L 175.737704918033,285 Z" style="fill:blue;stroke:black;stroke-width:0.5;" />
	<path d="M 175.737704918033,285 L 175.737704918033,284.9136 L 178.688524590164,284.9136 L 178.688524590164,285 Z" style="fill:blue;stroke:black;stroke-width:0.5;" />
	<path d="M 178.688524590164,285 L 178.688524590164,284.8272 L 181.639344262295,284.8272 L 181.639344262295,285 Z" style="fill:blue;stroke:black;stroke-width:0.5;" />
	<path d="M 181.639344262295,285 L 181.639344262295,284.8272 L 184.590163934426,284.8272 L 184.590163934426,285 Z" style="fill:blue;stroke:black;stroke-width:0.5;" />
	<path d="M 184.590163934426,285 L 184.590163934426,284.8272 L 187.540983606557,284.8272 L 187.540983606557,285 Z" style="fill:blue;stroke:black;stroke-width:0.5;" />
	<text font-size="10" x="184.590163934426" y="297">50</text>
	<line stroke="black" stroke-width="2" x1="186.065573770492" x2="186.065573770492" y1="285" y2="283" />
	<line stroke="black" stroke-width="2" x1="186.065573770492" x2="186.065573770492" y1="285" y2="284" />
	<path d="M 187.540983606557,285 L 187.540983606557,284.8272 L 190.491803278689,284.8272 L 190.491803278689,285 Z" style="fill:blue;stroke:black;stroke-width:0.5;" />
	<path d="M 190.491803278689,285 L 190.491803278689,284.8272 L 193.44262295082,284.8272 L 193.44262295082,285 Z" style="fill:blue;stroke:black;stroke-width:0.5;" />
	<path d="M 193.44262295082,285 L 193.44262295082,284.8272 L 196.393442622951,284.8272 L 196.393442622951,285 Z" style="fill:blue;stroke:black;stroke-width:0.5;" />
	<path d="M 196.393442622951,285 L 196.393442622951,284.8272 L 199.344262295082,284.8272 L 199.344262295082,285 Z" style="fill:blue;stroke:black;stroke-width:0.5;" />
	<path d="M 199.344262295082,285 L 199.344262295082,284.8272 L 202.295081967213,284.8272 L 202.295081967213,285 Z" style="fill:blue;stroke:black;stroke-width:0.5;" />
	<line stroke="black" stroke-width="2" x1="200.819672131148" x2="200.819672131148" y1="285" y2="284" />
	<path d="M 202.295081967213,285 L 202.295081967213,284.9136 L 205.245901639344,284.9136 L 205.245901639344,285 Z" style="fill:blue;stroke:black;stroke-width:0.5;" />
	<path d="M 205.245901639344,285 L 205.245901639344,284.9136 L 208.196721311475,284.9136 L 208.196721311475,285 Z" style="fill:blue;stroke:black;stroke-width:0.5;" />
	<path d="M 208.196721311475,285 L 208.196721311475,284.9136 L 211.147540983607,284.9136 L 211.147540983607,285 Z" style="fill:blue;stroke:black;stroke-width:0.5;" />
	<path d="M 211.147540983607,285 L 211.147540983607,284.9136 L 214.098360655738,284.9136 L 214.098360655738,285 Z" style="fill:blue;stroke:black;stroke-width:0.5;" />
	<path d="M 214.098360655738,285 L 214.098360655738,284.9136 L 217.049180327869,284.9136 L 217.049180327869,285 Z" style="fill:blue;stroke:black;stroke-width:0.5;" />
	<text font-size="10" x="214.098360655738" y="297">60</text>
	<line stroke="black" stroke-width="2" x1="215.573770491803" x2="215.573770491803" y1="285" y2="283" />
	<line stroke="black" stroke-width="2" x1="215.573770491803" x2="215.573770491803" y1="285" y2="284" />
	<path d="M 217.049180327869,285 L 217.049180327869,284.9136 L 220,284.9136 L 220,285 Z" style="fill:blue;stroke:black;stroke-width:0.5;" />
	<path d="M 220,285 L 220,284.9136 L 222.950819672131,284.9136 L 222.950819672131,285 Z" style="fill:blue;stroke:black;stroke-width:0.5;" />
	<path d="M 222.950819672131,285 L 222.950819672131,284.9136 L 225.901639344262,284.9136 L 225.901639344262,285 Z" style="fill:blue;stroke:black;stroke-width:0.5;" />
	<path d="M 225.901639344262,285 L 225.901639344262,284.9136 L 228.852459016393,284.9136 L 228.852459016393,285 Z" style="fill:blue;stroke:black;stroke-width:0.5;" />
	<path d="M 228.852459016393,285 L 228.852459016393,284.9136 L 231.803278688525,284.9136 L 231.803278688525,285 Z" style="fill:blue;stroke:black;stroke-width:0.5;" />
	<line stroke="black" stroke-width="2" x1="230.327868852459" x2="230.327868852459" y1="285" y2="284" />
	<path d="M 231.803278688525,285 L 231.803278688525,284.9136 L 234.754098360656,284.9136 L 234.754098360656,285 Z" style="fill:blue;stroke:black;stroke-width:0.5;" />
	<path d="M 234.754098360656,285 L 234.754098360656,284.9136 L 237.704918032787,284.9136 L 237.704918032787,285 Z" style="fill:blue;stroke:black;stroke-width:0.5;" />
	<path d="M 237.704918032787,285 L 237.704918032787,284.9136 L 240.655737704918,284.9136 L 240.655737704918,285 Z" style="fill:blue;stroke:black;stroke-width:0.5;" />
	<path d="M 240.655737704918,285 L 240.655737704918,284.9136 L 243.606557377049,284.9136 L 243.606557377049,285 Z" style="fill:blue;stroke:black;stroke-width:0.5;" />
	<path d="M 243.606557377049,285 L 243.606557377049,284.9136 L 246.55737704918,284.9136 L 246.55737704918,285 Z" style="fill:blue;stroke:black;stroke-width:0.5;" />
	<text font-size="10" x="243.606557377049" y="297">70</text>
	<line stroke="black" stroke-width="2" x1="245.081967213115" x2="245.081967213115" y1="285" y2="283" />
	<line stroke="black" stroke-width="2" x1="245.081967213115" x2="245.081967213115" y1="285" y2="284" />
	<path d="M 246.55737704918,285 L 246.55737704918,285 L 249.508196721311,285 L 249.508196721311,285 Z" style="fill:blue;stroke:black;stroke-width:0.5;" />
	<path d="M 249.508196721311,285 L 249.508196721311,285 L 252.459016393443,285 L 252.459016393443,285 Z" style="fill:blue;stroke:black;stroke-width:0.5;" />
	<path d="M 252.459016393443,285 L 252.459016393443,285 L 255.409836065574,285 L 255.409836065574,285 Z" style="fill:blue;stroke:black;stroke-width:0.5;" />
	<path d="M 255.409836065574,285 L 255.409836065574,285 L 258.360655737705,285 L 258.360655737705,285 Z" style="fill:blue;stroke:black;stroke-width:0.5;" />
	<path d="M 258.360655737705,285 L 258.360655737705,285 L 261.311475409836,285 L 261.311475409836,285 Z" style="fill:blue;stroke:black;stroke-width:0.5;" />
	<line stroke="black" stroke-width="2" x1="259.83606557377" x2="259.83606557377" y1="285" y2="284" />
	<path d="M 261.311475409836,285 L 261.311475409836,285 L 264.262295081967,285 L 264.262295081967,285 Z" style="fill:blue;stroke:black;stroke-width:0.5;" />
	<path d="M 264.262295081967,285 L 264.262295081967,285 L 267.213114754098,285 L 267.213114754098,285 Z" style="fill:blue;stroke:black;stroke-width:0.5;" />
	<path d="M 267.213114754098,285 L 267.213114754098,284.9136 L 270.16393442623,284.9136 L 270.16393442623,285 Z" style="fill:blue;stroke:black;stroke-width:0.5;" />
	<path d="M 270.16393442623,285 L 270.16393442623,284.8272 L 273.114754098361,284.8272 L 273.114754098361,285 Z" style="fill:blue;stroke:black;stroke-width:0.5;" />
	<path d="M 273.114754098361,285 L 273.114754098361,284.8272 L 276.065573770492,284.8272 L 276.065573770492,285 Z" style="fill:blue;stroke:black;stroke-width:0.5;" />
	<text font-size="10" x="273.114754098361" y="297">80</text>
	<line stroke="black" stroke-width="2" x1="274.590163934426" x2="274.590163934426" y1="285" y2="283" />
	<line stroke="black" stroke-width="2" x1="274.590163934426" x2="274.590163934426" y1="285" y2="284" />
	<path d="M 276.065573770492,285 L 276.065573770492,284.8272 L 279.016393442623,284.8272 L 279.016393442623,285 Z" style="fill:blue;stroke:black;stroke-width:0.5;" />
	<path d="M 279.016393442623,285 L 279.016393442623,284.8272 L 281.967213114754,284.8272 L 281.967213114754,285 Z" style="fill:blue;stroke:black;stroke-width:0.5;" />
	<path d="M 281.967213114754,285 L 281.967213114754,284.8272 L 284.918032786885,284.8272 L 284.918032786885,285 Z" style="fill:blue;stroke:black;stroke-width:0.5;" />
	<path d="M 284.918032786885,285 L 284.918032786885,284.8272 L 287.868852459016,284.8272 L 287.868852459016,285 Z" style="fill:blue;stroke:black;stroke-width:0.5;" />
	<path d="M 287.868852459016,285 L 287.868852459016,284.8272 L 290.819672131148,284.8272 L 290.819672131148,285 Z" style="fill:blue;stroke:black;stroke-width:0.5;" />
	<line stroke="black" stroke-width="2" x1="289.344262295082" x2="289.344262295082" y1="285" y2="284" />
	<path d="M 290.819672131148,285 L 290.819672131148,284.8272 L 293.770491803279,284.8272 L 293.770491803279,285 Z" style="fill:blue;stroke:black;stroke-width:0.5;" />
	<path d="M 293.770491803279,285 L 293.770491803279,266.1594 L 296.72131147541,266.1594 L 296.72131147541,285 Z" style="fill:blue;stroke:black;stroke-width:0.5;" />
	<path d="M 296.72131147541,285 L 296.72131147541,116.5902 L 299.672131147541,116.5902 L 299.672131147541,285 Z" style="fill:gold;stroke:black;stroke-width:0.5;" />
	<path d="M 299.672131147541,285 L 299.672131147541,115.9692 L 302.622950819672,115.9692 L 302.622950819672,285 Z" style="fill:gold;stroke:black;stroke-width:0.5;" />
	<path d="M 302.622950819672,285 L 302.622950819672,115.791 L 305.573770491803,115.791 L 305.573770491803,285 Z" style="fill:gold;stroke:black;stroke-width:0.5;" />
	<text font-size="10" x="302.622950819672" y="297">90</text>
	<line stroke="black" stroke-width="2" x1="304.098360655738" x2="304.098360655738" y1="285" y2="283" />
	<line stroke="black" stroke-width="2" x1="304.098360655738" x2="304.098360655738" y1="285" y2="284" />
	<path d="M 305.573770491803,285 L 305.573770491803,115.44 L 308.524590163934,115.44 L 308.524590163934,285 Z" style="fill:gold;stroke:black;stroke-width:0.5;" />
	<path d="M 308.524590163934,285 L 308.524590163934,115.44 L 311.475409836066,115.44 L 311.475409836066,285 Z" style="fill:gold;stroke:black;stroke-width:0.5;" />
	<path d="M 311.475409836066,285 L 311.475409836066,112.794 L 314.426229508197,112.794 L 314.426229508197,285 Z" style="fill:gold;stroke:black;stroke-width:0.5;" />
	<path d="M 314.426229508197,285 L 314.426229508197,112.7076 L 317.377049180328,112.7076 L 317.377049180328,285 Z" style="fill:gold;stroke:black;stroke-width:0.5;" />
	<path d="M 317.377049180328,285 L 317.377049180328,112.6212 L 320.327868852459,112.6212 L 320.327868852459,285 Z" style="fill:gold;stroke:black;stroke-width:0.5;" />
	<line stroke="black" stroke-width="2" x1="318.852459016393" x2="318.852459016393" y1="285" y2="284" />
	<path d="M 320.327868852459,285 L 320.327868852459,112.6212 L 323.27868852459,112.6212 L 323.27868852459,285 Z" style="fill:gold;stroke:black;stroke-width:0.5;" />
	<path d="M 323.27868852459,285 L 323.27868852459,112.6212 L 326.229508196721,112.6212 L 326.229508196721,285 Z" style="fill:gold;stroke:black;stroke-width:0.5;" />
	<path d="M 326.229508196721,285 L 326.229508196721,112.6212 L 329.180327868852,112.6212 L 329.180327868852,285 Z" style="fill:gold;stroke:black;stroke-width:0.5;" />
	<path d="M 329.180327868852,285 L 329.180327868852,112.6212 L 332.131147540984,112.6212 L 332.131147540984,285 Z" style="fill:gold;stroke:black;stroke-width:0.5;" />
	<path d="M 332.131147540984,285 L 332.131147540984,112.7076 L 335.081967213115,112.7076 L 335.081967213115,285 Z" style="fill:gold;stroke:black;stroke-width:0.5;" />
	<text font-size="10" x="332.131147540984" y="297">100</text>
	<line stroke="black" stroke-width="2" x1="333.606557377049" x2="333.606557377049" y1="285" y2="283" />
	<line stroke="black" stroke-width="2" x1="333.606557377049" x2="333.606557377049" y1="285" y2="284" />
	<path d="M 335.081967213115,285 L 335.081967213115,112.7076 L 338.032786885246,112.7076 L 338.032786885246,285 Z" style="fill:gold;stroke:black;stroke-width:0.5;" />
	<path d="M 338.032786885246,285 L 338.032786885246,112.7076 L 340.983606557377,112.7076 L 340.983606557377,285 Z" style="fill:gold;stroke:black;stroke-width:0.5;" />
	<path d="M 340.983606557377,285 L 340.983606557377,112.7076 L 343.934426229508,112.7076 L 343.934426229508,285 Z" style="fill:gold;stroke:black;stroke-width:0.5;" />
	<path d="M 343.934426229508,285 L 343.934426229508,112.7076 L 346.885245901639,112.7076 L 346.885245901639,285 Z" style="fill:gold;stroke:black;stroke-width:0.5;" />
	<path d="M 346.885245901639,285 L 346.885245901639,113.2368 L 349.83606557377,113.2368 L 349.83606557377,285 Z" style="fill:gold;stroke:black;stroke-width:0.5;" />
	<line stroke="black" stroke-width="2" x1="348.360655737705" x2="348.360655737705" y1="285" y2="284" />
	<path d="M 349.83606557377,285 L 349.83606557377,113.2368 L 352.786885245902,113.2368 L 352.786885245902,285 Z" style="fill:gold;stroke:black;stroke-width:0.5;" />
	<path d="M 352.786885245902,285 L 352.786885245902,113.5014 L 355.737704918033,113.5014 L 355.737704918033,285 Z" style="fill:gold;stroke:black;stroke-width:0.5;" />
	<path d="M 355.737704918033,285 L 355.737704918033,280.5072 L 358.688524590164,280.5072 L 358.688524590164,285 Z" style="fill:blue;stroke:black;stroke-width:0.5;" />
	<path d="M 358.688524590164,285 L 358.688524590164,281.7438 L 361.639344262295,281.7438 L 361.639344262295,285 Z" style="fill:blue;stroke:black;stroke-width:0.5;" />
	<path d="M 361.639344262295,285 L 361.639344262295,282.0084 L 364.590163934426,282.0084 L 364.590163934426,285 Z" style="fill:blue;stroke:black;stroke-width:0.5;" />
	<text font-size="10" x="361.639344262295" y="297">110</text>
	<line stroke="black" stroke-width="2" x1="363.114754098361" x2="363.114754098361" y1="285" y2="283" />
	<line stroke="black" stroke-width="2" x1="363.114754098361" x2="363.114754098361" y1="285" y2="284" />
	<path d="M 364.590163934426,285 L 364.590163934426,282.0948 L 367.540983606557,282.0948 L 367.540983606557,285 Z" style="fill:blue;stroke:black;stroke-width:0.5;" />
	<path d="M 367.540983606557,285 L 367.540983606557,282.2676 L 370.491803278689,282.2676 L 370.491803278689,285 Z" style="fill:blue;stroke:black;stroke-width:0.5;" />
	<path d="M 370.491803278689,285 L 370.491803278689,282.354 L 373.44262295082,282.354 L 373.44262295082,285 Z" style="fill:blue;stroke:black;stroke-width:0.5;" />
	<path d="M 373.44262295082,285 L 373.44262295082,284.7408 L 376.393442622951,284.7408 L 376.393442622951,285 Z" style="fill:blue;stroke:black;stroke-width:0.5;" />
	<path d="M 376.393442622951,285 L 376.393442622951,284.8272 L 379.344262295082,284.8272 L 379.344262295082,285 Z" style="fill:blue;stroke:black;stroke-width:0.5;" />
	<line stroke="black" stroke-width="2" x1="377.868852459016" x2="377.868852459016" y1="285" y2="284" />
	<path d="M 379.344262295082,285 L 379.344262295082,284.8272 L 382.295081967213,284.8272 L 382.295081967213,285 Z" style="fill:blue;stroke:black;stroke-width:0.5;" />
	<path d="M 382.295081967213,285 L 382.295081967213,284.8272 L 385.245901639344,284.8272 L 385.245901639344,285 Z" style="fill:blue;stroke:black;stroke-width:0.5;" />
	<path d="M 385.245901639344,285 L 385.245901639344,284.8272 L 388.196721311475,284.8272 L 388.196721311475,285 Z" style="fill:blue;stroke:black;stroke-width:0.5;" />
	<path d="M 388.196721311475,285 L 388.196721311475,284.8272 L 391.147540983607,284.8272 L 391.147540983607,285 Z" style="fill:blue;stroke:black;stroke-width:0.5;" />
	<path d="M 391.147540983607,285 L 391.147540983607,284.8272 L 394.098360655738,284.8272 L 394.098360655738,285 Z" style="fill:blue;stroke:black;stroke-width:0.5;" />
	<text font-size="10" x="391.147540983607" y="297">120</text>
	<line stroke="black" stroke-width="2" x1="392.622950819672" x2="392.622950819672" y1="285" y2="283" />
	<line stroke="black" stroke-width="2" x1="392.622950819672" x2="392.622950819672" y1="285" y2="284" />
	<path d="M 394.098360655738,285 L 394.098360655738,284.8272 L 397.049180327869,284.8272 L 397.049180327869,285 Z" style="fill:blue;stroke:black;stroke-width:0.5;" />
	<path d="M 397.049180327869,285 L 397.049180327869,284.8272 L 400,284.8272 L 400,285 Z" style="fill:blue;stroke:black;stroke-width:0.5;" />
	<path d="M 400,285 L 400,284.8272 L 402.950819672131,284.8272 L 402.950819672131,285 Z" style="fill:blue;stroke:black;stroke-width:0.5;" />
	<path d="M 402.950819672131,285 L 402.950819672131,284.8272 L 405.901639344262,284.8272 L 405.901639344262,285 Z" style="fill:blue;stroke:black;stroke-width:0.5;" />
	<path d="M 405.901639344262,285 L 405.901639344262,284.8272 L 408.852459016393,284.8272 L 408.852459016393,285 Z" style="fill:blue;stroke:black;stroke-width:0.5;" />
	<line stroke="black" stroke-width="2" x1="407.377049180328" x2="407.377049180328" y1="285" y2="284" />
	<path d="M 408.852459016393,285 L 408.852459016393,284.8272 L 411.803278688525,284.8272 L 411.803278688525,285 Z" style="fill:blue;stroke:black;stroke-width:0.5;" />
	<path d="M 411.803278688525,285 L 411.803278688525,284.8272 L 414.754098360656,284.8272 L 414.754098360656,285 Z" style="fill:blue;stroke:black;stroke-width:0.5;" />
	<path d="M 414.754098360656,285 L 414.754098360656,284.8272 L 417.704918032787,284.8272 L 417.704918032787,285 Z" style="fill:blue;stroke:black;stroke-width:0.5;" />
	<path d="M 417.704918032787,285 L 417.704918032787,284.8272 L 420.655737704918,284.8272 L 420.655737704918,285 Z" style="fill:blue;stroke:black;stroke-width:0.5;" />
	<path d="M 420.655737704918,285 L 420.655737704918,284.9136 L 423.606557377049,284.9136 L 423.606557377049,285 Z" style="fill:blue;stroke:black;stroke-width:0.5;" />
	<text font-size="10" x="420.655737704918" y="297">130</text>
	<line stroke="black" stroke-width="2" x1="422.131147540984" x2="422.131147540984" y1="285" y2="283" />
	<line stroke="black" stroke-width="2" x1="422.131147540984" x2="422.131147540984" y1="285" y2="284" />
	<path d="M 423.606557377049,285 L 423.606557377049,284.9136 L 426.55737704918,284.9136 L 426.55737704918,285 Z" style="fill:blue;stroke:black;stroke-width:0.5;" />
	<path d="M 426.55737704918,285 L 426.55737704918,284.9136 L 429.508196721311,284.9136 L 429.508196721311,285 Z" style="fill:blue;stroke:black;stroke-width:0.5;" />
	<path d="M 429.508196721311,285 L 429.508196721311,284.9136 L 432.459016393443,284.9136 L 432.459016393443,285 Z" style="fill:blue;stroke:black;stroke-width:0.5;" />
	<path d="M 432.459016393443,285 L 432.459016393443,285 L 435.409836065574,285 L 435.409836065574,285 Z" style="fill:blue;stroke:black;stroke-width:0.5;" />
	<path d="M 435.409836065574,285 L 435.409836065574,285 L 438.360655737705,285 L 438.360655737705,285 Z" style="fill:blue;stroke:black;stroke-width:0.5;" />
	<line stroke="black" stroke-width="2" x1="436.885245901639" x2="436.885245901639" y1="285" y2="284" />
	<path d="M 438.360655737705,285 L 438.360655737705,285 L 441.311475409836,285 L 441.311475409836,285 Z" style="fill:blue;stroke:black;stroke-width:0.5;" />
	<path d="M 441.311475409836,285 L 441.311475409836,284.9136 L 444.262295081967,284.9136 L 444.262295081967,285 Z" style="fill:blue;stroke:black;stroke-width:0.5;" />
	<path d="M 444.262295081967,285 L 444.262295081967,284.9136 L 447.213114754098,284.9136 L 447.213114754098,285 Z" style="fill:blue;stroke:black;stroke-width:0.5;" />
	<path d="M 447.213114754098,285 L 447.213114754098,284.8272 L 450.16393442623,284.8272 L 450.16393442623,285 Z" style="fill:blue;stroke:black;stroke-width:0.5;" />
	<path d="M 450.16393442623,285 L 450.16393442623,284.8272 L 453.114754098361,284.8272 L 453.114754098361,285 Z" style="fill:blue;stroke:black;stroke-width:0.5;" />
	<text font-size="10" x="450.16393442623" y="297">140</text>
	<line stroke="black" stroke-width="2" x1="451.639344262295" x2="451.639344262295" y1="285" y2="283" />
	<line stroke="black" stroke-width="2" x1="451.639344262295" x2="451.639344262295" y1="285" y2="284" />
	<path d="M 453.114754098361,285 L 453.114754098361,284.8272 L 456.065573770492,284.8272 L 456.065573770492,285 Z" style="fill:blue;stroke:black;stroke-width:0.5;" />
	<path d="M 456.065573770492,285 L 456.065573770492,284.8272 L 459.016393442623,284.8272 L 459.016393442623,285 Z" style="fill:blue;stroke:black;stroke-width:0.5;" />
	<path d="M 459.016393442623,285 L 459.016393442623,284.8272 L 461.967213114754,284.8272 L 461.967213114754,285 Z" style="fill:blue;stroke:black;stroke-width:0.5;" />
	<path d="M 461.967213114754,285 L 461.967213114754,284.8272 L 464.918032786885,284.8272 L 464.918032786885,285 Z" style="fill:blue;stroke:black;stroke-width:0.5;" />
	<path d="M 464.918032786885,285 L 464.918032786885,284.8272 L 467.868852459016,284.8272 L 467.868852459016,285 Z" style="fill:blue;stroke:black;stroke-width:0.5;" />
	<line stroke="black" stroke-width="2" x1="466.393442622951" x2="466.393442622951" y1="285" y2="284" />
	<path d="M 467.868852459016,285 L 467.868852459016,284.8272 L 470.819672131148,284.8272 L 470.819672131148,285 Z" style="fill:blue;stroke:black;stroke-width:0.5;" />
	<path d="M 470.819672131148,285 L 470.819672131148,284.8272 L 473.770491803279,284.8272 L 473.770491803279,285 Z" style="fill:blue;stroke:black;stroke-width:0.5;" />
	<path d="M 473.770491803279,285 L 473.770491803279,284.8272 L 476.72131147541,284.8272 L 476.72131147541,285 Z" style="fill:blue;stroke:black;stroke-width:0.5;" />
	<path d="M 476.72131147541,285 L 476.72131147541,284.8272 L 479.672131147541,284.8272 L 479.672131147541,285 Z" style="fill:blue;stroke:black;stroke-width:0.5;" />
	<path d="M 479.672131147541,285 L 479.672131147541,284.8272 L 482.622950819672,284.8272 L 482.622950819672,285 Z" style="fill:blue;stroke:black;stroke-width:0.5;" />
	<text font-size="10" x="479.672131147541" y="297">150</text>
	<line stroke="black" stroke-width="2" x1="481.147540983607" x2="481.147540983607" y1="285" y2="283" />
	<line stroke="black" stroke-width="2" x1="481.147540983607" x2="481.147540983607" y1="285" y2="284" />
	<path d="M 482.622950819672,285 L 482.622950819672,284.8272 L 485.573770491803,284.8272 L 485.573770491803,285 Z" style="fill:blue;stroke:black;stroke-width:0.5;" />
	<path d="M 485.573770491803,285 L 485.573770491803,284.8272 L 488.524590163934,284.8272 L 488.524590163934,285 Z" style="fill:blue;stroke:black;stroke-width:0.5;" />
	<path d="M 488.524590163934,285 L 488.524590163934,284.6544 L 491.475409836066,284.6544 L 491.475409836066,285 Z" style="fill:blue;stroke:black;stroke-width:0.5;" />
	<path d="M 491.475409836066,285 L 491.475409836066,284.6544 L 494.426229508197,284.6544 L 494.426229508197,285 Z" style="fill:blue;stroke:black;stroke-width:0.5;" />
	<path d="M 494.426229508197,285 L 494.426229508197,284.568 L 497.377049180328,284.568 L 497.377049180328,285 Z" style="fill:blue;stroke:black;stroke-width:0.5;" />
	<line stroke="black" stroke-width="2" x1="495.901639344262" x2="495.901639344262" y1="285" y2="284" />
	<path d="M 497.377049180328,285 L 497.377049180328,284.568 L 500.327868852459,284.568 L 500.327868852459,285 Z" style="fill:blue;stroke:black;stroke-width:0.5;" />
	<path d="M 500.327868852459,285 L 500.327868852459,284.568 L 503.27868852459,284.568 L 503.27868852459,285 Z" style="fill:blue;stroke:black;stroke-width:0.5;" />
	<path d="M 503.27868852459,285 L 503.27868852459,284.4816 L 506.229508196721,284.4816 L 506.229508196721,285 Z" style="fill:blue;stroke:black;stroke-width:0.5;" />
	<path d="M 506.229508196721,285 L 506.229508196721,284.4816 L 509.180327868852,284.4816 L 509.180327868852,285 Z" style="fill:blue;stroke:black;stroke-width:0.5;" />
	<path d="M 509.180327868852,285 L 509.180327868852,284.4816 L 512.131147540984,284.4816 L 512.131147540984,285 Z" style="fill:blue;stroke:black;stroke-width:0.5;" />
	<text font-size="10" x="509.180327868852" y="297">160</text>
	<line stroke="black" stroke-width="2" x1="510.655737704918" x2="510.655737704918" y1="285" y2="283" />
	<line stroke="black" stroke-width="2" x1="510.655737704918" x2="510.655737704918" y1="285" y2="284" />
	<path d="M 512.131147540984,285 L 512.131147540984,284.4816 L 515.081967213115,284.4816 L 515.081967213115,285 Z" style="fill:blue;stroke:black;stroke-width:0.5;" />
	<path d="M 515.081967213115,285 L 515.081967213115,284.3952 L 518.032786885246,284.3952 L 518.032786885246,285 Z" style="fill:blue;stroke:black;stroke-width:0.5;" />
	<path d="M 518.032786885246,285 L 518.032786885246,284.3034 L 520.983606557377,284.3034 L 520.983606557377,285 Z" style="fill:blue;stroke:black;stroke-width:0.5;" />
	<path d="M 520.983606557377,285 L 520.983606557377,284.3034 L 523.934426229508,284.3034 L 523.934426229508,285 Z" style="fill:blue;stroke:black;stroke-width:0.5;" />
	<path d="M 523.934426229508,285 L 523.934426229508,284.3034 L 526.885245901639,284.3034 L 526.885245901639,285 Z" style="fill:blue;stroke:black;stroke-width:0.5;" />
	<line stroke="black" stroke-width="2" x1="525.409836065574" x2="525.409836065574" y1="285" y2="284" />
	<path d="M 526.885245901639,285 L 526.885245901639,284.3034 L 529.83606557377,284.3034 L 529.83606557377,285 Z" style="fill:blue;stroke:black;stroke-width:0.5;" />
	<path d="M 529.83606557377,285 L 529.83606557377,284.3034 L 532.786885245902,284.3034 L 532.786885245902,285 Z" style="fill:blue;stroke:black;stroke-width:0.5;" />
	<path d="M 532.786885245902,285 L 532.786885245902,284.3898 L 535.737704918033,284.3898 L 535.737704918033,285 Z" style="fill:blue;stroke:black;stroke-width:0.5;" />
	<path d="M 535.737704918033,285 L 535.737704918033,284.3898 L 538.688524590164,284.3898 L 538.688524590164,285 Z" style="fill:blue;stroke:black;stroke-width:0.5;" />
	<path d="M 538.688524590164,285 L 538.688524590164,284.3898 L 541.639344262295,284.3898 L 541.639344262295,285 Z" style="fill:blue;stroke:black;stroke-width:0.5;" />
	<text font-size="10" x="538.688524590164" y="297">170</text>
	<line stroke="black" stroke-width="2" x1="540.16393442623" x2="540.16393442623" y1="285" y2="283" />
	<line stroke="black" stroke-width="2" x1="540.16393442623" x2="540.16393442623" y1="285" y2="284" />
	<path d="M 541.639344262295,285 L 541.639344262295,284.3898 L 544.590163934426,284.3898 L 544.590163934426,285 Z" style="fill:blue;stroke:black;stroke-width:0.5;" />
	<path d="M 544.590163934426,285 L 544.590163934426,284.4762 L 547.540983606557,284.4762 L 547.540983606557,285 Z" style="fill:blue;stroke:black;stroke-width:0.5;" />
	<path d="M 547.540983606557,285 L 547.540983606557,284.3898 L 550.491803278689,284.3898 L 550.491803278689,285 Z" style="fill:blue;stroke:black;stroke-width:0.5;" />
	<path d="M 550.491803278689,285 L 550.491803278689,284.3898 L 553.44262295082,284.3898 L 553.44262295082,285 Z" style="fill:blue;stroke:black;stroke-width:0.5;" />
	<path d="M 553.44262295082,285 L 553.44262295082,284.3898 L 556.393442622951,284.3898 L 556.393442622951,285 Z" style="fill:blue;stroke:black;stroke-width:0.5;" />
	<line stroke="black" stroke-width="2" x1="554.918032786885" x2="554.918032786885" y1="285" y2="284" />
	<path d="M 556.393442622951,285 L 556.393442622951,284.3898 L 559.344262295082,284.3898 L 559.344262295082,285 Z" style="fill:blue;stroke:black;stroke-width:0.5;" />
	<path d="M 559.344262295082,285 L 559.344262295082,284.2116 L 562.295081967213,284.2116 L 562.295081967213,285 Z" style="fill:blue;stroke:black;stroke-width:0.5;" />
	<path d="M 562.295081967213,285 L 562.295081967213,284.1252 L 565.245901639344,284.1252 L 565.245901639344,285 Z" style="fill:blue;stroke:black;stroke-width:0.5;" />
	<path d="M 565.245901639344,285 L 565.245901639344,283.947 L 568.196721311475,283.947 L 568.196721311475,285 Z" style="fill:blue;stroke:black;stroke-width:0.5;" />
	<path d="M 568.196721311475,285 L 568.196721311475,284.1198 L 571.147540983607,284.1198 L 571.147540983607,285 Z" style="fill:blue;stroke:black;stroke-width:0.5;" />
	<text font-size="10" x="568.196721311475" y="297">180</text>
	<line stroke="black" stroke-width="2" x1="569.672131147541" x2="569.672131147541" y1="285" y2="283" />
	<line stroke="black" stroke-width="2" x1="569.672131147541" x2="569.672131147541" y1="285" y2="284" />
	<path d="M 571.147540983607,285 L 571.147540983607,284.1198 L 574.098360655738,284.1198 L 574.098360655738,285 Z" style="fill:blue;stroke:black;stroke-width:0.5;" />
	<path d="M 574.098360655738,285 L 574.098360655738,284.1198 L 577.049180327869,284.1198 L 577.049180327869,285 Z" style="fill:blue;stroke:black;stroke-width:0.5;" />
	<path d="M 577.049180327869,285 L 577.049180327869,284.2062 L 580,284.2062 L 580,285 Z" style="fill:blue;stroke:black;stroke-width:0.5;" />
	<path d="M 580,285 L 580,284.3844 L 582.950819672131,284.3844 L 582.950819672131,285 Z" style="fill:blue;stroke:black;stroke-width:0.5;" />
	<path d="M 582.950819672131,285 L 582.950819672131,284.3844 L 585.901639344262,284.3844 L 585.901639344262,285 Z" style="fill:blue;stroke:black;stroke-width:0.5;" />
	<line stroke="black" stroke-width="2" x1="584.426229508197" x2="584.426229508197" y1="285" y2="284" />
	<path d="M 585.901639344262,285 L 585.901639344262,284.1198 L 588.852459016393,284.1198 L 588.852459016393,285 Z" style="fill:blue;stroke:black;stroke-width:0.5;" />
	<path d="M 588.852459016393,285 L 588.852459016393,284.0334 L 591.803278688525,284.0334 L 591.803278688525,285 Z" style="fill:blue;stroke:black;stroke-width:0.5;" />
	<path d="M 591.803278688525,285 L 591.803278688525,283.947 L 594.754098360656,283.947 L 594.754098360656,285 Z" style="fill:blue;stroke:black;stroke-width:0.5;" />
	<path d="M 594.754098360656,285 L 594.754098360656,283.947 L 597.704918032787,283.947 L 597.704918032787,285 Z" style="fill:blue;stroke:black;stroke-width:0.5;" />
	<path d="M 597.704918032787,285 L 597.704918032787,283.947 L 600.655737704918,283.947 L 600.655737704918,285 Z" style="fill:blue;stroke:black;stroke-width:0.5;" />
	<text font-size="10" x="597.704918032787" y="297">190</text>
	<line stroke="black" stroke-width="2" x1="599.180327868852" x2="599.180327868852" y1="285" y2="283" />
	<line stroke="black" stroke-width="2" x1="599.180327868852" x2="599.180327868852" y1="285" y2="284" />
	<path d="M 600.655737704918,285 L 600.655737704918,283.947 L 603.606557377049,283.947 L 603.606557377049,285 Z" style="fill:blue;stroke:black;stroke-width:0.5;" />
	<path d="M 603.606557377049,285 L 603.606557377049,283.7688 L 606.55737704918,283.7688 L 606.55737704918,285 Z" style="fill:blue;stroke:black;stroke-width:0.5;" />
	<path d="M 606.55737704918,285 L 606.55737704918,283.7688 L 609.508196721311,283.7688 L 609.508196721311,285 Z" style="fill:blue;stroke:black;stroke-width:0.5;" />
	<path d="M 609.508196721311,285 L 609.508196721311,283.6824 L 612.459016393443,283.6824 L 612.459016393443,285 Z" style="fill:blue;stroke:black;stroke-width:0.5;" />
	<path d="M 612.459016393443,285 L 612.459016393443,283.4178 L 615.409836065574,283.4178 L 615.409836065574,285 Z" style="fill:blue;stroke:black;stroke-width:0.5;" />
	<line stroke="black" stroke-width="2" x1="613.934426229508" x2="613.934426229508" y1="285" y2="284" />
	<path d="M 615.409836065574,285 L 615.409836065574,283.5906 L 618.360655737705,283.5906 L 618.360655737705,285 Z" style="fill:blue;stroke:black;stroke-width:0.5;" />
	<path d="M 618.360655737705,285 L 618.360655737705,283.5042 L 621.311475409836,283.5042 L 621.311475409836,285 Z" style="fill:blue;stroke:black;stroke-width:0.5;" />
	<path d="M 621.311475409836,285 L 621.311475409836,283.5042 L 624.262295081967,283.5042 L 624.262295081967,285 Z" style="fill:blue;stroke:black;stroke-width:0.5;" />
	<path d="M 624.262295081967,285 L 624.262295081967,283.5042 L 627.213114754098,283.5042 L 627.213114754098,285 Z" style="fill:blue;stroke:black;stroke-width:0.5;" />
	<path d="M 627.213114754098,285 L 627.213114754098,283.5042 L 630.16393442623,283.5042 L 630.16393442623,285 Z" style="fill:blue;stroke:black;stroke-width:0.5;" />
	<text font-size="10" x="627.213114754098" y="297">200</text>
	<line stroke="black" stroke-width="2" x1="628.688524590164" x2="628.688524590164" y1="285" y2="283" />
	<line stroke="black" stroke-width="2" x1="628.688524590164" x2="628.688524590164" y1="285" y2="284" />
	<path d="M 630.16393442623,285 L 630.16393442623,283.6824 L 633.114754098361,283.6824 L 633.114754098361,285 Z" style="fill:blue;stroke:black;stroke-width:0.5;" />
	<path d="M 633.114754098361,285 L 633.114754098361,283.6824 L 636.065573770492,283.6824 L 636.065573770492,285 Z" style="fill:blue;stroke:black;stroke-width:0.5;" />
	<path d="M 636.065573770492,285 L 636.065573770492,283.6824 L 639.016393442623,283.6824 L 639.016393442623,285 Z" style="fill:gold;stroke:black;stroke-width:0.5;" />
	<path d="M 639.016393442623,285 L 639.016393442623,283.6824 L 641.967213114754,283.6824 L 641.967213114754,285 Z" style="fill:gold;stroke:black;stroke-width:0.5;" />
	<path d="M 641.967213114754,285 L 641.967213114754,283.6824 L 644.918032786885,283.6824 L 644.918032786885,285 Z" style="fill:gold;stroke:black;stroke-width:0.5;" />
	<line stroke="black" stroke-width="2" x1="643.44262295082" x2="643.44262295082" y1="285" y2="284" />
	<path d="M 644.918032786885,285 L 644.918032786885,283.5042 L 647.868852459016,283.5042 L 647.868852459016,285 Z" style="fill:gold;stroke:black;stroke-width:0.5;" />
	<path d="M 647.868852459016,285 L 647.868852459016,283.5906 L 650.819672131148,283.5906 L 650.819672131148,285 Z" style="fill:gold;stroke:black;stroke-width:0.5;" />
	<path d="M 650.819672131148,285 L 650.819672131148,283.677 L 653.770491803279,283.677 L 653.770491803279,285 Z" style="fill:gold;stroke:black;stroke-width:0.5;" />
	<path d="M 653.770491803279,285 L 653.770491803279,283.677 L 656.72131147541,283.677 L 656.72131147541,285 Z" style="fill:gold;stroke:black;stroke-width:0.5;" />
	<path d="M 656.72131147541,285 L 656.72131147541,283.677 L 659.672131147541,283.677 L 659.672131147541,285 Z" style="fill:gold;stroke:black;stroke-width:0.5;" />
	<text font-size="10" x="656.72131147541" y="297">210</text>
	<line stroke="black" stroke-width="2" x1="658.196721311475" x2="658.196721311475" y1="285" y2="283" />
	<line stroke="black" stroke-width="2" x1="658.196721311475" x2="658.196721311475" y1="285" y2="284" />
	<path d="M 659.672131147541,285 L 659.672131147541,283.677 L 662.622950819672,283.677 L 662.622950819672,285 Z" style="fill:gold;stroke:black;stroke-width:0.5;" />
	<path d="M 662.622950819672,285 L 662.622950819672,283.677 L 665.573770491803,283.677 L 665.573770491803,285 Z" style="fill:gold;stroke:black;stroke-width:0.5;" />
	<path d="M 665.573770491803,285 L 665.573770491803,284.2062 L 668.524590163934,284.2062 L 668.524590163934,285 Z" style="fill:gold;stroke:black;stroke-width:0.5;" />
	<path d="M 668.524590163934,285 L 668.524590163934,284.4708 L 671.475409836066,284.4708 L 671.475409836066,285 Z" style="fill:gold;stroke:black;stroke-width:0.5;" />
	<path d="M 671.475409836066,285 L 671.475409836066,284.649 L 674.426229508197,284.649 L 674.426229508197,285 Z" style="fill:gold;stroke:black;stroke-width:0.5;" />
	<line stroke="black" stroke-width="2" x1="672.950819672131" x2="672.950819672131" y1="285" y2="284" />
	<path d="M 674.426229508197,285 L 674.426229508197,284.649 L 677.377049180328,284.649 L 677.377049180328,285 Z" style="fill:gold;stroke:black;stroke-width:0.5;" />
	<path d="M 677.377049180328,285 L 677.377049180328,284.7354 L 680.327868852459,284.7354 L 680.327868852459,285 Z" style="fill:gold;stroke:black;stroke-width:0.5;" />
	<path d="M 680.327868852459,285 L 680.327868852459,284.8218 L 683.27868852459,284.8218 L 683.27868852459,285 Z" style="fill:gold;stroke:black;stroke-width:0.5;" />
	<path d="M 683.27868852459,285 L 683.27868852459,284.8218 L 686.229508196721,284.8218 L 686.229508196721,285 Z" style="fill:gold;stroke:black;stroke-width:0.5;" />
	<path d="M 686.229508196721,285 L 686.229508196721,284.8218 L 689.180327868852,284.8218 L 689.180327868852,285 Z" style="fill:gold;stroke:black;stroke-width:0.5;" />
	<text font-size="10" x="686.229508196721" y="297">220</text>
	<line stroke="black" stroke-width="2" x1="687.704918032787" x2="687.704918032787" y1="285" y2="283" />
	<line stroke="black" stroke-width="2" x1="687.704918032787" x2="687.704918032787" y1="285" y2="284" />
	<path d="M 689.180327868852,285 L 689.180327868852,284.8218 L 692.131147540984,284.8218 L 692.131147540984,285 Z" style="fill:gold;stroke:black;stroke-width:0.5;" />
	<path d="M 692.131147540984,285 L 692.131147540984,284.8218 L 695.081967213115,284.8218 L 695.081967213115,285 Z" style="fill:gold;stroke:black;stroke-width:0.5;" />
	<path d="M 695.081967213115,285 L 695.081967213115,285 L 698.032786885246,285 L 698.032786885246,285 Z" style="fill:blue;stroke:black;stroke-width:0.5;" />
	<path d="M 698.032786885246,285 L 698.032786885246,285 L 700.983606557377,285 L 700.983606557377,285 Z" style="fill:blue;stroke:black;stroke-width:0.5;" />
	<path d="M 700.983606557377,285 L 700.983606557377,285 L 703.934426229508,285 L 703.934426229508,285 Z" style="fill:blue;stroke:black;stroke-width:0.5;" />
	<line stroke="black" stroke-width="2" x1="702.459016393443" x2="702.459016393443" y1="285" y2="284" />
	<path d="M 703.934426229508,285 L 703.934426229508,285 L 706.885245901639,285 L 706.885245901639,285 Z" style="fill:blue;stroke:black;stroke-width:0.5;" />
	<path d="M 706.885245901639,285 L 706.885245901639,285 L 709.83606557377,285 L 709.83606557377,285 Z" style="fill:blue;stroke:black;stroke-width:0.5;" />
	<path d="M 709.83606557377,285 L 709.83606557377,285 L 712.786885245902,285 L 712.786885245902,285 Z" style="fill:blue;stroke:black;stroke-width:0.5;" />
	<path d="M 712.786885245902,285 L 712.786885245902,285 L 715.737704918033,285 L 715.737704918033,285 Z" style="fill:blue;stroke:black;stroke-width:0.5;" />
	<path d="M 715.737704918033,285 L 715.737704918033,285 L 718.688524590164,285 L 718.688524590164,285 Z" style="fill:blue;stroke:black;stroke-width:0.5;" />
	<text font-size="10" x="715.737704918033" y="297">230</text>
	<line stroke="black" stroke-width="2" x1="717.213114754098" x2="717.213114754098" y1="285" y2="283" />
	<line stroke="black" stroke-width="2" x1="717.213114754098" x2="717.213114754098" y1="285" y2="284" />
	<path d="M 718.688524590164,285 L 718.688524590164,285 L 721.639344262295,285 L 721.639344262295,285 Z" style="fill:blue;stroke:black;stroke-width:0.5;" />
	<path d="M 721.639344262295,285 L 721.639344262295,285 L 724.590163934426,285 L 724.590163934426,285 Z" style="fill:blue;stroke:black;stroke-width:0.5;" />
	<path d="M 724.590163934426,285 L 724.590163934426,285 L 727.540983606557,285 L 727.540983606557,285 Z" style="fill:blue;stroke:black;stroke-width:0.5;" />
	<path d="M 727.540983606557,285 L 727.540983606557,285 L 730.491803278689,285 L 730.491803278689,285 Z" style="fill:blue;stroke:black;stroke-width:0.5;" />
	<path d="M 730.491803278689,285 L 730.491803278689,285 L 733.44262295082,285 L 733.44262295082,285 Z" style="fill:blue;stroke:black;stroke-width:0.5;" />
	<line stroke="black" stroke-width="2" x1="731.967213114754" x2="731.967213114754" y1="285" y2="284" />
	<path d="M 733.44262295082,285 L 733.44262295082,285 L 736.393442622951,285 L 736.393442622951,285 Z" style="fill:blue;stroke:black;stroke-width:0.5;" />
	<path d="M 736.393442622951,285 L 736.393442622951,285 L 739.344262295082,285 L 739.344262295082,285 Z" style="fill:blue;stroke:black;stroke-width:0.5;" />
	<path d="M 739.344262295082,285 L 739.344262295082,285 L 742.295081967213,285 L 742.295081967213,285 Z" style="fill:blue;stroke:black;stroke-width:0.5;" />
	<path d="M 742.295081967213,285 L 742.295081967213,285 L 745.245901639344,285 L 745.245901639344,285 Z" style="fill:blue;stroke:black;stroke-width:0.5;" />
	<path d="M 745.245901639344,285 L 745.245901639344,285 L 748.196721311475,285 L 748.196721311475,285 Z" style="fill:blue;stroke:black;stroke-width:0.5;" />
	<text font-size="10" x="745.245901639344" y="297">240</text>
	<line stroke="black" stroke-width="2" x1="746.72131147541" x2="746.72131147541" y1="285" y2="283" />
	<line stroke="black" stroke-width="2" x1="746.72131147541" x2="746.72131147541" y1="285" y2="284" />
	<path d="M 748.196721311475,285 L 748.196721311475,285 L 751.147540983607,285 L 751.147540983607,285 Z" style="fill:blue;stroke:black;stroke-width:0.5;" />
	<path d="M 751.147540983607,285 L 751.147540983607,285 L 754.098360655738,285 L 754.098360655738,285 Z" style="fill:blue;stroke:black;stroke-width:0.5;" />
	<path d="M 754.098360655738,285 L 754.098360655738,285 L 757.049180327869,285 L 757.049180327869,285 Z" style="fill:blue;stroke:black;stroke-width:0.5;" />
	<path d="M 757.049180327869,285 L 757.049180327869,285 L 760,285 L 760,285 Z" style="fill:blue;stroke:black;stroke-width:0.5;" />
	<!-- 
	Generated using the Perl SVG Module V2.50
	by Ronan Oger
	Info: http://www.roitsystems.com/
 -->
</svg>